<svg xmlns="http://www.w3.org/2000/svg" xmlns:xlink="http://www.w3.org/1999/xlink" width="266" height="168" viewBox="0 0 266 168">
    <defs>
        <rect id="b" width="262" height="164" rx="8"/>
        <filter id="a" width="102.3%" height="103.7%" x="-1.1%" y="-1.8%" filterUnits="objectBoundingBox">
            <feOffset in="SourceAlpha" result="shadowOffsetOuter1"/>
            <feGaussianBlur in="shadowOffsetOuter1" result="shadowBlurOuter1" stdDeviation="1"/>
            <feColorMatrix in="shadowBlurOuter1" values="0 0 0 0 0 0 0 0 0 0 0 0 0 0 0 0 0 0 0.1 0"/>
        </filter>
        <linearGradient id="c" x1="0%" x2="97.342%" y1="45.966%" y2="53.819%">
            <stop offset="0%" stop-color="#0023FF"/>
            <stop offset="52.38%" stop-color="#AF27D9"/>
            <stop offset="100%" stop-color="#FFD873"/>
        </linearGradient>
    </defs>
    <g fill="none" fill-rule="evenodd">
        <g transform="translate(2 2)">
            <use fill="#000" filter="url(#a)" xlink:href="#b"/>
            <use fill="#F3F3F3" xlink:href="#b"/>
        </g>
        <g fill="#000" font-family="TradeGothicLTStd-BdCn20, Trade Gothic LT Std" font-style="condensed" font-weight="bold">
            <text font-size="31.55" style="mix-blend-mode:multiply" transform="translate(85.63 37)">
                <tspan x="28.932" y="75.82">TOUS</tspan>
            </text>
            <text font-size="13.146" style="mix-blend-mode:multiply" transform="translate(85.63 37)">
                <tspan x="1.149" y="65.035">POUR</tspan>
            </text>
            <text font-size="16.032" letter-spacing="1.87" style="mix-blend-mode:multiply" transform="translate(85.63 37)">
                <tspan x=".991" y="14">ACCÈS À L</tspan> <tspan x="75.682" y="14">A</tspan>
            </text>
        </g>
        <path fill="url(#c)" d="M10.067 25.263c.045 0 .071.004.097.03.03.03.03.09-.03.12h-.06c-.03 0-.06-.03-.03-.06l.023-.09zm2.94-3.89l-.03-.03h-.03c-.21.21-.18.21-.03.3l.09-.27zm2.514 3.471c0 .03 0 .06-.03.06-.24.18-.36.15-.33-.09l.03-.09c.03-.03.06-.06.12-.03.03.09.18.06.21.15zM5.555 30.56h-.06l.03-.09-.09.09c0 .03.03.06 0 .09l.12-.09zm10.654-4.25l-.03.03.03-.09c.03-.03 0-.06-.03-.09l-.09.09-.03.09c-.03.06-.03.09 0 .12 0 .09.12-.03.15-.15zM5.615 29.483l-.03.03-.06-.06h-.06c-.09.06-.12.15-.09.24l.03.029c.03 0 .06-.03.06-.06l.15-.18zm-.838 10.503l.03.03c-.03-.03 0-.09-.03-.12s-.06-.03-.12 0c-.09.03-.06.12.03.12.03 0 .06-.03.09-.03zm-1.57-5.596h.044l.15-.18c0-.03 0-.03-.03-.059-.06 0-.09 0-.09.03-.12.09-.15.21-.06.21h-.015zm9.86 5.417h.03c-.03.03-.12.03-.15.12-.03.03-.03.09 0 .12h.03c.09-.03.18-.09.21-.12.03-.09-.03-.15-.12-.12zm-8.5-.3l-.03-.03c.03.03.15 0 .15-.089-.03-.09-.03-.12-.06-.15 0-.03-.12 0-.149.09-.03.09 0 .15.09.18zm1.377-8.797l-.09.03.06-.15c-.03-.09-.06-.06-.15.09l-.179.269c0 .03 0 .06.03.09.09-.03.12-.06.15-.09l.18-.24zM16 23.916h.06c.03-.18.03-.359 0-.508H16c-.03 0-.03 0-.06.03-.09.15-.09.329-.06.508 0 .03.03.03.09.03l.03-.06zm-.359 1.796l.06-.21c.03-.03 0-.06-.03-.09 0 .03-.03.06-.06.09l-.21.719c-.03.03 0 .06 0 .09l.09-.09.15-.509zm-3.65 15.262h.09c-.03 0-.03 0-.03-.03-.24.09-.36.21-.57.33-.09.03-.06.119.03.119s.15 0 .18-.03c.15-.09.24-.21.3-.389zm-7.183-2.723h.06c.03-.09.03-.15.03-.18 0-.21-.06-.329-.06-.538-.03-.03-.09-.06-.09-.09-.03-.03-.15.03-.18.12-.03.12-.06.209-.03.239 0 .21.12.3.15.509h.03s.03-.03.09-.06zm1.227-8.649l-.09-.06-.03.12c-.03.06-.03.09 0 .12s.06.03.12 0a.23.23 0 0 1 .3-.03c.03.03.12.03.12 0l.448-.539c.03-.03 0-.09-.03-.12 0-.06-.03-.06-.12-.03-.12.03-.21.09-.359.12-.12.03-.24.12-.329.27l-.03.15zm.868-.927l.03-.06h.09c.12-.21.359-.3.449-.509.03-.09.09-.21.18-.3.119-.119.119-.179.03-.179-.06 0-.09 0-.12.03-.18.12-.33.24-.42.36-.03.06-.12.119-.269.149-.15.09-.3.3-.21.389.09.09.15.09.24.12zm3.382-4.848l-.06.03h-.09c-.33.18-.539.389-.628.658-.09.21-.06.33-.15.539 0 .09.12.15.24.06.09-.06.119-.09.119-.09.03-.09.03-.24.06-.45.03-.089.09-.179.18-.209l.299-.09c.09-.03.15-.12.12-.239 0-.09-.03-.09-.06-.18.03-.03 0-.03-.03-.03zm-4.729 7.9l-.03-.03v-.27h-.03c-.269.21-.478.42-.508.689-.09.449-.21.778-.42 1.227l-.03.09c0 .09 0 .15.09.12.09-.06.12-.09.12-.09.12-.24.18-.48.3-.689.239-.329.299-.688.508-1.047zm2.454-5.476l.09-.06-.15.09c-.329.329-.299.568-.18.837 0 .06.06.09.15.09.06 0 .12-.03.18-.12.06-.03.12-.12.15-.239.06-.27.239-.479.538-.628.21-.09.27-.24.36-.45.03-.089-.06-.209-.18-.209-.09 0-.18.03-.21.12-.09.15-.12.33-.269.419-.15.09-.33.389-.479.15zm8.56-5.145l.149.177c.12.09-.06.24.03.33l.03.179c.209.508.209 1.107.03 1.795-.03.21 0 .36.09.45.03.03.03.089-.06.179-.21.24-.09.508-.3.748l-.03.09.03.18c.09.149.18.268.09.478-.15.449-.12.808-.45 1.257-.059.09-.089.24-.059.449-.03.03-.03.06 0 .06.03.03.06.03.09-.06.15-.27.3-.509.419-.838.15-.509.359-1.018.509-1.526.09-.24.12-.48.15-.719l.089-.359c.09-.449.12-.808.12-1.197 0-.598-.21-1.107-.48-1.556-.1-.151-.243-.196-.446-.117zm-.066-.005c-.012-.084-.046-.124-.115-.147h-.06l-.03.03c.026.076.094.109.205.117zM3.647 39.823c-.088.322-.03.576.053.882 0 .03.03.03.06.03.06 0 .09-.03.09-.09 0-.24 0-.479-.09-.688 0-.084-.078-.064-.113-.134zm-.02-.125l.103-.31a.39.39 0 0 0-.15-.39c.15-.388.18-.747.18-1.106 0-.599.21-1.227.24-1.826.089-.329.089-.628.179-.957.09-.33.18-.689.299-1.048l.09-.27v-.029c-.03 0-.06.03-.09.06-.12.27-.18.538-.389.808l-.15.359c-.03.33-.21.688-.18 1.017.03.36-.209.749-.209 1.108l-.03.09v1.167c0 .239-.06.478.06.688-.08.294-.065.493.047.639zm9.26-18.445l-.09.03h-.03c-.15 0-.329 0-.478.15-.39.359-.838.658-1.167 1.107-.15.21-.3.359-.45.449-.06.03-.12.06-.179.15-.12.12-.12.209-.03.299s.18.06.3-.03l.538-.539c.12-.12.24-.15.39-.12.119 0 .149.03.089.12-.24.27-.479.509-.718.838l-.988 1.257c-.03.03-.06.12-.09.21l-.269.269c-.09.12-.12.239-.09.359.03.06 0 .12-.09.18-.448.269-.658.628-.688 1.017 0 .15-.06.27-.18.299-.388.21-.628.509-.658.898-.03.299-.18.598-.389.898l-.299.448c-.03.09-.12.18-.24.27a.94.94 0 0 0-.299.299l-.419.898a.19.19 0 0 0 0 .18c.06.03.09.09.06.149-.21.33-.18.628-.568.868-.06.03-.09.12-.09.21.03.119 0 .239-.03.388-.12.24-.18.48-.27.719l-.09.18c0 .029-.03.059-.089.059-.09 0-.15.03-.15.12.09.24.09.478 0 .718-.239.449-.09.868-.359 1.317.09.21-.06.359-.06.568v.06c.06 0 .09-.03.12-.06.15-.329.27-.658.33-.987 0-.27.09-.539.209-.808l.389-1.257c.09-.24.18-.479.3-.718.238-.45.448-.868.598-1.317l.419-.808c.18-.27.299-.509.389-.748l.18-.36c.448-.718.807-1.436 1.256-2.124.15-.27.33-.509.539-.778.359-.599.778-1.137 1.257-1.706.15-.15.239-.27.269-.36.27-.388.568-.717.838-.987.09-.09.15-.21.27-.299.179-.21.418-.479.747-.748.27-.24.539-.509.808-.808.09-.09.03-.24-.09-.24-.09 0-.18 0-.239.03-.09.03-.18.09-.27.15l-.358.33c-.12.119-.21.209-.3.269h-.12l.03-.06c.12-.21.42-.33.51-.599l.119-.06c.09-.09.12-.15.06-.209-.03-.03-.06-.03-.09-.03zm2.578 14.518a.377.377 0 0 0-.214.116l-.09.12c.03.03.09.03.15-.03l.154-.206zm.031-.003l.054.298c.21.12.21.15.06.3l-.12.09c-.06.089-.09.149-.06.179.03.06.12.06.21-.03l.48-.36h.029c.03.03.03.09 0 .12l-.599.749c-.18.239-.359.449-.538.598-.21.15-.33.3-.539.509-.03.09-.12.12-.12.21 0 .269-.239.478-.389.718 0 .03 0 .09.03.12h.06c.09-.03.18-.09.21-.12.479-.36.927-.719 1.376-1.168.12-.12.24-.209.36-.299h.06c.03.03.03.06.03.09-.09.21-.36.3-.51.509-.09.09-.09.15-.06.18.03.119 0 .269-.15.448-.209.27-.448.479-.717.688-.03.03-.03.09-.03.18.03.06.09.06.18.03s.12-.09.209-.12h.15c-.09.27 0 .539-.33.778-.479.33-.838.719-1.287 1.167-.478.51-1.077.898-1.586 1.257-.15.09-.359.18-.478.27a6.15 6.15 0 0 1-2.095.838l-.688.18h-.09c-1.227.328-2.424.598-3.651.867-.599.12-1.137.21-1.706.21-.658 0-1.197-.15-1.616-.48a3.114 3.114 0 0 1-1.107-1.556 9.999 9.999 0 0 1-.479-2.214 13.21 13.21 0 0 1 .12-3.232c.12-.569.15-1.077.359-1.646l.479-1.436c.03-.21.15-.42.239-.629.12-.21.18-.359.21-.449a28.505 28.505 0 0 1 1.586-3.172c.448-.808.897-1.616 1.406-2.424.449-.748.928-1.466 1.496-2.154.51-.599.958-1.227 1.467-1.826.508-.628 1.107-1.227 1.616-1.825.389-.45.868-.778 1.316-1.108.09-.06.18-.12.3-.15.479-.209.957-.328 1.436-.328.36 0 .748 0 1.107-.09.09-.03.24-.03.39-.03.508.03 1.107.06 1.705-.03.27-.03.539-.03.808-.03.449 0 .808.03 1.257 0 .509-.03.838.15 1.107.39l.45.358c.598.509.957 1.137.867 2.065-.12 1.167-.36 2.334-.838 3.531-.33.748-.568 1.526-.958 2.275-.15.21-.299.449-.478.658-.09.09-.21.15-.33.18-.568.12-1.107.269-1.586.18-.329-.06-.658-.03-1.047.059-.06.03-.15 0-.27-.03-.06-.03-.09-.09-.06-.15 0-.09.03-.21.09-.419.06-.15 0-.269-.149-.299 0 0-.03-.03-.06-.09-.03-.03-.03-.06 0-.15.27-.628.39-1.256.659-1.885.269-.628.478-1.256.628-1.945.03-.09 0-.18 0-.269 0-.03.06-.09.06-.12.15-.568.27-1.077.24-1.586 0-.12-.06-.18-.18-.18-.09 0-.15 0-.15.03-.09.09-.12.18-.09.21 0 .06.03.12.06.21.15.209.09.418 0 .688 0 0-.03.03-.12.09-.06.03-.09.03-.12 0a.9.9 0 0 1-.149-.659c.06-.27.03-.508-.06-.718-.09-.12-.12-.27-.15-.419 0-.15-.09-.3-.12-.419-.029-.12-.119-.12-.268-.03-.27.24-.48.479-.719.748-.21.27-.449.51-.688.778l-1.347 1.616c-.718.868-1.256 1.736-1.855 2.664-.628.987-1.167 1.915-1.616 2.843-.24.568-.539 1.137-.778 1.705-.24.51-.36 1.018-.569 1.527-.15.508-.329 1.017-.449 1.526-.12.628-.209 1.257-.299 1.855-.09 1.048-.06 2.035.09 2.993.15.688.36 1.346.748 1.915.06.09.12.12.15.15.03.09.12.09.24 0 .239-.21.538-.39.777-.599A135.471 135.471 0 0 0 11.002 39l1.077-1.107.539-.539 1.795-1.676.629-.538c.03-.03.12-.09.21-.12.119-.09.209-.06.239.03l.03.718h-.025zm12.533 4.787c.36-.24.45-.509.57-.838-.27.21-.48.509-.57.838zm2.424-4.459h-.03c-.03.09-.15.18-.179.27-.12.269-.24.538-.39.807l-.059.12c0 .03.03.06.06.06s.06-.03.06-.06c.12-.12.21-.21.24-.3.119-.328.209-.568.298-.897zm2.634.15l-.03.06h-.06c-.06.06-.06.09 0 .09l.06-.06.03-.09zM22.972 34.48l-.03.06.06-.12c0-.03-.03-.06-.03-.09-.03.03-.06.06-.06.09l-.09.27c-.03.03 0 .06.03.09 0-.03.03-.06.06-.09l.06-.21zm4.13-14.574h.06l-.03-.03c0-.239.21-.448.359-.658 0-.03.03-.03.09-.03v.06c-.09.27-.21.479-.42.628 0 .03-.03.03-.06.03zm2.783 20.799l.06-.03c.03-.12.12-.3.27-.45.029-.029.059-.059.089-.059s.06.03.03.06l.03.27c-.03.089-.09.179-.12.209-.12.15-.27.299-.479.449 0 .03-.03.03-.06.03s-.06-.03-.03-.06c.09-.12.12-.21.21-.42zm-7.541-2.035l.09-.03-.06-.09h-.03c-.06.03-.09.06-.09.09 0 .09.03.12.09.09v-.06zm9.696-4.13v.03c.03-.06.03-.09 0-.09s-.03 0-.06.03-.06.06-.06.09v.03l.12-.09zm-5.058 6.464h.03c-.03.03-.03.06 0 .06.03.03.09.03.12-.03 0-.03.03-.06.06-.09l.03-.09c-.06 0-.12 0-.15.03l-.09.12zm-5.626-1.347h-.03c-.03 0-.06 0-.09.03v.27h.06c.06-.03.09-.06.09-.09.03-.12.03-.18-.03-.21zm1.137-1.795l-.03.03c.03-.09.03-.15.03-.18 0 0-.03-.03-.06-.09-.06.03-.09.06-.09.09-.03.03-.03.09 0 .18 0 .03 0 .06.03.09.06-.03.09-.09.12-.12zm9.502-.898l-.015.03-.06-.06h-.06l-.12.18c0 .03 0 .06.03.09a.32.32 0 0 0 .15-.09l.075-.15zm-10.998-.24h.03l.03-.149c0-.03 0-.06-.03-.09-.06.03-.09.06-.09.09l-.09.27c0 .03 0 .06.03.09.03-.03.06-.06.06-.09l.06-.12zm6.793 1.856l-.03.06-.03.09.06.09a.32.32 0 0 1 .15-.09c.09-.09.12-.18.15-.27a.227.227 0 0 0-.12-.06c-.03 0-.06.03-.09.06l-.09.12zm4.474-2.708l-.045.134c0 .03 0 .03.03.06.06 0 .09 0 .12-.03.15-.15.21-.269.21-.419 0-.03-.03-.03-.09-.03l-.03.03-.21.3.015-.045zm3.815-5.372l.06.03c-.03.09-.09.09-.09.18-.03.06 0 .09.06.09s.09-.03.09-.06c.12-.21.21-.42.24-.629l-.03-.03h-.06c-.15.12-.18.27-.27.42zm-5.057 1.676h.03c.03-.09.03-.15.03-.18-.03-.09-.06-.12-.12-.12-.09 0-.15.03-.21.12-.09.15-.149.3-.179.45-.03.03 0 .06.03.06.21 0 .33-.12.419-.33zm-1.347 5.895l.03-.06-.06-.09h-.03c-.269.21-.448.45-.478.779-.03.06 0 .09.03.09.06 0 .09-.03.12-.06l.388-.659zm.27-3.68h.03l-.06.149c0 .03 0 .03.03.06.06 0 .09 0 .09-.03.09-.12.12-.21.15-.27l.448-1.166-.03-.03c-.03 0-.06 0-.09.03-.21.418-.419.837-.568 1.256zm-1.676 5.177l-.03-.09c.03-.06.03-.09 0-.12s-.03-.06-.06-.06c-.06 0-.09.03-.12.06-.15.27-.389.509-.538.838-.09.09-.06.18-.09.27-.03.03 0 .06.03.06h.09c.21-.12.329-.24.389-.33l.329-.628zm.09.927l.06.09c-.15.389-.33.718-.57 1.017-.059.03-.089.09-.119.12-.03.09 0 .15.03.18.06.03.12.03.21 0s.15-.09.21-.15c.268-.27.508-.539.657-.868.09-.21.24-.419.39-.688.568-.868.957-1.766 1.436-2.633.389-.689.449-.988.539-1.587.03-.09-.03-.09-.15-.06l-.27.18c-.06-.03-.12-.06-.149-.06-.09 0-.15.06-.24.18-.149.21-.239.419-.329.628-.09.24-.18.48-.21.719.12.209.09.448-.089.778-.24.448-.479.808-.748 1.256 0 .03-.03.06-.09.09l-.18-.24c-.03-.059-.09-.03-.179.06l-.24.45-.119.389c-.03.09.03.15.15.15zm-7.043-1.538l.1-.527.18-1.077c0-.03 0-.06-.03-.06-.03-.03-.06 0-.12.06-.09.12-.27.12-.27.24l-.06.927c.03.09.03.15.06.18.105.062.107.168.14.257zm8.074-2.042a1.125 1.125 0 0 0-.313.468s.03.03.06.09l.06-.06c.14-.196.122-.313.193-.498zm.054-.065c.287-.183.233-.166.261-.425 0 0-.03-.03-.06-.09-.03.03-.06.06-.06.09l-.14.425zm1.52-6.054a.709.709 0 0 1 .118-.146c.03-.03.06-.06.09-.06.06-.03.09 0 .06.06l-.21.718c-.03.03-.03.09 0 .18.03.06.06.09.09.06.03 0 .06-.03.09-.06.09-.12.12-.21.15-.27l.269-.898.03.21c.15-.449.329-.868.329-1.317.03-.27.15-.509.389-.718.12-.12.15-.27.269-.42.39-.927.718-1.765.988-2.692.15-.45.359-.808.478-1.257.33-.838.599-1.676.868-2.514l.39-1.167c.06-.21.179-.33.358-.33.12 0 .24-.06.39-.209.179-.15.359-.24.538-.27l1.975-.268.449-.09c.18-.06.36-.06.569-.03.239.03.478-.03.718-.18.18-.12.389-.15.628-.12.45.03.629.42.42.809-.27.568-.45 1.047-.57 1.616-.329 1.167-.807 2.334-1.166 3.5l-.18.42c-.21.389-.3.778-.509 1.167l-.449 1.077-.658 1.706c-.09.27-.12.539-.33.808l-.149.419c-.24.599-.419 1.197-.688 1.796-.629 1.556-1.077 3.142-1.676 4.728l-.389 1.077-.33 1.077c-.209.569-.298 1.048-.508 1.616-.03.06-.06.15-.15.27-.03.03-.06.06-.09.06-.06 0-.09-.03-.06-.06 0-.36 0-.718.21-1.108.09-.15.12-.329.15-.478.03-.12.06-.21.06-.27-.12-.508.18-1.017.329-1.586.24-.329.3-.658.3-.987.03-.21.06-.42.149-.599.12-.24.12-.509.21-.748.09-.24.179-.479.299-.718v-.06c-.21-.24.18-.539.18-.808.03-.27.119-.509.269-.718l.03-.09c.09-.24 0-.479.209-.748.21-.24.15-.509.3-.748.03-.03.03-.06 0-.06-.03-.03-.06-.06-.09-.06-.06 0-.09.03-.09.06-.21.33-.42.658-.45 1.017-.03.21-.089.33-.119.42-.21.329-.24.568-.33.897-.03.15-.119.21-.268.15-.15-.03-.24 0-.27.09-.15.209-.27.478-.359.748-.15.449-.3.897-.509 1.346-.03.09-.09.12-.18.12h-.089c-.09-.03-.15-.03-.18.06l-.18.27c-.149.269-.238.538-.478.777-.21.21-.3.48-.449.718-.15.21-.299.33-.509.36l-.389.09-.03.06c0 .03 0 .03.03.06h.18c.21 0 .24.089.15.238l-.48.898c-.03.09-.119.18-.239.3h-.06c-.03 0-.06-.03-.03-.06-.03-.21.12-.33.24-.539 0 0-.03-.03-.06-.09 0 0-.03 0-.09.03-.239.12-.329.3-.448.509-.06.12-.15.15-.3.09-.03 0-.06-.03-.09-.03-.09-.03-.15 0-.15.12l-.03.359c0 .209 0 .418-.238.628l-.06.12c.03.24-.12.419-.39.538-.06.03-.09.09-.09.12 0 .21-.209.419-.239.628-.03.03 0 .06.03.06h.06l.33-.269c0-.03.03-.03.06-.03.06 0 .09.03.06.09-.12.27-.27.538-.54.748-.329.449-.748.688-1.226.838-.689.24-1.317.479-2.005.598-.689.12-1.347.27-1.976.42-.718.209-1.496.269-2.244.388-.33.06-.628.03-.928-.12-.479-.209-.927-.358-1.287-.688a3.356 3.356 0 0 1-1.137-1.945c-.21-.927-.21-1.885-.12-2.932.09-.868.21-1.736.33-2.604.12-.718.3-1.436.449-2.155.15-.688.449-1.316.538-2.005.27-.598.27-1.197.539-1.795 0-.09.03-.18.06-.27.389-.718.509-1.436.838-2.154l.359-.808.21-.45c.09-.298.209-.598.358-.897.24-.449.36-.868.599-1.317a45.053 45.053 0 0 1 2.244-4.07c.24-.388.45-.778.659-1.226.27-.569.359-.659.957-.689.36-.03.719 0 1.048.03.12 0 .21.06.299.15.03.03.06.15-.03.24l-.06.119c-.27.33-.508.688-.778 1.137l-.389.599c-.09.15-.15.269-.15.329 0 .27-.15.509-.269.748 0 .03 0 .06.03.09l.12-.09.21-.18h.03l-.03.09c-.03.21-.09.39-.21.599-.509.808-.778 1.556-1.227 2.364-.39.688-.569 1.317-.898 2.005-.03.15 0 .3-.09.449-.24.808-.478 1.616-.868 2.424-.09.12-.12.24-.12.359-.03.24-.119.449-.239.628-.09.15-.12.27-.12.39 0 .269-.09.538-.209.807-.15.45-.21.838-.21 1.227 0 .12 0 .24-.03.36-.149.478-.149.927-.269 1.376-.03.09-.09.18-.06.27.15.328-.06.658-.179.987-.03.09-.03.18-.03.21.03.06.06.119.12.149s.12.03.18-.06c.149-.15.209-.33.209-.539.03-.359.12-.688.27-.957.06-.09.089-.18.089-.27.09-.448.24-.808.389-1.256.12-.39.24-.778.33-1.168 0-.329.179-.658.269-.987.03-.09.15-.18.18-.15.029.06.059.09.059.09-.03.24-.15.479-.18.718-.03.09.03.12.12.12.03 0 .03.03.06.06v.06l-.06.18c-.21.688-.24 1.376-.509 2.064-.03.06-.03.15-.03.27 0 .448-.06.837-.21 1.286l-.059.18c-.03.27.06.568.15.479.18-.09.299-.27.359-.48.09-.209.09-.328.09-.538.03-.12.09-.21.12-.27 0 0 .03-.03.119-.089h.03c.15.15.06.36.09.569.03.15.12.269.15.478 0 .27 0 .51.09.749v.478c-.15.689-.06 1.287-.03 1.916 0 .239.059.478.059.718.06.509.24.957.569 1.376.06.09.15.09.239-.06.12-.209.3-.329.419-.538.928-1.317 1.706-2.693 2.394-4.1.21-.33.33-.688.569-1.017.359-.48.478-.988.808-1.467l.06-.15c.15-.508.448-1.017.688-1.526l.21-.448c.06-.21.179-.39.358-.599.03-.09.09-.09.18 0 .03 0 0 .03.03.03.12.12.21.09.27-.06l.239-.718-.03-.03c-.03 0-.06.03-.09.06l-.09.12c-.12.09-.27.09-.3 0-.03-.03-.03-.09-.03-.12.15-.33.27-.659.54-.928.03-.03.09-.03.15-.03v.06l-.03.09c-.03.087-.087.203.02.209l.011-.003zm12.866-6.281h.06c.09.06.06.12-.03.15h-.06c-.03-.03-.06-.12.03-.15zm-3.516 12.808h.015v-.09l.03-.09h.06l-.06.18h-.045zm2.2-7.362l.06.09-.12.09a.37.37 0 0 0-.06-.09s.03-.03.12-.09zm-1.257 4.55l-.03.029h-.15c0-.03 0-.06.03-.12.03-.09.06-.12.09-.06.03.03.03.06.06.15zm.957-7.991l.06-.03c0-.03.03-.06.06-.09s.03 0 0 .12l-.03.09c0 .03-.03.06-.09.09-.03-.03-.03-.06-.03-.09l.03-.09zm.599 2.933h-.03c-.03.03-.06.09-.12.12-.03-.03-.03-.06-.03-.09 0-.06.03-.15.06-.27l.03-.03c.06 0 .09 0 .09.03v.24zm-1.108 3.351h.03c-.09.09-.03.09-.12.18h-.06c-.03-.03-.059-.03-.059-.03l.12-.36.06-.03c.06 0 .09.03.06.06 0 .03 0 .09-.03.18zm-3.172 4.968l-.21.628c0 .03-.029.06-.059.09-.03-.03-.03-.06-.03-.09l.21-.628c0-.03.03-.06.09-.09v.09zm4.4-6.973v.03c0-.09.06-.18.09-.27 0 0 .03-.029.119-.089.03.03.06.06.03.09l-.21.449-.09.09c0-.03-.03-.06 0-.09l.06-.21zm-.797.395c.068.142.028.327-.101.533l-.06.06c-.06 0-.09 0-.09-.03 0-.12 0-.21.03-.27l.22-.293zm.198 2.269c0-.14.003-.213.03-.24.06-.24 0-.419-.15-.538 0-.03-.03-.09-.03-.12v-.06c.06-.03.12-.06.15-.06.18.03.27.12.24.27-.03.209-.12.448-.24.748zm.449-2.544v.03c-.09.21-.15.36-.27.569l-.06.06c-.03 0-.03-.03-.06-.06-.03 0-.03-.03 0-.06.03-.39.15-.778.36-1.167.03-.03.06-.03.12-.03v.06c-.03.209-.09.389-.09.598zm-4.728 5.776l.09-.09c.06-.21.179-.39.329-.599l.06-.03c.03.06.06.09.06.09 0 .12 0 .21-.03.27-.03.12-.15.239-.18.329l-.36 1.706c-.03.09-.06.18-.06.269-.269.808-.418 1.616-.538 2.424.03.09-.06.21-.09.329-.03.09-.06.09-.09.06-.03 0-.06-.03-.03-.06-.03-.03 0-.09.03-.18.03-.448.18-.897.21-1.346.09-.39.03-.748.27-1.137.03-.09.03-.15.03-.18 0-.36.06-.718.179-1.077l.09-.45c.03-.149.03-.268.03-.328zm8.708 3.142l.03-.09.21-.09-.24.18zm1.706-.928l-.06-.03c.09-.09.18-.12.27-.15.059-.03.119-.03.209 0 .06.03.09.09.06.15-.12.27-.3.45-.57.569-.059.03-.089.03-.119 0s-.03-.09-.03-.12l.18-.3.06-.03c0-.029-.03-.059 0-.089zm-3.023 2.454c.21-.03.42-.15.629-.359-.21.03-.42.15-.629.36zm-.329-.748c.15-.15.18-.27.15-.36-.03-.03-.03-.059-.06-.059s-.09.03-.15.06c-.09.06-.12.15-.09.24-.03.089.03.119.15.119zm-.3.539v.03l.03-.06c0-.03 0-.03-.03-.06l-.298.09c.12.06.209.06.299 0zm-1.136.269l.15-.18-.12-.18c-.03-.119-.09-.119-.18 0l-.3.45c.15.09.3.06.45-.09zm-.591.228a.484.484 0 0 0-.068.131.443.443 0 0 0 .112-.108l-.044-.023zm-2.222-1.246h-.09c.21-.15.3-.329.3-.538l.059-.808c.09-.39.27-.778.27-1.167.149-.569.298-1.137.388-1.706.09-.479.3-.958.33-1.436 0-.15.12-.3.15-.45l.358-1.166c.09-.21.12-.36.12-.45.03-.329.15-.688.27-1.047l.747-2.334c.03-.12.09-.27.06-.389 0-.03-.03-.03-.09-.03l-.06.06-.209.359c0 .03-.03.06-.09.09v-.09l.18-.539c.03-.09.12-.15.21-.15.149-.03.239-.089.269-.239l.06-.18c.03-.06 0-.089-.06-.06-.09.03-.24.06-.39.06-.149 0-.239.06-.239.21-.03.27-.12.599-.27.988-.029.09-.089.18-.179.27h-.06c-.03 0-.06 0-.03-.03-.09-.12.06-.24.09-.36.09-.21.06-.359-.06-.449-.15-.12-.179-.299-.06-.509.12-.269.24-.538.39-.808 0-.03 0-.03.03-.06.03.06.06.09.06.09 0 .06-.03.15-.06.27 0 .03.03.06 0 .09.06-.03.09-.06.09-.09.149-.21.179-.33.209-.539.06-.18.03-.3-.12-.389-.09-.09-.09-.21.03-.359.24-.27.18-.539.27-.808 0 0-.03-.03-.06-.09a.091.091 0 0 1 0-.12l.299-.239c.12-.09.06-.18-.03-.21s-.21 0-.33.06c-.089.03-.119.03-.119 0-.03-.06 0-.12.09-.15l.21-.089c.209-.09.328-.21.358-.419v-.09c-.03-.21.12-.329.24-.479.09-.09.06-.15-.09-.15-.09 0-.12.03-.21.03s-.12-.03-.06-.119c.09-.12.18-.24.21-.389 0-.09.03-.24.12-.449.09-.06.18-.15.21-.27 0-.03-.03-.059-.06-.089l-.03.03-.21.18h-.09c-.12-.09-.12-.18-.03-.3.12-.12.21-.21.24-.269.09-.09.09-.18 0-.24-.03-.03-.06-.03-.12-.03s-.09.03-.09.06c-.15.48-.568.928-.658 1.407 0 .09-.06.09-.09.18l-.3.718c-.029.12-.029.24-.149.329-.269.33-.299.569-.389.898-.03.12-.12.24-.15.359 0 .03-.03.06-.09.09.03-.03 0-.06 0-.09 0-.12.06-.24.06-.36-.03-.06-.06-.09-.119-.09-.09 0-.15.03-.12.12 0 .09.03.18-.09.3-.09.09-.12.15-.12.18-.149.388-.418.748-.508 1.137 0 .06-.03.18-.06.329-.15.329-.27.658-.389.987-.09.33-.329.659-.359 1.018 0 .09-.09.18-.12.27 0 .089-.09.179-.12.268-.09.45-.358.808-.358 1.257 0 .09-.06.09-.06.18l-.539 1.616c-.03.03-.06.06-.09.06v-.03l.33-.988c.09-.359.209-.718.239-1.077 0-.24.12-.479.21-.718.03-.12.149-.24.149-.36.03-.329.15-.718.36-1.166.119-.33-.18-.39-.15-.629h-.06l-.03.09c-.15.449-.36.808-.39 1.257-.03.09-.03.15.03.18.09.09.09.179-.03.269-.09.09-.179.18-.239.329l-.24.808c-.149.568-.448 1.137-.568 1.706a.723.723 0 0 1-.389.568c-.09.03-.12.12-.09.15.18.09.21.27.09.509-.12.209-.21.418-.359.628-.09.09-.09.18-.03.21.03.09 0 .15-.03.239-.09.15-.09.27-.06.359.03.15-.03.27-.21.359-.149.09-.238.21-.298.36-.03.119-.12.239-.15.358-.03.09.03.12.18.09.09 0 .15.03.12.09a1.4 1.4 0 0 0-.12.748c.03.12-.03.27-.06.389l-.03.06c-.03.03-.06 0-.09-.03-.09-.06-.15-.03-.24.06l-.179.359c-.03.06 0 .12.09.15.03.03.09.03.18.03s.12.03.06.12c-.12.089-.18.179-.27.268-.12.21-.15.42-.24.629-.03.15 0 .27.09.389.21.24.27.509-.09.838-.03.03-.03.09-.06.18 0 .03.03.03 0 .06.03.089 0 .179-.09.299-.209.209-.209.209-.059.299l.15.09c.09.09.06.15-.09.239h-.09c-.12.03-.21.09-.24.18l-.119.448c-.09.569-.06 1.048-.06 1.557-.03.03 0 .06 0 .09 0 .09.06.09.15.06.09-.09.18-.12.27-.15.358-.15.568-.39.717-.719.09-.09.12-.18.15-.269.09-.12.15-.21.21-.24.209-.15.418-.269.568-.418.21-.15.3-.33.509-.48l.06-.06c.478-.328.867-.657 1.436-.987.21-.12.36-.269.599-.419zm-.01-13.884c-.027.006-.05.032-.05.059-.03.06 0 .09.06.09.03 0 .03-.03.03-.06.026-.053.006-.083-.04-.089zm1.955-2.934l-.03.03c-.09.03-.15.09-.12.15 0 .03.03.06.06.06.09.03.15 0 .24-.12-.03-.03 0-.09-.03-.12s-.06-.03-.12 0zm-.03.808l.03-.03a.32.32 0 0 0-.09-.15c-.03-.09-.18.03-.21.12s0 .12.09.12c.03 0 .09-.03.18-.06zm.509-1.735l.03-.03c-.21.15-.27.299-.15.449v.03c.03 0 .09-.03.15-.06l.09-.15.03-.12.03-.09c0-.09-.06-.12-.18-.03zm.508 3.65l-.03.03c-.06.09-.06.18-.03.24h.03l.09-.09v-.18h-.06zm.06 1.018v.15c-.06.15-.09.269-.09.359-.03.03 0 .06.06.06.03.03.09.03.18.03.12 0 .21-.06.24-.15l.149-.36c0-.119.03-.239.03-.328.03-.03 0-.06-.09-.03l-.3.09a.27.27 0 0 0-.179.179zm.21-.539l-.03.12c0 .03 0 .06.03.09h.03l.478-.36c.12-.09.12-.239.03-.329l-.15-.09c-.09-.03-.149-.03-.179.06-.03.12-.06.24-.21.51zm.658-1.646l.06-.09-.12.36c-.03.12.06.15.15.24v.119l.06.09c.03-.03.06-.06.06-.09l.269-.539c.12-.21.09-.329-.06-.419-.06-.03-.09-.09-.09-.18-.24.15-.24.3-.329.51zm.658-1.346l-.03.03c-.06.03-.06.06-.03.09h.06l.03-.09-.03-.03zm.33-1.347v.09c-.03.03 0 .06.03.09l.12-.09.03-.12c0-.03 0-.06-.03-.15l-.15.18zm.478-1.047l.03.03c-.09.12-.12.21-.15.269v.03c.06 0 .09-.03.12-.06.06-.09.12-.24.18-.449 0-.03-.03-.06 0-.09-.06.03-.09.06-.09.09l-.09.18zM49.958 39.2c-.293.098-.306.105-.502.217-.449.33-.898.658-1.406.987-.39.24-.778.54-1.167.808-1.197.808-2.335 1.497-3.532 2.245-.598.389-1.227.718-1.795 1.167-.24.15-.449.27-.599.389-.449.27-.897.479-1.257.808-.209.15-.389.21-.598.15l-.569-.18c-.15-.09-.419-.06-.568-.15-.12-.03-.27-.03-.36-.12-.209-.119-.418-.119-.658-.209-.389-.09-.778-.12-1.167-.21-.24-.03-.449-.119-.598-.209-.12-.09-.09-.18.03-.269l.449-.27c.09-.09.12-.179.06-.269-.03-.06-.06-.09-.06-.09.03-.239-.03-.448-.03-.658-.03-.27-.12-.479.03-.808.03-.03.03-.09 0-.18-.12-.478 0-.987.12-1.496.119-.808.388-1.556.478-2.364.03-.21.09-.359.18-.568.09-.33.239-.659.239-.988 0-.12.09-.24.12-.359.03-.09.09-.18.09-.27.03-.508.269-1.017.418-1.526.09-.329.21-.568.21-.897.03-.21.09-.45.21-.719.09-.15.149-.269.149-.359.09-.329.27-.568.3-.897 0-.33.149-.569.269-.898l.239-.808.3-.898c.089-.27.179-.539.328-.778.03-.03.03-.09.06-.18.24-.897.868-2.872 1.108-3.59.329-.719.568-1.437.837-2.155.03-.21.15-.33.24-.539l.24-.628c.03-.12-.03-.21-.15-.24l.06-.18c.03-.09.03-.239 0-.448l.239.12c.09.06.12.03.15-.06.15-.27.269-.54.359-.808.21-.45.299-.808.449-1.257.03-.15.09-.27.15-.36.089-.149.209-.239.358-.239.599-.03 1.197-.21 1.706-.18.15 0 .33-.06.479-.09.09 0 .18-.029.27 0 .448.09.897 0 1.346 0h.09c.389 0 .778-.029 1.107-.119.479-.09.718.12.509.569-.09.329-.21.568-.33.898l-.18.448-.388.898-.06.18c-.33.688-.569 1.376-.808 2.065-.21.389-.27.778-.479 1.167-.12.24-.15.479-.24.718-.119.359-.209.718-.418 1.077l-.03.12c-.09.449-.27.808-.479 1.257-.21.509-.36 1.017-.509 1.526l-1.077 3.322-.569 1.706c-.09.329-.21.658-.239.987l-.36 1.167-.568 1.706-.09.36-.15.807-.298 1.167c-.03.09.03.15.15.12l.209-.09 1.017-.628 1.646-.988c.928-.568 1.766-.987 2.693-1.466.39-.21.749-.3 1.138-.509.269-.15.568-.21.867-.18.15.03.33.21.21.42l-.06.12c-.18.209-.21.388-.09.598l-.359.269-.09.12.09.359c.03.03 0 .09-.03.18 0 .03-.03.06-.09.09-.03.029-.06.029-.09-.06v-.27a.37.37 0 0 0-.06-.09c-.209-.03-.298-.15-.538 0l.27.27c.03.06 0 .09-.09.09-.24.03-.39.149-.45.418l-.029.09c-.03.09-.09.15-.18.21-.448.269-.748.239-.927-.09l-.03-.18a.62.62 0 0 0-.18.3v.269c.03.15-.06.269-.24.359l-.328.18c-.21.09-.36.149-.51.239l-.089.12c-.03.06 0 .12.06.209.09.09.15.09.24.03.149-.06.269-.15.418-.24a.48.48 0 0 1 .48-.09h.089l-.06.18v.06c.06 0 .12 0 .15-.03l.389-.359c.03.03.18.03.09.12-.15.21-.21.449-.36.658.09 0 .24-.03.45-.12.598-.329 1.256-.598 1.885-.957l.568-.24c.037-.018.062-.025.083-.007zm.077-.026l.14-.326c.03.09.03.15 0 .18 0 .057-.056.115-.14.146zm15.74-21.333h-.249c-.03 0-.09.03-.12.03.03.03.06.06.09.06.08.026.16-.018.28-.09zm3.97-.958l.06-.03c-.119.09-.239.12-.358.09-.03 0-.03-.03-.06-.03v-.03h.359zm.375-.198a.422.422 0 0 0-.284.138c.103-.015.192-.015.281-.03l.003-.108zm0 0c.102-.006.204.018.314.018l-.03-.03a.647.647 0 0 1-.287.12l.003-.108zM60.3 42.923c-.032.089-.076.157-.1.206-.03.03-.06.06-.12.06-.03 0-.06-.03-.03-.09.03-.03.06-.09.12-.12l.13-.056zm7.68-25.83l-.898.24c.24.09.48.06.808.03.06 0 .15-.03.3-.12.03 0 .03-.03.06-.06-.03-.03-.03-.06-.03-.06-.09-.03-.18-.06-.24-.03zm-.898.27v-.03c0-.09-.03-.15-.12-.12-.119.03-.239.15-.328.06-.09-.09-.18-.06-.27.09-.15.24-.389.21-.538.419.299 0 .568-.03.837-.12.18-.09.33-.18.42-.3zM84.62 14.28v-.03l.09-.09c-.03 0-.03-.03-.06-.03-.12 0-.15.03-.09.12-.03.03 0 .03.06.03zm8.11-.838l.03.03c.03 0 .06.03.09.03.12 0 .149-.03.09-.09-.03-.03-.06-.03-.12-.03 0 0-.03.03-.09.06zm-6.195.599l.599-.06c.09 0 .15-.06.239-.09.03-.03.06-.06.06-.09.03-.03 0-.06-.06-.06-.449-.03-.808.09-1.257.18-.03 0-.03 0-.03.03-.03.03-.03.03-.06.03.03.03.09.06.12.06h.39zm-10.923 1.377l.808-.12c.36-.09.659 0 1.018-.15l.09-.09c0-.03-.03-.06-.06-.06a4.741 4.741 0 0 0-1.946.3c-.03 0-.06.06-.03.06.03.03.09.06.12.06zm-4.01.598v.03c.479-.09.928-.09 1.496-.18.03 0 .09-.03.15-.06.06-.09.09-.149.09-.149 0-.09-.06-.12-.18-.12-.568-.03-.987.27-1.556.3-.12 0-.3 0-.3.12 0 0 .09.03.3.06zm-5.327 1.167l-.03.03c-.15.03-.538.06-.897.15-.03 0-.06.03-.09.06s0 .06.03.06c.568.12 1.107.06 1.676-.15l.06-.06c0-.03 0-.03.03-.03-.03-.09-.06-.12-.12-.12-.15 0-.3.03-.659.06zm2.933-.73l-.21-.078h-.119c-.03 0-.03 0-.03.03s0 .03-.03.03c.03.03.09.09.18.09.073 0 .127-.04.21-.071zm.07-.026l.828-.172.06-.06a.342.342 0 0 0-.21-.09 1.168 1.168 0 0 0-.678.322zm12.59-.563l.118-.177.12-.09c.3-.15.868-.03.868-.419.569-.21 1.107-.27 1.586-.21l.658.12c.27.03.539.06.868.06.27 0 .509-.06.688-.21.21-.179.51-.299.928-.358l1.287-.27c.03 0 .06-.03.09-.09-.03-.06-.06-.12-.12-.15-.03-.029-.12-.029-.27-.029-1.585.21-3.141.389-4.698.539-.957.09-1.945.269-2.902.239-.09 0-.06-.06-.15-.09.06-.03.09-.06.12-.06l1.526-.239a2 2 0 0 0 .568-.15c.18-.03.27-.12.3-.21.03-.089-.09-.119-.3-.089l-1.047.18-1.466.18c-.748-.15-1.437.149-2.155.358-.15.03-.18.12-.09.27.12.21.15.18-.06.269-.329.09-.598.12-.867.21-.24.09-.48.15-.719.15-1.556.089-3.052.388-4.578.657-.24.03-.36.09-.569.09-.927 0-1.825.21-2.753.45-.33.089-.598.119-1.047.209.598.09.957.12 1.406.15.21 0 .36-.03.569-.12a1.2 1.2 0 0 1 .568.03c.15.09.21.239 0 .329-.628.329-1.316.538-2.124.508-.24 0-.48.09-.689.24-.21.12-.359.21-.628.09-.27-.12-.629-.15-1.048-.12-.12 0-.269.06-.389.15-.03.03.03.12.06.15.03.029.12.059.21.089s.09.09.178.12c-.14-.004-.278-.028-.418 0-1.197.15-2.334.269-3.53.478-1.168.21-2.245.42-3.412.51-.24.03-.51.059-.749.149-.15.03-.359.09-.389.12-.03.12.18.09.3.12.24.089 0 .089-.12.179-.06.03-.06.09 0 .15.15.209.09.329-.18.358l-1.795.24c-.3.03-.479-.03-.539-.18-.389-.718-.748-1.436-.838-2.244-.03-.36-.06-.718-.269-1.048-.15-.209-.18-.418-.21-.628-.12-.509-.179-1.017-.269-1.526-.03-.06 0-.15.03-.27.09-.329.539-.598.988-.598h.269c1.197.15 2.454-.03 3.74-.15 3.352-.329 6.674-.748 10.056-1.227 1.406-.21 2.813-.329 4.25-.538l5.595-.748c2.035-.27 3.92-.539 5.926-.749 2.184-.239 4.279-.418 6.463-.568a59.2 59.2 0 0 1 4.609-.09c.868 0 1.736.06 2.484.21l.538.09c1.078.269 1.616.837 1.587 1.645-.03.689-.06 1.287-.15 1.975-.03.36-.06.719-.03 1.078.12.688-.12 1.406-.24 2.094l-.09.09c-.03.03-.089.03-.149.03-.24-.15-.568-.27-.838-.419-.09-.06-.15-.15-.15-.24 0-.209-.09-.328-.269-.418a.46.46 0 0 1-.18-.12c-.209-.479-.837-.568-1.466-.658-.568-.09-1.137-.06-1.705-.06-.749-.03-1.586-.03-2.394-.03-.569 0-1.078-.03-1.557-.15-.688-.15-1.346-.15-2.094.18-.03.03-.06.03-.12.03-.479.12-.808-.18-1.287.06-.479.24-.808.18-1.257.09a.922.922 0 0 0-.568.09c-.24.119-.51.149-.838.09-.36-.06-.689-.03-.958.059-.329.12-.568.06-.808-.03-.32-.116-.64-.205-1.016-.182zM57.147 42.8l-.03-.06h.06l.03-.06c-.06-.03-.09 0-.12.06l.06.06zM55.95 42.5l-.06-.03v-.03c-.03 0-.06.03-.06.06-.03.09-.03.09.06.06.03 0 .03-.03.06-.06zm2.514-.748l-.06-.09s-.03 0-.06.03l.06.09s.03 0 .06-.03zm1.096-4.873a.34.34 0 0 1-.049.055c-.03.09 0 .09.09.06v-.06h-.06l.019-.055zm-.019-5.212l.09-.03-.03.06c.03.09.03.09.06 0 .03-.03 0-.06-.03-.06 0 0-.03 0-.09.03zm-.18 9.457h.03c.09-.06.12-.09.12-.09s-.03-.03-.06-.09c-.09.06-.12.09-.12.09-.03.03 0 .06.03.09zm-2.094-.15h-.03c-.03-.03-.03-.06-.06-.06-.09 0-.12.09-.09.18.03.03.06.03.12 0l.06-.12zm1.706-4.264v.015h-.06l-.06.18v.03c.06-.03.09-.06.12-.15v-.075zm.15-.464l.06-.09c0-.03 0-.06-.03-.06-.03-.06-.09-.03-.12.12 0 .03 0 .06.03.09l.06-.06zm.23-.652a.066.066 0 0 0-.021-.066c0-.09-.12-.03-.12.06-.03.059 0 .089.03.09.005-.006.035-.033.11-.084zm2.044-2.7v-.03c-.06 0-.09.03-.12.09 0 .03.03.06.06.06.06 0 .09-.03.12-.09 0-.03-.03-.03-.06-.03zm-2.784-.479l.06-.03c-.03.03-.03.06 0 .06.03.03.06.03.09.03 0 0 0-.03.03-.06.03-.09 0-.09-.12-.06-.03 0-.03.03-.06.06zm6.285-8.2h-.06l.03-.09-.09.09c0 .03.03.06 0 .09l.12-.09zM57.925 42.86c-.04 0-.065.005-.09.03l-.09.119.03.03.12-.09.03-.09zm1.856-1.048v.03c-.03.03-.03.03-.06.03-.03.09-.06.15-.03.18 0-.03.03 0 .06.06 0-.03.06-.09.06-.12l-.03-.18zm.15-3.71h-.06l.03-.12c.03-.09 0-.09-.03-.06-.03 0-.03.03-.06.06l-.03.09c-.03.03-.03.089 0 .179.06-.09.12-.12.15-.15zm.61-.904c-.032.077-.077.11-.102.185 0 .03.03.06.09.06.03 0 .06-.03.09-.09l-.078-.155zm-.257-1.056c-.028.085-.053.165-.025.194 0 0 .03.03.06.09l.09-.09v-.18c0-.03 0-.06-.03-.09l-.095.076zm-.414-.375l-.03-.09-.06.18c0 .03 0 .06.03.09.06-.03.09-.06.09-.09l.09-.27c0-.03 0-.06-.03-.09l-.09.27zm1.048-4.818v.03c-.06.03-.09.06-.09.09-.03.03 0 .09.03.12.03 0 .09-.03.12-.06.06-.06.06-.12.03-.18h-.09zm-2.514 10.145h.06c0-.15.06-.21.03-.3.03-.03 0-.06-.03-.09l-.09.09c-.03.15-.12.3-.03.42h.03l.03-.12zm1.885-3.202v-.03c-.03.09-.03.18-.03.21-.03.06 0 .089.06.089s.09-.03.12-.06l.06-.21c-.03-.09-.03-.179-.12-.149a.32.32 0 0 0-.09.15zm1.347-9.487h.12c.09-.06.12-.12.12-.21 0-.119-.06-.179-.15-.179-.03 0-.06 0-.06.03-.12.09-.15.27-.03.36zm-.479 1.078h-.09c-.15.12-.239.239-.239.389-.03.03 0 .06.03.06.06 0 .12 0 .15-.03.09-.09.15-.18.15-.33v-.09zm-3.232 11.85l.09-.03h-.09c-.03 0-.06.03-.09.06 0 .21-.06.33-.06.539h.06c.24-.21.27-.39.09-.569zm-.06-5.327l.09-.06c.12-.389.15-.389.06-.598.03-.03 0-.06-.03-.06-.06 0-.09 0-.12.03-.15.12-.18.24-.15.39 0 .149.06.298.09.448h.03l.03-.15zm2.39-2.892c-.026.084-.026.142-.026.2l.09.149c.09.03.15-.09.18-.18l.12-.628c0-.09-.03-.18-.12-.24-.06-.06-.06-.15-.03-.24.03-.149.09-.268.15-.358.12-.21.12-.33.09-.479 0-.03 0-.06-.03-.09 0 .03-.06.06-.06.09-.12.15-.24.27-.24.479l-.18.808c-.03.06 0 .12.06.15.083.027.09.156-.003.34zm-.205.738v-.09l-.12-.18h-.03c-.09.06-.12.09-.12.09-.03.21-.12.39-.209.539-.12.15-.15.329-.09.509 0 .03 0 .03.03.06.06 0 .09-.03.09-.06.12-.21.12-.33.24-.54l.179-.358.12.18c.03.03.06.03.09-.03l.03-.09c.03-.09-.06-.09-.21-.03zm.626 8.482a.482.482 0 0 0 .002-.043c.03-.06 0-.09-.06-.09a2.5 2.5 0 0 0-.598.15c-.06.03-.09.09-.09.21 0 .029-.06.089-.06.119-.06 0-.09 0-.12-.03l-.149-.36c0-.03-.03-.03-.06-.03 0 .03-.06.09-.06.12 0 .21.03.33.03.54.03.179.03.388 0 .628-.03.06-.06.09-.12.09-.15.03-.269.06-.359.06-.09 0-.15-.03-.15-.09-.104-.184-.163-.344-.276-.442-.082.086-.085.143-.172.172-.09 0-.09-.03-.18-.03s-.15.06-.18.21c-.03.21.03.329.06.479-.03.09-.09.12-.119.12-.15.03-.27.03-.3-.06-.03-.12-.06-.24-.209-.33-.09-.03-.18 0-.21.15l-.03.18c-.059.149-.179.239-.328.239-.15-.03-.39-.03-.48-.24-.03-.09 0-.15-.089-.18-.21-.119-.27-.328-.21-.628 0-.12-.03-.21-.12-.12l-.119.21c-.06.39-.03.748.09 1.077l-.03.09c-.03.03-.09.06-.12.03-.15-.09-.24-.18-.329-.27-.09-.089-.09-.209 0-.328.03-.09 0-.12-.03-.12-.27-.21-.359-.509-.27-.958.03-.09.03-.24 0-.449-.089-.927.03-1.885.33-2.813.09-.209.18-.329.18-.538.03-.479.269-.958.389-1.437.09-.449.299-.897.419-1.346.15-.599.389-1.197.478-1.796.03-.359.18-.718.3-1.077l1.257-3.95c.329-.928.568-1.766.957-2.694.27-.628.45-1.257.688-1.885.21-.449.33-.778.48-1.227l.06-.18c.478-1.316 1.136-2.633 1.495-3.95.12-.329.27-.568.42-.838.388-.03.777-.06 1.047.06.03.03.12.03.24.03.358-.03.687-.03 1.047-.12.12-.03.239 0 .359.06.06.03.12.06.21.03.239-.15.448-.18.598-.09l1.137-.179.389-.09c.449-.09.628.24.479.718l-.15.45-.569 1.436-.15.449c-.478.987-.747 1.975-1.196 2.962-.39 1.317-1.078 2.634-1.467 3.95l-.538 1.706c-.15.45-.27.808-.509 1.257l-.03.09c-.12.449-.27.898-.419 1.346-.18.42-.329.838-.419 1.257-.09.569-.329 1.167-.479 1.736-.12.449-.299.898-.329 1.347l-.12.449a14.532 14.532 0 0 0-.598 3.8c.03.569.09 1.107.09 1.676.03.09-.12.21-.21.18a.48.48 0 0 0-.449.03c-.09.03-.12-.06-.09-.15l.18-.36c.051-.153.037-.284-.062-.375zm19.334-1.779c.36-.24.45-.509.569-.838-.27.21-.479.509-.569.838zm2.424-4.459h-.03c-.03.09-.15.18-.18.27-.119.269-.239.538-.388.807l-.06.12c0 .03.03.06.06.06s.06-.03.06-.06c.12-.12.21-.21.239-.3.12-.328.21-.568.3-.897zm2.634.15l-.03.06h-.06c-.06.06-.06.09 0 .09l.06-.06.03-.09zM74.953 34.48l-.03.06.06-.12c0-.03-.03-.06-.03-.09-.03.03-.06.06-.06.09l-.09.27c-.03.03 0 .06.03.09 0-.03.03-.06.06-.09l.06-.21zm4.13-14.574h.06l-.03-.03c0-.239.209-.448.359-.658 0-.03.03-.03.09-.03v.06c-.09.27-.21.479-.42.628 0 .03-.03.03-.06.03zm2.783 20.799l.06-.03c.03-.12.12-.3.269-.45.03-.029.06-.059.09-.059s.06.03.03.06l.03.27c-.03.089-.09.179-.12.209-.12.15-.27.299-.479.449 0 .03-.03.03-.06.03s-.06-.03-.03-.06c.09-.12.12-.21.21-.42zm-7.542-2.035l.09-.03-.06-.09h-.03c-.06.03-.09.06-.09.09 0 .09.03.12.09.09v-.06zm9.696-4.13v.03c.03-.06.03-.09 0-.09s-.03 0-.06.03-.06.06-.06.09v.03l.12-.09zm-5.057 6.464h.03c-.03.03-.03.06 0 .06.03.03.09.03.12-.03 0-.03.03-.06.06-.09l.03-.09c-.06 0-.12 0-.15.03l-.09.12zm-5.626-1.347h-.03c-.03 0-.06 0-.09.03v.27h.06c.06-.03.09-.06.09-.09.03-.12.03-.18-.03-.21zm1.137-1.795l-.03.03c.03-.09.03-.15.03-.18 0 0-.03-.03-.06-.09-.06.03-.09.06-.09.09-.03.03-.03.09 0 .18 0 .03 0 .06.03.09.06-.03.09-.09.12-.12zm9.501-.898l-.015.03-.06-.06h-.06l-.119.18c0 .03 0 .06.03.09a.32.32 0 0 0 .15-.09l.074-.15zm-10.997-.24h.03l.03-.149c0-.03 0-.06-.03-.09-.06.03-.09.06-.09.09l-.09.27c0 .03 0 .06.03.09.03-.03.06-.06.06-.09l.06-.12zm6.793 1.856l-.03.06-.03.09.06.09c.03-.03.06-.06.15-.09.09-.09.12-.18.15-.27a.227.227 0 0 0-.12-.06c-.03 0-.06.03-.09.06l-.09.12zm4.459-2.663l.03-.09-.06.18c0 .03 0 .03.03.06.06 0 .09 0 .12-.03.15-.15.209-.27.209-.42 0-.03-.03-.03-.09-.03l-.03.03-.21.3zm3.83-5.417l.06.03c-.03.09-.09.09-.09.18-.03.06 0 .09.06.09s.09-.03.09-.06c.12-.21.21-.42.24-.629l-.03-.03h-.06c-.15.12-.18.27-.27.42zm-5.057 1.676h.03c.03-.09.03-.15.03-.18-.03-.09-.06-.12-.12-.12-.09 0-.15.03-.21.12-.09.15-.15.3-.179.45-.03.03 0 .06.03.06.21 0 .33-.12.419-.33zm-1.347 5.895l.03-.06-.06-.09h-.03c-.269.21-.449.45-.478.779-.03.06 0 .09.03.09.06 0 .09-.03.12-.06l.388-.659zm.27-3.68h.03l-.06.149c0 .03 0 .03.03.06.06 0 .09 0 .09-.03.09-.12.119-.21.149-.27l.449-1.166-.03-.03c-.03 0-.06 0-.09.03-.21.418-.419.837-.568 1.256zm-1.676 5.177l-.03-.09c.03-.06.03-.09 0-.12s-.03-.06-.06-.06c-.06 0-.09.03-.12.06-.15.27-.389.509-.538.838-.09.09-.06.18-.09.27-.03.03 0 .06.03.06h.09c.209-.12.329-.24.389-.33l.329-.628zm.09.927l.06.09c-.15.389-.33.718-.57 1.017-.06.03-.089.09-.119.12-.03.09 0 .15.03.18.06.03.12.03.21 0s.15-.09.209-.15c.27-.27.509-.539.658-.868.09-.21.24-.419.39-.688.568-.868.957-1.766 1.436-2.633.389-.689.449-.988.538-1.587.03-.09-.03-.09-.15-.06l-.269.18c-.06-.03-.12-.06-.15-.06-.089 0-.149.06-.239.18-.15.21-.239.419-.329.628-.09.24-.18.48-.21.719.12.209.09.448-.089.778-.24.448-.479.808-.748 1.256 0 .03-.03.06-.09.09l-.18-.24c-.03-.059-.09-.03-.179.06l-.24.45-.12.389c-.03.09.03.15.15.15zm-7.044-1.538l.1-.527.18-1.077c0-.03 0-.06-.03-.06-.03-.03-.06 0-.12.06-.09.12-.269.12-.269.24l-.06.927c.03.09.03.15.06.18.104.062.107.168.14.257zm8.075-2.042a1.125 1.125 0 0 0-.313.468s.03.03.06.09l.06-.06c.14-.196.122-.313.193-.498zm.054-.065c.286-.183.232-.166.261-.425 0 0-.03-.03-.06-.09-.03.03-.06.06-.06.09l-.141.425zm1.52-6.054a.709.709 0 0 1 .118-.146c.03-.03.06-.06.09-.06.06-.03.09 0 .06.06l-.21.718c-.03.03-.03.09 0 .18.03.06.06.09.09.06.03 0 .06-.03.09-.06.09-.12.12-.21.149-.27l.27-.898.03.21c.149-.449.328-.868.328-1.317.03-.27.15-.509.39-.718.12-.12.15-.27.269-.42.389-.927.718-1.765.987-2.692.15-.45.36-.808.48-1.257.328-.838.598-1.676.867-2.514l.39-1.167c.059-.21.179-.33.358-.33.12 0 .24-.06.39-.209.179-.15.358-.24.538-.27l1.975-.268.449-.09c.18-.06.359-.06.568-.03.24.03.48-.03.719-.18.18-.12.389-.15.628-.12.449.03.629.42.42.809-.27.568-.45 1.047-.57 1.616-.329 1.167-.808 2.334-1.167 3.5l-.18.42c-.209.389-.298.778-.508 1.167l-.449 1.077-.658 1.706c-.09.27-.12.539-.33.808l-.149.419c-.24.599-.419 1.197-.688 1.796-.629 1.556-1.078 3.142-1.676 4.728l-.39 1.077-.328 1.077c-.21.569-.3 1.048-.51 1.616-.029.06-.059.15-.149.27-.03.03-.06.06-.09.06-.06 0-.09-.03-.06-.06 0-.36 0-.718.21-1.108.09-.15.12-.329.15-.478.03-.12.06-.21.06-.27-.12-.508.18-1.017.329-1.586.24-.329.3-.658.3-.987.029-.21.059-.42.149-.599.12-.24.12-.509.21-.748.089-.24.179-.479.298-.718v-.06c-.209-.24.18-.539.18-.808.03-.27.12-.509.27-.718l.03-.09c.089-.24 0-.479.209-.748.21-.24.15-.509.299-.748.03-.03.03-.06 0-.06-.03-.03-.06-.06-.09-.06-.06 0-.09.03-.09.06-.209.33-.419.658-.448 1.017-.03.21-.09.33-.12.42-.21.329-.24.568-.33.897-.03.15-.119.21-.269.15-.15-.03-.24 0-.269.09-.15.209-.27.478-.36.748-.149.449-.298.897-.508 1.346-.03.09-.09.12-.18.12h-.09c-.089-.03-.149-.03-.179.06l-.18.27c-.149.269-.239.538-.478.777-.21.21-.3.48-.449.718-.15.21-.3.33-.509.36l-.389.09-.03.06c0 .03 0 .03.03.06h.18c.21 0 .24.089.15.238l-.48.898c-.03.09-.12.18-.239.3h-.06c-.03 0-.06-.03-.03-.06-.03-.21.12-.33.24-.539 0 0-.03-.03-.06-.09 0 0-.03 0-.09.03-.24.12-.329.3-.449.509-.06.12-.15.15-.299.09-.03 0-.06-.03-.09-.03-.09-.03-.15 0-.15.12l-.03.359c0 .209 0 .418-.239.628l-.06.12c.03.24-.12.419-.389.538-.06.03-.09.09-.09.12 0 .21-.209.419-.239.628-.03.03 0 .06.03.06h.06l.33-.269c0-.03.03-.03.06-.03.059 0 .089.03.059.09-.12.27-.27.538-.539.748-.329.449-.748.688-1.227.838-.688.24-1.316.479-2.005.598-.688.12-1.346.27-1.975.42-.718.209-1.496.269-2.244.388-.33.06-.629.03-.928-.12-.479-.209-.928-.358-1.287-.688a3.356 3.356 0 0 1-1.137-1.945c-.21-.927-.21-1.885-.12-2.932.09-.868.21-1.736.33-2.604.12-.718.299-1.436.449-2.155.15-.688.448-1.316.538-2.005.27-.598.27-1.197.539-1.795 0-.09.03-.18.06-.27.389-.718.508-1.436.838-2.154l.359-.808.21-.45c.089-.298.209-.598.358-.897.24-.449.36-.868.599-1.317a45.053 45.053 0 0 1 2.244-4.07c.24-.388.45-.778.659-1.226.269-.569.359-.659.957-.689.36-.03.718 0 1.048.03.12 0 .21.06.299.15.03.03.06.15-.03.24l-.06.119c-.27.33-.509.688-.778 1.137l-.389.599c-.09.15-.15.269-.15.329 0 .27-.15.509-.269.748 0 .03 0 .06.03.09l.12-.09.21-.18h.03l-.03.09c-.03.21-.09.39-.21.599-.51.808-.778 1.556-1.227 2.364-.39.688-.569 1.317-.898 2.005-.03.15 0 .3-.09.449-.24.808-.479 1.616-.868 2.424-.09.12-.12.24-.12.359-.03.24-.12.449-.239.628-.09.15-.12.27-.12.39 0 .269-.09.538-.209.807-.15.45-.21.838-.21 1.227 0 .12 0 .24-.03.36-.149.478-.149.927-.269 1.376-.03.09-.09.18-.06.27.15.328-.06.658-.18.987-.029.09-.029.18-.029.21.03.06.06.119.12.149s.12.03.18-.06c.149-.15.209-.33.209-.539.03-.359.12-.688.269-.957.06-.09.09-.18.09-.27.09-.448.24-.808.389-1.256.12-.39.24-.778.329-1.168 0-.329.18-.658.27-.987.03-.09.149-.18.179-.15.03.06.06.09.06.09-.03.24-.15.479-.18.718-.03.09.03.12.12.12.03 0 .03.03.06.06v.06l-.06.18c-.21.688-.24 1.376-.509 2.064-.03.06-.03.15-.03.27 0 .448-.06.837-.21 1.286l-.06.18c-.029.27.06.568.15.479.18-.09.3-.27.36-.48.09-.209.09-.328.09-.538.03-.12.09-.21.12-.27 0 0 .029-.03.119-.089h.03c.15.15.06.36.09.569.03.15.12.269.15.478 0 .27 0 .51.089.749v.478c-.15.689-.06 1.287-.03 1.916 0 .239.06.478.06.718.06.509.24.957.568 1.376.06.09.15.09.24-.06.12-.209.3-.329.419-.538.928-1.317 1.706-2.693 2.394-4.1.21-.33.329-.688.568-1.017.36-.48.48-.988.808-1.467l.06-.15c.15-.508.45-1.017.689-1.526l.21-.448c.059-.21.179-.39.358-.599.03-.09.09-.09.18 0 .03 0 0 .03.03.03.12.12.21.09.269-.06l.24-.718-.03-.03c-.03 0-.06.03-.09.06l-.09.12c-.12.09-.27.09-.3 0-.03-.03-.03-.09-.03-.12.15-.33.27-.659.54-.928.03-.03.09-.03.149-.03v.06l-.03.09c-.029.087-.086.203.02.209l.012-.003zm22.323-7.06h-.06c.03 0 .06-.03.09-.03l.03.03c-.03.09-.06.09-.09.06l.03-.06zm-8.56 8.05c-.03.03-.03.06-.06.06-.059.03-.089.03-.059-.06 0 0 .03 0 .06-.03 0 0 .03 0 .06.03zm1.078-.807l-.03-.06c.06-.09.12-.12.15-.15h.12l-.06.12-.18.09zm4.37-3.352v-.03c-.03.09-.12.15-.21.18-.06 0-.09-.03-.09-.06.03-.09.12-.18.24-.21.03 0 .06.03.09.06l-.03.06zm4.309-4.788l-.39.09c-.03 0-.03.03-.06.09.03.03.03.03.06.03l.24.09.18-.27-.03-.03zm1.167-4.16a.328.328 0 0 0-.06-.12c-.03 0-.06.03-.12.06-.03 0-.06.03-.09.06-.15.33-.359.569-.508.898-.03.03-.03.09 0 .12.03.09.09.12.18.03.059-.03.089-.06.089-.09.21-.33.3-.598.449-.928l.06-.03zm-4.99 13.385l.022-.128.03-.06c.06 0 .06.03.03.09l-.081.098zM100.18 42.77h-.06l-.18.12c-.06 0-.089-.03-.089-.06-.03-.21-.03-.36 0-.45.03-.09.06-.09.15-.179.09-.06.12-.03.15.06.089.15.089.329.03.509zm.36-2.305l.03.03-.3.868c-.03.09-.09.12-.18.09-.21-.09-.269-.24-.239-.449.03-.21.03-.33.12-.539.03-.15.18-.269.419-.299.18-.03.24.03.18.18l-.03.12zm6.373-17.925h.06l-.03.06c.03.03.06.03.09-.06v-.06c-.03-.03-.09 0-.12.06zm-9.217 2.005h-.06v-.06c-.03-.03-.03-.03-.06.06v.03c.03 0 .09-.03.12-.03zm-4.638 7.63l-.03.09c-.03.09 0 .09.06 0l.03-.09h-.06zM108.08 22.9l-.06-.03c.03-.03.03-.06 0-.06-.03-.03-.12.06-.15.15-.03.03 0 .06.03.06.09.03.15 0 .18-.12zM97.756 41.872l.03-.09c0-.03-.03-.06-.06-.06-.09 0-.12.03-.09.09 0 .03 0 .06.03.09 0 0 .03 0 .09-.03zm-8.977-.12h.03c.09-.06.12-.09.12-.09.03-.06 0-.09-.03-.09-.09-.03-.15 0-.15.09 0 .03 0 .06.03.09zm8.409-16.43l-.09.09c0 .03.03.06 0 .09.06-.03.09-.06.09-.09.03-.03 0-.06 0-.09zM90.574 38.58l.06-.03-.06-.09c-.09.03-.12.03-.15.06-.09.09-.06.15.03.15 0 0 .03-.03.12-.09zm9.696-2.693v.03l-.09.09.03.03c.03 0 .06-.03.12-.06l-.06-.09zM91.89 34.3l-.03.03c.06-.03.09-.06.09-.09.03-.06.03-.09-.03-.09-.03 0-.06.03-.06.06l-.03.09h.06zm3.143-3.532l.06-.18h-.09l-.06.12s.03.03.09.06zm16.04-10.773l-.06.12h-.06c-.06.03-.09.06-.09.09 0 0 .03 0 .06.03.09 0 .12-.06.15-.15v-.09zM97.936 41.034l-.06.03-.03.09c0 .03 0 .06.03.09.06-.03.09-.06.09-.09l.03-.09c.06-.15.06-.18 0-.15l-.06.12zm-4.579-9.397v-.03c.03-.06.03-.09 0-.12 0-.03-.03-.03-.06-.06 0 .03-.06.06-.06.09l-.03.12c-.03.03 0 .06.03.09l.12-.09zm1.287.03h-.03l.06-.12c0-.03 0-.06-.03-.09-.06.03-.09.06-.09.09l-.06.12c0 .03 0 .06.03.09l.12-.09zm-1.706 0h.06l-.06-.09-.12.09-.09.09c0 .03 0 .06.03.09l.12-.06.06-.12zm16.1-11.402l.03-.03h.06l.12-.179v-.03c-.06 0-.12 0-.15.03-.09.09-.15.21-.06.21zM91.562 35.258v.03c.03-.06.03-.09 0-.12-.03-.06-.09-.03-.18.12l-.03.06.06.09.12-.09.03-.09zm3.261-7.391v.06l.18-.15c0-.03 0-.09-.03-.12-.09-.03-.15 0-.18.09 0 0 0 .03.03.12zm-6.493 15.8v.03c-.09.03-.15.06-.15.09-.03.09-.03.15-.03.18s0 .03.03.03.03 0 .03.03c.09-.09.15-.09.15-.18.03-.09-.03-.09-.03-.18zm7.99-15.86h-.06l.06-.18c.03-.03 0-.06-.03-.06-.06 0-.09.03-.12.09-.03.09-.03.15-.03.18 0 0 .03.03.06.09.06-.03.09-.09.12-.12zm-.808 1.825h.03l.06-.21c0-.03 0-.06-.03-.089-.09.06-.12.09-.12.09l-.15.419c0 .03.03.06.06.06l.03-.03.12-.24zm-6.404 14.125l.03-.09.06-.15c0-.03 0-.06-.03-.09-.03.03-.06.06-.06.09l-.15.45v.09c.06-.03.09-.06.09-.09l.06-.21zm10.474-5.985h-.09c-.09.06-.12.09-.12.09-.09.15-.06.24.06.27.06 0 .09-.03.12-.06.09-.12.12-.21.03-.3zm-9.786 3.501c0-.03 0-.06-.03-.09 0 .03-.06.06-.06.09l-.24.719c0 .03.03.06 0 .09.06-.03.09-.06.09-.09l.24-.719zm7.96 1.616l-.03-.03c.03-.09.09-.24.06-.359h-.06c-.03 0-.06.03-.09.06-.09.21-.03.3-.03.509-.03.03 0 .06 0 .09l.09-.09.06-.18zm-6.883-5.835l.03.03c-.03.12-.06.21-.06.269-.03.06-.03.12 0 .15s.12-.09.21-.21c.09-.15.09-.3.03-.449h-.06c-.03 0-.03 0-.06.03l-.09.18zm8.798.12l.06-.03v.209h.06c.03 0 .06-.03.06-.06.12-.12.03-.24.12-.359l.24-.359s-.03 0-.06-.03h-.09c-.15.12-.3.33-.39.628zm10.564-17.537h-.06l.21-.628v-.09c-.06.03-.09.06-.09.09-.12.389-.419.718-.658 1.047 0 .03 0 .09.03.12.03.06.12.03.21-.06.149-.12.268-.27.358-.479zm-19.99 20.29l-.03.03.21-.629c.03-.09.03-.09-.03-.06-.03 0-.03.03-.06.06-.33.39-.36.778-.36 1.167h.06l.03-.03.18-.538zm-1.257.927l.03.03c0 .09-.09.24-.09.39-.03.03 0 .06.06.06.03 0 .09-.03.15-.06.15-.15.21-.27.239-.39.09-.27.12-.538.12-.808h-.06c-.03 0-.06 0-.06.03-.24.21-.27.42-.389.748zm18.703-18.075l-.03-.03c.09 0 .15 0 .21-.03.3-.21.479-.419.539-.688.03-.09.09-.15.21-.21.209-.09.209-.12.179-.209-.06-.15 0-.3.18-.389.149-.09.269-.21.358-.359l.06-.18c0-.03-.03-.06-.06-.06h-.06c-.269.33-.628.57-.867.928-.12.21-.3.33-.42.48l-.418.448c-.03.09 0 .27.12.3zm-1.256.24l-.15-.06c.03-.3.18-.569.419-.778l.12-.09.06-.12h-.12c-.27.09-.479.24-.688.39-.03.03-.06.03-.12.03-.09 0-.09-.06 0-.18l.24-.33c0-.03 0-.09-.03-.12s-.06-.03-.12 0l-.569.45c-.03.03-.06.03-.09-.03l.03-.06a.78.78 0 0 1 .21-.3c.12-.09.269-.179.299-.269.21-.329.389-.568.598-.838.09-.09.15-.21.24-.359.27-.628.628-1.227.957-1.825.03-.09.03-.15-.06-.15-.299.03-.598.09-.867.18-.958.27-1.856.628-2.783.987l-1.347.629-2.514 1.406c-.27.15-.508.33-.718.539-.15.09-.21.21-.21.33 0 .568-.269 1.136-.538 1.705-.12.24-.24.449-.24.688 0 .15-.03.27-.12.39-.209.358-.298.717-.418 1.076-.09.15-.06.33-.18.48-.21.448-.389.897-.538 1.346l-.928 2.244c0 .09-.09.18-.12.27-.24.568-.419 1.077-.538 1.526-.03.21-.06.419-.18.628-.03.09-.03.15.03.18.03.03.09.03.18 0 .299-.15 1.645-.958 1.825-1.137l1.287-.898.359-.3c.09-.09.09-.09.12-.179-.09 0-.06-.03-.15-.03l-.688.12c-.21.03-.36-.06-.45-.27-.03-.179.03-.359.21-.538.33-.33.689-.629 1.078-.868a4.138 4.138 0 0 1 1.616-.628c.448-.03.808-.06 1.197-.06.15 0 .299-.03.419-.12.269-.21.508-.33.748-.539.478-.448.987-.808 1.466-1.197.748-.628 1.586-1.256 2.304-1.945l.09-.12c0-.03 0-.06-.03-.06h-.06c-.21.06-.359.18-.449.33-.269.27-.568.449-.808.658-.21.18-.389.27-.598.3-.18.03-.36.12-.569.299l-.359.27c-.449.358-.898.717-1.346 1.046l-.18.09-.03-.03c.12-.09.21-.21.3-.299a24.995 24.995 0 0 0 1.705-1.406l.718-.629c.27-.21.48-.359.629-.628.03-.09.12-.15.24-.24l.538-.538.09-.18-.03-.03c-.15 0-.27.12-.39.21-.12.03-.209.03-.239-.06.15-.09.27-.15.3-.24.06-.09.03-.12-.06-.12zm-8.095 17.64c.17-.174.253-.35.224-.553v-.329c-.18.33-.27.599-.24.808-.024.025-.008.05.016.075zm11.182-18.821c.22-.091.362-.236.504-.435.03-.06.03-.09-.03-.09-.03 0-.06 0-.06.03-.184.184-.322.322-.414.495zm-.09.107c-.332.204-.588.462-.843.774l-.053.072c.37-.194.669-.483.895-.846zm-.961.895a.37.37 0 0 0-.24.119c-.09.09-.09.18 0 .18.059 0 .089-.03.119-.06.026-.08.053-.16.12-.239zm-6.033 9.446l-.073.22.03.029c.03 0 .06 0 .06-.03l.269-.27h.03c.03 0 .06.03.06.06l-1.078 2.155c-.359.718-.658 1.437-.987 2.155-.718 1.287-.958 2.573-1.407 3.86l-.12.719c-.15.568-.209 1.017-.329 1.586l-.09.419-.06 1.436c0 .06-.03.15-.06.27-.029.09-.119.149-.268.149-.09 0-.12-.03-.15-.12-.03-.06-.03-.18-.06-.329-.03-.12 0-.24-.03-.33-.21-.358-.09-.807-.12-1.196-.03-.09.03-.18.03-.27l-.06-.06c0 .03-.03.06-.06.09l-.149.45c-.03.149-.15.328-.3.478h-.089c-.15 0-.21.06-.24.15 0 .12-.06.24-.06.359-.03.449-.03.838-.149 1.287-.03.09 0 .09.03.18-.03.089-.09.149-.21.179h-.09c-.119 0-.209.06-.239.15l-.12.628s-.03.03-.119.09h-.03c-.03-.03-.03-.09-.06-.18-.09-.21-.27-.27-.538-.12-.15.06-.24.15-.27.27-.09.15-.09.299-.12.449-.03.06-.06.09-.12.09-.089 0-.119-.12-.239-.03-.09.03-.15.03-.15-.06 0-.39-.239-.629-.269-.988-.09-.569-.09-1.077-.09-1.646.09-1.167.27-2.364.6-3.561l.119-.36c.15-.598.33-1.196.598-1.795.12-.21.18-.329.21-.538.24-.689.568-1.317.838-2.005l1.107-2.335.36-.718.568-1.167c.09-.12.21-.24.06-.33-.09-.089-.24.06-.33.15-.598.48-1.256.868-1.855 1.317-.598.39-1.077.748-1.676 1.018a.68.68 0 0 0-.329.419l-.18.538-1.526 4.669c-.03.12-.06.21-.06.27-.09.687-.299 1.286-.508 1.974-.12.45-.3.868-.3 1.317 0 .09-.09.18-.09.27a.49.49 0 0 1-.418.328l-.36.06-1.137.18c-.18.03-.299.06-.389.06-.15 0-.299.03-.419.12-.18.09-.359.12-.538.12-.15 0-.33.119-.48.149-.209.03-.298-.09-.448 0-.06.03-.12.06-.15.06l-.15-.12c-.03-.18-.03-.36.06-.509.09-.21.03-.329-.179-.389-.09-.03-.06-.09-.15-.12s-.06-.12-.06-.21c-.03-.119-.03-.149-.269-.059-.12.03-.21 0-.27-.09 0-.09 0-.15.03-.21l.27-.538c.09-.12.06-.21-.06-.24-.03 0-.06-.03-.03-.089l.06-.12.33-.18c.09-.03.15-.03.179.06 0 .09-.06.18-.03.27-.03.03-.03.03 0 .06 0 .03 0 .03.03.03.15-.09.3-.03.449-.03.12 0 .21-.06.24-.18l.09-.18c.149-.837.418-1.675.687-2.513l.03-.06c-.06 0-.09.03-.12.09-.12.21-.329.3-.478.419-.12.09-.18.21-.15.299.12.27-.03.539-.15.868l-.06.06c-.209-.03-.269.15-.388.24h-.09l-.21-.18c-.03-.03-.03-.06-.03-.09l.06-.45c0-.089.06-.149.15-.238.09-.09.09-.18.03-.3-.06-.18 0-.389.21-.598.09-.12.149-.24.119-.39-.03-.209.03-.358.12-.568.12-.389.24-.778.329-1.167 0-.21.06-.33.15-.539.03-.239.209-.478.239-.718s.12-.479.24-.718c.12-.24.239-.479.239-.718-.03-.09 0-.18.09-.27.269-.568.389-1.047.598-1.616l.36-.808.448-1.167.419-.987c0-.09.09-.18.09-.27.24-.628.479-1.256.748-1.885l.987-2.334c.27-.569.45-1.137.719-1.706.03-.15.09-.27.15-.359.358-.628.478-1.257.718-1.945.03-.21.09-.42.09-.629-.03-.209-.03-.359 0-.448.03-.15.09-.27.239-.36.09-.06.18-.12.299-.15.33-.089.598-.149.868-.149.329 0 .568-.06.898-.06.329 0 .628-.06.897.03.21.03.36.06.599-.15.09-.06.21-.09.359-.09.389.03.778.03 1.227.03.12 0 .24-.03.359-.089.449-.24.868-.449 1.317-.778.24-.15.449-.27.688-.3.24-.03.479-.09.718-.179.12-.03.18-.06.18-.03.15.15.3.03.509-.09.329-.209.628-.299.897-.508.24-.21.509-.18.778-.27.33-.09.689-.09 1.018-.12.09 0 .24.03.419.06.359.03.718.03 1.077.03.688-.03 1.347-.03 1.975.09.24.09.509.03.748 0 .33-.03.599-.03.778.06.09.03.24.09.42.12.239.09.418.21.628.329l.09.09c.15.359.21.748.09 1.257-.21.718-.6 1.376-1.108 2.005a18.682 18.682 0 0 1-1.975 2.124l-1.377 1.287c-.628.569-1.286 1.048-1.915 1.556l-1.227.988c-.359.329-.748.568-1.107.898-.12.09-.21.15-.24.239-.03.09 0 .12.06.12.21 0 .33-.03.54-.03.03 0 .089.03.149.06.09.03.09.12 0 .21-.03.029-.06.059-.09.059h-.18c-.09 0-.15 0-.21.03-.478.12-.777.389-.897.778-.09.27-.18.509-.329.748-.21.33-.3.599-.27.808 0 .27-.119.509-.388.718-.27.24-.3.509-.51.838-.029.03 0 .06.03.06.24.21.03.479-.119.748l-.658 1.257c-.21.33-.24.658-.36.988l.03.03c.03 0 .09 0 .12-.03.03 0 .03-.03.03-.06.33-.688.718-1.257 1.078-1.945.209-.45.448-.808.778-1.197l.013-.01zm0 0l.136-.41-.03.33-.106.08zm17.104-8.55v-.03l.18-.089h-.27l-.12.09c.03 0 .06.03.09.03h.12zm-7.332 8.56v-.06h.06l.21-.36s-.03 0-.06-.03c-.03 0-.06 0-.06.03-.09.09-.15.18-.15.33-.03.03 0 .06 0 .09zm3.053-5.656l-.15.09c-.09.09-.12.179-.15.329 0 .03.03.06.06.06s.06-.03.06-.06c.09-.12.21-.24.24-.39 0-.03-.03-.03-.06-.03zm2.364 1.167c-.03.09-.03.12-.06.15-.06.03-.12.06-.15.06s-.06-.03-.09-.06c-.03-.12.03-.24.15-.33.09-.03.12-.03.15.06v.12zm-3.172.359h-.03l-.06-.09h-.03c-.12.09-.21.21-.24.3-.03.06 0 .09.06.09.21-.03.3-.15.3-.3zm10.025-6.913h-.09c-.03-.03-.03-.06-.06-.06l-.748.09c-.03 0-.09.03-.18.06-.06.03-.09.09-.12.12-.03.06 0 .09.06.09.27.03.57-.09.809 0 .09.03.329-.18.329-.3zm-13.078 11.462l-.12.09c-.09-.09-.239-.12-.388-.03l-.06.12.03.029.419-.12c-.09.15-.18.27-.27.48-.359.687-.598 1.346-1.047 2.034-.09.09-.12.18-.12.21.03.329-.21.598-.449.927 0 .03-.03.03-.09.03-.09 0-.12 0-.12.03-.149.21-.179.33-.298.539 0 .03 0 .06-.03.15 0 .09.06.12.15.09l.209-.09c.359-.09.508-.33.628-.6.03-.149.03-.298.12-.448.03-.21.09-.33.21-.539.03-.09.09-.15.209-.18.329-.089.329-.119.419-.328l.21-.629v-.09c-.09.06-.12.09-.12.09-.09.09-.06.18-.15.27l-.15.18c0 .029-.03.029-.06.059-.03-.03-.03-.06-.03-.09 0-.21.18-.359.27-.568.12-.21.15-.33.24-.54.03-.059.06-.089.119-.089 0 0 .03.03.06.09.03.03 0 .09.03.12 0 .03 0 .06.03.09l.12-.09c.09-.09.12-.18.09-.27l-.12-.21c-.09-.119-.06-.239.03-.388.09-.12.12-.24.03-.33zm9.038 3.232l.18.03c-.39.03-.749.06-1.138.179-.15.09-.3.03-.449.03-.03 0-.03-.03-.06-.03 0-.03 0-.06.03-.06.36-.09.659-.18 1.018-.3.03 0 .03-.029.06-.089 0 0-.03 0-.06-.03h-.09c-.24-.03-.479-.03-.718.12-.21.12-.42.18-.629.18-.269 0-.568.09-.808.179l-1.017.36c-.24.089-.12.089-.03.179.06.09.03.15-.09.18l-.299.089c-.12.03-.27 0-.389.09-.36.21-.628.18-.988.27-.329.089-.538 0-.808-.03-.03 0-.06.03-.06.059-.03.03 0 .06.03.06.03.03.06.03.09.03.03.06.06.09.06.09 0 .21.15.15.3.12.239-.03.359-.15.568-.12.03 0 .03 0 .03.03-.03.06-.03.09-.06.09l-.419.179c-.688.24-1.376.568-2.095.808l-.18.18v.03h.15c.45-.12.868-.21 1.347-.42.39-.15.688-.18.958-.09.09.03.12 0 .12-.12.03-.03.06-.089.12-.119.268-.12.478-.18.687-.15.09.03.24.03.45.03 0 0 .03-.03.119-.09.03-.03.03-.119.06-.119.329-.15.628-.3.898-.21.329.09.658 0 .987-.09.479-.119.958-.179 1.407-.269.359-.09.718-.12 1.077-.21.33-.089.718-.179 1.167-.209.39-.03.808-.12 1.197-.09.03 0 .06.03.03.06v.06c-.15.09-.27.12-.33.15s-.149.03-.298.03c-.18-.03-.39 0-.629.06-.479.15-.958.21-1.406.299-.45.03-.808.12-1.257.21-.718.209-1.497.389-2.245.598-.24.09-.449.09-.718.24-.09.03-.15.06-.21.06-.269-.03-.538.06-.807.149l-1.138.449c-.239.09-.419.21-.538.359-.09.09-.24.12-.36.21l-.09.179c-.029.12 0 .15.09.12.33-.12.57-.18.898-.39.33-.209.659-.299.928-.269.24.03.509-.18.748-.09.09.03.18 0 .33-.09.15-.09.299-.209.508-.299.09-.03.18-.06.24-.06.329.09.688 0 1.077-.09.33-.089.628-.059.987-.089.03 0 .03.03.06.06-.03.03-.03.06-.06.06-.12.09-.299.09-.448.18-.03 0-.03.03-.03.06.03.03.03.059.06.059.09 0 .269-.03.478-.06.21-.03.45-.06.659-.15.24-.09.478-.12.718-.209.27-.09.568-.18.928-.21l1.556-.09c.568-.03 1.047 0 1.526.09.03 0 .06.03.03.06l-.03.03-.658.09c-.48.03-.958.09-1.407.18-.479.09-.987.12-1.466.21-.838.089-1.676.328-2.544.538-.748.21-1.406.359-2.095.568 0 0-.03.03-.09.06.03.03.03.06.06.06.21-.03.33 0 .48-.09.717-.24 1.376-.329 2.124-.478.27-.09.568-.09.838-.21h.09c.568 0 1.077-.15 1.645-.3.09-.03.21 0 .3 0 .15 0 .269 0 .359-.03.628-.149 1.197-.179 1.765-.149.03 0 .06.03.03.06 0 .03 0 .03-.03.06-.359.09-.598.12-.957.15l-.928.09c-.868.09-1.766.269-2.693.508a2.5 2.5 0 0 1-.599.15c-.359.09-.688.21-1.047.329-.27.09-.539.06-.898.15-.21.03-.33.09-.539.18l-.299.119c-.598.15-1.137.299-1.735.568-.09.09-.21.06-.33.09-.329.09-.628.09-.987.33-.15.119-.33.149-.569.239l-.598.24c-.48.209-.599.298-.599.807v.539c0 .06-.03.15-.06.27-.03.149-.12.179-.24.149-.149-.09-.268-.12-.388-.21-.27-.21-.569-.359-.838-.508-.09 0-.12.03-.15.09 0 .09-.03.179-.06.269l-.09.18s-.03.03-.119.089c-.03.03-.09.03-.12 0l-.18-.27c-.089-.179-.239-.239-.448-.149-.449.18-.898.3-1.317.36-.21.029-.359.149-.449.418l-.06.18c-.03.03-.06.06-.09.06s-.06 0-.06-.03c-.03-.12-.179-.15-.03-.36v-.688c0-.24.12-.479.09-.718l.03-1.167s-.03-.03-.06-.09c-.09-.03-.149 0-.179.15l-.12.359c-.12.509-.299 1.017-.329 1.496.03.21-.06.3-.15.509-.09.15-.06.24.09.27.15.089.15.239.18.388-.03.24-.15.36-.39.36-.209 0-.179.09-.268.209-.09.09-.15.12-.24.03-.12-.27-.18-.509-.27-.838 0-.15.03-.33.03-.539.09-.449.18-.838.21-1.227.09-.449.27-.898.39-1.346l.119-.27c.12-.598.36-1.197.599-1.795.269-.719.508-1.437.837-2.155l1.078-2.514c.449-1.047.898-1.975 1.376-3.022.12-.27.27-.539.42-.808.149-.33.358-.659.508-.988.24-.568.539-1.077.808-1.646.36-.628.658-1.227.988-1.915.508-.987.987-1.975 1.466-2.963.21-.359.359-.718.509-1.077.12-.21.15-.419.18-.628.089-.36.269-.659.658-.868.18-.09.269-.21.269-.39-.09-.448.09-.837.06-1.286 0-.09.09-.21.18-.3.119-.149.269-.209.418-.179.15.03.24.09.3.12.15.09.359.18.628.21.718.09 1.436.12 2.244 0l1.796-.24.658-.12c.689-.12 1.317-.24 2.005-.389.629-.15 1.257-.24 1.886-.329l2.184-.36c.09-.029.24-.029.45-.029.388-.03.807-.06 1.196-.06.21 0 .449 0 .599.03.21.03.299.15.269.36 0 .209.03.358-.09.568a.89.89 0 0 1-.389.419l-.628.27c-.09.029-.12.089-.15.179-.03.15-.12.239-.24.269l-1.017.09c-.03 0-.09.03-.15.06-.03.03 0 .09.03.12.09.03.09.09 0 .149-.03.03-.12.09-.209.12l-.21.09-.987.269c-.03 0-.03 0-.06.03.03.06.06.09.06.09.479-.03.988-.03 1.466-.12.27-.03.51-.09.719.06.03.03.12.03.209 0 .15-.03.21.03.24.18 0 .149-.06.209-.15.239-.18.03-.3.06-.39.06-.508.03-1.017.12-1.525.209a.857.857 0 0 0-.569.329l-.12.09c-.03 0-.06 0-.09.03.03.03.06.06.09.06h.45c.149 0 .179.06.149.21 0 .149.06.179.21.149l.478-.12c.27-.06.419.03.449.24.03.09.03.179.03.269 0 .06-.03.09-.09.09-.509.09-1.047.209-1.616.299-1.077.21-2.214.359-3.322.688-.03 0-.06.03-.12.06v.03h.09c.21-.03.39 0 .629-.09.33-.09.658-.12.987-.15.45-.03.779-.03 1.227-.18.12-.029.21 0 .3 0 .06 0 .09.03.06.09 0 .03-.03.06-.06.06-.09.03-.18.06-.21.06-.449.03-.928.15-1.406.27l-1.467.389c-.389.09-.778.15-1.137.18-.389.03-.808.119-1.167.209-.479.12-.898.21-1.377.299-.06 0-.12.03-.209.06-.12.06-.18.12-.21.15-.209.837-.628 1.675-1.077 2.513l-.06.18c-.12.21-.06.3.15.27l1.047-.18h.09l-.12.09c-.15.149-.15.269-.03.358.09.09.24.15.39.12.329-.03.598-.06.927-.15h.09l-.06.06-.479.18c-.09.03-.12.09-.06.12.21.09.12.21 0 .359l-.12.09c-.06.03-.06.06-.03.09 0 .03.03.03.06.03.36-.06.66-.06.928-.03.09 0 .18 0 .21-.03.389-.12.688 0 1.017.03.03 0 .06.03.03.06s-.03.059-.06.059l-.478.18c-.03.03-.09.03-.18.03-.12.03-.09.06.06.09h.18c.03 0 .06.03.03.06v.029l-1.467.27-.3.149c-.03 0-.03.03-.06.06-.029.03 0 .06.03.06h.09c.21 0 .42-.06.63-.03.149.03.268.09.478.18.03.03.12.03.24.03.119 0 .209 0 .269.03l.748.269c.03 0 .03 0 .06.03l-.09.12c-.21.149-.39.239-.599.239-.598.03-1.137.209-1.646.299-.03 0-.06.03-.12.06.03.06.06.09.06.09.36 0 .719 0 1.078-.12.449-.12.838-.12 1.197-.09.06 0 .09.03.06.09 0 .03-.03.06-.06.06l-.808.239c-1.167.21-2.274.479-3.442.808-.688.21-1.376.389-2.064.658-.12.03-.27.09-.45.18-.149.06-.269.18-.358.33l-.868 1.795-.06.18c-.15.358-.03.478.33.388l.388-.12a50.307 50.307 0 0 1 4.01-1.137c.599-.15 1.167-.329 1.766-.449.09 0 .12-.03.21-.03l2.453-.359c.33-.09.688-.12 1.018-.15.748-.089 1.466-.06 2.184-.089.21 0 .36.03.479.12.24.12.569.06.778.269.06.03.06.09 0 .18-.03.03-.03.06-.06.06-.27.15-.449.388-.598.598-.09.12-.18.15-.27.12-.18-.03-.329-.03-.448.06-.12.06-.21.06-.27 0-.09-.09-.24-.09-.419-.06-.27.09-.509.06-.778.15-.21.03-.359.119-.509.03h-.18c-.448.089-.807.149-1.256.269-.24.06-.449.09-.628.06-.09-.03-.21-.03-.36-.03-.09 0-.15 0-.239.09-.12.209-.27.209-.479.179-.06 0-.12.03-.21.06-.03 0-.06.03-.089.06-.03.03 0 .09.03.12.09.03.18.03.18.059.09.09-.15.15-.18.24l.03-.03z" transform="translate(68 37)"/>
    </g>
</svg>
