<svg xmlns="http://www.w3.org/2000/svg" xmlns:xlink="http://www.w3.org/1999/xlink" width="263" height="125" viewBox="0 0 263 125">
    <defs>
        <path id="b" d="M0 16.182h9.699v4.822c.453-1.778 1.228-3.101 2.325-3.971 1.097-.87 2.647-1.305 4.65-1.305 1.627 0 3.035.369 4.226 1.106 1.191.738 2.033 1.75 2.524 3.035.832-1.437 1.758-2.486 2.78-3.148 1.02-.662 2.438-.993 4.253-.993 3.252 0 5.511.993 6.778 2.978 1.266 1.986 1.9 4.87 1.9 8.651l-.114 30.35H29.04v-30.52c0-2.685-.68-4.028-2.042-4.028-.945 0-1.626.464-2.042 1.39-.415.927-.623 2.033-.623 3.319v29.838h-9.926v-30.52c0-1.171-.123-2.117-.369-2.835-.245-.719-.765-1.078-1.56-1.078-1.02 0-1.739.5-2.155 1.503-.415 1.002-.623 2.203-.623 3.602v29.328H0V16.182zM54.618 58.16c-4.272 0-7.335-1.172-9.188-3.517-1.852-2.345-2.779-5.843-2.779-10.495V27.471c0-3.82 1.097-6.732 3.29-8.736 2.193-2.005 5.256-3.007 9.188-3.007 7.978 0 11.967 3.914 11.967 11.743v3.006c0 3.026-.038 5.484-.113 7.375H52.577v8.055c0 1.437.15 2.562.453 3.375.303.813.946 1.22 1.929 1.22.756 0 1.295-.227 1.616-.68.322-.455.51-.975.567-1.56.057-.587.085-1.447.085-2.582v-4.028h9.87v2.383c0 4.84-.937 8.405-2.808 10.693-1.872 2.288-5.095 3.432-9.67 3.432zm2.61-25.244v-5.332c0-2.988-.738-4.481-2.213-4.481-1.663 0-2.495 1.493-2.495 4.481v5.332h4.707zm-8.735-18.663V8.07L61.651 2v9.644l-13.158 2.61zM78.837 58.16c-2.42 0-4.245-.577-5.474-1.73-1.228-1.154-2.041-2.685-2.438-4.595-.397-1.91-.596-4.359-.596-7.346l.113-18.72c0-2.95.747-5.361 2.24-7.233 1.494-1.872 3.602-2.808 6.325-2.808 2.684 0 4.688.889 6.012 2.666v-9.7h9.925v49.012H85.02v-4.425c-.567 1.627-1.333 2.846-2.297 3.66-.964.812-2.26 1.219-3.885 1.219zm3.8-7.772c.983 0 1.626-.482 1.928-1.446.303-.965.454-2.26.454-3.886V27.697c0-1.21-.17-2.23-.51-3.063-.341-.832-.946-1.248-1.816-1.248-.983 0-1.635.388-1.956 1.163-.322.775-.482 1.825-.482 3.148V45.17c0 3.48.794 5.22 2.382 5.22zm16.22-36.986v-6.92h9.926v6.92h-9.925zm0 44.304V16.182h9.926v41.524h-9.925zm21.383.454c-3.214 0-5.416-1.068-6.608-3.205-1.19-2.137-1.786-5.19-1.786-9.162 0-3.252.425-5.748 1.276-7.488.85-1.74 2.032-3.016 3.545-3.829 1.512-.813 3.819-1.71 6.92-2.694l2.722-.908V26.62c0-1.097-.218-1.939-.653-2.525-.434-.586-.954-.879-1.56-.879-.529 0-.992.246-1.389.737-.397.492-.595 1.154-.595 1.986v2.496h-9.642v-1.362c0-4.084.954-6.996 2.864-8.736 1.91-1.74 5.02-2.609 9.33-2.609 3.44 0 6.239.898 8.394 2.695 2.155 1.796 3.233 4.34 3.233 7.63v31.653h-9.869v-4.935c-.491 1.702-1.276 3.025-2.354 3.97-1.077.946-2.353 1.419-3.828 1.419zm3.913-7.715c.757 0 1.296-.312 1.617-.936.321-.624.482-1.39.482-2.297V35.639c-1.475.568-2.562 1.286-3.261 2.156-.7.87-1.05 2.08-1.05 3.63v5.333c0 2.458.738 3.687 2.212 3.687zm27.338 7.715c-8.205 0-12.308-4.16-12.308-12.48l.057-3.29h9.926l.056 4.878c0 .984.19 1.73.568 2.241.378.51 1.002.766 1.871.766 1.324 0 1.985-1.078 1.985-3.234 0-1.588-.312-2.836-.936-3.744-.623-.907-1.616-1.872-2.977-2.893l-5.275-4.084c-1.815-1.4-3.12-2.846-3.913-4.34-.794-1.493-1.191-3.602-1.191-6.325 0-2.118.557-3.923 1.673-5.417 1.115-1.494 2.6-2.62 4.452-3.375 1.853-.757 3.914-1.135 6.182-1.135 8.054 0 12.08 4.009 12.08 12.026v.794h-10.265V26.96c0-.983-.16-1.825-.482-2.524-.321-.7-.86-1.05-1.616-1.05-.681 0-1.2.199-1.56.596-.36.397-.539.936-.539 1.617 0 1.512.586 2.685 1.758 3.517l6.126 4.481c2.193 1.626 3.875 3.394 5.048 5.304 1.172 1.91 1.758 4.32 1.758 7.233 0 3.857-1.097 6.826-3.29 8.906-2.193 2.08-5.256 3.12-9.188 3.12z"/>
        <filter id="a" width="102.4%" height="107.1%" x="-.6%" y="-1.8%" filterUnits="objectBoundingBox">
            <feOffset dx="2" dy="2" in="SourceAlpha" result="shadowOffsetOuter1"/>
            <feColorMatrix in="shadowOffsetOuter1" values="0 0 0 0 0 0 0 0 0 0 0 0 0 0 0 0 0 0 1 0"/>
        </filter>
        <path id="d" d="M0 34.816V4.184h6.31v30.632H0zm13.506.284c-2.009 0-3.386-.668-4.13-2.003-.744-1.336-1.117-3.244-1.117-5.726 0-2.033.266-3.593.798-4.68.532-1.087 1.27-1.885 2.215-2.393.946-.508 2.387-1.07 4.325-1.684l1.702-.568v-2.659c0-.685-.136-1.211-.408-1.577-.272-.367-.597-.55-.975-.55-.33 0-.62.154-.868.46-.248.308-.372.722-.372 1.242v1.56H8.649v-.851c0-2.553.597-4.373 1.79-5.46 1.194-1.087 3.138-1.631 5.832-1.631 2.15 0 3.899.561 5.246 1.684 1.347 1.123 2.02 2.712 2.02 4.769v19.783H17.37v-3.084c-.308 1.063-.798 1.89-1.472 2.482-.673.59-1.47.886-2.392.886zm2.446-4.822c.472 0 .809-.195 1.01-.585.2-.39.301-.868.301-1.436v-7.232c-.921.354-1.6.803-2.038 1.347-.437.543-.656 1.3-.656 2.269v3.333c0 1.536.461 2.304 1.383 2.304zm25.38 4.822c-5.128 0-7.692-2.6-7.692-7.8l.036-2.056h6.203l.036 3.049c0 .614.118 1.081.354 1.4.236.32.626.479 1.17.479.827 0 1.24-.674 1.24-2.021 0-.993-.194-1.773-.584-2.34-.39-.567-1.01-1.17-1.861-1.808l-3.297-2.553c-1.134-.875-1.95-1.779-2.446-2.712-.496-.934-.744-2.252-.744-3.953 0-1.324.348-2.453 1.045-3.386.697-.934 1.625-1.637 2.783-2.11 1.158-.473 2.446-.709 3.864-.709 5.034 0 7.55 2.505 7.55 7.516v.497h-6.416V15.6c0-.615-.1-1.14-.301-1.578-.201-.437-.538-.656-1.01-.656-.426 0-.75.124-.975.373-.225.248-.337.585-.337 1.01 0 .946.366 1.678 1.099 2.198l3.828 2.801c1.371 1.017 2.423 2.122 3.155 3.315.733 1.194 1.1 2.7 1.1 4.52 0 2.412-.686 4.267-2.057 5.567-1.37 1.3-3.285 1.95-5.743 1.95zm17.264 0c-5.176 0-7.763-2.683-7.763-8.048V16.628c0-2.458.69-4.414 2.073-5.868 1.383-1.453 3.28-2.18 5.69-2.18 2.41 0 4.307.727 5.69 2.18 1.382 1.454 2.073 3.41 2.073 5.868v10.424c0 5.365-2.588 8.048-7.763 8.048zm0-4.786c.496 0 .862-.178 1.099-.532.236-.355.354-.84.354-1.454V15.635c0-1.512-.484-2.269-1.453-2.269-.97 0-1.454.757-1.454 2.27v12.692c0 .615.119 1.1.355 1.454.236.354.602.532 1.099.532zM76.462 35.1c-2.836 0-4.88-.72-6.133-2.163-1.252-1.442-1.879-3.652-1.879-6.63v-8.012c0-2.246.243-4.072.727-5.478.484-1.407 1.3-2.464 2.446-3.173 1.146-.71 2.735-1.064 4.768-1.064 2.221 0 4.029.58 5.423 1.737 1.395 1.158 2.092 2.778 2.092 4.858v3.97h-6.31v-3.651c0-.686-.095-1.212-.284-1.578-.189-.366-.555-.55-1.099-.55-1.016 0-1.524.721-1.524 2.163v12.586c0 .591.124 1.094.372 1.507.249.414.62.62 1.117.62.496 0 .868-.2 1.117-.602.248-.402.36-.922.336-1.56l-.035-4.36h6.31v4.537c0 2.128-.692 3.8-2.074 5.017-1.383 1.217-3.173 1.826-5.37 1.826zm9.57-27.974V2.801h6.204v4.325h-6.203zm0 27.69V8.864h6.204v25.952h-6.203zm15.917.284c-2.67 0-4.585-.733-5.743-2.198-1.158-1.466-1.737-3.652-1.737-6.56V15.92c0-2.387.686-4.207 2.056-5.46 1.37-1.253 3.285-1.879 5.743-1.879 4.986 0 7.48 2.446 7.48 7.34v1.878c0 1.891-.024 3.427-.072 4.61h-9.003v5.034c0 .898.094 1.601.283 2.11.19.508.591.762 1.205.762.473 0 .81-.142 1.01-.426.202-.283.32-.608.355-.975.036-.366.053-.904.053-1.613v-2.517h6.168v1.489c0 3.025-.585 5.253-1.754 6.683-1.17 1.43-3.185 2.145-6.044 2.145zm1.63-15.777V15.99c0-1.867-.46-2.8-1.382-2.8-1.04 0-1.56.933-1.56 2.8v3.333h2.942zM98.12 7.658V3.794L106.344 0v6.027L98.12 7.658zM117.333 35.1c-1.63 0-2.753-.343-3.367-1.028-.615-.686-.922-1.785-.922-3.297V14.572h-1.737V9.856h1.737V4.361h6.026v5.495h1.773v4.716h-1.773v14.572c0 .449.036.78.107.992.07.213.26.32.567.32.236 0 .46-.012.673-.036.213-.024.355-.035.426-.035v4.254c-.355.095-.869.195-1.542.301-.674.107-1.33.16-1.968.16zm12.726 0c-2.67 0-4.584-.733-5.742-2.198-1.158-1.466-1.737-3.652-1.737-6.56V15.92c0-2.387.685-4.207 2.056-5.46 1.37-1.253 3.284-1.879 5.742-1.879 4.987 0 7.48 2.446 7.48 7.34v1.878c0 1.891-.024 3.427-.071 4.61h-9.004v5.034c0 .898.095 1.601.284 2.11.189.508.59.762 1.205.762.472 0 .81-.142 1.01-.426.201-.283.32-.608.355-.975.035-.366.053-.904.053-1.613v-2.517h6.168v1.489c0 3.025-.585 5.253-1.755 6.683-1.17 1.43-3.184 2.145-6.044 2.145zm1.63-15.777V15.99c0-1.867-.46-2.8-1.382-2.8-1.04 0-1.56.933-1.56 2.8v3.333h2.943zm-5.458-11.665V3.794L134.455 0v6.027l-8.224 1.631z"/>
        <filter id="c" width="102.9%" height="111.4%" x="-.7%" y="-2.8%" filterUnits="objectBoundingBox">
            <feOffset dx="2" dy="2" in="SourceAlpha" result="shadowOffsetOuter1"/>
            <feColorMatrix in="shadowOffsetOuter1" values="0 0 0 0 0 0 0 0 0 0 0 0 0 0 0 0 0 0 1 0"/>
        </filter>
    </defs>
    <g fill="none" fill-rule="nonzero">
        <g transform="translate(49 8)">
            <use fill="#000" filter="url(#a)" xlink:href="#b"/>
            <use fill="#FFF" xlink:href="#b"/>
        </g>
        <g transform="translate(50 82)">
            <use fill="#000" filter="url(#c)" xlink:href="#d"/>
            <use fill="#FFF" xlink:href="#d"/>
        </g>
        <path fill="#000" d="M199.343 101.748c2.127 0 3.751-.16 4.874-.478 1.123-.32 1.956-1 2.5-2.04.543-1.04.814-2.646.814-4.82 0-.875-.106-1.56-.319-2.057-.212-.497-.638-.745-1.276-.745-.661 0-1.099.284-1.311.851-.213.567-.32 1.347-.32 2.34v2.553h-6.345v-4.397c0-2.269.721-3.982 2.163-5.14 1.441-1.159 3.38-1.738 5.813-1.738 2.954 0 5.052.786 6.292 2.358 1.241 1.572 1.861 3.953 1.861 7.144 0 3.12-.762 5.637-2.286 7.552-1.524 1.914-3.752 2.872-6.682 2.872v2.942h-5.778v-7.197zm-.177 15.068v-5.176h6.168v5.176h-6.168z"/>
        <g fill="#FFF">
            <path d="M50.68 80.878h-1.663v-9.676h2.387c2.052 0 3.004.79 3.004 2.855 0 2.064-.952 2.854-3.004 2.854h-.724v3.967zm0-8.309v2.975h.644c1.086 0 1.421-.335 1.421-1.487 0-1.153-.335-1.488-1.421-1.488h-.644zM60.362 80.878h-4.64v-9.676h4.452v1.448h-2.79v2.492h2.146v1.448h-2.145v2.84h2.977zM61.676 78.44v-7.238h1.663v7.304c0 .71.281 1.059.885 1.059.603 0 .885-.349.885-1.059v-7.304h1.663v7.237c0 1.662-.966 2.573-2.548 2.573-1.583 0-2.548-.911-2.548-2.573zM70.567 77.916l1.207-6.714h1.636l-2.025 9.676h-1.663l-2.025-9.676h1.636l1.207 6.714zM78.975 80.878h-4.64v-9.676h4.452v1.448h-2.79v2.492h2.146v1.448h-2.145v2.84h2.977zM81.79 80.878H80.29v-9.676h1.542l2.025 5.535h.027v-5.535h1.502v9.676h-1.449l-2.118-6.044h-.027zM87.96 80.878V72.65h-1.61v-1.448h4.881v1.448h-1.609v8.228zM95.281 77.89h-3.285v-1.233h3.285zM98.567 80.878h-1.663v-9.676h1.663zM104.601 80.878h-4.278v-9.676h1.663v8.229h2.615zM110.233 73.413l-1.582.175c-.067-.831-.51-1.072-.885-1.072-.537 0-.832.348-.832.951 0 1.648 3.38 2.44 3.38 5.066 0 1.595-1.073 2.48-2.629 2.48-1.542 0-2.427-1.234-2.494-2.681l1.582-.228c.067.978.456 1.46.993 1.46.576 0 .965-.307.965-.884 0-1.916-3.379-2.425-3.379-5.2 0-1.54.939-2.412 2.575-2.412 1.354 0 2.159.978 2.306 2.345zM115.812 78.734l-.295 2.144h-1.61l1.784-9.676h2.065l1.784 9.676h-1.61l-.295-2.144h-1.823zm.898-5.602l-.657 4.155h1.341l-.657-4.155h-.027zM124.984 71.202h2.186v9.676h-1.448V73.32h-.027l-1.502 7.558h-.805l-1.502-7.558h-.026v7.558h-1.449v-9.676h2.186l1.18 5.656h.027zM133.338 80.878h-4.64v-9.676h4.453v1.448h-2.79v2.492h2.146v1.448h-2.146v2.84h2.977zM132.95 68.763l-1.757 1.93h-1.113l1.06-1.93zM138.85 80.878h-4.278v-9.676h1.663v8.229h2.615zM141.76 80.878h-1.663v-9.676h1.663zM143.597 78.533v-4.986c0-1.366.805-2.479 2.548-2.479 1.743 0 2.548 1.113 2.548 2.48v4.985c0 1.367-.805 2.48-2.548 2.48-1.743 0-2.548-1.113-2.548-2.48zm1.663-4.945v4.905c0 .723.214 1.072.885 1.072.67 0 .885-.349.885-1.072v-4.905c0-.724-.215-1.072-.885-1.072s-.885.348-.885 1.072zM151.965 76.911v3.967h-1.663v-9.676h2.333c1.864 0 2.816.79 2.816 2.855 0 1.554-.603 2.184-1.166 2.439l1.408 4.382h-1.69l-1.18-4.007c-.215.027-.563.04-.858.04zm0-4.342v2.975h.59c.898 0 1.234-.335 1.234-1.487 0-1.153-.336-1.488-1.234-1.488h-.59zM161.647 80.878h-4.64v-9.676h4.452v1.448h-2.79v2.492h2.146v1.448h-2.145v2.84h2.977zM164.624 76.911v3.967h-1.663v-9.676h2.333c1.864 0 2.816.79 2.816 2.855 0 1.554-.603 2.184-1.166 2.439l1.408 4.382h-1.69l-1.18-4.007c-.215.027-.563.04-.858.04zm0-4.342v2.975h.59c.898 0 1.233-.335 1.233-1.487 0-1.153-.335-1.488-1.233-1.488h-.59z"/>
        </g>
        <g fill="#FFF">
            <path d="M53.715 11.163h-1.563v-.706c0-.769-.353-1.096-.757-1.096-.63 0-.832.327-.832 1.008v4.611c0 .68.202 1.008.832 1.008.568 0 .757-.327.757-.92v-1.096h1.563v1.046c0 1.285-.756 2.331-2.32 2.331-1.639 0-2.395-1.046-2.395-2.33V10.33C49 9.046 49.756 8 51.395 8c1.564 0 2.32 1.134 2.32 2.495v.668zM55.304 15.018v-4.687c0-1.285.756-2.331 2.395-2.331 1.64 0 2.396 1.046 2.396 2.331v4.687c0 1.285-.757 2.331-2.396 2.331-1.639 0-2.395-1.046-2.395-2.33zm1.563-4.65v4.612c0 .68.202 1.008.832 1.008.63 0 .832-.327.832-1.008V10.37c0-.68-.201-1.008-.832-1.008-.63 0-.832.327-.832 1.008zM65.819 8.126h2.055v9.097h-1.362v-7.106h-.025l-1.412 7.106h-.757l-1.412-7.106h-.025v7.106h-1.362V8.126h2.055l1.11 5.317h.025zM73.522 8.126h2.055v9.097h-1.362v-7.106h-.025l-1.412 7.106h-.757l-1.412-7.106h-.025v7.106h-1.361V8.126h2.055l1.11 5.317h.024zM81.376 17.223h-4.362V8.126H81.2v1.36h-2.623v2.344h2.018v1.361h-2.018v2.671h2.8zM84.024 17.223h-1.412V8.126h1.45l1.903 5.204h.026V8.126h1.412v9.097H86.04l-1.992-5.682h-.025zM89.823 17.223V9.487H88.31V8.126h4.59v1.36h-1.513v7.737z"/>
        </g>
        <g fill="#FFF">
            <path d="M120.022 17.223H116V8.126h1.563v7.736h2.459zM125.342 17.223h-4.362V8.126h4.186v1.36h-2.623v2.344h2.018v1.361h-2.018v2.671h2.8zM130.915 10.205l-1.488.164c-.063-.781-.479-1.008-.832-1.008-.504 0-.782.327-.782.894 0 1.55 3.177 2.294 3.177 4.763 0 1.5-1.008 2.331-2.47 2.331-1.45 0-2.283-1.159-2.346-2.52l1.488-.214c.063.92.429 1.373.933 1.373.542 0 .908-.29.908-.831 0-1.802-3.177-2.28-3.177-4.889 0-1.449.882-2.268 2.42-2.268 1.274 0 2.03.92 2.169 2.205z"/>
        </g>
    </g>
</svg>
