<svg xmlns="http://www.w3.org/2000/svg" width="87" height="46" viewBox="0 0 87 46">
    <g fill="none" fill-rule="nonzero">
        <path fill="#ED1844" d="M42.966 21.14h4.995V.31h-4.995zM62.63.31l-.03 4.585h13.94V.31zM76.404 21.136l.135-4.585H62.525l-.03 4.585zM76.24 12.846V8.375H62.578l-.029 4.47zM22.077 21.14h5.31l1.016-3.1h6.354l.958 3.1h5.31l-1.128-3.125H23.205zM28.702.31l4.72 13.458h4.942L33.51.31zM.126 21.14h5.078V9.587L.126.31zM5.876 40.03c-.464-.615-.754-1.288-.754-5.091 0-3.804.29-4.506.754-5.12.377-.498 1.103-.907 2.031-.907v-4.564c-2.524 0-4.265.819-5.774 2.34-2.176 2.195-2.09 5.12-2.09 8.25 0 3.131-.086 6.057 2.09 8.251 1.509 1.522 3.25 2.341 5.774 2.341v-4.564c-.928 0-1.654-.44-2.03-.936zM26.22 24.526l.002-.003H24.51v.003zM32.63 26.362a6.345 6.345 0 0 0-1.306-.95l-.025.05c.448.226.904.525 1.33.9m-5.015 11.242h-1.392l3.655 7.75h5.89l-4.443-8.64c-1.016.56-2.256.89-3.71.89M24.509 37.601v.003h1.713l-.001-.003z"/>
        <path fill="#ED1844" d="M31.324 36.715a6.345 6.345 0 0 0 1.306-.95 6.392 6.392 0 0 1-1.331.9l.025.05zM19.431 24.523v20.831h5.078V24.523zM48.564 37.923c0 .79-.203 1.639-.783 2.224-.464.497-1.19.819-2.263.819-.93 0-1.626-.38-2.003-.878-.464-.614-.754-1.346-.754-5.15 0-3.803.29-4.505.754-5.12.377-.497 1.074-.906 2.003-.906 1.74 0 2.553.76 2.96 2.34h5.106c-.493-3.423-2.756-6.904-8.066-6.904-2.496 0-4.237.819-5.746 2.34-2.176 2.195-2.09 5.12-2.09 8.25 0 3.131-.086 6.057 2.09 8.251 1.509 1.522 3.337 2.341 5.746 2.341 2.263 0 4.236-.497 6.006-2.34 1.344-1.381 1.918-3.023 2.055-5.586h-5.015v.32zM10.332 18.954l.353-.72-.373.682z"/>
        <path fill="#ED1844" d="M15.506.31l-.087.161-5.107 9.474-2.437 4.52 2.437 4.45.373-.68 4.734-8.65L20.496.31z"/>
        <path fill="#253186" d="M62.548 21.14h4.995V8.416h-4.995zM60.406.31h-5.771l-3.308 5.788-2.643 4.627 2.643 4.628 3.308 5.788h5.77L54.12 10.725zM33.422 13.768H24.737l-1.532 4.247h16.692l-1.532-4.247zM20.497.31v20.83h-5.079V9.587zM5.204.471L5.117.31H.127l5.077 9.276 2.671 4.879 2.437-4.52zM13.682 26.688c-1.51-1.521-3.25-2.34-5.774-2.34v4.564c.928 0 1.653.41 2.03.907.465.614.755 1.316.755 5.12 0 3.803-.29 4.476-.754 5.09-.378.498-1.103.937-2.031.937v4.564c2.524 0 4.265-.819 5.774-2.34 2.176-2.195 2.09-5.12 2.09-8.251 0-3.13.086-6.057-2.09-8.25zm18.948-.326a6.392 6.392 0 0 0-1.331-.9l.025-.05c-1.016-.559-2.257-.89-3.71-.89h-1.392l-.001.004h-1.712v4.591h2.872c1.325 0 2.123.925 2.198 1.947.004.053.008.106.008.16 0 1.082-.813 2.106-2.206 2.106H24.51V37.6h1.712l.001.003h1.392c1.453 0 2.694-.33 3.71-.89l-.025-.049a6.392 6.392 0 0 0 1.33-.9c1.3-1.229 1.993-2.94 2.032-4.701.002-.054.004-.107.004-.16 0-2.056-.914-3.559-2.035-4.542zm12.887 6.997v4.245h8.062c.022-.424.034-.87.034-1.349V33.36h-8.096zm38.216-18.134a3.205 3.205 0 0 0-3.205 3.232c0 1.767 1.425 3.231 3.205 3.231 1.781 0 3.206-1.464 3.206-3.231a3.205 3.205 0 0 0-3.206-3.232z"/>
    </g>
</svg>
