<?xml version="1.0" encoding="UTF-8"?>
<svg width="268px" height="65px" viewBox="0 0 268 65" version="1.1" xmlns="http://www.w3.org/2000/svg" xmlns:xlink="http://www.w3.org/1999/xlink">
    <!-- Generator: Sketch 58 (84663) - https://sketch.com -->
    <title>Group 2</title>
    <desc>Created with Sketch.</desc>
    <g id="crm" stroke="none" stroke-width="1" fill="none" fill-rule="evenodd">
        <g id="e-mailing-ministere-lancement-classique-copy-2" transform="translate(-282.000000, -264.000000)" fill-rule="nonzero">
            <g id="Hero" transform="translate(0.000000, 160.000000)">
                <g id="Titre-hero" transform="translate(282.000000, 104.000000)">
                    <g id="Group-2" transform="translate(0.360000, 0.722400)">
                        <path d="M7.59,-3.55271368e-15 C3.6786,-3.55271368e-15 1.548,2.4486 1.548,5.7876 L1.548,17.808 C1.548,21.0834 3.615,23.5956 7.59,23.5956 C11.3742,23.5956 13.4412,21.0516 13.4412,17.808 L13.4412,15.0732 L9.498,15.0732 L9.498,17.9352 C9.498,19.1436 9.1482,20.1612 7.59,20.1612 C6.0954,20.1612 5.4912,19.398 5.4912,17.7126 L5.4912,5.8512 C5.4912,4.1658 6.0954,3.4344 7.59,3.4344 C8.7984,3.4344 9.498,4.5156 9.498,6.2328 L9.498,7.9818 L13.4412,7.9818 L13.4412,6.2328 C13.4412,2.5758 11.247,-3.55271368e-15 7.59,-3.55271368e-15 Z M23.49,-3.55271368e-15 C19.5468,-3.55271368e-15 17.448,2.4804 17.448,5.8194 L17.448,17.808 C17.448,21.0834 19.515,23.5956 23.49,23.5956 C27.4968,23.5956 29.532,21.0516 29.532,17.808 L29.532,5.7876 C29.532,2.4486 27.4014,-3.55271368e-15 23.49,-3.55271368e-15 Z M21.3912,5.8512 C21.3912,4.0704 22.0908,3.4344 23.49,3.4344 C25.2072,3.4344 25.5642199,4.46931964 25.587531,5.74079235 L25.5888,17.7126 C25.5888,19.2072 25.1436,20.1612 23.49,20.1612 C21.9954,20.1612 21.3912,19.398 21.3912,17.7126 L21.3912,5.8512 Z M33.1254,0.318 L33.1254,23.2776 L36.5598,23.2776 L36.5598,5.3424 L36.6234,5.3424 L40.185,23.2776 L42.093,23.2776 L45.6546,5.3424 L45.7182,5.3424 L45.7182,23.2776 L49.1526,23.2776 L49.1526,0.318 L43.9692,0.318 L41.1708,13.7376 L41.1072,13.7376 L38.3088,0.318 L33.1254,0.318 Z M52.5552,0.318 L52.5552,23.2776 L55.9896,23.2776 L55.9896,5.3424 L56.0532,5.3424 L59.6148,23.2776 L61.5228,23.2776 L65.0844,5.3424 L65.148,5.3424 L65.148,23.2776 L68.5824,23.2776 L68.5824,0.318 L63.399,0.318 L60.6006,13.7376 L60.537,13.7376 L57.7386,0.318 L52.5552,0.318 Z M72.2076,0.318 L72.2076,23.2776 L83.2104,23.2776 L83.2104,19.8432 L76.1508,19.8432 L76.1508,13.1016 L81.2388,13.1016 L81.2388,9.6672 L76.1508,9.6672 L76.1508,3.7524 L82.7652,3.7524 L82.7652,0.318 L72.2076,0.318 Z M86.3268,0.318 L86.3268,23.2776 L89.8884,23.2776 L89.8884,8.9358 L89.952,8.9358 L94.9764,23.2776 L98.4108,23.2776 L98.4108,0.318 L94.8492,0.318 L94.8492,13.4514 L94.7856,13.4514 L89.9838,0.318 L86.3268,0.318 Z M100.7004,0.318 L100.7004,3.7524 L104.5164,3.7524 L104.5164,23.2776 L108.4596,23.2776 L108.4596,3.7524 L112.2756,3.7524 L112.2756,0.318 L100.7004,0.318 Z M122.1972,0.318 L122.1972,23.2776 L126.1404,23.2776 L126.1404,0.318 L122.1972,0.318 Z M130.2744,0.318 L130.2744,23.2776 L133.7088,23.2776 L133.7088,5.3424 L133.7724,5.3424 L137.334,23.2776 L139.242,23.2776 L142.8036,5.3424 L142.8672,5.3424 L142.8672,23.2776 L146.3016,23.2776 L146.3016,0.318 L141.1182,0.318 L138.3198,13.7376 L138.2562,13.7376 L135.4578,0.318 L130.2744,0.318 Z M152.6298,0.318 L148.4004,23.2776 L152.2164,23.2776 L152.916,18.1896 L157.2408,18.1896 L157.9404,23.2776 L161.7564,23.2776 L157.527,0.318 L152.6298,0.318 Z M155.1102,4.8972 L156.6684,14.7552 L153.4884,14.7552 L155.0466,4.8972 L155.1102,4.8972 Z M169.8336,-3.55271368e-15 C166.0812,-3.55271368e-15 164.046,2.544 164.046,5.7876 L164.046,17.8398 C164.046,21.1152 165.9858,23.5956 169.3566,23.5956 C170.9784,23.5956 171.9642,23.1504 173.2998,21.5604 L174.0312,23.2776 L175.9392,23.2776 L175.9392,11.6388 L169.4838,11.6388 L169.4838,14.7552 L171.996,14.7552 L171.996,17.1084 C171.996,19.1118 171.4872,20.1612 169.8336,20.1612 C168.4026,20.1612 167.9892,19.1118 167.9892,17.8398 L167.9892,5.8512 C167.9892,4.452 168.498,3.4344 169.7382,3.4344 C171.4077,3.4344 171.931282,4.60826719 171.990208,7.11321592 L171.996,7.7592 L175.7484,7.7592 L175.7484,6.201 C175.7484,2.7666 173.6496,-3.55271368e-15 169.8336,-3.55271368e-15 Z M180.4866,0.318 L180.4866,23.2776 L184.4298,23.2776 L184.4298,0.318 L180.4866,0.318 Z M188.7864,0.318 L188.7864,23.2776 L192.348,23.2776 L192.348,8.9358 L192.4116,8.9358 L197.436,23.2776 L200.8704,23.2776 L200.8704,0.318 L197.3088,0.318 L197.3088,13.4514 L197.2452,13.4514 L192.4434,0.318 L188.7864,0.318 Z M204.6864,0.318 L204.6864,23.2776 L215.6892,23.2776 L215.6892,19.8432 L208.6296,19.8432 L208.6296,13.1016 L213.7176,13.1016 L213.7176,9.6672 L208.6296,9.6672 L208.6296,3.7524 L215.244,3.7524 L215.244,0.318 L204.6864,0.318 Z M218.8056,0.318 L218.8056,23.2776 L222.7488,23.2776 L222.7488,13.8648 C223.6392,13.8648 224.2752,13.833 224.784,13.7694 L227.5824,23.2776 L231.5892,23.2776 L228.2502,12.879 C230.1264,11.9886 231.0168,10.0806 231.0168,7.0914 C231.0168,2.2578 228.7908,0.318 224.4978,0.318 L218.8056,0.318 Z M222.7488,3.5616 L224.0844,3.5616 C226.4058,3.5616 227.0736,4.4202 227.0736,7.0914 C227.0736,9.7626 226.3422,10.6212 224.2434,10.6212 L222.7488,10.6212 L222.7488,3.5616 Z M241.5744,0.318 L241.5744,23.2776 L251.7186,23.2776 L251.7186,19.8432 L245.5176,19.8432 L245.5176,0.318 L241.5744,0.318 Z M256.8384,0.318 L252.609,23.2776 L256.425,23.2776 L257.1246,18.1896 L261.4494,18.1896 L262.149,23.2776 L265.965,23.2776 L261.7356,0.318 L256.8384,0.318 Z M259.3188,4.8972 L260.877,14.7552 L257.697,14.7552 L259.2552,4.8972 L259.3188,4.8972 Z" id="COMMENTIMAGINERLA" fill="#FFFFFF"></path>
                        <path d="M-5.68434189e-14,35.3975987 L6.04,64.2775987 L11,64.2775987 L17.04,35.3975987 L12.16,35.3975987 L8.56,55.3975987 L8.48,55.3975987 L4.88,35.3975987 L-5.68434189e-14,35.3975987 Z M20.48,35.3975987 L20.48,64.2775987 L25.44,64.2775987 L25.44,35.3975987 L20.48,35.3975987 Z M30.68,35.3975987 L30.68,64.2775987 L43.44,64.2775987 L43.44,59.9575987 L35.64,59.9575987 L35.64,35.3975987 L30.68,35.3975987 Z M46.24,35.3975987 L46.24,64.2775987 L59,64.2775987 L59,59.9575987 L51.2,59.9575987 L51.2,35.3975987 L46.24,35.3975987 Z M62.04,35.3975987 L62.04,64.2775987 L75.88,64.2775987 L75.88,59.9575987 L67,59.9575987 L67,51.4775987 L73.4,51.4775987 L73.4,47.1575987 L67,47.1575987 L67,39.7175987 L75.32,39.7175987 L75.32,35.3975987 L62.04,35.3975987 Z M88.68,35.3975987 L88.68,64.2775987 L96.2,64.2775987 C101.12,64.2775987 103.88,61.3975987 103.88,55.7575987 L103.88,43.9175987 C103.88,38.3175987 101.12,35.3975987 96.2,35.3975987 L88.68,35.3975987 Z M93.64,39.4775987 L95.32,39.4775987 C98,39.4775987 98.92,40.5175987 98.92,43.3575987 L98.92,56.3175987 C98.92,58.9975987 98.16,60.1975987 95.32,60.1975987 L93.64,60.1975987 L93.64,39.4775987 Z M108.68,35.3975987 L108.68,64.2775987 L122.52,64.2775987 L122.52,59.9575987 L113.64,59.9575987 L113.64,51.4775987 L120.04,51.4775987 L120.04,47.1575987 L113.64,47.1575987 L113.64,39.7175987 L121.96,39.7175987 L121.96,35.3975987 L108.68,35.3975987 Z M135.32,35.3975987 L135.32,64.2775987 L142.84,64.2775987 C147.76,64.2775987 150.52,61.3975987 150.52,55.7575987 L150.52,43.9175987 C150.52,38.3175987 147.76,35.3975987 142.84,35.3975987 L135.32,35.3975987 Z M140.28,39.4775987 L141.96,39.4775987 C144.64,39.4775987 145.56,40.5175987 145.56,43.3575987 L145.56,56.3175987 C145.56,58.9975987 144.8,60.1975987 141.96,60.1975987 L140.28,60.1975987 L140.28,39.4775987 Z M155.32,35.3975987 L155.32,64.2775987 L169.16,64.2775987 L169.16,59.9575987 L160.28,59.9575987 L160.28,51.4775987 L166.68,51.4775987 L166.68,47.1575987 L160.28,47.1575987 L160.28,39.7175987 L168.6,39.7175987 L168.6,35.3975987 L155.32,35.3975987 Z M172.8,35.3975987 L172.8,64.2775987 L177.12,64.2775987 L177.12,41.7175987 L177.2,41.7175987 L181.68,64.2775987 L184.08,64.2775987 L188.56,41.7175987 L188.64,41.7175987 L188.64,64.2775987 L192.96,64.2775987 L192.96,35.3975987 L186.44,35.3975987 L182.92,52.2775987 L182.84,52.2775987 L179.32,35.3975987 L172.8,35.3975987 Z M200.92,35.3975987 L195.6,64.2775987 L200.4,64.2775987 L201.28,57.8775987 L206.72,57.8775987 L207.6,64.2775987 L212.4,64.2775987 L207.08,35.3975987 L200.92,35.3975987 Z M204.04,41.1575987 L206,53.5575987 L202,53.5575987 L203.96,41.1575987 L204.04,41.1575987 Z M215.96,35.3975987 L215.96,64.2775987 L220.92,64.2775987 L220.92,35.3975987 L215.96,35.3975987 Z M226.4,35.3975987 L226.4,64.2775987 L230.88,64.2775987 L230.88,46.2375987 L230.96,46.2375987 L237.28,64.2775987 L241.6,64.2775987 L241.6,35.3975987 L237.12,35.3975987 L237.12,51.9175987 L237.04,51.9175987 L231,35.3975987 L226.4,35.3975987 Z M261.36,34.9975987 C257.64,34.9975987 255.4,36.7575987 254.16,40.2775987 L258,41.7175987 C258.52,39.6775987 259.56,38.6775987 260.84,38.6775987 C261.8,38.6775987 262.52,39.4775987 262.52,40.4775987 C262.52,41.343481 262.09481,42.4928236 261.211081,44.0923677 L261.04,44.3975987 C259.08,47.8775987 258.36,50.0375987 258.36,52.2775987 L258.36,55.7975987 L262.2,55.7975987 L262.2,53.1975987 C262.2,50.2375987 263.4,48.3975987 264.4,46.9575987 C265.84,44.9175987 267.16,43.5575987 267.16,40.3575987 C267.16,37.3975987 264.52,34.9975987 261.36,34.9975987 Z M257.84,59.5575987 L262.56,59.5575987 L262.56,64.2775987 L257.84,64.2775987 L257.84,59.5575987 Z" id="VILLEDEDEMAIN?" fill="#C42A3C"></path>
                    </g>
                </g>
            </g>
        </g>
    </g>
</svg>