<?xml version="1.0" encoding="UTF-8"?>
<svg width="478px" height="61px" viewBox="0 0 478 61" version="1.1" xmlns="http://www.w3.org/2000/svg" xmlns:xlink="http://www.w3.org/1999/xlink">
    <!-- Generator: Sketch 52.6 (67491) - http://www.bohemiancoding.com/sketch -->
    <title>logo outline</title>
    <desc>Created with Sketch.</desc>
    <g id="Home" stroke="none" stroke-width="1" fill="none" fill-rule="evenodd">
        <g id="logo-outline">
            <path d="M12.956,35.992 L12.956,30.504 L24.324,30.504 L24.324,51 L20.964,51 L19.676,47.976 C17.604,50.44 15.924,51.56 12.676,51.56 C7.188,51.56 3.38,47.64 3.38,41.2 L3.38,20.368 C3.38,14.656 6.74,10.008 13.572,10.008 C20.516,10.008 23.988,15.048 23.988,21.096 L23.988,23.672 L17.38,23.672 C17.38,17.624 16.148,16.056 13.404,16.056 C11.724,16.056 10.324,17.064 10.324,20.48 L10.324,41.256 C10.324,43.832 11.164,45.512 13.572,45.512 C16.372,45.512 17.38,43.944 17.38,39.912 L17.38,35.992 L12.956,35.992 Z M38.324,16.28 L38.324,28.712 L40.788,28.712 C44.54,28.712 45.94,27.312 45.94,22.496 C45.94,17.68 44.54,16.28 40.788,16.28 L38.324,16.28 Z M38.324,34.424 L38.324,51 L31.38,51 L31.38,10.568 L41.124,10.568 C48.908,10.568 52.884,13.872 52.884,22.496 C52.884,28.992 50.364,31.624 48.012,32.688 L53.892,51 L46.836,51 L41.908,34.256 C41.012,34.368 39.556,34.424 38.324,34.424 Z M68.396,18.632 L65.652,35.992 L71.252,35.992 L68.508,18.632 L68.396,18.632 Z M64.644,42.04 L63.412,51 L56.692,51 L64.14,10.568 L72.764,10.568 L80.212,51 L73.492,51 L72.26,42.04 L64.644,42.04 Z M90.516,51 L84.244,51 L84.244,10.568 L90.684,10.568 L99.14,33.696 L99.252,33.696 L99.252,10.568 L105.524,10.568 L105.524,51 L99.476,51 L90.628,25.744 L90.516,25.744 L90.516,51 Z M119.188,16.28 L119.188,45.288 L121.596,45.288 C125.292,45.288 126.58,43.888 126.58,39.632 L126.58,21.936 C126.58,17.68 125.292,16.28 121.596,16.28 L119.188,16.28 Z M112.244,51 L112.244,10.568 L122.548,10.568 C129.716,10.568 133.524,14.488 133.524,22.776 L133.524,38.792 C133.524,47.08 129.716,51 122.548,51 L112.244,51 Z M159.62,16.28 L159.62,45.288 L162.028,45.288 C165.724,45.288 167.012,43.888 167.012,39.632 L167.012,21.936 C167.012,17.68 165.724,16.28 162.028,16.28 L159.62,16.28 Z M152.676,51 L152.676,10.568 L162.98,10.568 C170.148,10.568 173.956,14.488 173.956,22.776 L173.956,38.792 C173.956,47.08 170.148,51 162.98,51 L152.676,51 Z M200.052,51 L180.676,51 L180.676,10.568 L199.268,10.568 L199.268,16.616 L187.62,16.616 L187.62,27.032 L196.58,27.032 L196.58,33.08 L187.62,33.08 L187.62,44.952 L200.052,44.952 L200.052,51 Z M198.428,0.376 L191.092,8.44 L186.444,8.44 L190.868,0.376 L198.428,0.376 Z M212.484,32.856 L212.484,45.288 L215.396,45.288 C219.092,45.288 220.436,43.16 220.436,39.072 C220.436,34.928 218.868,32.856 214.724,32.856 L212.484,32.856 Z M212.484,16.28 L212.484,27.144 L215.004,27.144 C217.636,27.144 219.652,25.352 219.652,21.992 C219.652,18.24 218.196,16.28 215.116,16.28 L212.484,16.28 Z M205.54,51 L205.54,10.568 L215.844,10.568 C223.292,10.568 226.596,14.376 226.596,21.264 C226.596,24.736 225.14,28.376 221.78,29.72 C225.308,31.288 227.38,34.088 227.38,39.296 C227.38,45.96 224.412,51 216.516,51 L205.54,51 Z M242.556,18.632 L239.812,35.992 L245.412,35.992 L242.668,18.632 L242.556,18.632 Z M238.804,42.04 L237.572,51 L230.852,51 L238.3,10.568 L246.924,10.568 L254.372,51 L247.652,51 L246.42,42.04 L238.804,42.04 Z M260.364,51 L260.364,16.616 L253.644,16.616 L253.644,10.568 L274.028,10.568 L274.028,16.616 L267.308,16.616 L267.308,51 L260.364,51 Z M296.82,51 L290.548,51 L290.548,10.568 L296.988,10.568 L305.444,33.696 L305.556,33.696 L305.556,10.568 L311.828,10.568 L311.828,51 L305.78,51 L296.932,25.744 L296.82,25.744 L296.82,51 Z M327.564,18.632 L324.82,35.992 L330.42,35.992 L327.676,18.632 L327.564,18.632 Z M323.812,42.04 L322.58,51 L315.86,51 L323.308,10.568 L331.932,10.568 L339.38,51 L332.66,51 L331.428,42.04 L323.812,42.04 Z M345.372,51 L345.372,16.616 L338.652,16.616 L338.652,10.568 L359.036,10.568 L359.036,16.616 L352.316,16.616 L352.316,51 L345.372,51 Z M371.02,51 L364.076,51 L364.076,10.568 L371.02,10.568 L371.02,51 Z M378.692,41.2 L378.692,20.368 C378.692,14.656 382.052,10.008 389.332,10.008 C396.612,10.008 399.972,14.656 399.972,20.368 L399.972,41.2 C399.972,46.912 396.612,51.56 389.332,51.56 C382.052,51.56 378.692,46.912 378.692,41.2 Z M385.636,20.536 L385.636,41.032 C385.636,44.056 386.532,45.512 389.332,45.512 C392.132,45.512 393.028,44.056 393.028,41.032 L393.028,20.536 C393.028,17.512 392.132,16.056 389.332,16.056 C386.532,16.056 385.636,17.512 385.636,20.536 Z M412.964,51 L406.692,51 L406.692,10.568 L413.132,10.568 L421.588,33.696 L421.7,33.696 L421.7,10.568 L427.972,10.568 L427.972,51 L421.924,51 L413.076,25.744 L412.964,25.744 L412.964,51 Z M443.708,18.632 L440.964,35.992 L446.564,35.992 L443.82,18.632 L443.708,18.632 Z M439.956,42.04 L438.724,51 L432.004,51 L439.452,10.568 L448.076,10.568 L455.524,51 L448.804,51 L447.572,42.04 L439.956,42.04 Z M477.084,51 L459.22,51 L459.22,10.568 L466.164,10.568 L466.164,44.952 L477.084,44.952 L477.084,51 Z" id="Grand-débat-national" fill="#FFFFFF"></path>
            <g id="Group-14" transform="translate(0.000000, 58.000000)" fill-rule="nonzero">
                <rect id="Rectangle" fill="#012396" x="-6.03961325e-13" y="0" width="159.333333" height="3"></rect>
                <rect id="Rectangle" fill="#FFFFFF" x="158.745387" y="0" width="159.333333" height="3"></rect>
                <rect id="Rectangle" fill="#EE2939" x="317.490775" y="0" width="159.333333" height="3"></rect>
            </g>
        </g>
    </g>
</svg>