<svg xmlns="http://www.w3.org/2000/svg" xmlns:xlink="http://www.w3.org/1999/xlink" width="50" height="50"><defs><circle id="a" cx="25" cy="25" r="25"/><circle id="c" cx="23.059" cy="23.059" r="23.059"/></defs><g fill="none" fill-rule="evenodd"><mask id="b" fill="#fff"><use xlink:href="#a"/></mask><use fill="#FFF" xlink:href="#a"/><g mask="url(#b)"><g transform="translate(.96 .96)"><mask id="d" fill="#fff"><use xlink:href="#c"/></mask><g fill="#221F20" fill-rule="nonzero" mask="url(#d)"><path d="M11.044 25.6h.604c.574 0 .827.43.827.815 0 .42-.312.816-.825.816h-.606v-1.632zm.223 1.42h.356c.506 0 .622-.404.622-.605 0-.328-.199-.606-.634-.606h-.344v1.21zm2.488-.337c0 .336-.225.569-.553.569a.526.526 0 01-.478-.273.583.583 0 010-.571c.1-.176.283-.28.478-.273.32 0 .553.229.553.548zm-.886 0c0 .227.134.378.33.378a.32.32 0 00.257-.103.355.355 0 00.092-.273.36.36 0 00-.1-.259.326.326 0 00-.249-.1.317.317 0 00-.239.103.35.35 0 00-.091.254zm1.309-.386h.005a.394.394 0 01.306-.162c.193 0 .348.139.348.433v.663h-.203v-.666c0-.158-.08-.26-.2-.26-.09 0-.16.043-.256.155v.77h-.202v-1.074h.202v.141zm1.14 0h.004c.073-.1.185-.16.305-.162.194 0 .349.139.349.433v.663h-.202v-.666c0-.158-.08-.26-.2-.26-.088 0-.16.043-.255.155v.77h-.203v-1.074h.203l-.001.141zm1.976.386c0 .336-.225.569-.553.569a.526.526 0 01-.478-.273.583.583 0 010-.571c.1-.176.283-.28.478-.273.313 0 .553.229.553.548zm-.886 0c0 .227.134.378.33.378a.32.32 0 00.257-.103.355.355 0 00.092-.273.36.36 0 00-.1-.259.326.326 0 00-.249-.1.317.317 0 00-.241.102.35.35 0 00-.093.255h.004zm1.306-.386h.004a.394.394 0 01.305-.162c.194 0 .349.139.349.433v.663h-.202v-.666c0-.158-.08-.26-.201-.26-.089 0-.16.043-.255.155v.77h-.203v-1.074h.203v.141zm1.535.137a.555.555 0 00-.296-.112c-.08 0-.135.04-.135.097s.068.106.248.216.23.192.23.3c0 .19-.142.317-.336.317a.689.689 0 01-.356-.098v-.23a.63.63 0 00.335.141c.08 0 .15-.045.15-.122 0-.148-.48-.226-.48-.516 0-.182.133-.292.337-.292a.617.617 0 01.301.088l.002.211zm1.845.691a.735.735 0 01-.442.127c-.346 0-.538-.275-.538-.572 0-.325.213-.545.52-.545.307 0 .48.193.48.588h-.779c.034.213.16.323.372.323a.728.728 0 00.387-.129v.208zm-.198-.54c-.008-.163-.104-.266-.26-.266-.155 0-.269.096-.298.266h.558zm.558-.288h.005a.394.394 0 01.306-.162c.193 0 .348.139.348.433v.663h-.203v-.666c0-.158-.08-.26-.2-.26-.09 0-.16.043-.256.155v.77h-.202v-1.074h.202v.141zm1.535.137a.555.555 0 00-.296-.112c-.08 0-.135.04-.135.097s.07.106.25.216c.167.117.229.192.229.3 0 .19-.143.317-.337.317a.684.684 0 01-.355-.098v-.23c.096.08.212.128.334.141.08 0 .15-.045.15-.122 0-.148-.48-.226-.48-.516 0-.182.133-.292.338-.292a.611.611 0 01.3.088l.002.211zm1.211.691a.733.733 0 01-.44.127c-.347 0-.538-.275-.538-.572 0-.325.212-.545.52-.545.306 0 .48.193.48.588h-.78c.035.213.16.323.373.323a.723.723 0 00.387-.129l-.002.208zm-.197-.54c-.007-.163-.103-.266-.26-.266-.157 0-.269.096-.298.266h.558zm.553-.429v.141a.428.428 0 01.298-.162.337.337 0 01.306.193.453.453 0 01.342-.193c.207 0 .339.168.339.42v.672h-.203v-.662a.233.233 0 00-.052-.176.21.21 0 00-.16-.076.36.36 0 00-.228.135v.78h-.202v-.668c0-.174-.085-.252-.185-.252a.3.3 0 00-.255.136v.78h-.202v-1.068h.202zm1.772.077a.517.517 0 01.305-.098c.275 0 .477.227.477.535 0 .364-.221.582-.59.582a1.06 1.06 0 01-.41-.084v-1.569h.218v.634zm0 .784c.072.02.147.032.222.034a.34.34 0 00.246-.103.322.322 0 00.09-.247c0-.226-.123-.375-.307-.375a.356.356 0 00-.251.11v.581zm1.137.213h-.203V25.6h.203zm1.22-.105a.73.73 0 01-.44.127c-.347 0-.539-.275-.539-.572 0-.325.213-.545.52-.545.307 0 .48.193.48.588h-.779c.035.213.16.323.372.323a.723.723 0 00.387-.129l-.001.208zm-.197-.54c-.008-.163-.104-.266-.26-.266-.155 0-.269.096-.298.266h.558zm1.642.645v-.136a.436.436 0 01-.303.158c-.207 0-.353-.156-.353-.428v-.668h.203v.682c0 .15.07.237.21.237a.299.299 0 00.24-.151v-.768h.207v1.075h-.204zm.684-.933h.005a.394.394 0 01.306-.162c.193 0 .348.139.348.433v.663h-.203v-.666c0-.158-.08-.26-.2-.26-.09 0-.16.043-.256.155v.77h-.202v-1.074h.202v.141zm1.872.828a.732.732 0 01-.44.127c-.347 0-.537-.275-.537-.572 0-.325.21-.545.519-.545.308 0 .48.193.48.588h-.778c.035.213.16.323.372.323a.721.721 0 00.387-.129l-.003.208zm-.197-.54c-.007-.163-.103-.266-.26-.266-.156 0-.268.096-.297.266h.557zm-21.275 2.363a.394.394 0 01.305-.162c.194 0 .349.139.349.433v.663h-.2v-.662c0-.158-.08-.26-.2-.26-.089 0-.16.042-.255.155v.77h-.203v-1.078h.204v.141zm1.972.386c0 .336-.226.569-.554.569a.526.526 0 01-.478-.273.583.583 0 010-.571c.1-.176.283-.28.478-.273.322 0 .554.23.554.548zm-.887 0c0 .227.135.378.33.378a.32.32 0 00.258-.103.355.355 0 00.091-.273.36.36 0 00-.1-.26.325.325 0 00-.248-.099.317.317 0 00-.24.103.35.35 0 00-.09.254zm1.761.548v-.137a.436.436 0 01-.302.158c-.208 0-.354-.156-.354-.428v-.668h.203v.682c0 .15.07.237.21.237a.3.3 0 00.24-.15v-.769h.203v1.075h-.2zm.354-1.075h.222l.275.66.269-.66h.217l-.451 1.092h-.068zm2.016.969a.732.732 0 01-.44.127c-.347 0-.538-.275-.538-.572 0-.325.212-.545.519-.545.307 0 .481.194.481.588h-.779c.035.213.16.323.372.323a.721.721 0 00.387-.129l-.002.208zm-.197-.54c-.007-.163-.103-.266-.26-.266-.156 0-.268.096-.297.266h.557zm.567.646h-.202V28.25h.203zm.5 0h-.203V28.25h.203zm1.22-.106a.734.734 0 01-.442.127c-.346 0-.537-.275-.537-.572 0-.325.212-.545.519-.545.307 0 .48.194.48.588h-.778c.035.213.16.323.372.323a.724.724 0 00.387-.129l-.002.208zm-.198-.54c-.008-.163-.104-.266-.26-.266-.167 0-.268.096-.298.266h.558zm.856-.429h.222l.275.66.269-.66h.217L19.71 29.9h-.07zm1.357-.197c-.13 0-.236-.058-.236-.128s.106-.127.236-.127.235.057.235.127-.105.127-.235.127zm.195 1.272h-.395v-1.075h.395v1.075zm1.01-.106a.735.735 0 01-.44.127c-.347 0-.538-.275-.538-.572 0-.325.212-.545.52-.545.306 0 .48.194.48.588h-.78c.035.213.16.323.373.323a.725.725 0 00.387-.129l-.001.208zm-.197-.54c-.007-.163-.103-.266-.26-.266-.167 0-.268.096-.298.266h.558zm1.905.584a.38.38 0 01-.222.084c-.101 0-.156-.034-.176-.11a.522.522 0 01-.313.11.292.292 0 01-.203-.076.249.249 0 01-.082-.187c0-.213.21-.278.396-.336l.204-.068v-.057c0-.134-.07-.189-.21-.189a.492.492 0 00-.363.177v-.232c.098-.1.24-.154.386-.145.235 0 .422.11.422.353v.553c0 .04.015.054.043.054a.282.282 0 00.122-.057l-.004.126zm-.402-1.151h-.143l-.29-.352h.259l.174.352zm.01.682c-.197.062-.364.124-.364.252a.14.14 0 00.047.108.166.166 0 00.118.042.307.307 0 00.202-.088l-.003-.314zm1.284-.403h.005a.394.394 0 01.305-.162c.194 0 .348.139.348.433v.663h-.202v-.662c0-.158-.08-.26-.2-.26-.09 0-.16.042-.256.155v.77h-.202v-1.078h.202v.141zm1.973.386c0 .336-.226.569-.554.569a.526.526 0 01-.478-.273.583.583 0 010-.571c.1-.176.283-.28.478-.273.322 0 .554.23.554.548zm-.887 0c0 .227.135.378.33.378a.32.32 0 00.258-.103.355.355 0 00.092-.273.36.36 0 00-.1-.26.325.325 0 00-.25-.099.317.317 0 00-.238.103.35.35 0 00-.092.254zm1.708-.249a.555.555 0 00-.296-.112c-.08 0-.134.04-.134.097s.068.106.248.216.23.19.23.3c0 .19-.144.317-.337.317a.687.687 0 01-.355-.098v-.23c.096.08.213.128.335.141.08 0 .15-.045.15-.122 0-.148-.48-.226-.48-.516 0-.182.132-.292.337-.292a.61.61 0 01.3.084l.002.215zm1.119 1.347h-.219v-1.625h.379c.403 0 .62.192.62.545a.518.518 0 01-.155.395.548.548 0 01-.404.156.569.569 0 01-.22-.048v.577zm0-.768a.51.51 0 00.207.048.353.353 0 00.255-.107.33.33 0 00.095-.254c0-.223-.12-.352-.357-.352h-.2v.665zm1.151-.857v.245h.004c.102-.188.2-.267.296-.267.094.005.182.05.244.124l-.107.184a.329.329 0 00-.189-.105c-.14 0-.248.145-.248.33v.562h-.203v-1.073h.203zm1.661.527c0 .336-.226.569-.554.569a.526.526 0 01-.478-.273.583.583 0 010-.571c.1-.176.283-.28.478-.273.321 0 .554.23.554.548zm-.887 0c0 .227.135.378.33.378a.32.32 0 00.258-.103.355.355 0 00.092-.273.36.36 0 00-.1-.26.325.325 0 00-.25-.099.317.317 0 00-.238.103.35.35 0 00-.092.254zm2.069.548h-.464c-.33 0-.536-.218-.536-.562a.507.507 0 01.155-.384.536.536 0 01.395-.15c.08 0 .158.015.232.043v-.579h.218v1.632zm-.218-.864a.522.522 0 00-.205-.041c-.21 0-.353.149-.353.374 0 .2.086.35.337.35h.22v-.683zm1.071.864v-.137a.437.437 0 01-.302.158c-.208 0-.353-.156-.353-.428v-.668h.202v.682c0 .15.071.237.21.237a.301.301 0 00.244-.15v-.769h.202v1.075h-.202zm.71-1.272c-.13 0-.236-.058-.236-.128s.105-.127.235-.127.236.057.236.127c-.001.07-.106.127-.236.127zm.194 1.272h-.395v-1.075h.395v1.075z"/><path d="M34.326 28.807h.32V29h-.32v.55a.153.153 0 00.038.116.138.138 0 00.108.047.434.434 0 00.23-.079v.198a.593.593 0 01-.246.072.294.294 0 01-.24-.087.326.326 0 01-.093-.25V29h-.177v-.024l.38-.39v.221zm1.116.278a.555.555 0 00-.296-.112c-.08 0-.134.04-.134.097s.068.106.248.216.23.19.23.3c0 .19-.144.317-.337.317a.687.687 0 01-.355-.098v-.23c.096.08.213.128.335.141.08 0 .15-.045.15-.122 0-.148-.48-.226-.48-.516 0-.182.132-.292.337-.292a.61.61 0 01.3.084l.002.215zm.524.674c0 .058-.032.11-.083.133a.132.132 0 01-.15-.03.149.149 0 01-.03-.157.137.137 0 01.127-.089.14.14 0 01.136.143zM34.27 17.784c-1.154 0-2.194.73-2.636 1.849-.442 1.12-.198 2.408.618 3.265.816.856 2.044 1.113 3.11.649 1.066-.464 1.76-1.557 1.76-2.768-.001-1.654-1.277-2.993-2.852-2.995zm0 5.549c-.984 0-1.871-.622-2.248-1.576a2.648 2.648 0 01.527-2.784 2.349 2.349 0 012.651-.554c.91.395 1.502 1.326 1.502 2.36 0 1.41-1.089 2.552-2.432 2.554z"/><path d="M34.27 19.118c-.873 0-1.581.745-1.58 1.663 0 .917.71 1.66 1.583 1.66.874 0 1.582-.745 1.581-1.662 0-.918-.71-1.661-1.584-1.661zm0 2.881c-.47 0-.894-.297-1.074-.753-.18-.456-.081-.98.251-1.33.333-.35.833-.454 1.267-.265.435.189.718.634.718 1.128-.002.672-.521 1.216-1.162 1.217v.003zm-16.19-4.186h1v5.93h-1zm-1.254 0h1v5.93h-1zm2.928.001h5.219v1h-5.219zm0 1.617h1.776v4.314h.42V18.99h-2.196zm3.026 4.314h.42V19.43h1.774v-.44H22.78zm3.45-.001h4.037v-.44H26.65v-5.05h3.618v-.44H26.23z"/><path d="M27.483 20.38h2.784v-.441h-2.364v-.511h2.364v-.44h-2.784zm0 2.19h2.784v-.44h-2.364v-.51h2.364v-.442h-2.784zm-13.751.763c-1.1-.001-2.063-.778-2.348-1.895-.284-1.116.181-2.294 1.135-2.872a2.347 2.347 0 012.935.406l.296-.312c-.815-.857-2.043-1.114-3.109-.65-1.066.463-1.762 1.555-1.762 2.767s.696 2.304 1.762 2.768c1.066.463 2.294.206 3.11-.651l-.297-.31a2.37 2.37 0 01-1.722.749z"/><path d="M14.158 20.337h1.084v-1.14l-.39.41a1.528 1.528 0 00-1.725-.362c-.591.257-.977.863-.977 1.536 0 .672.386 1.278.977 1.535a1.528 1.528 0 001.725-.361l-.297-.312a1.123 1.123 0 01-1.63.016 1.263 1.263 0 01-.04-1.711 1.123 1.123 0 011.629-.069l.044.044-.4.414z"/></g></g></g></g></svg>