<svg xmlns="http://www.w3.org/2000/svg" xmlns:xlink="http://www.w3.org/1999/xlink" width="50" height="50" viewBox="0 0 50 50">
    <defs>
        <circle id="a" cx="25" cy="25" r="25"/>
        <circle id="c" cx="33.039" cy="33.039" r="32.5"/>
    </defs>
    <g fill="none" fill-rule="evenodd">
        <mask id="b" fill="#fff">
            <use xlink:href="#a"/>
        </mask>
        <use fill="#FFF" xlink:href="#a"/>
        <g mask="url(#b)">
            <g transform="translate(-9.54 -9.54)">
                <mask id="d" fill="#fff">
                    <use xlink:href="#c"/>
                </mask>
                <g fill="#221F20" fill-rule="nonzero" mask="url(#d)">
                    <path d="M17.038 37.55h.86c.819 0 1.18.604 1.18 1.146 0 .59-.445 1.146-1.176 1.146h-.864V37.55zm.318 1.995h.507c.72 0 .886-.567.886-.85 0-.46-.283-.85-.903-.85h-.49v1.7zM20.901 39.072c0 .472-.321.8-.789.8a.752.752 0 0 1-.68-.384.808.808 0 0 1 0-.802.752.752 0 0 1 .68-.383c.457 0 .79.32.79.77zm-1.263 0c0 .319.192.531.47.531.138.01.271-.043.367-.145a.494.494 0 0 0 .13-.382.502.502 0 0 0-.142-.364.468.468 0 0 0-.354-.141.455.455 0 0 0-.34.145.489.489 0 0 0-.131.356zM21.504 38.53h.007a.564.564 0 0 1 .436-.227c.275 0 .495.195.495.608v.93h-.288v-.934c0-.222-.114-.366-.286-.366-.127 0-.228.06-.364.219v1.082h-.288v-1.51h.288v.199zM23.128 38.53h.006a.556.556 0 0 1 .435-.227c.276 0 .497.195.497.608v.93h-.287v-.934c0-.222-.114-.366-.285-.366-.127 0-.228.06-.364.219v1.082h-.29v-1.51h.29l-.002.199zM25.945 39.072c0 .472-.322.8-.79.8a.752.752 0 0 1-.68-.384.808.808 0 0 1 0-.802.752.752 0 0 1 .68-.383c.448 0 .79.32.79.77zm-1.264 0c0 .319.192.531.471.531.137.01.27-.043.366-.145a.494.494 0 0 0 .131-.382.502.502 0 0 0-.142-.364.468.468 0 0 0-.355-.141.455.455 0 0 0-.344.143.489.489 0 0 0-.132.358h.005zM26.542 38.53h.007a.564.564 0 0 1 .434-.227c.276 0 .497.195.497.608v.93h-.288v-.934c0-.222-.114-.366-.286-.366-.127 0-.228.06-.364.219v1.082h-.289v-1.51h.289v.199zM28.73 38.723a.798.798 0 0 0-.422-.158c-.114 0-.192.056-.192.137 0 .08.097.148.354.303.256.155.328.269.328.422 0 .266-.204.444-.48.444a.993.993 0 0 1-.507-.137v-.323c.138.111.303.18.477.198.114 0 .215-.064.215-.17 0-.21-.684-.32-.684-.727 0-.255.188-.41.48-.41.15.005.297.047.428.125l.003.296zM31.252 39.693a.925.925 0 0 1-.581.178c-.456 0-.708-.386-.708-.802 0-.457.28-.766.684-.766.405 0 .633.271.633.826h-1.026c.044.298.21.453.49.453a.919.919 0 0 0 .51-.18l-.002.29zm-.26-.759c-.01-.229-.136-.373-.342-.373-.205 0-.354.135-.393.373h.735zM31.873 38.53h.006a.564.564 0 0 1 .436-.227c.276 0 .496.195.496.608v.93h-.289v-.934c0-.222-.114-.366-.286-.366-.126 0-.228.06-.363.219v1.082h-.289v-1.51h.289v.199zM34.059 38.723a.798.798 0 0 0-.422-.158c-.114 0-.191.056-.191.137 0 .08.098.148.354.303.24.164.327.269.327.422 0 .266-.204.444-.48.444a.986.986 0 0 1-.506-.137v-.323c.138.111.303.18.477.198.114 0 .214-.064.214-.17 0-.21-.684-.32-.684-.727 0-.255.188-.41.481-.41a.88.88 0 0 1 .428.125l.002.296zM35.679 39.693a.921.921 0 0 1-.58.178c-.456 0-.708-.386-.708-.802 0-.457.28-.766.684-.766s.632.271.632.826h-1.026c.046.298.211.453.49.453a.912.912 0 0 0 .51-.18l-.002.29zm-.26-.759c-.01-.229-.136-.373-.342-.373-.206 0-.353.135-.392.373h.734zM36.292 38.332v.199a.613.613 0 0 1 .426-.228.481.481 0 0 1 .435.271.647.647 0 0 1 .487-.271c.295 0 .483.236.483.59v.944h-.288v-.93a.324.324 0 0 0-.075-.247.301.301 0 0 0-.227-.107.514.514 0 0 0-.325.189v1.096h-.289V38.9c0-.245-.12-.354-.263-.354a.429.429 0 0 0-.364.191v1.096h-.288v-1.5h.288zM38.795 38.44a.655.655 0 0 1 .403-.137c.363 0 .63.318.63.752 0 .51-.292.816-.78.816-.186 0-.37-.04-.542-.118V37.55h.289v.89zm0 1.102c.095.029.193.045.293.047a.437.437 0 0 0 .325-.145.469.469 0 0 0 .12-.346c0-.318-.164-.527-.407-.527a.458.458 0 0 0-.331.154v.817zM40.437 39.842h-.288V37.55h.288zM42.07 39.693a.919.919 0 0 1-.58.178c-.456 0-.708-.386-.708-.802 0-.457.279-.766.684-.766.404 0 .632.271.632.826h-1.026c.046.298.211.453.49.453a.912.912 0 0 0 .51-.18l-.002.29zm-.259-.759c-.01-.229-.137-.373-.342-.373-.205 0-.354.135-.393.373h.735zM44.235 39.842v-.193a.624.624 0 0 1-.431.222c-.295 0-.504-.218-.504-.6v-.939h.29v.959c0 .21.1.332.298.332a.427.427 0 0 0 .342-.212v-1.079h.297v1.51h-.292zM45.21 38.53h.007a.564.564 0 0 1 .436-.227c.276 0 .496.195.496.608v.93h-.289v-.934c0-.222-.114-.366-.286-.366-.126 0-.228.06-.363.219v1.082h-.289v-1.51h.289v.199zM47.773 39.693a.922.922 0 0 1-.581.178c-.456 0-.707-.386-.707-.802 0-.457.278-.766.684-.766s.634.271.634.826h-1.026c.045.298.21.453.49.453a.912.912 0 0 0 .51-.18l-.004.29zm-.26-.759c-.009-.229-.135-.373-.342-.373-.206 0-.353.135-.392.373h.734zM17.28 42.255a.564.564 0 0 1 .435-.228c.276 0 .497.195.497.608v.93h-.284v-.93c0-.221-.114-.365-.286-.365-.127 0-.228.06-.364.218v1.082h-.288v-1.514h.29v.199zM20.09 42.796c0 .472-.322.8-.79.8a.752.752 0 0 1-.68-.384.808.808 0 0 1 0-.802.752.752 0 0 1 .68-.383c.459 0 .79.322.79.77zm-1.264 0c0 .319.192.531.471.531a.459.459 0 0 0 .367-.145.494.494 0 0 0 .13-.383.501.501 0 0 0-.142-.364.467.467 0 0 0-.355-.14.455.455 0 0 0-.34.145.489.489 0 0 0-.13.356zM21.336 43.566v-.193a.624.624 0 0 1-.431.222c-.297 0-.504-.218-.504-.6v-.939h.29v.959c0 .21.1.332.298.332a.429.429 0 0 0 .342-.212v-1.079h.29v1.51h-.285zM21.84 42.056h.316l.392.928.384-.928h.308l-.643 1.534h-.096zM24.608 43.417a.922.922 0 0 1-.581.178c-.456 0-.708-.386-.708-.802 0-.457.28-.766.684-.766.405 0 .634.271.634.826H23.61c.046.299.21.453.49.453a.912.912 0 0 0 .51-.18l-.003.291zm-.26-.759c-.009-.229-.135-.373-.341-.373-.207 0-.354.135-.393.373h.735zM25.241 43.566h-.288v-2.292h.288zM25.953 43.566h-.29v-2.292h.29zM27.585 43.417a.925.925 0 0 1-.581.178c-.456 0-.708-.386-.708-.802 0-.457.279-.766.684-.766.404 0 .633.271.633.826h-1.026c.046.299.211.453.49.453a.915.915 0 0 0 .51-.18l-.002.291zm-.26-.759c-.01-.229-.137-.373-.342-.373-.221 0-.353.135-.393.373h.735zM28.63 42.056h.315l.392.928.383-.928h.31l-.644 1.534h-.098zM30.462 41.778c-.13 0-.236-.08-.236-.178 0-.099.106-.178.236-.178s.235.08.235.178c0 .098-.105.177-.235.178zm.195 1.788h-.395v-1.51h.395v1.51zM32.175 43.417a.925.925 0 0 1-.582.178c-.456 0-.708-.386-.708-.802 0-.457.28-.766.684-.766.405 0 .633.271.633.826h-1.026c.046.299.21.453.49.453a.915.915 0 0 0 .51-.18l-.001.291zm-.26-.759c-.01-.229-.137-.373-.342-.373-.221 0-.354.135-.394.373h.736zM34.544 43.478a.448.448 0 0 1-.28.118c-.126 0-.195-.047-.22-.154a.612.612 0 0 1-.393.154.345.345 0 0 1-.254-.106.37.37 0 0 1-.103-.263c0-.299.263-.39.497-.472l.256-.094v-.08c0-.19-.087-.266-.263-.266a.595.595 0 0 0-.456.248v-.326a.587.587 0 0 1 .484-.204c.295 0 .529.154.529.497v.776c0 .057.019.077.054.077a.338.338 0 0 0 .153-.08l-.004.175zm-.505-1.616h-.18l-.362-.495h.324l.218.495zm.012.958c-.246.087-.456.175-.456.354a.21.21 0 0 0 .06.152c.039.04.092.062.148.06a.367.367 0 0 0 .253-.125l-.005-.441zM35.985 42.255h.006a.564.564 0 0 1 .436-.228c.276 0 .496.195.496.608v.93h-.289v-.93c0-.221-.114-.365-.286-.365-.126 0-.228.06-.363.218v1.082h-.289v-1.514h.289v.199zM38.796 42.796c0 .472-.322.8-.79.8a.752.752 0 0 1-.68-.384.808.808 0 0 1 0-.802.752.752 0 0 1 .68-.383c.46 0 .79.322.79.77zm-1.263 0c0 .319.191.531.47.531a.459.459 0 0 0 .367-.145.494.494 0 0 0 .13-.383.501.501 0 0 0-.142-.364.467.467 0 0 0-.355-.14.455.455 0 0 0-.34.145.489.489 0 0 0-.13.356zM39.967 42.447a.798.798 0 0 0-.422-.158c-.114 0-.192.057-.192.137 0 .08.097.148.354.303.256.155.328.268.328.423 0 .265-.205.443-.481.443a.99.99 0 0 1-.506-.137v-.323c.138.111.303.18.477.198.114 0 .215-.063.215-.17 0-.21-.684-.32-.684-.727 0-.254.188-.409.48-.409.15.002.297.043.428.118l.003.302zM41.539 44.339h-.29v-2.283h.5c.533 0 .821.27.821.766a.753.753 0 0 1-.206.555.7.7 0 0 1-.534.218.714.714 0 0 1-.291-.067v.81zm0-1.079a.615.615 0 0 0 .272.067c.128 0 .25-.053.338-.15a.489.489 0 0 0 .126-.357c0-.313-.158-.494-.473-.494h-.263v.934zM43.2 42.056v.344h.006c.146-.264.287-.375.422-.375a.499.499 0 0 1 .348.174l-.153.259a.47.47 0 0 0-.269-.148c-.198 0-.353.204-.353.464v.79h-.29v-1.508h.29zM45.567 42.796c0 .472-.321.8-.789.8a.752.752 0 0 1-.68-.384.808.808 0 0 1 0-.802.752.752 0 0 1 .68-.383c.458 0 .79.322.79.77zm-1.263 0c0 .319.192.531.471.531a.459.459 0 0 0 .367-.145.494.494 0 0 0 .13-.383.501.501 0 0 0-.143-.364.467.467 0 0 0-.354-.14.455.455 0 0 0-.34.145.489.489 0 0 0-.13.356zM47.149 43.566h-.614c-.435 0-.708-.306-.708-.79a.736.736 0 0 1 .205-.54.685.685 0 0 1 .523-.209.83.83 0 0 1 .305.06v-.813h.289v2.292zm-.289-1.213a.655.655 0 0 0-.27-.058c-.278 0-.467.209-.467.525 0 .282.114.493.445.493h.292v-.96zM48.469 43.566v-.193a.625.625 0 0 1-.432.222c-.296 0-.503-.218-.503-.6v-.939h.288v.959c0 .21.102.332.299.332a.43.43 0 0 0 .348-.212v-1.079h.288v1.51h-.288zM49.378 41.778c-.13 0-.236-.08-.236-.178 0-.099.106-.178.236-.178s.236.08.236.178c-.001.098-.106.177-.236.178zm.195 1.788h-.395v-1.51h.395v1.51zM50.215 42.056h.456v.27h-.456v.772c-.005.06.014.12.054.163.04.044.096.068.154.066a.625.625 0 0 0 .328-.11v.278a.854.854 0 0 1-.351.1.422.422 0 0 1-.343-.122.455.455 0 0 1-.131-.35v-.796h-.254v-.033l.543-.549v.311zM51.805 42.447a.798.798 0 0 0-.421-.158c-.114 0-.192.057-.192.137 0 .08.097.148.354.303.256.155.328.268.328.423 0 .265-.205.443-.481.443a.99.99 0 0 1-.506-.137v-.323c.138.111.303.18.477.198.114 0 .215-.063.215-.17 0-.21-.684-.32-.684-.727 0-.254.188-.409.48-.409.15.002.297.043.428.118l.002.302zM52.552 43.393a.202.202 0 0 1-.12.188.19.19 0 0 1-.212-.043.207.207 0 0 1-.043-.22.195.195 0 0 1 .18-.125.2.2 0 0 1 .195.2zM50.135 26.571c-1.644 0-3.127 1.025-3.756 2.597-.63 1.573-.282 3.383.88 4.587 1.163 1.203 2.912 1.563 4.431.912 1.52-.652 2.51-2.187 2.51-3.889-.003-2.322-1.821-4.204-4.065-4.207zm0 7.795c-1.402 0-2.666-.873-3.203-2.214a3.68 3.68 0 0 1 .75-3.91 3.381 3.381 0 0 1 3.779-.78c1.295.556 2.14 1.865 2.14 3.316-.002 1.98-1.552 3.586-3.466 3.588z"/>
                    <path d="M50.135 28.445c-1.245.001-2.253 1.047-2.252 2.336 0 1.29 1.01 2.333 2.256 2.332 1.245 0 2.254-1.046 2.254-2.335-.002-1.289-1.012-2.333-2.258-2.333zm0 4.048c-.67 0-1.274-.417-1.53-1.058a1.759 1.759 0 0 1 .358-1.869 1.616 1.616 0 0 1 1.805-.372c.619.265 1.023.89 1.023 1.584-.004.944-.743 1.709-1.656 1.71v.005zM27.064 26.612h1v8.331h-1zM25.276 26.612h1v8.331h-1zM29.45 26.613h7.437v1H29.45zM29.45 28.885h2.53v6.06h.598v-6.678H29.45zM33.76 34.945h.599v-6.06h2.53v-.618H33.76zM38.677 34.943h5.754v-.618h-5.156v-7.093h5.156v-.618h-5.754z"/>
                    <path d="M40.464 30.218h3.967v-.62h-3.369v-.717h3.369v-.619h-3.967zM40.464 33.295h3.967v-.618h-3.369v-.718h3.369v-.62h-3.967zM20.868 34.366c-1.568-.001-2.94-1.093-3.345-2.661-.405-1.569.258-3.223 1.616-4.035a3.38 3.38 0 0 1 4.184.57l.421-.438c-1.162-1.204-2.91-1.565-4.43-.914-1.52.65-2.511 2.185-2.511 3.888 0 1.702.99 3.237 2.51 3.888 1.52.65 3.27.29 4.431-.915l-.421-.435a3.402 3.402 0 0 1-2.455 1.052z"/>
                    <path d="M21.475 30.157h1.544v-1.6l-.555.575a2.2 2.2 0 0 0-2.458-.508c-.843.361-1.393 1.213-1.393 2.157s.55 1.796 1.393 2.157a2.2 2.2 0 0 0 2.458-.508l-.423-.438a1.616 1.616 0 0 1-2.322.022 1.756 1.756 0 0 1-.058-2.403 1.616 1.616 0 0 1 2.32-.097l.064.062-.57.581z"/>
                </g>
            </g>
        </g>
    </g>
</svg>
