<svg xmlns="http://www.w3.org/2000/svg" xmlns:xlink="http://www.w3.org/1999/xlink" width="50" height="50" viewBox="0 0 50 50">
    <defs>
        <circle id="a" cx="25" cy="25" r="25"/>
        <circle id="c" cx="37" cy="37" r="36.5"/>
    </defs>
    <g fill="none" fill-rule="evenodd">
        <mask id="b" fill="#fff">
            <use xlink:href="#a"/>
        </mask>
        <use fill="#FFF" xlink:href="#a"/>
        <g mask="url(#b)">
            <g transform="translate(-12.5 -13.5)">
                <mask id="d" fill="#fff">
                    <use xlink:href="#c"/>
                </mask>
                <g mask="url(#d)">
                    <path fill="#FFF" d="M5.5 4.5h63v66h-63z"/>
                    <path fill="#FF5701" d="M28.044 31.854c.058-.508-.014-1.25.367-1.6.107-.542.92-.416.794-.761-.078-.216-.459-.113-.612-.073-.117.029-1.227.399-1.654.45l-.542-.16c-.696.099-1.098.683-1.486 1.147-.32.39-.765 1.342-.415 1.913l-.059.375.792 1.22c.274.205.31.358.603.562l.182.288c.241.167.95.169 1.067.06 1.141.113 1.017-2.324 1.38-2.833a1.018 1.018 0 0 0-.417-.588zm-4.92 7.314c.243-.067.656-.1.871-.214.345-.182 1.53-1.054 1.153-1.765-.116-1.497-1.83-.232-2.562-.758-.738-.1-1.568-1.575-1.79-2.203a1.056 1.056 0 0 0-.17-.36c0-.021-.075.068-.074.046-.213.266-.178.498-.213 1.144l-.29-.02c-.019.234-.041.363-.146.482l-.064.118c-.184-.064-.092.028-.167-.134-.68.035-.63.756-.942 1.166.016 1.343 2.541 3.003 4.394 2.497zm8.389-4.085c-1.103.176-1.776.546-2.192.85a1.58 1.58 0 0 0-.438.45.766.766 0 0 0-.074.5c.02.217.122.416.284.552 1.353-.106 3.702-.196 4.163 1.002.024.167.06.268.064.308.447-.113.12-.076.78.035.15.023.523-.065.77-.129a.311.311 0 0 0 .176-.135.915.915 0 0 1-.015-.175s.232.018.327-.06c.625-.112.296-.416.592-.765-.183-2.245-2.362-2.766-4.437-2.434v.001zm-2.416 4.872c-.313.252-.445.19-.63.58-.017 0 .03.06.01.06.187.394.616.553.931.83.1.087.365.574.491.608.142.18.235.676.327.676.097.138-.008.465.087.592.007.586-.07.627-.167.74 0 .04.053.147.053.186.027.029.249.196.346.176.302.01 1.541 1.03 1.64 1.226.89.07.824-.216 1.438-.49.166-.076.298 0 .407-.124.109-.124.123-.365.233-.49.014-2.303-2.961-4.49-5.166-4.57zm-3.496.526c-.124.138-.465.19-.56.347-.145.241-.479.788-.74 1.049-.843.843-2.645 1.266-3.534.461-.058 0-.025.04.044.27.065.436.4 1.463.276 1.72.08.291.164.185.32.346.107.113.146.394.264.47l.406-.029.075.241.522-.04c.097.023.393.184.48.209l.579-.043c.443.124.828-.07 1.202-.338.213-.146.435-.123.62-.29.316-.303.586-.655.804-1.042.418-.803.277-2.724-.107-3.198-.155-.17-.331-.174-.651-.133z"/>
                    <path fill="#00327D" fill-rule="nonzero" d="M46.945 35.086c1.834 0 3.075 1.233 3.075 3.44 0 2.774-1.704 3.594-3.49 3.594h-2.39c.009-.154 0-.569 0-1.079V36.16c0-.515.009-.842 0-1.079l2.805.006zm-.534 5.698c1.012 0 1.836-.356 1.836-2.258 0-1.619-.824-2.162-1.836-2.162h-.535v4.41l.535.01zM52.827 41.04c0 .515.024 1.08.024 1.08H51.07s.012-.57.012-1.08v-4.88c0-.515-.012-1.08-.012-1.08h4.2v1.366s-.939-.025-1.257-.025h-1.186v1.418l1.19.014c.222 0 .99-.014.99-.014v1.298s-.681-.02-.99-.02l-1.19.007v1.917zM40.76 40.807c-.825 0-1.46-.593-1.46-1.52v-.08s1.534-.04 2.053-.04c.885 0 1.25-.009 1.947-.019v-.523c0-2.385-.946-3.545-2.894-3.545-.898 0-2.986.361-2.986 3.7 0 2.228 1.052 3.56 2.89 3.56 1.444 0 2.33-.394 2.972-.895-.07-.114-.61-1.15-.68-1.262a2.92 2.92 0 0 1-1.841.624zm-1.46-2.943c.026-.405.162-1.345 1.118-1.345.98 0 1.033.884 1.033 1.35v.095s-.654.018-1.045.018c-.39 0-1.111-.018-1.111-.018l.005-.1z"/>
                    <path d="M5.5 15.5h63v44h-63z"/>
                </g>
            </g>
        </g>
    </g>
</svg>
