<svg xmlns="http://www.w3.org/2000/svg" xmlns:xlink="http://www.w3.org/1999/xlink" width="50" height="50" viewBox="0 0 50 50">
    <defs>
        <circle id="a" cx="25" cy="25" r="25"/>
        <circle id="c" cx="23.059" cy="23.059" r="23.059"/>
    </defs>
    <g fill="none" fill-rule="evenodd" transform="translate(-.04 -.04)">
        <mask id="b" fill="#fff">
            <use xlink:href="#a"/>
        </mask>
        <use fill="#FFF" xlink:href="#a"/>
        <g mask="url(#b)">
            <g transform="translate(2 2)">
                <mask id="d" fill="#fff">
                    <use xlink:href="#c"/>
                </mask>
                <g mask="url(#d)">
                    <path fill="#FFF" d="M3 2h40v42H3z"/>
                    <path fill="#FF5701" d="M17.314 19.407c.036-.323-.01-.796.233-1.018.068-.345.584-.265.504-.485-.05-.137-.291-.071-.39-.046-.073.019-.778.254-1.049.286l-.344-.101c-.442.063-.697.434-.943.73-.204.248-.486.853-.264 1.217l-.037.239.503.776c.173.13.196.228.382.358l.116.183c.153.106.603.107.677.039.725.071.646-1.48.876-1.804a.648.648 0 0 0-.264-.374zm-3.124 4.654c.154-.042.416-.063.553-.136.219-.116.971-.67.732-1.123-.074-.952-1.162-.148-1.626-.482-.47-.064-.996-1.002-1.137-1.402a.673.673 0 0 0-.108-.23c0-.013-.048.044-.047.03-.136.17-.113.317-.136.728l-.184-.012c-.012.148-.026.23-.092.306l-.04.075c-.117-.04-.06.018-.107-.085-.431.022-.4.481-.598.742.01.855 1.614 1.91 2.79 1.589zm5.326-2.599c-.7.112-1.128.347-1.392.54-.11.076-.204.173-.278.287a.488.488 0 0 0-.046.318.52.52 0 0 0 .18.352c.858-.068 2.35-.125 2.643.638.015.106.038.17.04.195.284-.072.076-.048.495.022.096.015.333-.04.49-.081a.198.198 0 0 0 .111-.086.584.584 0 0 1-.01-.112s.148.011.208-.038c.397-.072.189-.265.376-.487-.116-1.428-1.5-1.76-2.817-1.549v.001zm-1.533 3.1c-.2.16-.283.121-.4.37-.012 0 .018.038.005.038.12.25.392.351.592.528.063.055.231.365.311.387.09.114.15.43.208.43.062.088-.005.296.055.377.004.372-.044.399-.106.47 0 .026.034.094.034.12.017.017.158.124.22.11.191.007.978.656 1.041.781.565.045.523-.137.913-.312.105-.048.189 0 .258-.079.07-.078.078-.232.148-.311.01-1.466-1.88-2.858-3.28-2.91v.001zm-2.22.335c-.08.088-.295.12-.356.221-.092.153-.304.501-.47.667-.535.537-1.68.806-2.244.294-.037 0-.016.025.029.172.04.277.253.93.174 1.095.051.184.105.117.204.22.067.071.093.25.167.299l.258-.019.048.153.331-.026c.062.016.25.118.305.134l.367-.028c.282.08.526-.045.763-.214.136-.093.277-.08.395-.185.2-.193.372-.417.51-.663.265-.511.176-1.734-.068-2.036-.099-.108-.21-.11-.414-.084z"/>
                    <path fill="#00327D" fill-rule="nonzero" d="M29.314 21.464c1.165 0 1.953.784 1.953 2.189 0 1.765-1.082 2.287-2.216 2.287h-1.518c.006-.098 0-.362 0-.686v-3.108c0-.327.006-.535 0-.686l1.781.004zm-.34 3.626c.644 0 1.167-.227 1.167-1.437 0-1.03-.523-1.376-1.166-1.376h-.34v2.807l.34.006zM33.049 25.253c0 .328.015.687.015.687h-1.13s.007-.362.007-.687v-3.106c0-.328-.008-.687-.008-.687H34.6v.87s-.596-.016-.798-.016h-.753v.902l.756.008c.14 0 .628-.008.628-.008v.826s-.432-.013-.628-.013l-.756.005v1.22zM25.388 25.105c-.524 0-.928-.378-.928-.968v-.05s.974-.026 1.304-.026c.562 0 .793-.006 1.236-.012v-.333c0-1.518-.6-2.256-1.837-2.256-.57 0-1.896.23-1.896 2.355 0 1.417.668 2.265 1.835 2.265.916 0 1.479-.25 1.887-.57-.045-.072-.388-.73-.432-.803-.34.265-.75.404-1.17.398zm-.928-1.873c.017-.258.103-.856.71-.856.622 0 .656.562.656.859v.06s-.415.012-.663.012c-.248 0-.706-.012-.706-.012l.003-.063z"/>
                    <path d="M3 9h40v28H3z"/>
                </g>
            </g>
        </g>
    </g>
</svg>
