<svg xmlns="http://www.w3.org/2000/svg" xmlns:xlink="http://www.w3.org/1999/xlink" width="50" height="50" viewBox="0 0 50 50">
    <defs>
        <circle id="a" cx="25" cy="25" r="25"/>
        <circle id="c" cx="38.039" cy="38.039" r="37.5"/>
    </defs>
    <g fill="none" fill-rule="evenodd">
        <mask id="b" fill="#fff">
            <use xlink:href="#a"/>
        </mask>
        <use fill="#FFF" xlink:href="#a"/>
        <g mask="url(#b)">
            <g transform="translate(-14.54 -14.54)">
                <mask id="d" fill="#fff">
                    <use xlink:href="#c"/>
                </mask>
                <g fill-rule="nonzero" mask="url(#d)">
                    <path fill="#293647" d="M29.634 40.114h-6.11c.215 1.309 1.138 1.947 2.381 1.947.888 0 1.725-.398 2.152-1.137l1.28.672c-.673 1.342-2.047 2.03-3.513 2.03-2.217 0-3.957-1.67-3.957-4.22 0-2.548 1.773-4.166 3.957-4.166s3.843 1.619 3.843 4.15c0 .224-.017.466-.033.724zm-1.577-1.356c-.148-1.262-1.035-1.951-2.217-1.951-1.182 0-2.069.62-2.298 1.95h4.515zM39.633 39.404c0 2.543-1.71 4.146-3.78 4.146-1.074 0-2.134-.444-2.638-1.347v5.05h-1.598V35.41h1.598v1.196c.504-.905 1.613-1.366 2.639-1.366 2.053 0 3.78 1.62 3.78 4.164zm-1.609.016c0-1.501-1.043-2.61-2.362-2.61-1.274 0-2.431 1.007-2.431 2.61 0 1.604 1.254 2.543 2.427 2.543 1.32 0 2.366-1.04 2.366-2.543zM40.933 41.007h1.472c0 .638.533 1.192 1.39 1.192.873 0 1.408-.43 1.408-1.033 0-.534-.405-.81-.97-.947l-1.02-.259c-1.406-.397-2.052-1.172-2.052-2.36 0-1.31 1.12-2.36 2.685-2.36 1.293 0 2.684.724 2.684 2.412h-1.522c0-.587-.566-.985-1.132-.985-.662 0-1.12.432-1.12.983 0 .497.437.775.906.895l1.149.292c1.617.431 1.972 1.499 1.972 2.36 0 1.533-1.423 2.43-2.975 2.43-1.403-.002-2.843-.949-2.875-2.62zM55.233 43.287h-1.407v-1.03c-.607.763-1.422 1.144-2.443 1.143-.764 0-1.396-.227-1.898-.68-.501-.453-.752-1.058-.752-1.815 0-.757.267-1.324.8-1.7.534-.376 1.256-.564 2.168-.564h2v-.291c0-1.022-.542-1.534-1.628-1.534-.679 0-1.388.26-2.125.777l-.69-1.013a4.617 4.617 0 0 1 3.036-1.113c.864 0 1.57.229 2.119.686.548.458.822 1.179.82 2.163v4.971zm-1.545-2.864v-.65h-1.739c-1.111 0-1.667.366-1.667 1.098a.992.992 0 0 0 .414.861c.276.198.66.295 1.152.291.464.01.918-.143 1.29-.433.357-.27.562-.707.55-1.167z"/>
                    <path fill="#E1B129" d="M22.083 47.027l.062-.947h.158l-.058.947h-.162zm.076-1.36h.184l-.013.199h-.185l.014-.2zM23.95 46.222c.058.08.088.18.083.283v.066l-.049.682h-.202l.046-.673v-.053a.274.274 0 0 0-.044-.17.16.16 0 0 0-.134-.056.22.22 0 0 0-.184.084.45.45 0 0 0-.078.246l-.043.622h-.197l.049-.67v-.05a.287.287 0 0 0-.044-.176.161.161 0 0 0-.135-.056.224.224 0 0 0-.184.084.433.433 0 0 0-.078.246l-.043.622h-.196l.057-.794a4.94 4.94 0 0 0 .008-.224v-.088h.184v.171a.333.333 0 0 1 .317-.197.308.308 0 0 1 .186.052c.05.035.087.09.105.152a.375.375 0 0 1 .34-.205.287.287 0 0 1 .236.102zM25.34 46.168a.377.377 0 0 1 .155.159.507.507 0 0 1 .055.241.591.591 0 0 1-.06.273.457.457 0 0 1-.427.248.447.447 0 0 1-.205-.046.313.313 0 0 1-.134-.126l-.05.563h-.207l.094-1.083c.006-.06.009-.118.008-.178v-.09h.193v.153a.319.319 0 0 1 .142-.114.436.436 0 0 1 .199-.047.458.458 0 0 1 .237.047zm-.08.678a.418.418 0 0 0 .081-.273.324.324 0 0 0-.075-.23.279.279 0 0 0-.213-.082.272.272 0 0 0-.224.1.413.413 0 0 0-.081.273.327.327 0 0 0 .074.232.28.28 0 0 0 .214.079.272.272 0 0 0 .222-.096l.003-.003zM26.417 46.136l-.017.2a.272.272 0 0 0-.112-.023.246.246 0 0 0-.204.092.413.413 0 0 0-.08.232l-.044.616h-.193l.056-.795c.005-.099.007-.174.007-.224v-.087h.18v.174a.345.345 0 0 1 .316-.2c.031 0 .061.004.09.015zM26.864 47.188a.438.438 0 0 1-.171-.186.63.63 0 0 1-.06-.281.746.746 0 0 1 .064-.316.489.489 0 0 1 .18-.211.49.49 0 0 1 .267-.074c.09-.002.18.02.259.067a.441.441 0 0 1 .17.185.623.623 0 0 1 .06.28.746.746 0 0 1-.064.317.475.475 0 0 1-.445.285.508.508 0 0 1-.26-.066zm.485-.226a.573.573 0 0 0 .077-.316.405.405 0 0 0-.073-.26.253.253 0 0 0-.208-.09.253.253 0 0 0-.225.117.56.56 0 0 0-.079.316.413.413 0 0 0 .072.264.255.255 0 0 0 .214.09.251.251 0 0 0 .222-.12zM28.588 46.12h.212l-.532.907h-.182l-.37-.907h.212l.27.7zM29.233 46.692v.029a.384.384 0 0 0 .082.264.313.313 0 0 0 .244.093.542.542 0 0 0 .347-.121l.056.154a.476.476 0 0 1-.182.105.76.76 0 0 1-.233.037.579.579 0 0 1-.28-.065.443.443 0 0 1-.185-.186.709.709 0 0 1 .003-.595.51.51 0 0 1 .472-.286.451.451 0 0 1 .336.124.48.48 0 0 1 .123.353.842.842 0 0 1-.007.1l-.776-.006zm.123-.345a.382.382 0 0 0-.104.211h.58a.289.289 0 0 0-.068-.21.247.247 0 0 0-.197-.068.313.313 0 0 0-.21.067z"/>
                    <path fill="#152942" d="M35.517 45.893l-.459.679v.455h-.168v-.459l-.457-.675h.189l.352.535.35-.535zM36.206 46.958a.468.468 0 0 1-.19-.197.64.64 0 0 1-.066-.3.657.657 0 0 1 .066-.303.455.455 0 0 1 .19-.196.63.63 0 0 1 .572 0 .453.453 0 0 1 .19.196.727.727 0 0 1 0 .603.456.456 0 0 1-.19.197.626.626 0 0 1-.568 0h-.004zm.556-.175a.488.488 0 0 0 .095-.324.48.48 0 0 0-.095-.321.376.376 0 0 0-.27-.114c-.103 0-.201.041-.27.114a.59.59 0 0 0 0 .645.374.374 0 0 0 .54 0zM38.011 46.91a.48.48 0 0 1-.11-.341v-.676h.151v.687a.343.343 0 0 0 .07.234.316.316 0 0 0 .42 0 .348.348 0 0 0 .07-.234v-.687h.154v.676a.48.48 0 0 1-.11.34.503.503 0 0 1-.645 0zM40.417 47.026h-.191l-.156-.376a.146.146 0 0 0-.072-.083.294.294 0 0 0-.13-.023h-.273v.483h-.178v-1.133h.51a.518.518 0 0 1 .314.083.28.28 0 0 1 .11.237.283.283 0 0 1-.066.185.346.346 0 0 1-.184.11c.078.016.139.07.159.14l.157.377zm-.51-.615a.344.344 0 0 0 .204-.049.192.192 0 0 0 0-.289.352.352 0 0 0-.205-.047h-.313v.385h.313zM42.017 47.027v-1.134h.65v.134h-.506v.356h.478v.134h-.478v.376h.506v.134zM43.533 47.027v-1.134h.65v.136h-.505v.354h.478v.136h-.478v.508zM44.833 47.027v-1.134h.65v.136h-.503v.354h.475v.136h-.475v.508zM46.133 47.027v-1.134h.217v1.134zM47.453 46.953a.451.451 0 0 1-.175-.196.765.765 0 0 1 0-.6.446.446 0 0 1 .175-.195.511.511 0 0 1 .27-.068c.068-.001.137.01.202.035a.42.42 0 0 1 .158.101l-.054.118a.435.435 0 0 0-.306-.118.313.313 0 0 0-.257.111.605.605 0 0 0 0 .638c.064.077.159.118.257.113.054 0 .108-.01.16-.029a.53.53 0 0 0 .146-.09l.054.117a.422.422 0 0 1-.158.102.594.594 0 0 1-.203.035.512.512 0 0 1-.27-.074zM48.733 47.027v-1.134h.217v1.134zM49.6 47.027v-1.134h.65v.134h-.508v.356h.48v.134h-.48v.376h.508v.134zM51.838 45.893h.145v1.134h-.115l-.607-.857v.857h-.144v-1.134h.116l.607.859zM52.87 46.953a.451.451 0 0 1-.175-.196.765.765 0 0 1 0-.6.446.446 0 0 1 .174-.195.576.576 0 0 1 .472-.033c.06.021.114.056.159.1l-.054.12a.547.547 0 0 0-.148-.091.43.43 0 0 0-.158-.028.313.313 0 0 0-.257.111.605.605 0 0 0 0 .638c.064.077.159.119.257.113a.43.43 0 0 0 .158-.029.521.521 0 0 0 .148-.09l.054.117a.43.43 0 0 1-.158.102.594.594 0 0 1-.204.035.512.512 0 0 1-.269-.074zM55.233 45.893l-.458.679v.455h-.169v-.459l-.456-.675h.188l.352.535.35-.535z"/>
                    <path fill="#E1B129" d="M59.133 35.187l-.217-.896-1.187-.351.455-1.645-.008-.002-.879.227-.33 1.193.535 1.05 1.617.477zM56.646 34.354l-1.62-.474-.01.035.223.91 1.18.345-.462 1.649.026.008.86-.22.338-1.214.002.001-.537-1.043z"/>
                </g>
            </g>
        </g>
    </g>
</svg>
