<svg xmlns="http://www.w3.org/2000/svg" xmlns:xlink="http://www.w3.org/1999/xlink" width="50" height="50" viewBox="0 0 50 50">
    <defs>
        <circle id="a" cx="25" cy="25" r="25"/>
        <circle id="c" cx="23.059" cy="23.059" r="23.059"/>
    </defs>
    <g fill="none" fill-rule="evenodd">
        <mask id="b" fill="#fff">
            <use xlink:href="#a"/>
        </mask>
        <use fill="#FFF" xlink:href="#a"/>
        <g mask="url(#b)">
            <g transform="translate(.96 .96)">
                <mask id="d" fill="#fff">
                    <use xlink:href="#c"/>
                </mask>
                <g mask="url(#d)">
                    <path fill="#FFF" d="M4 3h40v42H4z"/>
                    <g fill-rule="nonzero">
                        <path fill="#293647" d="M15.378 24.085h-4.815c.17 1.032.896 1.535 1.877 1.535.7 0 1.359-.313 1.695-.896l1.01.53c-.53 1.059-1.614 1.602-2.77 1.602-1.747 0-3.118-1.319-3.118-3.33 0-2.01 1.398-3.287 3.119-3.287 1.72 0 3.028 1.277 3.028 3.275 0 .176-.013.367-.026.57zm-1.243-1.07c-.116-.996-.815-1.54-1.747-1.54-.932 0-1.63.49-1.811 1.54h3.558zM23.246 23.555c0 2.025-1.359 3.302-3.002 3.302-.854 0-1.696-.354-2.097-1.074v4.022h-1.269v-9.43h1.27v.951c.4-.72 1.281-1.087 2.096-1.087 1.63 0 3.002 1.29 3.002 3.316zm-1.278.013c0-1.196-.829-2.078-1.876-2.078-1.013 0-1.932.8-1.932 2.078 0 1.277.997 2.025 1.929 2.025 1.047 0 1.879-.829 1.879-2.025zM24.307 24.79h1.178c0 .504.427.942 1.113.942.698 0 1.126-.34 1.126-.816 0-.42-.324-.638-.776-.747l-.816-.204c-1.126-.313-1.643-.924-1.643-1.862 0-1.032.896-1.86 2.15-1.86 1.034 0 2.148.57 2.148 1.902h-1.219c0-.463-.452-.777-.906-.777-.53 0-.896.34-.896.775 0 .392.35.611.725.706l.92.23c1.293.34 1.578 1.183 1.578 1.862 0 1.21-1.139 1.917-2.381 1.917-1.123-.002-2.275-.748-2.3-2.067zM35.657 26.747h-1.135v-.832c-.49.616-1.146.923-1.97.923-.615 0-1.125-.183-1.53-.549-.403-.366-.605-.854-.605-1.466 0-.611.215-1.069.645-1.373.43-.303 1.012-.455 1.747-.455h1.613v-.235c0-.826-.438-1.24-1.313-1.24-.548 0-1.119.21-1.714.628l-.556-.818a3.719 3.719 0 0 1 2.448-.899c.697 0 1.266.185 1.708.554.442.37.663.952.662 1.747v4.015zm-1.247-2.314v-.525H33.01c-.896 0-1.344.296-1.344.888a.802.802 0 0 0 .334.695c.222.16.532.238.929.235.374.008.74-.115 1.04-.35.287-.218.453-.57.442-.943z"/>
                        <path fill="#E1B129" d="M9.34 29.682l.119-.813h.303l-.112.813h-.31zm.145-1.168h.354l-.025.171H9.46l.026-.17zM10.927 28.922a.313.313 0 0 1 .065.208v.048l-.038.502h-.158l.036-.495v-.039a.193.193 0 0 0-.034-.125.13.13 0 0 0-.105-.041.177.177 0 0 0-.144.062.317.317 0 0 0-.061.18l-.034.458h-.153l.038-.493v-.036a.202.202 0 0 0-.035-.13.13.13 0 0 0-.105-.041.18.18 0 0 0-.144.062.306.306 0 0 0-.06.18l-.034.458h-.154l.045-.584c.004-.07.006-.126.006-.165v-.064h.144v.125a.263.263 0 0 1 .248-.145.252.252 0 0 1 .145.039c.039.026.068.065.082.112a.296.296 0 0 1 .265-.15.231.231 0 0 1 .185.074zM12.038 28.894c.063.033.112.08.143.137a.413.413 0 0 1 .05.208.481.481 0 0 1-.055.235.407.407 0 0 1-.16.157.478.478 0 0 1-.234.056.438.438 0 0 1-.189-.04.282.282 0 0 1-.124-.108l-.046.485h-.191l.087-.933a1.26 1.26 0 0 0 .007-.153v-.078h.178v.132a.292.292 0 0 1 .131-.098.426.426 0 0 1 .184-.04.449.449 0 0 1 .219.04zm-.073.584a.343.343 0 0 0 .074-.236.267.267 0 0 0-.07-.198.268.268 0 0 0-.196-.07.259.259 0 0 0-.207.086.34.34 0 0 0-.075.235.27.27 0 0 0 .07.2.27.27 0 0 0 .196.068.26.26 0 0 0 .205-.082l.003-.003zM12.801 28.861l-.013.147a.235.235 0 0 0-.09-.016.205.205 0 0 0-.163.067.288.288 0 0 0-.065.17l-.035.453h-.155l.045-.584c.004-.073.006-.128.006-.164v-.065h.145v.128a.262.262 0 0 1 .103-.108.287.287 0 0 1 .222-.028zM13.144 29.793a.41.41 0 0 1-.17-.163.501.501 0 0 1-.06-.249.592.592 0 0 1 .063-.279.451.451 0 0 1 .18-.186.54.54 0 0 1 .267-.065c.09-.002.18.019.26.059a.413.413 0 0 1 .17.164.592.592 0 0 1-.004.526.455.455 0 0 1-.18.186.524.524 0 0 1-.266.065.563.563 0 0 1-.26-.058zm.485-.199a.46.46 0 0 0 .078-.279.327.327 0 0 0-.073-.23.269.269 0 0 0-.209-.08.264.264 0 0 0-.224.105.45.45 0 0 0-.08.279.333.333 0 0 0 .073.232.272.272 0 0 0 .213.08.261.261 0 0 0 .222-.107zM14.501 28.87h.159l-.397.812h-.135l-.276-.811h.158l.2.627zM14.997 29.359v.025a.313.313 0 0 0 .083.233.338.338 0 0 0 .243.082.589.589 0 0 0 .347-.107l.057.136a.495.495 0 0 1-.183.093.854.854 0 0 1-.232.033.643.643 0 0 1-.281-.058.42.42 0 0 1-.185-.164.464.464 0 0 1-.065-.245.564.564 0 0 1 .068-.28.476.476 0 0 1 .191-.185.576.576 0 0 1 .281-.067.487.487 0 0 1 .337.11.395.395 0 0 1 .122.311c0 .03-.002.06-.006.088l-.777-.005zm.124-.304a.324.324 0 0 0-.105.186h.58a.236.236 0 0 0-.067-.186.268.268 0 0 0-.197-.06.342.342 0 0 0-.21.06h-.001z"/>
                        <path fill="#152942" d="M20.097 28.725l-.364.573v.384H19.6v-.387l-.363-.57h.15l.279.452.279-.452zM20.694 29.654a.421.421 0 0 1-.175-.174.544.544 0 0 1-.06-.265.558.558 0 0 1 .06-.267.41.41 0 0 1 .175-.173.605.605 0 0 1 .529 0c.076.04.137.1.175.173.08.17.08.362 0 .532a.411.411 0 0 1-.175.174.602.602 0 0 1-.525 0h-.004zm.514-.155a.417.417 0 0 0 .087-.286.41.41 0 0 0-.087-.283.355.355 0 0 0-.25-.1.355.355 0 0 0-.25.1.501.501 0 0 0 0 .57c.065.063.155.1.25.1a.353.353 0 0 0 .249-.1zM21.959 29.594a.41.41 0 0 1-.094-.292v-.577h.13v.586a.293.293 0 0 0 .06.201.27.27 0 0 0 .359 0 .297.297 0 0 0 .06-.2v-.587h.13v.577a.41.41 0 0 1-.093.292.431.431 0 0 1-.552 0zM24.19 29.723H24l-.157-.33a.134.134 0 0 0-.071-.074.329.329 0 0 0-.13-.02h-.273v.425h-.179v-.999h.51a.572.572 0 0 1 .315.073c.075.052.115.13.109.21a.232.232 0 0 1-.065.163.357.357 0 0 1-.184.096c.077.014.139.062.158.124l.157.332zm-.51-.542a.381.381 0 0 0 .204-.043c.088-.07.088-.185 0-.255a.39.39 0 0 0-.204-.042h-.313v.34h.313zM25.184 29.682v-.957h.592v.113h-.46v.301h.435v.113h-.436v.317h.461v.113zM26.32 29.682v-.957h.576v.115h-.448v.299h.423v.114h-.423v.43zM27.425 29.682v-.957h.58v.115h-.449v.299h.423v.114h-.423v.43zM28.53 29.682v-.957h.133v.957zM29.426 29.634a.39.39 0 0 1-.15-.17.674.674 0 0 1 0-.521.385.385 0 0 1 .15-.17.431.431 0 0 1 .23-.059c.059 0 .117.01.173.03.05.019.097.049.135.088l-.046.103a.366.366 0 0 0-.261-.103.266.266 0 0 0-.22.097.532.532 0 0 0 0 .553.265.265 0 0 0 .22.098.366.366 0 0 0 .135-.025.451.451 0 0 0 .126-.078l.046.102a.36.36 0 0 1-.135.088.5.5 0 0 1-.173.03.432.432 0 0 1-.23-.063zM30.51 29.682v-.957h.132v.957zM31.233 29.682v-.957h.591v.113h-.461v.301h.436v.113h-.436v.317h.461v.113zM32.993 28.725h.125v.957h-.1l-.522-.723v.723h-.124v-.957h.1l.523.725zM33.881 29.634a.39.39 0 0 1-.15-.17.674.674 0 0 1 0-.521.385.385 0 0 1 .15-.17.485.485 0 0 1 .403-.029c.05.02.097.05.135.088l-.046.103a.465.465 0 0 0-.126-.078.362.362 0 0 0-.135-.025.265.265 0 0 0-.22.097.532.532 0 0 0 0 .553.264.264 0 0 0 .22.098.362.362 0 0 0 .135-.025.444.444 0 0 0 .126-.078l.046.102a.366.366 0 0 1-.135.088.5.5 0 0 1-.174.03.432.432 0 0 1-.229-.063zM35.663 28.725l-.363.573v.384h-.134v-.387l-.362-.57h.15l.279.452.277-.452z"/>
                        <path fill="#E1B129" d="M38.73 20.205l-.172-.721-.94-.282.36-1.323-.005-.001-.695.182-.262.96.424.844 1.279.384zM36.792 19.505l-1.28-.384-.008.028.176.738.932.28-.365 1.336.02.006.68-.178.267-.984.002.001-.424-.845z"/>
                    </g>
                </g>
            </g>
        </g>
    </g>
</svg>
