<svg xmlns="http://www.w3.org/2000/svg" xmlns:xlink="http://www.w3.org/1999/xlink" width="50" height="50" viewBox="0 0 50 50">
    <defs>
        <circle id="a" cx="25" cy="25" r="25"/>
        <circle id="c" cx="23.059" cy="23.059" r="23.059"/>
    </defs>
    <g fill="none" fill-rule="evenodd">
        <mask id="b" fill="#fff">
            <use xlink:href="#a"/>
        </mask>
        <use fill="#FFF" xlink:href="#a"/>
        <g mask="url(#b)">
            <g transform="translate(.96 .96)">
                <mask id="d" fill="#fff">
                    <use xlink:href="#c"/>
                </mask>
                <g mask="url(#d)">
                    <path fill="#FFF" d="M4 3h40v42H4z"/>
                    <g fill="#194B49" fill-rule="nonzero">
                        <path d="M17.627 20.278v.102h-.849v.712h.735v.102h-.735v.778h-.117v-1.694zM19.51 21.125a1.005 1.005 0 0 0-.047-.319.696.696 0 0 0-.131-.24.562.562 0 0 0-.205-.15.656.656 0 0 0-.265-.052.646.646 0 0 0-.263.053.57.57 0 0 0-.205.15.7.7 0 0 0-.134.239c-.063.207-.063.43 0 .638.029.088.075.17.134.238a.562.562 0 0 0 .205.15.657.657 0 0 0 .263.051.667.667 0 0 0 .265-.05.554.554 0 0 0 .205-.15.693.693 0 0 0 .131-.239c.033-.102.049-.21.047-.319m.121 0c.002.121-.017.242-.056.356a.798.798 0 0 1-.157.273.695.695 0 0 1-.243.175.818.818 0 0 1-.624 0 .695.695 0 0 1-.243-.175.788.788 0 0 1-.158-.273 1.138 1.138 0 0 1 0-.71.794.794 0 0 1 .158-.273.704.704 0 0 1 .243-.176.76.76 0 0 1 .31-.062.775.775 0 0 1 .314.061c.092.04.175.1.243.176.07.08.123.172.157.273.039.114.058.234.056.355M20.32 20.282c.008.005.015.011.02.02l1.044 1.464c0-.024-.003-.047-.003-.068v-1.42h.102v1.694h-.056a.05.05 0 0 1-.042-.024l-1.049-1.47a.653.653 0 0 1 .004.067v1.427h-.101v-1.694h.056c.009 0 .017.001.025.004M23.427 21.125a.984.984 0 0 0-.047-.316.668.668 0 0 0-.132-.235.556.556 0 0 0-.204-.146.674.674 0 0 0-.266-.05h-.47v1.494h.47c.09.002.18-.015.266-.05a.558.558 0 0 0 .204-.146.668.668 0 0 0 .132-.234.987.987 0 0 0 .047-.317m.12 0c.003.12-.016.24-.055.353a.775.775 0 0 1-.157.269.685.685 0 0 1-.243.168.81.81 0 0 1-.314.059h-.588v-1.696h.588a.81.81 0 0 1 .314.059.685.685 0 0 1 .243.169c.07.077.123.168.157.268.039.113.058.232.056.352M24.251 21.357h.723l-.33-.856a.702.702 0 0 1-.016-.046l-.016-.054a1.08 1.08 0 0 1-.016.054c-.005.018-.01.033-.016.047l-.329.855zm1.08.615h-.09a.037.037 0 0 1-.026-.009.06.06 0 0 1-.016-.023l-.192-.492h-.792l-.188.492a.051.051 0 0 1-.016.022.04.04 0 0 1-.028.01h-.089l.66-1.694h.117l.66 1.694zM26.736 20.278v.105h-.567v1.589h-.115v-1.59h-.57v-.104zM27.286 20.278h1v1.693h-1z"/>
                        <path d="M29.47 21.125a1.005 1.005 0 0 0-.046-.319.696.696 0 0 0-.133-.24.562.562 0 0 0-.204-.15.656.656 0 0 0-.266-.052.646.646 0 0 0-.263.053.576.576 0 0 0-.206.15.698.698 0 0 0-.133.239c-.063.207-.063.43 0 .638.029.088.074.17.133.238a.57.57 0 0 0 .207.15.657.657 0 0 0 .263.052.667.667 0 0 0 .266-.051.555.555 0 0 0 .203-.15.693.693 0 0 0 .132-.24c.032-.102.048-.21.046-.318m.121 0c.002.12-.017.241-.055.356a.808.808 0 0 1-.158.273.695.695 0 0 1-.243.174.82.82 0 0 1-.625 0 .698.698 0 0 1-.242-.174.799.799 0 0 1-.158-.273 1.15 1.15 0 0 1 0-.711.806.806 0 0 1 .158-.273.709.709 0 0 1 .242-.176.764.764 0 0 1 .312-.061.775.775 0 0 1 .313.06c.092.04.175.1.243.176.07.08.123.173.158.274.038.114.057.234.055.355M30.28 20.282c.009.005.016.011.02.02l1.044 1.464a.642.642 0 0 1 0-.068v-1.42h.103v1.694h-.056a.049.049 0 0 1-.042-.024l-1.052-1.47a.653.653 0 0 1 .004.067v1.427h-.102v-1.694h.057c.008 0 .017.001.025.004M11.292 27.315c.109 0 .217-.005.325-.017a2.021 2.021 0 0 0 .527-.139c.078-.033.155-.067.233-.113V26.03h-.679a.12.12 0 0 1-.129-.122v-.352h1.345v1.764c-.22.168-.465.295-.726.374a2.637 2.637 0 0 1-.435.093 3.92 3.92 0 0 1-.505.03c-.299.004-.596-.054-.873-.171a2.006 2.006 0 0 1-.685-.481 2.205 2.205 0 0 1-.448-.743 2.726 2.726 0 0 1-.16-.953c-.005-.327.049-.652.157-.959a2.014 2.014 0 0 1 1.155-1.222c.296-.117.61-.175.927-.17.162-.001.323.013.483.04.141.024.28.063.414.115.123.049.241.11.353.183.107.071.208.153.302.243l-.168.282a.154.154 0 0 1-.134.087.211.211 0 0 1-.107-.036 2.65 2.65 0 0 1-.171-.109 1.432 1.432 0 0 0-.231-.124 1.747 1.747 0 0 0-.32-.1 2.033 2.033 0 0 0-.439-.042 1.706 1.706 0 0 0-.668.124 1.42 1.42 0 0 0-.512.362 1.631 1.631 0 0 0-.324.571 2.363 2.363 0 0 0-.112.753c-.004.264.035.527.117.778.071.215.184.412.331.578.143.159.316.282.508.363.206.086.426.128.648.125M14.86 27.366c.305 0 .533-.107.683-.323.151-.215.227-.514.227-.9s-.075-.688-.227-.904c-.15-.216-.379-.324-.684-.324a.907.907 0 0 0-.403.084.763.763 0 0 0-.285.24 1.09 1.09 0 0 0-.172.387c-.04.17-.058.343-.056.518-.002.174.017.347.056.516.032.14.09.27.172.383a.765.765 0 0 0 .285.24.907.907 0 0 0 .403.083m0-2.9c.21-.003.418.037.613.119.176.074.335.189.464.336.132.152.232.332.294.527.136.45.136.934 0 1.384a1.522 1.522 0 0 1-.294.527c-.129.146-.288.261-.464.336-.395.156-.83.156-1.225 0a1.297 1.297 0 0 1-.466-.336 1.528 1.528 0 0 1-.296-.527 2.362 2.362 0 0 1 0-1.384c.063-.195.164-.375.296-.527.13-.147.289-.262.466-.336.195-.082.403-.122.612-.119M18.21 27.366c.305 0 .533-.107.684-.323.15-.215.226-.514.226-.9s-.075-.688-.226-.904c-.151-.216-.38-.324-.684-.324a.907.907 0 0 0-.403.084.763.763 0 0 0-.286.24 1.09 1.09 0 0 0-.171.387c-.04.17-.059.343-.057.518-.002.174.017.347.057.516.031.14.09.27.171.383a.765.765 0 0 0 .286.24.907.907 0 0 0 .403.083m0-2.9c.21-.003.417.037.612.119.177.074.335.189.465.336.131.152.23.332.293.527.136.45.136.934 0 1.384a1.522 1.522 0 0 1-.293.527c-.13.146-.288.261-.465.336-.395.156-.83.156-1.225 0a1.297 1.297 0 0 1-.466-.336 1.518 1.518 0 0 1-.296-.527 2.362 2.362 0 0 1 0-1.384c.063-.194.164-.373.296-.524.13-.146.289-.261.466-.336.194-.081.402-.121.612-.118M21.479 27.35a.841.841 0 0 0 .466-.128c.144-.095.27-.218.37-.363v-1.571a.88.88 0 0 0-.329-.297.911.911 0 0 0-.395-.085c-.29 0-.512.108-.666.324-.155.216-.233.524-.233.924-.003.183.015.365.053.543.027.134.078.26.152.373a.606.606 0 0 0 .248.213c.106.046.22.07.336.067m1.054.458a.14.14 0 0 1-.147-.12l-.049-.434c-.126.163-.28.3-.454.403-.179.104-.38.157-.585.153a1.02 1.02 0 0 1-.852-.423 1.543 1.543 0 0 1-.235-.52 2.794 2.794 0 0 1-.083-.716 2.362 2.362 0 0 1 .092-.672c.055-.195.145-.377.264-.538.236-.316.6-.497.983-.487.167-.005.333.03.485.101.137.069.26.165.36.284V23.17h.545v4.637h-.324zM24.08 25.554h.704c.152.003.303-.021.448-.07a.9.9 0 0 0 .325-.198.817.817 0 0 0 .199-.304 1.08 1.08 0 0 0 .067-.387c0-.293-.085-.522-.256-.687-.17-.165-.43-.247-.78-.247h-.704l-.003 1.893zm0 .494l.004 1.764h-.59l-.004-4.642h1.293c.244-.005.487.03.722.1.187.058.36.156.508.288.134.122.237.276.302.45.068.187.101.386.099.587.002.2-.034.4-.107.586-.07.176-.177.333-.314.46-.149.135-.323.237-.512.3a2.096 2.096 0 0 1-.7.107h-.701zM26.92 23.17h1v4.642h-1zM29.03 27.417a.993.993 0 0 0 .488-.117c.071-.037.139-.082.201-.134a1.72 1.72 0 0 0 .188-.183v-.672a3.463 3.463 0 0 0-.64.05c-.147.025-.291.07-.428.134a.593.593 0 0 0-.24.19.425.425 0 0 0-.074.246.572.572 0 0 0 .04.222c.023.059.06.111.106.153.047.04.101.07.16.088a.693.693 0 0 0 .198.026m1.414.394H30.2a.282.282 0 0 1-.128-.026.144.144 0 0 1-.064-.11l-.06-.346c-.082.077-.161.146-.238.207a1.238 1.238 0 0 1-.518.25 1.533 1.533 0 0 1-.32.03 1.04 1.04 0 0 1-.338-.052.758.758 0 0 1-.273-.16.751.751 0 0 1-.185-.269.977.977 0 0 1-.069-.384c0-.131.036-.26.101-.372a.899.899 0 0 1 .325-.317c.184-.106.383-.182.589-.227.292-.064.59-.094.888-.089v-.254c0-.254-.05-.446-.154-.577-.103-.13-.256-.195-.457-.195a.93.93 0 0 0-.334.053 1.255 1.255 0 0 0-.235.119 7.097 7.097 0 0 0-.171.119.242.242 0 0 1-.142.052.159.159 0 0 1-.097-.03.226.226 0 0 1-.064-.075l-.098-.183c.16-.165.347-.297.553-.389a1.64 1.64 0 0 1 .657-.128c.158-.003.315.028.461.09.13.056.245.141.34.25.094.113.165.245.207.388.049.162.072.33.07.5l-.004 2.125zM30.982 27.808V24.52h.323a.14.14 0 0 1 .147.119l.043.353c.128-.152.28-.28.448-.379.177-.1.375-.149.576-.144.153-.004.306.026.448.088a.877.877 0 0 1 .324.25c.09.114.157.247.197.39.046.163.069.333.067.504v2.11h-.544v-2.114c0-.246-.053-.437-.16-.572-.107-.135-.27-.202-.49-.202a.878.878 0 0 0-.448.122 1.496 1.496 0 0 0-.384.33v2.434l-.547-.002zM38.273 27.818c-.244 0-.432-.071-.564-.215-.131-.143-.197-.35-.197-.619v-1.989h-.372a.119.119 0 0 1-.083-.03.122.122 0 0 1-.034-.095v-.228l.508-.067.124-1.004a.124.124 0 0 1 .04-.078.124.124 0 0 1 .086-.031h.278v1.12h.883v.413h-.883v1.949c-.01.11.025.22.094.304a.321.321 0 0 0 .245.1c.05 0 .1-.007.148-.024a.679.679 0 0 0 .186-.106.1.1 0 0 1 .057-.024.094.094 0 0 1 .076.054l.159.273a1.103 1.103 0 0 1-.748.295M34.594 25.642a1.06 1.06 0 0 1 .253-.503c.151-.16.358-.24.62-.24a.798.798 0 0 1 .332.068.68.68 0 0 1 .246.186c.069.083.12.18.153.286.032.106.05.217.05.328l-1.691.58a2.356 2.356 0 0 1 .036-.705m2.145.317v-.025c.003-.21-.03-.42-.096-.618a1.31 1.31 0 0 0-.268-.455 1.15 1.15 0 0 0-.406-.282 1.323 1.323 0 0 0-.512-.098 1.437 1.437 0 0 0-.605.123 1.328 1.328 0 0 0-.455.34 1.515 1.515 0 0 0-.286.512c-.067.204-.1.42-.1.635-.004.253.034.505.11.744.066.202.17.388.308.544.13.147.29.262.467.336.188.078.39.117.592.115a1.953 1.953 0 0 0 .67-.123c.106-.04.207-.091.301-.155.09-.06.172-.136.241-.223l-.153-.208a.118.118 0 0 0-.103-.055.227.227 0 0 0-.124.05 1.92 1.92 0 0 1-.18.107c-.081.043-.167.08-.255.107a1.1 1.1 0 0 1-.353.05 1 1 0 0 1-.397-.075.813.813 0 0 1-.306-.228 1.068 1.068 0 0 1-.178-.313l1.937-.666c.082-.028.135-.046.148-.107v-.013-.02"/>
                    </g>
                </g>
            </g>
        </g>
    </g>
</svg>
