<svg xmlns="http://www.w3.org/2000/svg" xmlns:xlink="http://www.w3.org/1999/xlink" width="50" height="50" viewBox="0 0 50 50">
    <defs>
        <circle id="a" cx="25" cy="25" r="25"/>
        <linearGradient id="c" x1="88.643%" x2="-2.074%" y1="62.178%" y2="62.178%">
            <stop offset="0%" stop-color="#FFF"/>
            <stop offset="100%" stop-color="#567AA1"/>
        </linearGradient>
        <linearGradient id="d" x1="50.499%" x2="50.499%" y1="82.632%" y2=".087%">
            <stop offset="0%" stop-color="#FFF"/>
            <stop offset="100%" stop-color="#567AA1"/>
        </linearGradient>
    </defs>
    <g fill="none" fill-rule="evenodd">
        <mask id="b" fill="#fff">
            <use xlink:href="#a"/>
        </mask>
        <use fill="#FFF" xlink:href="#a"/>
        <g mask="url(#b)">
            <path fill="#FFF" d="M0 1h49v49H0z"/>
            <path fill="url(#c)" fill-rule="nonzero" d="M.569.569h27.71V0H0z" transform="translate(7.29 18.172)"/>
            <path fill="url(#d)" fill-rule="nonzero" d="M.569.569V12.94H0V0z" transform="translate(7.29 18.172)"/>
            <path fill="#004674" fill-rule="nonzero" d="M14.906 26.407c0 .588-.162 1.545-1.52 1.545-.759 0-1.5-.416-1.5-1.411v-.395h.906v.204c0 .44.109.76.581.76.53 0 .53-.428.53-.748v-3.078h1.002v3.123zM18.531 24.818c-.064-.454-.497-.798-.995-.798-.9 0-1.239.766-1.239 1.564 0 .76.339 1.526 1.239 1.526.612 0 .957-.422 1.034-1.022h.972c-.102 1.134-.887 1.863-2.004 1.863-1.41 0-2.24-1.053-2.24-2.368 0-1.353.83-2.407 2.24-2.407 1.002 0 1.844.587 1.966 1.641l-.973.001zM20.9 24.129h.714c.996 0 1.315.586 1.315 1.506 0 1.008-.555 1.366-1.134 1.366h-.89l-.005-2.872zm-1.002 3.713h1.966c1.392 0 2.068-.984 2.068-2.305 0-1.512-.89-2.253-2.068-2.253h-1.966v4.558z"/>
            <path d="M20.9 28.674h.714c.996 0 1.315.587 1.315 1.505 0 1.009-.555 1.367-1.134 1.367h-.89l-.005-2.872zm-1.002 3.714h1.966c1.392 0 2.068-.983 2.068-2.304 0-1.512-.89-2.253-2.068-2.253h-1.966v4.557zM8.862 24.129h.715c.995 0 1.314.586 1.314 1.506 0 1.008-.555 1.366-1.134 1.366h-.89l-.005-2.872zM7.86 27.842h1.966c1.392 0 2.068-.984 2.068-2.305 0-1.512-.887-2.253-2.068-2.253H7.86v4.558zM20.9 19.58h.714c.996 0 1.315.587 1.315 1.506 0 1.009-.555 1.366-1.134 1.366h-.89L20.9 19.58zm-1.002 3.714h1.966c1.392 0 2.068-.982 2.068-2.303 0-1.513-.89-2.254-2.068-2.254h-1.966v4.557z"/>
            <path fill="#004674" fill-rule="nonzero" d="M25.08 25.839c.013-.255.179-.702.753-.702.441 0 .639.243.722.702H25.08zm2.381.575c.064-1.015-.478-1.96-1.602-1.96-1.002 0-1.685.753-1.685 1.743 0 1.02.648 1.736 1.685 1.736.747 0 1.289-.333 1.544-1.111h-.797c-.057.204-.351.428-.715.428-.504 0-.785-.262-.81-.836h2.38zM30.045 25.705c-.057-.37-.294-.567-.67-.567-.581 0-.772.587-.772 1.072 0 .484.185 1.04.753 1.04.421 0 .663-.268.72-.67h.876c-.115.875-.722 1.353-1.59 1.353-.995 0-1.666-.702-1.666-1.691 0-1.028.614-1.788 1.685-1.788.78 0 1.494.41 1.551 1.252l-.887-.001zM33.335 26.567c0 .197-.026.759-.735.759-.293 0-.555-.081-.555-.421 0-.34.255-.428.536-.486.282-.059.6-.058.754-.192v.34zm-1.184-1.009c.032-.358.255-.498.6-.498.32 0 .588.058.588.447 0 .37-.518.351-1.073.435-.554.083-1.123.255-1.123 1.001 0 .677.498.99 1.123.99.405 0 .823-.109 1.11-.405.009.108.03.215.065.319h.918c-.08-.135-.114-.435-.114-.734v-1.717c0-.792-.791-.94-1.449-.94-.74 0-1.5.257-1.551 1.106l.906-.004zM37.832 27.842h-.862v-.46h-.02c-.217.346-.6.554-1.008.549-.963 0-1.206-.543-1.206-1.36v-2.028h.906v1.863c0 .542.162.81.581.81.492 0 .702-.273.702-.944v-1.729h.907v3.299zM39.157 26.107l-1.085-1.564h1.034l.578.862.575-.862h1.002l-1.083 1.545 1.215 1.755h-1.03l-.69-1.04-.689 1.039H37.97z"/>
        </g>
    </g>
</svg>
