<svg xmlns="http://www.w3.org/2000/svg" xmlns:xlink="http://www.w3.org/1999/xlink" width="50" height="50" viewBox="0 0 50 50">
    <defs>
        <circle id="a" cx="25" cy="25" r="25"/>
        <linearGradient id="c" x1="88.643%" x2="-2.074%" y1="62.178%" y2="62.178%">
            <stop offset="0%" stop-color="#FFF"/>
            <stop offset="100%" stop-color="#567AA1"/>
        </linearGradient>
        <linearGradient id="d" x1="50.499%" x2="50.499%" y1="82.632%" y2=".087%">
            <stop offset="0%" stop-color="#FFF"/>
            <stop offset="100%" stop-color="#567AA1"/>
        </linearGradient>
    </defs>
    <g fill="none" fill-rule="evenodd">
        <mask id="b" fill="#fff">
            <use xlink:href="#a"/>
        </mask>
        <use fill="#FFF" xlink:href="#a"/>
        <g mask="url(#b)">
            <path fill="url(#c)" fill-rule="nonzero" d="M.673.673h32.8V0H0z" transform="translate(3.629 16.326)"/>
            <path fill="url(#d)" fill-rule="nonzero" d="M.673.673v14.644H0V.001z" transform="translate(3.629 16.326)"/>
            <path fill="#004674" fill-rule="nonzero" d="M12.643 26.074c0 .695-.191 1.828-1.797 1.828-.9 0-1.776-.492-1.776-1.67v-.468h1.072v.242c0 .52.128.9.687.9.627 0 .627-.507.627-.886v-3.643h1.186l.001 3.697zM16.935 24.193c-.076-.537-.589-.945-1.178-.945-1.066 0-1.466.906-1.466 1.85 0 .9.4 1.807 1.466 1.807.724 0 1.133-.5 1.224-1.209h1.15c-.12 1.342-1.05 2.205-2.372 2.205-1.669 0-2.652-1.246-2.652-2.803 0-1.601.983-2.849 2.652-2.849 1.186 0 2.184.695 2.327 1.943h-1.151zM19.738 23.377h.846c1.18 0 1.557.694 1.557 1.782 0 1.194-.658 1.618-1.342 1.618h-1.055l-.006-3.4zm-1.186 4.395h2.328c1.647 0 2.448-1.164 2.448-2.728 0-1.79-1.055-2.667-2.448-2.667h-2.328v5.395z"/>
            <path d="M19.738 28.757h.846c1.18 0 1.557.695 1.557 1.782 0 1.194-.658 1.617-1.342 1.617h-1.055l-.006-3.4zm-1.186 4.397h2.328c1.647 0 2.448-1.164 2.448-2.728 0-1.79-1.055-2.667-2.448-2.667h-2.328v5.395zM5.49 23.377h.846c1.178 0 1.556.694 1.556 1.782 0 1.194-.657 1.618-1.343 1.618H5.495l-.005-3.4zm-1.187 4.395H6.63c1.647 0 2.448-1.164 2.448-2.728 0-1.79-1.05-2.667-2.448-2.667H4.303v5.395zM19.738 17.992h.846c1.18 0 1.557.696 1.557 1.784 0 1.193-.658 1.616-1.342 1.616h-1.055l-.006-3.4zm-1.186 4.397h2.328c1.647 0 2.448-1.163 2.448-2.726 0-1.791-1.055-2.668-2.448-2.668h-2.328v5.394z"/>
            <path fill="#004674" fill-rule="nonzero" d="M24.687 25.4c.015-.301.211-.83.891-.83.522 0 .756.288.854.83h-1.745zm2.818.682c.075-1.202-.566-2.32-1.896-2.32-1.186 0-1.994.891-1.994 2.063 0 1.208.767 2.054 1.994 2.054.884 0 1.525-.393 1.827-1.314h-.943c-.068.241-.416.506-.847.506-.596 0-.929-.31-.958-.99h2.817zM30.564 25.243c-.068-.439-.348-.671-.793-.671-.688 0-.915.695-.915 1.268 0 .573.22 1.232.892 1.232.499 0 .785-.317.853-.794h1.036c-.136 1.036-.855 1.602-1.881 1.602-1.179 0-1.973-.831-1.973-2.002 0-1.216.726-2.116 1.995-2.116.922 0 1.768.484 1.836 1.482l-1.05-.001zM34.457 26.263c0 .234-.03.898-.87.898-.346 0-.656-.096-.656-.498 0-.403.302-.507.635-.576.332-.069.71-.068.891-.226v.402zm-1.4-1.194c.037-.424.302-.59.71-.59.378 0 .695.069.695.53 0 .438-.612.415-1.27.514-.656.098-1.329.302-1.329 1.186 0 .8.59 1.17 1.33 1.17.48 0 .974-.128 1.314-.48.01.13.035.256.076.379h1.087c-.096-.16-.135-.514-.135-.869v-2.033c0-.936-.937-1.11-1.715-1.11-.876 0-1.776.302-1.836 1.307l1.073-.004zM39.78 27.772h-1.02v-.545h-.023c-.257.41-.71.656-1.193.65-1.14 0-1.428-.642-1.428-1.608v-2.401h1.073v2.205c0 .641.192.959.687.959.582 0 .832-.324.832-1.118v-2.046h1.073v3.904zM41.35 25.718l-1.286-1.85h1.225l.684 1.02.68-1.02h1.186l-1.28 1.828 1.437 2.078h-1.22l-.815-1.232-.816 1.23h-1.201z"/>
        </g>
    </g>
</svg>
