<svg xmlns="http://www.w3.org/2000/svg" width="42" height="44" viewBox="0 0 42 44">
    <g fill="none" fill-rule="evenodd">
        <path fill="#FFF" d="M.922.922h40v42h-40z"/>
        <path fill="#221F20" fill-rule="nonzero" stroke="#221F20" stroke-width=".5" d="M10.823 23.294a.68.68 0 0 1-.621-.385l-.336-.487a.722.722 0 0 0-.696-.345h-.72v1.217h-.303V20.58h.286v1.22h.523a.781.781 0 0 0 .72-.41l.586-.81h.355l-.627.865a1.3 1.3 0 0 1-.441.436c.239.044.449.193.576.41l.307.436c.144.202.24.288.4.288h.09l-.027.277-.072.002zm2.177 0V20.58h2.242l.028.278h-1.984v.932h1.881v.297h-1.881v.908h2.13l-.052.3H13zm7.42 0a.685.685 0 0 1-.618-.385l-.173-.252a.71.71 0 0 0-.694-.355h-.89v1.008h-.283v-2.73h1.3c.648 0 1.008.356 1.008.842a.766.766 0 0 1-.576.756c.153.074.281.193.37.343l.156.216c.144.205.24.288.403.288h.099l-.032.277-.07-.008zm-1.358-2.436h-1.017v1.154h1.017c.408 0 .701-.197.701-.577 0-.38-.3-.577-.7-.577zm3.572 2.436V20.58h.288v2.714h-.288zm5.433 0l-2.4-2.293v2.293h-.28V20.58h.263l2.388 2.294V20.58h.286v2.714h-.257zm4.215.084c-1.246 0-1.81-.673-1.81-1.442 0-.768.578-1.429 1.754-1.429.419-.001.833.084 1.22.252v.308a2.839 2.839 0 0 0-1.224-.283c-.972 0-1.44.525-1.44 1.157 0 .633.501 1.16 1.502 1.16.344.003.685-.067 1.003-.205v-.683h-1.073l.034-.277h1.327v1.14a2.803 2.803 0 0 1-1.293.302z"/>
        <path d="M4.922 17.582h31.886v8.712H4.922z"/>
    </g>
</svg>
