<svg xmlns="http://www.w3.org/2000/svg" xmlns:xlink="http://www.w3.org/1999/xlink" width="50" height="50" viewBox="0 0 50 50">
    <defs>
        <circle id="a" cx="25" cy="25" r="25"/>
        <circle id="c" cx="30.039" cy="30.039" r="29.5"/>
    </defs>
    <g fill="none" fill-rule="evenodd">
        <mask id="b" fill="#fff">
            <use xlink:href="#a"/>
        </mask>
        <use fill="#FFF" xlink:href="#a"/>
        <g mask="url(#b)">
            <g transform="translate(-7 -4)">
                <mask id="d" fill="#fff">
                    <use xlink:href="#c"/>
                </mask>
                <g fill="#000" fill-rule="nonzero" mask="url(#d)">
                    <path d="M17.347 29.428c-.408 0-.645-.13-.952-.587l-.509-.743c-.254-.369-.504-.529-1.055-.529h-1.106v1.86h-.43v-4.152h.43v1.872h.794c.52 0 .769-.203 1.076-.627l.888-1.238h.544l-.952 1.32c-.238.336-.4.517-.67.666.416.087.624.269.873.627l.468.666c.217.308.374.439.608.439h.129l-.04.423-.096.003zm3.298 0v-4.151h3.4l.047.424h-3.019v1.425h2.856v.455h-2.856v1.385h3.232l-.078.456-3.582.006zm11.247 0c-.401 0-.64-.13-.952-.587l-.264-.396c-.26-.386-.508-.545-1.05-.545h-1.334v1.528h-.431v-4.151h1.973c.982 0 1.528.545 1.528 1.287 0 .605-.385.98-.873 1.139.231.112.427.294.561.523l.234.33c.218.312.374.439.614.439h.136l-.047.423-.095.01zm-2.058-3.72h-1.542v1.766h1.542c.62 0 1.06-.302 1.06-.886 0-.583-.452-.88-1.06-.88zm5.413 3.723v-4.154h.431v4.147l-.43.007zm8.234 0l-3.62-3.506h-.012v3.503h-.43v-4.151h.4l3.626 3.513v-3.513h.431v4.147l-.395.007zm6.401.121c-1.885 0-2.743-1.028-2.743-2.205 0-1.176.879-2.184 2.66-2.184a4.573 4.573 0 0 1 1.85.386v.472a4.286 4.286 0 0 0-1.855-.432c-1.474 0-2.187.804-2.187 1.771 0 .991.759 1.772 2.275 1.772a3.693 3.693 0 0 0 1.522-.313v-1.035h-1.625l.051-.424h2.01v1.733c-.61.31-1.28.466-1.958.456v.003zM32.008 33.325c0 .135.066.021.23.021.163 0 .23.114.23-.021a.237.237 0 0 0-.23-.244.237.237 0 0 0-.23.244M33.437 33.325c0 .135-.068.021-.231.021s-.23.114-.23-.021a.237.237 0 0 1 .23-.226c.121 0 .222.098.231.226"/>
                    <path d="M32.28 32.816a.462.462 0 0 0-.37.154.522.522 0 0 0-.13.395c0 .398.345.919.942 1.142.598-.223.942-.744.942-1.142a.522.522 0 0 0-.132-.395.462.462 0 0 0-.368-.154.594.594 0 0 0-.442.195.59.59 0 0 0-.442-.195m.442.01s.123-.194.493-.18c.17.008.329.087.443.22a.698.698 0 0 1 .163.489c0 .48-.436 1.087-1.1 1.28-.663-.193-1.097-.8-1.097-1.28a.698.698 0 0 1 .163-.488.623.623 0 0 1 .442-.222c.37-.013.493.182.493.182"/>
                    <path d="M32.722 33.5c.068 0 .123.038.123.144 0 .107-.073.307-.123.307s-.124-.199-.124-.307c0-.108.056-.144.124-.144"/>
                    <path d="M32.722 35.178c.186.075.378.13.575.161a6.867 6.867 0 0 0-.166.189c-.15.176-.286.363-.408.562a4.499 4.499 0 0 0-.575-.75c.196-.033.39-.087.575-.162m0 3.433c-.397 0-.38-.746-.38-.753.005-.501.136-.992.38-1.421.245.429.376.92.38 1.42 0 .008.019.754-.38.754m0-6.26s.71-.033 1.096.36c.18.195.275.46.261.732 0 .331-.201.733-.544 1.022-.246.204-.518.37-.808.493a3.3 3.3 0 0 1-.807-.493c-.349-.288-.544-.69-.544-1.022a1.005 1.005 0 0 1 .26-.732c.387-.393 1.089-.36 1.089-.36m.982 2.833c.51-.484 1.063-.915 1.65-1.288a18.685 18.685 0 0 1 2.906-1.516 3.276 3.276 0 0 1-.415.964c-.352.56-1.053 1.296-2.39 1.651a5.537 5.537 0 0 1-1.751.189m-3.714-.189c-1.337-.35-2.04-1.091-2.391-1.651a3.304 3.304 0 0 1-.408-.964 18.81 18.81 0 0 1 2.905 1.516c.587.373 1.14.804 1.65 1.288A5.537 5.537 0 0 1 30 34.995m2.732-2.828s-.78-.027-1.212.413a1.16 1.16 0 0 0-.32.864c0 .393.227.84.622 1.167.2.173.416.323.646.446-.156.05-.317.086-.48.107a10.64 10.64 0 0 0-1.804-1.44 18.806 18.806 0 0 0-3.092-1.594l-.143-.055.02.158c.076.436.239.85.477 1.216.371.589 1.104 1.366 2.498 1.728a5.536 5.536 0 0 0 1.982.185c.092.097.18.193.26.288.163.19.312.393.446.607a3.282 3.282 0 0 0-.396 1.56c0 .024.017.545.208.762.071.09.177.143.288.143a.367.367 0 0 0 .289-.143c.191-.217.208-.738.208-.763a3.25 3.25 0 0 0-.396-1.56c.134-.213.282-.415.445-.606.081-.095.168-.191.26-.288a5.536 5.536 0 0 0 1.982-.185c1.394-.366 2.129-1.144 2.499-1.728.238-.365.401-.78.477-1.216l.019-.158-.136.055a18.73 18.73 0 0 0-3.093 1.594c-.648.41-1.252.893-1.803 1.44a2.691 2.691 0 0 1-.482-.107c.23-.123.448-.273.648-.446.396-.327.621-.774.621-1.167a1.165 1.165 0 0 0-.32-.864c-.432-.44-1.212-.413-1.212-.413"/>
                </g>
            </g>
        </g>
    </g>
</svg>
