<svg xmlns="http://www.w3.org/2000/svg" xmlns:xlink="http://www.w3.org/1999/xlink" width="50" height="50" viewBox="0 0 50 50">
    <defs>
        <circle id="a" cx="25" cy="25" r="25"/>
        <circle id="c" cx="23.059" cy="23.059" r="23.059"/>
    </defs>
    <g fill="none" fill-rule="evenodd">
        <mask id="b" fill="#fff">
            <use xlink:href="#a"/>
        </mask>
        <use fill="#FFF" xlink:href="#a"/>
        <g mask="url(#b)">
            <g transform="translate(.96 .96)">
                <mask id="d" fill="#fff">
                    <use xlink:href="#c"/>
                </mask>
                <g mask="url(#d)">
                    <path fill="#FFF" d="M4 3h40v42H4z"/>
                    <g fill-rule="nonzero">
                        <path fill="#5C272F" d="M16.23 28.17v4.499h.97v.711h-1.699v-5.21zM18.039 28.17h.894l.744 5.21h-.708l-.133-1.063h-.703L18 33.38h-.71l.749-5.21zm.465 1.559h-.04c-.083.588-.152 1.187-.23 1.778h.5l-.21-1.644-.02-.134zM21.979 31.182h-.196v2.198h-.728v-5.21h.728c.87 0 1.241.517 1.241 1.503 0 .516-.133.98-.4 1.183l.465 2.52h-.733l-.377-2.194zm.344-1.481c0-.535-.152-.772-.534-.772v1.54c.374.005.534-.239.534-.768zM24.697 32.308V28.17h.728v4.137c-.013.43-.153.746-.41.949a.929.929 0 0 1-.79.148.978.978 0 0 1-.625-.53 1.472 1.472 0 0 1-.121-.56V28.17h.729v4.137c0 .193.06.382.243.382.182 0 .246-.184.246-.382zM27.173 32.308v-.716h.682v.716c-.014.43-.154.746-.412.949a.928.928 0 0 1-.788.145.976.976 0 0 1-.622-.527 1.472 1.472 0 0 1-.121-.56V29.24c.02-.634.324-1.12.97-1.12a.871.871 0 0 1 .851.56c.076.176.118.367.122.56v.716h-.682v-.716c0-.2-.068-.382-.277-.382-.21 0-.239.199-.256.382v3.068c.01.189.075.382.256.382.216 0 .277-.168.277-.382zM29.021 31.11v2.27h-.728v-5.21h.728v2.154h.567V28.17h.73v5.209h-.73v-2.27zM32.523 28.17v.787h-.934v1.367h.678v.84h-.675v1.43h.933v.786h-1.668v-5.21zM16.904 38.361a.347.347 0 0 0 .227.14v.511a.613.613 0 0 1-.586-.312.852.852 0 0 1-.285.05.676.676 0 0 1-.667-.438c-.06-.14-.092-.29-.094-.444v-2.4c.016-.498.253-.883.76-.883a.684.684 0 0 1 .666.444c.06.138.093.287.095.438v2.4a1.371 1.371 0 0 1-.116.494zm-.453-.494v-2.4c0-.15-.043-.3-.191-.3-.148 0-.19.153-.19.3v2.4c0 .151.047.3.19.3.143 0 .19-.145.19-.3zM18.361 37.867V34.63h.572v3.237a.93.93 0 0 1-.322.743.658.658 0 0 1-.439.14.676.676 0 0 1-.667-.438c-.06-.14-.092-.29-.094-.444V34.63h.57v3.237c0 .151.048.3.19.3.141 0 .19-.145.19-.3zM19.919 34.63v4.07h-.57v-4.074zM21.6 38.7h-.445v-4.074h.445c.533 0 .813.11.967.42.153.31.169.82.169 1.618 0 .798-.021 1.302-.17 1.613-.147.311-.433.423-.966.423zm.487-.82c.033-.142.05-.287.052-.433v-.787-.787a2.032 2.032 0 0 0-.052-.432c-.059-.195-.17-.217-.366-.217V38.1c.199.004.31-.017.368-.217l-.002-.004zM23.69 34.63v4.07h-.571v-4.074zM23.91 34.63h1.647v.615h-.533V38.7h-.575v-3.455h-.533zM27.673 38.61a.663.663 0 0 1-.438.14.676.676 0 0 1-.667-.438c-.06-.14-.092-.29-.095-.444v-2.4c.016-.498.254-.883.76-.883a.684.684 0 0 1 .667.444c.06.138.092.287.095.438v2.4a.934.934 0 0 1-.322.743zm-.249-.743v-2.4c0-.15-.041-.3-.19-.3-.147 0-.19.153-.19.3v2.4c0 .151.048.3.19.3.143 0 .19-.145.19-.3zM29.325 37.867V34.63h.571v3.237a.93.93 0 0 1-.323.743.726.726 0 0 1-.616.114.765.765 0 0 1-.486-.413 1.146 1.146 0 0 1-.096-.444V34.63h.57v3.237c0 .151.048.3.19.3.141 0 .19-.145.19-.3zM30.883 34.63v4.07h-.57v-4.074zM32.935 34.63l-.231 2.977h-.538l-.231-2.977h1zm-.05 3.458v.612h-.898v-.616l.898.004z"/>
                        <path fill="#4E242E" d="M24.561 9.146h-.778c-.026 0-.039.013-.035.045l.203 2.454c-.001.01.003.021.01.029a.034.034 0 0 0 .027.01h.368c.01.001.02-.003.027-.01a.037.037 0 0 0 .01-.029l.203-2.454c.004-.031-.01-.045-.035-.045zM18.4 10.038l-.675.409c-.021.012-.028.03-.009.057l1.35 2.016a.037.037 0 0 0 .024.018c.01.002.02 0 .029-.005l.317-.192a.037.037 0 0 0 .02-.024.04.04 0 0 0-.005-.03l-1-2.228c-.014-.031-.031-.035-.051-.021zM29.945 10.038l.675.409c.021.012.028.03.008.057l-1.344 2.016a.037.037 0 0 1-.023.018c-.01.002-.02 0-.029-.005l-.317-.192a.037.037 0 0 1-.02-.024.04.04 0 0 1 .005-.03l.993-2.232c.012-.027.031-.031.052-.017z"/>
                        <path fill="#DABF49" d="M24.35 26.313v-7.221l-8.849.008v7.218h8.85v-.005zm-6.018-3.5h-1.415v-1.481h1.415v1.48z"/>
                        <path fill="#FFE649" d="M15.501 19.094l4.347-4.387h8.673l-4.169 4.385-8.85.002z"/>
                        <path fill="#FAD147" d="M32.51 26.313v-7.42l-3.985-4.186-4.173 4.385-.033 7.22h2.508v-4.987h1.414v4.988h4.268zm-1.429-3.5H29.66v-1.49h1.414l.01 1.52-.002-.03z"/>
                    </g>
                </g>
            </g>
        </g>
    </g>
</svg>
