<svg xmlns="http://www.w3.org/2000/svg" xmlns:xlink="http://www.w3.org/1999/xlink" width="50" height="50" viewBox="0 0 50 50">
    <defs>
        <circle id="a" cx="25" cy="25" r="25"/>
        <circle id="c" cx="23.059" cy="23.059" r="23.059"/>
    </defs>
    <g fill="none" fill-rule="evenodd">
        <mask id="b" fill="#fff">
            <use xlink:href="#a"/>
        </mask>
        <use fill="#FFF" xlink:href="#a"/>
        <g mask="url(#b)">
            <g transform="translate(.96 .96)">
                <mask id="d" fill="#fff">
                    <use xlink:href="#c"/>
                </mask>
                <g mask="url(#d)">
                    <path fill="#FFF" d="M4 3h40v42H4z"/>
                    <g fill-rule="nonzero">
                        <path fill="#FFF" stroke="#221F20" stroke-width=".78" d="M9.2 8.46h29.533v31.01H9.2z"/>
                        <path fill="#007DBF" d="M37.912 38.6V9.41h-27.9v29.216z"/>
                        <path fill="#FFF" d="M24.616 12.223c-.333-.84-.85-2.433-3.55-2.416-2.7.017-3.549 2.748-3.583 3.046-.035.298.133 1.924-.4 2.45-.534.527-2.232 1.574-3.099 2.852-.867 1.278-1.75 4.008-2.101 4.725-.351.717-1.283 1.383-1.875 1.443v.937s3.525.875 4.125 1.015c.6.14 1.7.298 1.918.56.217.262.716 2.205.716 2.205h1.817l.6 1.4h2.85l.515-.997-2.982.262-.267-.682.45-.018.383-.928-1.033.106s-.3-1.243 1.017-2.748c1.318-1.505 3.216-3.675 3.499-6.808 0 0 .35.053.55-.122 0 0 .018 2.362 1.05 4.288 1.032 1.927 2.501 2.712 3.584 3.044.883.147.3 1.156.133 1.576-.166.42-.233.7-.6.664l-2.117-.21.501.858h2.05s.4-.42.817-1.4c.417-.98.65-.998 1.133-.122.216.944.05 2.047-.066 2.31-.116.263-.502.157-.502.157l-2.232-.227.583.997h2.35s.134.175.433-1.26c.298-1.435.666-1.575 1.584-1.663.917-.088 2.366.21 3.133.21.654 0 1.302-.118 1.917-.35v-.857s-1.101.245-2.333-3.483c-1.232-3.728-1.817-4.392-4.584-7.332 0 0-.317-.192-.317-.735 0-.543-.116-3.447-2.616-4.13-2.5-.683-3.451 1.383-3.451 1.383z"/>
                        <path fill="#221F20" d="M24.667 13.22c-.19 0-.844-3.174-3.223-2.929-2.379.245-3.377 1.33-3.544 3.233.033 1.131-.05 1.656-.35 1.99-.302.332-2.467 1.82-3.134 2.833-.667 1.013-1.832 4.166-1.832 4.166s-.517 1.714-2.084 2.17c0 0-.2.174.316.262.516.088 5.184 1.435 6.501 1.242 1.318-.193 1.334-.297 1.95-1.382.616-1.085 2.033-1.208 2.533-4.69s.533-3.272.85-3.535c.318-.263.65 1.453.833 1.575.182.122.533.262 2.284-.91.249-.192.284-.298.35-.262.067.037.583 1.172 2.15 1.102 1.566-.07 1.866-.158 2.482.77.616.928.651 3.378.684 4.725.034 1.347.034 2.38.434 2.993s2.366.052 3.282.542c0 0 2.084.14 2.051-.21-.033-.35-.816-.21-1.85-2.975-.717-2.695-1.517-4.445-3.65-6.755 0 0-1.217-1.26-1.35-1.558-.134-.298-.217-.927-.233-1.347-.016-.42-.417-2.923-2.901-3.08-2.483.193-2.25 2.03-2.55 2.03z"/>
                        <path fill="#FFF" d="M24.377 13.885c.034-.374-.2-2.019-1.354-2.1-.556.094-.623.234-1.29.21-.666-.024-1.056-.374-1.333-.35 0 0-.077.024.256.56s.21 1.424.21 1.424-.043 1.002.657 1.551c.221.326.733-.081.733-.081s.377.127.933-.21c.556-.338.344-.398.655-.608.31-.21.533-.396.533-.396z"/>
                        <path fill="#221F20" d="M23.633 12.776c.044.223-.056.805-.389.783-.333-.023-.055-.245-.344-.433-.29-.187-.544-.35-1.233-.361 0 0-.367-.094.077-.175.444-.081.823-.129 1.19.094.366.222.233.267.489.127s.21-.035.21-.035z"/>
                        <path fill="#FFF" d="M25.21 15.659c-.343-.363-.333-1.109-.343-1.343-.011-.234-.356-.081-.456.129-.1.21-.988 1.201-1.011 2.345-.023 1.144.323 1.155.377 1.155.055 0 .379.046 1.523-.724s1.123-1.12.833-1.155a1.54 1.54 0 0 1-.922-.407z"/>
                        <path fill="#221F20" d="M24.59 14.841c.038.301.066 1.424 1.087 1.435 0 0 .3.059-.133.304s-1.11.455-1.2-.199c-.09-.654 0-1.492.245-1.54z"/>
                        <path fill="#221F20" d="M24.667 17.116c-.28-.053-.69.094-.656-1.341a1.327 1.327 0 0 0-.311 1.015c.067.63.277.91.967.326z"/>
                        <path fill="#FFF" d="M27.144 13.441c-.567 0-2.044.433-1.977 1.448.066 1.015 1.2.967 1.2.967a.366.366 0 0 1 .31.269c.167.046 1 .409 2-.7.6-1.039.69-2.089.556-2.124-.133-.035-.444.21-.966.223-.376 0-.751-.027-1.123-.083z"/>
                        <path fill="#221F20" d="M26.544 13.979c-.077.175-.188.641.09.851.277.21.677-.21.677-.21s.456-.315.733-.374c0 0-.033-.221-.788.105s-.712-.372-.712-.372z"/>
                        <path fill="#007DBF" d="M17.216 28.402s-.283-.929-.257-1.165a.943.943 0 0 1 .833.21c.392.341.583.753.567.84l-1.143.115z"/>
                        <path fill="#FFF" d="M16.584 31.788h-2.5v5.057h4.633v-1.907h-2.133zM22.4 35.743v1.084h-2.45v-5.074h4.383s1.883-.036 1.883 1.994-1.765 1.978-1.765 1.978l-2.051.018z"/>
                        <path fill="#007DBF" d="M23.433 34.307H22.4v-.98h.984s.45.018.45.456c0 .252-.167.47-.4.524z"/>
                        <path fill="#FFF" d="M30.6 31.385c-2.584 0-3.384 1.242-3.384 2.87 0 1.628.568 2.94 3.35 2.94 2.783 0 3.218-1.365 3.218-2.87 0-1.505-.733-2.94-3.184-2.94z"/>
                        <path fill="#007DBF" d="M29.767 34.29c0 .91.516 1.067.75 1.067.235 0 .783-.104.783-1.014s-.6-1.05-.783-1.05c-.182 0-.75.14-.75.997z"/>
                    </g>
                </g>
            </g>
        </g>
    </g>
</svg>
