<svg xmlns="http://www.w3.org/2000/svg" xmlns:xlink="http://www.w3.org/1999/xlink" width="50" height="50" viewBox="0 0 50 50">
    <defs>
        <circle id="a" cx="25" cy="25" r="25"/>
        <circle id="c" cx="31.039" cy="31.039" r="30.5"/>
        <path id="e" d="M.013.14h5.899v5.638H.013z"/>
    </defs>
    <g fill="none" fill-rule="evenodd">
        <mask id="b" fill="#fff">
            <use xlink:href="#a"/>
        </mask>
        <use fill="#FFF" xlink:href="#a"/>
        <g mask="url(#b)">
            <g transform="translate(-7.54 -7.54)">
                <mask id="d" fill="#fff">
                    <use xlink:href="#c"/>
                </mask>
                <g mask="url(#d)">
                    <g transform="translate(12.15 29.995)">
                        <mask id="f" fill="#fff">
                            <use xlink:href="#e"/>
                        </mask>
                        <path fill="#D8232A" fill-rule="nonzero" d="M5.033.14l-1.79 4.323L1.251.14H0v.247c.264 0 .576.097.576.517v4.874h.46V1.592l1.927 4.186h.232l1.92-4.623v4.622h.797L5.91.139h-.877" mask="url(#f)"/>
                    </g>
                    <path fill="#D8232A" fill-rule="nonzero" d="M29.436 30.133l-.003 4.092-3.32-4.09h-1.21v.246c.262 0 .575.098.575.518v4.873h.458V31.21l3.814 4.701h.144v-5.776l-.458-.002M21.76 35.577c-1.074 0-1.943-.886-1.943-2.623 0-1.736.87-2.62 1.943-2.62s1.943.883 1.943 2.62-.87 2.623-1.943 2.623m.01-5.59c-1.554 0-2.814 1.326-2.814 2.962 0 1.636 1.26 2.962 2.813 2.962 1.554 0 2.814-1.326 2.814-2.962 0-1.636-1.26-2.962-2.814-2.962M33.56 35.577c-1.075 0-1.945-.886-1.945-2.623 0-1.736.87-2.62 1.945-2.62 1.073 0 1.944.883 1.944 2.62s-.871 2.623-1.944 2.623m.009-5.59c-1.554 0-2.814 1.326-2.814 2.962 0 1.636 1.26 2.962 2.814 2.962s2.814-1.326 2.814-2.962c0-1.636-1.26-2.962-2.814-2.962M38.595 32.971c-.183 0-.357-.026-.518-.067l.002-2.078c0-.256-.032-.292-.07-.35h.586c.678 0 1.23.36 1.23 1.23 0 .956-.56 1.265-1.23 1.265m.342-2.836h-2.234v.246c.262 0 .576.098.576.518v4.873h.797v-2.521a3.9 3.9 0 0 0 .882.064c.896-.045 1.71-.628 1.71-1.597 0-1-.798-1.583-1.731-1.583M42.955 32.817c-.184 0-.382-.012-.529-.033v-1.98c0-.257-.046-.293-.07-.33h.599c.677 0 1.228.275 1.228 1.164 0 .868-.558 1.179-1.228 1.179m.893.187c.581-.17 1.179-.618 1.179-1.375 0-.985-.775-1.495-1.731-1.495h-2.24l.001.247c.262 0 .576.096.576.518v4.873h.792l.004-2.638c.107.007.23.015.33.02.228.017.619-.03 1.048.761.166.306.919 1.735.986 1.858h.936s-.826-1.533-1.002-1.841c-.21-.37-.476-.772-.88-.928M46.044 30.381c.262 0 .576.098.576.518v4.873h.797l.001-5.637h-1.374v.246M51.03 32.733l1.834-2.598h-.57l-1.536 2.177-1.417-2.177h-1.158l-.001.246c.18 0 .374.034.495.212l1.58 2.432-1.936 2.75h.572l1.635-2.328 1.507 2.328h.973l-1.978-3.042"/>
                </g>
            </g>
        </g>
    </g>
</svg>
