<svg xmlns="http://www.w3.org/2000/svg" xmlns:xlink="http://www.w3.org/1999/xlink" width="42" height="44" viewBox="0 0 42 44">
    <defs>
        <path id="a" d="M.01.1H4.3v4.084H.01z"/>
    </defs>
    <g fill="none" fill-rule="evenodd">
        <path fill="#FFF" d="M.922.922h40v42h-40z"/>
        <g transform="translate(6.122 19.746)">
            <mask id="b" fill="#fff">
                <use xlink:href="#a"/>
            </mask>
            <path fill="#D8232A" fill-rule="nonzero" d="M3.66.1L2.36 3.233.909.101H0v.178c.192 0 .42.07.42.375v3.53h.333v-3.03l1.402 3.03h.168L3.72.836v3.347h.58L4.299.101H3.66" mask="url(#b)"/>
        </g>
        <path fill="#D8232A" fill-rule="nonzero" d="M18.693 19.846l-.002 2.963-2.414-2.962h-.88v.178c.19 0 .417.07.417.375v3.53h.333v-3.305l2.775 3.405h.105l-.001-4.183-.333-.001M13.11 23.788c-.78 0-1.413-.642-1.413-1.9 0-1.257.633-1.898 1.414-1.898.78 0 1.412.64 1.412 1.898s-.632 1.9-1.412 1.9m.006-4.048c-1.13 0-2.045.96-2.045 2.144 0 1.185.915 2.146 2.045 2.146s2.047-.96 2.047-2.146c0-1.184-.916-2.144-2.047-2.144M21.692 23.788c-.781 0-1.414-.642-1.414-1.9 0-1.257.633-1.898 1.414-1.898.78 0 1.414.64 1.414 1.898s-.633 1.9-1.414 1.9m.007-4.048c-1.13 0-2.046.96-2.046 2.144 0 1.185.916 2.146 2.046 2.146s2.047-.96 2.047-2.146c0-1.184-.917-2.144-2.047-2.144M25.354 21.9c-.133 0-.26-.018-.376-.048l.001-1.505c0-.185-.023-.211-.051-.254h.426c.494 0 .894.262.894.891 0 .693-.406.917-.894.917m.249-2.054h-1.625v.178c.19 0 .419.071.419.375v3.53h.58v-1.827c.272.047.473.056.641.047.652-.033 1.244-.455 1.244-1.157 0-.724-.58-1.146-1.26-1.146M28.525 21.789c-.133 0-.278-.009-.384-.024v-1.434c0-.186-.034-.212-.052-.239h.436c.493 0 .893.2.893.843 0 .629-.406.854-.893.854m.65.136c.422-.124.857-.448.857-.996 0-.714-.563-1.083-1.26-1.083h-1.627v.179c.19 0 .419.07.419.375v3.53h.576l.003-1.911.24.014c.166.013.45-.021.762.551.12.221.668 1.257.717 1.346h.68s-.6-1.11-.728-1.334c-.153-.268-.346-.559-.64-.671M30.772 20.025c.19 0 .419.07.419.375v3.53h.58v-4.083h-1v.178M34.398 21.728l1.334-1.881h-.415L34.2 21.423l-1.03-1.576h-.843v.178c.13 0 .272.025.36.153l1.148 1.762-1.407 1.99h.415l1.19-1.685 1.096 1.686h.708l-1.439-2.203"/>
    </g>
</svg>
