<svg xmlns="http://www.w3.org/2000/svg" xmlns:xlink="http://www.w3.org/1999/xlink" width="50" height="50" viewBox="0 0 50 50">
    <defs>
        <circle id="a" cx="25" cy="25" r="25"/>
    </defs>
    <g fill="none" fill-rule="evenodd">
        <mask id="b" fill="#fff">
            <use xlink:href="#a"/>
        </mask>
        <use fill="#FFF" xlink:href="#a"/>
        <g mask="url(#b)">
            <path fill="#FFF" d="M0 1h49v49H0z"/>
            <g fill-rule="nonzero">
                <path fill="#F47216" d="M25.916 26.857l-.1.063-.011.005.01.002c.655.18 1.304.173 1.429-.236.161-.528-.882-1.094-1.373-1.364-.106-.058-.152-.022-.084.055.31.358.753 1.062.129 1.475"/>
                <path fill="#231F20" d="M31.565 24.543h-.552v-.463h.552v-.685h.535v.685h.88v.463h-.88v1.392c0 .348.097.53.543.53.17 0 .362-.048.362-.048v.482c-.185.025-.32.04-.531.04-.844 0-.91-.608-.91-.941v-1.455zM39.224 26.945h-.549v-2.868h.549zM40.192 25.49c0 .782.644.976.949.976.582 0 .993-.329.993-.987 0-.658-.467-.96-.999-.96-.301 0-.943.178-.943.971m-.557-.005c0-1.079.872-1.445 1.477-1.445.688 0 1.022.394 1.022.394l.028-.356h.5v2.873h-.5l-.028-.38s-.344.38-1.028.38c-.687 0-1.471-.398-1.471-1.466M39.308 23.415a.358.358 0 1 0-.717 0 .358.358 0 0 0 .717 0M38.275 24.57v-.485c-.541-.05-.921.08-1.217.39l-.029-.396h-.52v2.87h.549v-1.487c0-.415.334-.941 1.217-.891M33.112 25.496c0-.898.663-1.474 1.55-1.474.879 0 1.483.643 1.483 1.424 0 0 0 .122-.011.233l-2.451.01c.023.443.534.777 1.062.777.569 0 .905-.352.905-.352l.393.345c-.398.382-.832.498-1.298.498-.966 0-1.633-.564-1.633-1.44v-.021zm2.431-.247c0-.39-.392-.714-.875-.714-.516 0-.942.318-.977.714h1.852zM29.839 25.237c-.552-.098-1.095-.167-1.095-.424 0-.168.167-.316.65-.316.36 0 .773.083.885.338l.51-.214c-.195-.39-.771-.579-1.433-.579-.579 0-1.2.219-1.2.805 0 .507.462.665 1.223.808.51.095.978.144.978.418 0 .173-.23.395-.807.395-.41 0-.824-.086-.95-.378l-.494.207c.202.45.74.684 1.361.684 1.242 0 1.482-.59 1.482-.926 0-.559-.556-.719-1.11-.818M14.041 24.52c-.531 0-.998.301-.998.959 0 .658.41.987.992.987.306 0 .949-.124.949-.975 0-.853-.641-.972-.943-.972m.029 2.433c-.687 0-1.027-.437-1.027-.437v1.209h-.53v-3.646h.501l.029.356s.333-.394 1.021-.394c.605 0 1.477.308 1.477 1.444 0 1.137-.784 1.468-1.471 1.468M18.161 25.49c0 .782.643.976.949.976.582 0 .993-.329.993-.987 0-.658-.467-.96-.999-.96-.301 0-.943.178-.943.971m-.557-.005c0-1.079.871-1.445 1.477-1.445.688 0 1.022.394 1.022.394l.028-.356h.5v2.873h-.499l-.03-.38s-.342.38-1.027.38c-.687 0-1.471-.398-1.471-1.466M17.644 24.57v-.485c-.541-.05-.921.08-1.218.39l-.028-.396h-.52v2.87h.548v-1.487c0-.415.335-.941 1.218-.891M7.688 25.237c-.552-.098-1.095-.167-1.095-.424 0-.168.167-.316.65-.316.359 0 .773.083.885.338l.51-.214c-.196-.39-.772-.579-1.433-.579-.579 0-1.2.219-1.2.805 0 .507.462.665 1.223.808.509.095.978.144.978.418 0 .173-.231.395-.808.395-.41 0-.824-.086-.95-.378l-.493.207c.202.45.739.684 1.361.684 1.242 0 1.482-.59 1.482-.926 0-.559-.556-.719-1.11-.818M10.619 24.04c-.733 0-1.602.366-1.602 1.445 0 1.068.781 1.483 1.602 1.483.82 0 1.601-.415 1.601-1.483 0-1.079-.868-1.445-1.601-1.445m0 2.426c-.45 0-1.044-.195-1.044-.976 0-.793.658-.955 1.044-.955s1.044.162 1.044.955c0 .781-.593.976-1.044.976"/>
                <path fill="#DB1D2B" d="M25.806 26.925s-.826.519-2.281.519c-.564 0-1.04-.087-1.24-.284-.212-.208-.327-.559-.327-.881 0-.276.115-.509.354-.509.614 0 2.527.973 3.494 1.155"/>
                <path fill="#F47216" d="M23.056 23.918c.03-.02.067-.042.1-.062l.01-.006-.01-.001c-.655-.18-1.303-.173-1.428.236-.161.527.881 1.094 1.373 1.364.105.057.151.021.084-.056-.31-.358-.753-1.061-.129-1.475"/>
                <path fill="#DB1D2B" d="M23.166 23.85s.825-.518 2.281-.518c.564 0 1.04.086 1.24.284.212.208.326.558.326.88 0 .277-.114.51-.353.51-.614 0-2.527-.974-3.494-1.156"/>
            </g>
        </g>
    </g>
</svg>
