<svg xmlns="http://www.w3.org/2000/svg" xmlns:xlink="http://www.w3.org/1999/xlink" width="50" height="50" viewBox="0 0 50 50">
    <defs>
        <circle id="a" cx="25" cy="25" r="25"/>
    </defs>
    <g fill="none" fill-rule="evenodd">
        <mask id="b" fill="#fff">
            <use xlink:href="#a"/>
        </mask>
        <use fill="#FFF" xlink:href="#a"/>
        <g fill-rule="nonzero" mask="url(#b)">
            <path fill="#F47216" d="M25.676 26.607l-.119.074-.012.006.012.002c.775.212 1.543.205 1.69-.28.192-.624-1.042-1.294-1.625-1.614-.124-.068-.179-.025-.099.066.368.423.891 1.256.153 1.746"/>
            <path fill="#231F20" d="M32.362 23.867h-.653v-.548h.653v-.811h.634v.811h1.042v.548h-1.042v1.648c0 .412.115.628.643.628.202 0 .429-.058.429-.058v.57c-.22.03-.38.048-.63.048-.998 0-1.076-.72-1.076-1.114v-1.722zM41.428 26.711h-.649v-3.395h.649zM42.574 24.989c0 .924.762 1.155 1.123 1.155.69 0 1.175-.39 1.175-1.169s-.552-1.136-1.181-1.136c-.357 0-1.117.21-1.117 1.15m-.66-.007c0-1.277 1.033-1.71 1.75-1.71.814 0 1.208.467 1.208.467l.034-.423h.593v3.402h-.594l-.033-.45s-.406.45-1.216.45c-.813 0-1.742-.472-1.742-1.736M41.528 22.533a.424.424 0 1 0-.848 0 .424.424 0 0 0 .848 0M40.305 23.9v-.575c-.64-.059-1.09.095-1.44.461l-.035-.468h-.615v3.397h.65v-1.76c0-.491.395-1.114 1.44-1.055M34.194 24.995c0-1.062.785-1.744 1.833-1.744 1.042 0 1.757.76 1.757 1.685 0 0 0 .144-.014.275l-2.9.013c.027.524.632.92 1.257.92.673 0 1.071-.417 1.071-.417l.465.408c-.471.453-.985.59-1.536.59-1.144 0-1.933-.668-1.933-1.704v-.026zm2.877-.292c0-.461-.464-.846-1.035-.846-.61 0-1.116.377-1.157.846h2.192zM30.32 24.69c-.654-.118-1.296-.2-1.296-.504 0-.198.197-.373.769-.373.425 0 .915.099 1.048.4l.602-.253c-.23-.463-.912-.686-1.695-.686-.685 0-1.42.26-1.42.953 0 .6.547.787 1.448.956.602.114 1.157.17 1.157.495 0 .205-.273.468-.956.468-.485 0-.975-.102-1.125-.447l-.584.245c.24.533.875.81 1.612.81 1.47 0 1.754-.7 1.754-1.097 0-.661-.658-.85-1.314-.968M11.62 23.84c-.629 0-1.182.356-1.182 1.135 0 .78.487 1.169 1.175 1.169.362 0 1.123-.147 1.123-1.155 0-1.01-.76-1.15-1.116-1.15m.034 2.88c-.813 0-1.216-.517-1.216-.517v1.43h-.627v-4.316h.594l.033.422s.394-.466 1.21-.466c.716 0 1.748.365 1.748 1.71 0 1.344-.929 1.736-1.742 1.736M16.497 24.989c0 .924.761 1.155 1.123 1.155.689 0 1.175-.39 1.175-1.169s-.553-1.136-1.182-1.136c-.357 0-1.116.21-1.116 1.15m-.66-.007c0-1.277 1.032-1.71 1.75-1.71.813 0 1.208.467 1.208.467l.034-.423h.592v3.402h-.591l-.035-.45s-.406.45-1.216.45c-.813 0-1.742-.472-1.742-1.736M15.884 23.9v-.575c-.64-.059-1.09.095-1.44.461l-.034-.468h-.616v3.397h.65v-1.76c0-.491.395-1.114 1.44-1.055M4.1 24.69c-.654-.118-1.296-.2-1.296-.504 0-.198.197-.373.769-.373.425 0 .915.099 1.048.4l.603-.253c-.231-.463-.913-.686-1.696-.686-.685 0-1.42.26-1.42.953 0 .6.546.787 1.448.956.602.114 1.157.17 1.157.495 0 .205-.273.468-.956.468-.485 0-.975-.102-1.125-.447l-.583.245c.239.533.874.81 1.61.81 1.47 0 1.755-.7 1.755-1.097 0-.661-.658-.85-1.314-.968M7.57 23.272c-.869 0-1.896.433-1.896 1.71 0 1.264.924 1.755 1.895 1.755s1.896-.49 1.896-1.755c0-1.277-1.028-1.71-1.896-1.71m0 2.872c-.533 0-1.236-.231-1.236-1.155 0-.94.78-1.13 1.236-1.13.457 0 1.236.19 1.236 1.13 0 .924-.702 1.155-1.236 1.155"/>
            <path fill="#DB1D2B" d="M25.546 26.687s-.977.614-2.7.614c-.668 0-1.23-.103-1.468-.336-.25-.247-.386-.662-.386-1.043 0-.327.135-.602.418-.602.727 0 2.99 1.152 4.136 1.367"/>
            <path fill="#F47216" d="M22.29 23.128c.037-.024.08-.05.12-.074l.012-.007-.013-.001c-.775-.213-1.543-.205-1.69.279-.191.624 1.043 1.295 1.625 1.614.125.069.179.026.1-.065-.368-.424-.892-1.257-.153-1.746"/>
            <path fill="#DB1D2B" d="M22.42 23.047s.978-.613 2.701-.613c.668 0 1.23.102 1.468.336.25.246.386.661.386 1.043 0 .326-.136.601-.419.601-.727 0-2.99-1.151-4.135-1.367"/>
        </g>
    </g>
</svg>
