<svg xmlns="http://www.w3.org/2000/svg" xmlns:xlink="http://www.w3.org/1999/xlink" width="50" height="50" viewBox="0 0 50 50">
    <defs>
        <circle id="a" cx="25" cy="25" r="25"/>
        <circle id="c" cx="23.059" cy="23.059" r="23.059"/>
    </defs>
    <g fill="none" fill-rule="evenodd">
        <mask id="b" fill="#fff">
            <use xlink:href="#a"/>
        </mask>
        <use fill="#FFF" xlink:href="#a"/>
        <g mask="url(#b)">
            <g transform="translate(.96 .96)">
                <mask id="d" fill="#fff">
                    <use xlink:href="#c"/>
                </mask>
                <g mask="url(#d)">
                    <path fill="#FFF" d="M4 3h40v42H4z"/>
                    <g fill-rule="nonzero" transform="translate(9.867 11.68)">
                        <path fill="#00453C" d="M3.886 24.524h-.482V22.37h-.497v-.44h1.477v.44h-.498z"/>
                        <path fill="#00453C" d="M5.799 23.681c0 .523-.34.898-.845.898-.504 0-.845-.375-.845-.898 0-.522.344-.9.845-.9.502 0 .845.374.845.9zm-1.225 0c0 .227.144.471.38.471.236 0 .38-.244.38-.47 0-.235-.144-.475-.38-.475-.235 0-.38.24-.38.474zM7.594 23.681c0 .523-.34.898-.845.898-.505 0-.845-.375-.845-.898 0-.522.344-.9.845-.9.5 0 .845.374.845.9zm-1.225 0c0 .227.144.471.38.471.235 0 .38-.244.38-.47 0-.235-.145-.475-.38-.475-.236 0-.38.24-.38.474zM10.95 23.145v.065c0 .733-.356 1.382-1.123 1.382-.72 0-1.176-.639-1.176-1.354 0-.74.468-1.376 1.205-1.376.42 0 .786.223.976.62l-.426.24c-.098-.234-.308-.413-.563-.413-.465 0-.694.499-.694.929 0 .43.232.908.697.908.301 0 .554-.276.564-.589h-.524v-.412h1.065zM12.755 23.681c0 .523-.34.898-.844.898-.505 0-.845-.375-.845-.898 0-.522.344-.9.845-.9.5 0 .844.374.844.9zm-1.224 0c0 .227.144.471.38.471.236 0 .38-.244.38-.47 0-.235-.145-.475-.38-.475-.236 0-.38.24-.38.474zM14.55 23.681c0 .523-.34.898-.845.898-.504 0-.844-.375-.844-.898 0-.522.344-.9.845-.9s.844.374.844.9zm-1.225 0c0 .227.144.471.38.471.236 0 .38-.244.38-.47 0-.235-.144-.475-.38-.475-.236 0-.38.24-.38.474zM15.83 24.368h-.007a.528.528 0 0 1-.432.213c-.472 0-.74-.451-.74-.908 0-.448.271-.891.733-.891a.557.557 0 0 1 .44.208h.006v-1.383h.458v2.917h-.458v-.156zm.047-.688c0-.227-.144-.471-.38-.471-.236 0-.38.244-.38.471 0 .227.144.475.382.475.237 0 .378-.25.378-.477v.002zM18.38 24.524h-.482V22.37H17.4v-.44h1.477v.44h-.498z"/>
                        <path fill="#00453C" d="M20.292 23.681c0 .523-.34.898-.845.898-.505 0-.845-.375-.845-.898 0-.522.344-.9.845-.9s.845.374.845.9zm-1.225 0c0 .227.144.471.38.471.236 0 .38-.244.38-.47 0-.235-.144-.475-.38-.475-.236 0-.378.24-.378.474h-.002zM23.649 23.145v.065c0 .733-.357 1.382-1.123 1.382-.72 0-1.177-.639-1.177-1.354 0-.74.469-1.376 1.205-1.376.42 0 .786.223.977.62l-.426.24c-.099-.234-.308-.413-.564-.413-.465 0-.694.499-.694.929 0 .43.233.908.698.908.3 0 .553-.276.563-.589h-.523v-.412h1.064zM25.454 23.681c0 .523-.34.898-.845.898-.504 0-.845-.375-.845-.898 0-.522.344-.9.845-.9s.845.374.845.9zm-1.225 0c0 .227.144.471.38.471.236 0 .38-.244.38-.47 0-.235-.144-.475-.38-.475-.236 0-.38.24-.38.474z"/>
                        <ellipse cx="17.997" cy="11.278" fill="#B8DDD9" rx="9.664" ry="5.632" transform="rotate(-48.89 17.997 11.278)"/>
                        <ellipse cx="14.445" cy="9.843" fill="#87C7C0" rx="5.553" ry="9.786"/>
                        <ellipse cx="10.364" cy="11.277" fill="#48B1AB" rx="5.632" ry="9.664" transform="rotate(-41.11 10.364 11.277)"/>
                    </g>
                </g>
            </g>
        </g>
    </g>
</svg>
