<svg xmlns="http://www.w3.org/2000/svg" xmlns:xlink="http://www.w3.org/1999/xlink" width="170" height="121" viewBox="0 0 170 121">
    <defs>
        <path id="b" d="M55.137 69.106c0 .73.201 1.462.606 2.194a10.522 10.522 0 0 1-.212-1.89c-.021-.69-.03-1.442-.03-2.255-.243.692-.364 1.341-.364 1.95zM49.26 62.28c-1.591 2.204-2.517 4.502-2.778 6.893.062-.055.122-.109.183-.16.53-2.245 1.392-4.489 2.595-6.733zM37.566 76.54c0-.811.151-1.837.454-3.077a41.738 41.738 0 0 1 1.06-3.626c.445-1.341.95-2.722 1.515-4.144-.081 0-.242.243-.484.73-.082.245-.273.732-.576 1.464a36.406 36.406 0 0 0-.909 2.468 41 41 0 0 0-.818 2.804c-.242.955-.363 1.777-.363 2.468 0 .285.04.59.12.914zm-15.602 5.608c1.232.162 2.413.427 3.544.793-2.585-.935-5.09-1.402-7.513-1.402-1.778 0-3.514.243-5.21.731a39.655 39.655 0 0 1 5.27-.366c1.374 0 2.676.082 3.909.244zm-12.39-21.27l.423.122a109.7 109.7 0 0 1 1.242-3.109 197.44 197.44 0 0 1 1.303-3.047 38.987 38.987 0 0 0-4.756 2.042c-1.556.792-2.919 1.737-4.09 2.834 1.01.163 1.989.345 2.939.548a222 222 0 0 0 2.938.61zm-4.818-6.25c-.424.267-.636.42-.636.46.08 0 .16-.02.242-.061a39.07 39.07 0 0 1 2.658-1.645c-.214.111-.425.22-.628.327-.666.347-1.211.654-1.636.92zm6.09-3.187a74.32 74.32 0 0 0-1.717.851c.29-.136.58-.269.868-.392 1.818-.777 3.353-1.328 4.605-1.655l.121-.307-.727.123c-.202.04-.596.194-1.181.46-.586.266-1.242.572-1.97.92zm3.15.112l.122-.305-.304.061c-.566.204-1.172.437-1.817.701-.647.265-1.354.62-2.12 1.066a32.35 32.35 0 0 0-1.243.67c-.505.286-1 .56-1.484.824-.485.265-.91.518-1.273.762-.363.243-.545.386-.545.426a113.371 113.371 0 0 1 4.817-2.56c1.394-.69 2.675-1.238 3.847-1.645zM5.998 78.308c.364-2.438 1.03-5.768 2-9.995-1.333 4.348-2 7.68-2 9.995zm23.358-30.564a10.3 10.3 0 0 1-.818.03c1.736 0 3.352.144 4.847.432 1.494.287 2.787.678 3.878 1.171 1.09.493 1.959 1.059 2.605 1.696.646.637.97 1.304.97 2.003 0-1.478-.92-2.742-2.757-3.79-1.838-1.048-4.474-1.573-7.907-1.573-.283 0-.556.01-.818.03zm30.083 18.71a17.385 17.385 0 0 0-1 2.438c-.303.914-.454 1.981-.454 3.2 0 .244.009.487.03.731.02.244.05.509.09.793 0 .57-.282.853-.848.853-.889 0-1.555-.497-1.999-1.493-.445-.995-.666-2.408-.666-4.236v-.64c0-.223.02-.457.06-.7a101.903 101.903 0 0 0-3.878 7.069c-1.172 2.357-1.98 4.632-2.423 6.826-.122.529-.445.792-.97.792-1.252 0-2.12-.467-2.605-1.402-.485-.934-.727-2.133-.727-3.595 0-.137.003-.277.006-.417-.398.6-.813 1.177-1.248 1.727-.788.996-1.616 1.828-2.484 2.499-.87.67-1.748 1.005-2.636 1.005-.727 0-1.445-.426-2.15-1.28-.708-.853-1.061-2.214-1.061-4.083a21.508 21.508 0 0 1-2.696 3.413c-.99 1.016-2.01 1.524-3.06 1.524a3.215 3.215 0 0 1-1.606-.427c-.046-.026-.089-.055-.133-.082.044.037.09.074.133.113.828.752 1.242 1.757 1.242 3.016 0 .203-.04.397-.121.58a.43.43 0 0 1-.424.274.58.58 0 0 1-.424-.183 2.41 2.41 0 0 1-.303-.366c-.324-.406-.788-.742-1.394-1.005a9.413 9.413 0 0 0-2.06-.61 21.704 21.704 0 0 0-2.454-.304 36.666 36.666 0 0 0-2.575-.092c-2.706 0-5.232.152-7.573.457-2.344.305-4.727.904-7.15 1.798-.364 0-.667-.183-.909-.549a4.112 4.112 0 0 1-.545-1.249 12.214 12.214 0 0 1-.273-1.34 7.51 7.51 0 0 1-.09-.945c0-.406.08-.721.241-.945.161-.223.374-.375.637-.457.262-.081.575-.132.939-.153.363-.02.747-.07 1.151-.152.04-1.544.282-3.24.727-5.09a59.846 59.846 0 0 1 1.515-5.271c-.445.204-.92.478-1.424.823-.506.346-.98.691-1.424 1.036-.445.346-.828.65-1.151.914-.324.265-.526.396-.606.396-.283 0-.475-.122-.576-.365a2.208 2.208 0 0 1-.151-.854c0-.853.212-1.726.636-2.62a8.527 8.527 0 0 1 1.666-2.377 18.065 18.065 0 0 1 3.818-2.072 58.222 58.222 0 0 0-2.878-.427 22.21 22.21 0 0 0-2.697-.183c-.323 0-.616.041-.878.122a2.257 2.257 0 0 1-.637.122c-.445 0-.717-.274-.817-.823C.05 61.64 0 61.224 0 60.938a7.02 7.02 0 0 1 1.363-4.205c.91-1.259 2.09-2.376 3.545-3.352 1.454-.975 3.08-1.828 4.877-2.56a47.641 47.641 0 0 1 5.363-1.828c.12-.284.242-.599.363-.945.121-.344.262-.66.424-.944.161-.284.373-.518.636-.701a1.6 1.6 0 0 1 .94-.274c.484 0 .989.196 1.514.587.525.393.888.745 1.09 1.058a82.269 82.269 0 0 1 4.03-.474 45.176 45.176 0 0 1 4.211-.196c1.535 0 3.05.091 4.544.274 1.495.183 2.909.498 4.242.945.565.203 1.12.437 1.666.7.545.265 1.04.58 1.485.945.443.366.807.803 1.09 1.31.282.51.424 1.067.424 1.677 0 1.382-.606 2.681-1.817 3.9l-.243.244c-.202 0-.384.091-.545.274-.162.183-.344.275-.545.275-.082 0-.122-.04-.122-.122 0-.081-.04-.122-.12-.122-.082 0-.132.03-.152.091-.021.061-.051.092-.091.092s-.142-.061-.303-.183c-.162-.122-.242-.345-.242-.67 0-.123.01-.265.03-.427.02-.162.03-.366.03-.61 0-.162-.01-.314-.03-.457-.02-.142-.091-.314-.212-.518-.283-.61-.758-1.086-1.424-1.432a9.23 9.23 0 0 0-2.212-.792 16.6 16.6 0 0 0-2.423-.366 27.625 27.625 0 0 0-2-.092c-3.312 0-6.463.265-9.452.793a163.393 163.393 0 0 0-2 4.296 828.025 828.025 0 0 0-1.938 4.358 93.517 93.517 0 0 1 4.15-.304c.828-.04 1.626-.082 2.393-.122.767-.04 1.333-.061 1.697-.061.687 0 1.03.386 1.03 1.157 0 .326-.06.67-.182 1.037a8.043 8.043 0 0 1-.424 1.036c-.162.325-.333.59-.515.792-.182.204-.333.305-.454.305-.526.04-1.233.102-2.121.183-.889.081-1.808.163-2.757.243-.95.082-1.869.174-2.757.275-.888.102-1.575.213-2.06.335l-.182.487A75.794 75.794 0 0 0 11.815 72c-.646 1.85-1.09 3.992-1.333 6.43.565-.04 1.141-.06 1.727-.06h1.727c1.777 0 3.534.06 5.271.182 1.736.122 3.281.387 4.635.793.92.276 1.716.634 2.393 1.07a4.67 4.67 0 0 1-.424-.43 6.096 6.096 0 0 1-.878-1.341c-.223-.467-.333-.884-.333-1.25 0-1.3.201-2.762.605-4.388.404-1.625.868-3.19 1.394-4.693a103.14 103.14 0 0 1 1.515-4.083c.485-1.22.827-2.073 1.03-2.56.16-.325.444-.487.848-.487.161 0 .364.081.606.243.121.082.242.143.364.183.08 0 .12-.04.12-.122.162.122.313.224.455.305.141.082.212.163.212.244-.283.204-.596.68-.939 1.432a25.097 25.097 0 0 0-.939 2.377 47.974 47.974 0 0 0-.727 2.316c-.203.711-.303 1.127-.303 1.25.04 0 .182-.315.424-.946.242-.629.535-1.35.879-2.163l1-2.377c.322-.771.564-1.32.726-1.645.08.121.213.223.394.304.182.082.252.122.212.122 0 .041.122.143.364.305.242.163.424.528.545 1.097-.04.122-.06.305-.06.548v.488c-.364.65-.788 1.524-1.273 2.62a42.633 42.633 0 0 0-1.333 3.414 54.16 54.16 0 0 0-1.03 3.321c-.283 1.037-.424 1.798-.424 2.286 0 .284.05.457.152.518.1.06.19.091.272.091.727 0 1.515-.527 2.363-1.584.848-1.057 1.676-2.336 2.484-3.84a62.973 62.973 0 0 0 2.272-4.693 604.444 604.444 0 0 0 1.788-4.144c.08-.203.151-.375.212-.518.06-.142.13-.295.212-.458l.121-.182c.161-.366.485-.549.97-.549.322 0 .686.092 1.09.275.404.182.778.417 1.121.7.343.285.626.59.848.915.222.325.334.63.334.914 0 .163-.021.284-.06.366a26.255 26.255 0 0 0-1.819 3.626A44.97 44.97 0 0 0 40.262 72a38.281 38.281 0 0 0-.939 3.626 43.97 43.97 0 0 0-.545 3.17c.766-.489 1.484-1.159 2.15-2.012a42.008 42.008 0 0 0 1.91-2.651c.605-.914 1.18-1.798 1.726-2.652.097-.151.194-.295.29-.436a53.67 53.67 0 0 1 1.012-3.83c.485-1.584.96-2.945 1.424-4.083.464-1.137.798-1.829 1-2.072.161-.244.525-.366 1.09-.366.364 0 .737.06 1.122.183.383.122.746.285 1.09.487.343.204.626.437.849.701.221.265.333.56.333.884 0 .204-.021.346-.06.427a500.18 500.18 0 0 1-2 4.936c-.768 1.87-1.314 3.718-1.636 5.546.121-.446.353-1.066.697-1.858.342-.793.757-1.666 1.242-2.621.484-.954 1.03-1.91 1.636-2.865a24.233 24.233 0 0 1 1.908-2.62c.667-.793 1.343-1.442 2.03-1.95.686-.508 1.373-.762 2.06-.762.606 0 1.151.223 1.636.67.403.407.606.813.606 1.219 0 .447-.152.944-.455 1.493a68.282 68.282 0 0 0-1 1.89zm33.9 0c.06-.426.09-.66.09-.7v-.515c-.017.05-.045.118-.09.21a1.627 1.627 0 0 0-.152.73c0 .083-.04.286-.121.61a44.456 44.456 0 0 1-.667 2.346c-.12.388-.203.662-.242.824-.04.082-.02.163.06.244.162-.081.313-.356.455-.823.141-.467.273-.965.394-1.494.12-.527.212-1.005.272-1.432zm-2.394 3.627a21.27 21.27 0 0 0 .727-1.829c.243-.69.464-1.402.667-2.133.201-.731.303-1.3.303-1.706 0-.325-.03-.64-.091-.945-.06-.305-.131-.457-.212-.457v.244c0 .122.02.284.06.487a6.99 6.99 0 0 1-.212 1.615c-.142.59-.313 1.189-.515 1.798a49.2 49.2 0 0 1-.636 1.798c-.222.59-.394 1.108-.515 1.554a.852.852 0 0 0-.06.366c.08 0 .242-.264.484-.792zm-1.09-1.768a48.644 48.644 0 0 0 1-2.986c.262-.894.393-1.564.393-2.011 0-.244-.06-.406-.182-.488-.93.448-1.767 1.127-2.514 2.042a20.593 20.593 0 0 0-1.97 2.864c-.565.996-1.03 1.93-1.393 2.804-.363.874-.606 1.514-.727 1.92-.04.081-.182.163-.424.243a4.344 4.344 0 0 1-.848.183c-.122.407-.223.793-.303 1.158a4.757 4.757 0 0 0-.122 1.036c0 1.382.627 2.418 1.879 3.109.242 0 .575-.305 1-.915.424-.609.878-1.39 1.363-2.346.485-.954.979-2.02 1.484-3.2a71.642 71.642 0 0 0 1.364-3.413zm-5.272.122v.061c.323-.568.777-1.34 1.364-2.316a20.574 20.574 0 0 1 2.09-2.864 10.46 10.46 0 0 0-1.878 2.193c-.485.773-.99 1.687-1.515 2.743 0 .041-.01.072-.03.092-.021.02-.03.051-.03.091zm-9.028 14.81v-.304c-.08 0-.171.213-.272.64-.1.426-.191.914-.273 1.462-.08.549-.16 1.087-.242 1.615-.08.528-.121.914-.121 1.158 0 .284.03.61.09.975.061.366.121.701.182 1.006.06.3.169.666.325 1.103a5.313 5.313 0 0 1-.022-.158 7.439 7.439 0 0 0-.09-.549 6.851 6.851 0 0 1-.122-1.036c0-.813.04-1.798.121-2.956.082-1.158.223-2.143.424-2.956zm-1.484-19.99c.262.365.494.731.697 1.097.201.366.303.691.303.975l.12.244c.04.082.061.101.061.06 0-.283-.081-.64-.242-1.066a6.677 6.677 0 0 0-.636-1.25 5.018 5.018 0 0 0-.97-1.096c-.384-.325-.778-.528-1.18-.61.281.122.594.335.938.64.343.305.646.64.909 1.006zm-1.606 5.485c.161-.854.243-1.646.243-2.377 0-1.056-.182-1.899-.546-2.53-.363-.629-.99-.944-1.878-.944-.606 0-1.151.173-1.636.518-.484.346-.9.813-1.242 1.402a7.497 7.497 0 0 0-.787 1.98 9.311 9.311 0 0 0-.273 2.256c0 .69.07 1.361.212 2.01.14.651.373 1.25.697 1.799a5.217 5.217 0 0 0 1.242 1.432c.504.407 1.1.692 1.787.853.243-.406.505-.954.788-1.645.282-.69.545-1.442.787-2.255.243-.813.444-1.646.606-2.5zm-6.18 9.69c.808 0 1.676-.365 2.606-1.097a8.188 8.188 0 0 1-2.545-1.767 11.62 11.62 0 0 1-2-2.743c-.242.854-.363 1.626-.363 2.316 0 .772.151 1.443.454 2.011.303.57.737.976 1.303 1.22.121.04.303.06.545.06zM61.5 69.045c0-.081.02-.142.06-.183-.081 0-.182.143-.303.426-.121.285-.242.65-.363 1.097-.122.448-.233.955-.334 1.524a9.7 9.7 0 0 0-.151 1.707c0 .691.05 1.34.151 1.95.1.61.273 1.138.515 1.584-.242-.73-.363-1.726-.363-2.986 0-.934.07-1.838.212-2.712.14-.873.312-1.533.515-1.98 0-.082.01-.153.03-.214.02-.061.03-.131.03-.213zm33.233-5.516c.182.468.293.844.333 1.128.04.203.061.406.061.609v.61c0 1.503-.242 3.077-.727 4.723a32.772 32.772 0 0 1-1.757 4.662c-.687 1.463-1.445 2.723-2.272 3.779-.829 1.057-1.567 1.767-2.212 2.133-.687.366-1.333.549-1.939.549-1.05 0-2.01-.366-2.878-1.097a10.557 10.557 0 0 1-2.15-2.438 82.665 82.665 0 0 0-1.516 5.79c-.404 1.828-.605 3.575-.605 5.241 0 1.34.14 2.519.424 3.535.485.08.727.264.727.548 0 .447-.465.67-1.394.67-.928 0-1.716-.151-2.363-.456a4.21 4.21 0 0 1-1.575-1.25 5.123 5.123 0 0 1-.879-1.858 9.2 9.2 0 0 1-.272-2.286c0-1.34.181-2.814.545-4.419a53.15 53.15 0 0 1 1.394-4.967c.325-.98.667-1.958 1.025-2.938a7.356 7.356 0 0 1-3.449 1.658c-.97 1.301-2.06 2.337-3.272 3.108-1.212.773-2.505 1.159-3.878 1.159-1.172 0-2.18-.223-3.03-.67a6.123 6.123 0 0 1-2.09-1.768 7.588 7.588 0 0 1-1.211-2.469 9.975 9.975 0 0 1-.394-2.773c0-.284.04-.812.121-1.584.08-.772.212-1.544.394-2.316.182-.772.403-1.463.666-2.073.263-.609.555-.914.879-.914.282 0 .615.072 1 .213a3.41 3.41 0 0 1 1.06.64 1.878 1.878 0 0 1-.06-.457v-.396c0-.975.181-1.91.545-2.803a7.582 7.582 0 0 1 3.635-3.962 5.595 5.595 0 0 1 2.545-.61c1.13 0 2.11.244 2.939.732a6.41 6.41 0 0 1 2.03 1.859 7.806 7.806 0 0 1 1.15 2.53c.243.934.364 1.849.364 2.742 0 1.138-.142 2.296-.424 3.474a17.18 17.18 0 0 1-1.212 3.413 5.7 5.7 0 0 0 1.09-1.006c.324-.385.646-.802.97-1.25.323-.446.667-.903 1.03-1.37.272-.35.577-.704.916-1.065l.417-1.038c.606-1.503 1.13-2.874 1.576-4.114.443-1.24.726-2.245.848-3.017 0-.162.1-.244.303-.244.242 0 .554.092.939.274.383.183.767.407 1.151.67.384.266.717.57 1 .915.282.346.464.681.545 1.006a17.075 17.075 0 0 1 2.817-2.59c1.03-.752 2.01-1.128 2.94-1.128.524 0 .988.163 1.393.488.403.325.757.7 1.06 1.127.303.427.545.874.727 1.341zm59.104 2.225c1.413-1.788 3.272-3.575 5.575-5.364-1.294.692-2.404 1.493-3.333 2.408-.93.914-1.677 1.9-2.242 2.956zm2.545-1.95c-.485.487-.93.974-1.333 1.462.606-1.137 1.615-2.112 3.03-2.925-.647.487-1.212.975-1.697 1.462zm1.878 14.931a27.305 27.305 0 0 1-1.757-8.289c0 .204-.01.396-.03.58-.021.182-.03.375-.03.578 0 2.642.606 5.019 1.817 7.131zm-5.09-.762c.364.346.747.64 1.152.884-.566-1.22-1.04-2.722-1.424-4.51a27.407 27.407 0 0 1-.374-2.15c-.067.128-.13.25-.201.383a58.57 58.57 0 0 1-1.623 2.8c.117.116.233.237.35.369.323.365.667.742 1.03 1.127.364.387.727.753 1.09 1.097zm-9.815-3.87v-.366c-.04 0-.09.122-.151.366-.06.244-.132.549-.212.914a18.1 18.1 0 0 0-.212 1.128c-.06.387-.091.722-.091 1.006v.487c0 .163.02.346.06.549 0 .203.02.426.06.67.04 0 .081-.213.122-.64.04-.427.08-.914.122-1.463.04-.548.08-1.076.12-1.584.04-.508.1-.863.182-1.067zM141.9 76.39c.122-.71.262-1.433.424-2.164.161-.812.364-1.707.606-2.682a42.358 42.358 0 0 0-.757 2.377c-.182.65-.355 1.301-.515 1.95-.162.651-.243 1.18-.243 1.585 0 .041.01.174.03.396.02.224.05.457.092.701.04.244.09.468.151.67.06.205.13.305.212.305 0-.04-.03-.192-.09-.457-.061-.264-.091-.579-.091-.944 0-.447.06-1.026.181-1.737zM125.3 72.458c.243-.813.455-1.564.636-2.255.182-.69.273-1.158.273-1.402 0-.04.01-.061.03-.061.02 0 .03-.02.03-.061v-.061c-.04 0-.111.052-.211.152-.102.102-.193.315-.273.64a477.124 477.124 0 0 0-.97 3.962c-.242 1.016-.464 1.94-.666 2.773-.203.833-.283 1.29-.243 1.371.122-.527.334-1.29.637-2.285.303-.996.554-1.92.757-2.773zm-2.666-5.73c.04-.487.06-.914.06-1.28 0-.568-.12-.853-.363-.853-.324 0-.707.296-1.151.884-.445.59-.909 1.341-1.394 2.255-.484.915-.97 1.93-1.454 3.048a63.875 63.875 0 0 0-1.302 3.23 38.518 38.518 0 0 0-.94 2.834c-.242.853-.363 1.483-.363 1.89 0 .284.06.426.182.426.16 0 .595-.315 1.302-.945.707-.63 1.433-1.36 2.182-2.194a47.9 47.9 0 0 0 2.03-2.407c.605-.772.908-1.28.908-1.524a2.34 2.34 0 0 1-.424-.396c-.162-.183-.242-.376-.242-.58 0-.08.04-.202.121-.365.12-.284.232-.65.333-1.097.1-.446.202-.924.303-1.432.1-.508.172-1.006.212-1.493zm-7.21.854c.16-.284.394-.68.697-1.189a41.126 41.126 0 0 1 1.818-2.773l.084-.116-.69.695c-.425.427-.818.895-1.182 1.402a9.407 9.407 0 0 0-.94 1.646 5.222 5.222 0 0 0-.454 1.798c.04-.04.141-.254.303-.64.161-.386.283-.66.364-.823zm3.939-3.657c-.082 0-.364.224-.849.67-.484.448-.889.875-1.212 1.28 0 .041-.07.163-.212.366a9.383 9.383 0 0 0-.424.67c-.142.244-.273.468-.394.67a3.15 3.15 0 0 0-.074.132c.116-.171.372-.467.77-.893.667-.71 1.384-1.594 2.152-2.651l.243-.244zm-19.847 3.687l1.212-1.645c.403-.549.757-1.036 1.06-1.463.303-.427.455-.68.455-.762-1.495 1.341-2.596 2.672-3.302 3.992-.708 1.32-1.06 2.246-1.06 2.773.08 0 .181-.223.302-.67.121-.447.282-.772.485-.975.16-.284.444-.701.848-1.25zm3.79-3.077c-.364.365-.757.802-1.182 1.31a21.215 21.215 0 0 0-1.181 1.554c-.364.529-.545.955-.545 1.28.04 0 .251-.233.636-.7.383-.468.787-.996 1.212-1.586.424-.588.979-1.39 1.666-2.407-.04 0-.243.183-.606.549zm3.03.304c-.405 0-.9.357-1.485 1.067a19.75 19.75 0 0 0-1.697 2.438 34.59 34.59 0 0 0-1.423 2.62c-.405.834-.627 1.372-.667 1.616.08.04.221.06.424.06.727 0 1.413-.294 2.06-.883a9.782 9.782 0 0 0 1.697-2.042 12 12 0 0 0 1.15-2.347c.283-.792.425-1.41.425-1.858 0-.162-.04-.325-.121-.488-.121-.122-.242-.183-.364-.183zm-3 7.74c1.924-.934 3.186-2.782 3.787-5.546-.761 2.357-2.023 4.206-3.786 5.547zm59.771-12.31c0 .528-.263 1.157-.787 1.889.04.122.06.304.06.548 0 .529-.192 1.057-.575 1.585a9.406 9.406 0 0 1-1.363 1.493c-.526.468-1.071.905-1.636 1.31-.566.407-1.01.752-1.333 1.036a9.36 9.36 0 0 0-.182 1.829c0 .853.08 1.747.242 2.681.161.936.364 1.86.606 2.773.243.915.494 1.798.758 2.652.262.853.494 1.645.696 2.377.04.163.06.386.06.67 0 .691-.332 1.178-.999 1.463-.666.283-1.444.427-2.333.427a9.783 9.783 0 0 1-2.332-.275c-.748-.183-1.324-.396-1.727-.64a6.583 6.583 0 0 1-1.242-1.005 10.569 10.569 0 0 1-1.151-1.372 9.883 9.883 0 0 1-.849-1.432c-.04-.086-.073-.168-.107-.25-.214.284-.43.562-.65.829-.768.935-1.575 1.717-2.423 2.347-.849.63-1.657.944-2.424.944-.809 0-1.545-.375-2.211-1.127-.667-.752-1-1.838-1-3.261 0-1.137.171-2.387.515-3.748a45.307 45.307 0 0 1 2.393-7.009c.403-.914.667-1.533.788-1.86-.243.205-.768.824-1.576 1.86s-1.717 2.306-2.726 3.81a70.843 70.843 0 0 0-3.03 4.966 37.93 37.93 0 0 0-2.484 5.333c-.081.407-.344.61-.788.61-.484 0-1-.325-1.545-.976-.545-.649-.818-1.807-.818-3.474 0-.32.02-.671.051-1.04-.269.486-.538.966-.807 1.437a27.95 27.95 0 0 1-1.636 2.56c-.546.752-1.04 1.31-1.485 1.676a2.814 2.814 0 0 1-1.636.548c-.363 0-.727-.061-1.09-.183l-.243-.122c-.808-.243-1.434-.7-1.878-1.371-.445-.67-.748-1.472-.909-2.408a20.799 20.799 0 0 1-2.605 2.53c-1.01.833-2.06 1.31-3.15 1.432-.769 0-1.415-.204-1.94-.61a5.114 5.114 0 0 1-1.302-1.493 6.327 6.327 0 0 1-.727-1.859c-.143-.649-.212-1.198-.212-1.645 0-.86.066-1.739.199-2.635-.256.45-.511.9-.775 1.355a22.535 22.535 0 0 1-2.333 3.321c-.848.997-1.778 1.809-2.787 2.439-1.01.63-2.141.944-3.393.944-.97 0-1.87-.163-2.696-.487a7.277 7.277 0 0 1-2.151-1.28 5.992 5.992 0 0 1-1.424-1.798 4.55 4.55 0 0 1-.515-2.103c0-1.463.322-3.098.97-4.906a23.437 23.437 0 0 1 2.544-5.09c1.05-1.584 2.231-2.914 3.545-3.991 1.312-1.076 2.614-1.615 3.908-1.615 1.147 0 2.121.387 2.92 1.158.799.772 1.2 1.666 1.2 2.681 0 1.017-.296 2.083-.885 3.2a13.625 13.625 0 0 1-2.224 3.078 13.104 13.104 0 0 1-2.927 2.316c-1.056.61-2.032.914-2.926.914-.365 0-.691-.061-.975-.183a6.222 6.222 0 0 0-.242 1.707c0 .813.201 1.514.605 2.102.404.59 1.152.884 2.242.884.97 0 1.898-.396 2.787-1.188a18.103 18.103 0 0 0 2.485-2.743 45.18 45.18 0 0 0 2.06-3.017c.606-.975 1.11-1.645 1.515-2.011.303-.254.571-.464.81-.639a21.86 21.86 0 0 1 1.462-3.048c.909-1.564 1.948-2.854 3.12-3.87 1.171-1.016 2.363-1.524 3.575-1.524.524 0 1.07.102 1.636.304.565.204 1.08.51 1.545.915.464.407.868.914 1.211 1.523.343.61.576 1.321.697 2.134.566.203 1.161.579 1.788 1.127.626.549.939 1.148.939 1.798 0 .163-.04.366-.121.61a31.006 31.006 0 0 0-2.03 5.058c-.545 1.788-.818 3.454-.818 4.998.646-.569 1.262-1.28 1.848-2.133a32.529 32.529 0 0 0 1.636-2.652 73.828 73.828 0 0 1 1.515-2.62c.504-.833 1-1.493 1.484-1.981l.004-.004c.783-2.418 2.032-5.32 3.752-8.711.16-.366.464-.549.909-.549.485 0 1.03.204 1.636.61.606.406 1.11.833 1.515 1.28l-.303.365-.697 1.158a34.343 34.343 0 0 0-1.97 3.84c-.282.65-.423 1.179-.423 1.584 0 .163.02.285.06.366.08-.447.293-1.076.636-1.89.343-.812.706-1.614 1.091-2.407.383-.792.747-1.483 1.09-2.072.343-.588.535-.884.576-.884.323.407.485.793.485 1.158 0 .204-.101.509-.303.915-.203.406-.435.833-.697 1.28-.263.447-.536.904-.818 1.37-.283.468-.505.864-.666 1.19a62.807 62.807 0 0 1 2.09-2.804 24.61 24.61 0 0 1 2.09-2.347c.687-.67 1.364-1.208 2.03-1.615.667-.406 1.303-.61 1.909-.61.848 0 1.606.296 2.272.884.666.59 1 1.29 1 2.103 0 .407-.264 1.23-.788 2.468l-1.757 4.145a80.034 80.034 0 0 0-1.787 4.601c-.546 1.545-.84 2.865-.879 3.962.767-.488 1.485-1.158 2.15-2.011a42.086 42.086 0 0 0 1.91-2.652c.605-.914 1.181-1.797 1.726-2.65.546-.854 1.08-1.545 1.606-2.073a8.25 8.25 0 0 1 .485-.45v-.038c0-1.259.14-2.295.424-3.108.323-.853.878-1.716 1.666-2.59a19.578 19.578 0 0 1 2.514-2.346 17.81 17.81 0 0 1 2.606-1.707c.848-.447 1.494-.67 1.939-.67.04 0 .14.04.303.121.16 0 .242.061.242.183a.55.55 0 0 1-.06.244l.302-.183.243.06c.08.083.19.245.333.489.14.244.232.406.272.487z"/>
        <filter id="a" width="108%" height="127.2%" x="-4%" y="-11.5%" filterUnits="objectBoundingBox">
            <feOffset dy="1" in="SourceAlpha" result="shadowOffsetOuter1"/>
            <feGaussianBlur in="shadowOffsetOuter1" result="shadowBlurOuter1" stdDeviation="2"/>
            <feColorMatrix in="shadowBlurOuter1" values="0 0 0 0 0 0 0 0 0 0 0 0 0 0 0 0 0 0 0.15 0"/>
        </filter>
        <path id="d" d="M72.449 20.65a65.016 65.016 0 0 1-3.025 5.404c-.217.327-.334.536-.352.627a.476.476 0 0 1-.136.246c.253 0 .579-.319.977-.955.398-.637.84-1.492 1.329-2.566.38-.836.783-1.754 1.207-2.756zm2.922-7.044l.863-2.098a47.301 47.301 0 0 1 1.655-3.63l.109-.218h.325c.796.109 1.456.336 1.98.682.525.346.932.782 1.222 1.31.29.528.488 1.119.597 1.774.108.655.162 1.328.162 2.02v.9a8.7 8.7 0 0 1-.054.955 383.379 383.379 0 0 0-.922 6.577c-.29 2.202-.58 4.376-.869 6.523a51.544 51.544 0 0 0 2.47-5.131 56.236 56.236 0 0 0 1.926-5.376 45.35 45.35 0 0 0 1.275-5.377c.307-1.783.461-3.493.461-5.13 0-.473-.054-1.028-.163-1.665-.108-.637-.38-1.046-.814-1.228-.108 0-.325-.036-.65-.11-.326-.072-.49-.272-.49-.6 0-.29.173-.573.516-.846.344-.273.76-.509 1.248-.71a9.964 9.964 0 0 1 1.574-.49c.56-.128 1.04-.191 1.438-.191.506 0 1.004.109 1.492.327.488.218.877.582 1.167 1.092.29.582.497 1.2.624 1.855.126.655.19 1.329.19 2.02 0 1.383-.2 2.775-.597 4.175a50.74 50.74 0 0 1-1.248 3.848 59.811 59.811 0 0 1-4.83 9.852 508.665 508.665 0 0 1-5.806 9.306l-.325.164c-.073 0-.154.01-.244.027a1.25 1.25 0 0 1-.245.028c-.976 0-1.79-.346-2.441-1.037a8.599 8.599 0 0 1-1.574-2.347c-.145-.546-.217-1.22-.217-2.02 0-1.965.19-3.939.57-5.922.38-1.983.75-3.939 1.112-5.867a2392.667 2392.667 0 0 0-4.856 9.606 77.152 77.152 0 0 0-4.151 9.934c.108.145.226.254.352.327.127.073.19.2.19.382a.598.598 0 0 1-.407.6c-.271.11-.57.164-.895.164a3.887 3.887 0 0 1-1.818-.436 5.238 5.238 0 0 1-1.465-1.12 4.978 4.978 0 0 1-.977-1.61 5.334 5.334 0 0 1-.352-1.91c0-.691.081-1.391.244-2.101.163-.71.362-1.41.597-2.101.235-.692.48-1.365.732-2.02.254-.655.47-1.255.651-1.801l.272-.819c.904-2.729 1.727-5.512 2.469-8.35a34.617 34.617 0 0 0 1.112-8.788c0-.837-.09-1.583-.271-2.238-.181-.655-.543-.983-1.086-.983-.723 0-1.5.328-2.333.983-.832.655-1.664 1.483-2.496 2.483-.832 1.001-1.628 2.11-2.387 3.33a57.73 57.73 0 0 0-2.035 3.52c-.597 1.128-1.067 2.147-1.411 3.057-.344.91-.516 1.546-.516 1.91 0 .218.046.419.136.6.09.183.136.364.136.546 0 .473-.253.71-.76.71-.542 0-1.085-.146-1.628-.437a7.302 7.302 0 0 1-1.52-1.091c-.47-.437-.85-.9-1.139-1.392-.289-.491-.434-.937-.434-1.337 0-.874.235-1.765.706-2.675.47-.91 1.076-1.801 1.818-2.674a28.569 28.569 0 0 1 2.414-2.511c.868-.8 1.682-1.528 2.442-2.183a24.149 24.149 0 0 1 1.98-1.529 24.065 24.065 0 0 1 2.497-1.528c.886-.473 1.8-.864 2.74-1.173.94-.31 1.845-.464 2.713-.464.977 0 1.809.209 2.496.627a4.845 4.845 0 0 1 1.655 1.665c.416.691.723 1.492.922 2.402.2.91.299 1.874.299 2.892 0 1.82-.217 3.648-.651 5.486-.434 1.837-.85 3.448-1.248 4.83a.61.61 0 0 0-.055.273c-.108.437-.289.946-.542 1.528a35.44 35.44 0 0 1-.76 1.638c-.253.51-.47.955-.651 1.337l-.271.573c.217 0 .578-.491 1.085-1.473.506-.983 1.085-2.165 1.736-3.548s1.32-2.838 2.008-4.367c.687-1.528 1.284-2.82 1.79-3.875-.187.58-.375 1.142-.564 1.689zm-23.256 4.588c-.217-.364-.326-.837-.326-1.42 0-1.273.651-2.983 1.953-5.13-1.519 2.074-2.279 3.73-2.279 4.967 0 .619.218 1.146.652 1.583zM69.127 5.459a26.062 26.062 0 0 0-.001 0zm-.001 0c.018.206.027.412.027.618v.873c0 3.093-.651 6.896-1.954 11.408 1.375-3.748 2.062-7.205 2.062-10.37 0-.828-.044-1.67-.134-2.529h-.001zm18 13.773c.036-.07.086-.161.15-.274.832-1.747 1.475-3.402 1.927-4.967a42.782 42.782 0 0 0 1.112-5.021c-.072.072-.126.218-.163.436a38.953 38.953 0 0 1-1.03 4.067c-.218.71-.47 1.473-.76 2.292-.29.819-.633 1.774-1.031 2.866-.091.273-.159.474-.204.601zm0 0c-.044.127-.067.18-.067.163a.59.59 0 0 1 .068-.163zm-.663 3.601c3.617-6.331 5.516-11.735 5.697-16.21a41.856 41.856 0 0 1-2.306 8.269 168.8 168.8 0 0 1-3.391 7.941zm17.328-.6c.868-.728 1.447-1.092 1.736-1.092.109 0 .163.073.163.219 0 .327-.199.855-.597 1.582l-.651 1.147a155.197 155.197 0 0 1-1.818 3.22 20.179 20.179 0 0 1-2.089 2.975c-.76.891-1.592 1.619-2.496 2.183-.904.564-1.917.846-3.039.846a6.55 6.55 0 0 1-2.414-.437 6.533 6.533 0 0 1-1.927-1.146 5.387 5.387 0 0 1-1.275-1.61 4.078 4.078 0 0 1-.461-1.883c0-1.31.29-2.775.868-4.394a21.03 21.03 0 0 1 2.28-4.558c.94-1.419 1.998-2.61 3.174-3.575 1.175-.964 2.342-1.446 3.5-1.446 1.012 0 1.872.346 2.577 1.037.705.691 1.058 1.492 1.058 2.402 0 .91-.262 1.864-.787 2.865-.524 1-1.184 1.92-1.98 2.757a11.682 11.682 0 0 1-2.605 2.074c-.94.545-1.809.818-2.605.818-.325 0-.614-.054-.868-.163-.072.254-.126.509-.162.764-.037.254-.055.51-.055.764 0 .728.181 1.355.543 1.883.362.528 1.03.791 2.008.791.868 0 1.7-.354 2.496-1.064a16.162 16.162 0 0 0 2.224-2.456 40.198 40.198 0 0 0 1.845-2.702c.543-.873.995-1.474 1.357-1.801zm-7.868 2.51c1.736-.836 2.876-2.492 3.418-4.966-.687 2.11-1.826 3.766-3.418 4.967zm3.039-6.767c-.109-.11-.218-.164-.326-.164-.362 0-.805.318-1.33.955a17.652 17.652 0 0 0-1.519 2.183 31.06 31.06 0 0 0-1.275 2.347c-.362.746-.56 1.228-.597 1.447.072.036.2.054.38.054.651 0 1.266-.264 1.845-.791a8.764 8.764 0 0 0 1.52-1.829c.433-.691.777-1.392 1.03-2.101.253-.71.38-1.265.38-1.665a.973.973 0 0 0-.108-.436zm-7.217 3.438c.144-.255.398-.628.76-1.119l1.085-1.473c.361-.492.678-.928.95-1.31.27-.382.406-.61.406-.683-1.338 1.201-2.324 2.393-2.957 3.575-.633 1.183-.95 2.01-.95 2.484.073 0 .163-.2.272-.6.108-.4.253-.692.434-.874zm1.573-.164c.036 0 .226-.209.57-.627a28.26 28.26 0 0 0 1.085-1.42c.38-.527.724-1.018 1.031-1.473l.461-.682c-.036 0-.217.163-.542.49-.326.328-.678.72-1.058 1.174-.38.455-.733.92-1.058 1.392-.326.473-.489.855-.489 1.146z"/>
        <filter id="c" width="123.5%" height="135.6%" x="-11.8%" y="-15.1%" filterUnits="objectBoundingBox">
            <feOffset dy="1" in="SourceAlpha" result="shadowOffsetOuter1"/>
            <feGaussianBlur in="shadowOffsetOuter1" result="shadowBlurOuter1" stdDeviation="2"/>
            <feColorMatrix in="shadowBlurOuter1" values="0 0 0 0 0 0 0 0 0 0 0 0 0 0 0 0 0 0 0.15 0"/>
        </filter>
        <linearGradient id="e" x1="100.051%" x2="-.064%" y1="49.987%" y2="49.987%">
            <stop offset=".001%" stop-color="#FCDF10"/>
            <stop offset="100%" stop-color="#FCF56B"/>
        </linearGradient>
        <linearGradient id="f" x1="22.653%" x2="70.671%" y1="57.686%" y2="41.401%">
            <stop offset=".001%" stop-color="#FCDF10"/>
            <stop offset="100%" stop-color="#FCF56B"/>
        </linearGradient>
        <linearGradient id="g" x1="57.046%" x2="41.372%" y1="44.868%" y2="55.192%">
            <stop offset=".001%" stop-color="#FCDF10"/>
            <stop offset="100%" stop-color="#FCF56B"/>
        </linearGradient>
        <linearGradient id="h" x1="-.008%" x2="99.995%" y1="50.016%" y2="50.016%">
            <stop offset=".001%" stop-color="#FCDF10"/>
            <stop offset="100%" stop-color="#FCF56B"/>
        </linearGradient>
        <linearGradient id="i" x1="-.046%" x2="99.954%" y1="49.997%" y2="49.997%">
            <stop offset=".001%" stop-color="#FCDF10"/>
            <stop offset="100%" stop-color="#FCF56B"/>
        </linearGradient>
        <linearGradient id="j" x1="0%" y1="50%" y2="50%">
            <stop offset="0%" stop-color="#FCDF10"/>
            <stop offset="100%" stop-color="#FCF56B"/>
        </linearGradient>
        <linearGradient id="k" x1="77.987%" x2="28.171%" y1="57.836%" y2="41.28%">
            <stop offset="0%" stop-color="#FCDF10"/>
            <stop offset="100%" stop-color="#FCF56B"/>
        </linearGradient>
        <linearGradient id="l" x1="42.012%" x2="60.471%" y1="45.993%" y2="56.108%">
            <stop offset="0%" stop-color="#FCDF10"/>
            <stop offset="100%" stop-color="#FCF56B"/>
        </linearGradient>
    </defs>
    <g fill="none" fill-rule="evenodd">
        <g transform="translate(3.607 22.028)">
            <use fill="#000" filter="url(#a)" xlink:href="#b"/>
            <use fill="#FFF" xlink:href="#b"/>
        </g>
        <path fill="#1BEFB8" d="M58.101 71.254s16.17-8.045 30.627-10.677c14.455-2.632 17.797-1.346 18.45.515l-4.541.743s1.247-.96-.327-.93c-1.574.028-18.37.06-44.13 10.92 0 0-.43.186-.526-.05-.124-.302.447-.52.447-.52z"/>
        <g transform="rotate(-3 500.658 -38.053)">
            <use fill="#000" filter="url(#c)" xlink:href="#d"/>
            <use fill="#1BEFB8" xlink:href="#d"/>
        </g>
        <g>
            <g transform="rotate(16 -102.226 161.623)">
                <ellipse cx="11.125" cy="7.492" fill="url(#e)" rx="2.061" ry="2.203"/>
                <path fill="url(#f)" d="M8.294.84s-4.808 3.129-.123 9.448c0 0 2.443 3.225 10.853 4.721 0 0 .52.086.475.247-.05.161-.198.222-.52.262-.321.04-4.368.544-8.196-.872 0 0-.361-.181-.544.121-.184.308-4.774 6.516 1.503 12.653 0 0 .678.554.49.72-.188.167-.935-.156-.935-.156s-3.532-1.118-6.243-7.004c0 0-3.072 1.451-3.883 7.372 0 0-.079.922-.331.897-.253-.025-.49-1.114-.49-1.114S-.986 22.613 3.808 16.31c0 0-.826-2.65.623-5.356 0 0 .114-.101-.025-.514C4.268 10.03 1.745 2.417 7.993.26c0 0 .529-.151.653.171.099.242-.352.409-.352.409z"/>
                <path fill="url(#g)" d="M5 21.206S2.08 22.651 1.3 28.584c0 0-.077.927-.315.897-.239-.026-.463-1.117-.463-1.117s-1.255-5.533 3.31-11.84c-.004 0 .053 1.363 1.17 4.682z"/>
            </g>
            <g transform="rotate(16 64.656 391.507)">
                <path fill="url(#h)" d="M.968 5.466s10.138-2.112 19.88 5.111c0 0 .767.544.516.674-.115.06-.23.035-.52-.039-1.043-.26-3.857-.887-7.49-1.143 0 0 1.69 8.623-6.42 16.02 0 0-.17.14-.26.052-.09-.087.008-.26.008-.26s2.283-5.894 2.082-11.779c0 0-2.703.648-2.546 3.347 0 0 .039 1.62 1.35 3.064 0 0 .23.243.102.343-.128.1-.434-.091-.434-.091s-2.274-.648-3.326-4.064c-1.345-4.368 3.351-7.475 3.351-7.475s.26-.17.017-.296C7.032 8.8 3.923 6.822.555 6.396c0 0-.55-.017-.524-.443.022-.365.937-.487.937-.487z"/>
                <ellipse cx="10.511" cy="2.208" fill="url(#i)" rx="2.19" ry="2.203"/>
            </g>
            <g fill="#FFEB09" transform="rotate(-6 400.48 -1196.535)">
                <path d="M.801 2.035S6.873 6.873 15.76 6.74s11.768 3.192 11.768 3.192.167.262 0 .381c-.167.12-.748-.124-.748-.124s-5.072-1.758-7.818-.972c0 0-.387.12.01.497.395.377 2.63 3.72 10.813 7.835 0 0 .603.377.405.72-.198.341-.858.408-1.02.399-.163-.01-6.508-.053-12.258-4.288 0 0-.519-.453-.484.075.036.524.308 4.453 2.301 7.68 0 0 .365.52-.057.679-.427.164-1.307-.68-1.307-.68s-5.644-4.23-6.203-11.687c0 0 .035-.502-1.056-1.044-.92-.457-6.031-2.508-9.912-6.827 0 0-.242-.435 0-.635.264-.222.475-.009.607.094z"/>
                <ellipse cx="13.734" cy="2.417" rx="2.319" ry="2.332"/>
            </g>
            <g transform="rotate(1 -2899.632 6328.642)">
                <ellipse cx="7.214" cy="6.22" fill="url(#j)" rx="1.803" ry="1.814"/>
                <path fill="url(#k)" d="M9.563.517s4.104 2.625.104 7.93c0 0-2.084 2.706-9.26 3.964 0 0-.445.07-.404.206.04.136.168.186.444.218.275.033 3.724.457 6.992-.73 0 0 .308-.154.462.102.154.257 4.074 5.472-1.284 10.621 0 0-.576.465-.418.605.159.14.799-.13.799-.13s3.014-.947 5.33-5.886c0 0 2.62 1.216 3.313 6.189 0 0 .068.776.284.754.216-.023.418-.936.418-.936s1.14-4.634-2.952-9.925c0 0 .705-2.225-.532-4.496 0 0-.098-.085.02-.43.118-.346 2.27-6.732-3.06-8.543 0 0-.452-.127-.56.143-.079.202.304.344.304.344z"/>
                <path fill="url(#l)" d="M12.366 17.572s2.594 1.185 3.289 6.05c0 0 .068.76.282.738.213-.023.411-.915.411-.915s1.116-4.538-2.938-9.71c0-.002-.052 1.116-1.044 3.837z"/>
            </g>
        </g>
    </g>
</svg>
