<svg xmlns="http://www.w3.org/2000/svg" xmlns:xlink="http://www.w3.org/1999/xlink" width="51" height="20"><defs><path id="a" d="M0 .122h8.835v9.261H0z"/><path id="c" d="M0 19.878h50.897V.182H0z"/></defs><g fill="none" fill-rule="evenodd"><g transform="translate(0 .06)"><mask id="b" fill="#fff"><use xlink:href="#a"/></mask><path fill="#FFF" d="M4.832.122c1.653 0 3.115.798 3.982 2.016L6.44 3.462a1.896 1.896 0 0 0-1.456-.685c-1.058 0-1.926.882-1.926 1.975 0 1.094.868 1.976 1.926 1.976.592 0 1.12-.272 1.476-.707l2.375 1.323c-.867 1.231-2.339 2.04-4.003 2.04C2.17 9.383 0 7.316 0 4.752 0 2.188 2.17.123 4.832.123z" mask="url(#b)"/></g><mask id="d" fill="#fff"><use xlink:href="#c"/></mask><path fill="#FFF" d="M10.115 9.265h3.121V.36h-3.12zm11.572 0h-3.868L14.491.36h3.322l1.94 5.718L21.693.36h3.322zm4.744 0h3.121V.36h-3.12zM36.07.182c1.652 0 3.115.798 3.981 2.015l-2.374 1.324a1.896 1.896 0 0 0-1.456-.684c-1.058 0-1.925.882-1.925 1.975s.867 1.976 1.925 1.976c.593 0 1.12-.272 1.476-.708l2.375 1.323c-.867 1.232-2.338 2.04-4.002 2.04-2.663 0-4.833-2.066-4.833-4.63 0-2.565 2.17-4.631 4.833-4.631zm7.796 4.63c0 1.093.886 1.976 1.965 1.976a1.973 1.973 0 0 0 1.965-1.976 1.973 1.973 0 0 0-1.965-1.975 1.972 1.972 0 0 0-1.965 1.975m7.031 0c0 2.565-2.265 4.63-5.044 4.63-2.78 0-5.045-2.065-5.045-4.63 0-2.564 2.266-4.63 5.045-4.63 2.78 0 5.044 2.066 5.044 4.63" mask="url(#d)"/><path fill="#FFF" fill-opacity=".65" d="M22.309 15.26c-.047-.961-.684-1.583-1.65-1.583-.947 0-1.622.622-1.725 1.583h3.375zm.656.584h-4.03c.121.98.824 1.621 1.79 1.621.61 0 1.143-.226 1.528-.631l.403.424c-.469.518-1.163.82-1.987.82-1.454 0-2.456-1.027-2.456-2.507 0-1.48 1.012-2.497 2.446-2.507 1.594 0 2.381 1.103 2.306 2.78zm5.54-2.752v4.958h-.732v-1.122c-.328.773-.984 1.14-1.875 1.15-1.152 0-1.846-.735-1.846-1.932v-3.054h.731v2.865c0 .886.515 1.414 1.368 1.414 1.022-.019 1.622-.773 1.622-1.847v-2.432h.732zm4.283-.028v.716c-1.04-.019-1.688.632-1.772 1.63v2.64h-.731v-4.958h.73v1.103c.329-.726.938-1.122 1.773-1.13m1.218 2.506c0 1.112.73 1.866 1.771 1.866 1.031 0 1.772-.754 1.772-1.866 0-1.093-.74-1.857-1.772-1.857-1.04 0-1.771.764-1.771 1.857m4.274-.01c0 1.48-1.04 2.517-2.503 2.517-1.472 0-2.503-1.037-2.503-2.516 0-1.47 1.031-2.498 2.503-2.498 1.463 0 2.503 1.027 2.503 2.498m5.596 0c0-1.075-.731-1.866-1.763-1.866-1.04 0-1.771.782-1.771 1.866 0 1.093.731 1.866 1.771 1.866 1.032 0 1.763-.783 1.763-1.866m.74.018c0 1.47-.956 2.498-2.352 2.498-.882 0-1.557-.406-1.922-1.093v2.893h-.731v-6.786h.73v1.065c.366-.688 1.041-1.093 1.904-1.093 1.396 0 2.372 1.037 2.372 2.516m4.339.764v-.603h-1.538c-.825 0-1.256.254-1.256.81 0 .547.44.914 1.135.914.834 0 1.471-.414 1.659-1.121zm.01 1.706v-.773c-.395.537-1.023.8-1.81.8-1.022 0-1.678-.65-1.678-1.498 0-.867.684-1.413 1.847-1.423h1.621v-.31c0-.726-.45-1.17-1.321-1.17-.544 0-1.05.208-1.566.576l-.31-.519c.638-.424 1.173-.669 2.016-.669 1.219 0 1.894.65 1.903 1.706l.01 3.28h-.713zM3.01 15.614c0 .734-.534 1.265-1.274 1.265s-1.275-.53-1.275-1.265c0-.749.535-1.28 1.275-1.28.74 0 1.275.531 1.275 1.28m6.002.002c0 .918-.669 1.58-1.593 1.58-.924 0-1.593-.662-1.593-1.58 0-.936.669-1.6 1.593-1.6.924 0 1.593.664 1.593 1.6m6.487.002c0 1.1-.803 1.897-1.913 1.897-1.109 0-1.912-.796-1.912-1.897 0-1.124.803-1.92 1.912-1.92 1.11 0 1.912.796 1.912 1.92" mask="url(#d)"/></g></svg>