<?xml version="1.0" standalone="no"?>
<!DOCTYPE svg PUBLIC "-//W3C//DTD SVG 20010904//EN"
 "http://www.w3.org/TR/2001/REC-SVG-20010904/DTD/svg10.dtd">
<svg version="1.0" xmlns="http://www.w3.org/2000/svg"
 width="700.000000pt" height="700.000000pt" viewBox="0 0 700.000000 700.000000"
 preserveAspectRatio="xMidYMid meet">
<metadata>
Created by potrace 1.11, written by Peter Selinger 2001-2013
</metadata>
<g transform="translate(0.000000,700.000000) scale(0.100000,-0.100000)"
fill="#000000" stroke="none">
<path d="M450 3518 c0 -2399 3 -3008 13 -3009 86 -7 1500 -2 1505 5 3 6 5 754
5 1663 0 1388 2 1651 13 1642 8 -6 14 -15 14 -20 0 -5 12 -28 26 -50 14 -23
37 -62 51 -87 15 -26 90 -160 168 -297 79 -138 151 -266 162 -285 46 -82 357
-628 375 -660 12 -19 32 -55 46 -80 14 -25 48 -85 77 -135 28 -49 64 -112 79
-140 16 -27 77 -135 136 -240 59 -104 119 -209 131 -232 13 -22 75 -131 138
-242 l114 -201 34 56 c18 30 33 56 33 58 0 2 29 54 65 115 36 62 65 114 65
116 0 2 14 28 31 57 53 88 219 380 219 385 0 2 12 22 26 44 14 23 37 62 51 87
46 82 230 406 252 442 11 19 24 42 28 50 4 8 19 35 33 61 15 25 40 67 55 95
15 27 66 117 113 199 102 179 109 193 152 270 18 33 41 72 51 87 11 14 19 28
19 31 0 3 42 79 94 169 107 188 138 243 179 316 15 28 29 52 30 52 1 0 2 -744
2 -1652 -1 -909 1 -1660 3 -1668 3 -13 94 -15 755 -13 414 0 755 2 758 2 8 1
8 6011 0 6012 -3 0 -340 2 -747 2 l-741 2 -268 -480 c-148 -264 -283 -505
-300 -535 -18 -30 -46 -80 -62 -110 -16 -30 -72 -129 -123 -220 -51 -91 -103
-183 -115 -205 -12 -22 -34 -62 -50 -90 -15 -27 -110 -196 -210 -375 -100
-179 -194 -347 -210 -375 -15 -27 -33 -59 -39 -70 -83 -151 -180 -324 -182
-322 -1 1 -167 297 -369 657 -383 683 -383 683 -473 845 -31 55 -64 116 -75
135 -130 232 -536 958 -559 1000 -56 101 -80 140 -86 141 -4 0 -341 2 -750 2
l-742 2 0 -3007z"/>
</g>
</svg>
