<?xml version="1.0" encoding="UTF-8"?>
<svg width="223px" height="88px" viewBox="0 0 223 88" version="1.1" xmlns="http://www.w3.org/2000/svg" xmlns:xlink="http://www.w3.org/1999/xlink">
    <!-- Generator: Sketch 54.1 (76490) - https://sketchapp.com -->
    <title>handicap/logo/light</title>
    <desc>Created with Sketch.</desc>
    <g id="handicap/logo/light" stroke="none" stroke-width="1" fill="none" fill-rule="evenodd">
        <rect id="Rectangle" fill="#417505" transform="translate(111.000000, 15.905000) rotate(-1.000000) translate(-111.000000, -15.905000) " x="46" y="2" width="130" height="27.8099992"></rect>
        <g id="Group-3" transform="translate(56.240000, 7.120000)" fill="#FFFFFF" fill-rule="nonzero">
            <g id="Group-2">
                <path d="M18.3521545,12.2797701 L20.2988544,1.44314038 L22.9377143,1.44314038 L19.6715844,17.0599999 L16.9894645,17.0599999 L13.7233346,1.44314038 L16.3621945,1.44314038 L18.3088945,12.2797701 L18.3521545,12.2797701 Z M27.1123042,3.64940032 L27.1123042,8.45126018 L28.0640242,8.45126018 C29.5132342,8.45126018 30.0539841,7.9105102 30.0539841,6.05033025 C30.0539841,4.1901503 29.5132342,3.64940032 28.0640242,3.64940032 L27.1123042,3.64940032 Z M27.1123042,10.6575201 L27.1123042,17.0599999 L24.4301843,17.0599999 L24.4301843,1.44314038 L28.1938042,1.44314038 C31.2003741,1.44314038 32.7361041,2.71931034 32.7361041,6.05033025 C32.7361041,8.55941018 31.7627541,9.57602015 30.8542941,9.98699014 L33.1254441,17.0599999 L30.4000641,17.0599999 L28.4966242,10.5926301 C28.1505442,10.6358901 27.5881642,10.6575201 27.1123042,10.6575201 Z M38.7276139,4.55786029 L37.6677439,11.2631601 L39.8307439,11.2631601 L38.7708739,4.55786029 L38.7276139,4.55786029 Z M37.2784039,13.5992 L36.8025439,17.0599999 L34.206944,17.0599999 L37.0837339,1.44314038 L40.4147538,1.44314038 L43.2915438,17.0599999 L40.6959438,17.0599999 L40.2200839,13.5992 L37.2784039,13.5992 Z M47.8987336,17.0599999 L45.2166137,17.0599999 L45.2166137,1.44314038 L47.8987336,1.44314038 L47.8987336,17.0599999 Z M58.3460234,17.0599999 L50.8620436,17.0599999 L50.8620436,1.44314038 L58.0432034,1.44314038 L58.0432034,3.77918031 L53.5441635,3.77918031 L53.5441635,7.8023602 L57.0049634,7.8023602 L57.0049634,10.1384001 L53.5441635,10.1384001 L53.5441635,14.72396 L58.3460234,14.72396 L58.3460234,17.0599999 Z M67.9497431,3.64940032 L67.9497431,8.45126018 L68.9879831,8.45126018 C70.740013,8.45126018 71.280763,7.9105102 71.280763,6.05033025 C71.280763,4.1901503 70.740013,3.64940032 68.9879831,3.64940032 L67.9497431,3.64940032 Z M67.9497431,17.0599999 L65.2676232,17.0599999 L65.2676232,1.44314038 L69.1177631,1.44314038 C72.427153,1.44314038 73.9628829,2.71931034 73.9628829,6.05033025 C73.9628829,9.38135016 72.427153,10.6575201 69.1177631,10.6575201 L67.9497431,10.6575201 L67.9497431,17.0599999 Z M82.8528127,17.0599999 L75.9528429,17.0599999 L75.9528429,1.44314038 L78.6349628,1.44314038 L78.6349628,14.72396 L82.8528127,14.72396 L82.8528127,17.0599999 Z M87.9791225,4.55786029 L86.9192526,11.2631601 L89.0822525,11.2631601 L88.0223825,4.55786029 L87.9791225,4.55786029 Z M86.5299126,13.5992 L86.0540526,17.0599999 L83.4584527,17.0599999 L86.3352426,1.44314038 L89.6662625,1.44314038 L92.5430524,17.0599999 L89.9474525,17.0599999 L89.4715925,13.5992 L86.5299126,13.5992 Z M102.190032,6.65597023 L99.5079122,6.65597023 L99.5079122,5.44469027 C99.5079122,4.1252603 98.9022722,3.56288032 98.2101122,3.56288032 C97.1286123,3.56288032 96.7825323,4.1252603 96.7825323,5.29328027 L96.7825323,13.20986 C96.7825323,14.37788 97.1286123,14.94026 98.2101122,14.94026 C99.1834622,14.94026 99.5079122,14.37788 99.5079122,13.36127 L99.5079122,11.4794601 L102.190032,11.4794601 L102.190032,13.27475 C102.190032,15.48101 100.892232,17.2762999 98.2101122,17.2762999 C95.3982123,17.2762999 94.1004124,15.48101 94.1004124,13.27475 L94.1004124,5.22839027 C94.1004124,3.02213033 95.3982123,1.22684038 98.2101122,1.22684038 C100.892232,1.22684038 102.190032,3.17354033 102.190032,5.50958026 L102.190032,6.65597023 Z M112.399392,17.0599999 L104.915412,17.0599999 L104.915412,1.44314038 L112.096572,1.44314038 L112.096572,3.77918031 L107.597532,3.77918031 L107.597532,7.8023602 L111.058332,7.8023602 L111.058332,10.1384001 L107.597532,10.1384001 L107.597532,14.72396 L112.399392,14.72396 L112.399392,17.0599999 Z" id="VRAIEPLACE"></path>
                <path d="M-3.00045979,11.7379398 L-3.00045979,5.61973994 L-1.59553983,5.61973994 L-1.59553983,11.7945898 C-1.59553983,12.3950798 -1.35760984,12.6896597 -0.847759851,12.6896597 C-0.337909866,12.6896597 -0.0999798722,12.3950798 -0.0999798722,11.7945898 L-0.0999798722,5.61973994 L1.30494009,5.61973994 L1.30494009,11.7379398 C1.30494009,13.1428597 0.489180111,13.9132997 -0.847759851,13.9132997 C-2.18469981,13.9132997 -3.00045979,13.1428597 -3.00045979,11.7379398 Z M3.93350002,13.7999997 L2.66454005,13.7999997 L2.66454005,5.61973994 L3.96749001,5.61973994 L5.67831997,10.2990298 L5.70097997,10.2990298 L5.70097997,5.61973994 L6.96993993,5.61973994 L6.96993993,13.7999997 L5.74629997,13.7999997 L3.95616002,8.69016986 L3.93350002,8.69016986 L3.93350002,13.7999997 Z M12.2497198,13.7999997 L8.32953989,13.7999997 L8.32953989,5.61973994 L12.0910998,5.61973994 L12.0910998,6.84337991 L9.73445985,6.84337991 L9.73445985,8.95075985 L11.5472598,8.95075985 L11.5472598,10.1743998 L9.73445985,10.1743998 L9.73445985,12.5763597 L12.2497198,12.5763597 L12.2497198,13.7999997 Z" id="UNE" transform="translate(4.624630, 9.766520) rotate(-90.000000) translate(-4.624630, -9.766520) "></path>
            </g>
        </g>
        <path d="M49.2,68 L54.02,68 L54.02,75.32 C54.2333344,74.7066636 54.5599978,74.2133352 55,73.84 C55.4400022,73.4666648 56.1066622,73.28 57,73.28 C59.066677,73.28 60.1,74.3933222 60.1,76.62 L60.1,82.64 L61.22,82.64 L61.22,83 L55.56,83 L55.56,82.64 L56.38,82.64 L56.38,76.14 C56.38,75.339996 56.3266672,74.8233345 56.22,74.59 C56.1133328,74.3566655 55.9200014,74.24 55.64,74.24 C55.2133312,74.24 54.8366683,74.5199972 54.51,75.08 C54.1833317,75.6400028 54.02,76.319996 54.02,77.12 L54.02,82.64 L54.88,82.64 L54.88,83 L49.2,83 L49.2,82.64 L50.3,82.64 L50.3,68.36 L49.2,68.36 L49.2,68 Z M67.32,78.3 L67.9,78.3 L67.9,76.76 C67.9,75.493327 67.8300007,74.6433355 67.69,74.21 C67.5499993,73.7766645 67.280002,73.56 66.88,73.56 C66.6399988,73.56 66.4233343,73.6233327 66.23,73.75 C66.0366657,73.8766673 65.94,74.0499989 65.94,74.27 C65.94,74.4900011 65.9799996,74.7133322 66.06,74.94 L66.56,74.94 C66.6666672,75.2200014 66.72,75.5566647 66.72,75.95 C66.72,76.3433353 66.553335,76.6833319 66.22,76.97 C65.886665,77.2566681 65.4666692,77.4 64.96,77.4 C63.8133276,77.4 63.24,76.8466722 63.24,75.74 C63.24,74.0999918 64.6333194,73.28 67.42,73.28 C69.0066746,73.28 70.1033303,73.5499973 70.71,74.09 C71.3166697,74.6300027 71.62,75.6199928 71.62,77.06 L71.62,81.12 C71.62,81.8133368 71.8133314,82.16 72.2,82.16 C72.6533356,82.16 72.9199996,81.4733402 73,80.1 L73.3,80.12 C73.2466664,81.2933392 73.0266686,82.0999978 72.64,82.54 C72.2533314,82.9800022 71.6200044,83.2 70.74,83.2 C69.139992,83.2 68.2200012,82.7066716 67.98,81.72 C67.8066658,82.2266692 67.5466684,82.5999988 67.2,82.84 C66.8533316,83.0800012 66.34667,83.2 65.68,83.2 C63.7066568,83.2 62.72,82.3933414 62.72,80.78 C62.72,79.8333286 63.0966629,79.1833351 63.85,78.83 C64.6033371,78.4766649 65.7599922,78.3 67.32,78.3 Z M66.52,80.76 C66.52,81.4533368 66.5566663,81.899999 66.63,82.1 C66.7033337,82.300001 66.8433323,82.4 67.05,82.4 C67.2566677,82.4 67.4499991,82.2300017 67.63,81.89 C67.8100009,81.5499983 67.9,81.080003 67.9,80.48 L67.9,78.62 L67.76,78.62 C66.9333292,78.62 66.52,79.2266606 66.52,80.44 L66.52,80.76 Z M74.54,73.48 L79.36,73.48 L79.36,75.32 C79.5733344,74.7066636 79.8999978,74.2133352 80.34,73.84 C80.7800022,73.4666648 81.4466622,73.28 82.34,73.28 C84.406677,73.28 85.44,74.3933222 85.44,76.62 L85.44,82.64 L86.56,82.64 L86.56,83 L80.9,83 L80.9,82.64 L81.72,82.64 L81.72,76.14 C81.72,75.339996 81.6666672,74.8233345 81.56,74.59 C81.4533328,74.3566655 81.2600014,74.24 80.98,74.24 C80.5533312,74.24 80.1766683,74.5199972 79.85,75.08 C79.5233317,75.6400028 79.36,76.319996 79.36,77.12 L79.36,82.64 L80.22,82.64 L80.22,83 L74.54,83 L74.54,82.64 L75.64,82.64 L75.64,73.84 L74.54,73.84 L74.54,73.48 Z M91.88,78.86 C91.88,80.260007 91.9533326,81.1899977 92.1,81.65 C92.2466674,82.1100023 92.5166647,82.34 92.91,82.34 C93.3033353,82.34 93.6433319,82.1666684 93.93,81.82 C94.2166681,81.4733316 94.36,80.9600034 94.36,80.28 L94.36,75.92 C94.36,75.3466638 94.2466678,74.860002 94.02,74.46 C93.7933322,74.059998 93.4600022,73.86 93.02,73.86 C92.5799978,73.86 92.2800008,74.1533304 92.12,74.74 C91.9599992,75.3266696 91.88,76.353326 91.88,77.82 L91.88,78.86 Z M94.62,83 L94.4,81.6 C93.9466644,82.666672 93.0266736,83.2 91.64,83.2 C90.4933276,83.2 89.6033365,82.7866708 88.97,81.96 C88.3366635,81.1333292 88.02,79.9000082 88.02,78.26 C88.02,74.9399834 89.3399868,73.28 91.98,73.28 C93.1533392,73.28 93.9266648,73.6066634 94.3,74.26 L94.3,68.36 L93.08,68.36 L93.08,68 L98.08,68 L98.08,82.64 L99.06,82.64 L99.06,83 L94.62,83 Z M103.52,72.1 C102.81333,72.1 102.310001,71.9200018 102.01,71.56 C101.709998,71.1999982 101.56,70.753336 101.56,70.22 C101.56,69.686664 101.723332,69.2466684 102.05,68.9 C102.376668,68.5533316 102.87333,68.38 103.54,68.38 C104.20667,68.38 104.713332,68.5366651 105.06,68.85 C105.406668,69.1633349 105.58,69.6099971 105.58,70.19 C105.58,70.7700029 105.413335,71.2333316 105.08,71.58 C104.746665,71.9266684 104.22667,72.1 103.52,72.1 Z M100.5,73.48 L105.4,73.48 L105.4,82.64 L106.52,82.64 L106.52,83 L100.58,83 L100.58,82.64 L101.68,82.64 L101.68,73.84 L100.5,73.84 L100.5,73.48 Z M113.52,73.64 C112.93333,73.64 112.513335,73.9599968 112.26,74.6 C112.006665,75.2400032 111.88,76.2999926 111.88,77.78 L111.88,78.82 C111.88,80.1400066 112.026665,81.0866638 112.32,81.66 C112.613335,82.2333362 113.153329,82.52 113.94,82.52 C114.726671,82.52 115.353331,82.253336 115.82,81.72 C116.286669,81.186664 116.586666,80.5800034 116.72,79.9 L117.08,79.94 C116.826665,81.0866724 116.360003,81.9133308 115.68,82.42 C114.986663,82.9400026 114.033339,83.2 112.82,83.2 C111.273326,83.2 110.086671,82.7833375 109.26,81.95 C108.433329,81.1166625 108.02,79.8966747 108.02,78.29 C108.02,76.6833253 108.489995,75.446671 109.43,74.58 C110.370005,73.713329 111.679992,73.28 113.36,73.28 C114.546673,73.28 115.45333,73.5099977 116.08,73.97 C116.70667,74.4300023 117.02,75.0066632 117.02,75.7 C117.02,76.3933368 116.870002,76.8999984 116.57,77.22 C116.269998,77.5400016 115.856669,77.7 115.33,77.7 C114.803331,77.7 114.380002,77.5600014 114.06,77.28 C113.739998,76.9999986 113.58,76.5866694 113.58,76.04 C113.58,75.7999988 113.613333,75.5600012 113.68,75.32 L114.34,75.32 C114.433334,75.053332 114.48,74.8133344 114.48,74.6 C114.48,73.9599968 114.160003,73.64 113.52,73.64 Z M123.38,78.3 L123.96,78.3 L123.96,76.76 C123.96,75.493327 123.890001,74.6433355 123.75,74.21 C123.609999,73.7766645 123.340002,73.56 122.94,73.56 C122.699999,73.56 122.483334,73.6233327 122.29,73.75 C122.096666,73.8766673 122,74.0499989 122,74.27 C122,74.4900011 122.04,74.7133322 122.12,74.94 L122.62,74.94 C122.726667,75.2200014 122.78,75.5566647 122.78,75.95 C122.78,76.3433353 122.613335,76.6833319 122.28,76.97 C121.946665,77.2566681 121.526669,77.4 121.02,77.4 C119.873328,77.4 119.3,76.8466722 119.3,75.74 C119.3,74.0999918 120.693319,73.28 123.48,73.28 C125.066675,73.28 126.16333,73.5499973 126.77,74.09 C127.37667,74.6300027 127.68,75.6199928 127.68,77.06 L127.68,81.12 C127.68,81.8133368 127.873331,82.16 128.26,82.16 C128.713336,82.16 128.98,81.4733402 129.06,80.1 L129.36,80.12 C129.306666,81.2933392 129.086669,82.0999978 128.7,82.54 C128.313331,82.9800022 127.680004,83.2 126.8,83.2 C125.199992,83.2 124.280001,82.7066716 124.04,81.72 C123.866666,82.2266692 123.606668,82.5999988 123.26,82.84 C122.913332,83.0800012 122.40667,83.2 121.74,83.2 C119.766657,83.2 118.78,82.3933414 118.78,80.78 C118.78,79.8333286 119.156663,79.1833351 119.91,78.83 C120.663337,78.4766649 121.819992,78.3 123.38,78.3 Z M122.58,80.76 C122.58,81.4533368 122.616666,81.899999 122.69,82.1 C122.763334,82.300001 122.903332,82.4 123.11,82.4 C123.316668,82.4 123.509999,82.2300017 123.69,81.89 C123.870001,81.5499983 123.96,81.080003 123.96,80.48 L123.96,78.62 L123.82,78.62 C122.993329,78.62 122.58,79.2266606 122.58,80.44 L122.58,80.76 Z M137.66,77.62 C137.66,76.2466598 137.593334,75.3233357 137.46,74.85 C137.326666,74.3766643 137.066669,74.14 136.68,74.14 C136.293331,74.14 135.946668,74.3899975 135.64,74.89 C135.333332,75.3900025 135.18,76.0599958 135.18,76.9 L135.18,80.56 C135.18,81.1333362 135.293332,81.619998 135.52,82.02 C135.746668,82.420002 136.079998,82.62 136.52,82.62 C136.960002,82.62 137.259999,82.3266696 137.42,81.74 C137.580001,81.1533304 137.66,80.126674 137.66,78.66 L137.66,77.62 Z M135.14,73.48 L135.14,75.06 C135.660003,73.8733274 136.579993,73.28 137.9,73.28 C139.046672,73.28 139.936664,73.6933292 140.57,74.52 C141.203336,75.3466708 141.52,76.5999916 141.52,78.28 C141.52,79.9600084 141.17667,81.199996 140.49,82 C139.80333,82.800004 138.77334,83.2 137.4,83.2 C136.759997,83.2 136.280002,83.1200008 135.96,82.96 C135.639998,82.7999992 135.380001,82.553335 135.18,82.22 L135.18,87.4 L137.76,87.4 L137.76,87.76 L130.36,87.76 L130.36,87.4 L131.46,87.4 L131.46,73.84 L130.4,73.84 L130.4,73.48 L135.14,73.48 Z M148.38,83.2 C146.659991,83.2 145.370004,82.7566711 144.51,81.87 C143.649996,80.9833289 143.22,79.7500079 143.22,78.17 C143.22,76.5899921 143.703328,75.3800042 144.67,74.54 C145.636671,73.6999958 146.866659,73.28 148.36,73.28 C151.386682,73.28 152.840001,74.7999848 152.72,77.84 L147.08,77.84 L147.08,78.62 C147.08,79.9266732 147.246665,80.91333 147.58,81.58 C147.913335,82.24667 148.493329,82.58 149.32,82.58 C150.866674,82.58 151.879998,81.7533416 152.36,80.1 L152.72,80.16 C152.466665,81.1200048 152.010003,81.866664 151.35,82.4 C150.689997,82.933336 149.700007,83.2 148.38,83.2 Z M149.16,77.44 L149.16,76.46 C149.16,75.3799946 149.096667,74.6433353 148.97,74.25 C148.843333,73.8566647 148.590002,73.66 148.21,73.66 C147.829998,73.66 147.550001,73.8699979 147.37,74.29 C147.189999,74.7100021 147.1,75.4333282 147.1,76.46 L147.1,77.44 L149.16,77.44 Z M146.88,72.06 L148.14,68.24 L149.08,68.04 C149.493335,67.9466662 149.809999,67.9966657 150.03,68.19 C150.250001,68.3833343 150.36,68.6433317 150.36,68.97 C150.36,69.2966683 150.166669,69.6333316 149.78,69.98 L147.1,72.2 L146.88,72.06 Z M159.7,83.2 C157.979991,83.2 156.690004,82.7566711 155.83,81.87 C154.969996,80.9833289 154.54,79.7500079 154.54,78.17 C154.54,76.5899921 155.023328,75.3800042 155.99,74.54 C156.956672,73.6999958 158.186659,73.28 159.68,73.28 C162.706682,73.28 164.160001,74.7999848 164.04,77.84 L158.4,77.84 L158.4,78.62 C158.4,79.9266732 158.566665,80.91333 158.9,81.58 C159.233335,82.24667 159.813329,82.58 160.64,82.58 C162.186674,82.58 163.199998,81.7533416 163.68,80.1 L164.04,80.16 C163.786665,81.1200048 163.330003,81.866664 162.67,82.4 C162.009997,82.933336 161.020007,83.2 159.7,83.2 Z M158.42,77.44 L160.48,77.44 L160.48,76.46 C160.48,75.3799946 160.416667,74.6433353 160.29,74.25 C160.163333,73.8566647 159.910002,73.66 159.53,73.66 C159.149998,73.66 158.870001,73.8699979 158.69,74.29 C158.509999,74.7100021 158.42,75.4333282 158.42,76.46 L158.42,77.44 Z M166.22,83.2 L166.22,79.62 L166.46,79.62 C166.806668,80.7800058 167.27333,81.593331 167.86,82.06 C168.44667,82.526669 169.179996,82.76 170.06,82.76 C171.420007,82.76 172.1,82.326671 172.1,81.46 C172.1,81.0866648 171.933335,80.8066676 171.6,80.62 C171.079997,80.3266652 170.413337,80.1000008 169.6,79.94 C168.693329,79.6999988 167.933336,79.380002 167.32,78.98 C166.586663,78.4999976 166.22,77.74 166.22,76.7 C166.22,75.6599948 166.539997,74.8300031 167.18,74.21 C167.820003,73.5899969 168.673328,73.28 169.74,73.28 C170.393337,73.28 171.066663,73.4333318 171.76,73.74 C172.013335,73.8466672 172.206666,73.9 172.34,73.9 C172.473334,73.9 172.586666,73.8533338 172.68,73.76 C172.773334,73.6666662 172.886666,73.4933346 173.02,73.24 L173.24,73.24 L173.24,76.3 L173,76.3 C172.319997,74.566658 171.266674,73.7 169.84,73.7 C169.21333,73.7 168.746668,73.8099989 168.44,74.03 C168.133332,74.2500011 167.98,74.526665 167.98,74.86 C167.98,75.060001 168.026666,75.2166661 168.12,75.33 C168.213334,75.4433339 168.286666,75.5266664 168.34,75.58 C168.393334,75.6333336 168.479999,75.6899997 168.6,75.75 C168.720001,75.8100003 168.82,75.8566665 168.9,75.89 C168.98,75.9233335 169.103332,75.9666664 169.27,76.02 C169.436667,76.0733336 169.56,76.1066666 169.64,76.12 C170.546671,76.3466678 171.199998,76.5433325 171.6,76.71 C172.000002,76.8766675 172.379998,77.0799988 172.74,77.32 C173.473337,77.8266692 173.84,78.6433277 173.84,79.77 C173.84,80.8966723 173.50667,81.7499971 172.84,82.33 C172.17333,82.9100029 171.260006,83.2 170.1,83.2 C169.273329,83.2 168.473337,83.0066686 167.7,82.62 C167.539999,82.5133328 167.413334,82.46 167.32,82.46 C167.026665,82.46 166.740001,82.7066642 166.46,83.2 L166.22,83.2 Z" id="handicapées" fill="#FFFFFF" fill-rule="nonzero"></path>
        <path d="M9,49.544 C9,47.8959918 8.9200008,46.7880028 8.76,46.22 C8.5999992,45.6519972 8.28800232,45.368 7.824,45.368 C7.35999768,45.368 6.94400184,45.667997 6.576,46.268 C6.20799816,46.868003 6.024,47.671995 6.024,48.68 L6.024,53.072 C6.024,53.7600034 6.15999864,54.3439976 6.432,54.824 C6.70400136,55.3040024 7.10399736,55.544 7.632,55.544 C8.16000264,55.544 8.51999904,55.1920035 8.712,54.488 C8.90400096,53.7839965 9,52.5520088 9,50.792 L9,49.544 Z M5.976,44.576 L5.976,46.472 C6.60000312,45.0479929 7.70399208,44.336 9.288,44.336 C10.6640069,44.336 11.7319962,44.831995 12.492,45.824 C13.2520038,46.816005 13.632,48.3199899 13.632,50.336 C13.632,52.3520101 13.2200041,53.8399952 12.396,54.8 C11.5719959,55.7600048 10.3360082,56.24 8.688,56.24 C7.91999616,56.24 7.34400192,56.144001 6.96,55.952 C6.57599808,55.759999 6.2640012,55.464002 6.024,55.064 L6.024,61.28 L9.12,61.28 L9.12,61.712 L0.24,61.712 L0.24,61.28 L1.56,61.28 L1.56,45.008 L0.288,45.008 L0.288,44.576 L5.976,44.576 Z M23.104,51.272 L23.104,49.232 C23.104,47.6799922 23.0200008,46.5480036 22.852,45.836 C22.6839992,45.1239964 22.296003,44.768 21.688,44.768 C21.3359982,44.768 21.0520011,44.867999 20.836,45.068 C20.6199989,45.268001 20.4640005,45.5999977 20.368,46.064 C20.2239993,46.7840036 20.152,47.8799926 20.152,49.352 L20.152,51.224 C20.152,52.9680087 20.2039995,54.0159982 20.308,54.368 C20.4120005,54.7200018 20.5199994,55.0079989 20.632,55.232 C20.8080009,55.6160019 21.1519974,55.808 21.664,55.808 C22.2880031,55.808 22.695999,55.4480036 22.888,54.728 C23.0320007,54.2159974 23.104,53.064009 23.104,51.272 Z M21.616,56.24 C19.61599,56.24 18.1040051,55.7280051 17.08,54.704 C16.0559949,53.6799949 15.544,52.2120096 15.544,50.3 C15.544,48.3879904 16.0919945,46.9160052 17.188,45.884 C18.2840055,44.8519948 19.8239901,44.336 21.808,44.336 C23.7920099,44.336 25.2719951,44.8119952 26.248,45.764 C27.2240049,46.7160048 27.712,48.1679902 27.712,50.12 C27.712,54.2000204 25.6800203,56.24 21.616,56.24 Z M43.424,56 L37.952,56 L37.688,54.248 C37.4319987,54.8880032 37.0520025,55.3799983 36.548,55.724 C36.0439975,56.0680017 35.296005,56.24 34.304,56.24 C31.8239876,56.24 30.584,54.9040134 30.584,52.232 L30.584,45.008 L29.24,45.008 L29.24,44.576 L35.048,44.576 L35.048,52.808 C35.048,53.7680048 35.1159993,54.3999985 35.252,54.704 C35.3880007,55.0080015 35.659998,55.16 36.068,55.16 C36.476002,55.16 36.8399984,54.9120025 37.16,54.416 C37.4800016,53.9199975 37.64,53.2320044 37.64,52.352 L37.64,45.008 L36.536,45.008 L36.536,44.576 L42.104,44.576 L42.104,55.568 L43.424,55.568 L43.424,56 Z M52.92,45.248 C52.327997,45.248 51.8080022,45.6319962 51.36,46.4 C50.9119978,47.1680038 50.688,48.0799947 50.688,49.136 L50.688,55.568 L52.392,55.568 L52.392,56 L44.904,56 L44.904,55.568 L46.224,55.568 L46.224,45.008 L44.904,45.008 L44.904,44.576 L50.688,44.576 L50.688,46.88 C50.896001,46.0639959 51.295997,45.4360022 51.888,44.996 C52.480003,44.5559978 53.1519962,44.336 53.904,44.336 C54.6560038,44.336 55.2679976,44.5479979 55.74,44.972 C56.2120024,45.3960021 56.448,45.9959961 56.448,46.772 C56.448,47.5480039 56.2720018,48.1439979 55.92,48.56 C55.5679982,48.9760021 55.0280036,49.184 54.3,49.184 C53.5719964,49.184 53.0360017,48.9440024 52.692,48.464 C52.3479983,47.9839976 52.3039987,47.3200042 52.56,46.472 L53.424,46.472 C53.824002,45.6559959 53.6560037,45.248 52.92,45.248 Z M63.008,38 L68.888,38 L68.888,55.568 L70.232,55.568 L70.232,56 L63.104,56 L63.104,55.568 L64.424,55.568 L64.424,38.432 L63.008,38.432 L63.008,38 Z M78,56.24 C75.9359897,56.24 74.3880052,55.7080053 73.356,54.644 C72.3239948,53.5799947 71.808,52.1000095 71.808,50.204 C71.808,48.3079905 72.3879942,46.856005 73.548,45.848 C74.7080058,44.839995 76.183991,44.336 77.976,44.336 C81.6080182,44.336 83.3520007,46.1599818 83.208,49.808 L76.44,49.808 L76.44,50.744 C76.44,52.3120078 76.639998,53.495996 77.04,54.296 C77.440002,55.096004 78.135995,55.496 79.128,55.496 C80.9840093,55.496 82.1999971,54.5040099 82.776,52.52 L83.208,52.592 C82.9039985,53.7440058 82.356004,54.6399968 81.564,55.28 C80.771996,55.9200032 79.5840079,56.24 78,56.24 Z M76.464,49.328 L78.936,49.328 L78.936,48.152 C78.936,46.8559935 78.8600008,45.9720024 78.708,45.5 C78.5559992,45.0279976 78.2520023,44.792 77.796,44.792 C77.3399977,44.792 77.0040011,45.0439975 76.788,45.548 C76.5719989,46.0520025 76.464,46.9199938 76.464,48.152 L76.464,49.328 Z M85.384,56.24 L85.384,51.944 L85.672,51.944 C86.0880021,53.336007 86.6479965,54.3119972 87.352,54.872 C88.0560035,55.4320028 88.9359947,55.712 89.992,55.712 C91.6240082,55.712 92.44,55.1920052 92.44,54.152 C92.44,53.7039978 92.240002,53.3680011 91.84,53.144 C91.2159969,52.7919982 90.4160049,52.520001 89.44,52.328 C88.3519946,52.0399986 87.4400037,51.6560024 86.704,51.176 C85.8239956,50.5999971 85.384,49.6880062 85.384,48.44 C85.384,47.1919938 85.7679962,46.1960037 86.536,45.452 C87.3040038,44.7079963 88.3279936,44.336 89.608,44.336 C90.3920039,44.336 91.1999958,44.5199982 92.032,44.888 C92.3360015,45.0160006 92.5679992,45.08 92.728,45.08 C92.8880008,45.08 93.0239994,45.0240006 93.136,44.912 C93.2480006,44.7999994 93.3839992,44.5920015 93.544,44.288 L93.808,44.288 L93.808,47.96 L93.52,47.96 C92.7039959,45.8799896 91.4400086,44.84 89.728,44.84 C88.9759962,44.84 88.4160018,44.9719987 88.048,45.236 C87.6799982,45.5000013 87.496,45.831998 87.496,46.232 C87.496,46.4720012 87.5519994,46.6599993 87.664,46.796 C87.7760006,46.9320007 87.8639997,47.0319997 87.928,47.096 C87.9920003,47.1600003 88.0959993,47.2279996 88.24,47.3 C88.3840007,47.3720004 88.5039995,47.4279998 88.6,47.468 C88.6960005,47.5080002 88.843999,47.5599997 89.044,47.624 C89.244001,47.6880003 89.3919995,47.7279999 89.488,47.744 C90.5760054,48.0160014 91.3599976,48.251999 91.84,48.452 C92.3200024,48.652001 92.7759978,48.8959986 93.208,49.184 C94.0880044,49.792003 94.528,50.7719932 94.528,52.124 C94.528,53.4760068 94.128004,54.4999965 93.328,55.196 C92.527996,55.8920035 91.432007,56.24 90.04,56.24 C89.047995,56.24 88.0880046,56.0080023 87.16,55.544 C86.967999,55.4159994 86.8160006,55.352 86.704,55.352 C86.3519982,55.352 86.0080017,55.647997 85.672,56.24 L85.384,56.24 Z M110.328,49.544 C110.328,47.8959918 110.248001,46.7880028 110.088,46.22 C109.927999,45.6519972 109.616002,45.368 109.152,45.368 C108.687998,45.368 108.272002,45.667997 107.904,46.268 C107.535998,46.868003 107.352,47.671995 107.352,48.68 L107.352,53.072 C107.352,53.7600034 107.487999,54.3439976 107.76,54.824 C108.032001,55.3040024 108.431997,55.544 108.96,55.544 C109.488003,55.544 109.847999,55.1920035 110.04,54.488 C110.232001,53.7839965 110.328,52.5520088 110.328,50.792 L110.328,49.544 Z M107.304,44.576 L107.304,46.472 C107.928003,45.0479929 109.031992,44.336 110.616,44.336 C111.992007,44.336 113.059996,44.831995 113.82,45.824 C114.580004,46.816005 114.96,48.3199899 114.96,50.336 C114.96,52.3520101 114.548004,53.8399952 113.724,54.8 C112.899996,55.7600048 111.664008,56.24 110.016,56.24 C109.247996,56.24 108.672002,56.144001 108.288,55.952 C107.903998,55.759999 107.592001,55.464002 107.352,55.064 L107.352,61.28 L110.448,61.28 L110.448,61.712 L101.568,61.712 L101.568,61.28 L102.888,61.28 L102.888,45.008 L101.616,45.008 L101.616,44.576 L107.304,44.576 Z M122.992,56.24 C120.92799,56.24 119.380005,55.7080053 118.348,54.644 C117.315995,53.5799947 116.8,52.1000095 116.8,50.204 C116.8,48.3079905 117.379994,46.856005 118.54,45.848 C119.700006,44.839995 121.175991,44.336 122.968,44.336 C126.600018,44.336 128.344001,46.1599818 128.2,49.808 L121.432,49.808 L121.432,50.744 C121.432,52.3120078 121.631998,53.495996 122.032,54.296 C122.432002,55.096004 123.127995,55.496 124.12,55.496 C125.976009,55.496 127.191997,54.5040099 127.768,52.52 L128.2,52.592 C127.895998,53.7440058 127.348004,54.6399968 126.556,55.28 C125.763996,55.9200032 124.576008,56.24 122.992,56.24 Z M121.456,49.328 L123.928,49.328 L123.928,48.152 C123.928,46.8559935 123.852001,45.9720024 123.7,45.5 C123.547999,45.0279976 123.244002,44.792 122.788,44.792 C122.331998,44.792 121.996001,45.0439975 121.78,45.548 C121.563999,46.0520025 121.456,46.9199938 121.456,48.152 L121.456,49.328 Z M138.08,45.248 C137.487997,45.248 136.968002,45.6319962 136.52,46.4 C136.071998,47.1680038 135.848,48.0799947 135.848,49.136 L135.848,55.568 L137.552,55.568 L137.552,56 L130.064,56 L130.064,55.568 L131.384,55.568 L131.384,45.008 L130.064,45.008 L130.064,44.576 L135.848,44.576 L135.848,46.88 C136.056001,46.0639959 136.455997,45.4360022 137.048,44.996 C137.640003,44.5559978 138.311996,44.336 139.064,44.336 C139.816004,44.336 140.427998,44.5479979 140.9,44.972 C141.372002,45.3960021 141.608,45.9959961 141.608,46.772 C141.608,47.5480039 141.432002,48.1439979 141.08,48.56 C140.727998,48.9760021 140.188004,49.184 139.46,49.184 C138.731996,49.184 138.196002,48.9440024 137.852,48.464 C137.507998,47.9839976 137.463999,47.3200042 137.72,46.472 L138.584,46.472 C138.984002,45.6559959 138.816004,45.248 138.08,45.248 Z M143.208,56.24 L143.208,51.944 L143.496,51.944 C143.912002,53.336007 144.471996,54.3119972 145.176,54.872 C145.880004,55.4320028 146.759995,55.712 147.816,55.712 C149.448008,55.712 150.264,55.1920052 150.264,54.152 C150.264,53.7039978 150.064002,53.3680011 149.664,53.144 C149.039997,52.7919982 148.240005,52.520001 147.264,52.328 C146.175995,52.0399986 145.264004,51.6560024 144.528,51.176 C143.647996,50.5999971 143.208,49.6880062 143.208,48.44 C143.208,47.1919938 143.591996,46.1960037 144.36,45.452 C145.128004,44.7079963 146.151994,44.336 147.432,44.336 C148.216004,44.336 149.023996,44.5199982 149.856,44.888 C150.160002,45.0160006 150.391999,45.08 150.552,45.08 C150.712001,45.08 150.847999,45.0240006 150.96,44.912 C151.072001,44.7999994 151.207999,44.5920015 151.368,44.288 L151.632,44.288 L151.632,47.96 L151.344,47.96 C150.527996,45.8799896 149.264009,44.84 147.552,44.84 C146.799996,44.84 146.240002,44.9719987 145.872,45.236 C145.503998,45.5000013 145.32,45.831998 145.32,46.232 C145.32,46.4720012 145.375999,46.6599993 145.488,46.796 C145.600001,46.9320007 145.688,47.0319997 145.752,47.096 C145.816,47.1600003 145.919999,47.2279996 146.064,47.3 C146.208001,47.3720004 146.328,47.4279998 146.424,47.468 C146.52,47.5080002 146.667999,47.5599997 146.868,47.624 C147.068001,47.6880003 147.216,47.7279999 147.312,47.744 C148.400005,48.0160014 149.183998,48.251999 149.664,48.452 C150.144002,48.652001 150.599998,48.8959986 151.032,49.184 C151.912004,49.792003 152.352,50.7719932 152.352,52.124 C152.352,53.4760068 151.952004,54.4999965 151.152,55.196 C150.351996,55.8920035 149.256007,56.24 147.864,56.24 C146.871995,56.24 145.912005,56.0080023 144.984,55.544 C144.791999,55.4159994 144.640001,55.352 144.528,55.352 C144.175998,55.352 143.832002,55.647997 143.496,56.24 L143.208,56.24 Z M161.824,51.272 L161.824,49.232 C161.824,47.6799922 161.740001,46.5480036 161.572,45.836 C161.403999,45.1239964 161.016003,44.768 160.408,44.768 C160.055998,44.768 159.772001,44.867999 159.556,45.068 C159.339999,45.268001 159.184,45.5999977 159.088,46.064 C158.943999,46.7840036 158.872,47.8799926 158.872,49.352 L158.872,51.224 C158.872,52.9680087 158.923999,54.0159982 159.028,54.368 C159.132001,54.7200018 159.239999,55.0079989 159.352,55.232 C159.528001,55.6160019 159.871997,55.808 160.384,55.808 C161.008003,55.808 161.415999,55.4480036 161.608,54.728 C161.752001,54.2159974 161.824,53.064009 161.824,51.272 Z M160.336,56.24 C158.33599,56.24 156.824005,55.7280051 155.8,54.704 C154.775995,53.6799949 154.264,52.2120096 154.264,50.3 C154.264,48.3879904 154.811995,46.9160052 155.908,45.884 C157.004005,44.8519948 158.54399,44.336 160.528,44.336 C162.51201,44.336 163.991995,44.8119952 164.968,45.764 C165.944005,46.7160048 166.432,48.1679902 166.432,50.12 C166.432,54.2000204 164.40002,56.24 160.336,56.24 Z M168.152,44.576 L173.936,44.576 L173.936,46.784 C174.192001,46.0479963 174.583997,45.4560022 175.112,45.008 C175.640003,44.5599978 176.439995,44.336 177.512,44.336 C179.992012,44.336 181.232,45.6719866 181.232,48.344 L181.232,55.568 L182.576,55.568 L182.576,56 L175.784,56 L175.784,55.568 L176.768,55.568 L176.768,47.768 C176.768,46.8079952 176.704001,46.1880014 176.576,45.908 C176.447999,45.6279986 176.216002,45.488 175.88,45.488 C175.367997,45.488 174.916002,45.8239966 174.524,46.496 C174.131998,47.1680034 173.936,47.9839952 173.936,48.944 L173.936,55.568 L174.968,55.568 L174.968,56 L168.152,56 L168.152,55.568 L169.472,55.568 L169.472,45.008 L168.152,45.008 L168.152,44.576 Z M183.936,44.576 L189.72,44.576 L189.72,46.784 C189.976001,46.0479963 190.367997,45.4560022 190.896,45.008 C191.424003,44.5599978 192.223995,44.336 193.296,44.336 C195.776012,44.336 197.016,45.6719866 197.016,48.344 L197.016,55.568 L198.36,55.568 L198.36,56 L191.568,56 L191.568,55.568 L192.552,55.568 L192.552,47.768 C192.552,46.8079952 192.488001,46.1880014 192.36,45.908 C192.231999,45.6279986 192.000002,45.488 191.664,45.488 C191.151997,45.488 190.700002,45.8239966 190.308,46.496 C189.915998,47.1680034 189.72,47.9839952 189.72,48.944 L189.72,55.568 L190.752,55.568 L190.752,56 L183.936,56 L183.936,55.568 L185.256,55.568 L185.256,45.008 L183.936,45.008 L183.936,44.576 Z M205.984,56.24 C203.91999,56.24 202.372005,55.7080053 201.34,54.644 C200.307995,53.5799947 199.792,52.1000095 199.792,50.204 C199.792,48.3079905 200.371994,46.856005 201.532,45.848 C202.692006,44.839995 204.167991,44.336 205.96,44.336 C209.592018,44.336 211.336001,46.1599818 211.192,49.808 L204.424,49.808 L204.424,50.744 C204.424,52.3120078 204.623998,53.495996 205.024,54.296 C205.424002,55.096004 206.119995,55.496 207.112,55.496 C208.968009,55.496 210.183997,54.5040099 210.76,52.52 L211.192,52.592 C210.887998,53.7440058 210.340004,54.6399968 209.548,55.28 C208.755996,55.9200032 207.568008,56.24 205.984,56.24 Z M204.448,49.328 L206.92,49.328 L206.92,48.152 C206.92,46.8559935 206.844001,45.9720024 206.692,45.5 C206.539999,45.0279976 206.236002,44.792 205.78,44.792 C205.323998,44.792 204.988001,45.0439975 204.772,45.548 C204.555999,46.0520025 204.448,46.9199938 204.448,48.152 L204.448,49.328 Z M213.608,56.24 L213.608,51.944 L213.896,51.944 C214.312002,53.336007 214.871996,54.3119972 215.576,54.872 C216.280004,55.4320028 217.159995,55.712 218.216,55.712 C219.848008,55.712 220.664,55.1920052 220.664,54.152 C220.664,53.7039978 220.464002,53.3680011 220.064,53.144 C219.439997,52.7919982 218.640005,52.520001 217.664,52.328 C216.575995,52.0399986 215.664004,51.6560024 214.928,51.176 C214.047996,50.5999971 213.608,49.6880062 213.608,48.44 C213.608,47.1919938 213.991996,46.1960037 214.76,45.452 C215.528004,44.7079963 216.551994,44.336 217.832,44.336 C218.616004,44.336 219.423996,44.5199982 220.256,44.888 C220.560002,45.0160006 220.791999,45.08 220.952,45.08 C221.112001,45.08 221.247999,45.0240006 221.36,44.912 C221.472001,44.7999994 221.607999,44.5920015 221.768,44.288 L222.032,44.288 L222.032,47.96 L221.744,47.96 C220.927996,45.8799896 219.664009,44.84 217.952,44.84 C217.199996,44.84 216.640002,44.9719987 216.272,45.236 C215.903998,45.5000013 215.72,45.831998 215.72,46.232 C215.72,46.4720012 215.775999,46.6599993 215.888,46.796 C216.000001,46.9320007 216.088,47.0319997 216.152,47.096 C216.216,47.1600003 216.319999,47.2279996 216.464,47.3 C216.608001,47.3720004 216.728,47.4279998 216.824,47.468 C216.92,47.5080002 217.067999,47.5599997 217.268,47.624 C217.468001,47.6880003 217.616,47.7279999 217.712,47.744 C218.800005,48.0160014 219.583998,48.251999 220.064,48.452 C220.544002,48.652001 220.999998,48.8959986 221.432,49.184 C222.312004,49.792003 222.752,50.7719932 222.752,52.124 C222.752,53.4760068 222.352004,54.4999965 221.552,55.196 C220.751996,55.8920035 219.656007,56.24 218.264,56.24 C217.271995,56.24 216.312005,56.0080023 215.384,55.544 C215.191999,55.4159994 215.040001,55.352 214.928,55.352 C214.575998,55.352 214.232002,55.647997 213.896,56.24 L213.608,56.24 Z" id="pourlespersonnes" fill="#FFFFFF" fill-rule="nonzero"></path>
    </g>
</svg>
