<?xml version="1.0" encoding="UTF-8" standalone="no"?><svg xmlns:dc="http://purl.org/dc/elements/1.1/" xmlns:cc="http://creativecommons.org/ns#" xmlns:rdf="http://www.w3.org/1999/02/22-rdf-syntax-ns#" xmlns:svg="http://www.w3.org/2000/svg" xmlns="http://www.w3.org/2000/svg" xmlns:sodipodi="http://sodipodi.sourceforge.net/DTD/sodipodi-0.dtd" xmlns:inkscape="http://www.inkscape.org/namespaces/inkscape" width="190" height="99" viewBox="0 0 190 99" version="1.1" id="svg3815" sodipodi:docname="vectoris-light.svg" inkscape:version="0.92.4 5da689c313, 2019-01-14"><metadata id="metadata3821"><rdf:RDF><cc:Work rdf:about=""><dc:format>image/svg+xml</dc:format><dc:type rdf:resource="http://purl.org/dc/dcmitype/StillImage"/><dc:title/></cc:Work></rdf:RDF></metadata><defs id="defs3819"/><sodipodi:namedview pagecolor="#ffffff" bordercolor="#666666" borderopacity="1" objecttolerance="10" gridtolerance="10" guidetolerance="10" inkscape:pageopacity="0" inkscape:pageshadow="2" inkscape:window-width="1920" inkscape:window-height="981" id="namedview3817" showgrid="false" inkscape:zoom="6.32" inkscape:cx="95" inkscape:cy="67.674537" inkscape:window-x="0" inkscape:window-y="28" inkscape:window-maximized="1" inkscape:current-layer="g3813"/><g id="g3813" style="fill:none;fill-rule:evenodd" transform="translate(0,-26)"><path d="m 189.193,66.915 c -0.38,0.16 -0.754,0.335 -1.123,0.526 -7.308,3.781 -9.944,12.383 -5.888,19.214 a 14.308,14.308 0 0 0 2.639,3.243 c -8.48,5.134 -12.27,14.742 -9.772,23.61 a 14.336,14.336 0 0 0 -7.407,1.57 c -3.8,1.966 -6.196,5.38 -6.839,9.098 H 6.703 A 5.443,5.443 0 0 1 1.26,118.733 V 70.69 A 5.443,5.443 0 0 1 6.703,65.247 H 185.27 c 1.541,0 2.932,0.64 3.923,1.669 z" id="path3795" inkscape:connector-curvature="0" style="fill:#ff6464;fill-rule:nonzero"/><path d="m 24.353,105.81 v -0.09 c -0.12,-0.15 -0.21,-0.316 -0.271,-0.496 l -0.587,-1.355 a 12.859,12.859 0 0 1 -0.542,-1.4 l -0.587,-1.806 c -0.18,-0.692 -0.33,-1.31 -0.451,-1.85 l -0.452,-1.942 -0.496,-1.897 -0.136,-0.406 -0.135,-0.452 c -0.211,0.12 -0.316,0.271 -0.316,0.452 l -0.181,2.89 v 0.135 l -0.045,0.135 c -0.06,0.181 -0.075,0.407 -0.045,0.678 v 0.722 l 0.18,1.897 v 0.36 l -0.135,1.084 v 0.542 l 0.045,0.497 -0.045,0.813 -0.045,0.451 c 0,0.15 0.03,0.286 0.09,0.406 v 0.181 c -0.03,0.301 -0.03,0.722 0,1.264 l 0.045,0.632 -0.045,0.633 v 1.354 c -0.03,0.331 -0.105,0.617 -0.226,0.858 l -0.542,0.722 -0.903,-0.045 a 0.304,0.304 0 0 1 -0.27,-0.135 c -0.422,-0.06 -0.708,-0.226 -0.858,-0.497 l -0.09,-0.27 v -0.317 c -0.242,-3.973 -0.347,-7.977 -0.317,-12.01 v -3.206 c 0,-0.361 0.03,-0.843 0.09,-1.445 l 0.09,-0.722 0.046,-0.723 v -3.205 c 0,-0.632 0.03,-1.19 0.09,-1.67 0.12,-1.085 0.226,-2.138 0.316,-3.162 v -1.444 l 0.136,-2.213 c 0,-0.27 0.105,-0.496 0.316,-0.677 l 0.226,-0.226 0.18,-0.226 0.09,-0.09 a 6.034,6.034 0 0 1 1.761,-0.722 c 0.813,-0.211 1.475,-0.211 1.987,0 0.15,0.06 0.331,0.15 0.542,0.27 l 0.542,0.362 0.045,0.045 0.045,0.09 0.135,0.497 0.226,0.497 c 0.03,0.15 0.075,0.33 0.136,0.541 l 0.09,0.542 0.045,0.18 v 0.227 l 0.045,0.316 0.136,0.541 0.09,0.542 v 1.084 l 0.045,0.09 c 0.12,0.241 0.226,0.572 0.316,0.994 l 0.136,0.541 0.135,0.497 0.407,1.761 c 0.06,0.21 0.09,0.406 0.09,0.587 0.03,0.21 0.075,0.436 0.135,0.677 l 0.271,0.677 c 0.06,0.12 0.106,0.301 0.136,0.542 l 0.09,0.542 0.135,0.497 0.09,0.316 0.046,0.316 c 0,0.21 0.045,0.466 0.135,0.767 l 0.226,0.633 0.361,1.67 0.045,0.09 c 0.12,0.181 0.211,0.452 0.271,0.813 l 0.046,0.407 0.135,0.406 0.135,0.587 0.452,1.806 c 0.12,0.482 0.24,0.888 0.361,1.219 l 0.09,0.361 0.136,0.361 c 0.03,0.06 0.075,0.12 0.135,0.181 0.03,0.03 0.076,0.03 0.136,0 l 0.135,-0.09 0.09,-0.18 0.271,-0.904 0.046,-0.09 0.045,-0.18 c 0.06,-0.181 0.12,-0.377 0.18,-0.588 0.241,-0.662 0.452,-1.279 0.632,-1.851 0.603,-1.806 0.904,-2.77 0.904,-2.89 l 0.18,-0.587 0.136,-0.632 0.09,-0.451 c 0,-0.06 0.03,-0.241 0.09,-0.542 0.09,-0.361 0.166,-0.738 0.226,-1.129 0.24,-1.053 0.421,-1.76 0.542,-2.122 l 0.27,-0.948 0.272,-0.903 0.27,-1.174 0.09,-0.632 0.181,-0.632 0.271,-0.858 0.226,-0.858 c 0.21,-0.692 0.406,-1.25 0.587,-1.67 l 0.09,-0.226 c 0.06,-0.512 0.331,-0.903 0.813,-1.174 l 0.09,-0.046 0.045,-0.045 c 0.151,-0.27 0.512,-0.481 1.084,-0.632 0.21,-0.06 0.437,-0.105 0.677,-0.135 l 0.226,-0.045 h 0.18 a 0.81,0.81 0 0 1 0.407,0.135 l 0.18,0.09 0.136,0.046 c 0.572,0.09 1.009,0.39 1.31,0.903 l 0.225,0.27 0.18,0.271 0.182,0.452 0.18,0.497 v 0.27 c -0.06,0.181 -0.075,0.903 -0.045,2.168 0.03,0.391 0.06,0.903 0.09,1.535 l 0.045,0.632 v 0.497 l 0.181,3.883 v 0.316 c 0.09,0.33 0.136,0.722 0.136,1.174 l -0.046,0.587 v 1.083 l 0.046,0.497 0.09,0.813 0.09,0.858 v 0.451 l -0.045,0.452 0.09,1.67 0.045,0.18 c 0.09,0.242 0.136,0.618 0.136,1.13 v 0.36 l 0.045,0.362 v 0.858 l 0.045,0.813 0.18,1.941 0.272,2.212 0.045,0.317 0.09,0.36 0.226,1.31 c 0.06,0.331 0,0.617 -0.18,0.858 -0.121,0.15 -0.196,0.286 -0.226,0.406 a 0.683,0.683 0 0 1 -0.452,0.497 c -0.18,0.18 -0.406,0.301 -0.677,0.361 -0.241,0.09 -0.512,0.136 -0.813,0.136 -0.06,0.03 -0.12,0.03 -0.18,0 l -0.497,-0.045 c -0.963,-0.06 -1.656,-0.286 -2.077,-0.678 -0.271,-0.24 -0.512,-0.647 -0.723,-1.219 a 1.003,1.003 0 0 1 -0.135,-0.316 l -0.045,-0.045 -0.18,-0.858 a 7.899,7.899 0 0 1 -0.181,-0.903 l -0.362,-2.89 -0.09,-1.444 -0.09,-2.123 -0.18,-2.122 C 35.4,97.051 35.355,96.313 35.325,95.471 L 35.28,93.258 35.144,89.556 v -0.135 l -0.045,-0.09 c -0.03,-0.06 -0.075,-0.091 -0.136,-0.091 -0.094,-0.024 -0.17,0.008 -0.227,0.095 a 45.225,45.225 0 0 0 -1.353,5.549 c -0.27,1.324 -0.797,3.28 -1.58,5.87 l -0.136,0.587 -0.09,0.451 -0.09,0.271 a 7.14,7.14 0 0 0 -0.452,1.355 l -0.18,0.677 c -0.06,0.27 -0.136,0.527 -0.226,0.767 l -0.045,0.271 -0.045,0.316 c -0.03,0.241 -0.09,0.422 -0.181,0.542 l -0.045,0.136 -0.045,0.18 -0.045,0.09 -0.046,0.136 -0.225,0.226 -0.271,0.18 -0.813,0.452 a 2.27,2.27 0 0 1 -0.587,0.316 l -0.361,0.045 h -1.174 a 3.915,3.915 0 0 1 -0.768,-0.226 c -0.511,-0.21 -1.008,-0.752 -1.49,-1.625 l -0.135,-0.136 v 0.046 z m 36.096,-5.734 v -0.451 l -0.226,-2.754 -0.18,-1.716 -0.136,-1.67 c -0.06,-0.482 -0.136,-1.054 -0.226,-1.717 l -0.27,-1.67 -0.317,-1.942 -0.09,-0.812 -0.18,-0.768 -0.362,-1.264 -0.361,-1.22 C 57.951,83.4 57.619,82.663 57.107,81.88 l -0.225,-0.316 -0.226,-0.27 c -0.09,-0.151 -0.24,-0.211 -0.452,-0.181 -0.3,0.03 -0.541,0.105 -0.722,0.226 l -0.497,0.451 c -0.21,0.18 -0.36,0.346 -0.451,0.497 l -0.226,0.36 -0.226,0.407 -0.451,0.678 -0.497,0.722 c -0.421,0.572 -0.843,1.385 -1.264,2.438 l -0.542,1.355 -0.135,0.496 -0.452,2.077 -0.09,0.271 -0.045,0.316 -0.046,0.407 c -0.03,0.18 -0.075,0.33 -0.135,0.451 v 0.226 l -0.09,0.677 -0.18,0.903 -0.182,1.897 -0.18,1.941 c -0.03,0.361 0.135,0.527 0.497,0.497 0.963,-0.03 1.926,0.12 2.89,0.451 l 0.406,0.136 0.451,0.135 1.716,0.361 0.497,0.136 0.541,0.09 2.348,0.18 0.361,0.046 0.407,0.045 0.226,0.045 z m 7.043,6.592 0.136,0.813 c 0.03,0.12 0.045,0.271 0.045,0.452 0.03,0.391 -0.015,0.752 -0.136,1.083 -0.09,0.271 -0.195,0.482 -0.316,0.632 -0.18,0.211 -0.436,0.347 -0.767,0.407 -0.211,0.06 -0.497,0.075 -0.858,0.045 -0.783,0 -1.55,-0.045 -2.303,-0.136 -0.391,-0.06 -0.662,-0.15 -0.813,-0.27 -0.15,-0.12 -0.27,-0.286 -0.36,-0.497 -0.061,-0.15 -0.121,-0.361 -0.181,-0.632 l -0.046,-0.045 -0.045,-0.181 -0.27,-1.264 c -0.09,-0.482 -0.151,-0.903 -0.181,-1.264 0,-0.452 -0.045,-0.903 -0.136,-1.355 -0.03,-0.24 -0.12,-0.421 -0.27,-0.542 -0.151,-0.15 -0.241,-0.361 -0.272,-0.632 l -0.09,-1.129 c -0.03,-0.24 -0.15,-0.33 -0.361,-0.27 -0.27,0.12 -0.587,0.18 -0.948,0.18 l -0.948,0.045 h -1.58 l -1.536,-0.045 -0.903,-0.09 a 5.793,5.793 0 0 1 -0.903,-0.136 l -0.677,-0.135 -0.723,-0.136 -0.903,-0.27 -0.903,-0.226 -0.09,-0.045 c -0.3,-0.09 -0.466,0.03 -0.497,0.36 -0.06,0.302 -0.06,0.753 0,1.355 l 0.09,0.858 0.046,0.903 0.18,1.535 0.271,2.077 c 0.03,0.422 0.046,0.783 0.046,1.084 l -0.046,0.135 c 0.03,0.482 -0.12,0.828 -0.451,1.039 -0.12,0.21 -0.271,0.346 -0.452,0.406 -0.3,0.06 -0.557,-0.045 -0.767,-0.316 -0.18,-0.15 -0.316,-0.391 -0.407,-0.722 -0.06,-0.271 -0.12,-0.572 -0.18,-0.903 l -0.09,-0.903 -0.136,-2.393 -0.226,-2.439 v -1.58 l 0.045,-0.632 c 0.03,-0.572 0.016,-1.023 -0.045,-1.354 A 11.43,11.43 0 0 1 47.49,98.361 l 0.045,-0.452 0.09,-0.451 0.09,-0.858 -0.09,-0.271 A 0.677,0.677 0 0 1 47.49,95.787 l 0.361,-2.393 0.136,-1.039 0.18,-1.038 0.181,-1.084 0.226,-1.083 0.18,-0.903 c 0.06,-0.331 0.166,-0.693 0.316,-1.084 l 0.362,-1.084 c 0.27,-0.692 0.557,-1.264 0.858,-1.715 l 0.09,-0.18 0.045,-0.182 c 0.06,-0.18 0.135,-0.3 0.226,-0.36 0.12,-0.151 0.256,-0.377 0.406,-0.678 l 0.452,-0.903 c 0.12,-0.15 0.255,-0.331 0.406,-0.542 l 0.316,-0.587 c 0.331,-0.542 0.602,-0.948 0.813,-1.219 0.361,-0.421 0.828,-0.783 1.4,-1.084 l 0.316,-0.135 0.36,-0.09 0.497,-0.226 0.497,-0.18 0.361,-0.091 a 0.658,0.658 0 0 1 0.407,-0.045 c 0.09,0.03 0.165,0.03 0.225,0 0.181,-0.09 0.407,-0.136 0.678,-0.136 l 0.316,0.046 0.36,0.045 0.904,0.135 c 0.18,0.03 0.361,0.09 0.542,0.18 l 0.948,0.407 0.27,0.18 0.317,0.181 0.316,0.226 0.18,0.09 c 0.663,0.633 1.1,1.174 1.31,1.626 0.15,0.391 0.331,0.722 0.542,0.993 0.3,0.361 0.511,0.798 0.632,1.31 l 0.135,0.316 0.09,0.27 v 0.181 l 0.046,0.226 0.045,0.451 c 0.06,0.362 0.105,0.557 0.135,0.587 0.211,0.332 0.316,0.633 0.316,0.903 l 0.046,0.136 0.045,0.09 c 0.18,0.512 0.27,1.22 0.27,2.122 l 0.046,0.407 0.09,0.406 0.361,1.806 v 0.045 c 0.03,0.482 0.09,0.903 0.181,1.264 v 0.723 c 0,0.09 0.03,0.21 0.09,0.361 l 0.045,0.18 c 0.03,0.06 0.046,0.106 0.046,0.136 l 0.045,1.039 0.045,0.406 v 0.406 c 0,0.241 0.015,0.512 0.045,0.813 l 0.09,0.813 0.136,1.083 c 0.03,0.422 0.03,0.783 0,1.084 0,0.18 0.03,0.452 0.09,0.813 l 0.045,0.451 v 1.987 l 0.045,0.27 0.136,0.949 0.045,0.677 0.18,1.31 z M 89.32,78.494 c 0.21,0.542 0.331,1.023 0.361,1.445 0.03,0.15 0.03,0.346 0,0.587 l -0.045,0.632 -0.09,0.677 -0.09,0.632 -0.136,1.31 -0.045,1.264 -0.09,1.084 -0.136,1.083 v 0.948 l -0.226,1.987 -0.18,1.355 -0.136,1.309 -0.406,4.199 v 2.529 c 0,0.842 0.03,1.55 0.09,2.122 v 1.49 l -0.045,2.438 0.045,0.722 c 0.03,1.204 -0.075,2.122 -0.316,2.754 -0.15,0.332 -0.376,0.542 -0.677,0.633 -0.03,0 -0.09,0.03 -0.18,0.09 l -0.181,0.135 -0.226,0.09 c -0.361,0.211 -0.617,0.317 -0.768,0.317 -0.03,0 -0.18,0.045 -0.451,0.135 l -0.361,0.045 a 1.4,1.4 0 0 0 -0.316,0.09 c -0.09,0.03 -0.377,-0.014 -0.858,-0.135 l -0.452,-0.09 a 3.476,3.476 0 0 0 -0.316,-0.045 c -0.3,0 -0.527,-0.136 -0.677,-0.407 l -0.903,-1.445 -0.813,-1.264 c -0.27,-0.481 -0.497,-0.918 -0.677,-1.31 l -0.136,-0.496 -0.135,-0.451 -0.406,-1.31 -0.181,-0.812 c -0.06,-0.301 -0.105,-0.572 -0.135,-0.813 l -0.136,-0.587 -0.135,-0.632 -0.587,-2.89 -0.18,-0.903 -0.182,-0.858 -0.09,-0.587 -0.135,-0.587 -0.271,-1.4 -0.271,-1.58 -0.497,-2.528 c -0.06,-0.18 -0.15,-0.271 -0.27,-0.271 -0.121,0 -0.181,0.09 -0.181,0.27 l -0.18,1.49 -0.136,1.581 -0.181,3.341 -0.135,2.077 -0.09,0.542 a 4.823,4.823 0 0 0 -0.181,1.625 l 0.135,2.484 v 0.18 l 0.045,0.226 c 0.09,0.632 0.076,1.415 -0.045,2.348 -0.03,0.12 -0.03,0.286 0,0.497 l 0.045,0.542 v 0.451 c 0,0.15 -0.015,0.27 -0.045,0.361 l -0.045,0.136 c -0.03,0.06 -0.03,0.24 0,0.542 0.06,0.36 0.03,0.647 -0.09,0.857 a 0.4,0.4 0 0 0 -0.045,0.181 c -0.03,0.24 -0.106,0.467 -0.226,0.677 l -0.18,0.271 -0.227,0.271 c -0.18,0.21 -0.406,0.256 -0.677,0.136 l -0.135,-0.09 -0.136,-0.046 c -0.18,0.03 -0.316,-0.03 -0.406,-0.18 l -0.136,-0.136 h -0.135 c -0.18,0 -0.301,-0.09 -0.361,-0.27 l -0.271,-0.994 c 0,-0.21 0.015,-0.617 0.045,-1.22 0,-0.27 0.015,-0.526 0.045,-0.767 l 0.045,-0.361 c 0.03,-0.15 0.045,-0.301 0.045,-0.452 l 0.09,-0.948 0.091,-0.903 c 0,-0.662 -0.03,-1.4 -0.09,-2.212 -0.06,-1.264 -0.045,-2.228 0.045,-2.89 l 0.09,-1.084 0.09,-1.4 0.136,-1.444 0.135,-2.664 0.09,-1.987 v -1.49 l 0.091,-1.354 c 0.06,-0.512 0.135,-0.978 0.226,-1.4 l 0.18,-0.813 0.136,-0.857 c 0.03,-0.151 0.06,-0.392 0.09,-0.723 l 0.045,-0.903 c 0.03,-0.783 0.106,-1.31 0.226,-1.58 l 0.316,-0.948 0.361,-0.949 c 0.09,-0.21 0.256,-0.496 0.497,-0.857 l 0.09,-0.09 0.452,-0.227 0.316,-0.18 0.451,-0.271 0.497,-0.226 c 0.24,-0.12 0.512,-0.105 0.813,0.045 l 0.542,0.226 0.496,0.226 c 0.963,0.542 1.58,1.129 1.851,1.76 l 0.046,0.272 0.135,0.451 0.09,0.452 c 0,0.21 0.09,0.572 0.271,1.083 l 0.18,0.587 c 0.091,0.211 0.136,0.377 0.136,0.497 0.06,0.18 0.106,0.512 0.136,0.993 l 0.045,0.587 c 0.03,0.18 0.06,0.331 0.09,0.452 l 0.226,1.4 0.045,0.27 c -0.03,0.362 0.045,0.648 0.226,0.858 l 0.045,0.045 v 0.136 l 0.135,0.813 c 0.06,0.36 0.09,0.647 0.09,0.857 0,0.151 0.03,0.332 0.091,0.542 l 0.361,1.084 c 0.06,0.21 0.106,0.406 0.136,0.587 0.03,0.331 0.105,0.737 0.226,1.219 l 0.18,0.858 0.18,0.903 c 0.06,0.12 0.106,0.3 0.136,0.542 l 0.045,0.542 0.045,0.135 0.09,0.18 v -0.09 l 0.091,-1.896 v -1.22 l 0.361,-3.34 V 89.24 c 0.12,-0.361 0.211,-0.813 0.271,-1.355 l 0.18,-1.354 0.046,-0.677 0.045,-0.723 v -0.135 l 0.045,-0.18 v -0.633 c 0.03,-0.24 0.076,-0.497 0.136,-0.768 l 0.045,-1.083 -0.09,-0.452 a 0.923,0.923 0 0 1 0,-0.406 c 0.03,-0.21 0.105,-0.527 0.225,-0.948 l 0.136,-1.084 c 0.03,-0.27 0.09,-0.542 0.18,-0.813 l 0.136,-0.225 0.18,-0.18 0.136,-0.182 c 0.15,-0.33 0.27,-0.496 0.361,-0.496 h 0.045 v -0.09 c 0.03,-0.12 0.09,-0.196 0.18,-0.226 h 0.317 l 0.993,0.135 h 0.09 l 0.226,0.18 0.226,0.091 0.271,0.271 c 0.09,0.09 0.15,0.18 0.18,0.27 0.06,0.091 0.106,0.197 0.136,0.317 z m 21.24,18.738 0.091,0.722 c 0.03,0.21 0.03,0.482 0,0.813 l -0.045,0.406 v 0.407 c 0.03,0.481 -0.045,1.068 -0.226,1.76 l -0.18,0.813 c -0.06,0.331 -0.09,0.647 -0.09,0.948 -0.03,0.09 -0.136,0.482 -0.317,1.174 l -0.09,0.407 -0.09,0.361 c -0.06,0.24 -0.106,0.406 -0.136,0.497 a 7.886,7.886 0 0 1 -0.677,2.167 c -0.15,0.27 -0.361,0.542 -0.632,0.813 l -0.18,0.135 -0.136,0.136 -0.18,0.135 c -0.061,0.06 -0.166,0.15 -0.317,0.27 -0.15,0.121 -0.256,0.197 -0.316,0.227 -0.09,0.03 -0.316,0.09 -0.677,0.18 l -0.407,0.09 -0.406,0.136 c -0.06,0.03 -0.256,0.075 -0.587,0.135 -0.3,0.09 -0.497,0.136 -0.587,0.136 h -0.496 a 3.665,3.665 0 0 0 -0.452,-0.045 c -0.18,-0.06 -0.331,-0.075 -0.452,-0.045 -0.541,0.03 -1.023,-0.046 -1.444,-0.226 a 2.311,2.311 0 0 0 -0.858,-0.18 c -0.422,0 -0.843,-0.196 -1.264,-0.588 l -0.271,-0.18 c -0.271,-0.09 -0.542,-0.271 -0.813,-0.542 l -0.361,-0.316 -0.362,-0.361 c -0.541,-0.602 -1.128,-1.55 -1.76,-2.845 L 95.48,104.05 a 4.213,4.213 0 0 1 -0.316,-0.678 l -0.18,-0.677 -0.18,-0.632 c -0.212,-0.572 -0.332,-1.008 -0.362,-1.31 l -0.09,-0.36 -0.136,-0.362 c -0.12,-0.3 -0.165,-0.542 -0.135,-0.722 0,-0.241 -0.06,-0.572 -0.18,-0.994 L 93.81,97.864 93.72,97.367 93.63,95.2 v -0.722 l 0.09,-1.852 0.135,-1.85 c 0.03,-0.332 0.105,-0.829 0.226,-1.49 l 0.27,-1.536 c 0.03,-0.361 0.136,-0.828 0.317,-1.4 l 0.225,-0.722 0.181,-0.677 c 0.09,-0.271 0.196,-0.602 0.316,-0.994 l 0.361,-0.948 0.226,-0.451 0.226,-0.407 0.09,-0.135 c 0.18,-0.241 0.482,-0.542 0.903,-0.903 l 0.452,-0.452 0.451,-0.406 c 0.18,-0.18 0.407,-0.376 0.677,-0.587 l 0.678,-0.497 0.18,-0.135 0.226,-0.09 1.49,-0.768 c 0.18,-0.09 0.391,-0.136 0.632,-0.136 l 0.993,-0.09 c 0.302,-0.03 0.527,-0.03 0.678,0 0.511,0.09 0.993,0.21 1.445,0.361 l 0.451,0.136 0.406,0.18 0.497,0.181 0.497,0.226 0.226,0.18 c 0.24,0.181 0.376,0.286 0.406,0.316 0.3,0.181 0.451,0.422 0.451,0.723 -0.03,0.361 -0.255,0.617 -0.677,0.767 l -0.451,0.181 -0.542,0.18 c -0.241,0.03 -0.828,-0.06 -1.761,-0.27 l -0.452,-0.045 h -0.451 c -0.18,0 -0.557,0.15 -1.129,0.451 -0.512,0.301 -0.813,0.497 -0.903,0.587 -0.09,0.15 -0.256,0.346 -0.497,0.587 -0.27,0.271 -0.451,0.542 -0.541,0.813 l -0.226,0.722 c -0.09,0.301 -0.196,0.542 -0.316,0.723 l -0.045,0.135 v 0.136 l -0.362,2.347 -0.135,0.994 -0.135,0.948 c -0.03,0.24 -0.046,0.858 -0.046,1.851 0.03,0.933 0.046,1.61 0.046,2.032 v 0.587 l 0.045,1.987 v 1.083 l 0.045,1.084 c 0.06,1.083 0.165,1.956 0.316,2.619 l 0.18,0.812 0.226,0.858 c 0.06,0.241 0.196,0.572 0.407,0.994 0.451,0.963 1.143,1.82 2.077,2.573 0.18,0.12 0.39,0.21 0.632,0.271 l 0.722,0.18 c 0.24,0.06 0.542,0.046 0.903,-0.044 0.422,-0.09 0.708,-0.301 0.858,-0.633 0.361,-0.782 0.587,-1.414 0.677,-1.896 l 0.18,-0.722 0.227,-0.678 c 0.18,-0.572 0.3,-1.008 0.36,-1.309 l 0.091,-0.587 0.09,-0.632 c 0.06,-0.452 0.076,-0.858 0.046,-1.22 a 6.468,6.468 0 0 1 0,-1.083 v -0.542 l 0.045,-0.587 c 0,-0.18 -0.03,-0.36 -0.09,-0.541 l -0.136,-0.542 c -0.12,-0.482 -0.18,-0.858 -0.18,-1.129 0,-0.18 -0.046,-0.452 -0.136,-0.813 l -0.09,-0.406 -0.045,-0.406 -0.046,-0.226 -1.128,-0.09 -0.587,-0.09 c -0.211,-0.031 -0.407,-0.091 -0.587,-0.181 a 1.495,1.495 0 0 1 -0.858,-0.903 2.86,2.86 0 0 1 -0.136,-0.813 c -0.03,-0.301 0.03,-0.512 0.18,-0.632 0.121,-0.12 0.407,-0.15 0.859,-0.09 l 0.496,0.045 h 0.226 l 0.18,0.045 c 0.332,0.03 0.648,0.045 0.949,0.045 l 0.316,0.045 h 0.316 c 0.482,0.03 1.008,0.075 1.58,0.135 0.422,0.06 0.723,0.136 0.903,0.226 0.09,0.03 0.15,0.12 0.181,0.271 0.03,0.09 0.06,0.21 0.09,0.361 v 0.09 c 0.03,0.06 0.06,0.151 0.09,0.272 0.03,0.12 0.106,0.556 0.226,1.309 l 0.046,0.406 0.045,0.361 c 0.03,0.271 0.06,0.437 0.09,0.497 l 0.045,0.723 0.09,1.219 0.046,0.406 c 0.03,0.18 0.045,0.301 0.045,0.361 l 0.045,0.768 z m 16.5,-19.46 0.814,0.225 c 0.391,0.12 0.662,0.286 0.812,0.497 l 0.226,0.226 0.136,0.226 c 0.12,0.21 0.15,0.42 0.09,0.632 -0.03,0.09 -0.09,0.21 -0.18,0.36 l -0.226,0.227 a 0.949,0.949 0 0 1 -0.317,0.496 l -0.27,0.18 -0.271,0.136 c -0.09,0.06 -0.226,0.106 -0.407,0.136 l -0.451,0.09 -0.497,0.09 c -0.12,0.03 -0.226,0.06 -0.316,0.09 h -0.316 a 1.503,1.503 0 0 0 -0.632,0.046 h -0.361 l -0.452,-0.045 c -0.421,-0.03 -0.707,-0.03 -0.858,0 l -0.948,0.27 a 0.556,0.556 0 0 0 -0.361,0.452 v 0.768 c 0.03,0.421 0.03,0.692 0,0.812 l -0.136,0.768 c -0.09,0.361 -0.15,0.813 -0.18,1.355 l -0.09,1.354 v 0.136 c -0.09,0.24 -0.12,0.662 -0.09,1.264 l 0.044,0.316 v 0.27 c 0.03,0.181 0.046,0.287 0.046,0.317 l -0.09,0.27 -0.046,0.317 c 0.03,0.18 0.03,0.346 0,0.496 l -0.045,0.181 a 0.503,0.503 0 0 0 -0.045,0.226 v 0.587 l -0.045,0.542 c 0,0.18 0.12,0.27 0.36,0.27 l 0.362,-0.045 2.845,-0.406 c 0.24,-0.03 0.421,0 0.541,0.09 0.06,0.03 0.136,0.045 0.226,0.045 0.301,-0.03 0.632,0.076 0.993,0.316 l 0.09,0.09 0.091,0.046 c 0.421,0.12 0.692,0.482 0.813,1.084 0.06,0.27 0.03,0.481 -0.09,0.632 l -0.181,0.225 -0.136,0.226 c -0.12,0.15 -0.27,0.271 -0.451,0.361 l -0.045,0.046 c -0.15,0.21 -0.361,0.36 -0.632,0.451 l -0.362,0.09 -0.36,0.046 c -0.422,0.03 -0.904,0.105 -1.446,0.225 l -1.4,0.316 c -0.21,0.03 -0.376,0.045 -0.496,0.045 -0.18,0 -0.301,0.076 -0.361,0.226 -0.03,0.12 -0.045,0.783 -0.045,1.987 l -0.045,0.767 v 0.768 c 0,0.602 -0.016,1.069 -0.046,1.4 0.06,0.24 0.076,0.647 0.046,1.219 l -0.09,0.813 -0.046,0.903 c 0,0.481 0.015,0.918 0.045,1.309 l 0.045,0.27 v 0.272 c 0.03,0.24 0.046,0.527 0.046,0.858 -0.06,0.15 -0.016,0.3 0.135,0.451 0.12,0.12 0.27,0.196 0.451,0.226 0.12,0 0.362,0.015 0.723,0.045 h 1.174 c 1.023,0.03 1.64,0.015 1.851,-0.045 0.09,-0.03 0.166,-0.03 0.226,0 0.21,0.09 0.466,0.135 0.767,0.135 h 0.903 c 0.211,0.301 0.332,0.708 0.362,1.22 l -0.226,0.406 -0.271,0.361 a 0.568,0.568 0 0 1 -0.316,0.226 c -0.331,0.03 -1.204,0.075 -2.619,0.135 l -0.813,0.045 -0.722,0.046 c -0.512,0.03 -0.873,0.06 -1.084,0.09 l -0.948,0.09 -1.354,0.136 c -0.332,0.03 -0.587,-0.015 -0.768,-0.136 l -0.09,-0.045 h -0.09 c -0.241,0 -0.497,-0.06 -0.768,-0.18 l -0.361,-0.136 -0.362,-0.18 -0.406,-0.181 -0.451,-0.136 c -0.301,-0.15 -0.467,-0.376 -0.497,-0.677 0,-0.21 -0.105,-0.346 -0.316,-0.406 -0.15,-0.06 -0.241,-0.196 -0.271,-0.407 l -0.136,-0.406 -0.18,-0.452 c -0.03,-0.06 -0.045,-0.286 -0.045,-0.677 -0.03,-0.421 -0.03,-0.722 0,-0.903 0.03,-0.24 0.03,-0.497 0,-0.767 l -0.09,-0.768 c -0.06,-0.361 -0.06,-1.385 0,-3.07 l 0.045,-0.994 v -0.858 c 0.03,-0.602 0.03,-1.008 0,-1.219 l -0.271,-3.07 c -0.06,-0.512 -0.106,-1.37 -0.136,-2.574 -0.03,-1.264 -0.015,-2.061 0.045,-2.393 v -1.038 a 5.373,5.373 0 0 1 0,-0.993 l 0.046,-0.09 c 0.09,-0.332 0.15,-0.768 0.18,-1.31 l 0.045,-0.677 0.045,-0.632 0.136,-1.265 0.135,-1.31 c 0.03,-0.3 0.09,-0.691 0.18,-1.173 l 0.136,-0.587 0.136,-0.542 0.09,-0.542 0.045,-0.496 c 0.03,-0.361 0.18,-0.647 0.452,-0.858 l 0.361,-0.271 c 0.12,-0.09 0.256,-0.15 0.406,-0.18 0.06,-0.03 0.241,-0.06 0.542,-0.091 h 1.445 l 0.361,0.045 c 0.662,0.03 1.099,0.015 1.31,-0.045 0.39,-0.09 0.888,-0.15 1.49,-0.18 h 0.767 l 0.768,-0.046 c 0.361,0 0.752,-0.045 1.174,-0.135 0.27,-0.06 0.602,-0.045 0.993,0.045 l 0.858,0.18 z m 12.573,15.983 0.18,0.045 c 0.09,0.03 0.602,-0.18 1.535,-0.632 0.964,-0.451 1.626,-0.813 1.987,-1.083 l 0.677,-0.542 c 0.241,-0.211 0.437,-0.407 0.587,-0.587 0.512,-0.693 0.753,-1.731 0.723,-3.116 0,-0.933 -0.06,-1.866 -0.18,-2.8 -0.121,-0.962 -0.362,-1.67 -0.723,-2.121 a 2.87,2.87 0 0 0 -0.768,-0.677 l -0.451,-0.271 -0.407,-0.316 a 6.32,6.32 0 0 1 -0.587,-0.407 l -0.496,-0.27 -0.632,-0.317 -0.587,-0.316 c -0.362,-0.18 -0.783,-0.165 -1.265,0.045 a 0.59,0.59 0 0 0 -0.27,0.271 l -0.046,0.18 v 0.181 l -0.09,0.226 -0.045,0.226 -0.136,0.316 a 0.38,0.38 0 0 0 0.046,0.316 c 0.21,0.602 0.24,1.084 0.09,1.445 v 0.226 l 0.09,1.264 0.045,0.587 v 1.625 l 0.09,0.994 h -0.045 l 0.046,0.812 0.045,1.265 v 0.406 c 0,0.12 0.015,0.24 0.045,0.361 l 0.09,0.271 c 0.03,0.18 0.045,0.346 0.045,0.497 l 0.046,0.451 0.045,0.362 c 0.03,0.33 0.03,0.602 0,0.812 0,0.09 0.06,0.166 0.18,0.226 z m 9.075,12.643 0.271,0.496 c 0.301,0.542 0.482,1.355 0.542,2.438 v 0.542 l -0.045,0.136 -0.858,0.722 -0.768,-0.045 -0.316,-0.045 h -0.226 l -0.27,-0.045 c -0.181,0.03 -0.377,-0.015 -0.587,-0.136 l -0.226,-0.135 -0.271,-0.136 c -0.21,-0.09 -0.346,-0.195 -0.406,-0.316 l -0.271,-0.542 a 1.39,1.39 0 0 1 -0.226,-0.541 c -0.03,-0.271 -0.15,-0.618 -0.361,-1.039 l -0.226,-0.542 -0.18,-0.496 c -0.06,-0.271 -0.211,-0.542 -0.452,-0.813 -0.09,-0.12 -0.196,-0.271 -0.316,-0.452 l -0.271,-0.496 c -0.692,-1.204 -1.264,-2.107 -1.716,-2.71 l -0.451,-0.722 -0.678,-0.993 -0.09,-0.045 -0.045,-0.09 -0.452,0.18 0.136,1.355 v 0.135 l 0.045,0.135 c -0.03,0.211 -0.03,0.482 0,0.813 l 0.135,0.813 v 0.767 c 0.06,0.723 0.076,1.34 0.046,1.852 v 0.496 l 0.045,0.542 c 0.09,0.753 0.045,1.34 -0.136,1.761 a 0.86,0.86 0 0 1 -0.406,0.452 l -0.361,0.18 -0.632,0.271 c -0.602,0.271 -0.949,0.406 -1.039,0.406 h -0.993 c -0.12,-0.06 -0.256,-0.12 -0.407,-0.18 l -0.225,-0.09 -0.226,-0.046 -0.18,-0.045 -0.136,-0.045 a 0.739,0.739 0 0 1 -0.18,-0.045 l -0.227,-0.136 c -0.24,-0.06 -0.406,-0.075 -0.496,-0.045 -0.09,0.03 -0.226,-0.045 -0.407,-0.225 -0.18,-0.211 -0.27,-0.377 -0.27,-0.497 -0.03,-0.301 -0.166,-0.617 -0.407,-0.948 -0.15,-0.211 -0.24,-0.527 -0.27,-0.948 -0.03,-0.693 -0.061,-1.505 -0.091,-2.439 v -0.587 l -0.045,-0.406 v -0.451 c -0.03,-0.783 -0.045,-1.25 -0.045,-1.4 l -0.046,-1.264 v -0.181 l -0.045,-0.226 v -0.993 l -0.045,-0.361 v -0.316 l -0.045,-2.122 -0.09,-1.49 -0.045,-0.542 -0.046,-1.355 -0.135,-1.354 -0.27,-2.348 v -0.497 l -0.182,-1.4 v -0.587 l -0.09,-1.173 -0.045,-1.174 a 6.377,6.377 0 0 1 -0.045,-0.858 l 0.045,-0.858 c 0,-0.452 -0.015,-0.843 -0.045,-1.174 -0.06,-0.21 -0.06,-0.798 0,-1.761 0.03,-0.903 0.06,-1.43 0.09,-1.58 l 0.271,-0.136 c 0.15,-0.06 0.316,-0.135 0.497,-0.226 0.542,-0.21 0.858,-0.316 0.948,-0.316 l 0.226,0.046 h 0.27 l 0.271,0.045 c 0.241,0.06 0.557,0.09 0.949,0.09 h 0.451 c 0.18,0 0.346,0.015 0.497,0.045 0.15,0.03 0.346,-0.015 0.587,-0.135 0.12,-0.06 0.3,-0.06 0.542,0 l 0.316,0.045 c 0.12,0 0.21,-0.015 0.27,-0.045 l 0.723,-0.18 c 0.512,-0.212 0.918,-0.302 1.22,-0.272 l 0.18,0.045 c 0.542,-0.12 1.234,-0.015 2.077,0.316 0.933,0.362 1.746,0.798 2.438,1.31 l 0.226,0.135 c 0.602,0.241 1.204,0.708 1.806,1.4 l 0.993,1.174 0.135,0.18 0.362,0.813 c 0.18,0.331 0.3,0.602 0.36,0.813 0.242,0.903 0.377,1.61 0.407,2.122 v 0.497 l -0.045,0.451 -0.09,0.678 -0.09,0.632 c 0,0.3 -0.046,0.647 -0.136,1.038 l -0.135,0.542 -0.09,0.497 a 5.734,5.734 0 0 1 -0.904,2.122 l -0.09,0.135 -0.452,0.407 -0.406,0.451 a 9.018,9.018 0 0 1 -0.903,0.813 l -0.226,0.18 -0.18,0.181 -1.174,0.903 -0.452,0.361 -0.451,0.316 c -0.18,0.12 -0.241,0.286 -0.18,0.497 l 0.044,0.497 0.09,0.496 c 0.12,0.301 0.287,0.602 0.497,0.903 l 1.626,2.168 0.632,1.038 0.677,1.039 0.587,0.903 0.542,0.903 0.406,0.767 0.361,0.813 z m 16.724,-30.225 h 0.838 c 2.04,-0.099 3.833,0.954 5.379,3.158 0.822,1.184 1.085,2.862 0.79,5.033 -0.066,0.724 -0.346,1.53 -0.84,2.418 l -1.381,2.27 -0.69,1.085 c -0.297,0.46 -0.527,0.856 -0.692,1.185 l -0.345,0.69 -0.444,0.691 c -0.362,0.592 -0.609,1.086 -0.74,1.48 -0.527,1.58 -0.84,3.11 -0.938,4.59 v 1.579 c -0.033,1.282 -0.79,1.957 -2.27,2.023 -0.658,0 -1.398,-0.165 -2.22,-0.494 -0.757,-0.329 -1.234,-0.954 -1.431,-1.875 -0.198,-0.79 -0.28,-1.48 -0.247,-2.072 l 0.099,-2.073 c 0.066,-0.79 0.18,-1.464 0.345,-2.023 0.527,-1.81 1.3,-3.503 2.32,-5.082 a 103.86,103.86 0 0 0 3.157,-5.132 c 0.527,-0.888 0.708,-1.957 0.543,-3.207 -0.033,-0.264 -0.197,-0.477 -0.493,-0.642 -0.33,-0.164 -0.642,-0.18 -0.938,-0.05 -0.493,0.165 -0.839,0.396 -1.036,0.692 a 9.62,9.62 0 0 0 -0.592,0.986 l -0.494,0.987 a 5.9,5.9 0 0 1 -0.838,1.086 c -0.33,0.329 -0.708,0.362 -1.135,0.099 l -0.987,-0.642 c -0.658,-0.428 -0.84,-1.036 -0.543,-1.826 a 50.29,50.29 0 0 1 0.69,-1.628 7.666,7.666 0 0 1 0.938,-1.48 c 0.691,-0.888 1.81,-1.464 3.356,-1.727 z m -1.727,29.952 1.628,0.493 c 0.658,0.198 1.102,0.642 1.332,1.332 0.263,0.691 0.247,1.366 -0.05,2.024 -0.197,0.427 -0.476,0.79 -0.838,1.085 -0.263,0.198 -0.609,0.378 -1.036,0.543 l -0.74,-0.148 -0.691,-0.099 -1.333,-0.246 -0.148,-0.05 -0.098,-0.099 c -0.428,-0.427 -0.675,-1.134 -0.74,-2.121 -0.033,-0.987 0.148,-1.662 0.542,-2.023 0.79,-0.691 1.514,-0.922 2.172,-0.691 z M 9.727,39.298 h 0.303 c 0.1,0.034 0.184,0.084 0.252,0.152 0.05,0.05 0.084,0.126 0.1,0.226 0.017,0.068 0.026,0.16 0.026,0.278 v 0.327 l -0.202,0.731 -0.277,0.932 -0.101,0.278 -0.403,1.058 a 0.74,0.74 0 0 1 -0.328,0.353 0.532,0.532 0 0 0 -0.252,0.176 l -0.252,0.277 -0.227,0.252 c -0.05,0.05 -0.134,0.101 -0.252,0.152 A 1.157,1.157 0 0 0 7.762,44.666 L 7.484,44.893 C 7.232,45.078 6.955,45.17 6.653,45.17 L 6.149,45.145 a 2.266,2.266 0 0 0 -0.479,0 A 0.538,0.538 0 0 1 5.393,45.12 L 5.116,45.019 3.83,44.565 A 1.52,1.52 0 0 1 3.427,44.389 2.38,2.38 0 0 1 3.049,44.112 L 2.722,43.809 2.419,43.456 2.142,43.154 1.89,42.852 A 3.057,3.057 0 0 1 1.588,42.222 L 1.336,41.34 1.109,40.483 1.033,40.13 0.958,39.802 0.908,39.424 0.857,39.072 0.832,38.996 0.806,38.24 v -0.73 l 0.026,-0.807 0.025,-0.832 c 0.033,-0.134 0.067,-0.294 0.1,-0.479 l 0.051,-0.478 0.05,-0.152 0.05,-0.176 0.051,-0.403 0.076,-0.378 0.151,-0.605 0.151,-0.58 0.101,-0.327 0.076,-0.328 a 4.74,4.74 0 0 1 0.378,-1.26 L 2.318,30.176 2.596,29.622 3.301,28.614 3.503,28.336 3.679,28.059 A 0.41,0.41 0 0 1 3.881,27.883 L 4.133,27.732 4.36,27.58 4.94,27.253 c 0.134,-0.084 0.31,-0.11 0.528,-0.076 l 0.076,0.025 c 0.487,-0.05 0.958,0 1.411,0.152 0.387,0.134 0.849,0.42 1.386,0.856 0.118,0.118 0.21,0.244 0.277,0.378 l 0.101,0.152 0.076,0.126 c 0.033,0.067 0.067,0.15 0.1,0.252 l 0.026,0.1 0.075,0.126 c 0.05,0.101 0.084,0.202 0.101,0.303 0,0.05 -0.033,0.117 -0.1,0.201 A 0.612,0.612 0 0 1 8.795,30 L 8.694,29.974 8.618,29.949 C 8.518,29.899 8.442,29.857 8.392,29.823 A 4.479,4.479 0 0 1 8.014,29.546 L 7.888,29.42 7.736,29.32 7.535,29.168 7.384,29.017 C 7.165,28.815 6.863,28.697 6.476,28.664 a 0.346,0.346 0 0 0 -0.252,0.05 c -0.067,0.05 -0.134,0.11 -0.201,0.177 l -0.101,0.075 -0.05,0.05 -0.076,0.051 c -0.118,0.118 -0.202,0.26 -0.252,0.429 l -0.126,0.252 -0.126,0.277 -0.076,0.151 -0.05,0.176 -0.05,0.126 -0.076,0.126 C 4.973,30.688 4.922,30.831 4.889,31.033 L 4.788,31.31 4.586,32.116 4.511,32.444 4.41,33.15 l -0.076,0.352 -0.05,0.227 -0.05,0.202 -0.05,0.252 -0.026,0.252 -0.1,0.302 a 2.53,2.53 0 0 0 -0.076,0.454 l -0.05,0.453 v 0.152 a 1.03,1.03 0 0 0 0,0.453 c 0.033,0.101 0.024,0.235 -0.026,0.403 A 1.416,1.416 0 0 0 3.881,36.93 v 1.108 c 0.05,0.152 0.084,0.353 0.1,0.605 l 0.051,0.605 0.076,0.454 0.05,0.453 c 0.118,0.555 0.235,0.975 0.353,1.26 0.05,0.084 0.075,0.177 0.075,0.277 0.017,0.236 0.11,0.488 0.278,0.756 0.252,0.404 0.604,0.622 1.058,0.656 0.1,0.016 0.21,0 0.328,-0.05 l 0.428,-0.152 c 0.168,-0.05 0.32,-0.076 0.454,-0.076 0.336,-0.218 0.604,-0.495 0.806,-0.831 l 0.176,-0.328 0.177,-0.353 0.126,-0.352 0.1,-0.353 0.101,-0.403 0.076,-0.202 0.076,-0.1 0.1,-0.102 0.101,-0.15 0.126,-0.127 c 0.135,-0.134 0.345,-0.21 0.63,-0.227 z m 9.4,2.495 0.05,-0.1 c 0.857,-2.084 1.05,-5.049 0.58,-8.896 L 19.656,31.965 A 6.825,6.825 0 0 0 19.53,31.134 4.94,4.94 0 0 0 18.95,29.546 0.889,0.889 0 0 0 18.724,29.218 l -0.126,-0.126 a 0.395,0.395 0 0 0 -0.101,-0.075 l -0.101,-0.076 a 0.328,0.328 0 0 0 -0.252,0 l -0.1,0.05 -0.152,0.051 c -0.118,0.034 -0.185,0.067 -0.202,0.1 l -0.126,0.102 -0.15,0.1 a 1.21,1.21 0 0 0 -0.253,0.227 l -0.176,0.202 -0.151,0.176 a 2.08,2.08 0 0 0 -0.353,0.479 2.732,2.732 0 0 0 -0.202,0.479 l -0.075,0.277 -0.076,0.227 a 2.763,2.763 0 0 0 -0.05,0.302 l -0.026,0.151 v 0.05 a 3.945,3.945 0 0 1 -0.075,0.303 c -0.034,0.151 -0.067,0.294 -0.101,0.429 -0.1,0.37 -0.168,0.604 -0.202,0.705 l -0.1,0.227 -0.076,0.252 -0.1,0.328 -0.076,0.327 c -0.05,0.101 -0.084,0.227 -0.101,0.378 l -0.05,0.378 -0.101,1.815 v 0.58 l 0.025,0.579 0.05,0.277 0.025,0.252 v 0.353 c 0.017,0.134 0.042,0.252 0.076,0.353 0.084,0.184 0.134,0.47 0.151,0.856 0,0.068 0.025,0.152 0.076,0.252 l 0.025,0.126 0.025,0.152 c 0,0.05 0.025,0.134 0.076,0.252 l 0.05,0.126 a 0.193,0.193 0 0 1 0.025,0.075 l 0.026,0.101 0.025,0.126 a 0.46,0.46 0 0 1 0.025,0.252 l 0.076,0.176 0.075,0.126 0.05,0.152 c 0.034,0.1 0.093,0.201 0.177,0.302 0.1,0.1 0.202,0.16 0.302,0.176 l 0.227,0.076 h 0.076 l 0.126,0.025 0.1,0.025 c 0.085,0.017 0.16,0.017 0.227,0 h 0.227 c 0.168,-0.016 0.294,-0.042 0.378,-0.075 l 0.126,-0.025 0.151,-0.026 a 0.578,0.578 0 0 1 0.177,-0.05 0.986,0.986 0 0 0 0.227,-0.126 l 0.201,-0.151 c 0.05,-0.034 0.101,-0.076 0.151,-0.126 l 0.126,-0.151 a 0.369,0.369 0 0 0 0.126,-0.177 l 0.05,-0.126 z m 2.444,-8.013 c -0.033,0.47 -0.033,1.016 0,1.638 l 0.101,1.663 c 0.084,1.377 0.034,2.47 -0.151,3.276 -0.118,0.554 -0.345,1.201 -0.68,1.94 v 0.101 l -0.202,0.58 -0.05,0.15 -0.051,0.127 c -0.017,0.05 -0.05,0.117 -0.1,0.201 l -0.076,0.076 -0.05,0.1 -0.152,0.278 -0.151,0.252 a 0.642,0.642 0 0 1 -0.151,0.151 0.775,0.775 0 0 1 -0.278,0.252 0.285,0.285 0 0 1 -0.1,0.101 l -0.152,0.05 -0.604,0.303 c -0.135,0.05 -0.336,0.117 -0.605,0.201 l -0.076,0.026 -0.1,0.025 a 0.58,0.58 0 0 1 -0.202,0.05 0.69,0.69 0 0 0 -0.151,0.025 l -0.252,0.05 c -0.219,0.034 -0.336,0.051 -0.353,0.051 H 16.506 L 16.43,45.422 h -0.05 l -0.277,-0.05 -0.227,-0.05 -0.202,-0.051 -0.252,-0.05 -0.882,-0.227 -0.1,-0.05 -0.227,-0.152 -0.202,-0.126 -0.201,-0.1 -0.177,-0.102 A 2.814,2.814 0 0 1 13.255,44.238 L 13.054,44.036 A 1.476,1.476 0 0 0 12.852,43.86 L 12.701,43.759 12.575,43.633 12.474,43.482 12.348,43.33 c -0.1,-0.168 -0.16,-0.336 -0.176,-0.504 A 2.128,2.128 0 0 1 11.97,42.272 l -0.076,-0.277 -0.05,-0.277 -0.076,-0.252 -0.1,-0.252 C 11.6,41.012 11.567,40.844 11.567,40.71 l -0.025,-0.202 -0.05,-0.227 C 11.424,40.08 11.39,39.761 11.39,39.324 l -0.05,-0.429 -0.05,-0.403 -0.026,-0.454 v -0.756 l 0.026,-0.176 v -0.202 l 0.05,-0.882 0.076,-0.856 v -0.252 c 0,-0.084 0.025,-0.16 0.075,-0.227 v -0.05 a 0.887,0.887 0 0 1 0.05,-0.404 l 0.051,-0.227 0.05,-0.201 c 0.05,-0.202 0.126,-0.47 0.227,-0.807 0.101,-0.319 0.168,-0.554 0.202,-0.705 l 0.201,-0.454 0.101,-0.302 0.252,-0.63 0.101,-0.303 a 0.316,0.316 0 0 1 0.076,-0.126 l 0.05,-0.075 0.025,-0.076 v -0.1 l 0.126,-0.202 a 0.858,0.858 0 0 0 0.101,-0.227 0.568,0.568 0 0 1 0.1,-0.202 l 0.152,-0.201 0.126,-0.126 0.126,-0.101 0.53,-0.479 c 0.05,-0.05 0.1,-0.084 0.15,-0.1 0.236,-0.101 0.429,-0.236 0.58,-0.404 0.168,-0.201 0.403,-0.353 0.706,-0.453 h 0.025 l 0.025,-0.026 c 0.118,-0.1 0.277,-0.184 0.479,-0.252 l 0.252,-0.1 0.252,-0.076 0.327,-0.1 0.378,-0.127 0.05,-0.025 a 0.803,0.803 0 0 1 0.303,-0.1 l 0.177,0.024 h 0.15 L 18.497,27 c 0.269,0 0.529,0.076 0.781,0.228 0.05,0.016 0.092,0.058 0.126,0.126 l 0.126,0.15 0.151,0.177 c 0.219,0.151 0.361,0.336 0.429,0.555 0,0.033 0.025,0.084 0.075,0.15 l 0.126,0.127 0.126,0.176 0.05,0.101 a 0.3,0.3 0 0 1 0.152,0.202 l 0.05,0.252 0.05,0.327 c 0.253,0.504 0.429,1.033 0.53,1.588 0.067,0.437 0.084,0.823 0.05,1.159 0,0.034 0.05,0.252 0.151,0.655 0.034,0.185 0.06,0.336 0.076,0.454 a 0.905,0.905 0 0 1 0.025,0.353 z m 6.3,8.996 v -0.05 A 0.892,0.892 0 0 1 27.72,42.448 l -0.328,-0.756 a 7.177,7.177 0 0 1 -0.302,-0.78 l -0.328,-1.009 c -0.1,-0.386 -0.184,-0.73 -0.252,-1.033 L 26.258,37.786 25.981,36.728 25.906,36.501 25.83,36.249 c -0.118,0.067 -0.176,0.151 -0.176,0.252 l -0.101,1.613 v 0.076 l -0.025,0.075 a 0.894,0.894 0 0 0 -0.026,0.378 v 0.403 l 0.101,1.059 v 0.201 l -0.075,0.605 v 0.303 l 0.025,0.277 -0.025,0.453 -0.026,0.252 a 0.5,0.5 0 0 0 0.05,0.227 v 0.101 a 4.845,4.845 0 0 0 0,0.706 l 0.026,0.352 -0.025,0.353 v 0.756 a 1.335,1.335 0 0 1 -0.126,0.479 l -0.303,0.403 -0.504,-0.025 a 0.17,0.17 0 0 1 -0.15,-0.076 c -0.236,-0.033 -0.396,-0.126 -0.48,-0.277 l -0.05,-0.151 v -0.176 a 98.612,98.612 0 0 1 -0.176,-6.704 v -1.789 c 0,-0.201 0.016,-0.47 0.05,-0.806 l 0.05,-0.403 0.026,-0.404 v -1.789 c 0,-0.353 0.016,-0.663 0.05,-0.932 a 78.32,78.32 0 0 0 0.176,-1.764 V 29.47 l 0.076,-1.234 c 0,-0.152 0.059,-0.278 0.176,-0.378 l 0.126,-0.126 0.101,-0.126 0.05,-0.05 c 0.303,-0.186 0.63,-0.32 0.983,-0.404 0.454,-0.118 0.824,-0.118 1.11,0 0.083,0.034 0.184,0.084 0.302,0.151 l 0.302,0.202 0.025,0.025 0.025,0.05 0.076,0.278 0.126,0.277 c 0.017,0.084 0.042,0.185 0.076,0.302 l 0.05,0.303 0.025,0.1 v 0.126 l 0.025,0.177 0.076,0.302 0.05,0.303 v 0.604 l 0.026,0.05 c 0.067,0.135 0.126,0.32 0.176,0.555 l 0.076,0.303 0.075,0.277 0.227,0.983 c 0.034,0.117 0.05,0.226 0.05,0.327 0.017,0.118 0.042,0.244 0.076,0.378 l 0.151,0.378 a 0.978,0.978 0 0 1 0.076,0.303 l 0.05,0.302 0.076,0.277 0.05,0.177 0.025,0.176 c 0,0.118 0.026,0.26 0.076,0.428 l 0.126,0.353 0.202,0.933 0.025,0.05 c 0.067,0.1 0.117,0.252 0.151,0.454 l 0.025,0.226 0.076,0.227 0.075,0.328 0.252,1.008 c 0.068,0.269 0.135,0.495 0.202,0.68 l 0.05,0.202 0.076,0.201 a 0.395,0.395 0 0 0 0.076,0.101 c 0.016,0.017 0.042,0.017 0.075,0 l 0.076,-0.05 0.05,-0.101 0.151,-0.504 0.026,-0.05 0.025,-0.101 c 0.033,-0.101 0.067,-0.21 0.1,-0.328 0.135,-0.37 0.253,-0.714 0.353,-1.033 0.336,-1.008 0.504,-1.546 0.504,-1.613 l 0.101,-0.327 0.076,-0.353 0.05,-0.252 c 0,-0.034 0.017,-0.135 0.05,-0.303 0.051,-0.201 0.093,-0.411 0.127,-0.63 0.134,-0.588 0.235,-0.982 0.302,-1.184 l 0.151,-0.53 0.151,-0.503 0.152,-0.655 0.05,-0.353 0.1,-0.353 0.152,-0.479 0.126,-0.479 c 0.118,-0.386 0.227,-0.697 0.328,-0.932 l 0.05,-0.126 c 0.034,-0.286 0.185,-0.504 0.454,-0.655 l 0.05,-0.025 0.025,-0.026 c 0.084,-0.15 0.286,-0.268 0.605,-0.352 0.118,-0.034 0.244,-0.06 0.378,-0.076 l 0.126,-0.025 h 0.1 c 0.068,0 0.144,0.025 0.228,0.075 l 0.1,0.05 0.076,0.026 c 0.32,0.05 0.563,0.218 0.73,0.504 l 0.127,0.151 0.1,0.151 0.101,0.252 0.101,0.278 v 0.15 c -0.033,0.102 -0.042,0.505 -0.025,1.21 0.017,0.219 0.034,0.504 0.05,0.857 l 0.026,0.353 v 0.277 l 0.1,2.167 v 0.177 c 0.05,0.185 0.076,0.403 0.076,0.655 l -0.025,0.328 v 0.604 l 0.025,0.278 0.05,0.453 0.05,0.479 v 0.252 l -0.024,0.252 0.05,0.932 0.025,0.101 c 0.05,0.135 0.076,0.345 0.076,0.63 v 0.202 l 0.025,0.201 v 0.48 l 0.025,0.453 0.101,1.083 0.151,1.235 0.025,0.177 0.05,0.201 0.127,0.731 a 0.588,0.588 0 0 1 -0.101,0.479 0.624,0.624 0 0 0 -0.126,0.227 0.381,0.381 0 0 1 -0.252,0.277 c -0.1,0.1 -0.227,0.168 -0.378,0.201 -0.134,0.05 -0.286,0.076 -0.454,0.076 a 0.107,0.107 0 0 1 -0.1,0 l -0.278,-0.025 c -0.537,-0.034 -0.924,-0.16 -1.159,-0.378 -0.151,-0.135 -0.285,-0.361 -0.403,-0.68 A 0.56,0.56 0 0 1 34.7,44.036 l -0.025,-0.025 -0.1,-0.479 A 4.408,4.408 0 0 1 34.474,43.028 L 34.272,41.415 34.222,40.609 34.172,39.424 34.07,38.24 A 21.195,21.195 0 0 1 33.995,37.005 L 33.97,35.77 33.894,33.704 v -0.076 l -0.025,-0.05 c -0.017,-0.034 -0.042,-0.05 -0.076,-0.05 -0.052,-0.014 -0.095,0.004 -0.127,0.053 a 25.241,25.241 0 0 0 -0.755,3.097 c -0.151,0.739 -0.445,1.83 -0.882,3.276 l -0.075,0.327 -0.05,0.252 -0.051,0.151 c -0.101,0.219 -0.185,0.47 -0.252,0.756 L 31.5,41.818 a 3.19,3.19 0 0 1 -0.126,0.429 l -0.025,0.151 -0.025,0.176 a 0.638,0.638 0 0 1 -0.101,0.303 l -0.025,0.075 -0.026,0.101 -0.025,0.05 -0.025,0.076 -0.126,0.126 -0.151,0.101 -0.454,0.252 a 1.267,1.267 0 0 1 -0.327,0.176 l -0.202,0.026 h -0.655 a 2.185,2.185 0 0 1 -0.429,-0.126 c -0.285,-0.118 -0.562,-0.42 -0.831,-0.908 l -0.076,-0.075 z m 22.251,-9.195 a 25.241,25.241 0 0 0 -0.755,3.097 c -0.151,0.739 -0.445,1.83 -0.882,3.276 l -0.076,0.327 -0.05,0.252 -0.05,0.151 c -0.101,0.219 -0.185,0.47 -0.253,0.756 l -0.1,0.378 a 3.19,3.19 0 0 1 -0.126,0.429 l -0.026,0.151 -0.025,0.176 a 0.638,0.638 0 0 1 -0.1,0.303 l -0.026,0.075 -0.025,0.101 -0.025,0.05 -0.025,0.076 -0.126,0.126 -0.152,0.101 -0.453,0.252 a 1.267,1.267 0 0 1 -0.328,0.176 l -0.201,0.026 h -0.656 a 2.185,2.185 0 0 1 -0.428,-0.126 c -0.286,-0.118 -0.563,-0.42 -0.832,-0.908 l -0.075,-0.075 v 0.05 -0.075 a 0.892,0.892 0 0 1 -0.151,-0.278 l -0.328,-0.756 a 7.177,7.177 0 0 1 -0.302,-0.78 l -0.328,-1.009 c -0.1,-0.386 -0.185,-0.73 -0.252,-1.033 l -0.252,-1.084 -0.277,-1.058 -0.076,-0.227 -0.075,-0.252 c -0.118,0.067 -0.177,0.151 -0.177,0.252 l -0.1,1.613 v 0.076 l -0.026,0.075 a 0.894,0.894 0 0 0 -0.025,0.378 v 0.403 l 0.1,1.059 v 0.201 l -0.075,0.605 v 0.303 l 0.025,0.277 -0.025,0.453 -0.025,0.252 a 0.5,0.5 0 0 0 0.05,0.227 v 0.101 a 4.845,4.845 0 0 0 0,0.706 l 0.026,0.352 -0.026,0.353 v 0.756 A 1.335,1.335 0 0 1 41.882,45.17 L 41.58,45.573 41.076,45.548 A 0.17,0.17 0 0 1 40.925,45.472 C 40.69,45.439 40.53,45.346 40.446,45.195 l -0.05,-0.151 v -0.176 a 98.612,98.612 0 0 1 -0.177,-6.704 v -1.789 c 0,-0.201 0.017,-0.47 0.05,-0.806 l 0.051,-0.403 0.025,-0.404 v -1.789 c 0,-0.353 0.017,-0.663 0.05,-0.932 a 78.32,78.32 0 0 0 0.177,-1.764 V 29.47 l 0.076,-1.234 c 0,-0.152 0.058,-0.278 0.176,-0.378 l 0.126,-0.126 0.1,-0.126 0.051,-0.05 c 0.303,-0.186 0.63,-0.32 0.983,-0.404 0.454,-0.118 0.823,-0.118 1.109,0 0.084,0.034 0.185,0.084 0.302,0.151 l 0.303,0.202 0.025,0.025 0.025,0.05 0.076,0.278 0.126,0.277 c 0.016,0.084 0.042,0.185 0.075,0.302 l 0.05,0.303 0.026,0.1 v 0.126 l 0.025,0.177 0.076,0.302 0.05,0.303 v 0.604 l 0.025,0.05 c 0.067,0.135 0.126,0.32 0.177,0.555 l 0.075,0.303 0.076,0.277 0.227,0.983 c 0.033,0.117 0.05,0.226 0.05,0.327 0.017,0.118 0.042,0.244 0.076,0.378 l 0.15,0.378 a 0.978,0.978 0 0 1 0.076,0.303 l 0.05,0.302 0.076,0.277 0.05,0.177 0.026,0.176 c 0,0.118 0.025,0.26 0.076,0.428 l 0.126,0.353 0.201,0.933 0.025,0.05 c 0.068,0.1 0.118,0.252 0.152,0.454 l 0.025,0.226 0.075,0.227 0.076,0.328 0.252,1.008 c 0.067,0.269 0.134,0.495 0.202,0.68 l 0.05,0.202 0.076,0.201 a 0.395,0.395 0 0 0 0.075,0.101 c 0.017,0.017 0.042,0.017 0.076,0 l 0.075,-0.05 0.05,-0.101 0.152,-0.504 0.025,-0.05 0.025,-0.101 c 0.034,-0.101 0.068,-0.21 0.101,-0.328 0.135,-0.37 0.252,-0.714 0.353,-1.033 0.336,-1.008 0.504,-1.546 0.504,-1.613 l 0.1,-0.327 0.076,-0.353 0.05,-0.252 c 0,-0.034 0.018,-0.135 0.051,-0.303 0.05,-0.201 0.093,-0.411 0.126,-0.63 0.135,-0.588 0.235,-0.982 0.303,-1.184 l 0.15,-0.53 0.152,-0.503 0.151,-0.655 0.05,-0.353 0.101,-0.353 0.152,-0.479 0.126,-0.479 c 0.117,-0.386 0.226,-0.697 0.327,-0.932 l 0.05,-0.126 c 0.034,-0.286 0.185,-0.504 0.454,-0.655 l 0.05,-0.025 0.026,-0.026 c 0.084,-0.15 0.285,-0.268 0.605,-0.352 0.117,-0.034 0.243,-0.06 0.378,-0.076 l 0.126,-0.025 h 0.1 c 0.068,0 0.143,0.025 0.227,0.075 l 0.101,0.05 0.076,0.026 c 0.319,0.05 0.562,0.218 0.73,0.504 l 0.126,0.151 0.101,0.151 0.101,0.252 0.1,0.278 v 0.15 c -0.033,0.102 -0.041,0.505 -0.024,1.21 0.016,0.219 0.033,0.504 0.05,0.857 l 0.025,0.353 v 0.277 l 0.101,2.167 v 0.177 c 0.05,0.185 0.076,0.403 0.076,0.655 l -0.026,0.328 v 0.604 l 0.026,0.278 0.05,0.453 0.05,0.479 v 0.252 l -0.025,0.252 0.05,0.932 0.026,0.101 c 0.05,0.135 0.075,0.345 0.075,0.63 v 0.202 l 0.026,0.201 v 0.48 l 0.025,0.453 0.1,1.083 0.152,1.235 0.025,0.177 0.05,0.201 0.126,0.731 a 0.588,0.588 0 0 1 -0.1,0.479 0.624,0.624 0 0 0 -0.126,0.227 0.381,0.381 0 0 1 -0.252,0.277 c -0.101,0.1 -0.227,0.168 -0.378,0.201 -0.135,0.05 -0.286,0.076 -0.454,0.076 a 0.107,0.107 0 0 1 -0.1,0 l -0.278,-0.025 c -0.538,-0.034 -0.924,-0.16 -1.16,-0.378 -0.15,-0.135 -0.285,-0.361 -0.402,-0.68 A 0.56,0.56 0 0 1 51.156,44.036 L 51.131,44.011 51.03,43.532 a 4.408,4.408 0 0 1 -0.1,-0.504 L 50.728,41.415 50.678,40.609 50.627,39.424 50.526,38.24 A 21.194,21.194 0 0 1 50.45,37.005 L 50.425,35.77 50.35,33.704 v -0.076 l -0.026,-0.05 c -0.016,-0.034 -0.042,-0.05 -0.075,-0.05 -0.053,-0.014 -0.095,0.004 -0.127,0.053 z m 13.382,-6.454 0.454,0.126 c 0.218,0.067 0.37,0.16 0.453,0.277 l 0.126,0.126 0.076,0.126 a 0.443,0.443 0 0 1 0.05,0.353 c -0.017,0.05 -0.05,0.117 -0.1,0.201 l -0.127,0.126 A 0.53,0.53 0 0 1 64.26,28.74 l -0.151,0.1 -0.151,0.076 a 0.593,0.593 0 0 1 -0.227,0.076 l -0.252,0.05 -0.277,0.05 a 2.421,2.421 0 0 0 -0.177,0.05 h -0.176 a 0.839,0.839 0 0 0 -0.353,0.026 h -0.202 l -0.252,-0.025 c -0.235,-0.017 -0.394,-0.017 -0.478,0 l -0.53,0.151 a 0.31,0.31 0 0 0 -0.201,0.252 v 0.428 c 0.017,0.236 0.017,0.387 0,0.454 l -0.076,0.428 a 4.13,4.13 0 0 0 -0.1,0.756 l -0.051,0.756 v 0.076 c -0.05,0.134 -0.067,0.37 -0.05,0.706 l 0.025,0.176 v 0.151 c 0.017,0.101 0.025,0.16 0.025,0.177 l -0.05,0.15 -0.026,0.177 c 0.017,0.101 0.017,0.193 0,0.277 l -0.025,0.101 a 0.28,0.28 0 0 0 -0.025,0.126 v 0.328 l -0.025,0.302 c 0,0.101 0.067,0.151 0.201,0.151 l 0.202,-0.025 1.588,-0.227 c 0.134,-0.016 0.235,0 0.302,0.05 a 0.28,0.28 0 0 0 0.126,0.026 c 0.168,-0.017 0.353,0.042 0.554,0.176 l 0.05,0.05 0.051,0.026 c 0.235,0.067 0.387,0.269 0.454,0.605 0.033,0.151 0.017,0.269 -0.05,0.353 l -0.101,0.126 -0.076,0.126 a 0.744,0.744 0 0 1 -0.252,0.201 l -0.025,0.025 a 0.686,0.686 0 0 1 -0.353,0.252 l -0.202,0.05 -0.201,0.026 a 5.614,5.614 0 0 0 -0.807,0.126 l -0.78,0.176 c -0.118,0.017 -0.21,0.026 -0.278,0.026 -0.1,0 -0.168,0.042 -0.202,0.126 -0.016,0.067 -0.025,0.436 -0.025,1.108 l -0.025,0.429 v 0.428 c 0,0.336 -0.008,0.597 -0.025,0.781 0.033,0.135 0.042,0.362 0.025,0.68 l -0.05,0.454 -0.026,0.504 c 0,0.27 0.009,0.513 0.026,0.731 l 0.025,0.151 v 0.152 c 0.017,0.134 0.025,0.294 0.025,0.478 -0.034,0.084 -0.008,0.168 0.076,0.252 0.067,0.068 0.15,0.11 0.252,0.126 0.067,0 0.201,0.009 0.403,0.026 h 0.655 c 0.571,0.016 0.916,0.008 1.033,-0.026 0.05,-0.016 0.093,-0.016 0.126,0 0.118,0.05 0.26,0.076 0.429,0.076 h 0.504 c 0.117,0.168 0.184,0.395 0.201,0.68 l -0.126,0.227 -0.151,0.202 a 0.317,0.317 0 0 1 -0.176,0.126 c -0.185,0.017 -0.672,0.042 -1.462,0.075 l -0.454,0.026 -0.403,0.025 a 8.426,8.426 0 0 0 -0.605,0.05 l -0.529,0.05 -0.756,0.076 c -0.185,0.017 -0.327,-0.008 -0.428,-0.075 l -0.05,-0.026 h -0.051 c -0.134,0 -0.277,-0.033 -0.428,-0.1 l -0.202,-0.076 -0.202,-0.1 -0.226,-0.102 -0.252,-0.075 c -0.168,-0.084 -0.26,-0.21 -0.278,-0.378 0,-0.118 -0.058,-0.193 -0.176,-0.227 -0.084,-0.034 -0.134,-0.11 -0.151,-0.227 l -0.076,-0.227 -0.1,-0.252 c -0.017,-0.033 -0.026,-0.16 -0.026,-0.378 a 2.426,2.426 0 0 1 0,-0.504 1.825,1.825 0 0 0 0,-0.428 l -0.05,-0.428 c -0.034,-0.202 -0.034,-0.773 0,-1.714 l 0.025,-0.554 v -0.48 c 0.017,-0.335 0.017,-0.562 0,-0.68 l -0.151,-1.713 a 17.854,17.854 0 0 1 -0.076,-1.437 c -0.017,-0.705 -0.008,-1.15 0.025,-1.335 v -0.58 a 2.999,2.999 0 0 1 0,-0.554 l 0.026,-0.05 c 0.05,-0.185 0.084,-0.429 0.1,-0.731 l 0.026,-0.378 0.025,-0.353 0.075,-0.706 0.076,-0.73 a 8.08,8.08 0 0 1 0.1,-0.656 l 0.076,-0.327 0.076,-0.303 0.05,-0.302 0.026,-0.277 a 0.647,0.647 0 0 1 0.252,-0.48 l 0.201,-0.15 a 0.554,0.554 0 0 1 0.227,-0.101 c 0.034,-0.017 0.134,-0.034 0.302,-0.05 h 0.807 l 0.201,0.025 c 0.37,0.016 0.614,0.008 0.731,-0.026 0.219,-0.05 0.496,-0.084 0.832,-0.1 h 0.428 l 0.429,-0.026 c 0.201,0 0.42,-0.025 0.655,-0.075 0.151,-0.034 0.336,-0.025 0.554,0.025 l 0.479,0.1 z m 11.189,0.403 c 0.117,0.302 0.185,0.571 0.201,0.806 0.017,0.084 0.017,0.194 0,0.328 l -0.025,0.353 -0.05,0.378 -0.05,0.353 -0.076,0.73 -0.025,0.706 -0.05,0.605 -0.076,0.605 v 0.529 l -0.126,1.109 -0.101,0.756 -0.076,0.73 -0.227,2.344 v 1.411 c 0,0.47 0.017,0.865 0.05,1.185 v 0.831 l -0.024,1.361 0.025,0.403 c 0.017,0.672 -0.042,1.185 -0.177,1.537 a 0.601,0.601 0 0 1 -0.378,0.353 c -0.016,0 -0.05,0.017 -0.1,0.05 l -0.101,0.076 -0.126,0.05 c -0.202,0.118 -0.345,0.177 -0.429,0.177 -0.016,0 -0.1,0.025 -0.252,0.076 l -0.201,0.025 a 0.781,0.781 0 0 0 -0.177,0.05 c -0.05,0.017 -0.21,-0.008 -0.478,-0.075 l -0.252,-0.05 A 1.94,1.94 0 0 0 71.215,45.296 0.407,0.407 0 0 1 70.837,45.069 L 70.333,44.263 69.88,43.557 a 10.405,10.405 0 0 1 -0.378,-0.73 l -0.076,-0.278 -0.076,-0.252 -0.226,-0.73 -0.101,-0.454 a 6.36,6.36 0 0 1 -0.076,-0.454 l -0.075,-0.327 -0.076,-0.353 -0.328,-1.613 -0.1,-0.504 -0.101,-0.479 -0.05,-0.327 -0.076,-0.328 -0.151,-0.781 -0.152,-0.882 -0.277,-1.411 c -0.033,-0.101 -0.084,-0.152 -0.151,-0.152 -0.067,0 -0.1,0.05 -0.1,0.152 l -0.102,0.831 -0.075,0.882 -0.101,1.865 -0.076,1.16 -0.05,0.302 a 2.692,2.692 0 0 0 -0.1,0.907 l 0.075,1.386 v 0.1 l 0.025,0.127 c 0.05,0.352 0.042,0.79 -0.025,1.31 a 0.755,0.755 0 0 0 0,0.277 l 0.025,0.303 v 0.252 a 0.656,0.656 0 0 1 -0.025,0.201 l -0.025,0.076 c -0.017,0.033 -0.017,0.134 0,0.302 0.033,0.202 0.016,0.361 -0.05,0.479 a 0.224,0.224 0 0 0 -0.026,0.1 c -0.017,0.135 -0.059,0.261 -0.126,0.379 l -0.1,0.151 -0.127,0.151 c -0.1,0.118 -0.227,0.143 -0.378,0.076 l -0.075,-0.05 -0.076,-0.026 c -0.1,0.017 -0.176,-0.017 -0.227,-0.1 L 65.596,45.019 H 65.52 c -0.1,0 -0.168,-0.05 -0.202,-0.151 l -0.15,-0.555 c 0,-0.117 0.008,-0.344 0.024,-0.68 0,-0.151 0.009,-0.294 0.026,-0.429 l 0.025,-0.201 c 0.017,-0.084 0.025,-0.168 0.025,-0.252 l 0.05,-0.53 0.05,-0.503 c 0,-0.37 -0.016,-0.782 -0.05,-1.235 -0.033,-0.706 -0.025,-1.243 0.026,-1.613 l 0.05,-0.605 0.05,-0.781 0.076,-0.806 0.076,-1.487 0.05,-1.109 V 33.25 l 0.05,-0.756 c 0.034,-0.285 0.076,-0.546 0.126,-0.78 l 0.101,-0.454 0.076,-0.48 c 0.017,-0.083 0.033,-0.218 0.05,-0.402 l 0.025,-0.504 c 0.017,-0.437 0.06,-0.731 0.126,-0.882 l 0.177,-0.53 0.201,-0.529 c 0.05,-0.117 0.143,-0.277 0.278,-0.479 l 0.05,-0.05 0.252,-0.126 0.176,-0.1 0.252,-0.152 0.278,-0.126 c 0.134,-0.067 0.285,-0.059 0.453,0.025 l 0.303,0.126 0.277,0.126 c 0.537,0.303 0.882,0.63 1.033,0.983 l 0.025,0.151 0.076,0.252 0.05,0.252 c 0,0.118 0.05,0.32 0.151,0.605 l 0.101,0.328 c 0.05,0.117 0.076,0.21 0.076,0.277 0.033,0.1 0.059,0.285 0.075,0.554 l 0.026,0.328 c 0.016,0.1 0.033,0.185 0.05,0.252 l 0.126,0.781 0.025,0.151 c -0.017,0.202 0.025,0.361 0.126,0.479 l 0.025,0.025 v 0.076 l 0.076,0.453 c 0.034,0.202 0.05,0.362 0.05,0.48 0,0.083 0.017,0.184 0.05,0.302 l 0.202,0.604 c 0.034,0.118 0.06,0.227 0.076,0.328 0.017,0.185 0.059,0.412 0.126,0.68 l 0.1,0.48 0.102,0.503 a 0.978,0.978 0 0 1 0.075,0.303 l 0.025,0.302 0.026,0.076 0.05,0.1 v -0.05 l 0.05,-1.058 v -0.68 l 0.202,-1.866 v -0.1 c 0.067,-0.202 0.118,-0.454 0.151,-0.756 l 0.101,-0.756 0.025,-0.378 0.025,-0.404 V 31.159 L 72.4,31.058 v -0.353 c 0.016,-0.134 0.042,-0.277 0.075,-0.428 L 72.5,29.672 72.45,29.42 a 0.515,0.515 0 0 1 0,-0.227 c 0.017,-0.117 0.059,-0.294 0.126,-0.529 l 0.076,-0.605 a 2.2,2.2 0 0 1 0.1,-0.453 l 0.076,-0.126 0.1,-0.101 0.076,-0.101 c 0.084,-0.185 0.152,-0.277 0.202,-0.277 h 0.025 v -0.05 c 0.017,-0.068 0.05,-0.11 0.101,-0.127 h 0.176 l 0.555,0.076 h 0.05 l 0.126,0.1 0.126,0.051 0.151,0.151 c 0.05,0.05 0.084,0.101 0.101,0.152 a 0.56,0.56 0 0 1 0.076,0.176 z m 10.81,1.21 A 1.068,1.068 0 0 1 85,29.042 4.189,4.189 0 0 1 84.395,29.118 l -2.016,0.05 a 0.69,0.69 0 0 0 0.025,0.151 c 0.134,0.219 0.21,0.437 0.227,0.655 0,0.05 0.008,0.093 0.025,0.126 l 0.05,0.076 a 0.284,0.284 0 0 1 0.026,0.202 c 0,0.05 0.008,0.176 0.025,0.378 l 0.025,0.226 c 0.017,0.084 0.025,0.143 0.025,0.177 v 0.176 l 0.025,1.033 v 0.177 c 0.034,0.117 0.042,0.252 0.026,0.403 l -0.05,0.403 -0.026,0.227 0.025,0.277 0.025,0.252 c 0.017,0.168 0.042,0.613 0.076,1.336 0.034,0.773 0.034,1.226 0,1.36 a 1.565,1.565 0 0 0 -0.025,0.303 l 0.025,0.277 v 0.101 l 0.025,0.126 -0.025,0.151 v 0.252 a 7.215,7.215 0 0 0 -0.025,0.53 c -0.017,0.47 -0.025,0.755 -0.025,0.856 v 0.328 l 0.025,0.227 v 0.252 c 0.033,0.436 0.042,0.722 0.025,0.856 -0.017,0.27 0.008,0.588 0.076,0.958 0.016,0.05 0.025,0.134 0.025,0.252 l 0.05,0.378 c 0.034,0.353 0.059,0.563 0.076,0.63 0.017,0.1 0.033,0.286 0.05,0.554 l 0.025,0.303 c 0.017,0.1 0.026,0.185 0.026,0.252 a 0.339,0.339 0 0 1 -0.101,0.302 c -0.084,0.118 -0.294,0.219 -0.63,0.303 l -0.177,0.05 -0.15,0.025 c -0.118,0.017 -0.186,0.034 -0.202,0.05 -0.101,0.068 -0.353,0.068 -0.756,0 a 9.848,9.848 0 0 0 -0.454,-0.1 L 80.59,44.969 A 0.412,0.412 0 0 0 80.489,44.943 L 80.312,44.918 A 0.459,0.459 0 0 1 79.985,44.666 L 79.834,44.313 C 79.8,44.263 79.766,44.145 79.733,43.96 l -0.025,-0.176 a 1.257,1.257 0 0 1 -0.026,-0.151 l -0.126,-0.429 a 1.535,1.535 0 0 1 -0.075,-0.428 l -0.05,-0.479 -0.051,-0.504 -0.076,-1.134 -0.025,-0.781 -0.025,-0.756 c -0.017,-0.47 0,-1.016 0.05,-1.638 v -0.328 l -0.025,-0.327 v -2.772 l -0.025,-1.059 v -2.57 c 0,-0.05 -0.008,-0.118 -0.025,-0.202 l -0.101,-0.252 c -0.067,-0.201 -0.092,-0.344 -0.076,-0.428 0.017,-0.151 -0.033,-0.235 -0.15,-0.252 -0.118,-0.034 -0.286,-0.034 -0.505,0 -0.084,0 -0.168,0.008 -0.252,0.025 l -0.227,-0.025 c -0.168,0 -0.319,0.017 -0.453,0.05 l -0.706,0.101 c -0.084,0.017 -0.168,-0.008 -0.252,-0.075 -0.017,0 -0.05,-0.017 -0.1,-0.05 L 76.28,29.244 a 1.545,1.545 0 0 1 -0.201,-0.126 l -0.151,-0.152 -0.05,-0.075 -0.076,-0.076 c -0.118,-0.117 -0.135,-0.243 -0.05,-0.378 a 0.603,0.603 0 0 0 0.075,-0.453 0.284,0.284 0 0 1 0.025,-0.202 l 0.05,-0.1 0.05,-0.076 0.051,-0.05 h 0.68 c 0.185,-0.018 0.37,-0.06 0.555,-0.127 0.168,-0.067 0.31,-0.1 0.428,-0.1 l 0.756,-0.101 h 0.429 l 0.63,0.025 h 0.806 l 0.807,-0.05 0.982,-0.051 c 0.118,0 0.219,0.017 0.303,0.05 0.084,0.05 0.201,0.076 0.353,0.076 l 1.108,-0.05 0.278,-0.026 h 0.352 l 0.353,0.026 0.177,0.025 0.176,0.075 v 0.026 c 0.269,0.033 0.437,0.126 0.504,0.277 a 0.754,0.754 0 0 1 0.025,0.353 c -0.017,0.352 -0.084,0.604 -0.201,0.756 z m 14.541,7.08 0.126,-0.327 0.1,-0.302 a 1.87,1.87 0 0 0 0.026,-0.68 l -0.126,-0.933 -0.1,-0.932 -0.051,-0.177 -0.227,-0.655 -0.252,-0.655 -0.176,-0.378 -0.227,-0.353 -0.504,-0.806 c -0.101,-0.185 -0.21,-0.294 -0.328,-0.328 l -0.63,-0.126 c -0.168,-0.017 -0.277,0.05 -0.327,0.202 -0.168,0.42 -0.236,0.764 -0.202,1.033 a 4.37,4.37 0 0 1 -0.076,1.058 1.33,1.33 0 0 0 -0.025,0.429 c 0.017,0.1 0.025,0.226 0.025,0.378 v 0.655 l 0.026,0.227 0.025,0.1 v 0.101 l -0.025,0.303 v 0.277 c 0,0.252 -0.017,0.445 -0.05,0.58 v 0.302 l 0.024,0.302 0.026,0.277 v 1.11 L 97.07,37.66 v 0.05 c -0.016,0.253 0,0.454 0.05,0.606 0.102,0.352 0.278,0.42 0.53,0.201 l 0.479,-0.378 c 0.201,-0.151 0.361,-0.285 0.479,-0.403 l 0.327,-0.353 c 0.151,-0.134 0.26,-0.252 0.328,-0.353 l 0.227,-0.277 0.226,-0.302 c 0.152,-0.235 0.26,-0.445 0.328,-0.63 z m 2.041,-3.25 0.151,0.882 0.05,0.454 v 0.478 c 0.018,0.37 0.018,0.698 0,0.983 l -0.05,0.177 -0.075,0.176 -0.504,1.033 c -0.252,0.538 -0.521,0.95 -0.807,1.235 l -0.226,0.252 -0.429,0.454 -0.403,0.453 -0.554,0.403 -0.202,0.05 -0.176,0.026 -0.152,0.025 c -0.218,0.118 -0.478,0.16 -0.78,0.126 h -0.102 l -0.277,-0.025 c -0.218,0 -0.344,0.1 -0.378,0.302 v 1.134 c 0.017,0.185 0.025,0.37 0.025,0.555 0.034,0.487 0.068,0.815 0.101,0.983 0.101,0.57 0.101,1.117 0,1.638 a 0.44,0.44 0 0 1 -0.126,0.226 c -0.168,0.185 -0.386,0.32 -0.655,0.404 l -0.076,0.025 a 0.62,0.62 0 0 0 -0.302,0.025 l -0.277,0.076 c -0.269,0.084 -0.496,0.05 -0.68,-0.101 a 1.232,1.232 0 0 0 -0.706,-0.303 c -0.067,0 -0.143,-0.033 -0.227,-0.1 -0.252,-0.236 -0.395,-0.58 -0.428,-1.034 l -0.076,-1.285 -0.05,-1.285 -0.026,-0.353 -0.05,-0.378 -0.025,-0.605 -0.05,-0.604 v -1.336 c 0,-0.1 -0.017,-0.202 -0.051,-0.302 a 1.846,1.846 0 0 1 -0.076,-0.68 V 33.78 l -0.05,-1.11 v -0.957 c 0,-0.588 0.042,-1.453 0.126,-2.595 0.034,-0.521 0.1,-0.924 0.202,-1.21 -0.017,-0.1 0.016,-0.21 0.1,-0.328 l 0.126,-0.15 a 0.406,0.406 0 0 0 0.05,-0.177 l 0.076,-0.076 0.656,-0.201 h 0.15 l 0.152,0.025 h 0.151 a 0.32,0.32 0 0 1 0.151,0.075 c 0.185,0.135 0.454,0.194 0.807,0.177 0.319,-0.017 0.596,-0.017 0.831,0 0.387,0.017 0.756,0.05 1.11,0.1 l 0.276,0.076 0.278,0.101 0.302,0.1 0.277,0.076 c 0.235,0.068 0.487,0.252 0.756,0.555 l 0.403,0.403 0.101,0.151 0.378,0.479 0.328,0.479 0.201,0.327 0.177,0.353 c 0.201,0.387 0.336,0.807 0.403,1.26 z m 8.341,-5.443 0.454,0.126 c 0.218,0.067 0.37,0.16 0.454,0.277 l 0.126,0.126 0.075,0.126 a 0.443,0.443 0 0 1 0.05,0.353 c -0.016,0.05 -0.05,0.117 -0.1,0.201 l -0.126,0.126 a 0.53,0.53 0 0 1 -0.177,0.278 l -0.15,0.1 -0.152,0.076 a 0.593,0.593 0 0 1 -0.227,0.076 l -0.252,0.05 -0.277,0.05 a 2.421,2.421 0 0 0 -0.176,0.05 h -0.177 a 0.839,0.839 0 0 0 -0.353,0.026 h -0.201 l -0.252,-0.025 c -0.235,-0.017 -0.395,-0.017 -0.479,0 l -0.53,0.151 a 0.31,0.31 0 0 0 -0.2,0.252 v 0.428 c 0.016,0.236 0.016,0.387 0,0.454 l -0.076,0.428 a 4.13,4.13 0 0 0 -0.101,0.756 l -0.05,0.756 v 0.076 c -0.051,0.134 -0.068,0.37 -0.051,0.706 l 0.025,0.176 v 0.151 c 0.017,0.101 0.025,0.16 0.025,0.177 l -0.05,0.15 -0.025,0.177 c 0.017,0.101 0.017,0.193 0,0.277 l -0.025,0.101 a 0.28,0.28 0 0 0 -0.026,0.126 v 0.328 l -0.025,0.302 c 0,0.101 0.067,0.151 0.202,0.151 l 0.201,-0.025 1.588,-0.227 c 0.134,-0.016 0.235,0 0.302,0.05 a 0.28,0.28 0 0 0 0.126,0.026 c 0.168,-0.017 0.353,0.042 0.555,0.176 l 0.05,0.05 0.05,0.026 c 0.236,0.067 0.387,0.269 0.454,0.605 0.034,0.151 0.017,0.269 -0.05,0.353 l -0.101,0.126 -0.076,0.126 a 0.744,0.744 0 0 1 -0.252,0.201 l -0.025,0.025 a 0.686,0.686 0 0 1 -0.353,0.252 l -0.201,0.05 -0.202,0.026 a 5.614,5.614 0 0 0 -0.806,0.126 l -0.781,0.176 c -0.118,0.017 -0.21,0.026 -0.278,0.026 -0.1,0 -0.168,0.042 -0.201,0.126 -0.017,0.067 -0.025,0.436 -0.025,1.108 l -0.026,0.429 v 0.428 c 0,0.336 -0.008,0.597 -0.025,0.781 0.034,0.135 0.042,0.362 0.025,0.68 l -0.05,0.454 -0.025,0.504 c 0,0.27 0.008,0.513 0.025,0.731 l 0.025,0.151 v 0.152 c 0.017,0.134 0.025,0.294 0.025,0.478 -0.033,0.084 -0.008,0.168 0.076,0.252 0.067,0.068 0.151,0.11 0.252,0.126 0.067,0 0.202,0.009 0.403,0.026 h 0.655 c 0.572,0.016 0.916,0.008 1.034,-0.026 0.05,-0.016 0.092,-0.016 0.126,0 0.117,0.05 0.26,0.076 0.428,0.076 h 0.504 c 0.118,0.168 0.185,0.395 0.202,0.68 l -0.126,0.227 -0.152,0.202 a 0.317,0.317 0 0 1 -0.176,0.126 c -0.185,0.017 -0.672,0.042 -1.462,0.075 l -0.453,0.026 -0.403,0.025 a 8.426,8.426 0 0 0 -0.605,0.05 l -0.53,0.05 -0.755,0.076 c -0.185,0.017 -0.328,-0.008 -0.429,-0.075 l -0.05,-0.026 h -0.05 c -0.135,0 -0.278,-0.033 -0.429,-0.1 l -0.202,-0.076 -0.201,-0.1 -0.227,-0.102 -0.252,-0.075 c -0.168,-0.084 -0.26,-0.21 -0.277,-0.378 0,-0.118 -0.059,-0.193 -0.177,-0.227 -0.084,-0.034 -0.134,-0.11 -0.15,-0.227 l -0.076,-0.227 -0.101,-0.252 c -0.017,-0.033 -0.025,-0.16 -0.025,-0.378 a 2.426,2.426 0 0 1 0,-0.504 1.825,1.825 0 0 0 0,-0.428 l -0.05,-0.428 c -0.034,-0.202 -0.034,-0.773 0,-1.714 l 0.024,-0.554 v -0.48 c 0.017,-0.335 0.017,-0.562 0,-0.68 l -0.15,-1.713 a 17.855,17.855 0 0 1 -0.076,-1.437 c -0.017,-0.705 -0.009,-1.15 0.025,-1.335 v -0.58 a 2.999,2.999 0 0 1 0,-0.554 l 0.025,-0.05 c 0.05,-0.185 0.084,-0.429 0.1,-0.731 l 0.026,-0.378 0.025,-0.353 0.076,-0.706 0.075,-0.73 a 8.08,8.08 0 0 1 0.101,-0.656 l 0.076,-0.327 0.075,-0.303 0.05,-0.302 0.026,-0.277 a 0.647,0.647 0 0 1 0.252,-0.48 l 0.202,-0.15 a 0.554,0.554 0 0 1 0.226,-0.101 c 0.034,-0.017 0.135,-0.034 0.303,-0.05 h 0.806 l 0.202,0.025 c 0.37,0.016 0.613,0.008 0.73,-0.026 0.219,-0.05 0.496,-0.084 0.832,-0.1 h 0.429 l 0.428,-0.026 c 0.202,0 0.42,-0.025 0.655,-0.075 0.151,-0.034 0.336,-0.025 0.555,0.025 l 0.478,0.1 z m 6.35,8.92 0.102,0.026 c 0.05,0.017 0.336,-0.101 0.856,-0.353 0.538,-0.252 0.908,-0.454 1.11,-0.605 l 0.377,-0.302 c 0.135,-0.118 0.244,-0.227 0.328,-0.328 0.285,-0.386 0.42,-0.966 0.403,-1.739 0,-0.52 -0.034,-1.041 -0.1,-1.562 -0.068,-0.538 -0.202,-0.932 -0.404,-1.184 -0.1,-0.135 -0.244,-0.26 -0.428,-0.378 l -0.252,-0.152 -0.227,-0.176 a 3.528,3.528 0 0 1 -0.328,-0.227 l -0.277,-0.151 -0.353,-0.176 -0.327,-0.177 c -0.202,-0.1 -0.437,-0.092 -0.706,0.025 a 0.33,0.33 0 0 0 -0.151,0.152 l -0.025,0.1 v 0.101 l -0.05,0.126 -0.026,0.126 -0.076,0.177 a 0.212,0.212 0 0 0 0.026,0.176 c 0.117,0.336 0.134,0.605 0.05,0.806 v 0.126 l 0.05,0.706 0.026,0.328 v 0.907 l 0.05,0.554 h -0.025 l 0.025,0.454 0.025,0.705 v 0.227 c 0,0.067 0.009,0.135 0.025,0.202 l 0.05,0.151 c 0.018,0.1 0.026,0.193 0.026,0.277 l 0.025,0.252 0.025,0.202 c 0.017,0.185 0.017,0.336 0,0.453 0,0.05 0.034,0.093 0.101,0.126 l 0.076,0.026 z m 5.066,7.057 0.151,0.277 c 0.168,0.302 0.269,0.756 0.303,1.36 v 0.303 l -0.026,0.076 -0.478,0.403 -0.429,-0.025 -0.176,-0.026 h -0.126 l -0.151,-0.025 a 0.494,0.494 0 0 1 -0.328,-0.075 l -0.126,-0.076 -0.151,-0.076 c -0.118,-0.05 -0.193,-0.109 -0.227,-0.176 l -0.151,-0.302 a 0.776,0.776 0 0 1 -0.126,-0.303 c -0.017,-0.151 -0.084,-0.344 -0.202,-0.58 l -0.126,-0.302 -0.1,-0.277 a 1.03,1.03 0 0 0 -0.253,-0.454 5.683,5.683 0 0 1 -0.176,-0.252 l -0.151,-0.277 c -0.387,-0.672 -0.706,-1.176 -0.958,-1.512 l -0.252,-0.403 -0.378,-0.554 -0.05,-0.026 -0.025,-0.05 -0.252,0.1 0.075,0.757 v 0.075 l 0.025,0.076 a 2.022,2.022 0 0 0 0,0.454 l 0.076,0.453 v 0.429 c 0.034,0.403 0.042,0.747 0.025,1.033 v 0.277 l 0.025,0.302 c 0.05,0.42 0.026,0.748 -0.075,0.983 a 0.48,0.48 0 0 1 -0.227,0.252 l -0.202,0.101 -0.352,0.151 c -0.336,0.151 -0.53,0.227 -0.58,0.227 h -0.554 a 3.004,3.004 0 0 0 -0.227,-0.1 l -0.126,-0.051 -0.126,-0.025 -0.101,-0.026 -0.076,-0.025 a 0.412,0.412 0 0 1 -0.1,-0.025 l -0.126,-0.076 c -0.135,-0.033 -0.227,-0.042 -0.278,-0.025 -0.05,0.017 -0.126,-0.025 -0.226,-0.126 -0.101,-0.117 -0.152,-0.21 -0.152,-0.277 a 1.101,1.101 0 0 0 -0.226,-0.53 c -0.084,-0.117 -0.135,-0.293 -0.152,-0.528 -0.016,-0.387 -0.033,-0.84 -0.05,-1.361 v -0.328 l -0.025,-0.227 V 41.44 a 33.28,33.28 0 0 1 -0.025,-0.78 l -0.026,-0.706 v -0.101 l -0.025,-0.126 v -0.555 l -0.025,-0.201 v -0.177 l -0.025,-1.184 -0.05,-0.832 -0.026,-0.302 -0.025,-0.756 -0.076,-0.756 -0.15,-1.31 v -0.278 l -0.102,-0.78 v -0.328 l -0.05,-0.656 -0.025,-0.655 a 3.56,3.56 0 0 1 -0.025,-0.479 L 112.493,30 c 0,-0.252 -0.009,-0.47 -0.025,-0.656 -0.034,-0.117 -0.034,-0.445 0,-0.982 0.016,-0.504 0.033,-0.798 0.05,-0.882 l 0.151,-0.076 c 0.084,-0.034 0.177,-0.076 0.277,-0.126 0.303,-0.118 0.48,-0.176 0.53,-0.176 l 0.126,0.025 h 0.15 l 0.152,0.025 c 0.134,0.034 0.31,0.05 0.53,0.05 h 0.251 c 0.101,0 0.193,0.009 0.277,0.026 0.084,0.016 0.194,-0.009 0.328,-0.076 0.067,-0.034 0.168,-0.034 0.302,0 l 0.177,0.025 a 0.351,0.351 0 0 0 0.151,-0.025 l 0.403,-0.1 c 0.286,-0.118 0.513,-0.169 0.68,-0.152 l 0.101,0.025 c 0.303,-0.067 0.69,-0.008 1.16,0.177 0.52,0.201 0.974,0.445 1.36,0.73 l 0.126,0.076 c 0.336,0.134 0.672,0.395 1.008,0.781 l 0.555,0.655 0.075,0.101 0.202,0.454 c 0.1,0.185 0.168,0.336 0.202,0.453 0.134,0.504 0.21,0.9 0.226,1.185 v 0.277 l -0.025,0.252 -0.05,0.378 -0.05,0.353 c 0,0.168 -0.026,0.361 -0.076,0.58 l -0.076,0.302 -0.05,0.277 a 3.2,3.2 0 0 1 -0.504,1.184 l -0.05,0.076 -0.253,0.227 -0.226,0.252 c -0.202,0.201 -0.37,0.353 -0.504,0.453 l -0.126,0.101 -0.101,0.101 -0.655,0.504 -0.252,0.202 -0.252,0.176 c -0.101,0.067 -0.135,0.16 -0.101,0.277 l 0.025,0.277 0.05,0.278 c 0.068,0.168 0.16,0.336 0.278,0.504 l 0.907,1.21 0.353,0.579 0.378,0.58 0.327,0.503 0.303,0.504 0.226,0.429 0.202,0.453 z m 11.667,-9.523 a 25.241,25.241 0 0 0 -0.755,3.097 c -0.152,0.739 -0.446,1.83 -0.882,3.276 l -0.076,0.327 -0.05,0.252 -0.05,0.151 c -0.102,0.219 -0.186,0.47 -0.253,0.756 l -0.1,0.378 a 3.19,3.19 0 0 1 -0.127,0.429 l -0.025,0.151 -0.025,0.176 a 0.638,0.638 0 0 1 -0.1,0.303 l -0.026,0.075 -0.025,0.101 -0.025,0.05 -0.026,0.076 -0.126,0.126 -0.15,0.101 -0.454,0.252 a 1.267,1.267 0 0 1 -0.328,0.176 l -0.202,0.026 h -0.655 a 2.185,2.185 0 0 1 -0.428,-0.126 c -0.286,-0.118 -0.563,-0.42 -0.832,-0.908 l -0.075,-0.075 v 0.05 -0.075 a 0.892,0.892 0 0 1 -0.152,-0.278 l -0.327,-0.756 a 7.177,7.177 0 0 1 -0.303,-0.78 l -0.327,-1.009 c -0.101,-0.386 -0.185,-0.73 -0.252,-1.033 l -0.252,-1.084 -0.277,-1.058 -0.076,-0.227 -0.076,-0.252 c -0.117,0.067 -0.176,0.151 -0.176,0.252 l -0.1,1.613 v 0.076 l -0.026,0.075 a 0.894,0.894 0 0 0 -0.025,0.378 v 0.403 l 0.1,1.059 v 0.201 l -0.075,0.605 v 0.303 l 0.025,0.277 -0.025,0.453 -0.025,0.252 a 0.5,0.5 0 0 0 0.05,0.227 v 0.101 a 4.845,4.845 0 0 0 0,0.706 l 0.025,0.352 -0.025,0.353 v 0.756 a 1.335,1.335 0 0 1 -0.126,0.479 l -0.302,0.403 -0.504,-0.025 a 0.17,0.17 0 0 1 -0.151,-0.076 c -0.236,-0.033 -0.395,-0.126 -0.48,-0.277 l -0.05,-0.151 v -0.176 a 98.612,98.612 0 0 1 -0.176,-6.704 v -1.789 c 0,-0.201 0.017,-0.47 0.05,-0.806 l 0.05,-0.403 0.026,-0.404 v -1.789 c 0,-0.353 0.017,-0.663 0.05,-0.932 0.068,-0.605 0.126,-1.193 0.177,-1.764 V 29.47 l 0.075,-1.234 c 0,-0.152 0.06,-0.278 0.177,-0.378 l 0.126,-0.126 0.1,-0.126 0.051,-0.05 c 0.302,-0.186 0.63,-0.32 0.983,-0.404 0.453,-0.118 0.823,-0.118 1.109,0 0.084,0.034 0.184,0.084 0.302,0.151 l 0.302,0.202 0.026,0.025 0.025,0.05 0.075,0.278 0.126,0.277 c 0.017,0.084 0.042,0.185 0.076,0.302 l 0.05,0.303 0.026,0.1 v 0.126 l 0.025,0.177 0.075,0.302 0.05,0.303 v 0.604 l 0.026,0.05 c 0.067,0.135 0.126,0.32 0.176,0.555 l 0.076,0.303 0.076,0.277 0.226,0.983 c 0.034,0.117 0.05,0.226 0.05,0.327 0.018,0.118 0.043,0.244 0.076,0.378 l 0.152,0.378 a 0.978,0.978 0 0 1 0.075,0.303 l 0.05,0.302 0.076,0.277 0.05,0.177 0.026,0.176 c 0,0.118 0.025,0.26 0.075,0.428 l 0.126,0.353 0.202,0.933 0.025,0.05 c 0.067,0.1 0.118,0.252 0.151,0.454 l 0.026,0.226 0.075,0.227 0.076,0.328 0.252,1.008 c 0.067,0.269 0.134,0.495 0.201,0.68 l 0.05,0.202 0.076,0.201 a 0.395,0.395 0 0 0 0.076,0.101 c 0.017,0.017 0.042,0.017 0.076,0 l 0.075,-0.05 0.05,-0.101 0.152,-0.504 0.025,-0.05 0.025,-0.101 c 0.034,-0.101 0.067,-0.21 0.101,-0.328 0.134,-0.37 0.252,-0.714 0.353,-1.033 0.336,-1.008 0.504,-1.546 0.504,-1.613 l 0.1,-0.327 0.076,-0.353 0.05,-0.252 c 0,-0.034 0.017,-0.135 0.051,-0.303 0.05,-0.201 0.092,-0.411 0.126,-0.63 0.134,-0.588 0.235,-0.982 0.302,-1.184 l 0.152,-0.53 0.15,-0.503 0.152,-0.655 0.05,-0.353 0.101,-0.353 0.151,-0.479 0.126,-0.479 c 0.118,-0.386 0.227,-0.697 0.328,-0.932 l 0.05,-0.126 c 0.034,-0.286 0.185,-0.504 0.454,-0.655 l 0.05,-0.025 0.026,-0.026 c 0.084,-0.15 0.285,-0.268 0.604,-0.352 0.118,-0.034 0.244,-0.06 0.378,-0.076 l 0.126,-0.025 h 0.101 c 0.067,0 0.143,0.025 0.227,0.075 l 0.1,0.05 0.076,0.026 c 0.32,0.05 0.563,0.218 0.731,0.504 l 0.126,0.151 0.101,0.151 0.1,0.252 0.102,0.278 v 0.15 c -0.034,0.102 -0.042,0.505 -0.026,1.21 0.017,0.219 0.034,0.504 0.05,0.857 l 0.026,0.353 v 0.277 l 0.1,2.167 v 0.177 c 0.051,0.185 0.076,0.403 0.076,0.655 l -0.025,0.328 v 0.604 l 0.025,0.278 0.05,0.453 0.051,0.479 v 0.252 l -0.025,0.252 0.05,0.932 0.026,0.101 c 0.05,0.135 0.075,0.345 0.075,0.63 v 0.202 l 0.025,0.201 v 0.48 l 0.026,0.453 0.1,1.083 0.152,1.235 0.025,0.177 0.05,0.201 0.126,0.731 a 0.588,0.588 0 0 1 -0.1,0.479 0.624,0.624 0 0 0 -0.127,0.227 0.381,0.381 0 0 1 -0.252,0.277 c -0.1,0.1 -0.226,0.168 -0.378,0.201 -0.134,0.05 -0.285,0.076 -0.453,0.076 a 0.107,0.107 0 0 1 -0.101,0 l -0.277,-0.025 c -0.538,-0.034 -0.924,-0.16 -1.16,-0.378 -0.15,-0.135 -0.285,-0.361 -0.403,-0.68 a 0.56,0.56 0 0 1 -0.075,-0.177 l -0.025,-0.025 -0.101,-0.479 a 4.408,4.408 0 0 1 -0.101,-0.504 l -0.202,-1.613 -0.05,-0.806 -0.05,-1.185 -0.101,-1.184 a 21.195,21.195 0 0 1 -0.076,-1.235 l -0.025,-1.235 -0.076,-2.066 v -0.076 l -0.025,-0.05 c -0.017,-0.034 -0.042,-0.05 -0.075,-0.05 -0.053,-0.014 -0.095,0.004 -0.127,0.053 z m 13.382,-6.454 0.453,0.126 c 0.219,0.067 0.37,0.16 0.454,0.277 l 0.126,0.126 0.076,0.126 a 0.443,0.443 0 0 1 0.05,0.353 c -0.017,0.05 -0.05,0.117 -0.1,0.201 l -0.127,0.126 a 0.53,0.53 0 0 1 -0.176,0.278 l -0.151,0.1 -0.152,0.076 a 0.593,0.593 0 0 1 -0.226,0.076 l -0.252,0.05 -0.278,0.05 a 2.421,2.421 0 0 0 -0.176,0.05 h -0.176 a 0.839,0.839 0 0 0 -0.353,0.026 h -0.202 l -0.252,-0.025 c -0.235,-0.017 -0.395,-0.017 -0.479,0 l -0.529,0.151 a 0.31,0.31 0 0 0 -0.201,0.252 v 0.428 c 0.016,0.236 0.016,0.387 0,0.454 l -0.076,0.428 a 4.13,4.13 0 0 0 -0.1,0.756 l -0.051,0.756 v 0.076 c -0.05,0.134 -0.067,0.37 -0.05,0.706 l 0.025,0.176 v 0.151 c 0.016,0.101 0.025,0.16 0.025,0.177 l -0.05,0.15 -0.026,0.177 c 0.017,0.101 0.017,0.193 0,0.277 l -0.025,0.101 a 0.28,0.28 0 0 0 -0.025,0.126 v 0.328 l -0.025,0.302 c 0,0.101 0.067,0.151 0.201,0.151 l 0.202,-0.025 1.587,-0.227 c 0.135,-0.016 0.236,0 0.303,0.05 a 0.28,0.28 0 0 0 0.126,0.026 c 0.168,-0.017 0.353,0.042 0.554,0.176 l 0.05,0.05 0.051,0.026 c 0.235,0.067 0.386,0.269 0.454,0.605 0.033,0.151 0.016,0.269 -0.05,0.353 l -0.102,0.126 -0.075,0.126 a 0.744,0.744 0 0 1 -0.252,0.201 l -0.025,0.025 a 0.686,0.686 0 0 1 -0.353,0.252 l -0.202,0.05 -0.201,0.026 a 5.614,5.614 0 0 0 -0.807,0.126 l -0.781,0.176 c -0.118,0.017 -0.21,0.026 -0.277,0.026 -0.101,0 -0.168,0.042 -0.202,0.126 -0.017,0.067 -0.025,0.436 -0.025,1.108 l -0.025,0.429 v 0.428 c 0,0.336 -0.009,0.597 -0.025,0.781 0.033,0.135 0.042,0.362 0.025,0.68 l -0.05,0.454 -0.026,0.504 c 0,0.27 0.009,0.513 0.025,0.731 l 0.026,0.151 v 0.152 c 0.016,0.134 0.025,0.294 0.025,0.478 -0.034,0.084 -0.009,0.168 0.075,0.252 0.068,0.068 0.152,0.11 0.252,0.126 0.068,0 0.202,0.009 0.404,0.026 h 0.655 c 0.571,0.016 0.915,0.008 1.033,-0.026 0.05,-0.016 0.092,-0.016 0.126,0 0.118,0.05 0.26,0.076 0.428,0.076 h 0.504 c 0.118,0.168 0.185,0.395 0.202,0.68 l -0.126,0.227 -0.151,0.202 a 0.317,0.317 0 0 1 -0.177,0.126 c -0.184,0.017 -0.672,0.042 -1.461,0.075 l -0.454,0.026 -0.403,0.025 a 8.426,8.426 0 0 0 -0.605,0.05 l -0.529,0.05 -0.756,0.076 c -0.185,0.017 -0.328,-0.008 -0.428,-0.075 l -0.05,-0.026 h -0.051 c -0.135,0 -0.277,-0.033 -0.429,-0.1 l -0.201,-0.076 -0.202,-0.1 -0.227,-0.102 -0.252,-0.075 c -0.168,-0.084 -0.26,-0.21 -0.277,-0.378 0,-0.118 -0.059,-0.193 -0.176,-0.227 -0.084,-0.034 -0.135,-0.11 -0.151,-0.227 l -0.076,-0.227 -0.1,-0.252 c -0.018,-0.033 -0.026,-0.16 -0.026,-0.378 a 2.426,2.426 0 0 1 0,-0.504 1.825,1.825 0 0 0 0,-0.428 l -0.05,-0.428 c -0.034,-0.202 -0.034,-0.773 0,-1.714 l 0.025,-0.554 v -0.48 c 0.017,-0.335 0.017,-0.562 0,-0.68 l -0.151,-1.713 a 17.854,17.854 0 0 1 -0.076,-1.437 c -0.017,-0.705 -0.008,-1.15 0.025,-1.335 v -0.58 a 2.999,2.999 0 0 1 0,-0.554 l 0.025,-0.05 c 0.05,-0.185 0.084,-0.429 0.101,-0.731 l 0.025,-0.378 0.026,-0.353 0.075,-0.706 0.076,-0.73 a 8.08,8.08 0 0 1 0.1,-0.656 l 0.076,-0.327 0.076,-0.303 0.05,-0.302 0.025,-0.277 a 0.647,0.647 0 0 1 0.252,-0.48 l 0.202,-0.15 a 0.554,0.554 0 0 1 0.227,-0.101 c 0.033,-0.017 0.134,-0.034 0.302,-0.05 h 0.807 l 0.201,0.025 c 0.37,0.016 0.613,0.008 0.731,-0.026 0.218,-0.05 0.496,-0.084 0.832,-0.1 h 0.428 l 0.428,-0.026 c 0.202,0 0.42,-0.025 0.656,-0.075 0.15,-0.034 0.336,-0.025 0.554,0.025 l 0.479,0.1 z m 11.945,1.613 a 1.068,1.068 0 0 1 -0.504,0.302 4.189,4.189 0 0 1 -0.605,0.076 l -2.016,0.05 a 0.69,0.69 0 0 0 0.025,0.151 c 0.134,0.219 0.21,0.437 0.227,0.655 0,0.05 0.008,0.093 0.025,0.126 l 0.05,0.076 a 0.284,0.284 0 0 1 0.026,0.202 c 0,0.05 0.008,0.176 0.025,0.378 l 0.025,0.226 c 0.017,0.084 0.025,0.143 0.025,0.177 v 0.176 l 0.025,1.033 v 0.177 c 0.034,0.117 0.042,0.252 0.026,0.403 l -0.05,0.403 -0.026,0.227 0.025,0.277 0.025,0.252 c 0.017,0.168 0.042,0.613 0.076,1.336 0.034,0.773 0.034,1.226 0,1.36 a 1.565,1.565 0 0 0 -0.025,0.303 l 0.025,0.277 v 0.101 l 0.025,0.126 -0.025,0.151 v 0.252 a 7.215,7.215 0 0 0 -0.025,0.53 c -0.017,0.47 -0.025,0.755 -0.025,0.856 v 0.328 l 0.025,0.227 v 0.252 c 0.033,0.436 0.042,0.722 0.025,0.856 -0.017,0.27 0.008,0.588 0.076,0.958 0.016,0.05 0.025,0.134 0.025,0.252 l 0.05,0.378 c 0.034,0.353 0.059,0.563 0.076,0.63 0.017,0.1 0.033,0.286 0.05,0.554 l 0.025,0.303 c 0.017,0.1 0.026,0.185 0.026,0.252 a 0.339,0.339 0 0 1 -0.101,0.302 c -0.084,0.118 -0.294,0.219 -0.63,0.303 l -0.177,0.05 -0.15,0.025 c -0.118,0.017 -0.186,0.034 -0.202,0.05 -0.101,0.068 -0.353,0.068 -0.756,0 a 9.848,9.848 0 0 0 -0.454,-0.1 l -0.176,-0.05 a 0.412,0.412 0 0 0 -0.101,-0.026 l -0.177,-0.025 a 0.459,0.459 0 0 1 -0.327,-0.252 l -0.151,-0.353 c -0.034,-0.05 -0.068,-0.168 -0.101,-0.353 l -0.025,-0.176 a 1.257,1.257 0 0 1 -0.026,-0.151 l -0.126,-0.429 a 1.535,1.535 0 0 1 -0.075,-0.428 l -0.05,-0.479 -0.051,-0.504 -0.076,-1.134 -0.025,-0.781 -0.025,-0.756 c -0.017,-0.47 0,-1.016 0.05,-1.638 v -0.328 l -0.025,-0.327 v -2.772 l -0.025,-1.059 v -2.57 c 0,-0.05 -0.008,-0.118 -0.025,-0.202 l -0.101,-0.252 c -0.067,-0.201 -0.092,-0.344 -0.076,-0.428 0.017,-0.151 -0.033,-0.235 -0.15,-0.252 -0.118,-0.034 -0.286,-0.034 -0.505,0 -0.084,0 -0.168,0.008 -0.252,0.025 l -0.227,-0.025 c -0.168,0 -0.319,0.017 -0.453,0.05 l -0.706,0.101 c -0.084,0.017 -0.168,-0.008 -0.252,-0.075 -0.017,0 -0.05,-0.017 -0.1,-0.05 l -0.127,-0.076 a 1.545,1.545 0 0 1 -0.201,-0.126 l -0.151,-0.152 -0.05,-0.075 -0.076,-0.076 c -0.118,-0.117 -0.135,-0.243 -0.05,-0.378 a 0.603,0.603 0 0 0 0.075,-0.453 0.284,0.284 0 0 1 0.025,-0.202 l 0.05,-0.1 0.05,-0.076 0.051,-0.05 h 0.68 c 0.185,-0.018 0.37,-0.06 0.555,-0.127 0.168,-0.067 0.31,-0.1 0.428,-0.1 l 0.756,-0.101 h 0.429 l 0.63,0.025 h 0.806 l 0.807,-0.05 0.982,-0.051 c 0.118,0 0.219,0.017 0.303,0.05 0.084,0.05 0.201,0.076 0.353,0.076 l 1.108,-0.05 0.278,-0.026 h 0.352 l 0.353,0.026 0.177,0.025 0.176,0.075 v 0.026 c 0.269,0.033 0.437,0.126 0.504,0.277 a 0.754,0.754 0 0 1 0.025,0.353 c -0.017,0.352 -0.084,0.604 -0.201,0.756 z m 10.836,0 a 1.068,1.068 0 0 1 -0.504,0.302 4.189,4.189 0 0 1 -0.605,0.076 l -2.016,0.05 a 0.69,0.69 0 0 0 0.025,0.151 c 0.134,0.219 0.21,0.437 0.227,0.655 0,0.05 0.008,0.093 0.025,0.126 l 0.05,0.076 a 0.284,0.284 0 0 1 0.026,0.202 c 0,0.05 0.008,0.176 0.025,0.378 l 0.025,0.226 c 0.017,0.084 0.025,0.143 0.025,0.177 v 0.176 L 167,32.368 v 0.177 c 0.034,0.117 0.042,0.252 0.026,0.403 l -0.05,0.403 -0.026,0.227 0.025,0.277 0.025,0.252 c 0.017,0.168 0.042,0.613 0.076,1.336 0.034,0.773 0.034,1.226 0,1.36 a 1.565,1.565 0 0 0 -0.025,0.303 l 0.025,0.277 v 0.101 l 0.025,0.126 -0.025,0.151 v 0.252 a 7.215,7.215 0 0 0 -0.025,0.53 c -0.017,0.47 -0.025,0.755 -0.025,0.856 v 0.328 l 0.025,0.227 v 0.252 c 0.033,0.436 0.042,0.722 0.025,0.856 -0.017,0.27 0.008,0.588 0.076,0.958 0.016,0.05 0.025,0.134 0.025,0.252 l 0.05,0.378 c 0.034,0.353 0.059,0.563 0.076,0.63 0.017,0.1 0.033,0.286 0.05,0.554 l 0.025,0.303 c 0.017,0.1 0.026,0.185 0.026,0.252 a 0.339,0.339 0 0 1 -0.101,0.302 c -0.084,0.118 -0.294,0.219 -0.63,0.303 l -0.177,0.05 -0.15,0.025 c -0.118,0.017 -0.186,0.034 -0.202,0.05 -0.101,0.068 -0.353,0.068 -0.756,0 a 9.848,9.848 0 0 0 -0.454,-0.1 l -0.176,-0.05 a 0.412,0.412 0 0 0 -0.101,-0.026 l -0.177,-0.025 a 0.459,0.459 0 0 1 -0.327,-0.252 l -0.151,-0.353 c -0.034,-0.05 -0.068,-0.168 -0.101,-0.353 l -0.025,-0.176 a 1.257,1.257 0 0 1 -0.026,-0.151 l -0.126,-0.429 a 1.535,1.535 0 0 1 -0.075,-0.428 l -0.05,-0.479 -0.051,-0.504 -0.076,-1.134 -0.025,-0.781 -0.025,-0.756 c -0.017,-0.47 0,-1.016 0.05,-1.638 v -0.328 l -0.025,-0.327 v -2.772 l -0.025,-1.059 v -2.57 c 0,-0.05 -0.008,-0.118 -0.025,-0.202 l -0.101,-0.252 c -0.067,-0.201 -0.092,-0.344 -0.076,-0.428 0.017,-0.151 -0.033,-0.235 -0.15,-0.252 -0.118,-0.034 -0.286,-0.034 -0.505,0 -0.084,0 -0.168,0.008 -0.252,0.025 l -0.227,-0.025 c -0.168,0 -0.319,0.017 -0.453,0.05 l -0.706,0.101 c -0.084,0.017 -0.168,-0.008 -0.252,-0.075 -0.017,0 -0.05,-0.017 -0.1,-0.05 l -0.127,-0.076 a 1.545,1.545 0 0 1 -0.201,-0.126 l -0.151,-0.152 -0.05,-0.075 -0.076,-0.076 c -0.118,-0.117 -0.135,-0.243 -0.05,-0.378 a 0.603,0.603 0 0 0 0.075,-0.453 0.284,0.284 0 0 1 0.025,-0.202 l 0.05,-0.1 0.05,-0.076 0.051,-0.05 h 0.68 c 0.185,-0.018 0.37,-0.06 0.555,-0.127 0.168,-0.067 0.31,-0.1 0.428,-0.1 l 0.756,-0.101 h 0.429 l 0.63,0.025 h 0.806 l 0.807,-0.05 0.982,-0.051 c 0.118,0 0.219,0.017 0.303,0.05 0.084,0.05 0.201,0.076 0.353,0.076 l 1.108,-0.05 0.278,-0.026 h 0.352 l 0.353,0.026 0.177,0.025 0.176,0.075 v 0.026 c 0.269,0.033 0.437,0.126 0.504,0.277 a 0.754,0.754 0 0 1 0.025,0.353 c -0.017,0.352 -0.084,0.604 -0.201,0.756 z m 5.443,7.308 0.1,0.025 c 0.051,0.017 0.337,-0.101 0.857,-0.353 0.538,-0.252 0.908,-0.454 1.11,-0.605 l 0.377,-0.302 c 0.135,-0.118 0.244,-0.227 0.328,-0.328 0.285,-0.386 0.42,-0.966 0.403,-1.739 0,-0.52 -0.034,-1.041 -0.1,-1.562 -0.068,-0.538 -0.202,-0.932 -0.404,-1.184 -0.1,-0.135 -0.244,-0.26 -0.428,-0.378 l -0.252,-0.152 -0.227,-0.176 a 3.528,3.528 0 0 1 -0.328,-0.227 l -0.277,-0.151 -0.353,-0.176 -0.327,-0.177 c -0.202,-0.1 -0.437,-0.092 -0.706,0.025 a 0.33,0.33 0 0 0 -0.151,0.152 l -0.025,0.1 v 0.101 l -0.05,0.126 -0.026,0.126 -0.076,0.177 a 0.212,0.212 0 0 0 0.026,0.176 c 0.117,0.336 0.134,0.605 0.05,0.806 v 0.126 l 0.05,0.706 0.026,0.328 v 0.907 l 0.05,0.554 h -0.025 l 0.025,0.454 0.025,0.705 v 0.227 c 0,0.067 0.009,0.135 0.025,0.202 l 0.05,0.151 c 0.018,0.1 0.026,0.193 0.026,0.277 l 0.025,0.252 0.025,0.202 c 0.017,0.185 0.017,0.336 0,0.453 0,0.05 0.034,0.093 0.101,0.126 z m 5.065,7.056 0.151,0.277 c 0.168,0.302 0.269,0.756 0.303,1.36 v 0.303 l -0.026,0.076 -0.478,0.403 -0.429,-0.025 -0.176,-0.026 h -0.126 l -0.151,-0.025 a 0.494,0.494 0 0 1 -0.328,-0.075 l -0.126,-0.076 -0.151,-0.076 c -0.118,-0.05 -0.193,-0.109 -0.227,-0.176 l -0.151,-0.302 a 0.776,0.776 0 0 1 -0.126,-0.303 c -0.017,-0.151 -0.084,-0.344 -0.202,-0.58 l -0.126,-0.302 -0.1,-0.277 a 1.03,1.03 0 0 0 -0.253,-0.454 5.684,5.684 0 0 1 -0.176,-0.252 l -0.151,-0.277 c -0.387,-0.672 -0.706,-1.176 -0.958,-1.512 l -0.252,-0.403 -0.378,-0.554 -0.05,-0.026 -0.025,-0.05 -0.252,0.1 0.075,0.757 v 0.075 l 0.025,0.076 a 2.022,2.022 0 0 0 0,0.454 l 0.076,0.453 v 0.429 c 0.034,0.403 0.042,0.747 0.025,1.033 v 0.277 l 0.025,0.302 c 0.05,0.42 0.026,0.748 -0.075,0.983 a 0.48,0.48 0 0 1 -0.227,0.252 l -0.202,0.101 -0.352,0.151 c -0.336,0.151 -0.53,0.227 -0.58,0.227 h -0.554 a 3.004,3.004 0 0 0 -0.227,-0.1 l -0.126,-0.051 -0.126,-0.025 -0.101,-0.026 -0.076,-0.025 a 0.412,0.412 0 0 1 -0.1,-0.025 l -0.126,-0.076 c -0.135,-0.033 -0.227,-0.042 -0.278,-0.025 -0.05,0.017 -0.126,-0.025 -0.226,-0.126 -0.101,-0.117 -0.152,-0.21 -0.152,-0.277 a 1.101,1.101 0 0 0 -0.226,-0.53 c -0.084,-0.117 -0.135,-0.293 -0.152,-0.528 -0.016,-0.387 -0.033,-0.84 -0.05,-1.361 v -0.328 l -0.025,-0.227 V 41.44 a 33.273,33.273 0 0 1 -0.025,-0.78 l -0.026,-0.706 v -0.101 l -0.025,-0.126 v -0.555 l -0.025,-0.201 v -0.177 l -0.025,-1.184 -0.05,-0.832 -0.026,-0.302 -0.025,-0.756 -0.076,-0.756 -0.15,-1.31 v -0.278 l -0.102,-0.78 v -0.328 l -0.05,-0.656 -0.025,-0.655 a 3.559,3.559 0 0 1 -0.025,-0.479 L 170.831,30 c 0,-0.252 -0.009,-0.47 -0.025,-0.656 -0.034,-0.117 -0.034,-0.445 0,-0.982 0.016,-0.504 0.033,-0.798 0.05,-0.882 l 0.151,-0.076 c 0.084,-0.034 0.177,-0.076 0.277,-0.126 0.303,-0.118 0.48,-0.176 0.53,-0.176 l 0.126,0.025 h 0.15 l 0.152,0.025 c 0.134,0.034 0.31,0.05 0.53,0.05 h 0.251 c 0.101,0 0.193,0.009 0.277,0.026 0.084,0.016 0.194,-0.009 0.328,-0.076 0.067,-0.034 0.168,-0.034 0.302,0 l 0.177,0.025 a 0.351,0.351 0 0 0 0.151,-0.025 l 0.403,-0.1 c 0.286,-0.118 0.513,-0.169 0.68,-0.152 l 0.101,0.025 c 0.303,-0.067 0.69,-0.008 1.16,0.177 0.52,0.201 0.974,0.445 1.36,0.73 l 0.126,0.076 c 0.336,0.134 0.672,0.395 1.008,0.781 l 0.555,0.655 0.075,0.101 0.202,0.454 c 0.1,0.185 0.168,0.336 0.202,0.453 0.134,0.504 0.21,0.9 0.226,1.185 v 0.277 l -0.025,0.252 -0.05,0.378 -0.05,0.353 c 0,0.168 -0.026,0.361 -0.076,0.58 l -0.076,0.302 -0.05,0.277 a 3.2,3.2 0 0 1 -0.504,1.184 l -0.05,0.076 -0.253,0.227 -0.226,0.252 c -0.202,0.201 -0.37,0.353 -0.504,0.453 l -0.126,0.101 -0.101,0.101 -0.655,0.504 -0.252,0.202 -0.252,0.176 c -0.101,0.067 -0.135,0.16 -0.101,0.277 l 0.025,0.277 0.05,0.278 c 0.068,0.168 0.16,0.336 0.278,0.504 l 0.907,1.21 0.353,0.579 0.378,0.58 0.327,0.503 0.303,0.504 0.226,0.429 0.202,0.453 z m 8.492,-15.977 0.454,0.126 c 0.218,0.067 0.37,0.16 0.454,0.277 l 0.126,0.126 0.075,0.126 a 0.443,0.443 0 0 1 0.05,0.353 c -0.016,0.05 -0.05,0.117 -0.1,0.201 l -0.126,0.126 a 0.53,0.53 0 0 1 -0.177,0.278 l -0.15,0.1 -0.152,0.076 a 0.593,0.593 0 0 1 -0.227,0.076 l -0.252,0.05 -0.277,0.05 a 2.421,2.421 0 0 0 -0.176,0.05 h -0.177 a 0.839,0.839 0 0 0 -0.353,0.026 h -0.201 l -0.252,-0.025 c -0.235,-0.017 -0.395,-0.017 -0.479,0 l -0.53,0.151 a 0.31,0.31 0 0 0 -0.2,0.252 v 0.428 c 0.016,0.236 0.016,0.387 0,0.454 l -0.076,0.428 a 4.13,4.13 0 0 0 -0.101,0.756 l -0.05,0.756 v 0.076 c -0.051,0.134 -0.068,0.37 -0.051,0.706 l 0.025,0.176 v 0.151 c 0.017,0.101 0.025,0.16 0.025,0.177 l -0.05,0.15 -0.025,0.177 c 0.017,0.101 0.017,0.193 0,0.277 l -0.025,0.101 a 0.28,0.28 0 0 0 -0.026,0.126 v 0.328 l -0.025,0.302 c 0,0.101 0.067,0.151 0.202,0.151 l 0.201,-0.025 1.588,-0.227 c 0.134,-0.016 0.235,0 0.302,0.05 a 0.28,0.28 0 0 0 0.126,0.026 c 0.168,-0.017 0.353,0.042 0.555,0.176 l 0.05,0.05 0.05,0.026 c 0.236,0.067 0.387,0.269 0.454,0.605 0.034,0.151 0.017,0.269 -0.05,0.353 l -0.101,0.126 -0.076,0.126 a 0.744,0.744 0 0 1 -0.252,0.201 l -0.025,0.025 a 0.686,0.686 0 0 1 -0.353,0.252 l -0.201,0.05 -0.202,0.026 a 5.614,5.614 0 0 0 -0.806,0.126 l -0.781,0.176 c -0.118,0.017 -0.21,0.026 -0.278,0.026 -0.1,0 -0.168,0.042 -0.201,0.126 -0.017,0.067 -0.025,0.436 -0.025,1.108 l -0.026,0.429 v 0.428 c 0,0.336 -0.008,0.597 -0.025,0.781 0.034,0.135 0.042,0.362 0.025,0.68 l -0.05,0.454 -0.025,0.504 c 0,0.27 0.008,0.513 0.025,0.731 l 0.025,0.151 v 0.152 c 0.017,0.134 0.025,0.294 0.025,0.478 -0.033,0.084 -0.008,0.168 0.076,0.252 0.067,0.068 0.151,0.11 0.252,0.126 0.067,0 0.202,0.009 0.403,0.026 h 0.655 c 0.572,0.016 0.916,0.008 1.034,-0.026 0.05,-0.016 0.092,-0.016 0.126,0 0.117,0.05 0.26,0.076 0.428,0.076 h 0.504 c 0.118,0.168 0.185,0.395 0.202,0.68 l -0.126,0.227 -0.152,0.202 A 0.317,0.317 0 0 1 189,45.145 c -0.185,0.017 -0.672,0.042 -1.462,0.075 l -0.453,0.026 -0.403,0.025 a 8.426,8.426 0 0 0 -0.605,0.05 l -0.53,0.05 -0.755,0.076 c -0.185,0.017 -0.328,-0.008 -0.429,-0.075 l -0.05,-0.026 h -0.05 c -0.135,0 -0.278,-0.033 -0.429,-0.1 l -0.202,-0.076 -0.201,-0.1 -0.227,-0.102 -0.252,-0.075 c -0.168,-0.084 -0.26,-0.21 -0.277,-0.378 0,-0.118 -0.059,-0.193 -0.177,-0.227 -0.084,-0.034 -0.134,-0.11 -0.15,-0.227 l -0.076,-0.227 -0.101,-0.252 c -0.017,-0.033 -0.025,-0.16 -0.025,-0.378 a 2.426,2.426 0 0 1 0,-0.504 1.825,1.825 0 0 0 0,-0.428 l -0.05,-0.428 c -0.034,-0.202 -0.034,-0.773 0,-1.714 l 0.024,-0.554 v -0.48 c 0.017,-0.335 0.017,-0.562 0,-0.68 l -0.15,-1.713 a 17.854,17.854 0 0 1 -0.076,-1.437 c -0.017,-0.705 -0.009,-1.15 0.025,-1.335 v -0.58 a 2.999,2.999 0 0 1 0,-0.554 l 0.025,-0.05 c 0.05,-0.185 0.084,-0.429 0.1,-0.731 l 0.026,-0.378 0.025,-0.353 0.076,-0.706 0.075,-0.73 a 8.08,8.08 0 0 1 0.101,-0.656 l 0.076,-0.327 0.075,-0.303 0.05,-0.302 0.026,-0.277 a 0.647,0.647 0 0 1 0.252,-0.48 l 0.202,-0.15 a 0.554,0.554 0 0 1 0.226,-0.101 c 0.034,-0.017 0.135,-0.034 0.303,-0.05 h 0.806 l 0.202,0.025 c 0.37,0.016 0.613,0.008 0.73,-0.026 0.219,-0.05 0.496,-0.084 0.832,-0.1 h 0.429 l 0.428,-0.026 c 0.202,0 0.42,-0.025 0.655,-0.075 0.151,-0.034 0.336,-0.025 0.555,0.025 l 0.478,0.1 z" id="path3797" inkscape:connector-curvature="0" style="fill:#ffffff"/><g id="g3803"/><g transform="translate(6.93,46.41)" id="g3811"><path d="m 21.336,5.752 -0.8,5.056 h 1.632 l -0.8,-5.056 z m -1.093,6.818 -0.359,2.61 h -1.957 l 2.17,-11.777 h 2.511 l 2.17,11.776 H 22.82 l -0.358,-2.61 H 20.243 Z M 21.157,2.783 19.02,0.435 h 2.202 L 22.51,2.783 Z M 38.143,7.334 H 36.12 V 6.421 c 0,-0.995 -0.456,-1.42 -0.978,-1.42 -0.816,0 -1.077,0.425 -1.077,1.305 v 5.97 c 0,0.88 0.261,1.305 1.077,1.305 0.734,0 0.978,-0.424 0.978,-1.19 v -1.42 h 2.023 v 1.354 c 0,1.664 -0.979,3.018 -3.001,3.018 -2.12,0 -3.1,-1.354 -3.1,-3.018 V 6.257 c 0,-1.663 0.98,-3.017 3.1,-3.017 2.022,0 3,1.468 3,3.23 v 0.864 z m 5.312,7.845 H 41.433 V 3.403 h 2.022 v 4.795 h 2.153 V 3.403 h 2.023 V 15.18 H 45.608 V 9.96 h -2.153 v 5.22 z m 9.994,-9.427 -0.8,5.056 h 1.632 l -0.8,-5.056 z m -1.093,6.818 -0.359,2.61 H 50.04 L 52.21,3.403 h 2.511 l 2.17,11.776 h -1.958 l -0.359,-2.61 H 52.356 Z M 65.4,7.334 H 63.377 V 6.421 c 0,-0.995 -0.456,-1.42 -0.978,-1.42 -0.816,0 -1.077,0.425 -1.077,1.305 v 5.97 c 0,0.88 0.261,1.305 1.077,1.305 0.734,0 0.978,-0.424 0.978,-1.19 v -1.42 H 65.4 v 1.354 c 0,1.664 -0.979,3.018 -3.001,3.018 -2.12,0 -3.1,-1.354 -3.1,-3.018 V 6.257 c 0,-1.663 0.98,-3.017 3.1,-3.017 2.022,0 3,1.468 3,3.23 v 0.864 z m 3.29,4.877 V 3.403 h 2.022 v 8.89 c 0,0.864 0.343,1.288 1.077,1.288 0.734,0 1.076,-0.424 1.076,-1.289 V 3.403 h 2.023 v 8.808 c 0,2.022 -1.175,3.132 -3.1,3.132 -1.924,0 -3.098,-1.11 -3.098,-3.132 z m 11.217,2.968 H 78.08 V 3.403 h 1.876 l 2.463,6.736 h 0.032 V 3.403 h 1.827 V 15.18 H 82.516 L 79.94,7.823 h -0.032 v 7.356 z M 94.348,5.067 v 8.449 h 0.702 c 1.076,0 1.451,-0.408 1.451,-1.648 V 6.714 c 0,-1.24 -0.375,-1.647 -1.451,-1.647 z M 92.326,15.179 V 3.403 h 3.001 c 2.088,0 3.197,1.142 3.197,3.556 v 4.665 c 0,2.414 -1.11,3.555 -3.197,3.555 z m 15.034,0 h -5.644 V 3.403 h 5.415 v 1.762 h -3.392 v 3.033 h 2.61 V 9.96 h -2.61 v 3.458 h 3.62 v 1.761 z M 120.496,3.403 h 2.659 V 15.18 h -1.762 v -9.2 h -0.032 l -1.827,9.2 h -0.979 l -1.826,-9.2 h -0.033 v 9.2 h -1.762 V 3.402 h 2.659 l 1.435,6.883 h 0.033 l 1.435,-6.883 z m 8.053,11.776 h -2.023 V 3.403 h 2.023 V 15.18 Z m 9.113,0 h -5.644 V 3.403 h 5.416 v 1.762 h -3.393 v 3.033 h 2.61 V 9.96 h -2.61 v 3.458 h 3.62 v 1.761 z m 2.833,-2.968 V 3.403 h 2.023 v 8.89 c 0,0.864 0.342,1.288 1.076,1.288 0.734,0 1.077,-0.424 1.077,-1.289 V 3.403 h 2.022 v 8.808 c 0,2.022 -1.174,3.132 -3.099,3.132 -1.925,0 -3.099,-1.11 -3.099,-3.132 z m 8.64,2.968 2.316,-6.165 -2.153,-5.61 h 1.99 l 1.24,3.734 h 0.032 l 1.126,-3.735 h 1.99 l -2.04,5.611 2.284,6.165 h -1.99 l -1.37,-4.29 h -0.032 l -1.403,4.29 z" id="path3805" inkscape:connector-curvature="0" style="fill:#000000;fill-opacity:0.6"/><circle cx="3.1500001" cy="9.3800001" r="3.1500001" id="circle3807" style="opacity:0.5;fill:#ffffff;fill-rule:nonzero"/><circle cx="170.10001" cy="9.3800001" r="3.1500001" id="circle3809" style="opacity:0.5;fill:#ffffff;fill-rule:nonzero"/></g></g></svg>