<svg width="83" height="114" xmlns="http://www.w3.org/2000/svg"><g fill="none" fill-rule="evenodd"><g fill="#253186" fill-rule="nonzero"><path d="M55.62 100.146v-6.774c0-8.186 8.901-15.928 14.676-21.451 8.14-7.782 12.42-18.237 12.42-30.484 0-22.403-18.13-40.581-40.532-40.644C19.78.731 1.552 18.81 1.427 41.211v.226c0 11.81 4.462 22.973 12.419 30.484 5.744 5.422 14.677 13.18 14.677 21.45v6.775M51.103 113.297H33.04a1.585 1.585 0 010-3.17h18.064a1.585 1.585 0 010 3.17zM55.62 107.672H28.522a1.585 1.585 0 010-3.17H55.62a1.585 1.585 0 010 3.17z"/></g><path d="M36.79 51.82l-9.284-9.284a1.428 1.428 0 010-2.02l2.02-2.02a1.428 1.428 0 012.02 0L37.8 44.75l13.395-13.395a1.428 1.428 0 012.02 0l2.02 2.02a1.428 1.428 0 010 2.02L38.81 51.82a1.428 1.428 0 01-2.02 0z" fill="#FFF"/></g></svg>