<svg xmlns="http://www.w3.org/2000/svg" width="16" height="16" viewBox="0 0 16 16"><path d="M11.663 8l3.96-3.96c.251-.25.377-.556.377-.915 0-.36-.126-.665-.377-.916L13.79.377A1.247 1.247 0 0 0 12.876 0c-.36 0-.665.126-.916.377L8 4.337 4.04.377A1.247 1.247 0 0 0 3.125 0c-.36 0-.665.126-.916.377L.377 2.21A1.247 1.247 0 0 0 0 3.125c0 .359.126.664.377.915L4.337 8l-3.96 3.96a1.247 1.247 0 0 0-.377.916c0 .359.126.664.377.915l1.832 1.832c.251.251.557.377.916.377s.664-.126.915-.377L8 11.663l3.96 3.96c.251.251.556.377.916.377.359 0 .664-.126.916-.377l1.83-1.832c.252-.25.378-.556.378-.915 0-.36-.126-.665-.377-.916z"/></svg>