<svg xmlns="http://www.w3.org/2000/svg" width="1em" height="1em" viewBo="0 0 13 20"><path d="M11.096 1.953C9.826.651 8.294 0 6.5 0S3.174.651 1.904 1.953 0 4.826 0 6.667c0 .946.14 1.723.419 2.33l4.634 10.079c.127.286.324.512.59.676a1.6 1.6 0 0 0 1.714 0c.267-.164.468-.39.603-.676l4.62-10.079c.28-.607.42-1.384.42-2.33 0-1.84-.634-3.412-1.904-4.714zm-2.298 7.07c-.635.651-1.4.977-2.298.977-.897 0-1.663-.326-2.298-.977-.635-.65-.952-1.436-.952-2.356 0-.92.317-1.706.952-2.357.635-.651 1.401-.977 2.298-.977s1.663.326 2.298.977c.635.65.952 1.436.952 2.357 0 .92-.317 1.705-.952 2.356z"/></svg>