<svg xmlns="http://www.w3.org/2000/svg" width="1em" height="1em" viewBox="0 0 16 15"><path d="M8.942.478A2.749 2.749 0 0 0 7.375 0c-.66 0-1.234.247-1.721.742-.488.495-.731 1.08-.731 1.758v1.719c-.635-.313-1.25-.47-1.846-.47-.75 0-1.346.115-1.789.343a2.13 2.13 0 0 0-.976.996A3.38 3.38 0 0 0 0 6.562c0 .333.119.626.356.88.269.28.615.481 1.038.605.423.124.829.223 1.217.298.387.074.661.19.822.346.34.32.75.668 1.23 1.045.84.658 1.337 1.104 1.49 1.338v2.676c0 .345.121.64.361.884s.53.366.87.366h6.154c.34 0 .63-.122.87-.366s.361-.539.361-.884v-2.812c0-.144.128-.593.385-1.348.275-.8.485-1.506.63-2.114A7.998 7.998 0 0 0 16 5.625v-1.26c0-.918-.258-1.657-.774-2.217s-1.22-.836-2.11-.83a2.68 2.68 0 0 0-1.712-.586c-.141 0-.279.01-.414.03A2.728 2.728 0 0 0 9.606.39c-.231 0-.452.03-.664.088zm4.414 12.207c.121.124.182.27.182.44 0 .17-.06.316-.182.44a.587.587 0 0 1-.433.185.587.587 0 0 1-.433-.186.606.606 0 0 1-.182-.44c0-.168.06-.315.182-.439a.587.587 0 0 1 .433-.185c.167 0 .311.062.433.185zM8.164 1.46c.295.14.445.314.452.522.109-.098.261-.179.457-.244.195-.065.373-.098.533-.098.442 0 .824.173 1.144.518.205-.117.426-.176.664-.176a1.6 1.6 0 0 1 .706.17c.234.115.402.27.505.465.192-.033.372-.049.538-.049 1.07 0 1.606.625 1.606 1.875v1.182c0 .853-.234 1.966-.702 3.34a72.969 72.969 0 0 0-.221.63c-.026.074-.063.188-.11.341a5.553 5.553 0 0 0-.106.372 4.48 4.48 0 0 0-.063.322c-.02.12-.029.223-.029.307v.313H7.385v-.313a.85.85 0 0 0-.087-.346 1.653 1.653 0 0 0-.26-.391 10.02 10.02 0 0 0-.34-.376 5.502 5.502 0 0 0-.424-.39 19.1 19.1 0 0 0-.803-.645l-.288-.225a16.793 16.793 0 0 1-.875-.752 2.431 2.431 0 0 0-1.053-.58 17.19 17.19 0 0 0-1.206-.298c-.379-.079-.651-.202-.818-.372 0-.625.15-1.042.452-1.25C1.984 5.104 2.45 5 3.077 5c.378 0 .893.156 1.543.469.651.312 1.162.468 1.534.468V2.5c0-.326.123-.616.37-.87.247-.253.534-.38.86-.38.225 0 .485.07.78.21z"/></svg>