<svg xmlns="http://www.w3.org/2000/svg" width="30" height="30"><path d="M29.043 16.767A4.925 4.925 0 0 0 30 13.829c0-1.239-.494-2.314-1.484-3.228-.99-.914-2.161-1.37-3.516-1.37h-3.437c.625-1.19.938-2.344.938-3.462 0-1.406-.229-2.524-.684-3.353a4.15 4.15 0 0 0-1.993-1.83C18.952.195 17.97 0 16.875 0c-.664 0-1.25.222-1.758.667-.56.505-.963 1.154-1.21 1.947a23.737 23.737 0 0 0-.596 2.281c-.15.727-.381 1.24-.694 1.541a35.703 35.703 0 0 0-2.09 2.308c-1.314 1.575-2.207 2.506-2.675 2.795H2.5c-.69 0-1.28.225-1.768.675-.488.451-.732.995-.732 1.632v11.538c0 .637.244 1.181.732 1.632.489.45 1.078.676 1.768.676h5.625c.286 0 1.185.24 2.695.721 1.602.517 3.011.91 4.229 1.181A15.761 14.548 0 0 0 18.75 30h2.52c1.835 0 3.313-.484 4.433-1.451 1.12-.968 1.673-2.288 1.66-3.958a4.83 4.83 0 0 0 1.172-3.209c0-.264-.02-.523-.058-.775.494-.805.742-1.67.742-2.596a4.36 4.36 0 0 0-.176-1.244zM4.63 25.042a1.253 1.253 0 0 1-.879.343 1.253 1.253 0 0 1-.879-.343 1.07 1.07 0 0 1-.37-.812c0-.312.123-.582.37-.81a1.253 1.253 0 0 1 .879-.343c.339 0 .632.114.879.342.247.229.371.499.371.812 0 .312-.123.583-.371.811zm22.452-9.734c-.28.552-.628.835-1.045.847.195.204.358.49.488.856.13.367.195.7.195 1 0 .83-.344 1.545-1.035 2.145.235.385.352.8.352 1.245 0 .444-.114.886-.342 1.324-.228.439-.537.754-.927.946.065.36.097.697.097 1.01 0 2.007-1.25 3.01-3.75 3.01H18.75c-1.706 0-3.932-.438-6.68-1.315a23.66 23.66 0 0 0-.566-.19 152.612 152.612 0 0 0-.694-.225c-.15-.049-.378-.117-.684-.207a11.685 11.685 0 0 0-.742-.199 9.493 9.493 0 0 0-.644-.117 4.256 4.256 0 0 0-.615-.054H7.5V13.847h.625c.208 0 .44-.054.693-.163a3.33 3.33 0 0 0 .782-.486 20.153 18.602 0 0 0 .752-.64 10.61 10.61 0 0 0 .78-.794c.287-.318.512-.573.675-.766a80.714 74.502 0 0 0 .615-.739c.247-.3.397-.48.45-.54.715-.818 1.217-1.365 1.503-1.641.534-.517.921-1.175 1.162-1.974a30.577 30.577 0 0 0 .595-2.263c.157-.71.404-1.22.743-1.533 1.25 0 2.084.283 2.5.848.417.564.625 1.436.625 2.614 0 .71-.313 1.674-.938 2.893-.625 1.22-.937 2.179-.937 2.876H25c.652 0 1.23.231 1.738.694.508.463.763 1 .763 1.613 0 .421-.14.908-.42 1.462z"/></svg>