<svg xmlns="http://www.w3.org/2000/svg" width="1em" height="1em" viewBox="0 0 15 16"><path d="M14.522 7.058c.318.474.478.996.478 1.567 0 .66-.247 1.234-.742 1.721-.495.488-1.08.731-1.758.731h-1.719c.313.635.47 1.25.47 1.846 0 .75-.115 1.346-.343 1.789-.227.442-.56.767-.996.976A3.38 3.38 0 0 1 8.438 16c-.333 0-.626-.119-.88-.356a2.303 2.303 0 0 1-.605-1.038 13.323 13.323 0 0 1-.298-1.217c-.074-.387-.19-.661-.346-.822-.32-.34-.668-.75-1.045-1.23-.658-.84-1.104-1.337-1.338-1.49H1.25c-.345 0-.64-.121-.884-.361A1.176 1.176 0 0 1 0 8.616V2.461c0-.34.122-.63.366-.87a1.214 1.214 0 0 1 .884-.361h2.812c.144 0 .593-.128 1.348-.385C6.21.57 6.916.36 7.524.215A7.998 7.998 0 0 1 9.375 0h1.26c.918 0 1.657.258 2.217.774s.836 1.22.83 2.11a2.68 2.68 0 0 1 .586 1.712c0 .141-.01.279-.03.414.248.429.372.89.372 1.384 0 .231-.03.452-.088.664zM2.315 2.644a.606.606 0 0 0-.44-.182c-.17 0-.316.06-.44.182a.587.587 0 0 0-.185.433c0 .167.062.31.186.433a.606.606 0 0 0 .44.182.605.605 0 0 0 .439-.182.587.587 0 0 0 .185-.433.59.59 0 0 0-.185-.433zM13.54 7.836c-.14-.295-.314-.445-.522-.452a1.292 1.292 0 0 0 .244-.457 1.705 1.705 0 0 0 .098-.533c0-.442-.173-.824-.518-1.144a1.314 1.314 0 0 0 .176-.664 1.6 1.6 0 0 0-.17-.706 1.09 1.09 0 0 0-.465-.505 3.238 3.238 0 0 0 .049-.538c0-1.07-.625-1.606-1.875-1.606H9.375c-.853 0-1.966.234-3.34.702a72.969 72.969 0 0 1-.63.221 9.736 9.736 0 0 1-.341.11 4.48 4.48 0 0 1-.693.168c-.121.02-.224.03-.308.03H3.75v6.153h.313a.85.85 0 0 1 .346.087 1.653 1.653 0 0 1 .391.26c.134.115.259.228.376.34a5.502 5.502 0 0 1 .39.424 19.1 19.1 0 0 1 .645.803l.225.288c.358.436.609.727.752.875.267.276.46.626.58 1.053.121.426.22.828.298 1.206.079.379.202.651.372.818.625 0 1.042-.15 1.25-.452.208-.301.312-.767.312-1.394 0-.378-.156-.893-.469-1.543-.312-.651-.468-1.162-.468-1.534H12.5c.326 0 .616-.123.87-.37a1.164 1.164 0 0 0 .38-.86c0-.225-.07-.485-.21-.78z"/></svg>