<svg xmlns="http://www.w3.org/2000/svg" width="1em" height="1em" viewBox="0 0 16 15"><path d="M7.058.478C7.532.16 8.054 0 8.625 0c.66 0 1.234.247 1.721.742.488.495.731 1.08.731 1.758v1.719c.635-.313 1.25-.47 1.846-.47.75 0 1.346.115 1.789.343.442.227.767.56.976.996.208.436.312.928.312 1.474 0 .333-.119.626-.356.88-.269.28-.615.481-1.038.605-.423.124-.829.223-1.217.298-.387.074-.661.19-.822.346-.34.32-.75.668-1.23 1.045-.84.658-1.337 1.104-1.49 1.338v2.676c0 .345-.121.64-.361.884s-.53.366-.87.366H2.461c-.34 0-.63-.122-.87-.366a1.214 1.214 0 0 1-.361-.884v-2.812c0-.144-.128-.593-.385-1.348-.275-.8-.485-1.506-.63-2.114A7.998 7.998 0 0 1 0 5.625v-1.26c0-.918.258-1.657.774-2.217s1.22-.836 2.11-.83A2.68 2.68 0 0 1 4.597.732c.141 0 .279.01.414.03C5.439.514 5.9.39 6.394.39c.231 0 .452.03.664.088zM2.644 12.685a.606.606 0 0 0-.183.44c0 .17.062.316.183.44a.587.587 0 0 0 .433.185c.167 0 .31-.062.433-.186a.606.606 0 0 0 .182-.44c0-.168-.06-.315-.182-.439a.587.587 0 0 0-.433-.185.587.587 0 0 0-.433.185zM7.836 1.46c-.295.14-.445.314-.452.522a1.292 1.292 0 0 0-.457-.244 1.705 1.705 0 0 0-.533-.098c-.442 0-.824.173-1.144.518a1.314 1.314 0 0 0-.664-.176 1.6 1.6 0 0 0-.706.17 1.078 1.078 0 0 0-.505.465 3.238 3.238 0 0 0-.538-.049c-1.07 0-1.606.625-1.606 1.875v1.182c0 .853.234 1.966.702 3.34a72.969 72.969 0 0 1 .221.63c.026.074.063.188.11.341a4.48 4.48 0 0 1 .168.693c.02.121.03.224.03.308v.313h6.153v-.313a.85.85 0 0 1 .087-.346c.057-.127.144-.258.26-.391.115-.134.228-.259.34-.376.113-.117.254-.247.424-.39a19.1 19.1 0 0 1 .803-.645l.288-.225c.436-.358.727-.609.875-.752.276-.267.626-.46 1.053-.58.426-.121.828-.22 1.206-.298.379-.079.651-.202.818-.372 0-.625-.15-1.042-.452-1.25C14.016 5.104 13.55 5 12.923 5c-.378 0-.893.156-1.543.469-.651.312-1.162.468-1.534.468V2.5c0-.326-.123-.616-.37-.87a1.164 1.164 0 0 0-.86-.38c-.225 0-.485.07-.78.21z"/></svg>