<svg width="255" height="90" xmlns="http://www.w3.org/2000/svg"><g fill="none" fill-rule="evenodd"><path d="M56.5 38.161c1.948-17.407-6.004-25.07-23.857-22.99 3.76 16.715 11.327 24.58 21.662 24.892-1.868-5.132-7.769-14.094-12.934-18.406 6.518.81 11.561 6.312 15.13 16.504zM33.808 38.16c-3.572-10.695-10.301-12.985-20.19-6.871 6.725 8.724 13.284 11.237 19.419 8.582-2.482-2.482-8.363-6.093-12.553-7.192 4.035-1.316 8.476.51 13.324 5.48zM223.274 41.954c2.517-13.973 10.23-18.52 23.14-13.644-6.637 12.393-14.109 17.167-21.928 15.53 2.572-3.674 9.045-9.61 13.903-12.044-5.073-.552-10.111 2.834-15.115 10.158z" fill="#A4D693"/><path d="M96.908 55.76c-.008-.091-.054-.144-.102-.119-.048.026-.159-.05-.246-.17-.092-.125-.224-.21-.315-.202-.123.011-.135-.007-.055-.086.077-.077.072-.104-.023-.117-.097-.014-.095-.046.007-.148.1-.099.102-.134.01-.147-.065-.01-.12-.045-.124-.08-.003-.034.038-.048.09-.031.055.018.069-.01.032-.064-.036-.052-.017-.1.042-.105.078-.006.077-.042-.004-.13-.09-.096-.083-.122.036-.132.119-.01.123-.028.022-.09-.129-.078-.357.022-.316.14.01.03-.029.072-.088.092-.07.025-.092-.013-.065-.11.023-.08.005-.128-.04-.105a.582.582 0 01-.273.01c-.152-.024-.11-.048.202-.113.245-.05.39-.115.385-.172-.004-.05.074-.098.174-.107a.51.51 0 00.299-.153c.115-.135.577-.347.733-.336.045.003.315-.056.601-.132.287-.076.782-.182 1.102-.235.32-.053.602-.125.628-.16.026-.034.139-.07.252-.082.112-.01.45-.127.749-.259.3-.131.616-.246.703-.254.087-.009.181-.047.21-.085.029-.039.005-.066-.054-.06-.13.01-.108-.282.022-.3a6.59 6.59 0 00.497-.129c.221-.064.507-.108.634-.097.128.01.363-.02.524-.07.16-.049.523-.141.807-.205.778-.175 1.191-.3 1.186-.36-.005-.063-4.8.4-5.982.577-.622.093-.862.104-1.127.049a10.533 10.533 0 00-.383-.075 9.296 9.296 0 01-.328-.059c-.154-.03-.345-.03-.424-.001-.08.029-1.322.166-2.761.305-1.44.138-2.804.297-3.033.353-.228.055-.917.179-1.53.274-.612.095-1.192.21-1.287.254-.095.045-.38.086-.633.092-.252.005-.48.037-.505.07-.025.034-.086.048-.135.031-.05-.016-.088.002-.085.04.003.037-.026.064-.065.06-.158-.014-.951.174-.947.225.006.063-.692.23-.96.23a.618.618 0 00-.345.144.754.754 0 01-.324.167c-.088.012-.411.05-.72.085a6.862 6.862 0 00-.927.17 9.516 9.516 0 01-.718.175c-.193.037-.325.09-.294.119.095.09-.11.133-1.728.366-.086.013-.146.05-.134.083.012.032-.06.084-.162.113-.1.03-.285.114-.41.186-.163.095-.513.168-1.25.263-.562.072-1.12.137-1.24.143-.118.007-.341.07-.494.14-.158.072-.306.104-.342.073-.087-.075-.424-.125-.344-.051.083.078-.008.082-.266.01-.519-.144-2.886.207-3.114.462-.07.079-.075.128-.011.137.054.008.1.04.103.07.003.032-.055.048-.129.035-.073-.013-.159.01-.19.05-.081.11.478.046.771-.087.135-.061.433-.149.662-.195.23-.047.49-.1.579-.12.089-.02.165.003.169.05.005.059.123.067.403.027.306-.043.36-.037.236.025-.088.044-.137.102-.109.129.061.057-.456.165-1.464.305-.566.08-.753.084-.822.021-.065-.06-.087-.06-.083 0 .008.118-.556.148-.768.04-.1-.05-.178-.064-.176-.03.004.036-.3.07-.77.083-.426.013-1.092.035-1.48.05-.388.014-.846.004-1.019-.023a1.804 1.804 0 00-.543.003c-.127.028-.26.024-.295-.01-.04-.037-.016-.044.062-.018.079.025.102.018.06-.02-.076-.073-.529-.105-1.058-.076-.313.017-.38-.002-.398-.117-.02-.123.043-.149.592-.241a9.03 9.03 0 01.849-.11l.235-.007-.256-.07c-.445-.124-.87-.156-1.694-.125-.439.016-1.076.006-1.415-.023-.781-.066-3.45.157-3.556.297-.036.048-.117.071-.18.05-.162-.052-1.885.076-1.82.136.06.056.045.059-1.176.191-.862.094-1.225.148-2.508.373-.585.103-.933.104-1.281.003-.146-.042-.118-.075.209-.253.263-.143.592-.243 1.094-.331.856-.15 1.671-.317 2.256-.462.35-.086.418-.126.372-.221-.033-.068-.109-.097-.184-.07-.07.026-.13.014-.134-.025-.004-.04.067-.078.157-.087.14-.013.142-.022.018-.065-.092-.032-.104-.054-.032-.061.063-.006.086-.053.051-.104-.043-.064.045-.135.29-.234l.35-.142-.917.04c-.505.023-1.169.067-1.476.097-.307.03-.56.052-.56.048 0-.005.078-.083.174-.173.096-.091.176-.146.178-.122.002.024.095-.007.206-.07.111-.062.511-.174.89-.248.377-.074.85-.19 1.049-.258.2-.067.515-.136.701-.154.52-.05 1.812-.4 1.431-.388a3.807 3.807 0 01-.276-.01 53.342 53.342 0 00-.305-.021c-.217-.014-.236-.075-.042-.136.106-.033.297-.14.424-.238.127-.097.325-.185.44-.196a.585.585 0 00.307-.116c.081-.08.002-.097-.444-.093-.3.003-.671.002-.827-.002-.37-.008-1.831.125-1.928.177-.13.07-1.197.19-1.202.136-.003-.029.055-.094.129-.144.073-.051.13-.123.127-.16-.003-.037-.032-.046-.064-.02s-.117.02-.19-.013c-.072-.034-.129-.033-.126 0 .003.035-.058.068-.135.075-.224.02-.169-.055.132-.176.338-.136.284-.177-.283-.212-.517-.032-.625-.143-.268-.277.37-.138 2.137-.43 3.155-.522.477-.042.977-.106 1.111-.142l.244-.064-.28-.127c-.153-.07-.35-.122-.437-.116-.222.016-.299-.08-.193-.244.111-.173.9-.535 1.227-.563.137-.012.215-.047.179-.08-.035-.034-.141-.054-.235-.045-.159.014-.35-.132-.324-.248.025-.118-1.448.14-1.562.274-.086.102-2.453.555-2.693.516l-.23-.037.211-.1c.116-.054.883-.236 1.705-.404 1.504-.308 1.863-.463.868-.376-.306.026-.59.014-.687-.03-.136-.062-.316-.049-1.069.081-1.383.24-2.186.391-2.372.448-.124.038-.163.022-.147-.059.024-.117.302-.276.746-.428.382-.13.132-.193-.362-.092-.214.044-.577.118-.807.163l-.417.082.33-.262c.183-.145.33-.273.33-.286-.002-.012-.266-.02-.587-.017-.76.007-1.176-.104-1.189-.316-.007-.112.585-.314 1.146-.392.23-.032.752-.134 1.159-.226a18.757 18.757 0 011.391-.254c.36-.048.903-.14 1.208-.204 1.896-.4 2.323-.494 2.403-.534.049-.024-.103-.06-.337-.078-.236-.019-.43-.072-.433-.119-.01-.108.912-.426 1.759-.607.411-.087.713-.19.807-.276.084-.077.39-.19.696-.26.694-.157.667-.246-.113-.373-.168-.028-.289-.085-.27-.128.045-.098.467-.279.698-.299.096-.008.145-.042.11-.075-.034-.032-.376-.032-.759.002-.63.055-.89.011-.592-.1.266-.1-1.096.06-1.763.208-.83.182-1.29.177-1.307-.017-.008-.09.226-.228.88-.52.615-.276.85-.413.762-.444-.168-.057-.015-.145.6-.343.868-.279 1.54-.678 1.433-.85-.074-.118.265-.215 1.679-.481.702-.133 1.403-.297 1.557-.366.154-.068.485-.16.735-.202.69-.119 2-.467 2.199-.585.097-.058.304-.118.46-.134.155-.016.364-.062.465-.101.145-.058.105-.068-.193-.049-.8.05-1.227.032-1.341-.054-.078-.059-.192-.069-.333-.03-.184.052-.191.049-.054-.025a.769.769 0 01.323-.082.675.675 0 00.284-.06c.072-.04.219-.04.36-.001.185.05.275.044.408-.027.108-.058.193-.07.232-.034.035.032.302.039.595.014.293-.024.642-.012.775.028.29.086.384.086.377 0-.004-.036-.072-.06-.152-.052-.08.007-.125-.015-.1-.05.026-.033-.043-.07-.152-.08-.11-.01-.184-.057-.166-.106.034-.09.448-.177 1.738-.365 1.165-.17 1.487-.235 1.482-.298-.003-.034-.069-.055-.146-.049-.078.007-.145-.045-.151-.116-.009-.095.05-.135.222-.15.27-.023.306-.126.054-.15-.093-.008-.567.035-1.052.097-1.413.179-1.981.21-2.288.126-.155-.043-.309-.065-.34-.048-.032.017-.048-.052-.035-.154.027-.222-.107-.244-1.07-.179-.575.04-.62.034-.427-.055.318-.146 1.509-.42 2.225-.512.366-.047.709-.13.828-.201.255-.152.415-.168.605-.06.086.05.315.07.54.05.693-.064 3.264-.471 3.609-.573.322-.095.331-.106.243-.312-.055-.129-.055-.242 0-.288.063-.052.056-.1-.022-.154-.24-.166.04-.23 1.409-.318 1.062-.068 1.392-.11 1.6-.205.221-.1 1.238-.3 1.937-.381.103-.012.395-.066.65-.12l.462-.099-.425-.01c-.234-.005-.929.049-1.545.121-.615.072-1.498.16-1.962.196-.463.036-1.365.159-2.003.273-1.262.225-2.567.42-3.132.467-.197.017-.383.058-.413.091-.03.034-.184.077-.345.096-.16.018-.289.057-.286.087.002.03-.092.043-.21.03-.167-.017-.182-.01-.067.034.126.048.123.057-.018.07-.09.01-.16.048-.157.088.004.044-.086.04-.234-.012-.266-.093-.38-.102-.294-.022.03.03-.026.075-.127.103-.105.028-.186.018-.19-.025-.003-.043-.154-.062-.357-.044-.223.02-.34.058-.322.106.02.052-.08.076-.32.076-.392 0-.789-.117-.802-.236-.005-.05-.037-.041-.09.026-.064.081-.086.064-.1-.077-.022-.232.115-.444.297-.46.079-.007.114-.04.08-.072-.035-.033.012-.068.105-.08.307-.035.5-.091.7-.204.18-.1.621-.107.63-.008.002.017-.055.022-.125.01-.071-.012-.184.033-.25.101-.106.107-.105.114.005.057.099-.051.115-.038.073.057-.033.074-.006.141.069.166.186.063.335.035.165-.03-.11-.043-.056-.057.216-.054.2.001.436-.037.527-.086.125-.067.2-.072.309-.022.116.054.155.043.206-.054.034-.067.054-.142.043-.168-.01-.026.04-.053.114-.059.073-.006.145-.046.162-.088.016-.043.151-.097.301-.121.15-.025.316-.093.369-.152.053-.06.132-.09.176-.067.044.022.049-.008.011-.067-.084-.133.093-.161.183-.03.056.084.083.08.23-.03.157-.118.166-.118.178-.002.01.103.025.106.094.018.123-.156.1-.186-.153-.207-.162-.014-.23-.061-.229-.157.003-.152.32-.293.696-.31.351-.017.653-.127.644-.235-.007-.07.085-.098.344-.108.378-.014 1.006-.142 1.227-.25.11-.054.1-.064-.052-.055-.104.006-.4.016-.658.022-.8.018-1.858.112-2.235.199-.259.06-.343.06-.301.004.036-.048.01-.06-.07-.032-.075.027-.204-.021-.312-.116-.132-.117-.152-.173-.073-.199.074-.024.052-.06-.066-.112-.161-.07-.152-.076.107-.067.155.005.229-.004.163-.019-.244-.056-.12-.147.243-.179.237-.02.378-.003.383.048.006.06.028.056.081-.014.046-.06.097-.072.138-.034.069.064.187.049.472-.063a2.3 2.3 0 01.485-.101c.387-.04.499-.21.115-.177-.151.013-.294-.017-.33-.069-.042-.062-.004-.097.117-.107.1-.009.21-.055.248-.103.097-.125.466-.295.568-.262a.134.134 0 00.14-.043c.028-.039.168-.08.31-.093.142-.012.483-.09.757-.172.434-.13.471-.154.287-.184-.117-.02-.9.028-1.74.107-.84.078-1.584.123-1.654.1-.072-.023-.151-.008-.184.036-.068.09-2.97.409-3.05.334-.027-.026-.114-.024-.192.004-.096.035-.107.062-.033.087.06.02-.019.046-.175.06-.157.014-.287-.003-.29-.037-.003-.034-.066-.02-.14.033-.075.051-.168.076-.207.054-.038-.022.03-.104.152-.183l.221-.142-.23.051c-.203.046-.21.042-.05-.026.262-.112.706-.141.975-.065.261.075.576.015.565-.107-.005-.056.178-.098.6-.136.382-.035.61-.03.615.015.003.039.054.019.114-.045.077-.084.327-.147.899-.227a17.073 17.073 0 001.374-.254c.32-.078.716-.157.88-.175a5.94 5.94 0 00.758-.16c.43-.122.381-.12-.8.016-.693.08-1.323.152-1.4.159-.077.007-1.04.16-2.138.34-1.1.18-2.298.363-2.665.406-.367.043-.646.098-.62.122.026.025-.134.061-.356.08-.222.02-.778.111-1.237.203-.786.158-2.646.412-2.398.328.064-.021.09-.063.057-.093-.032-.03.06-.066.205-.08.144-.015.405-.095.579-.178.174-.083.398-.185.498-.227.33-.139 5.791-1.25 7.085-1.442.384-.057 1.493-.231 2.464-.387a255.25 255.25 0 012.85-.441c.597-.087 1.284-.218 1.527-.29.319-.097.461-.115.512-.067.065.06 1.048-.044 2.231-.237.179-.029.745-.108 1.257-.175.92-.12 2.315-.377 3.091-.57.22-.053.44-.084.49-.068.05.016.697-.088 1.439-.231 1.097-.213 1.39-.25 1.569-.201.18.049.404.019 1.23-.168l4.058-.915c.406-.091.997-.23 1.312-.308.315-.079.71-.155.88-.17.17-.014.494-.084.721-.156.383-.12 1.174-.285 3.286-.687a62.59 62.59 0 002.408-.495c.508-.112 1.341-.288 1.85-.392l1.205-.245c1.08-.22 1.289-.236 1.518-.116.124.065.228.151.232.191.003.04.038.067.076.06.038-.008.166-.019.284-.025.179-.01.2.01.131.118-.102.157-.003.229.16.116.183-.128.148-.025-.059.17-.108.103-.335.206-.547.25-.311.064-.345.088-.238.162.162.112.036.131 5.986-.893a41.43 41.43 0 011.629-.236c.487-.06 1.367-.182 1.955-.271.589-.09 1.364-.2 1.723-.245a9.544 9.544 0 001.016-.182c.2-.054 1.005-.157 1.788-.228.783-.07 1.478-.146 1.545-.168.165-.053 2.35-.324 2.872-.356.232-.014.489.01.572.051.185.095.635.067 2.719-.17.957-.11 1.834-.243 2.118-.324.371-.106.996-.18 2.659-.318 1.195-.099 3.181-.29 4.414-.425 2.497-.273 2.363-.262 4.96-.41a60.816 60.816 0 004.116-.352c.256-.03.391-.061.3-.07-.091-.008-.169-.045-.172-.082-.004-.045.258-.078.769-.098.426-.016 1.704-.081 2.839-.144 1.135-.063 2.592-.131 3.238-.151 2.597-.08 3.587-.115 4.934-.173 3.368-.146 5.143-.242 6.989-.378.85-.063 1.904-.125 2.344-.14.44-.014 1.093-.054 1.453-.088.36-.035 1.078-.072 1.595-.082.518-.01 2.188-.114 3.711-.232 1.523-.117 2.958-.202 3.188-.187.23.015.751.014 1.157-.003.406-.016.872-.026 1.035-.021.558.014 1.426-.02 2.69-.103 1.115-.074 2.2-.112 3.807-.133.258-.003.618-.011.8-.017a282.962 282.962 0 002.491-.077c.413-.014.773-.018.8-.01.026.009.29.013.584.008.294-.004.598.004.675.017.077.013.514 0 .97-.029 1.252-.08 1.25-.08 1.26.024a.099.099 0 00.107.088c.055-.005.066-.04.025-.078-.05-.048-.02-.06.093-.04.092.015.26.02.374.01.139-.012.214.024.231.11.03.152-.02.164-.219.051-.207-.117-.425-.088-.347.047.038.067.03.083-.023.043-.058-.044-.322-.03-.83.044-.873.127-1.537.171-2.764.183-.492.005-1.128.013-1.412.02a7.83 7.83 0 01-.63-.006.16.16 0 00-.157.088c-.033.076-.121.098-.337.084-.34-.021-.557-.022-1.454-.003a7.446 7.446 0 01-.717-.005c-.068-.022-1.32.083-3.032.254-1.086.109-1.856.139-2.436.096-.327-.025-2.585.15-2.58.2.002.025.29.041.639.037.35-.005.72-.005.825 0 .73.035 2.673-.024 4.23-.129.36-.024.702-.028.759-.009.094.032 2.971-.064 3.123-.105.036-.01.383-.024.77-.033.6-.014 2.13-.07 2.514-.092.139-.008.162.073.04.138-.087.047-.792.118-1.432.144-.196.008-.394-.02-.44-.063-.062-.059-.223-.055-.631.013-.302.05-.575.106-.609.123-.033.018-.128-.007-.21-.054-.083-.047-.171-.058-.196-.026-.047.064-1.937.204-2.49.185a9.984 9.984 0 00-.71.008 2.393 2.393 0 01-.593-.038c-.17-.047-.212-.041-.206.028.005.05-.117.104-.295.13-.736.105-1.771.192-2.596.217-.594.018-.845.044-.75.078.383.138-.301.282-1.386.292-.961.01-1.133.02-1.542.1-.21.04-.51.062-.664.047-.407-.039-2.501.012-3.43.084a27.93 27.93 0 01-1.407.07c-.336.005-1.013.03-1.503.054-.49.025-1.653.068-2.584.097a151.6 151.6 0 00-3.073.13c-1.238.07-1.386.089-1.431.19-.043.096-.204.125-1.093.2-.573.05-1.23.13-1.458.178l-.416.09.707.01c.39.006.855-.003 1.035-.02.18-.017.92-.037 1.646-.045.725-.008 2.1-.05 3.055-.094a51.845 51.845 0 011.948-.067c.116.007 1.066-.034 2.113-.09 1.88-.102 3.198-.167 4.202-.205.284-.011 1.258-.056 2.165-.099.907-.043 1.71-.07 1.786-.061.075.01.223.031.328.05.105.017.354.025.553.018.198-.008.414.028.478.08.093.073.34.076 1.194.014.593-.042 1.12-.063 1.174-.046.054.018.414.021.802.008 1.853-.061 3.704-.142 4.554-.198.516-.033 1.615-.07 2.444-.08a61.46 61.46 0 002.35-.07c3.212-.199 5.78-.32 7.134-.337.466-.006 1.282-.03 1.813-.053.53-.024.99-.02 1.02.008.03.028-.085.065-.255.083-.17.018-.428.049-.572.069-.145.02-.283.017-.308-.006-.024-.023-.197.002-.384.054-.19.054-.613.101-.956.107-.34.007-2.133.133-3.986.28a347.61 347.61 0 01-4.917.364c-1.517.091-1.943.154-.944.138.277-.004.525.004.551.02.071.04-.261.183-.543.234-.327.06-.425.15-.141.133.124-.008.776-.035 1.447-.06.672-.026 1.991-.097 2.932-.158 1.547-.101 1.712-.1 1.72.001.013.142.392.143 2.667.004.917-.055 1.692-.078 1.722-.05.029.027.238.033.463.014.768-.068.569.13-.363.357a5.306 5.306 0 01-.79.132c-1.142.056-.832.157.455.148a61.506 61.506 0 001.6-.033 54.013 54.013 0 011.457-.032c.44-.002 1.329-.032 1.974-.065.795-.04 1.206-.035 1.274.017.056.042.395.07.76.06.362-.008.703.017.758.056.055.039.41.063.788.054.377-.009.785.018.905.06.137.049.545.059 1.104.028 1.206-.067 2.154-.076 2.211-.023.06.057-.751.216-.882.173-.053-.017-.095-.004-.092.03.003.033.155.067.337.074.36.015.433.09.18.181-.298.109.141.2 1.113.233.816.028 1.337.104.966.142-.35.036.2.102.766.093.335-.006.661.013.724.042.063.029.383.059.712.066.913.022.91.103-.008.234-.343.049-.653.132-.743.198-.126.094-.287.118-.884.132-1.213.028-1.45.064-1.617.245-.081.089-.128.18-.104.203.025.023.33.037.68.031.348-.005.678.01.731.033.054.023.3.045.547.049.676.01.547.113-.228.18-.377.034-.716.085-.752.115-.037.03-.428.087-.868.125-.557.049-.811.096-.834.154-.023.058.08.075.325.053.197-.017.509-.017.691 0 .183.017.69.018 1.128.002.438-.016.846-.006.906.023.061.028.134.032.162.008.029-.023.152-.026.274-.007.171.026.074.056-.43.132-.592.09-1.265.244-1.616.37-.223.08.138.115 1.212.118.531.001.968.02.97.04.001.021.275.003.608-.041.487-.064.608-.062.614.014.01.117-.269.334-.448.348-.11.01-.11-.002.002-.064.115-.063.11-.073-.032-.061-.092.007-.188.06-.214.119-.04.089-.208.114-1.137.166-1.164.065-1.445.133-1.216.292.384.266 1.873.457 2.877.37.607-.054.93-.003.943.147.007.075-.141.107-.717.156a8.215 8.215 0 01-1.105.027c-.209-.02-1.182.021-2.163.091-1.734.123-1.783.13-1.786.257-.003.126.12.205.322.21.052.001.46.017.907.036a46.94 46.94 0 004.075.007c1.222-.053 1.643-.015 1.53.136-.026.034-.089.049-.14.032-.05-.016-.078.008-.06.053.019.046-.04.086-.13.089-.09.003-.141.026-.114.051.027.026-.092.078-.264.115-.374.082-.453.206-.243.38.112.092.128.152.06.219-.112.11-.027.172.208.152.095-.009.173-.003.174.012a.588.588 0 00.075.133c.066.097.003.108-.766.136-.46.017-.997.027-1.192.023-.282-.007-.352.012-.345.093.005.055-.057.132-.137.171-.207.102-.046.462.23.513.196.037.197.04.02.064-.187.025-.187.025.005.064.187.038-.066.083-1.02.183-.4.042-.694.155-.685.263.005.057-.089.1-.249.115-.141.013-.351.05-.466.082-.196.054-.199.062-.036.13.095.04.289.063.43.052.14-.012.542.057.893.15.353.096.773.16.942.146.567-.05 1.459-.045 1.42.007-.022.029.031.042.119.03.087-.013.177.026.201.085.055.138-.476.431-.764.421-.115-.003-.222.026-.237.067-.036.095-1.126.216-1.57.174-.188-.017-1.148.031-2.134.108-1.667.129-2.155.205-1.525.237.143.007.452.026.687.041.235.016.606.015.825-.003.218-.017.4-.003.403.033.003.035.072.058.152.051.08-.007.236.012.345.042.196.053.196.055-.017.15-.372.165-.242.279.415.364.337.043.636.12.665.169.029.05.09.103.138.12.149.052-.005.266-.17.237-.084-.014-.126-.01-.092.009.033.019-.039.117-.16.217-.161.133-.333.196-.622.23-.22.024-.38.062-.358.084.023.021-.362.06-.856.085-.718.038-.928.07-1.047.159-.164.123-1.079.248-1.565.214-.185-.014-.318.007-.354.055-.032.042-.157.085-.278.096-.282.024-.511.107-.505.18.003.033.066.053.14.047a.314.314 0 01.224.078c.055.057.428.107.983.133 1.093.05 1.908.202 1.845.344-.025.054-.106.088-.18.075-.076-.013-.111 0-.08.03.032.03-.045.154-.17.276-.167.164-.278.216-.42.198-.105-.014-.165 0-.133.03s-.088.07-.267.088c-.179.02-.616.11-.972.203l-.646.169.222.135c.122.074.261.131.309.127.047-.004.235.027.416.07.317.073.325.083.202.239-.082.102-.093.173-.032.193.054.018.073.065.043.104-.035.047-.085.044-.143-.008-.058-.052-.112-.055-.154-.008-.036.04-.187.125-.337.19l-.272.117.298-.004c.322-.004.508.147.281.228-.077.028-.164.037-.194.02-.03-.018-.19.035-.356.116a3.469 3.469 0 01-.652.225c-.193.042-.405.121-.47.175-.154.127-.219.13-1.101.053-.792-.069-1.011-.037-1.313.193-.171.13-.243.141-.738.122-.648-.026-1.857.07-1.781.14.029.027.363.059.742.07.966.029 1.076.043.925.124-.262.14.98.307 2.18.293.323-.004.61.014.638.04.027.026-.032.132-.132.236-.167.174-.168.196-.02.29.088.056.162.118.164.137.007.08-1.587.104-2.118.032-.764-.103-2.29-.094-2.422.015-.07.057-.067.101.011.155.105.073.258.095 1.526.216.395.038.596.09.602.154.007.081-.102.1-.69.114-.446.011-.716.043-.751.09-.03.04-.002.067.06.061.064-.005.095.007.07.028-.06.049-1.4-.027-1.539-.087-.108-.047-1.487-.072-1.777-.033-.09.013-.16.059-.156.103a.417.417 0 01-.033.172c-.04.087 1.118.154 3.104.18.298.004.698.038.89.075.19.037.479.057.64.043.423-.037 1.043.038.95.114-.042.035-.609.12-1.259.186-.65.067-1.174.126-1.165.132.01.005.23.047.49.094.453.081.465.089.269.181-.154.072-.323.09-.677.068-.577-.034-.652-.029-.645.047.003.033.133.068.288.077.518.033.415.127-.198.18-.357.032-.715.104-.885.18-.172.076-.37.116-.496.1-.272-.036-4.666.326-4.61.38.12.111-1.108.218-2.165.188-2.142-.062-3.959-.044-5.123.05-.644.05-1.616.092-2.16.09a80.597 80.597 0 00-2.152.032c-.64.02-1.19.026-1.224.015-.034-.01-.38-.01-.767 0-.388.012-.854.022-1.035.022-.378.002-2.09.086-3.332.163-.899.057-2.266.116-3.193.14-.31.008-1.512.085-2.671.171-1.159.086-2.53.17-3.047.186-.517.016-1.942.12-3.166.23-1.852.167-2.24.219-2.306.304-.069.087-.095.09-.173.02-.061-.055-.183-.062-.365-.02-.15.034-.322.035-.381 0-.06-.033-.248-.055-.419-.048-.17.008-.396.004-.5-.008-.571-.065-1.158-.048-1.387.042-.184.072-.661.048-.603-.03.022-.03-.431-.02-1.007.021-1.55.11-1.712.112-1.896.027-.15-.069-.164-.064-.126.045.03.084-.003.12-.1.113a2.833 2.833 0 00-.352.006c-.116.01-.213-.005-.215-.032-.003-.028-.074-.062-.159-.077-.112-.019-.136 0-.089.07.045.066.028.083-.055.055-.067-.022-.521-.015-1.011.017-1.03.066-.877.053-5.707.488-2.032.182-3.956.334-4.277.336-.32.002-.651.029-.736.06-.155.055-3.204.406-4.144.476-.735.054-1.541.425-1.069.49.07.01.027.06-.107.123a1.12 1.12 0 00-.273.164c-.094.117-.883.247-1.116.184-.147-.04-.525-.026-1.116.041-.491.056-2.108.224-3.592.373-1.484.148-2.799.297-2.922.33-.123.032-.652.1-1.175.152-.524.051-1.034.133-1.133.182-.178.087-1.035.28-1.183.266-.182-.017-.513.02-.812.092-.178.042-.408.08-.511.083l-.377.01c-.103.003-.585.074-1.07.159-.485.084-1.064.169-1.286.187-.223.019-.452.066-.51.105-.057.039-.24.103-.404.142-.246.058-.302.052-.31-.038-.008-.096-.086-.097-.684-.004-.37.058-1.347.17-2.17.25-.822.081-1.718.2-1.992.266-.273.066-.517.122-.542.124-.025.002.01.043.079.09.069.048.267.075.44.06.175-.016.318-.016.32-.001 0 .015.031.07.067.124.09.133-.174.15-.394.024-.125-.07-.182-.075-.205-.014a.097.097 0 01-.12.055c-.049-.016-.087-.006-.084.023.002.029-.09.064-.206.079-.115.014-.754.107-1.419.205a82.65 82.65 0 01-2.985.36c-.976.1-1.879.207-2.005.238-.43.104-2.813.466-4.093.623-2.372.289-4.156.681-4.503.99a.94.94 0 01-.455.201c-1.208.133-2.881.367-3.613.505-.306.058-.843.148-1.195.2-.35.054-.847.143-1.103.2-.255.056-.48.103-.498.105-.019.001-.04-.072-.048-.162zm.061-.586c-.007-.084-.063-.085-.25-.006-.143.061-.206.147-.157.212.064.085.122.086.25.007.092-.057.163-.153.157-.213zm15.568-2.299c.354-.168.345-.17-.428-.054-1.772.264-2.325.368-2.319.435.011.127 2.367-.2 2.747-.38zm-43.362 3.028c-.003-.038-.104-.06-.223-.05-.12.011-.21.095-.203.187.008.092.109.114.223.049.115-.065.206-.15.203-.186zm6.612-.766c.025-.09-.058-.152-.19-.14-.129.01-.254.093-.278.181-.025.091.058.153.19.141.128-.011.253-.093.278-.182zm-4.475.026c-.012-.137-.125-.14-.323-.009-.224.15-.147.304.105.211.125-.046.223-.137.218-.202zm52.927-4.65c.311-.114.352-.151.192-.174-.255-.036-3.22.346-4.803.619-.43.074 2.924-.13 3.61-.22a5.76 5.76 0 001-.225zm3.224-.494c.1-.05-.093-.062-.426-.026-.797.087-1.1.262-.584.336.21.03.483-.007.606-.082s.305-.177.404-.228zm-59.688 5.307c.192-.025.19-.031-.036-.131-.267-.119-.48-.03-.46.193.006.08.076.105.153.055a.984.984 0 01.343-.117zm61.092-5.447c.02-.048-.15-.085-.38-.08-.23.004-.44.096-.466.205-.034.14.08.164.38.08.235-.064.445-.157.466-.205zm73.082-7.135c.027-.11-.128-.154-.405-.117-.398.053-.415.071-.156.166.426.157.514.149.561-.049zM57.853 54.372c-.131-.04-.282-.02-.335.043-.053.062.054.094.238.07.204-.026.242-.07.097-.113zm.935-.145c.178-.127.185-.156.034-.147a.695.695 0 00-.361.176c-.222.21.024.188.327-.029zm1.25-.16c.08-.031.14-.113.134-.182-.01-.108-.07-.116-.406-.054-.426.078-.696.222-.36.192.11-.01.229.012.264.048.073.075.165.074.369-.005zm152.036-14.355c-.008-.09-.132-.153-.275-.139-.222.022-.226.046-.023.165.298.176.315.175.298-.026zM62.197 50.158c-.13-.039-.282-.02-.335.043-.053.063.054.094.238.07.204-.026.242-.07.097-.113zm-.95-.137c-.013-.16-.275-.154-.605.011-.36.18-.262.277.2.198.28-.048.414-.117.406-.209zm1.748-.05c-.112-.207-.453-.233-.435-.033.01.113.113.18.257.167.132-.011.212-.072.178-.134zm-.716-.016c.094-.125.036-.16-.225-.14-.193.016-.344.1-.337.19.018.204.395.172.562-.05zm155.52-21.211c-.008-.086-.112-.148-.231-.137-.12.01-.211.089-.204.175.008.086.112.148.231.137.12-.01.211-.09.204-.175zm.456-1.263a.451.451 0 00-.352.031c-.092.057-.01.089.184.072.193-.017.27-.063.168-.103zm-1.603-.64a.737.737 0 00-.42.037c-.113.052-.015.077.216.057.232-.02.324-.063.204-.094zm-4.379-.223c-.002-.028-.354-.055-.783-.06a16.798 16.798 0 01-1.007-.036c-.142-.015-.205-.002-.166.034.034.033.436.065.893.07.456.006.872.017.925.024l.119.015c.013.002.022-.02.02-.047zM75.8 38.056c.156-.146.148-.162-.078-.153-.14.005-.272.089-.296.186-.051.21.132.194.374-.033zm135.738-12.302c-.003-.039-.432-.076-.953-.082-1.173-.013-1.382.003-1.254.096.054.04.563.064 1.13.054.57-.01 1.045-.013 1.059-.008.013.006.021-.022.018-.06zM70.647 37.347c.042-.084-.037-.142-.177-.13-.14.013-.25.087-.243.167.007.079.087.137.178.129.09-.008.2-.083.242-.166zm12.472-1.234c-.131-.039-.282-.02-.335.043-.054.062.054.094.238.07.204-.026.242-.07.097-.113zm-14.525 1.208c-.008-.09-.132-.153-.275-.139-.222.022-.226.046-.023.165.299.176.315.175.298-.026zm.448-.183c-.004-.042-.105-.068-.224-.057-.12.01-.21.1-.202.201.009.1.11.126.224.057.115-.069.205-.16.202-.201zm5.04-.95c.126-.036.522-.115.88-.176.357-.061.794-.155.971-.208.177-.053.322-.095.322-.092.002.025.63-.169.94-.29.471-.184.492-.295.05-.256-.23.02-.33 0-.337-.068-.008-.1.407-.175 1.105-.202.304-.011 1.158-.198 1.349-.295.142-.072-.336-.097-.952-.05a4.04 4.04 0 00-1.15.256c-.32.118-.67.222-.775.231-.154.015-.164.028-.052.066.078.026.173.03.213.009.04-.021.074-.011.077.022.005.058-.196.117-.903.264-.17.035-.327.107-.35.159-.036.078-.071.082-.197.026-.13-.058-.144-.054-.09.027.046.07.01.099-.139.104-.11.003-.34.045-.507.092-.212.06-.349.066-.446.02-.08-.036-.138-.036-.135 0 .006.07-.689.337-.938.358-.088.008-.157.054-.153.103.006.065.133.072.497.027.27-.034.593-.09.72-.127zm3.775-2.654c-.105-.033-.251.029-.324.136-.094.137-.037.155.19.06.186-.078.243-.162.134-.196zm112.84-10.05c-.006-.07-.14-.134-.299-.14-.164-.008-.257.056-.216.149.082.188.532.181.515-.009zM77.944 32.931l.233-.03-.23-.106c-.258-.12-.672.026-.655.23.007.075.103.09.216.036.112-.054.308-.113.436-.13zm112.123-9.8c-.007-.08-.11-.136-.23-.125-.12.01-.211.083-.204.163.007.079.11.135.23.124.12-.01.211-.083.204-.162zm.402-.048c-.131-.04-.282-.02-.336.043-.053.062.054.094.239.07.203-.026.241-.07.097-.113zm-110.764 9.56c-.131-.038-.282-.02-.335.043-.054.063.054.094.238.07.204-.025.242-.07.097-.113zm-10.417.842c-.008-.085-.112-.147-.231-.137-.12.01-.212.09-.204.176.007.085.111.147.23.137.12-.01.212-.09.205-.176zm2.345-.446c-.01-.122-.303.012-.376.173-.072.157-.048.162.147.028.128-.087.231-.178.229-.2zm1.001-.041c-.007-.086-.056-.153-.108-.148-.051.004-.15.084-.218.176-.069.093-.02.16.108.148.127-.01.226-.09.218-.176zm122.192-12.895c-.13-.04-.281-.02-.335.043-.053.062.054.094.239.07.203-.026.241-.07.096-.114zm-86.186 6.244c.06-.07.021-.15-.085-.18-.105-.029-.237.035-.292.142-.11.212.202.243.377.038zM66.436 57.828c-.057-.04-.068-.076-.023-.08.045-.006 0-.034-.1-.065-.255-.077-.044-.18.44-.216.253-.018.315-.008.192.031-.175.056-.294.231-.146.217.274-.028.465-.13.414-.22-.05-.09-.039-.09.087-.002.172.12.886.082.936-.05.026-.066.064-.07.185-.013.191.087.32.33.163.304-.062-.01-.102-.059-.09-.108.016-.063-.026-.053-.14.033-.131.099-.33.135-.989.183-.523.037-.862.032-.929-.014zm-1.259.042c-.188-.058-.118-.262.097-.281.156-.014.315.225.192.287-.055.028-.185.025-.289-.006zm1.898-.748c-.115-.116-.105-.134.081-.16.116-.016.273-.04.35-.053.247-.042.3.018.147.17-.192.19-.416.207-.578.043zm56.633-5.312c-.004-.042.087-.133.201-.202.115-.07.215-.043.224.057.009.1-.082.191-.201.202-.12.01-.22-.016-.224-.057zm1.14-.192c.107-.128.242-.193.3-.144.057.048-.03.153-.195.233-.238.115-.26.097-.105-.089zM74.572 55.8c-.003-.04.054-.126.129-.192.105-.093.162-.1.256-.03s.09.111-.012.182c-.168.114-.365.136-.373.04zm105.56-9.79c-.008-.087.064-.164.16-.172a.303.303 0 01.263.134c.049.083-.023.16-.16.172-.138.012-.256-.049-.263-.135zm-1.596.082c-.017-.196.322-.246.425-.062.04.072-.035.152-.168.178-.133.025-.249-.027-.257-.116zM85.76 54.068c-.104-.223.021-.267.36-.129.175.073.278.142.227.155-.388.096-.532.09-.587-.026zm80.885-7.204c-.007-.086.034-.16.092-.166.058-.005.179.055.268.134.09.079.048.153-.092.165-.14.013-.26-.048-.268-.133zm-1.3.057c-.11-.066-.138-.154-.062-.196.206-.114.453.006.35.17-.072.117-.128.121-.289.026zm.302.02c-.232-.092-.18-.283.062-.227.123.028.229.105.234.17.012.13-.072.146-.296.057zm44.83-4.279c-.179-.105-.128-.234.1-.254.12-.01.223.051.231.138.014.163-.154.222-.332.116zM94.322 52.441c-.046-.072.044-.153.2-.18.155-.028.25.025.211.118-.086.207-.298.239-.41.062zm.826-.237a.253.253 0 01.195-.157c.084-.012.34-.055.57-.098.301-.055.38-.048.285.026-.109.084-.109.1 0 .092.074-.006.11.017.08.05-.03.034-.305.098-.613.143-.466.068-.552.059-.517-.056zM56.97 55.421c-.112-.127.133-.283.322-.206.16.065.077.277-.114.294a.285.285 0 01-.208-.088zm.75-1.75c-.005-.063.094-.156.22-.208.133-.055.178-.01.105.105-.141.223-.31.276-.325.103zm.7-.124c-.01-.103.078-.165.193-.137.115.027.152.109.082.182-.18.185-.256.173-.275-.045zm162.26-22.65c-.106-.077-.14-.144-.073-.15.066-.006.208.052.315.13.107.077.14.145.074.15-.066.006-.208-.052-.315-.13zM66.554 39.557c-.007-.075.086-.145.205-.155.12-.01.224.054.232.143.008.089-.085.158-.206.154-.12-.003-.224-.068-.231-.142zm3.827-1.379l-.23-.103.555-.1c.305-.056.776-.122 1.046-.147.27-.026.489-.067.487-.09-.005-.05.561 0 .654.059.034.02-.07.032-.23.025a1.272 1.272 0 00-.557.111c-.145.068-.484.146-.754.173-.27.027-.489.072-.486.1.008.093-.25.078-.485-.028zm-1.163.205c.053-.062.204-.081.335-.043.145.043.107.088-.097.114-.184.024-.291-.008-.238-.07zm-1.713-.744c-.022-.132.029-.212.112-.177s.101.143.04.24c-.068.107-.127.082-.152-.063zm2.426-.846c.023-.031-.048-.1-.159-.153-.198-.095-.192-.1.361-.336.667-.284.73-.294.744-.125.007.08-.051.135-.152.144-.133.013-.138.024-.026.062.075.025.213.029.307.008.093-.02.172-.008.175.028.003.036-.132.072-.3.08a8.045 8.045 0 00-.49.04c-.156.02-.163.032-.041.074.124.043.122.052-.018.065-.09.009-.161.045-.158.08.003.036-.06.07-.14.077-.08.007-.127-.013-.103-.044zm1.194-.509c-.147-.056-.145-.103.006-.223.213-.168.404-.054.266.159-.049.076-.17.104-.272.064zm-3.512-2.456c-.053-.082-.006-.157.105-.167.11-.01.244.05.297.132.053.082.006.157-.105.166-.11.01-.244-.05-.297-.131zm1.932-.473c.21-.225.3-.254.312-.102.005.058-.104.149-.243.202-.212.081-.223.065-.07-.1zm132.07-12.516c.093-.208.678-.415.811-.287.077.073.098.145.047.16-.494.149-.893.207-.858.127zm-.58-.097c-.086-.084-.032-.14.151-.155.157-.014.29.04.297.119.016.183-.274.207-.448.036zm-2.421.03c-.406-.027-1.382.014-3.202.134-.623.04-1.226.049-1.34.018-.123-.034-.544-.02-1.048.035-.463.05-.843.085-.843.077-.002-.022.525-.259.59-.265.031-.002.033.027.005.065-.03.04.067.06.234.045.157-.014.283-.055.28-.09-.003-.035.04-.068.094-.073.054-.005.07.03.035.078-.046.064-.029.067.066.01a.812.812 0 01.317-.086c.104-.005.412-.025.686-.043.273-.019.48-.01.458.018-.022.029.22.025.536-.008.316-.033.65-.039.743-.014.113.03.167.022.163-.025-.003-.038.047-.053.111-.032.065.021.478.015.918-.014.44-.029.8-.049.801-.045 0 .005.212 0 .47-.012.259-.011.481-.014.495-.008.023.012.12.023.285.033.076.004-.347.23-.428.228-.025 0-.217-.012-.426-.026zm-3.793.105c-.007-.083-.097-.143-.201-.134-.104.01-.206.086-.228.172-.021.086.07.146.202.134.132-.011.235-.089.227-.172zm5.033-.659a.16.16 0 00-.19-.025c-.058.035-.109.022-.114-.03-.015-.18.177-.2.335-.034.088.093.135.17.106.173-.03.002-.091-.035-.137-.084zm-2.094-.137c-.104-.06-.208-.093-.23-.075-.023.019-.246.062-.495.096-.432.058-.982-.028-.854-.134.103-.084.75-.123.899-.054.152.072.415.052.526-.04.093-.077.572-.104.644-.036.099.092-.015.326-.166.339a.704.704 0 01-.324-.096zm.977.04c-.047-.07-.035-.092.032-.055a.114.114 0 00.162-.05c.076-.169.199-.15.215.032.016.187-.293.242-.409.073zM89.34 29.215c.053-.062.204-.082.335-.043.145.043.107.087-.097.114-.184.023-.291-.008-.238-.07zm18.713-3.474c-.007-.086.034-.16.093-.166.058-.005.178.056.267.134.09.079.048.153-.092.166-.14.012-.26-.048-.268-.134zm2.164-.275c-.158-.064-.132-.177.037-.161.108.01.174-.023.178-.087l.014-.201c.004-.054.084-.109.178-.121.094-.013.202-.032.24-.043l.345-.096c.337-.094.515-.205.44-.275-.03-.03.027-.06.129-.07.101-.008.209.02.239.061.038.053.076.053.126 0 .126-.134.41-.198.568-.127.127.057.138.055.065-.015-.067-.064-.048-.078.08-.056.091.016.223.024.293.018a.224.224 0 01.193.106c.043.076.126.102.233.073.235-.064.196-.222-.042-.17-.188.04-.188.04-.011-.036.1-.042.324-.092.498-.11.174-.017.571-.083.883-.145a89.193 89.193 0 013.773-.625c.436-.06.98-.136 1.21-.17.486-.073 1.445-.204 2.702-.37a134.79 134.79 0 001.49-.206c.8-.118 2.064-.232 2.244-.203.08.013.325.03.546.038.22.008.403.036.406.062.002.026-.094.128-.214.227-.176.146-.304.186-.688.214-.28.021-.456.06-.434.098.02.034.361.036.758.005.622-.05 1.044-.003.91.101-.059.047-1.296.197-1.299.157-.001-.019-.286 0-.632.04-.347.042-.874.071-1.172.065-.298-.007-.56.003-.584.022-.022.02-.221.057-.441.084-.22.026-.515.08-.654.12-.151.044-.305.05-.38.016-.068-.032-.531-.03-1.03.006-.616.044-.888.04-.851-.01.03-.041-.014-.029-.097.028-.104.07-.271.1-.535.094-.253-.006-.362.012-.32.052.073.068.061.07-.785.16-.334.036-.7.096-.813.134-.114.038-.208.045-.211.016-.003-.029-.11-.043-.238-.032-.13.011-.232.042-.23.069.002.027-.061.054-.142.061-.08.007-.126-.014-.101-.046.058-.078-.894.112-.957.191-.116.145-1.855.434-1.865.31-.004-.038-.051-.065-.106-.06-.054.005-.072.034-.04.064.093.087-.117.164-.263.096-.098-.045-.142-.038-.171.028-.026.057-.177.096-.426.108-.212.01-.384.046-.38.079.009.106-.478.078-.582-.034-.055-.06-.14-.087-.187-.062-.048.026-.064.069-.035.096.029.027-.008.07-.081.097-.074.027-.162.022-.195-.01-.038-.035-.157-.011-.305.061-.278.136-1.162.332-1.281.284zm-1.343-.09c-.019-.214.123-.258.343-.108.081.056.041.145-.09.2-.13.053-.244.012-.253-.093zm.346-.13c.073-.108.219-.17.324-.137.11.034.052.118-.133.195-.227.096-.284.078-.191-.059zm32.194-2.962c-.119-.02-.22-.082-.224-.136-.014-.158.4-.108.455.055.027.082.035.142.017.133a2.278 2.278 0 00-.248-.052zm-1.95-.001c.252-.228.407-.241.245-.022-.073.1-.2.182-.281.184-.098.002-.086-.053.035-.162zm.562-.063c-.047-.082.032-.12.175-.082.302.08.349.194.09.217a.298.298 0 01-.265-.135zm-12.063.842c-.157-.097-.091-.11 1.065-.216.677-.063 1.324-.135 1.438-.162.113-.026.23-.023.26.006.029.03.181.036.338.014.423-.059.434.042.011.109-.2.032-.345.032-.323 0 .068-.098-.073-.051-.21.07-.149.131-.542.187-.638.09-.043-.042-.124-.034-.241.025-.2.1-.4.061-.315-.061.037-.053.014-.056-.07-.008-.069.04-.356.109-.637.154-.402.064-.547.06-.678-.021zm7.524-.501c-.008-.086.034-.16.092-.165.058-.006.179.055.268.133.089.08.047.154-.092.166-.14.012-.26-.048-.268-.134zm-3.709.2c-.156-.082-.182-.144-.065-.156.108-.011.247.05.31.134.144.192.088.197-.245.022zm36.472-3.298c.044-.058-.318-.09-.386-.034-.095.078-.51.127-.515.061-.004-.04-.27-.027-.727.037-.56.078-.797.084-1.058.025-.186-.043-.265-.07-.177-.061.088.008.171-.011.185-.043.013-.032.087-.074.163-.092a.464.464 0 00.201-.104c.035-.038.07-.007.077.07.013.134.028.136.263.027.224-.103.264-.105.389-.014.132.096.136.096.073-.006-.051-.084-.015-.113.16-.128.124-.011.273.027.331.085.059.058.104.068.101.023-.004-.084.274-.14.281-.057.002.027.322.02.711-.017.389-.036.73-.044.758-.018.028.027.142.04.252.03.16-.013.178.002.09.074-.11.091-1.236.228-1.172.143zm1.544-.039c-.005-.06.022-.115.06-.123.038-.008.202-.051.364-.096.364-.1.515.112.167.235-.344.12-.58.114-.591-.016zm-6.762.277c-.003-.035-.164-.05-.357-.033-.193.016-.379.062-.414.1-.042.048-.065.05-.07.007-.01-.08-.571-.05-.564.03.003.032-.035.046-.083.03-.093-.03-.92-.019-1.797.024a4.654 4.654 0 01-.518.011c-.004-.043-1.235.064-1.31.114-.133.09-1.064.225-1.07.156-.003-.033-.068-.054-.145-.047-.078.006-.138.04-.135.074.003.039-.655.108-1.751.185-.967.068-1.858.132-1.983.144a3.499 3.499 0 01-.543-.012c-.19-.02-.315-.009-.312.027.005.058-.323.077-.417.024-.027-.015-.453.018-.947.074-.594.067-.944.08-1.036.037-.108-.05-.137-.044-.132.025.004.056-.021.066-.069.027-.044-.037-.58-.02-1.338.041-.695.056-2.801.22-4.68.364-1.88.144-4.292.335-5.36.423-1.068.09-1.943.143-1.945.121-.002-.022-.235-.02-.518.005-.283.025-.513.067-.51.093.002.027-.04.053-.095.057-.055.005-.076-.022-.047-.06.029-.039-.013-.064-.094-.057-.08.007-.148-.017-.151-.052-.003-.035-.05-.06-.105-.056-.054.005-.07.036-.035.068.037.035-.064.07-.247.086-.234.02-.276.008-.174-.049.1-.055.102-.072.01-.065-.095.008-.093-.015.009-.099a.693.693 0 01.326-.126c.106-.01.19-.048.187-.086-.003-.04.077-.058.197-.042.136.017.18.004.132-.04-.038-.036-.045-.068-.015-.07.03-.003.093.051.138.12l.083.127.235-.155c.161-.107.257-.135.306-.089.051.048.092.04.142-.027.058-.077.698-.149 3.419-.385 1.841-.16 4.107-.338 5.035-.396l3.421-.22c3.443-.227 4.331-.277 4.411-.251.179.058.938.057 1.048-.001.068-.037.15-.033.196.008.06.053.101.044.163-.034.046-.058.087-.076.091-.04.005.04.585.01 1.573-.08 1.562-.145 4.241-.275 4.248-.206.001.02.329.004.727-.035.683-.066 2.264-.116 2.549-.08.104.014.108.038.02.125-.088.088-.084.1.02.068a8.3 8.3 0 01.385-.102c.159-.039.234-.09.196-.136-.033-.041-.007-.033.057.017.096.074.217.073.633-.003.293-.053.589-.074.685-.048.093.026.288.04.433.032.244-.013.247-.01.041.035-.172.038-.192.06-.086.095.15.05.03.07-1.287.198-.459.044-.773.049-.776.01zm-27.04 1.843c-.064-.096-.185-.138-.268-.093-.238.129-.157.316.127.291.156-.013.212-.091.14-.198zm-5.634.654c.086-.133.079-.146-.05-.1-.13.047-.137.033-.052-.098l.098-.152.105.136c.121.155.317.163.383.014.025-.056.012-.099-.03-.095-.04.004-.078-.037-.083-.091-.007-.08.077-.097.447-.096.312.001.454-.021.45-.07-.004-.041.141-.086.326-.103.218-.019.313-.002.276.048-.041.054-.003.05.132-.013.158-.075.182-.073.144.013-.025.057-.083.106-.13.11-.045.004-.08.037-.077.072.011.134.174.042.269-.153.111-.228.114-.23.357-.164.122.033.164.098.142.218-.017.093.005.158.049.144a.136.136 0 01.132.033c.031.035-.189.084-.538.122-.54.057-.6.05-.705-.083-.114-.144-.466-.18-.454-.048.003.038.046.047.095.021.05-.027.07-.003.044.053-.027.06-.108.09-.197.075-.098-.017-.126-.003-.079.041.083.078-.223.167-.586.172-.13.001-.31.035-.4.075-.15.064-.156.056-.068-.081zm2.785-.39c.055-.084-.04-.141-.21-.126-.17.015-.254.087-.185.161.07.074.164.13.21.126.046-.004.13-.076.185-.16zm-4.043.512c-.034-.029.03-.075.144-.104.137-.035.181-.084.133-.149-.04-.053-.029-.1.025-.106.144-.012.14.2-.007.309-.148.11-.21.12-.295.05zm.58-.16c.06-.092.14-.17.177-.173.038-.004.13.059.205.139.075.08-.005.158-.178.173-.173.015-.265-.048-.205-.14zm.328-.219a.723.723 0 01.372-.193c.223-.023.38.126.248.236-.045.038-.103.015-.128-.05-.035-.09-.094-.085-.236.02-.272.2-.455.19-.256-.013zm-1.235.12c.054-.062.204-.081.335-.042.145.043.107.087-.096.113-.185.024-.292-.008-.239-.07zm4.975-.446c-.203-.12-.2-.143.023-.165.143-.014.267.049.275.14.017.2 0 .201-.298.025zm-.559-.089c-.072-.146-.041-.16.167-.072.3.127.335.216.094.237-.095.008-.212-.066-.26-.165z" fill="#A4D693" fill-rule="nonzero"/><path d="M9.198 83.126c0 .305-.169.61-.508.915-.339.305-.643.457-.915.457a.69.69 0 00-.508.204c-.135.135-.728.203-1.778.203-1.118 0-2.084-.17-2.897-.508-1.017-.44-1.61-.746-1.779-.915-.373-.373-.601-1.135-.686-2.287C.042 80.043 0 76.723 0 71.235V60.815c0-.203.008-.567.025-1.092.017-.526.043-1.17.077-1.932s.05-1.414.05-1.956c.068-2 .161-3.346.28-4.04.119-.695.347-1.178.686-1.449.271-.17.678-.254 1.22-.254.406 0 .762.051 1.067.153.745.338 1.118 1.778 1.118 4.32v.66c0 1.254-.034 3.634-.102 7.14-.067 3.507-.118 5.294-.152 5.362 0 .643.042 2.354.127 5.133.085 2.778.127 4.573.127 5.386v3.1h1.016c2.44 0 3.66.593 3.66 1.78zm3.835-38.064c1.05 0 1.854.313 2.413.94.56.627.839 1.432.839 2.414 0 1.321-.542 2.761-1.626 4.32-1.084 1.558-2.592 2.964-4.523 4.218-.305-.17-.458-.407-.458-.712l2.49-3.557c0-.305-.203-.593-.61-.864a5.69 5.69 0 01-1.6-1.347c-.424-.525-.635-1.143-.635-1.855 0-.982.355-1.82 1.067-2.515.711-.695 1.592-1.042 2.643-1.042zm-.56 4.015c.034-.034.06-.102.077-.203.017-.102.025-.187.025-.255l-.203.051v.102a.226.226 0 01-.026.102.226.226 0 00-.025.101v.254c0 .068.017.136.05.204.035-.034.052-.085.052-.153 0-.102.017-.17.05-.203zm.153.711a.451.451 0 00.203-.05c.034-.034.051-.06.051-.077s-.05-.06-.152-.127l-.051.203-.051.051zm.508-.813c.034-.034.017-.152-.05-.356a1.972 1.972 0 00-.102-.254v.153c0 .135-.051.27-.153.406-.101.17-.152.288-.152.356s.017.136.05.203l.204-.203c.068-.068.135-.17.203-.305zm10.898 14.84c.17 0 .712-.212 1.626-.636.915-.423 1.44-.635 1.576-.635.237 0 .356-.068.356-.203 0-.102.101-.153.305-.153.677 0 1.253.204 1.727.61.271.203.432.356.483.458.051.101.06.288.026.559-.136.813-.771 1.643-1.906 2.49-1.135.847-2.55 1.592-4.244 2.236l.102 3.303c.068 2.202.119 3.32.152 3.354.034.034.475-.22 1.322-.762 1.355-.847 2.371-1.27 3.049-1.27.305 0 .695.05 1.169.152.406.102.762.305 1.067.61.305.305.457.61.457.915 0 .474-.457.813-1.372 1.016-1.05.237-2.303.796-3.76 1.677-.746.44-1.152.695-1.22.762-.102.136-.356.34-.762.61-.407.271-.695.424-.864.458-.949.237-1.813.355-2.592.355h-.203l-.153-.05c-.644-.136-1.118-.543-1.423-1.22-.135-.271-.203-1.796-.203-4.574v-4.116l-.407-.407c-.338-.373-.508-.711-.508-1.016 0-.271.203-.644.61-1.118l.66-.712.153-3.913c.136-3.388.339-5.489.61-6.302.44-1.287 1.49-2.388 3.15-3.303.102-.068.746-.457 1.932-1.169.813-.508 1.27-.762 1.372-.762.068 0 .237-.068.508-.203.034-.034.525-.178 1.474-.432.949-.255 1.457-.415 1.525-.483.067-.102.27-.136.61-.102.338.034.626.119.863.254.238.136.458.424.661.864s.305.881.305 1.321c0 .272-.17.644-.508 1.119-.339.474-.678.813-1.017 1.016-2.066 1.287-3.37 1.931-3.913 1.931-.372 0-1.27.407-2.693 1.22l-.66.254v2.44c0 1.49.033 2.455.1 2.896.069.44.221.66.458.66zm11.61-12.807c.305-.373.643-.56 1.016-.56.339 0 .66.153.966.458 1.423 1.322 2.236 2.22 2.44 2.694.169.406.287.61.355.61s.203.16.406.482c.204.322.322.551.356.686.576.576.847.95.813 1.119-.101.101-.034.254.204.457.169.17.508.694 1.016 1.575s.813 1.406.915 1.576c.339.542.61.965.813 1.27l.356.61-.102-2.388c-.068-1.66-.153-2.863-.254-3.609a9.525 9.525 0 01-.051-1.118c0-.61.034-1.067.102-1.372.237-1.66.931-2.54 2.083-2.642.34-.034.568-.026.686.025.119.05.314.262.585.635.101.136.186.263.254.381.068.119.127.212.178.28.05.068.059.101.025.101a655.21 655.21 0 001.169 5.946c.068.271.186 1.237.356 2.897.17 2.372.406 4.337.711 5.895.542 2.914.813 6.471.813 10.672 0 .712-.017 1.17-.05 1.373-.17 1.694-.509 2.625-1.017 2.795-.17.067-.254.135-.254.203 0 .102-.119.186-.356.254h-.101c-.238 0-.602-.246-1.093-.737s-.855-.974-1.093-1.448c-.237-.576-1.304-2.744-3.201-6.505-.847-1.626-1.39-2.795-1.627-3.507-.237-.711-.525-1.321-.863-1.83-.373-.541-1-1.829-1.88-3.862-1.017-2.236-1.56-3.354-1.627-3.354-.068 0-.068.119 0 .356.17.678.339 1.787.508 3.329.17 1.541.305 2.566.407 3.074.27 2.033.406 4.286.406 6.76v.61c-.067.507-.203.863-.406 1.067-.136.135-.246.203-.33.203-.085 0-.263-.068-.534-.203-.644-.407-1.152-1.44-1.525-3.1-.203-.915-.339-1.407-.406-1.474-.102-.102-.119-.254-.051-.458.068-.17.034-.457-.102-.864-.237-.88-.457-2.49-.66-4.828-.17-2.303-.348-4.412-.534-6.327-.186-1.914-.297-3.362-.33-4.345 0-.305-.017-.61-.051-.914l-.076-.687a3.39 3.39 0 01-.026-.33c0-.576.22-1.22.66-1.931zm20.045 2.49c.305-.135.627-.203.966-.203.474 0 .906.17 1.296.508.39.339.728.856 1.016 1.55.288.695.509 1.296.661 1.804.152.508.33 1.186.534 2.033.27 1.321.796 3.27 1.575 5.844.136.542.237.813.305.813.034 0 .085-.084.152-.254.102-.237.254-.762.458-1.575a63.19 63.19 0 01.915-3.507c.44-1.558.66-2.456.66-2.693 0-.508.28-1 .839-1.474.559-.474 1.11-.711 1.651-.711.305 0 .542.084.712.254.17.17.254.694.254 1.575 0 .983-.085 1.728-.254 2.236-.034.136-.22.932-.56 2.389-.338 1.457-.558 2.287-.66 2.49-.034.034-.085.22-.152.559 0 .102-.204.965-.61 2.592a164.42 164.42 0 01-2.084 6.962c-.305 1.05-.474 1.66-.508 1.83-.102.474-.186.787-.254.94-.068.152-.161.33-.28.533-.118.204-.245.424-.38.661-.204.44-.424.728-.661.864a.902.902 0 01-.407.102c-.61 0-1.152-.238-1.626-.712-.542-.542-1-1.677-1.372-3.405l-.458-2.287-2.185-10.52c-.339-1.22-.627-2.896-.864-5.03v-.356c0-1.186.186-2.186.56-2.999.169-.372.423-.643.761-.813zm20.148.305c.203-.034.88-.16 2.033-.381 1.151-.22 2.015-.33 2.591-.33h.051c.373 0 .788.194 1.245.584.458.39.686.737.686 1.042 0 .203-.194.44-.584.711-.39.271-.805.475-1.245.61l-.66.153.1 3.76c.069 2.507.136 3.795.204 3.863.068.135.102 2.524.102 7.165 0 2.338-.017 3.54-.051 3.608-.034.102 0 .17.102.204.101.034.321.05.66.05.61 0 .983.068 1.118.204.44.373.66.78.66 1.22 0 .101-.016.169-.05.203-.068.17-.644.533-1.728 1.092a27.33 27.33 0 01-2.998 1.347c-.61.203-1.169.424-1.677.66-.881.441-1.864.661-2.948.661-1.152 0-1.728-.321-1.728-.965 0-.203.22-.491.661-.864a5.975 5.975 0 011.728-1.016c.203-.068.339-.17.406-.305.068-.136.102-.475.102-1.017 0-.237-.008-.567-.025-.99a428.055 428.055 0 00-.178-3.94c-.136-3.116-.204-5.285-.204-6.504 0-1.355.068-3.287.204-5.794l.101-1.677-.61.102c-.237.068-.677.101-1.32.101-1.458 0-2.186-.338-2.186-1.016 0-.678.322-1.169.966-1.474.847-.44 2.337-.796 4.472-1.067zm19.436.305c0-.136.042-.347.127-.635.084-.288.127-.483.127-.585a.626.626 0 00-.254-.508c-.271-.203-.576-.237-.915-.102-.237.102-.746.619-1.525 1.55-.779.932-1.253 1.584-1.423 1.957-.135.339-.339 1.033-.61 2.084-.237.948-.355 1.744-.355 2.388 0 .508.084.763.254.763.135 0 .27-.12.406-.356 2.778-3.76 4.168-5.946 4.168-6.556zm.457-5.895c.102 0 .271-.009.508-.026.237-.016.424-.025.56-.025.135 0 .287.009.457.025.169.017.27.026.304.026.475.068.991.364 1.55.89a6.644 6.644 0 011.347 1.753c.373.711.56 1.524.56 2.439 0 .949-.204 1.779-.61 2.49-.17.305-.34.618-.509.94-.17.322-.288.534-.356.635-.067.102-.177.271-.33.509a8.83 8.83 0 01-.533.737l-.915 1.143c-.542.678-1.364 1.55-2.465 2.617-1.101 1.067-1.889 1.754-2.363 2.058-.61.44-.915.678-.915.712 0 .068.491 1.118 1.474 3.15 1.389 2.847 2.27 5.066 2.643 6.658.033.136.203.568.508 1.296.305.729.508 1.296.61 1.703.169.677.423 1.44.762 2.286.339.814.508 1.237.508 1.271 0 .135.119.407.356.813.644 1.22.965 2.422.965 3.608 0 .509-.152 1.068-.457 1.677l-.457.915-.864.05c-.576.035-.983-.067-1.22-.304-.474-.474-1.22-2.134-2.236-4.98a169.172 169.172 0 00-1.372-3.736l-1.322-3.48c-.982-2.677-1.524-4.016-1.626-4.016-.034 0-.084.847-.152 2.541-.17 4.676-.746 7.505-1.728 8.487-.305.305-.593.458-.864.458-.203 0-.474-.085-.813-.254-.847-.407-1.27-1.339-1.27-2.795 0-.44.016-.78.05-1.017.034-.203.161-1.177.381-2.922s.364-2.973.432-3.684c.068-.407.102-1.627.102-3.66 0-3.387-.068-5.454-.203-6.2a227.78 227.78 0 01-.356-2.998c-.203-1.762-.339-2.744-.407-2.947a9.383 9.383 0 01-.101-1.322c0-1.186.118-2.033.355-2.54.204-.509.746-.763 1.627-.763.44 0 .745.135.914.406.136.204.238.322.305.356.068.034.127.026.178-.025.051-.051.127-.178.229-.381.17-.34.686-.949 1.55-1.83.864-.88 1.516-1.457 1.956-1.728.915-.576 2-.914 3.253-1.016zm15.624 13.366c-.034-.305-.228-.839-.584-1.601-.356-.763-.618-1.195-.788-1.296h-.05c-.306 0-.67.872-1.093 2.617a33.081 33.081 0 00-.839 5.412c-.27 3.083-.406 5.387-.406 6.912 0 2.44.254 3.964.762 4.574.068.101.17.135.305.101.135-.034.28-.127.432-.28.152-.152.28-.33.38-.533.136-.237.416-1.143.84-2.719.423-1.575.686-2.464.787-2.668.44-1.084.66-3.32.66-6.708 0-1.152-.05-1.982-.152-2.49a10.212 10.212 0 01-.254-1.321zm-1.524-7.217c.914-.17 1.423-.152 1.524.05.034.103.136.153.305.153.237 0 .881.466 1.931 1.398 1.05.932 1.728 1.635 2.033 2.109.949 1.457 1.584 2.77 1.906 3.938.322 1.17.483 2.753.483 4.752 0 1.525-.068 2.558-.204 3.1-.576 2.473-.965 3.88-1.168 4.218-.136.17-.356.644-.661 1.423-.644 1.355-1.084 2.236-1.321 2.643a8.675 8.675 0 01-.585.788c-.186.22-.398.482-.635.787-.78 1.017-1.27 1.525-1.474 1.525-.102 0-.305.118-.61.356-.847.61-1.643.914-2.388.914-.678 0-1.372-.186-2.084-.559-.677-.338-1.169-.677-1.474-1.016-.305-.339-.576-.88-.813-1.626-.61-1.83-.915-4.218-.915-7.166 0-.813.051-1.474.153-1.982.068-.305.135-.932.203-1.88.136-1.525.491-3.693 1.067-6.505a17.35 17.35 0 011.423-4.142c.644-1.304 1.254-2.11 1.83-2.414.034 0 .229-.135.584-.407.356-.27.653-.423.89-.457zm11.355-3.354c.305-.373.644-.56 1.017-.56.338 0 .66.153.965.458 1.423 1.322 2.236 2.22 2.44 2.694.169.406.287.61.355.61s.203.16.407.482c.203.322.322.551.355.686.576.576.847.95.814 1.119-.102.101-.034.254.203.457.17.17.508.694 1.016 1.575s.813 1.406.915 1.576c.339.542.61.965.813 1.27l.356.61-.102-2.388c-.067-1.66-.152-2.863-.254-3.609a9.524 9.524 0 01-.05-1.118c0-.61.033-1.067.101-1.372.237-1.66.932-2.54 2.084-2.642.338-.034.567-.026.686.025.118.05.313.262.584.635.102.136.186.263.254.381.068.119.127.212.178.28.05.068.06.101.025.101a655.16 655.16 0 001.17 5.946c.067.271.186 1.237.355 2.897.17 2.372.407 4.337.712 5.895.542 2.914.813 6.471.813 10.672 0 .712-.017 1.17-.051 1.373-.17 1.694-.508 2.625-1.017 2.795-.169.067-.254.135-.254.203 0 .102-.118.186-.355.254h-.102c-.237 0-.601-.246-1.093-.737-.49-.491-.855-.974-1.092-1.448-.237-.576-1.305-2.744-3.202-6.505-.847-1.626-1.389-2.795-1.626-3.507-.237-.711-.525-1.321-.864-1.83-.373-.541-1-1.829-1.88-3.862-1.017-2.236-1.559-3.354-1.627-3.354-.067 0-.067.119 0 .356.17.678.34 1.787.509 3.329.169 1.541.304 2.566.406 3.074.271 2.033.407 4.286.407 6.76v.61c-.068.507-.204.863-.407 1.067-.135.135-.246.203-.33.203-.085 0-.263-.068-.534-.203-.644-.407-1.152-1.44-1.524-3.1-.204-.915-.34-1.407-.407-1.474-.102-.102-.119-.254-.05-.458.067-.17.033-.457-.102-.864-.238-.88-.458-2.49-.661-4.828-.17-2.303-.347-4.412-.534-6.327-.186-1.914-.296-3.362-.33-4.345 0-.305-.017-.61-.05-.914l-.077-.687a3.39 3.39 0 01-.026-.33c0-.576.22-1.22.661-1.931zm19.334 0c.305-.373.644-.56 1.017-.56.339 0 .66.153.965.458 1.423 1.322 2.236 2.22 2.44 2.694.169.406.288.61.355.61.068 0 .204.16.407.482.203.322.322.551.356.686.576.576.847.95.813 1.119-.102.101-.034.254.203.457.17.17.508.694 1.016 1.575.509.881.814 1.406.915 1.576.339.542.61.965.813 1.27l.356.61-.102-2.388c-.067-1.66-.152-2.863-.254-3.609a9.525 9.525 0 01-.05-1.118c0-.61.033-1.067.101-1.372.237-1.66.932-2.54 2.084-2.642.339-.034.567-.026.686.025.118.05.313.262.584.635.102.136.187.263.254.381.068.119.127.212.178.28.051.068.06.101.026.101.711 3.66 1.1 5.641 1.169 5.946.067.271.186 1.237.355 2.897.17 2.372.407 4.337.712 5.895.542 2.914.813 6.471.813 10.672 0 .712-.017 1.17-.05 1.373-.17 1.694-.51 2.625-1.017 2.795-.17.067-.254.135-.254.203 0 .102-.119.186-.356.254h-.102c-.237 0-.601-.246-1.092-.737-.492-.491-.856-.974-1.093-1.448-.237-.576-1.304-2.744-3.202-6.505-.847-1.626-1.389-2.795-1.626-3.507-.237-.711-.525-1.321-.864-1.83-.373-.541-1-1.829-1.88-3.862-1.017-2.236-1.559-3.354-1.627-3.354-.067 0-.067.119 0 .356.17.678.34 1.787.509 3.329.17 1.541.305 2.566.406 3.074.271 2.033.407 4.286.407 6.76v.61c-.068.507-.203.863-.407 1.067-.135.135-.245.203-.33.203-.085 0-.263-.068-.534-.203-.643-.407-1.152-1.44-1.524-3.1-.204-.915-.34-1.407-.407-1.474-.101-.102-.118-.254-.05-.458.067-.17.033-.457-.102-.864-.237-.88-.458-2.49-.661-4.828-.17-2.303-.347-4.412-.534-6.327-.186-1.914-.296-3.362-.33-4.345 0-.305-.017-.61-.05-.914l-.077-.687a3.39 3.39 0 01-.025-.33c0-.576.22-1.22.66-1.931zm24.976 12.807c.169 0 .711-.212 1.626-.636.915-.423 1.44-.635 1.575-.635.237 0 .356-.068.356-.203 0-.102.102-.153.305-.153.677 0 1.253.204 1.728.61.27.203.432.356.482.458.051.101.06.288.026.559-.136.813-.77 1.643-1.906 2.49-1.135.847-2.55 1.592-4.243 2.236l.101 3.303c.068 2.202.119 3.32.153 3.354.034.034.474-.22 1.321-.762 1.355-.847 2.372-1.27 3.05-1.27.304 0 .694.05 1.168.152.407.102.762.305 1.067.61.305.305.458.61.458.915 0 .474-.458.813-1.372 1.016-1.05.237-2.304.796-3.761 1.677-.745.44-1.152.695-1.22.762-.101.136-.355.34-.762.61-.407.271-.695.424-.864.458-.949.237-1.813.355-2.592.355h-.203l-.153-.05c-.643-.136-1.118-.543-1.422-1.22-.136-.271-.204-1.796-.204-4.574v-4.116l-.406-.407c-.34-.373-.509-.711-.509-1.016 0-.271.204-.644.61-1.118l.661-.712.152-3.913c.136-3.388.34-5.489.61-6.302.44-1.287 1.491-2.388 3.151-3.303.102-.068.745-.457 1.931-1.169.813-.508 1.27-.762 1.372-.762.068 0 .238-.068.509-.203.033-.034.525-.178 1.473-.432.949-.255 1.457-.415 1.525-.483.068-.102.271-.136.61-.102.339.034.627.119.864.254.237.136.457.424.66.864.204.44.305.881.305 1.321 0 .272-.17.644-.508 1.119-.339.474-.677.813-1.016 1.016-2.067 1.287-3.371 1.931-3.913 1.931-.373 0-1.27.407-2.694 1.22l-.66.254v2.44c0 1.49.033 2.455.101 2.896.068.44.22.66.458.66zm26.906 24.037c0-.033.017-.05.05-.05.068 0 .102.017.102.05 0 .068-.034.102-.101.102-.034 0-.051-.034-.051-.102zM178.22 73.674c0-.271-.093-.763-.28-1.474-.186-.712-.279-1.22-.279-1.525 0-.542-.034-.847-.102-.914-.237-.102-.423-1.457-.559-4.066 0-.508-.05-.915-.152-1.22-.136-.27-.254-2.388-.356-6.352a32.545 32.545 0 01-.05-1.982c0-.949.067-1.745.203-2.389.034-.135.067-.305.101-.508s.06-.347.077-.432c.016-.085.042-.186.076-.305.034-.118.068-.195.101-.229a.983.983 0 01.178-.127.81.81 0 01.305-.101c.119-.017.263-.026.432-.026.407 0 .78.187 1.118.56.712.813 1.152 1.355 1.322 1.626.067.101.779 1.084 2.134 2.947l.762 1.017c.136.135.364.39.686.762.322.373.517.593.585.66.508.577.796.814.864.712.101-.136.305-.627.61-1.474.338-.915.694-1.66 1.067-2.236 1.05-1.762 1.575-2.795 1.575-3.1 0-.101.407-.855 1.22-2.261.813-1.406 1.287-2.177 1.423-2.313a6.28 6.28 0 011.067-.864c.61-.44 1.033-.576 1.27-.406.475.339.983 1.253 1.525 2.744.068.203.102.424.102.66 0 .373.034.661.101.865.102.237.195.643.28 1.22.085.575.17 1.21.254 1.905l.178 1.449c.034.135.085.533.152 1.194.068.66.136 1.279.204 1.855.067.576.135.948.203 1.118.102.237.186.813.254 1.728.102 1.83.237 3.015.407 3.557.101.305.186.88.254 1.728.237 2.54.423 4.93.559 7.166.17 2.812.339 4.794.508 5.945.068.61.102 1.288.102 2.033 0 2.1-.102 3.625-.305 4.574-.102.407-.407.898-.915 1.474-.576.61-1.118.949-1.626 1.016-.102.034-.254.051-.458.051-1.321 0-2.033-1.186-2.134-3.557-.068-1.322-.22-2.94-.458-4.854-.237-1.914-.372-3.108-.406-3.582-.305-2.88-.542-4.811-.712-5.794-.135-.745-.203-2.744-.203-5.997 0-2.473.05-4.37.153-5.692.033-.406.05-.83.05-1.27 0-.203-.017-.305-.05-.305-.034 0-.068.017-.102.05-.17.103-.288.374-.356.814-.068.542-.322 1.406-.762 2.592-.44 1.186-.83 2.117-1.169 2.795-.915 1.728-1.694 2.676-2.338 2.846a.695.695 0 00-.152.025.695.695 0 01-.153.026c-.677 0-1.304-.288-1.88-.864-.068-.068-.813-1.118-2.236-3.151-.068-.136-.356-.678-.864-1.626-.508-.949-.813-1.474-.915-1.576-.135-.17-.203-.203-.203-.101 0 .033.017.203.05.508.069.44.306 1.77.712 3.99.407 2.218.661 3.768.763 4.65.067.643.152 1.1.254 1.371.237.712.423 1.745.559 3.1.067.644.152 1.084.254 1.322.237.813.356 1.728.356 2.744 0 1.863-.322 3.015-.966 3.456-.339.237-.66.355-.966.355-.372 0-.796-.304-1.27-.914-.61-.847-.932-1.508-.966-1.982-.101-.847-.355-2.118-.762-3.812-.203-.711-.305-1.321-.305-1.83zm29.295-9.86c.17 0 .711-.211 1.626-.635.915-.423 1.44-.635 1.576-.635.237 0 .355-.068.355-.203 0-.102.102-.153.305-.153.678 0 1.254.204 1.728.61.271.203.432.356.483.458.05.101.06.288.025.559-.135.813-.77 1.643-1.905 2.49-1.135.847-2.55 1.592-4.244 2.236l.102 3.303c.068 2.202.118 3.32.152 3.354.034.034.475-.22 1.322-.762 1.355-.847 2.371-1.27 3.049-1.27.305 0 .694.05 1.169.152.406.102.762.305 1.067.61.305.305.457.61.457.915 0 .474-.457.813-1.372 1.016-1.05.237-2.304.796-3.76 1.677-.746.44-1.152.695-1.22.762-.102.136-.356.34-.763.61-.406.271-.694.424-.863.458-.95.237-1.813.355-2.592.355h-.204l-.152-.05c-.644-.136-1.118-.543-1.423-1.22-.136-.271-.203-1.796-.203-4.574v-4.116l-.407-.407c-.339-.373-.508-.711-.508-1.016 0-.271.203-.644.61-1.118l.66-.712.153-3.913c.135-3.388.339-5.489.61-6.302.44-1.287 1.49-2.388 3.15-3.303.102-.068.746-.457 1.932-1.169.813-.508 1.27-.762 1.372-.762.068 0 .237-.068.508-.203.034-.034.525-.178 1.474-.432.949-.255 1.457-.415 1.524-.483.068-.102.272-.136.61-.102.34.034.627.119.864.254.237.136.458.424.66.864.204.44.306.881.306 1.321 0 .272-.17.644-.508 1.119-.34.474-.678.813-1.017 1.016-2.066 1.287-3.37 1.931-3.913 1.931-.373 0-1.27.407-2.693 1.22l-.661.254v2.44c0 1.49.034 2.455.102 2.896.067.44.22.66.457.66zm11.61-12.806c.304-.373.643-.56 1.016-.56.339 0 .66.153.966.458 1.422 1.322 2.236 2.22 2.439 2.694.17.406.288.61.356.61.067 0 .203.16.406.482.203.322.322.551.356.686.576.576.847.95.813 1.119-.102.101-.034.254.203.457.17.17.509.694 1.017 1.575.508.881.813 1.406.914 1.576.34.542.61.965.814 1.27l.355.61-.101-2.388c-.068-1.66-.153-2.863-.254-3.609a9.525 9.525 0 01-.051-1.118c0-.61.034-1.067.101-1.372.238-1.66.932-2.54 2.084-2.642.339-.034.568-.026.686.025.119.05.314.262.585.635.101.136.186.263.254.381.067.119.127.212.178.28.05.068.059.101.025.101.711 3.66 1.101 5.641 1.169 5.946.068.271.186 1.237.356 2.897.169 2.372.406 4.337.711 5.895.542 2.914.813 6.471.813 10.672 0 .712-.017 1.17-.05 1.373-.17 1.694-.509 2.625-1.017 2.795-.17.067-.254.135-.254.203 0 .102-.119.186-.356.254h-.102c-.237 0-.6-.246-1.092-.737-.491-.491-.856-.974-1.093-1.448-.237-.576-1.304-2.744-3.201-6.505-.847-1.626-1.39-2.795-1.627-3.507-.237-.711-.525-1.321-.864-1.83-.372-.541-1-1.829-1.88-3.862-1.016-2.236-1.558-3.354-1.626-3.354-.068 0-.068.119 0 .356.17.678.339 1.787.508 3.329.17 1.541.305 2.566.407 3.074.27 2.033.406 4.286.406 6.76v.61c-.068.507-.203.863-.406 1.067-.136.135-.246.203-.33.203-.086 0-.263-.068-.534-.203-.644-.407-1.152-1.44-1.525-3.1-.203-.915-.339-1.407-.407-1.474-.101-.102-.118-.254-.05-.458.067-.17.033-.457-.102-.864-.237-.88-.457-2.49-.66-4.828-.17-2.303-.348-4.412-.534-6.327-.187-1.914-.297-3.362-.33-4.345 0-.305-.018-.61-.051-.914l-.077-.687a3.39 3.39 0 01-.025-.33c0-.576.22-1.22.66-1.931zm29.904-.457a4.326 4.326 0 011.372-.204c.576 0 1.085.11 1.525.33.44.22.66.517.66.89 0 .271-.177.627-.533 1.067-.356.44-.754.78-1.194 1.017-.407.237-.644.39-.712.457-.067.068-.355.212-.864.432-.508.22-.83.33-.965.33-.102 0-.195.077-.28.229-.084.152-.11.28-.076.381.034.068.203 4.896.508 14.484.068 1.999.136 3.066.204 3.201.067.102.144 1.186.228 3.253.085 2.067.127 3.71.127 4.93 0 .677-.017 1.067-.05 1.168-.068.509-.34.983-.814 1.423-.44.373-.83.56-1.169.56-.745 0-1.71-1-2.896-2.999-.373-.61-.78-1.66-1.22-3.15-.339-.983-.508-3.982-.508-8.996 0-2.304.05-4.438.152-6.403.034-.644.085-1.525.153-2.643.068-1.118.101-1.779.101-1.982l.051-1.525-.66.102c-1.118.17-1.949.254-2.49.254-.238 0-.39-.017-.458-.05-.271-.068-.55-.255-.838-.56-.288-.305-.432-.576-.432-.813 0-.203.186-.516.559-.94.372-.423.779-.754 1.22-.99.948-.61 1.727-.967 2.337-1.068 1.728-.305 2.744-.593 3.05-.864.236-.136.617-.271 1.143-.407.525-.135.906-.254 1.143-.355.203-.068.5-.17.89-.305.389-.136.635-.22.736-.254z" fill="#007D83" fill-rule="nonzero"/><path d="M11.198 81.126c0 .305-.169.61-.508.915-.339.305-.643.457-.915.457a.69.69 0 00-.508.204c-.135.135-.728.203-1.778.203-1.118 0-2.084-.17-2.897-.508-1.017-.44-1.61-.746-1.779-.915-.373-.373-.601-1.135-.686-2.287C2.042 78.043 2 74.723 2 69.235V58.815c0-.203.008-.567.025-1.092.017-.526.043-1.17.077-1.932s.05-1.414.05-1.956c.068-2 .161-3.346.28-4.04.119-.695.347-1.178.686-1.449.271-.17.678-.254 1.22-.254.406 0 .762.051 1.067.153.745.338 1.118 1.778 1.118 4.32v.66c0 1.254-.034 3.634-.102 7.14-.067 3.507-.118 5.294-.152 5.362 0 .643.042 2.354.127 5.133.085 2.778.127 4.573.127 5.386v3.1h1.016c2.44 0 3.66.593 3.66 1.78zm3.835-38.064c1.05 0 1.854.313 2.413.94.56.627.839 1.432.839 2.414 0 1.321-.542 2.761-1.626 4.32-1.084 1.558-2.592 2.964-4.523 4.218-.305-.17-.458-.407-.458-.712l2.49-3.557c0-.305-.203-.593-.61-.864a5.69 5.69 0 01-1.6-1.347c-.424-.525-.635-1.143-.635-1.855 0-.982.355-1.82 1.067-2.515.711-.695 1.592-1.042 2.643-1.042zm-.56 4.015c.034-.034.06-.102.077-.203.017-.102.025-.187.025-.255l-.203.051v.102a.226.226 0 01-.026.102.226.226 0 00-.025.101v.254c0 .068.017.136.05.204.035-.034.052-.085.052-.153 0-.102.017-.17.05-.203zm.153.711a.451.451 0 00.203-.05c.034-.034.051-.06.051-.077s-.05-.06-.152-.127l-.051.203-.051.051zm.508-.813c.034-.034.017-.152-.05-.356a1.972 1.972 0 00-.102-.254v.153c0 .135-.051.27-.153.406-.101.17-.152.288-.152.356s.017.136.05.203l.204-.203c.068-.068.135-.17.203-.305zm10.898 14.84c.17 0 .712-.212 1.626-.636.915-.423 1.44-.635 1.576-.635.237 0 .356-.068.356-.203 0-.102.101-.153.305-.153.677 0 1.253.204 1.727.61.271.203.432.356.483.458.051.101.06.288.026.559-.136.813-.771 1.643-1.906 2.49-1.135.847-2.55 1.592-4.244 2.236l.102 3.303c.068 2.202.119 3.32.152 3.354.034.034.475-.22 1.322-.762 1.355-.847 2.371-1.27 3.049-1.27.305 0 .695.05 1.169.152.406.102.762.305 1.067.61.305.305.457.61.457.915 0 .474-.457.813-1.372 1.016-1.05.237-2.303.796-3.76 1.677-.746.44-1.152.695-1.22.762-.102.136-.356.34-.762.61-.407.271-.695.424-.864.458-.949.237-1.813.355-2.592.355h-.203l-.153-.05c-.644-.136-1.118-.543-1.423-1.22-.135-.271-.203-1.796-.203-4.574v-4.116l-.407-.407c-.338-.373-.508-.711-.508-1.016 0-.271.203-.644.61-1.118l.66-.712.153-3.913c.136-3.388.339-5.489.61-6.302.44-1.287 1.49-2.388 3.15-3.303.102-.068.746-.457 1.932-1.169.813-.508 1.27-.762 1.372-.762.068 0 .237-.068.508-.203.034-.034.525-.178 1.474-.432.949-.255 1.457-.415 1.525-.483.067-.102.27-.136.61-.102.338.034.626.119.863.254.238.136.458.424.661.864s.305.881.305 1.321c0 .272-.17.644-.508 1.119-.339.474-.678.813-1.017 1.016-2.066 1.287-3.37 1.931-3.913 1.931-.372 0-1.27.407-2.693 1.22l-.66.254v2.44c0 1.49.033 2.455.1 2.896.069.44.221.66.458.66zm11.61-12.807c.305-.373.643-.56 1.016-.56.339 0 .66.153.966.458 1.423 1.322 2.236 2.22 2.44 2.694.169.406.287.61.355.61s.203.16.406.482c.204.322.322.551.356.686.576.576.847.95.813 1.119-.101.101-.034.254.204.457.169.17.508.694 1.016 1.575s.813 1.406.915 1.576c.339.542.61.965.813 1.27l.356.61-.102-2.388c-.068-1.66-.153-2.863-.254-3.609a9.525 9.525 0 01-.051-1.118c0-.61.034-1.067.102-1.372.237-1.66.931-2.54 2.083-2.642.34-.034.568-.026.686.025.119.05.314.262.585.635.101.136.186.263.254.381.068.119.127.212.178.28.05.068.059.101.025.101a655.21 655.21 0 001.169 5.946c.068.271.186 1.237.356 2.897.17 2.372.406 4.337.711 5.895.542 2.914.813 6.471.813 10.672 0 .712-.017 1.17-.05 1.373-.17 1.694-.509 2.625-1.017 2.795-.17.067-.254.135-.254.203 0 .102-.119.186-.356.254h-.101c-.238 0-.602-.246-1.093-.737s-.855-.974-1.093-1.448c-.237-.576-1.304-2.744-3.201-6.505-.847-1.626-1.39-2.795-1.627-3.507-.237-.711-.525-1.321-.863-1.83-.373-.541-1-1.829-1.88-3.862-1.017-2.236-1.56-3.354-1.627-3.354-.068 0-.068.119 0 .356.17.678.339 1.787.508 3.329.17 1.541.305 2.566.407 3.074.27 2.033.406 4.286.406 6.76v.61c-.067.507-.203.863-.406 1.067-.136.135-.246.203-.33.203-.085 0-.263-.068-.534-.203-.644-.407-1.152-1.44-1.525-3.1-.203-.915-.339-1.407-.406-1.474-.102-.102-.119-.254-.051-.458.068-.17.034-.457-.102-.864-.237-.88-.457-2.49-.66-4.828-.17-2.303-.348-4.412-.534-6.327-.186-1.914-.297-3.362-.33-4.345 0-.305-.017-.61-.051-.914l-.076-.687a3.39 3.39 0 01-.026-.33c0-.576.22-1.22.66-1.931zm20.045 2.49c.305-.135.627-.203.966-.203.474 0 .906.17 1.296.508.39.339.728.856 1.016 1.55.288.695.509 1.296.661 1.804.152.508.33 1.186.534 2.033.27 1.321.796 3.27 1.575 5.844.136.542.237.813.305.813.034 0 .085-.084.152-.254.102-.237.254-.762.458-1.575a63.19 63.19 0 01.915-3.507c.44-1.558.66-2.456.66-2.693 0-.508.28-1 .839-1.474.559-.474 1.11-.711 1.651-.711.305 0 .542.084.712.254.17.17.254.694.254 1.575 0 .983-.085 1.728-.254 2.236-.034.136-.22.932-.56 2.389-.338 1.457-.558 2.287-.66 2.49-.034.034-.085.22-.152.559 0 .102-.204.965-.61 2.592a164.42 164.42 0 01-2.084 6.962c-.305 1.05-.474 1.66-.508 1.83-.102.474-.186.787-.254.94-.068.152-.161.33-.28.533-.118.204-.245.424-.38.661-.204.44-.424.728-.661.864a.902.902 0 01-.407.102c-.61 0-1.152-.238-1.626-.712-.542-.542-1-1.677-1.372-3.405l-.458-2.287-2.185-10.52c-.339-1.22-.627-2.896-.864-5.03v-.356c0-1.186.186-2.186.56-2.999.169-.372.423-.643.761-.813zm20.148.305c.203-.034.88-.16 2.033-.381 1.151-.22 2.015-.33 2.591-.33h.051c.373 0 .788.194 1.245.584.458.39.686.737.686 1.042 0 .203-.194.44-.584.711-.39.271-.805.475-1.245.61l-.66.153.1 3.76c.069 2.507.136 3.795.204 3.863.068.135.102 2.524.102 7.165 0 2.338-.017 3.54-.051 3.608-.034.102 0 .17.102.204.101.034.321.05.66.05.61 0 .983.068 1.118.204.44.373.66.78.66 1.22 0 .101-.016.169-.05.203-.068.17-.644.533-1.728 1.092a27.33 27.33 0 01-2.998 1.347c-.61.203-1.169.424-1.677.66-.881.441-1.864.661-2.948.661-1.152 0-1.728-.321-1.728-.965 0-.203.22-.491.661-.864a5.975 5.975 0 011.728-1.016c.203-.068.339-.17.406-.305.068-.136.102-.475.102-1.017 0-.237-.008-.567-.025-.99a428.055 428.055 0 00-.178-3.94c-.136-3.116-.204-5.285-.204-6.504 0-1.355.068-3.287.204-5.794l.101-1.677-.61.102c-.237.068-.677.101-1.32.101-1.458 0-2.186-.338-2.186-1.016 0-.678.322-1.169.966-1.474.847-.44 2.337-.796 4.472-1.067zm19.436.305c0-.136.042-.347.127-.635.084-.288.127-.483.127-.585a.626.626 0 00-.254-.508c-.271-.203-.576-.237-.915-.102-.237.102-.746.619-1.525 1.55-.779.932-1.253 1.584-1.423 1.957-.135.339-.339 1.033-.61 2.084-.237.948-.355 1.744-.355 2.388 0 .508.084.763.254.763.135 0 .27-.12.406-.356 2.778-3.76 4.168-5.946 4.168-6.556zm.457-5.895c.102 0 .271-.009.508-.026.237-.016.424-.025.56-.025.135 0 .287.009.457.025.169.017.27.026.304.026.475.068.991.364 1.55.89a6.644 6.644 0 011.347 1.753c.373.711.56 1.524.56 2.439 0 .949-.204 1.779-.61 2.49-.17.305-.34.618-.509.94-.17.322-.288.534-.356.635-.067.102-.177.271-.33.509a8.83 8.83 0 01-.534.737l-.914 1.143c-.542.678-1.364 1.55-2.465 2.617-1.101 1.067-1.889 1.754-2.363 2.058-.61.44-.915.678-.915.712 0 .068.491 1.118 1.474 3.15 1.389 2.847 2.27 5.066 2.643 6.658.033.136.203.568.508 1.296.305.729.508 1.296.61 1.703.169.677.423 1.44.762 2.286.339.814.508 1.237.508 1.271 0 .135.119.407.356.813.644 1.22.965 2.422.965 3.608 0 .509-.152 1.068-.457 1.677l-.457.915-.864.05c-.576.035-.983-.067-1.22-.304-.474-.474-1.22-2.134-2.236-4.98a169.172 169.172 0 00-1.372-3.736l-1.322-3.48c-.982-2.677-1.524-4.016-1.626-4.016-.034 0-.084.847-.152 2.541-.17 4.676-.746 7.505-1.728 8.487-.305.305-.593.458-.864.458-.203 0-.474-.085-.813-.254-.847-.407-1.27-1.339-1.27-2.795 0-.44.016-.78.05-1.017.034-.203.161-1.177.381-2.922s.364-2.973.432-3.684c.068-.407.102-1.627.102-3.66 0-3.387-.068-5.454-.203-6.2a227.78 227.78 0 01-.356-2.998c-.203-1.762-.339-2.744-.407-2.947a9.383 9.383 0 01-.101-1.322c0-1.186.118-2.033.355-2.54.204-.509.746-.763 1.627-.763.44 0 .745.135.914.406.136.204.238.322.305.356.068.034.127.026.178-.025.051-.051.127-.178.229-.381.17-.34.686-.949 1.55-1.83.864-.88 1.516-1.457 1.956-1.728.915-.576 2-.914 3.253-1.016zm15.624 13.366c-.034-.305-.228-.839-.584-1.601-.356-.763-.618-1.195-.788-1.296h-.05c-.306 0-.67.872-1.093 2.617a33.081 33.081 0 00-.839 5.412c-.27 3.083-.406 5.387-.406 6.912 0 2.44.254 3.964.762 4.574.068.101.17.135.305.101.135-.034.28-.127.432-.28.152-.152.28-.33.38-.533.136-.237.416-1.143.84-2.719.423-1.575.686-2.464.787-2.668.44-1.084.66-3.32.66-6.708 0-1.152-.05-1.982-.152-2.49a10.212 10.212 0 01-.254-1.321zm-1.524-7.217c.914-.17 1.423-.152 1.524.05.034.103.136.153.305.153.237 0 .881.466 1.931 1.398 1.05.932 1.728 1.635 2.033 2.109.949 1.457 1.584 2.77 1.906 3.938.322 1.17.483 2.753.483 4.752 0 1.525-.068 2.558-.204 3.1-.576 2.473-.965 3.88-1.168 4.218-.136.17-.356.644-.661 1.423-.644 1.355-1.084 2.236-1.321 2.643a8.675 8.675 0 01-.585.788c-.186.22-.398.482-.635.787-.78 1.017-1.27 1.525-1.474 1.525-.102 0-.305.118-.61.356-.847.61-1.643.914-2.388.914-.678 0-1.372-.186-2.084-.559-.677-.338-1.169-.677-1.474-1.016-.305-.339-.576-.88-.813-1.626-.61-1.83-.915-4.218-.915-7.166 0-.813.051-1.474.153-1.982.068-.305.135-.932.203-1.88.136-1.525.491-3.693 1.067-6.505a17.35 17.35 0 011.423-4.142c.644-1.304 1.254-2.11 1.83-2.414.034 0 .229-.135.584-.407.356-.27.653-.423.89-.457zm11.355-3.354c.305-.373.644-.56 1.017-.56.338 0 .66.153.965.458 1.423 1.322 2.236 2.22 2.44 2.694.169.406.287.61.355.61s.203.16.407.482c.203.322.322.551.355.686.576.576.847.95.814 1.119-.102.101-.034.254.203.457.17.17.508.694 1.016 1.575s.813 1.406.915 1.576c.339.542.61.965.813 1.27l.356.61-.102-2.388c-.067-1.66-.152-2.863-.254-3.609a9.524 9.524 0 01-.05-1.118c0-.61.033-1.067.101-1.372.237-1.66.932-2.54 2.084-2.642.338-.034.567-.026.686.025.118.05.313.262.584.635.102.136.186.263.254.381.068.119.127.212.178.28.05.068.06.101.025.101a655.16 655.16 0 001.17 5.946c.067.271.186 1.237.355 2.897.17 2.372.407 4.337.712 5.895.542 2.914.813 6.471.813 10.672 0 .712-.017 1.17-.051 1.373-.17 1.694-.508 2.625-1.017 2.795-.169.067-.254.135-.254.203 0 .102-.118.186-.355.254h-.102c-.237 0-.601-.246-1.093-.737-.49-.491-.855-.974-1.092-1.448-.237-.576-1.305-2.744-3.202-6.505-.847-1.626-1.389-2.795-1.626-3.507-.237-.711-.525-1.321-.864-1.83-.373-.541-1-1.829-1.88-3.862-1.017-2.236-1.559-3.354-1.627-3.354-.067 0-.067.119 0 .356.17.678.34 1.787.509 3.329.169 1.541.304 2.566.406 3.074.271 2.033.407 4.286.407 6.76v.61c-.068.507-.204.863-.407 1.067-.135.135-.246.203-.33.203-.085 0-.263-.068-.534-.203-.644-.407-1.152-1.44-1.524-3.1-.204-.915-.34-1.407-.407-1.474-.102-.102-.119-.254-.05-.458.067-.17.033-.457-.102-.864-.238-.88-.458-2.49-.661-4.828-.17-2.303-.347-4.412-.534-6.327-.186-1.914-.296-3.362-.33-4.345 0-.305-.017-.61-.05-.914l-.077-.687a3.39 3.39 0 01-.026-.33c0-.576.22-1.22.661-1.931zm19.334 0c.305-.373.644-.56 1.017-.56.339 0 .66.153.965.458 1.423 1.322 2.236 2.22 2.44 2.694.169.406.288.61.355.61.068 0 .204.16.407.482.203.322.322.551.356.686.576.576.847.95.813 1.119-.102.101-.034.254.203.457.17.17.508.694 1.016 1.575.509.881.814 1.406.915 1.576.339.542.61.965.813 1.27l.356.61-.102-2.388c-.067-1.66-.152-2.863-.254-3.609a9.525 9.525 0 01-.05-1.118c0-.61.033-1.067.101-1.372.237-1.66.932-2.54 2.084-2.642.339-.034.567-.026.686.025.118.05.313.262.584.635.102.136.187.263.254.381.068.119.127.212.178.28.051.068.06.101.026.101.711 3.66 1.1 5.641 1.169 5.946.067.271.186 1.237.355 2.897.17 2.372.407 4.337.712 5.895.542 2.914.813 6.471.813 10.672 0 .712-.017 1.17-.05 1.373-.17 1.694-.51 2.625-1.017 2.795-.17.067-.254.135-.254.203 0 .102-.119.186-.356.254h-.102c-.237 0-.601-.246-1.092-.737-.492-.491-.856-.974-1.093-1.448-.237-.576-1.304-2.744-3.202-6.505-.847-1.626-1.389-2.795-1.626-3.507-.237-.711-.525-1.321-.864-1.83-.373-.541-1-1.829-1.88-3.862-1.017-2.236-1.559-3.354-1.627-3.354-.067 0-.067.119 0 .356.17.678.34 1.787.509 3.329.17 1.541.305 2.566.406 3.074.271 2.033.407 4.286.407 6.76v.61c-.068.507-.203.863-.407 1.067-.135.135-.245.203-.33.203-.085 0-.263-.068-.534-.203-.643-.407-1.152-1.44-1.524-3.1-.204-.915-.34-1.407-.407-1.474-.101-.102-.118-.254-.05-.458.067-.17.033-.457-.102-.864-.237-.88-.458-2.49-.661-4.828-.17-2.303-.347-4.412-.534-6.327-.186-1.914-.296-3.362-.33-4.345 0-.305-.017-.61-.05-.914l-.077-.687a3.39 3.39 0 01-.025-.33c0-.576.22-1.22.66-1.931zm24.976 12.807c.169 0 .711-.212 1.626-.636.915-.423 1.44-.635 1.575-.635.237 0 .356-.068.356-.203 0-.102.102-.153.305-.153.677 0 1.253.204 1.728.61.27.203.432.356.482.458.051.101.06.288.026.559-.136.813-.77 1.643-1.906 2.49-1.135.847-2.55 1.592-4.243 2.236l.101 3.303c.068 2.202.119 3.32.153 3.354.034.034.474-.22 1.321-.762 1.355-.847 2.372-1.27 3.05-1.27.304 0 .694.05 1.168.152.407.102.762.305 1.067.61.305.305.458.61.458.915 0 .474-.458.813-1.372 1.016-1.05.237-2.304.796-3.761 1.677-.745.44-1.152.695-1.22.762-.101.136-.355.34-.762.61-.407.271-.695.424-.864.458-.949.237-1.813.355-2.592.355h-.203l-.153-.05c-.643-.136-1.118-.543-1.422-1.22-.136-.271-.204-1.796-.204-4.574v-4.116l-.406-.407c-.34-.373-.509-.711-.509-1.016 0-.271.204-.644.61-1.118l.661-.712.152-3.913c.136-3.388.34-5.489.61-6.302.44-1.287 1.491-2.388 3.151-3.303.102-.068.745-.457 1.931-1.169.813-.508 1.27-.762 1.372-.762.068 0 .238-.068.509-.203.033-.034.525-.178 1.473-.432.949-.255 1.457-.415 1.525-.483.068-.102.271-.136.61-.102.339.034.627.119.864.254.237.136.457.424.66.864.204.44.305.881.305 1.321 0 .272-.17.644-.508 1.119-.339.474-.677.813-1.016 1.016-2.067 1.287-3.371 1.931-3.913 1.931-.373 0-1.27.407-2.694 1.22l-.66.254v2.44c0 1.49.033 2.455.101 2.896.068.44.22.66.458.66zm26.906 24.037c0-.033.017-.05.05-.05.068 0 .102.017.102.05 0 .068-.034.102-.101.102-.034 0-.051-.034-.051-.102zM180.22 71.674c0-.271-.093-.763-.28-1.474-.186-.712-.279-1.22-.279-1.525 0-.542-.034-.847-.102-.914-.237-.102-.423-1.457-.559-4.066 0-.508-.05-.915-.152-1.22-.136-.27-.254-2.388-.356-6.352a32.545 32.545 0 01-.05-1.982c0-.949.067-1.745.203-2.389.034-.135.067-.305.101-.508s.06-.347.077-.432c.016-.085.042-.186.076-.305.034-.118.068-.195.101-.229a.983.983 0 01.178-.127.81.81 0 01.305-.101c.119-.017.263-.026.432-.026.407 0 .78.187 1.118.56.712.813 1.152 1.355 1.322 1.626.067.101.779 1.084 2.134 2.947l.762 1.017c.136.135.364.39.686.762.322.373.517.593.585.66.508.577.796.814.864.712.101-.136.305-.627.61-1.474.338-.915.694-1.66 1.067-2.236 1.05-1.762 1.575-2.795 1.575-3.1 0-.101.407-.855 1.22-2.261.813-1.406 1.287-2.177 1.423-2.313a6.28 6.28 0 011.067-.864c.61-.44 1.033-.576 1.27-.406.475.339.983 1.253 1.525 2.744.068.203.102.424.102.66 0 .373.034.661.101.865.102.237.195.643.28 1.22.085.575.17 1.21.254 1.905l.178 1.449c.034.135.085.533.152 1.194.068.66.136 1.279.204 1.855.067.576.135.948.203 1.118.102.237.186.813.254 1.728.102 1.83.237 3.015.407 3.557.101.305.186.88.254 1.728.237 2.54.423 4.93.559 7.166.17 2.812.339 4.794.508 5.945.068.61.102 1.288.102 2.033 0 2.1-.102 3.625-.305 4.574-.102.407-.407.898-.915 1.474-.576.61-1.118.949-1.626 1.016-.102.034-.254.051-.458.051-1.321 0-2.033-1.186-2.134-3.557-.068-1.322-.22-2.94-.458-4.854-.237-1.914-.372-3.108-.406-3.582-.305-2.88-.542-4.811-.712-5.794-.135-.745-.203-2.744-.203-5.997 0-2.473.05-4.37.153-5.692.033-.406.05-.83.05-1.27 0-.203-.017-.305-.05-.305-.034 0-.068.017-.102.05-.17.103-.288.374-.356.814-.068.542-.322 1.406-.762 2.592-.44 1.186-.83 2.117-1.169 2.795-.915 1.728-1.694 2.676-2.338 2.846a.695.695 0 00-.152.025.695.695 0 01-.153.026c-.677 0-1.304-.288-1.88-.864-.068-.068-.813-1.118-2.236-3.151-.068-.136-.356-.678-.864-1.626-.508-.949-.813-1.474-.915-1.576-.135-.17-.203-.203-.203-.101 0 .033.017.203.05.508.069.44.306 1.77.712 3.99.407 2.218.661 3.768.763 4.65.067.643.152 1.1.254 1.371.237.712.423 1.745.559 3.1.067.644.152 1.084.254 1.322.237.813.356 1.728.356 2.744 0 1.863-.322 3.015-.966 3.456-.339.237-.66.355-.966.355-.372 0-.796-.304-1.27-.914-.61-.847-.932-1.508-.966-1.982-.101-.847-.355-2.118-.762-3.812-.203-.711-.305-1.321-.305-1.83zm29.295-9.86c.17 0 .711-.211 1.626-.635.915-.423 1.44-.635 1.576-.635.237 0 .355-.068.355-.203 0-.102.102-.153.305-.153.678 0 1.254.204 1.728.61.271.203.432.356.483.458.05.101.06.288.025.559-.135.813-.77 1.643-1.905 2.49-1.135.847-2.55 1.592-4.244 2.236l.102 3.303c.068 2.202.118 3.32.152 3.354.034.034.475-.22 1.322-.762 1.355-.847 2.371-1.27 3.049-1.27.305 0 .694.05 1.169.152.406.102.762.305 1.067.61.305.305.457.61.457.915 0 .474-.457.813-1.372 1.016-1.05.237-2.304.796-3.76 1.677-.746.44-1.152.695-1.22.762-.102.136-.356.34-.763.61-.406.271-.694.424-.863.458-.95.237-1.813.355-2.592.355h-.204l-.152-.05c-.644-.136-1.118-.543-1.423-1.22-.136-.271-.203-1.796-.203-4.574v-4.116l-.407-.407c-.339-.373-.508-.711-.508-1.016 0-.271.203-.644.61-1.118l.66-.712.153-3.913c.135-3.388.339-5.489.61-6.302.44-1.287 1.49-2.388 3.15-3.303.102-.068.746-.457 1.932-1.169.813-.508 1.27-.762 1.372-.762.068 0 .237-.068.508-.203.034-.034.525-.178 1.474-.432.949-.255 1.457-.415 1.524-.483.068-.102.272-.136.61-.102.34.034.627.119.864.254.237.136.458.424.66.864.204.44.306.881.306 1.321 0 .272-.17.644-.508 1.119-.34.474-.678.813-1.017 1.016-2.066 1.287-3.37 1.931-3.913 1.931-.373 0-1.27.407-2.693 1.22l-.661.254v2.44c0 1.49.034 2.455.102 2.896.067.44.22.66.457.66zm11.61-12.806c.304-.373.643-.56 1.016-.56.339 0 .66.153.966.458 1.422 1.322 2.236 2.22 2.439 2.694.17.406.288.61.356.61.067 0 .203.16.406.482.203.322.322.551.356.686.576.576.847.95.813 1.119-.102.101-.034.254.203.457.17.17.509.694 1.017 1.575.508.881.813 1.406.914 1.576.34.542.61.965.814 1.27l.355.61-.101-2.388c-.068-1.66-.153-2.863-.254-3.609a9.525 9.525 0 01-.051-1.118c0-.61.034-1.067.101-1.372.238-1.66.932-2.54 2.084-2.642.339-.034.568-.026.686.025.119.05.314.262.585.635.101.136.186.263.254.381.067.119.127.212.178.28.05.068.059.101.025.101.711 3.66 1.101 5.641 1.169 5.946.068.271.186 1.237.356 2.897.169 2.372.406 4.337.711 5.895.542 2.914.813 6.471.813 10.672 0 .712-.017 1.17-.05 1.373-.17 1.694-.509 2.625-1.017 2.795-.17.067-.254.135-.254.203 0 .102-.119.186-.356.254h-.102c-.237 0-.6-.246-1.092-.737-.491-.491-.856-.974-1.093-1.448-.237-.576-1.304-2.744-3.201-6.505-.847-1.626-1.39-2.795-1.627-3.507-.237-.711-.525-1.321-.864-1.83-.372-.541-1-1.829-1.88-3.862-1.016-2.236-1.558-3.354-1.626-3.354-.068 0-.068.119 0 .356.17.678.339 1.787.508 3.329.17 1.541.305 2.566.407 3.074.27 2.033.406 4.286.406 6.76v.61c-.068.507-.203.863-.406 1.067-.136.135-.246.203-.33.203-.086 0-.263-.068-.534-.203-.644-.407-1.152-1.44-1.525-3.1-.203-.915-.339-1.407-.407-1.474-.101-.102-.118-.254-.05-.458.067-.17.033-.457-.102-.864-.237-.88-.457-2.49-.66-4.828-.17-2.303-.348-4.412-.534-6.327-.187-1.914-.297-3.362-.33-4.345 0-.305-.018-.61-.051-.914l-.077-.687a3.39 3.39 0 01-.025-.33c0-.576.22-1.22.66-1.931zm29.904-.457a4.326 4.326 0 011.372-.204c.576 0 1.085.11 1.525.33.44.22.66.517.66.89 0 .271-.177.627-.533 1.067-.356.44-.754.78-1.194 1.017-.407.237-.644.39-.712.457-.067.068-.355.212-.864.432-.508.22-.83.33-.965.33-.102 0-.195.077-.28.229-.084.152-.11.28-.076.381.034.068.203 4.896.508 14.484.068 1.999.136 3.066.204 3.201.067.102.144 1.186.228 3.253.085 2.067.127 3.71.127 4.93 0 .677-.017 1.067-.05 1.168-.068.509-.34.983-.814 1.423-.44.373-.83.56-1.169.56-.745 0-1.71-1-2.896-2.999-.373-.61-.78-1.66-1.22-3.15-.339-.983-.508-3.982-.508-8.996 0-2.304.05-4.438.152-6.403.034-.644.085-1.525.153-2.643.068-1.118.101-1.779.101-1.982l.051-1.525-.66.102c-1.118.17-1.949.254-2.49.254-.238 0-.39-.017-.458-.05-.271-.068-.55-.255-.838-.56-.288-.305-.432-.576-.432-.813 0-.203.186-.516.559-.94.372-.423.779-.754 1.22-.99.948-.61 1.727-.967 2.337-1.068 1.728-.305 2.744-.593 3.05-.864.236-.136.617-.271 1.143-.407.525-.135.906-.254 1.143-.355.203-.068.5-.17.89-.305.389-.136.635-.22.736-.254z" fill="#FFF" fill-rule="nonzero"/><g fill="#007D83" fill-rule="nonzero"><path d="M187.475 29.053c.154 2.2-.962 2.886-2.7 3.008l-.764.053.272 3.898-1.632.114-.665-9.507 2.396-.168c1.936-.135 2.952.575 3.093 2.602zm-3.249-1.241l-.513.036.204 2.923.553-.039c1.067-.074 1.458-.34 1.373-1.564-.09-1.278-.55-1.43-1.617-1.356zM193.732 28.073l.348 4.978c.094 1.343-.675 2.455-2.334 2.571-1.646.116-2.575-.865-2.67-2.221l-.347-4.964c-.097-1.383.7-2.47 2.333-2.585 1.62-.113 2.573.839 2.67 2.221zm-2.57-.799c-.58.04-.85.324-.8 1.062l.344 4.911c.05.698.321.997.94.953.685-.048.842-.456.798-1.074l-.342-4.899c-.039-.553-.203-1.005-.94-.953zM195.154 25.698l1.633-.114.504 7.216c.044.632.347.981.94.94.592-.042.842-.43.798-1.062l-.504-7.216 1.632-.114.501 7.164c.103 1.461-.696 2.536-2.328 2.65-1.594.111-2.57-.786-2.675-2.3l-.501-7.164zM206.99 27.689c.087 1.238-.227 2.054-.978 2.477l1.684 4.209-1.66.116-1.433-3.856a6.926 6.926 0 01-.84.098l.272 3.898-1.633.114-.664-9.507 2.357-.165c1.777-.124 2.755.614 2.895 2.616zm-2.973-1.261l-.553.039.205 2.923.619-.043c.869-.061 1.147-.438 1.07-1.544-.078-1.106-.38-1.442-1.34-1.375z"/></g><g fill="#FFF" fill-rule="nonzero"><path d="M188.475 28.053c.154 2.2-.962 2.886-2.7 3.008l-.764.053.272 3.898-1.632.114-.665-9.507 2.396-.168c1.936-.135 2.952.575 3.093 2.602zm-3.249-1.241l-.513.036.204 2.923.553-.039c1.067-.074 1.458-.34 1.373-1.564-.09-1.278-.55-1.43-1.617-1.356zM194.732 27.073l.348 4.978c.094 1.343-.675 2.455-2.334 2.571-1.646.116-2.575-.865-2.67-2.221l-.347-4.964c-.097-1.383.7-2.47 2.333-2.585 1.62-.113 2.573.839 2.67 2.221zm-2.57-.799c-.58.04-.85.324-.8 1.062l.344 4.911c.05.698.321.997.94.953.685-.048.842-.456.798-1.074l-.342-4.899c-.039-.553-.203-1.005-.94-.953zM196.154 24.698l1.633-.114.504 7.216c.044.632.347.981.94.94.592-.042.842-.43.798-1.062l-.504-7.216 1.632-.114.501 7.164c.103 1.461-.696 2.536-2.328 2.65-1.594.111-2.57-.786-2.675-2.3l-.501-7.164zM207.99 26.689c.087 1.238-.227 2.054-.978 2.477l1.684 4.209-1.66.116-1.433-3.856a6.926 6.926 0 01-.84.098l.272 3.898-1.633.114-.664-9.507 2.357-.165c1.777-.124 2.755.614 2.895 2.616zm-2.973-1.261l-.553.039.205 2.923.619-.043c.869-.061 1.147-.438 1.07-1.544-.078-1.106-.38-1.442-1.34-1.375z"/></g><g fill="#007D83" fill-rule="nonzero"><path d="M66.158 23.108l9.837-.688.224 3.2-6.163.43.385 5.511 4.74-.331.225 3.2-4.74.33.438 6.282 6.578-.46.223 3.2-10.25.717zM79.313 22.188l3.407-.239 5.33 11.924.059-.004-.856-12.237 3.319-.232 1.495 21.392-3.2.223-5.615-13.034-.06.004.935 13.362-3.318.232zM99.173 20.501c2.873-.2 4.875 1.595 5.488 4.827l-3.47.63c-.228-1.563-1.084-2.307-2.12-2.234-1.186.083-1.784.899-1.692 2.202.09 1.304 1.029 2.37 2.876 3.67 4.539 3.166 5.242 5.14 5.375 7.037.24 3.437-1.869 5.639-5.424 5.887-3.081.216-5.496-1.967-5.925-5.54l3.46-.748c.302 2.182 1.234 3.159 2.449 3.074 1.244-.087 2.056-.829 1.967-2.103-.102-1.451-1.11-2.661-2.893-3.906-3.444-2.409-5.168-4.075-5.377-7.067-.239-3.407 1.7-5.478 5.286-5.729zM107.282 20.232l9.836-.688.224 3.2-6.163.43.386 5.512 4.74-.332.224 3.2-4.74.331.439 6.281 6.577-.46.224 3.2-10.252.717zM120.229 19.327l4.83-.338 3.48 12.32.06-.004 1.733-12.685 4.83-.338 1.495 21.392-3.2.223-1.168-16.71-.06.004-2.15 16.942-1.777.125-4.487-16.478-.059.004 1.169 16.71-3.2.224zM150.075 22.926c.147 2.104-.677 3.948-2.236 4.652 2.139.773 3.143 2.37 3.317 4.86.284 4.058-1.7 6.34-5.196 6.585l-5.925.414-1.496-21.39 5.6-.392c3.673-.257 5.677 1.568 5.936 5.271zm-5.853 6.572l-1.185.083.46 6.577 1.66-.116c1.955-.136 2.452-1.54 2.317-3.466-.149-2.134-1-3.235-3.252-3.078zm-.494-8.778l-1.304.091.402 5.748 1.333-.093c1.511-.106 2.387-1.21 2.267-2.927-.123-1.748-.773-2.953-2.698-2.819zM153.175 17.023l3.674-.257 1.272 18.191 5.777-.404.224 3.2-9.451.66zM164.878 16.204l9.836-.687.224 3.2-6.163.43.386 5.511 4.74-.331.224 3.2-4.74.33.439 6.282 6.577-.46.224 3.2-10.251.717z"/></g><g fill="#FFF" fill-rule="nonzero"><path d="M67.158 22.108l9.837-.688.224 3.2-6.163.43.385 5.511 4.74-.331.225 3.2-4.74.33.438 6.282 6.578-.46.223 3.2-10.25.717zM80.313 21.188l3.407-.239 5.33 11.924.059-.004-.856-12.237 3.319-.232 1.495 21.392-3.2.223-5.615-13.034-.06.004.935 13.362-3.318.232zM100.173 19.501c2.873-.2 4.875 1.595 5.488 4.827l-3.47.63c-.228-1.563-1.084-2.307-2.12-2.234-1.186.083-1.784.899-1.692 2.202.09 1.304 1.029 2.37 2.876 3.67 4.539 3.166 5.242 5.14 5.375 7.037.24 3.437-1.869 5.639-5.424 5.887-3.081.216-5.496-1.967-5.925-5.54l3.46-.748c.302 2.182 1.234 3.159 2.449 3.074 1.244-.087 2.056-.829 1.967-2.103-.102-1.451-1.11-2.661-2.893-3.906-3.444-2.409-5.168-4.075-5.377-7.067-.239-3.407 1.7-5.478 5.286-5.729zM108.282 19.232l9.836-.688.224 3.2-6.163.43.386 5.512 4.74-.332.224 3.2-4.74.331.439 6.281 6.577-.46.224 3.2-10.252.717zM121.229 18.327l4.83-.338 3.48 12.32.06-.004 1.733-12.685 4.83-.338 1.495 21.392-3.2.223-1.168-16.71-.06.004-2.15 16.942-1.777.125-4.487-16.478-.059.004 1.169 16.71-3.2.224zM151.075 21.926c.147 2.104-.677 3.948-2.236 4.652 2.139.773 3.143 2.37 3.317 4.86.284 4.058-1.7 6.34-5.196 6.585l-5.925.414-1.496-21.39 5.6-.392c3.673-.257 5.677 1.568 5.936 5.271zm-5.853 6.572l-1.185.083.46 6.577 1.66-.116c1.955-.136 2.452-1.54 2.317-3.466-.149-2.134-1-3.235-3.252-3.078zm-.494-8.778l-1.304.091.402 5.748 1.333-.093c1.511-.106 2.387-1.21 2.267-2.927-.123-1.748-.773-2.953-2.698-2.819zM154.175 16.023l3.674-.257 1.272 18.191 5.777-.404.224 3.2-9.451.66zM165.878 15.204l9.836-.687.224 3.2-6.163.43.386 5.511 4.74-.331.224 3.2-4.74.33.439 6.282 6.577-.46.224 3.2-10.251.717z"/></g><g fill-rule="nonzero"><path d="M66.86 4.984l-1.235 10.943 1.796-.126.162-2.417 2.035-.142.497 2.37 1.795-.125-2.745-10.664-2.305.161zm1.318 2.073l1.058 4.587-1.497.105.409-4.69.03-.002zm6.767-2.789c-1.766.124-2.64 1.388-2.533 2.914l.397 5.671c.107 1.541 1.102 2.645 2.688 2.534.763-.054 1.212-.295 1.788-1.088l.401.784.898-.062-.383-5.477-3.038.212.103 1.467 1.182-.083.077 1.107c.066.943-.139 1.454-.917 1.508-.673.047-.902-.433-.944-1.032l-.394-5.64c-.046-.66.16-1.155.743-1.196.796-.055 1.078.495 1.185 1.705l.02.256 1.765-.123-.05-.734c-.114-1.616-1.192-2.848-2.988-2.723zm5.023-.2l.756 10.803 1.855-.13-.755-10.803-1.856.13zm6.454-.602c-1.81.126-2.79 1.172-2.67 2.893.096 1.367.818 2.186 2.242 3.23l.474.34c.9.628 1.41 1.239 1.461 1.972.045.644-.365 1.018-.993 1.062-.614.043-1.084-.45-1.237-1.553l-1.748.378c.217 1.805 1.437 2.907 2.993 2.798 1.796-.125 2.86-1.237 2.74-2.973-.065-.923-.398-1.884-2.477-3.385l-.238-.17c-.933-.656-1.407-1.194-1.453-1.852-.046-.659.256-1.07.854-1.113.524-.036.956.34 1.072 1.128l1.752-.318c-.31-1.632-1.32-2.539-2.772-2.437zM93.066 3c-1.81.127-2.79 1.173-2.67 2.893.096 1.368.818 2.187 2.242 3.231l.474.339c.9.628 1.41 1.24 1.46 1.973.046.643-.364 1.017-.993 1.061-.613.043-1.084-.45-1.236-1.552l-1.748.378c.217 1.804 1.436 2.907 2.993 2.798 1.795-.126 2.86-1.238 2.739-2.974-.065-.923-.397-1.884-2.476-3.385l-.239-.169c-.933-.656-1.406-1.195-1.452-1.853-.046-.658.256-1.07.854-1.112.524-.037.956.339 1.071 1.128l1.752-.318c-.31-1.633-1.32-2.54-2.771-2.438zm6.928-.484c-1.856.13-2.762 1.366-2.652 2.937l.395 5.641c.107 1.541 1.163 2.655 3.033 2.525 1.886-.132 2.76-1.396 2.653-2.923l-.396-5.656c-.11-1.571-1.193-2.653-3.033-2.524zm-.795 2.822c-.059-.838.25-1.16.908-1.206.838-.059 1.024.454 1.068 1.083l.39 5.566c.048.704-.13 1.167-.908 1.221-.703.05-1.013-.29-1.068-1.083l-.39-5.581zm5.444-2.997l.755 10.804 1.676-.118-.472-6.748.03-.002 2.836 6.583 1.616-.113-.755-10.804-1.676.118.432 6.18-.03.002-2.691-6.022-1.721.12zm10.03-.852c1.451-.101 2.462.805 2.772 2.438l-1.752.318c-.116-.79-.548-1.165-1.072-1.128-.598.042-.9.454-.854 1.112.043.611.454 1.12 1.26 1.714l.193.14c2.292 1.598 2.647 2.596 2.714 3.554.122 1.735-.943 2.847-2.74 2.973-1.555.109-2.775-.994-2.992-2.798l1.748-.378c.153 1.102.623 1.595 1.237 1.552.628-.043 1.038-.418.993-1.061-.048-.681-.49-1.257-1.274-1.839l-.66-.473c-1.425-1.044-2.147-1.863-2.243-3.23-.12-1.721.86-2.767 2.67-2.894z" fill="#007D83"/><path d="M67.86 3.984l-1.235 10.943 1.796-.126.162-2.417 2.035-.142.497 2.37 1.795-.125-2.745-10.664-2.305.161zm1.318 2.073l1.058 4.587-1.497.105.409-4.69.03-.002zm6.767-2.789c-1.766.124-2.64 1.388-2.533 2.914l.397 5.671c.107 1.541 1.102 2.645 2.688 2.534.763-.054 1.212-.295 1.788-1.088l.401.784.898-.062-.383-5.477-3.038.212.103 1.467 1.182-.083.077 1.107c.066.943-.139 1.454-.917 1.508-.673.047-.902-.433-.944-1.032l-.394-5.64c-.046-.66.16-1.155.743-1.196.796-.055 1.078.495 1.185 1.705l.02.256 1.765-.123-.05-.734c-.114-1.616-1.192-2.848-2.988-2.723zm5.023-.2l.756 10.803 1.855-.13-.755-10.803-1.856.13zm6.454-.602c-1.81.126-2.79 1.172-2.67 2.893.096 1.367.818 2.186 2.242 3.23l.474.34c.9.628 1.41 1.239 1.461 1.972.045.644-.365 1.018-.993 1.062-.614.043-1.084-.45-1.237-1.553l-1.748.378c.217 1.805 1.437 2.907 2.993 2.798 1.796-.125 2.86-1.237 2.74-2.973-.065-.923-.398-1.884-2.477-3.385l-.238-.17c-.933-.656-1.407-1.194-1.453-1.852-.046-.659.256-1.07.854-1.113.524-.036.956.34 1.072 1.128l1.752-.318c-.31-1.632-1.32-2.539-2.772-2.437zM94.066 2c-1.81.127-2.79 1.173-2.67 2.893.096 1.368.818 2.187 2.242 3.231l.474.339c.9.628 1.41 1.24 1.46 1.973.046.643-.364 1.017-.993 1.061-.613.043-1.084-.45-1.236-1.552l-1.748.378c.217 1.804 1.436 2.907 2.993 2.798 1.795-.126 2.86-1.238 2.739-2.974-.065-.923-.397-1.884-2.476-3.385l-.239-.169c-.933-.656-1.406-1.195-1.452-1.853-.046-.658.256-1.07.854-1.112.524-.037.956.339 1.071 1.128l1.752-.318c-.31-1.633-1.32-2.54-2.771-2.438zm6.928-.484c-1.856.13-2.762 1.366-2.652 2.937l.395 5.641c.107 1.541 1.163 2.655 3.033 2.525 1.886-.132 2.76-1.396 2.653-2.923l-.396-5.656c-.11-1.571-1.193-2.653-3.033-2.524zm-.795 2.822c-.059-.838.25-1.16.908-1.206.838-.059 1.024.454 1.068 1.083l.39 5.566c.048.704-.13 1.167-.908 1.221-.703.05-1.013-.29-1.068-1.083l-.39-5.581zm5.444-2.997l.755 10.804 1.676-.118-.472-6.748.03-.002 2.836 6.583 1.616-.113L111.33.944l-1.676.118.432 6.18-.03.002-2.691-6.022-1.721.12zm10.03-.852c1.451-.101 2.462.805 2.772 2.438l-1.752.318c-.116-.79-.548-1.165-1.072-1.128-.598.042-.9.454-.854 1.112.043.611.454 1.12 1.26 1.714l.193.14c2.292 1.598 2.647 2.596 2.714 3.554.122 1.735-.943 2.847-2.74 2.973-1.555.109-2.775-.994-2.992-2.798l1.748-.378c.153 1.102.623 1.595 1.237 1.552.628-.043 1.038-.418.993-1.061-.048-.681-.49-1.257-1.274-1.839l-.66-.473c-1.425-1.044-2.147-1.863-2.243-3.23-.12-1.721.86-2.767 2.67-2.894z" fill="#FFF"/></g></g></svg>