<?xml version="1.0" encoding="UTF-8"?>
<svg width="266px" height="168px" viewBox="0 0 266 168" version="1.1" xmlns="http://www.w3.org/2000/svg" xmlns:xlink="http://www.w3.org/1999/xlink">
    <!-- Generator: Sketch 55 (78076) - https://sketchapp.com -->
    <title>CTA_jeune_dk</title>
    <desc>Created with Sketch.</desc>
    <defs>
        <filter x="-1.1%" y="-1.8%" width="102.3%" height="103.7%" filterUnits="objectBoundingBox" id="filter-2">
            <feOffset dx="0" dy="0" in="SourceAlpha" result="shadowOffsetOuter1"></feOffset>
            <feGaussianBlur stdDeviation="1" in="shadowOffsetOuter1" result="shadowBlurOuter1"></feGaussianBlur>
            <feColorMatrix values="0 0 0 0 0   0 0 0 0 0   0 0 0 0 0  0 0 0 0.1 0" type="matrix" in="shadowBlurOuter1"></feColorMatrix>
        </filter>
    </defs>
    <g id="home" stroke="none" stroke-width="1" fill="none" fill-rule="evenodd">
        <g id="CTA_jeune_dk" transform="translate(2.000000, 2.000000)">
            <g id="CTA_Culture">
                <g id="Rectangle">
                    <use fill="black" fill-opacity="1" filter="url(#filter-2)" xlink:href="#path-1"></use>
                    <use fill="#F3F3F3" fill-rule="evenodd" xlink:href="#path-1"></use>
                </g>
                <g id="jeunes" transform="translate(27.000000, 50.000000)">
                    <path d="M41,15.5660377 L41,0.283018868 L44.5062837,0.283018868 L44.5062837,15.7075472 C44.5062837,17.2075472 45.1000898,17.9433962 46.3725314,17.9433962 C47.6449731,17.9433962 48.2387792,17.2075472 48.2387792,15.7075472 L48.2387792,0.283018868 L51.7450628,0.283018868 L51.7450628,15.5660377 C51.7450628,19.0754717 49.7091562,21 46.3725314,21 C43.0359066,21 41,19.0754717 41,15.5660377 Z M58.3052065,20.7169811 L55.1382406,20.7169811 L55.1382406,0.283018868 L58.3900359,0.283018868 L62.6597846,11.9716981 L62.7163375,11.9716981 L62.7163375,0.283018868 L65.8833034,0.283018868 L65.8833034,20.7169811 L62.8294434,20.7169811 L58.3617594,7.95283019 L58.3052065,7.95283019 L58.3052065,20.7169811 Z M79.0601436,20.7169811 L69.2764811,20.7169811 L69.2764811,0.283018868 L78.6642729,0.283018868 L78.6642729,3.33962264 L72.7827648,3.33962264 L72.7827648,8.60377358 L77.3070018,8.60377358 L77.3070018,11.6603774 L72.7827648,11.6603774 L72.7827648,17.6603774 L79.0601436,17.6603774 L79.0601436,20.7169811 Z M98.6840215,7.10377358 L95.1777379,7.10377358 L95.1777379,5.51886792 C95.1777379,3.79245283 94.3859964,3.05660377 93.481149,3.05660377 C92.067325,3.05660377 91.6149013,3.79245283 91.6149013,5.32075472 L91.6149013,15.6792453 C91.6149013,17.2075472 92.067325,17.9433962 93.481149,17.9433962 C94.7535907,17.9433962 95.1777379,17.2075472 95.1777379,15.8773585 L95.1777379,13.4150943 L98.6840215,13.4150943 L98.6840215,15.7641509 C98.6840215,18.6509434 96.9874327,21 93.481149,21 C89.8052065,21 88.1086176,18.6509434 88.1086176,15.7641509 L88.1086176,5.23584906 C88.1086176,2.3490566 89.8052065,0 93.481149,0 C96.9874327,0 98.6840215,2.54716981 98.6840215,5.60377358 L98.6840215,7.10377358 Z M105.753142,20.7169811 L102.246858,20.7169811 L102.246858,0.283018868 L105.753142,0.283018868 L105.753142,8.60377358 L109.485637,8.60377358 L109.485637,0.283018868 L112.991921,0.283018868 L112.991921,20.7169811 L109.485637,20.7169811 L109.485637,11.6603774 L105.753142,11.6603774 L105.753142,20.7169811 Z M120.937612,4.35849057 L119.552065,13.1320755 L122.379713,13.1320755 L120.994165,4.35849057 L120.937612,4.35849057 Z M119.043088,16.1886792 L118.421005,20.7169811 L115.027828,20.7169811 L118.7886,0.283018868 L123.143178,0.283018868 L126.90395,20.7169811 L123.510772,20.7169811 L122.888689,16.1886792 L119.043088,16.1886792 Z M132.106822,20.7169811 L128.939856,20.7169811 L128.939856,0.283018868 L132.191652,0.283018868 L136.4614,11.9716981 L136.517953,11.9716981 L136.517953,0.283018868 L139.684919,0.283018868 L139.684919,20.7169811 L136.631059,20.7169811 L132.163375,7.95283019 L132.106822,7.95283019 L132.106822,20.7169811 Z M153.653501,7.10377358 L150.147217,7.10377358 L150.147217,5.51886792 C150.147217,3.79245283 149.355476,3.05660377 148.450628,3.05660377 C147.036804,3.05660377 146.584381,3.79245283 146.584381,5.32075472 L146.584381,15.6792453 C146.584381,17.2075472 147.036804,17.9433962 148.450628,17.9433962 C149.72307,17.9433962 150.147217,17.2075472 150.147217,15.8773585 L150.147217,13.4150943 L153.653501,13.4150943 L153.653501,15.7641509 C153.653501,18.6509434 151.956912,21 148.450628,21 C144.774686,21 143.078097,18.6509434 143.078097,15.7641509 L143.078097,5.23584906 C143.078097,2.3490566 144.774686,0 148.450628,0 C151.956912,0 153.653501,2.54716981 153.653501,5.60377358 L153.653501,7.10377358 Z M167,20.7169811 L157.216338,20.7169811 L157.216338,0.283018868 L166.604129,0.283018868 L166.604129,3.33962264 L160.722621,3.33962264 L160.722621,8.60377358 L165.246858,8.60377358 L165.246858,11.6603774 L160.722621,11.6603774 L160.722621,17.6603774 L167,17.6603774 L167,20.7169811 Z" id="UNE-CHANCE" fill="#000000"></path>
                    <path d="M10.0899509,30.2758337 C10.4444437,29.2792569 10.9002202,28.3325089 11.4066385,27.4106753 C11.9130568,26.5137562 11.9636986,25.5420938 11.9383777,24.545517 C11.9383777,24.1967151 11.7104895,24.072143 11.3813176,24.1967151 C10.5710483,24.4956882 9.91270452,24.9690622 9.33032348,25.5670082 C8.49473329,26.3642697 7.65914309,27.1615311 6.84887381,28.0086214 C6.36777643,28.5069098 5.88667905,29.0550271 5.45622349,29.6280587 C5.07640977,30.1512616 4.97512611,30.7990365 4.77255879,31.421897 C4.21549866,33.140992 3.88632677,34.9099158 3.20266206,36.579182 C3.12669932,36.7286685 3.1013784,36.9030694 3.07605749,37.0774704 C2.89881108,37.7501597 2.74688559,38.4477635 2.56963919,39.1453673 C2.49367644,39.369597 2.46835553,39.5938268 2.49367644,39.842971 C2.51899736,40.3412594 2.36707187,40.7648046 1.96193723,41.088692 C1.81001174,41.2132641 1.68340716,41.3627507 1.53148168,41.5371516 C0.721212397,40.6651469 0.164152268,39.6934845 0.0628686083,38.5474212 C-0.0637359664,37.2767857 0.0122267784,35.9812359 0.189473183,34.7106005 C0.417361418,33.0413343 0.847816972,31.4468114 1.15166795,29.8024597 C1.32891436,28.7809685 1.60744442,27.7594772 1.93661631,26.7629004 C2.4177137,25.2431208 2.69624376,23.6485979 3.1013784,22.1288183 C3.25330389,21.6056154 3.30394572,21.0574982 3.17734115,20.509381 C3.05073657,19.9612637 3.55715487,19.5875474 4.13953591,19.7370339 C5.07640977,19.9612637 5.70943264,20.509381 6.1398882,21.3315568 C6.26649277,21.5308722 6.34245551,21.7800164 6.44373917,21.9793317 C6.95015747,22.8762509 6.92483656,23.7980844 6.69694832,24.7448324 C6.57034375,25.2431208 6.44373917,25.7164948 6.39309734,26.3144409 C6.84887381,26.2147832 7.07676205,25.9158101 7.30465028,25.6417515 C7.70978492,25.1434631 8.21620322,24.719918 8.6973006,24.2963728 C9.30500256,23.7233412 9.98866727,23.3247104 10.8242575,23.0755662 C11.9383777,22.7516788 12.8246097,23.0506518 13.5335954,23.8977421 C14.2679019,24.7448324 14.6223947,25.6915804 14.3438646,26.7878148 C14.2932228,26.9123869 14.2932228,27.0618735 14.2932228,27.1864456 C14.3691856,28.2328512 13.8880882,29.1048559 13.4323117,29.9768606 C13.0778189,30.64955 12.6980052,31.2973249 12.3941542,31.9700142 C11.9636986,32.8918478 11.254713,33.5894516 10.4697647,34.2123121 C10.368481,34.2870553 10.2165555,34.386713 10.1152718,34.386713 C9.63417446,34.3368842 9.25436073,34.6109428 8.87454701,34.8102581 C8.39344963,35.0843168 7.91235224,35.1341456 7.40593394,34.7853437 C7.20336662,34.6358572 6.95015747,34.5112851 6.69694832,34.386713 C6.62098558,34.3368842 6.494381,34.2870553 6.44373917,34.2123121 C6.16520911,33.5645371 5.60814898,33.0413343 5.45622349,32.3437305 C5.43090258,32.2440729 5.40558166,32.1444152 5.40558166,32.0447575 C5.40558166,31.9949287 5.43090258,31.895271 5.48154441,31.8703566 C5.50686532,31.8454421 5.60814898,31.8205277 5.65879081,31.8703566 C5.98796271,32.0447575 6.29181368,32.2939017 6.62098558,32.4683026 C7.45657577,32.8918478 7.88703133,32.8171045 8.57069603,32.194244 C9.17839799,31.6212124 9.73545812,31.0232663 10.1152718,30.3007481 C10.1405928,30.3007481 10.1912346,30.2758337 10.1912346,30.2758337 L10.0899509,30.2758337 Z M24.2190215,29.229428 C24.4722306,30.2509192 24.0924169,31.3222393 23.9911332,32.4184738 C23.9151705,33.2655641 23.4847149,34.0628255 23.0542594,34.8102581 C22.6744457,35.4331186 22.2186692,36.0310647 21.7882136,36.6290108 C21.5603254,36.9778127 21.2311535,37.1522136 20.9526234,37.4013578 C20.2942796,38.0491328 19.6106149,38.6470788 18.9775921,39.2948538 C18.2686065,40.017372 17.4076953,40.2416017 16.5214633,40.4907459 C15.736515,40.7398901 15.0528503,40.4907459 14.3945065,40.0672008 C14.3185437,40.017372 14.2172601,39.9675431 14.1666182,39.8927999 C13.5335954,39.1951961 12.9512143,38.4975923 12.6726843,37.5259299 C12.3941542,36.5293531 12.2169078,35.5327763 12.166266,34.4863707 C12.1156241,32.9915055 12.3688333,31.5962979 12.7992888,30.2260048 C13.4829535,28.1581079 14.3691856,26.2147832 15.3820222,24.3462017 C15.7871568,23.5489402 16.2429333,22.7516788 16.8506352,22.0789894 C17.1291653,21.755102 17.4330163,21.4810433 17.8634718,21.5059578 C18.0407182,21.5059578 18.2179646,21.4561289 18.395211,21.3813857 C18.6230993,21.2568136 18.8509875,21.281728 19.0788757,21.3564712 C19.3574058,21.4561289 19.585294,21.4810433 19.8638241,21.4312145 C20.4715261,21.3066424 21.2058326,22.0291606 21.1805117,22.7516788 C21.1551908,23.1752239 21.3071162,23.3496249 21.6362881,23.4492825 C22.1680274,23.5987691 22.573162,23.8977421 22.8263711,24.4458593 C22.877013,24.5704314 22.9529757,24.6700891 23.0289385,24.7697468 C24.0924169,25.9158101 24.2949842,27.3857609 24.2190215,28.930455 L24.2190215,29.229428 Z M18.2686065,30.6744644 C17.7115463,30.4502346 17.3823744,30.2260048 17.0532025,29.8772029 C16.8506352,29.6529732 16.6480679,29.7277164 16.5214633,30.0516039 C16.2682542,30.6744644 16.0910078,31.2973249 15.8377986,31.9201854 C15.3567012,33.0911631 15.1541339,34.3368842 15.128813,35.632434 C15.1034921,36.105808 15.2047757,36.5542676 15.2807385,37.0276415 C15.3313803,37.3017002 15.4833058,37.5259299 15.6605522,37.7003309 C15.8884404,37.9743895 16.0910078,38.0242183 16.3948587,37.8498174 C16.6480679,37.7003309 16.926598,37.5259299 17.1544862,37.3266146 C18.6737411,35.9812359 20.0157496,34.4365418 21.0032653,32.5679603 C21.7628927,31.1727528 22.1933483,29.6529732 22.2946319,28.0086214 C22.3452738,27.3608465 22.269311,26.737986 22.1680274,26.1151255 C22.0920646,25.8161525 21.990781,25.5420938 21.8388555,25.2929496 C21.6616091,25.0438054 21.4843627,24.9939766 21.2817953,25.1434631 C20.8006979,25.5420938 20.3196006,25.9158101 20.0157496,26.5386706 C19.6106149,27.4106753 19.1295176,28.2328512 18.7750248,29.1048559 C18.5724574,29.5782299 18.1420019,29.9519462 18.2686065,30.6744644 Z M37.3099345,38.3979346 C37.2592927,38.59725 37.3858972,38.771651 37.2846136,38.9958807 C36.4490234,39.1453673 35.967926,38.6969077 35.6387541,37.9993039 C35.5881123,37.8996462 35.5374704,37.7750741 35.5121495,37.650502 C35.2082986,36.3051234 34.6765593,35.0095735 34.6005966,33.614366 C34.6005966,33.4897939 34.5752757,33.3652218 34.5499548,33.2406497 C34.4993129,33.0662487 34.3473874,33.0164199 34.170141,33.0662487 C33.7903273,33.140992 33.5371182,33.3901362 33.3345508,33.6641948 C32.8028116,34.386713 32.3217142,35.1092312 31.789975,35.7819205 C31.1569522,36.6290108 30.4479665,37.4262723 29.7643018,38.2235337 C29.6376973,38.3730202 29.5110927,38.5225067 29.4351299,38.6969077 C29.1819208,39.070624 28.8780698,39.3945115 28.3716515,39.4194259 C28.0424796,39.6436557 27.637345,39.6187412 27.2575313,39.6934845 C26.8017548,39.7682278 26.4219411,39.6436557 26.2193737,39.1951961 C26.1687319,39.070624 26.143411,38.9709663 25.9914855,38.9211375 C25.8648809,38.8962231 25.6876345,38.8214798 25.6876345,38.7218221 C25.5863509,38.3730202 25.257179,38.1986193 25.1305744,37.8747318 C24.5735143,36.5542676 24.345626,35.2088889 24.3203051,33.7638525 C24.2949842,32.2440729 24.4722306,30.7741221 24.7001189,29.3041713 C24.9786489,27.4605042 25.4091045,25.6666659 26.0927692,23.9226565 C26.3966202,23.1503095 26.6245084,22.353048 26.8777175,21.5308722 C27.637345,21.6554443 28.3716515,21.9295029 29.0806371,22.1786471 C30.0428319,22.527449 30.5492502,23.6236835 30.1187946,24.545517 C29.6123763,25.7164948 29.3085254,26.9622158 28.9287116,28.1830224 C28.4729352,29.6778876 28.1944051,31.2225816 27.915875,32.7672757 C27.7133077,33.913339 27.6879868,35.0594023 27.7133077,36.2054657 C27.7133077,36.3549522 27.7386286,36.4795243 27.7639496,36.6040964 C27.7892705,36.8034118 27.915875,36.878155 28.0931215,36.7784973 C28.4476143,36.5542676 28.827428,36.3549522 29.1819208,36.105808 C29.3591672,35.9812359 29.5617345,35.8566638 29.6883391,35.6822628 C30.8277803,34.3119697 31.8659378,32.8918478 32.6255652,31.2724105 C32.701528,31.0730951 32.8281325,30.8737798 32.8787744,30.64955 C33.2079463,29.4536578 33.7143646,28.3075945 33.9169319,27.0618735 C33.9675737,26.6881572 34.0941783,26.3393553 34.2461038,25.965639 C34.3473874,25.7164948 34.3980293,25.492265 34.3727084,25.2182064 C34.2967456,24.7946612 34.5246338,24.4956882 34.8284848,24.2216296 C35.081694,23.9973998 35.360224,24.0223142 35.6387541,24.0970575 C35.8413214,24.1468863 36.0692097,23.9973998 36.1958142,24.1967151 C36.3983816,24.545517 36.7528744,24.8195756 36.7275534,25.2929496 C36.6515907,25.9407246 36.6515907,26.5884995 36.575628,27.21136 C36.550307,27.6099907 36.550307,27.983707 36.6769116,28.3574233 C37.2846136,30.0516039 37.2846136,31.7956133 37.3605763,33.5645371 C37.3605763,34.1126544 37.3858972,34.6607716 37.4365391,35.1839744 C37.5125018,36.2802089 37.5125018,37.351529 37.3099345,38.3979346 Z M28.3210097,39.4194259 L28.3716515,39.4194259 L28.3210097,39.4194259 Z M40.424407,18.1175966 C40.9308253,18.1175966 41.4119227,18.0926822 41.8676992,18.1175966 C42.0702665,18.1175966 42.2475129,18.142511 42.4500802,18.1923399 C43.2603495,18.4165697 43.6401632,18.9148581 43.6148423,19.7619483 C43.5895214,20.5592098 43.5895214,21.3315568 43.5642005,22.1288183 C43.5642005,22.2533904 43.5135587,22.4277913 43.6908051,22.5772778 C43.9440142,22.5772778 44.0959397,22.3281336 44.3238279,22.2284759 C44.5517162,22.1288183 44.7796044,22.0042462 44.9821717,21.8547596 C45.2607018,21.6305299 45.5898737,21.5557866 45.9190456,21.4063001 C46.6533521,21.0824126 47.4129796,21.281728 48.1472861,21.4312145 C48.4511371,21.4810433 48.6283835,21.6803587 48.754988,21.9793317 C49.2107645,22.9260797 49.36269,23.9226565 49.1854436,24.9690622 C49.0335181,25.9158101 48.8309508,26.8127293 48.5777416,27.7096484 C48.4511371,28.1082791 48.2738907,28.457081 47.9700397,28.756054 C47.5395841,29.2543424 47.1597704,29.8024597 46.678673,30.2509192 C46.374822,30.5249779 46.3495011,30.8488653 46.5014266,31.1976672 C46.982524,32.3188161 47.1850913,33.5396227 47.5142632,34.7106005 C47.7674724,35.5327763 48.0206815,36.3798666 48.3245325,37.2020425 C48.780309,38.4726779 49.2614063,39.7183989 49.7678246,40.9641199 C49.9197501,41.3378362 50.0716756,41.7115525 50.1223175,42.1101833 C50.1476384,42.2347554 50.1729593,42.3593275 50.2236011,42.4838996 C50.9325867,43.9538504 51.742856,45.3490579 53.0848645,46.3954635 C53.3380737,46.5947789 53.6419246,46.8190087 53.9457756,46.9684952 C54.3255893,47.1428961 54.6041194,47.4418692 54.9079704,47.6910134 C55.2118214,47.9152432 55.1865004,48.264045 55.2371423,48.5381037 C55.313105,48.8121623 54.9332913,49.0613065 54.6547612,48.9865632 C54.5028357,48.9367344 54.3509103,48.91182 54.2243057,48.8121623 C53.2621109,47.9899864 52.1226697,47.4169548 51.1351541,46.6196933 C49.9957129,45.7227742 48.9575554,44.701283 48.1472861,43.5053908 C47.590226,42.6333861 47.0331658,41.7613814 46.5773894,40.8395478 C45.8684037,39.369597 45.2353809,37.8747318 44.6276789,36.3549522 C44.0959397,35.0344879 43.6908051,33.6392804 43.3869541,32.2440729 C43.3109913,31.9201854 43.1590658,31.5962979 43.0577822,31.2724105 C42.9818194,31.0481807 42.9818194,30.6744644 42.6779685,30.7242932 C42.4247593,30.7492076 42.4754011,31.1478384 42.4500802,31.3720682 L42.0702665,35.0095735 C42.0449456,35.15906 42.0702665,35.333461 42.0196247,35.4829475 C41.6398109,36.3300378 41.6651319,37.2518713 41.5891691,38.1487904 C41.5385273,38.771651 41.3866018,39.3945115 41.1840345,39.9675431 C41.1080717,40.2665162 41.032109,40.6900613 40.5256907,40.4658315 C40.4750489,40.4658315 40.3990861,40.4907459 40.3484443,40.5405748 C39.9686306,40.8893767 39.6647796,40.6900613 39.3356077,40.4658315 C39.1583613,40.3412594 39.0823985,40.1917729 39.0823985,39.9924575 C39.0570776,39.4692547 39.0570776,38.9460519 39.0317567,38.3979346 C38.955794,36.6290108 39.0064358,34.8351726 39.1077195,33.0662487 C39.2090031,31.2225816 39.4368913,29.403829 39.6141378,27.5601619 C39.7913842,25.7414092 40.0192724,23.8977421 40.2218397,22.0789894 C40.2978025,21.4810433 40.3990861,20.9080117 40.4497279,20.3100656 C40.5256907,19.6872051 40.6776162,19.089259 40.424407,18.4663985 C40.3737652,18.3667408 40.424407,18.2421687 40.424407,18.1175966 Z M42.8552149,29.4287434 C43.3869541,29.229428 43.8933724,29.2045136 44.3744698,29.2045136 C44.5517162,29.2045136 44.7289626,29.2543424 44.7542835,29.4287434 C44.8302462,29.7526308 45.0074926,29.702802 45.2353809,29.6031443 C45.6151946,29.4287434 45.8684037,29.1795992 45.9443665,28.756054 C45.9950083,28.5567387 46.096292,28.3574233 46.1722547,28.1581079 C46.9318822,26.6383283 47.1597704,25.018891 47.0838077,23.3247104 C47.0838077,23.2499672 47.0584867,23.1503095 47.0331658,23.0506518 C47.0078449,22.9011653 46.7799567,22.8015076 46.6533521,22.9011653 C46.096292,23.3745393 45.4126273,23.7233412 44.9821717,24.3960305 C44.3238279,25.4175217 43.7667678,26.4888418 43.2350286,27.5850763 C43.0831031,27.8591349 43.0324613,28.1830224 42.9058567,28.457081 C42.804573,28.756054 42.7792521,29.0550271 42.8552149,29.4287434 Z M67.821637,34.7853437 C67.8469579,35.0095735 67.8975997,35.2338033 67.9229207,35.4580331 C67.9482416,35.7071773 67.9735625,35.9563215 67.9229207,36.1556368 C67.8469579,36.4795243 67.6443906,36.7535829 67.5431069,37.052556 C67.4418233,37.3266146 67.5937488,37.650502 67.3658605,37.8996462 C67.2898978,37.9743895 67.239256,38.0491328 67.239256,38.1487904 C67.1632932,38.8962231 66.6821958,39.4941691 66.327703,40.1170296 C66.2264194,40.2914306 66.1757775,40.4409171 66.0998148,40.615318 C66.049173,40.7398901 65.9732102,40.8893767 65.8972475,41.0139488 C65.7959638,41.1634353 65.6440383,41.2381785 65.4667919,41.2880074 C64.8084481,41.4873228 64.3779926,42.1600121 63.5930442,42.03544 C63.4411187,42.0105256 63.3145141,41.9606967 63.2132305,41.8361246 C63.1879096,41.7613814 63.0866259,41.6617237 63.0359841,41.6617237 C62.2510357,41.736467 61.9471847,40.9890343 61.3394828,40.7648046 C61.2888409,40.7398901 61.2381991,40.6900613 61.2128782,40.6402325 C60.4532508,39.3945115 59.9468325,38.0989616 60.0227952,36.6040964 C60.0987579,35.4331186 60.1493998,34.2372265 60.2253625,33.0662487 C60.3013253,32.1195008 60.4279298,31.1727528 60.5292135,30.2260048 C60.5798553,29.9021174 60.6051762,29.5782299 60.6051762,29.2543424 C60.6558181,28.5816531 60.8330645,27.9089637 60.98499,27.2611888 C61.3394828,25.5670082 61.7192965,23.8977421 62.3776403,22.3032192 C62.9347004,20.9329261 63.5677233,19.6373762 64.6312017,18.5909706 C64.7578063,18.4414841 64.85909,18.2919976 64.9350527,18.1674255 C65.0616573,17.9930245 65.2389037,17.7937091 65.4161501,17.7687947 C66.2010984,17.6193082 66.9607259,17.2705063 67.7963161,17.4698217 C68.7838318,17.6940515 69.5181383,18.4414841 69.5434592,19.4380609 C69.5687801,20.3848088 69.6447429,21.3315568 69.4421756,22.2783048 C69.4168546,22.4277913 69.3915337,22.5772778 69.4168546,22.7267643 C69.4421756,23.6735123 69.2649292,24.6202603 69.2649292,25.5670082 C69.2396082,26.4639274 69.0623618,27.3359321 69.0370409,28.2079368 C69.01172,28.7809685 68.5559435,29.0051982 68.2014507,29.3041713 C68.1508089,29.3540001 68.0242043,29.3540001 67.9482416,29.3290857 C67.4671442,29.2045136 67.0113677,29.0301127 66.8088004,28.5318243 C66.6568749,28.1082791 66.5302703,27.684734 66.7834795,27.2611888 C66.8847631,27.1117023 66.9100841,26.9373014 66.935405,26.737986 C66.9860468,25.8410669 67.0620096,24.9192333 67.1126514,23.9973998 C67.1632932,23.2250528 67.239256,22.4527057 67.2645769,21.6803587 C67.2645769,21.1820703 67.213935,20.6837819 67.1632932,20.1854935 C67.1632932,20.1107502 67.0873305,20.0110925 67.0366886,19.9861781 C66.9607259,19.9612637 66.8341213,19.9861781 66.7834795,20.036007 C66.4796285,20.33498 66.2264194,20.6588675 66.0744939,21.0574982 C65.5933965,22.3032192 65.0363364,23.5240258 64.6565226,24.7946612 C64.555239,25.1434631 64.5299181,25.492265 64.4286344,25.8410669 C64.1754253,26.7130716 63.947537,27.6099907 63.6943279,28.4819954 C63.2891932,29.9021174 62.9853422,31.3471537 62.8587377,32.8420189 C62.757454,33.6641948 62.5802076,34.4863707 62.5548867,35.3085465 C62.5042449,36.404781 62.2510357,37.5259299 62.5042449,38.6470788 C62.5802076,39.0955384 62.6814913,39.5190836 62.9093795,39.9177143 C63.061305,40.1917729 63.2385514,40.2416017 63.4917605,40.0672008 C63.7956115,39.842971 64.1247834,39.6187412 64.3779926,39.3197682 C65.3655083,38.1737049 66.327703,37.0027271 67.1632932,35.7320917 C67.2898978,35.5576907 67.3911814,35.3832898 67.5431069,35.2088889 C67.6443906,35.0843168 67.6190697,34.860087 67.821637,34.7853437 Z M84.2295899,28.5069098 C84.3055526,28.5318243 84.3561945,28.6563964 84.2802317,28.7062252 C83.7231716,28.9802838 83.6978507,29.6280587 83.2420742,29.9768606 C83.0901487,30.1014327 83.1154696,30.3007481 83.0901487,30.475149 C82.9129023,31.4468114 82.7862977,32.4184738 82.5330886,33.3652218 C82.3811631,33.8635102 82.2545585,34.386713 82.102633,34.9099158 C82.0013494,35.2587177 81.8747448,35.6075196 81.6974984,35.9563215 C81.3936474,36.579182 81.1910801,37.2269569 81.0138337,37.8996462 C80.8365873,38.59725 80.4061317,39.1702817 80.0516389,39.7682278 C79.9503553,39.9675431 79.8743925,40.1170296 79.9250343,40.3412594 C79.9503553,40.6402325 79.6971461,40.6402325 79.5198997,40.6651469 C79.4692579,40.5654892 79.4692579,40.4658315 79.418616,40.4409171 C78.9121977,40.2914306 78.836235,39.8927999 78.8109141,39.4692547 C78.7602723,38.8962231 78.7855932,38.298277 78.8868768,37.7003309 C79.1654069,35.8317494 79.4692579,33.9631679 79.8490716,32.1195008 C79.8490716,32.0696719 79.8490716,32.0447575 79.8743925,32.0198431 C79.9756762,31.2973249 79.8997134,31.2724105 79.1654069,31.5215547 L78.3044958,31.7457845 C77.4689056,31.9201854 76.6586363,32.1195008 75.8230461,32.2440729 C75.4432324,32.3188161 75.265986,32.5430459 75.1900233,32.8918478 C75.0887396,33.2904785 74.9874559,33.6891092 74.9368141,34.1126544 C74.7342468,35.2088889 74.6076422,36.3300378 74.2278285,37.4013578 C74.1012239,37.7252453 73.9746193,38.0740472 73.9999402,38.4228491 C74.0505821,38.8463942 73.7467311,39.1453673 73.6201265,39.5190836 C73.5694847,39.6934845 73.3415965,39.7433133 73.1643501,39.6436557 C72.7085736,39.4194259 72.4300435,39.070624 72.2527971,38.59725 C71.8729834,37.5508444 71.7463788,36.4546099 71.7463788,35.3583754 C71.7463788,34.8351726 71.7970206,34.2870553 71.7970206,33.7638525 C71.7970206,33.5894516 71.6704161,33.4648795 71.5184906,33.5147083 C71.2146396,33.5645371 70.9107886,33.614366 70.6322586,33.7389381 C70.1511612,33.9382534 69.6447429,33.8884246 69.1383246,33.8635102 C68.5306226,33.8136813 68.0495252,33.5396227 67.7203533,33.0164199 C67.5684279,32.7423613 67.3658605,32.4683026 67.1886141,32.194244 C67.0366886,31.9700142 67.0873305,31.7457845 67.3405396,31.5962979 C67.4418233,31.5464691 67.5684279,31.4966403 67.6697115,31.4717258 C68.8851154,31.0232663 70.1005193,30.5997211 71.3665651,30.2758337 C71.4678488,30.2509192 71.5944533,30.2260048 71.7210579,30.176176 C72.1768344,30.0516039 72.4300435,29.8024597 72.5060063,29.2792569 C72.7845363,27.3359321 73.1643501,25.4175217 73.493522,23.4991114 C73.6454474,22.4776201 73.7467311,21.4312145 73.8733357,20.4097233 C73.9239775,19.9363493 73.8226938,19.4629753 73.772052,18.9896013 C73.6960893,18.3916552 73.772052,18.316912 74.3544331,18.0677678 C74.9874559,17.7937091 75.5445161,17.9930245 76.0256134,18.3667408 C76.5320317,18.790286 76.8612036,19.3384032 76.9371664,20.036007 C77.03845,20.9080117 77.0890919,21.7301875 76.9624873,22.6021922 C76.6839572,24.5953459 76.4054272,26.5884995 76.0256134,28.5567387 C76.0256134,28.6563964 76.0256134,28.7311396 76.0002925,28.8307973 C76.0002925,29.0799415 76.0762553,29.1795992 76.3041435,29.1546848 C76.8105618,29.1546848 77.342301,29.1546848 77.8233984,29.0799415 C78.3551376,29.0051982 78.8615559,28.9553694 79.3679742,28.930455 C79.5705415,28.930455 79.7731089,28.9055406 79.9756762,28.8557117 C80.2542062,28.8058829 80.3808108,28.6314819 80.4314526,28.3574233 C80.5327363,27.5601619 80.6593409,26.7878148 80.7859455,25.9905534 C80.9378709,24.9690622 81.0644755,23.9475709 81.216401,22.9011653 C81.2923638,22.4277913 81.3176847,21.9793317 81.1657592,21.5059578 C80.9885128,21.0076694 81.4442892,20.5841242 81.9760285,20.6588675 C83.7484925,20.9578405 84.5587618,22.2783048 84.2802317,23.6984267 C84.1029853,24.7448324 83.9257389,25.791238 83.7231716,26.8376437 L83.4952834,28.1581079 C83.4699624,28.3075945 83.5712461,28.3823377 83.6978507,28.4072522 C83.8750971,28.457081 84.0523435,28.457081 84.2295899,28.5069098 Z M79.5198997,40.6900613 L79.4945788,40.6651469 L79.5198997,40.6651469 L79.5198997,40.6900613 Z M94.1807095,24.2714584 C94.1553885,26.0902111 94.028784,27.4605042 93.9021794,28.8058829 C93.9021794,29.0051982 93.8515376,29.229428 93.8515376,29.4287434 C93.8008957,31.2724105 93.4970448,33.0911631 93.2438356,34.9099158 C93.1931938,35.3583754 93.117231,35.7819205 93.0919101,36.2303801 C93.0665892,36.8034118 93.0159474,37.351529 92.838701,37.8996462 C92.7627382,38.123876 92.7374173,38.3481058 92.7120964,38.59725 C92.6867755,38.9211375 92.6867755,39.2201105 92.4082454,39.4941691 C92.2056781,39.6934845 92.230999,40.0672008 92.2563199,40.316345 C92.3576036,41.088692 91.9777899,41.6118949 91.4966925,42.1101833 C91.4460506,42.1849265 91.3700879,42.2596698 91.3194461,42.3094986 C91.1675206,42.508814 91.0155951,42.4340707 90.8636696,42.334413 C90.2306467,41.8610391 89.8255121,41.2880074 89.7242284,40.4907459 C89.6229448,39.7931422 89.5216611,39.0955384 89.6482657,38.3730202 C89.7242284,37.8996462 89.7242284,37.4262723 89.7242284,36.9528983 C89.6989075,35.8566638 89.9014748,34.7604293 89.9267958,33.6641948 C89.9267958,33.4897939 89.8001912,33.3652218 89.6482657,33.4150506 C88.8633173,33.6392804 88.1036899,33.4897939 87.3187415,33.3403073 C87.0908533,33.2904785 86.862965,33.2655641 86.6097559,33.2157352 C86.1793003,33.140992 86.1539794,33.140992 86.0020539,33.5147083 C85.698203,34.2621409 85.4196729,35.0095735 85.1158219,35.7570061 C84.6347245,36.9778127 84.1536271,38.2235337 83.6472088,39.4692547 C83.5712461,39.6934845 83.4446415,39.8927999 83.3180369,40.0921152 C83.014186,40.6900613 82.4824468,40.9142911 81.8494239,40.9890343 C81.6974984,41.0139488 81.5455729,40.9641199 81.4442892,40.8395478 C81.0644755,40.4409171 80.7099827,40.017372 80.5833781,39.4692547 C80.5833781,39.4194259 80.5833781,39.3446826 80.6086991,39.2948538 C81.1404383,38.5474212 81.216401,37.6255876 81.5455729,36.8034118 C82.0013494,35.6573484 82.3811631,34.4614563 82.8622605,33.3153929 C83.0395069,32.8171045 83.1407905,32.2939017 83.5206043,31.8703566 C83.7231716,31.6212124 83.2167533,31.2225816 83.6725298,30.9983519 C84.0017017,30.8239509 84.0776644,30.5000634 84.2295899,30.2010904 C84.5840827,29.4287434 84.9132546,28.6314819 85.2677474,27.8591349 L86.9389278,24.1219719 C87.5213088,22.7516788 88.2556154,21.4561289 88.7873546,20.0609214 C88.8886382,19.7619483 89.0405637,19.4878897 89.0405637,19.1390878 C89.0658846,18.790286 89.2178101,18.5411418 89.6229448,18.4414841 C89.9774376,18.3667408 90.3825722,18.2919976 90.6357814,17.9431957 C90.6864232,17.9182813 90.7623859,17.8684524 90.8130278,17.8933668 C91.5220134,18.0428534 92.2563199,18.1175966 92.7627382,18.790286 C93.4464029,19.7121195 93.9021794,20.6837819 93.9781421,21.8049308 C94.0541049,22.7765932 94.2060304,23.7482556 94.1807095,24.2714584 Z M87.2680997,30.5748067 C87.8251598,30.7990365 88.4581827,30.948523 88.9899219,31.2724105 C89.1924892,31.3720682 89.4710193,31.3471537 89.6989075,31.2973249 C90.0027585,31.2724105 90.154684,31.1478384 90.2053258,30.8737798 C90.2306467,30.5997211 90.2559676,30.3256625 90.2559676,30.0765183 C90.2306467,28.457081 90.3066095,26.8127293 90.4078931,25.1932919 C90.458535,24.545517 90.4078931,23.8977421 90.4078931,23.2499672 C90.4078931,23.2001383 90.3572513,23.1503095 90.3066095,23.1253951 C90.2053258,23.0506518 90.1293631,23.1253951 90.1040422,23.2001383 C89.7495493,23.9724854 89.3697356,24.7697468 89.0405637,25.5420938 C88.8633173,25.9158101 88.66075,26.3144409 88.6101082,26.7130716 C88.5341454,27.1864456 88.356899,27.6099907 88.1796526,28.0584503 L87.4200252,29.8522885 C87.3187415,30.0516039 87.2427788,30.2758337 87.2680997,30.5748067 Z M95.6999644,29.2045136 C95.6999644,28.0086214 95.7506062,27.1117023 95.9531735,26.2147832 C96.1304199,25.3427785 96.3329872,24.4707738 96.5355546,23.6236835 C96.6115173,23.299796 96.712801,23.000823 96.8140846,22.6769355 C96.9406892,22.3281336 97.1432565,21.9793317 97.1432565,21.580701 C97.1179356,21.1820703 97.3711447,21.0076694 97.7003166,20.8581828 C97.7256376,20.8581828 97.7509585,20.8332684 97.7762794,20.8332684 C98.6878323,20.8830973 99.4981016,20.3598944 100.409655,20.3598944 C100.814789,20.3598944 101.194603,20.3598944 101.574417,20.4844665 C103.346881,20.9827549 104.71421,21.9544173 105.372554,23.7233412 C105.499158,24.072143 105.701726,24.3462017 105.929614,24.6202603 C106.182823,24.8444901 106.309428,25.1434631 106.410711,25.4673506 C106.91713,27.036959 107.119697,28.6563964 107.119697,30.2758337 C107.119697,31.2225816 106.967772,32.1444152 106.587958,33.0413343 C106.157502,34.0628255 105.676405,35.0344879 105.144666,36.0061503 C104.916777,36.4546099 104.942098,36.8283262 105.169987,37.2518713 C105.752368,38.4228491 106.132181,39.6685701 106.309428,40.9890343 C106.309428,41.1634353 106.38539,41.3129218 106.436032,41.4873228 C106.511995,41.8610391 106.587958,42.2347554 106.511995,42.6333861 C106.486674,42.8327014 106.461353,43.0569312 106.511995,43.2562466 C106.6386,43.7047061 106.208144,44.0036792 106.233465,44.4272243 C105.954935,44.5517964 105.727047,44.7511118 105.423196,44.701283 C105.068703,44.6265397 104.790173,44.4770532 104.638247,44.1531657 L104.334396,43.4057331 C104.055866,42.6333861 103.777336,41.8361246 103.574769,41.0388632 C103.422843,40.5405748 103.220276,40.0422864 103.017709,39.543998 C102.865783,39.1702817 102.612574,39.070624 102.207439,39.1951961 L101.878268,39.3446826 C101.549096,39.5190836 101.194603,39.543998 100.865431,39.369597 C100.713506,39.2948538 100.586901,39.2201105 100.434975,39.1951961 C99.8525944,39.1453673 99.4474598,38.7965654 99.092967,38.3979346 C98.8144369,38.0989616 98.5359068,37.8498174 98.2826977,37.5757588 C98.0548094,37.3266146 97.8269212,37.0774704 97.6243539,36.8283262 C96.6368382,35.4331186 96.1304199,33.8385958 95.9025317,32.194244 C95.7506062,31.122924 95.5480389,30.0266895 95.6999644,29.2045136 Z M103.346881,33.8635102 C103.448164,33.7389381 103.549448,33.6392804 103.625411,33.5147083 C103.701373,33.3901362 103.777336,33.2655641 103.827978,33.1160776 L104.283755,31.6959556 C104.638247,30.4004058 104.71421,29.0550271 104.739531,27.7345628 C104.739531,27.510333 104.764852,27.2611888 104.562285,27.0618735 C104.385038,26.9373014 104.207792,27.1117023 104.030545,27.0867879 C103.929262,27.036959 103.802657,27.0618735 103.676053,27.036959 C103.346881,26.9373014 103.017709,26.7878148 102.941746,26.4639274 C102.865783,26.0652967 102.688537,25.6666659 102.739179,25.2431208 C102.7645,24.9690622 102.688537,24.719918 102.587253,24.4707738 C102.384686,23.9226565 102.334044,23.9226565 101.776984,24.246544 C101.473133,24.3960305 101.295887,24.6202603 101.093319,24.8943189 C100.966715,25.0936343 100.916073,25.4424361 100.612222,25.4673506 C100.207087,25.5171794 100.156445,25.791238 100.055162,26.0902111 C99.7006689,27.2861032 99.5487434,28.5069098 99.3461761,29.7277164 C99.067646,31.4966403 99.371497,33.2157352 99.675348,34.9348302 C99.8019526,35.6573484 100.156445,36.3300378 100.586901,36.9279839 C100.637543,37.0276415 100.738826,37.1272992 100.865431,37.1023848 C101.346528,37.0774704 101.776984,36.4546099 101.625058,36.0061503 C101.371849,35.3085465 101.143961,34.6109428 100.865431,33.913339 C100.713506,33.5645371 100.713506,33.1659064 100.637543,32.7921901 C100.586901,32.5679603 100.789468,32.2440729 101.017356,32.1444152 C101.219924,32.0696719 101.346528,32.2191584 101.498454,32.3188161 C102.030193,32.7174468 102.561932,33.140992 103.017709,33.6641948 C103.093672,33.7389381 103.220276,33.7887669 103.346881,33.8635102 Z M120.539782,38.3979346 C120.48914,38.59725 120.615745,38.771651 120.514461,38.9958807 C119.678871,39.1453673 119.197773,38.6969077 118.868602,37.9993039 C118.81796,37.8996462 118.767318,37.7750741 118.741997,37.650502 C118.438146,36.3051234 117.906407,35.0095735 117.830444,33.614366 C117.830444,33.4897939 117.805123,33.3652218 117.779802,33.2406497 C117.72916,33.0662487 117.577235,33.0164199 117.399988,33.0662487 C117.020175,33.140992 116.766966,33.3901362 116.564398,33.6641948 C116.032659,34.386713 115.551562,35.1092312 115.019822,35.7819205 C114.3868,36.6290108 113.677814,37.4262723 112.994149,38.2235337 C112.867545,38.3730202 112.74094,38.5225067 112.664977,38.6969077 C112.411768,39.070624 112.107917,39.3945115 111.601499,39.4194259 C111.272327,39.6436557 110.867192,39.6187412 110.487379,39.6934845 C110.031602,39.7682278 109.651788,39.6436557 109.449221,39.1951961 C109.398579,39.070624 109.373258,38.9709663 109.221333,38.9211375 C109.094728,38.8962231 108.917482,38.8214798 108.917482,38.7218221 C108.816198,38.3730202 108.487026,38.1986193 108.360422,37.8747318 C107.803362,36.5542676 107.575473,35.2088889 107.550153,33.7638525 C107.524832,32.2440729 107.702078,30.7741221 107.929966,29.3041713 C108.208496,27.4605042 108.638952,25.6666659 109.322617,23.9226565 C109.626468,23.1503095 109.854356,22.353048 110.107565,21.5308722 C110.867192,21.6554443 111.601499,21.9295029 112.310485,22.1786471 C113.272679,22.527449 113.779098,23.6236835 113.348642,24.545517 C112.842224,25.7164948 112.538373,26.9622158 112.158559,28.1830224 C111.702783,29.6778876 111.424253,31.2225816 111.145722,32.7672757 C110.943155,33.913339 110.917834,35.0594023 110.943155,36.2054657 C110.943155,36.3549522 110.968476,36.4795243 110.993797,36.6040964 C111.019118,36.8034118 111.145722,36.878155 111.322969,36.7784973 C111.677462,36.5542676 112.057275,36.3549522 112.411768,36.105808 C112.589015,35.9812359 112.791582,35.8566638 112.918187,35.6822628 C114.057628,34.3119697 115.095785,32.8918478 115.855413,31.2724105 C115.931375,31.0730951 116.05798,30.8737798 116.108622,30.64955 C116.437794,29.4536578 116.944212,28.3075945 117.146779,27.0618735 C117.197421,26.6881572 117.324026,26.3393553 117.475951,25.965639 C117.577235,25.7164948 117.627877,25.492265 117.602556,25.2182064 C117.526593,24.7946612 117.754481,24.4956882 118.058332,24.2216296 C118.311541,23.9973998 118.590071,24.0223142 118.868602,24.0970575 C119.071169,24.1468863 119.299057,23.9973998 119.425662,24.1967151 C119.628229,24.545517 119.982722,24.8195756 119.957401,25.2929496 C119.881438,25.9407246 119.881438,26.5884995 119.805475,27.21136 C119.780154,27.6099907 119.780154,27.983707 119.906759,28.3574233 C120.514461,30.0516039 120.514461,31.7956133 120.590424,33.5645371 C120.590424,34.1126544 120.615745,34.6607716 120.666386,35.1839744 C120.742349,36.2802089 120.742349,37.351529 120.539782,38.3979346 Z M111.550857,39.4194259 L111.601499,39.4194259 L111.550857,39.4194259 Z M121.350051,36.2802089 C121.375372,35.4580331 121.501977,34.685686 121.653902,33.8884246 L121.88179,32.5679603 C121.932432,32.3437305 121.983074,32.1444152 122.084358,31.9450998 C122.286925,31.4966403 122.464171,31.0232663 122.388209,30.5000634 C122.362888,30.3256625 122.438851,30.1263471 122.464171,29.9519462 C122.793343,28.5318243 123.223799,27.1117023 123.654254,25.7164948 C123.780859,25.317864 123.907464,24.9192333 124.008747,24.4956882 C124.160673,23.9475709 124.413882,23.3994537 124.616449,22.8513364 C124.692412,22.6520211 124.819017,22.5772778 125.046905,22.5523634 C125.173509,22.5523634 125.300114,22.5025346 125.426719,22.4776201 C125.958458,22.3281336 126.464876,22.2035615 126.920652,22.6271067 C127.047257,22.7516788 127.224503,22.7267643 127.376429,22.6520211 C127.477713,22.6021922 127.578996,22.5772778 127.68028,22.527449 C129.376781,21.7052731 131.174566,21.1322415 132.921709,20.3848088 C133.580053,20.1107502 134.289039,19.9363493 134.998024,19.7121195 C135.377838,19.5875474 135.757652,19.4629753 136.162786,19.3633176 C136.365354,19.2885744 136.567921,19.2636599 136.795809,19.2387455 C136.973056,19.2387455 137.175623,19.4878897 137.074339,19.6373762 C136.871772,19.8865204 136.947735,20.2104079 136.770488,20.4595521 C136.618563,20.6837819 136.415996,20.8581828 136.314712,21.1571559 C136.26407,21.3564712 136.036182,21.4561289 135.808294,21.5308722 C135.529764,21.6305299 135.276554,21.8049308 135.099308,22.0291606 C134.744815,22.4776201 134.263718,22.7018499 133.7573,22.8762509 C133.276202,23.0755662 132.820426,23.3247104 132.38997,23.5489402 C131.073283,24.1967151 129.807237,24.8943189 128.439907,25.3926073 C128.287982,25.4673506 128.136056,25.5420938 127.984131,25.5670082 C127.351108,25.5670082 127.199183,25.965639 127.047257,26.4639274 C126.819369,27.2861032 126.515518,28.0833647 126.262309,28.8806261 L125.831853,30.3505769 C125.806532,30.5000634 125.933137,30.5997211 126.085062,30.5748067 L128.034773,30.0516039 C128.541191,29.9270318 129.047609,29.9021174 129.579349,29.9021174 C129.781916,29.9270318 129.857879,30.0266895 129.832558,30.2260048 C129.807237,30.4004058 129.731274,30.5498923 129.807237,30.6993788 C129.832558,30.7492076 129.832558,30.8239509 129.807237,30.8488653 C129.478065,31.0980095 129.376781,31.5713835 128.946326,31.7457845 C128.693117,31.8454421 128.465228,31.9949287 128.414586,32.3188161 C128.363945,32.4683026 128.212019,32.5430459 128.060094,32.6427036 C127.553675,32.9416766 127.021936,33.1908208 126.439555,33.3153929 C126.110383,33.3901362 125.75589,33.4150506 125.401398,33.3153929 C125.021584,33.1908208 124.996263,33.2157352 124.894979,33.6641948 C124.591128,34.6358572 124.489845,35.632434 124.287277,36.6040964 C124.236636,36.7784973 124.261956,36.9279839 124.261956,37.1023848 C124.261956,37.2269569 124.439203,37.3017002 124.565807,37.2269569 C124.768375,37.1023848 124.970942,36.9778127 125.173509,36.8283262 C126.56616,35.8068349 128.060094,34.9597447 129.655311,34.2870553 C130.085767,34.1126544 130.516222,33.9382534 130.971999,33.913339 C131.301171,33.8884246 131.351813,34.0129967 131.453096,34.3119697 C131.605022,34.7106005 131.377134,35.0594023 131.351813,35.4580331 C131.326492,35.7320917 131.073283,35.9563215 130.870715,36.1556368 C130.592185,36.404781 130.288334,36.6290108 130.136409,37.0027271 C130.085767,37.0774704 129.984483,37.1272992 129.8832,37.2020425 C128.718437,37.9743895 127.553675,38.7218221 126.388913,39.5190836 C125.882495,39.8678854 125.325435,40.017372 124.768375,40.1917729 C124.616449,40.2416017 124.489845,40.2166873 124.36324,40.2166873 C123.603613,40.1668585 122.945269,39.842971 122.41353,39.3197682 C121.729865,38.6221644 121.350051,37.7501597 121.350051,36.7535829 L121.350051,36.2802089 Z M151.684507,22.1288183 C151.709828,24.246544 151.709828,26.3891841 151.735149,28.5069098 C151.735149,29.7277164 151.583224,30.948523 151.507261,32.1444152 C151.456619,32.966591 151.304694,33.7887669 151.127447,34.5860284 C150.747633,36.3300378 150.342499,38.0491328 149.937364,39.7931422 C149.760118,40.5654892 149.354983,41.1883497 148.696639,41.6617237 C148.266184,41.9606967 147.937012,42.334413 147.379952,42.334413 L146.417757,42.2845842 C146.113906,42.0105256 145.708771,42.0603544 145.379599,41.8859535 C145.202353,41.8361246 145.050428,41.7862958 144.873181,41.7613814 C144.544009,41.7115525 144.265479,41.6118949 144.088233,41.3129218 C143.961628,41.088692 143.809703,41.2381785 143.683098,41.3876651 C143.45521,41.088692 143.126038,40.9890343 142.746224,41.0388632 C142.543657,41.088692 142.34109,41.0637776 142.113201,41.0388632 L142.34109,40.8395478 C142.493015,40.6900613 142.493015,40.5405748 142.315769,40.4907459 C141.859992,40.3910883 141.733388,40.0672008 141.632104,39.6685701 C141.378895,38.6969077 141.429537,37.7252453 141.834671,36.8034118 C142.011918,36.4296955 141.986597,35.9812359 142.265127,35.6573484 C142.391732,35.4829475 142.493015,35.4829475 142.61962,35.632434 C142.974113,35.9812359 143.075396,36.404781 142.923471,36.9030694 C142.61962,37.8747318 142.974113,38.7467365 143.45521,39.5689124 C143.607135,39.7931422 143.73374,39.9426287 143.961628,40.017372 C144.265479,40.1170296 144.518688,40.2416017 144.822539,40.3412594 C145.101069,40.4409171 145.278316,40.3412594 145.40492,40.0672008 C145.886018,38.771651 146.443078,37.5010155 146.696287,36.105808 C146.898854,34.9348302 147.126743,33.7887669 147.32931,32.6177892 C147.557198,31.1976672 147.835728,29.7526308 147.962333,28.3325089 C148.088937,26.3144409 148.215542,24.2963728 148.038296,22.3032192 C148.012975,21.9793317 148.038296,21.6554443 148.038296,21.3315568 L147.962333,17.7687947 C147.962333,17.6193082 147.962333,17.4698217 147.987654,17.3452496 C148.038296,17.071191 148.266184,16.9466189 148.519393,17.0213621 C148.848565,17.0961054 149.025811,17.3452496 149.304341,17.4947361 C149.836081,17.7937091 150.291857,18.1923399 150.696992,18.6906283 C151.127447,19.2387455 151.330014,19.8117772 151.507261,20.4346377 C151.659186,20.9827549 151.684507,21.5557866 151.684507,22.1288183 Z M146.974817,40.9890343 L147.025459,40.9392055 L146.949496,40.9392055 L146.974817,40.9890343 Z M142.06256,41.0637776 L142.037239,41.0139488 C142.06256,41.0139488 142.087881,41.0139488 142.113201,41.0388632 C142.087881,41.0388632 142.087881,41.0637776 142.06256,41.0637776 Z M143.708419,41.4125795 L143.683098,41.4125795 L143.683098,41.3876651 L143.708419,41.4125795 Z M145.582167,41.8112102 C145.65813,41.7613814 145.708771,41.6866381 145.632809,41.6118949 C145.632809,41.6118949 145.531525,41.6368093 145.506204,41.6866381 C145.455562,41.736467 145.40492,41.7862958 145.379599,41.8610391 C145.455562,41.8610391 145.531525,41.8361246 145.582167,41.8112102 Z M153.001195,36.2802089 C153.026516,35.4580331 153.15312,34.685686 153.305046,33.8884246 L153.532934,32.5679603 C153.583576,32.3437305 153.634218,32.1444152 153.735501,31.9450998 C153.938069,31.4966403 154.115315,31.0232663 154.039352,30.5000634 C154.014031,30.3256625 154.089994,30.1263471 154.115315,29.9519462 C154.444487,28.5318243 154.874943,27.1117023 155.305398,25.7164948 C155.432003,25.317864 155.558607,24.9192333 155.659891,24.4956882 C155.811816,23.9475709 156.065026,23.3994537 156.267593,22.8513364 C156.343556,22.6520211 156.47016,22.5772778 156.698048,22.5523634 C156.824653,22.5523634 156.951258,22.5025346 157.077862,22.4776201 C157.609601,22.3281336 158.11602,22.2035615 158.571796,22.6271067 C158.698401,22.7516788 158.875647,22.7267643 159.027573,22.6520211 C159.128856,22.6021922 159.23014,22.5772778 159.331424,22.527449 C161.027925,21.7052731 162.82571,21.1322415 164.572853,20.3848088 C165.231197,20.1107502 165.940182,19.9363493 166.649168,19.7121195 C167.028982,19.5875474 167.408795,19.4629753 167.81393,19.3633176 C168.016497,19.2885744 168.219065,19.2636599 168.446953,19.2387455 C168.624199,19.2387455 168.826767,19.4878897 168.725483,19.6373762 C168.522916,19.8865204 168.598878,20.2104079 168.421632,20.4595521 C168.269707,20.6837819 168.067139,20.8581828 167.965856,21.1571559 C167.915214,21.3564712 167.687326,21.4561289 167.459437,21.5308722 C167.180907,21.6305299 166.927698,21.8049308 166.750452,22.0291606 C166.395959,22.4776201 165.914862,22.7018499 165.408443,22.8762509 C164.927346,23.0755662 164.471569,23.3247104 164.041114,23.5489402 C162.724426,24.1967151 161.45838,24.8943189 160.091051,25.3926073 C159.939126,25.4673506 159.7872,25.5420938 159.635275,25.5670082 C159.002252,25.5670082 158.850326,25.965639 158.698401,26.4639274 C158.470513,27.2861032 158.166662,28.0833647 157.913452,28.8806261 L157.482997,30.3505769 C157.457676,30.5000634 157.58428,30.5997211 157.736206,30.5748067 L159.685916,30.0516039 C160.192335,29.9270318 160.698753,29.9021174 161.230492,29.9021174 C161.43306,29.9270318 161.509022,30.0266895 161.483701,30.2260048 C161.45838,30.4004058 161.382418,30.5498923 161.45838,30.6993788 C161.483701,30.7492076 161.483701,30.8239509 161.45838,30.8488653 C161.129209,31.0980095 161.027925,31.5713835 160.597469,31.7457845 C160.34426,31.8454421 160.116372,31.9949287 160.06573,32.3188161 C160.015088,32.4683026 159.863163,32.5430459 159.711237,32.6427036 C159.204819,32.9416766 158.67308,33.1908208 158.090699,33.3153929 C157.761527,33.3901362 157.407034,33.4150506 157.052541,33.3153929 C156.672728,33.1908208 156.647407,33.2157352 156.546123,33.6641948 C156.242272,34.6358572 156.140988,35.632434 155.938421,36.6040964 C155.887779,36.7784973 155.9131,36.9279839 155.9131,37.1023848 C155.9131,37.2269569 156.090347,37.3017002 156.216951,37.2269569 C156.419518,37.1023848 156.622086,36.9778127 156.824653,36.8283262 C158.217303,35.8068349 159.711237,34.9597447 161.306455,34.2870553 C161.736911,34.1126544 162.167366,33.9382534 162.623143,33.913339 C162.952314,33.8884246 163.002956,34.0129967 163.10424,34.3119697 C163.256165,34.7106005 163.028277,35.0594023 163.002956,35.4580331 C162.977635,35.7320917 162.724426,35.9563215 162.521859,36.1556368 C162.243329,36.404781 161.939478,36.6290108 161.787552,37.0027271 C161.736911,37.0774704 161.635627,37.1272992 161.534343,37.2020425 C160.369581,37.9743895 159.204819,38.7218221 158.040057,39.5190836 C157.533639,39.8678854 156.976579,40.017372 156.419518,40.1917729 C156.267593,40.2416017 156.140988,40.2166873 156.014384,40.2166873 C155.254756,40.1668585 154.596413,39.842971 154.064673,39.3197682 C153.381009,38.6221644 153.001195,37.7501597 153.001195,36.7535829 L153.001195,36.2802089 Z M178.018259,38.3979346 C177.967617,38.59725 178.094222,38.771651 177.992938,38.9958807 C177.157348,39.1453673 176.67625,38.6969077 176.347078,37.9993039 C176.296437,37.8996462 176.245795,37.7750741 176.220474,37.650502 C175.916623,36.3051234 175.384884,35.0095735 175.308921,33.614366 C175.308921,33.4897939 175.2836,33.3652218 175.258279,33.2406497 C175.207637,33.0662487 175.055712,33.0164199 174.878465,33.0662487 C174.498652,33.140992 174.245443,33.3901362 174.042875,33.6641948 C173.511136,34.386713 173.030039,35.1092312 172.498299,35.7819205 C171.865277,36.6290108 171.156291,37.4262723 170.472626,38.2235337 C170.346022,38.3730202 170.219417,38.5225067 170.143454,38.6969077 C169.890245,39.070624 169.586394,39.3945115 169.079976,39.4194259 C168.750804,39.6436557 168.345669,39.6187412 167.965856,39.6934845 C167.510079,39.7682278 167.130265,39.6436557 166.927698,39.1951961 C166.877056,39.070624 166.851735,38.9709663 166.69981,38.9211375 C166.573205,38.8962231 166.395959,38.8214798 166.395959,38.7218221 C166.294675,38.3730202 165.965503,38.1986193 165.838899,37.8747318 C165.281839,36.5542676 165.05395,35.2088889 165.028629,33.7638525 C165.003309,32.2440729 165.180555,30.7741221 165.408443,29.3041713 C165.686973,27.4605042 166.117429,25.6666659 166.801094,23.9226565 C167.104945,23.1503095 167.332833,22.353048 167.586042,21.5308722 C168.345669,21.6554443 169.079976,21.9295029 169.788961,22.1786471 C170.751156,22.527449 171.257575,23.6236835 170.827119,24.545517 C170.320701,25.7164948 170.01685,26.9622158 169.637036,28.1830224 C169.18126,29.6778876 168.902729,31.2225816 168.624199,32.7672757 C168.421632,33.913339 168.396311,35.0594023 168.421632,36.2054657 C168.421632,36.3549522 168.446953,36.4795243 168.472274,36.6040964 C168.497595,36.8034118 168.624199,36.878155 168.801446,36.7784973 C169.155939,36.5542676 169.535752,36.3549522 169.890245,36.105808 C170.067492,35.9812359 170.270059,35.8566638 170.396663,35.6822628 C171.536105,34.3119697 172.574262,32.8918478 173.33389,31.2724105 C173.409852,31.0730951 173.536457,30.8737798 173.587099,30.64955 C173.916271,29.4536578 174.422689,28.3075945 174.625256,27.0618735 C174.675898,26.6881572 174.802503,26.3393553 174.954428,25.965639 C175.055712,25.7164948 175.106354,25.492265 175.081033,25.2182064 C175.00507,24.7946612 175.232958,24.4956882 175.536809,24.2216296 C175.790018,23.9973998 176.068548,24.0223142 176.347078,24.0970575 C176.549646,24.1468863 176.777534,23.9973998 176.904139,24.1967151 C177.106706,24.545517 177.461199,24.8195756 177.435878,25.2929496 C177.359915,25.9407246 177.359915,26.5884995 177.283952,27.21136 C177.258631,27.6099907 177.258631,27.983707 177.385236,28.3574233 C177.992938,30.0516039 177.992938,31.7956133 178.068901,33.5645371 C178.068901,34.1126544 178.094222,34.6607716 178.144863,35.1839744 C178.220826,36.2802089 178.220826,37.351529 178.018259,38.3979346 Z M169.029334,39.4194259 L169.079976,39.4194259 L169.029334,39.4194259 Z M195.692257,22.0291606 C195.388406,22.1786471 195.236481,22.4527057 195.236481,22.7765932 C195.261802,23.2001383 195.059235,23.5489402 194.856667,23.8977421 C194.350249,24.7697468 193.869152,25.6666659 193.362733,26.5635851 C192.856315,27.4854186 192.501822,28.457081 192.046046,29.403829 C191.995404,29.5284011 191.944762,29.6529732 191.970083,29.7526308 C192.020725,30.4004058 191.691553,30.8986942 191.539627,31.4717258 C191.311739,32.1444152 190.957246,32.7672757 190.754679,33.439965 C190.450828,34.5860284 189.969731,35.6573484 189.817805,36.8532406 C189.792484,37.052556 189.741842,37.2767857 189.66588,37.4761011 C189.564596,37.824903 189.589917,38.123876 189.817805,38.4228491 C189.893768,38.5225067 189.94441,38.6470788 189.969731,38.771651 C190.020373,39.0207952 189.995052,39.2450249 189.792484,39.4443403 C189.539275,39.6934845 189.235424,39.7931422 188.906252,39.8678854 C188.551759,39.9675431 188.273229,39.9426287 187.969378,39.7433133 C187.74149,39.5938268 187.46296,39.543998 187.209751,39.4443403 C186.753975,39.2948538 186.450124,38.9958807 186.247556,38.5474212 C185.867742,37.650502 185.665175,36.7037541 185.51325,35.7570061 C185.285361,34.386713 185.057473,33.0164199 184.804264,31.6461268 C184.728301,31.2474961 184.576376,30.8737798 184.475092,30.475149 C184.449771,30.4253202 184.373808,30.3754913 184.323167,30.3754913 C184.297846,30.3754913 184.221883,30.4253202 184.221883,30.475149 C184.044637,31.4717258 183.842069,32.4932171 183.715465,33.4897939 C183.614181,34.4614563 183.436935,35.4082042 183.133084,36.3051234 C183.0318,36.6040964 182.981158,36.9279839 182.905195,37.2269569 C182.879875,37.3266146 182.879875,37.4761011 182.803912,37.5757588 C182.297493,38.2235337 182.094926,39.0457096 181.740433,39.7931422 C181.537866,40.2166873 181.461903,40.7398901 181.284657,41.1883497 C181.208694,41.3378362 181.08209,41.4125795 180.955485,41.5122372 C180.879522,41.562066 180.778239,41.562066 180.727597,41.4873228 C180.474388,41.2132641 180.195858,40.9890343 180.094574,40.615318 C179.942648,39.9675431 179.765402,39.3446826 179.740081,38.6719933 C179.689439,36.9778127 179.664118,35.2587177 179.917327,33.5645371 C180.145216,31.895271 180.297141,30.2260048 180.474388,28.5567387 L180.651634,27.5601619 C180.752918,27.0120446 180.778239,26.4639274 180.82888,25.8908957 C180.879522,25.0687198 181.056769,24.246544 181.234015,23.4243681 C181.335299,22.9509941 181.613829,22.6520211 182.120247,22.6520211 C182.626665,22.6769355 183.133084,22.527449 183.639502,22.6769355 C184.095278,22.8513364 184.449771,23.0506518 184.652339,23.5240258 C184.804264,23.8479133 184.98151,24.1718007 185.310682,24.3960305 C185.766459,24.719918 185.994347,25.2680352 186.196914,25.7663236 C186.804616,27.1615311 187.386997,28.5567387 187.918737,29.9768606 C188.171946,30.5997211 188.323871,31.2724105 188.349192,31.9700142 C188.374513,32.2689873 188.323871,32.5928747 188.653043,32.8669334 C189.10882,31.9949287 189.767163,31.3222393 190.298903,30.5249779 C190.400186,30.3754913 190.476149,30.2010904 190.552112,30.0266895 C191.311739,27.9587926 192.527143,26.1400399 193.53998,24.1967151 C193.565301,24.1219719 193.641263,24.0223142 193.691905,23.9724854 C194.248965,23.474197 194.6541,22.8762509 194.957951,22.1786471 C195.109876,21.8796741 195.413727,21.9295029 195.692257,22.0291606 Z M192.248613,36.2802089 C192.273934,35.4580331 192.400539,34.685686 192.552464,33.8884246 L192.780352,32.5679603 C192.830994,32.3437305 192.881636,32.1444152 192.98292,31.9450998 C193.185487,31.4966403 193.362733,31.0232663 193.286771,30.5000634 C193.26145,30.3256625 193.337412,30.1263471 193.362733,29.9519462 C193.691905,28.5318243 194.122361,27.1117023 194.552816,25.7164948 C194.679421,25.317864 194.806025,24.9192333 194.907309,24.4956882 C195.059235,23.9475709 195.312444,23.3994537 195.515011,22.8513364 C195.590974,22.6520211 195.717578,22.5772778 195.945467,22.5523634 C196.072071,22.5523634 196.198676,22.5025346 196.32528,22.4776201 C196.85702,22.3281336 197.363438,22.2035615 197.819214,22.6271067 C197.945819,22.7516788 198.123065,22.7267643 198.274991,22.6520211 C198.376274,22.6021922 198.477558,22.5772778 198.578842,22.527449 C200.275343,21.7052731 202.073128,21.1322415 203.820271,20.3848088 C204.478615,20.1107502 205.187601,19.9363493 205.896586,19.7121195 C206.2764,19.5875474 206.656214,19.4629753 207.061348,19.3633176 C207.263916,19.2885744 207.466483,19.2636599 207.694371,19.2387455 C207.871618,19.2387455 208.074185,19.4878897 207.972901,19.6373762 C207.770334,19.8865204 207.846297,20.2104079 207.66905,20.4595521 C207.517125,20.6837819 207.314557,20.8581828 207.213274,21.1571559 C207.162632,21.3564712 206.934744,21.4561289 206.706855,21.5308722 C206.428325,21.6305299 206.175116,21.8049308 205.99787,22.0291606 C205.643377,22.4776201 205.16228,22.7018499 204.655861,22.8762509 C204.174764,23.0755662 203.718988,23.3247104 203.288532,23.5489402 C201.971844,24.1967151 200.705799,24.8943189 199.338469,25.3926073 C199.186544,25.4673506 199.034618,25.5420938 198.882693,25.5670082 C198.24967,25.5670082 198.097744,25.965639 197.945819,26.4639274 C197.717931,27.2861032 197.41408,28.0833647 197.160871,28.8806261 L196.730415,30.3505769 C196.705094,30.5000634 196.831699,30.5997211 196.983624,30.5748067 L198.933335,30.0516039 C199.439753,29.9270318 199.946171,29.9021174 200.47791,29.9021174 C200.680478,29.9270318 200.75644,30.0266895 200.73112,30.2260048 C200.705799,30.4004058 200.629836,30.5498923 200.705799,30.6993788 C200.73112,30.7492076 200.73112,30.8239509 200.705799,30.8488653 C200.376627,31.0980095 200.275343,31.5713835 199.844888,31.7457845 C199.591678,31.8454421 199.36379,31.9949287 199.313148,32.3188161 C199.262506,32.4683026 199.110581,32.5430459 198.958656,32.6427036 C198.452237,32.9416766 197.920498,33.1908208 197.338117,33.3153929 C197.008945,33.3901362 196.654452,33.4150506 196.299959,33.3153929 C195.920146,33.1908208 195.894825,33.2157352 195.793541,33.6641948 C195.48969,34.6358572 195.388406,35.632434 195.185839,36.6040964 C195.135197,36.7784973 195.160518,36.9279839 195.160518,37.1023848 C195.160518,37.2269569 195.337765,37.3017002 195.464369,37.2269569 C195.666937,37.1023848 195.869504,36.9778127 196.072071,36.8283262 C197.464722,35.8068349 198.958656,34.9597447 200.553873,34.2870553 C200.984329,34.1126544 201.414784,33.9382534 201.870561,33.913339 C202.199733,33.8884246 202.250374,34.0129967 202.351658,34.3119697 C202.503584,34.7106005 202.275695,35.0594023 202.250374,35.4580331 C202.225054,35.7320917 201.971844,35.9563215 201.769277,36.1556368 C201.490747,36.404781 201.186896,36.6290108 201.034971,37.0027271 C200.984329,37.0774704 200.883045,37.1272992 200.781761,37.2020425 C199.616999,37.9743895 198.452237,38.7218221 197.287475,39.5190836 C196.781057,39.8678854 196.223997,40.017372 195.666937,40.1917729 C195.515011,40.2416017 195.388406,40.2166873 195.261802,40.2166873 C194.502174,40.1668585 193.843831,39.842971 193.312091,39.3197682 C192.628427,38.6221644 192.248613,37.7501597 192.248613,36.7535829 L192.248613,36.2802089 Z" id="pour-chaque-jeune" fill="#2999D5"></path>
                    <g id="Group-2" transform="translate(103.500000, 54.000000) rotate(-1.000000) translate(-103.500000, -54.000000) translate(14.000000, 46.000000)">
                        <rect id="Rectangle" fill="#000000" x="5.68434189e-14" y="1.95399252e-14" width="178.483121" height="15.6908238"></rect>
                        <g id="NOTRE-PLAN-DACTIONS" transform="translate(12.942551, 4.235193)" fill-rule="nonzero">
                            <path d="M-9.23705556e-14,0.111143335 L1.27814836,0.111143335 L2.95641272,4.70136308 L2.97864138,4.70136308 L2.97864138,0.111143335 L4.22344674,0.111143335 L4.22344674,8.13569214 L3.02309872,8.13569214 L1.26703402,3.12312772 L1.24480535,3.12312772 L1.24480535,8.13569214 L-9.23705556e-14,8.13569214 L-9.23705556e-14,0.111143335 Z M8.56780148,6.39488462e-14 C9.9348645,6.39488462e-14 10.6795248,0.855803681 10.6795248,2.0228087 L10.6795248,6.22402677 C10.6795248,7.35768879 9.9682075,8.24683547 8.56780148,8.24683547 C7.17850979,8.24683547 6.45607811,7.36880313 6.45607811,6.22402677 L6.45607811,2.03392303 C6.45607811,0.866918015 7.18962412,6.39488462e-14 8.56780148,6.39488462e-14 Z M7.83425546,2.04503737 L7.83425546,6.19068377 C7.83425546,6.77974345 8.0454278,7.04648745 8.56780148,7.04648745 C9.14574682,7.04648745 9.30134749,6.71305745 9.30134749,6.19068377 L9.30134749,2.0561517 C9.30134749,1.58934969 9.19020415,1.20034802 8.56780148,1.20034802 C8.0787708,1.20034802 7.83425546,1.42263469 7.83425546,2.04503737 Z M12.3786682,0.111143335 L16.4242856,0.111143335 L16.4242856,1.31149136 L15.0905656,1.31149136 L15.0905656,8.13569214 L13.7123882,8.13569214 L13.7123882,1.31149136 L12.3786682,1.31149136 L12.3786682,0.111143335 Z M18.1345433,0.111143335 L20.124009,0.111143335 C21.624444,0.111143335 22.4024474,0.78911768 22.4024474,2.47849638 C22.4024474,3.52324373 22.091246,4.19010374 21.4355004,4.50130508 L22.6025054,8.13569214 L21.2020994,8.13569214 L20.224038,4.81250642 C20.0462087,4.83473508 19.823922,4.84584942 19.5127207,4.84584942 L19.5127207,8.13569214 L18.1345433,8.13569214 L18.1345433,0.111143335 Z M19.5127207,1.24480535 L19.5127207,3.7121874 L20.0350943,3.7121874 C20.7686403,3.7121874 21.02427,3.41210039 21.02427,2.47849638 C21.02427,1.54489236 20.790869,1.24480535 19.9795227,1.24480535 L19.5127207,1.24480535 Z M24.5906214,0.111143335 L28.2805801,0.111143335 L28.2805801,1.31149136 L25.9687988,1.31149136 L25.9687988,3.37875739 L27.7470921,3.37875739 L27.7470921,4.57910541 L25.9687988,4.57910541 L25.9687988,6.93534412 L28.4361808,6.93534412 L28.4361808,8.13569214 L24.5906214,8.13569214 L24.5906214,0.111143335 Z M33.7905902,0.111143335 L35.8133989,0.111143335 C37.447206,0.111143335 38.2585523,0.766889013 38.2585523,2.47849638 C38.2585523,4.33459007 37.2804909,4.84584942 35.8133989,4.84584942 L35.1687676,4.84584942 L35.1687676,8.13569214 L33.7905902,8.13569214 L33.7905902,0.111143335 Z M35.1687676,1.24480535 L35.1687676,3.7121874 L35.6355696,3.7121874 C36.5358306,3.7121874 36.8803749,3.51212939 36.8803749,2.47849638 C36.8803749,1.40040602 36.5024876,1.24480535 35.6022266,1.24480535 L35.1687676,1.24480535 Z M40.1799823,0.111143335 L41.5581597,0.111143335 L41.5581597,6.93534412 L43.7254547,6.93534412 L43.7254547,8.13569214 L40.1799823,8.13569214 L40.1799823,0.111143335 Z M46.4137738,0.111143335 L48.1253811,0.111143335 L49.6035875,8.13569214 L48.2698675,8.13569214 L48.0253521,6.35739878 L46.5138028,6.35739878 L46.2692874,8.13569214 L44.9355674,8.13569214 L46.4137738,0.111143335 Z M47.2806918,1.71160736 L47.2584631,1.71160736 L46.7138608,5.15705076 L47.8252941,5.15705076 L47.2806918,1.71160736 Z M51.3027308,0.111143335 L52.5808792,0.111143335 L54.2591436,4.70136308 L54.2813722,4.70136308 L54.2813722,0.111143335 L55.5261776,0.111143335 L55.5261776,8.13569214 L54.3258296,8.13569214 L52.5697649,3.12312772 L52.5475362,3.12312772 L52.5475362,8.13569214 L51.3027308,8.13569214 L51.3027308,0.111143335 Z M61.1251023,0.111143335 L63.214597,0.111143335 C64.5816601,0.111143335 65.3485491,0.922489682 65.3485491,2.47849638 L65.3485491,5.7683391 C65.3485491,7.33546013 64.5816601,8.13569214 63.214597,8.13569214 L61.1251023,8.13569214 L61.1251023,0.111143335 Z M62.5032797,1.24480535 L62.5032797,7.00203012 L62.9700817,7.00203012 C63.7591994,7.00203012 63.9703717,6.66860011 63.9703717,5.92393977 L63.9703717,2.32289571 C63.9703717,1.53377803 63.7147421,1.24480535 62.9700817,1.24480535 L62.5032797,1.24480535 Z M67.4922658,0.111143335 L68.8037571,0.111143335 L68.8037571,1.42263469 L68.0368681,2.80081205 L67.4478084,2.80081205 L67.9924108,1.42263469 L67.4922658,1.42263469 L67.4922658,0.111143335 Z" id="NOTREPLAND" fill="#FFFFFF"></path>
                            <path d="M71.8921922,0.111143335 L73.6037995,0.111143335 L75.0820059,8.13569214 L73.7482859,8.13569214 L73.5037705,6.35739878 L71.9922212,6.35739878 L71.7477058,8.13569214 L70.4139858,8.13569214 L71.8921922,0.111143335 Z M72.7591102,1.71160736 L72.7368815,1.71160736 L72.1922792,5.15705076 L73.3037125,5.15705076 L72.7591102,1.71160736 Z M78.8928726,-3.90798505e-13 C80.171021,-3.90798505e-13 80.93791,0.900261015 80.93791,2.17840937 L80.93791,2.78969771 L79.5597326,2.78969771 L79.5597326,2.17840937 C79.5597326,1.57823536 79.3152173,1.20034802 78.8928726,1.20034802 C78.370499,1.20034802 78.1593266,1.45597769 78.1593266,2.04503737 L78.1593266,6.19068377 C78.1593266,6.77974345 78.370499,7.04648745 78.8928726,7.04648745 C79.437475,7.04648745 79.5597326,6.69082878 79.5597326,6.26848411 L79.5597326,5.26819409 L80.93791,5.26819409 L80.93791,6.22402677 C80.93791,7.35768879 80.2154783,8.24683547 78.8928726,8.24683547 C77.5035809,8.24683547 76.7811493,7.36880313 76.7811493,6.22402677 L76.7811493,2.0228087 C76.7811493,0.855803681 77.5258096,-3.90798505e-13 78.8928726,-3.90798505e-13 Z M82.7037394,0.111143335 L86.7493568,0.111143335 L86.7493568,1.31149136 L85.4156367,1.31149136 L85.4156367,8.13569214 L84.0374594,8.13569214 L84.0374594,1.31149136 L82.7037394,1.31149136 L82.7037394,0.111143335 Z M88.6485581,0.111143335 L90.0267355,0.111143335 L90.0267355,8.13569214 L88.6485581,8.13569214 L88.6485581,0.111143335 Z M94.5600339,-3.90798505e-13 C95.9270969,-3.90798505e-13 96.6717573,0.855803681 96.6717573,2.0228087 L96.6717573,6.22402677 C96.6717573,7.35768879 95.9604399,8.24683547 94.5600339,8.24683547 C93.1707422,8.24683547 92.4483105,7.36880313 92.4483105,6.22402677 L92.4483105,2.03392303 C92.4483105,0.866918015 93.1818565,-3.90798505e-13 94.5600339,-3.90798505e-13 Z M93.8264879,2.04503737 L93.8264879,6.19068377 C93.8264879,6.77974345 94.0376602,7.04648745 94.5600339,7.04648745 C95.1379792,7.04648745 95.2935799,6.71305745 95.2935799,6.19068377 L95.2935799,2.0561517 C95.2935799,1.58934969 95.1824366,1.20034802 94.5600339,1.20034802 C94.0710032,1.20034802 93.8264879,1.42263469 93.8264879,2.04503737 Z M98.9043886,0.111143335 L100.182537,0.111143335 L101.860801,4.70136308 L101.88303,4.70136308 L101.88303,0.111143335 L103.127835,0.111143335 L103.127835,8.13569214 L101.927487,8.13569214 L100.171423,3.12312772 L100.149194,3.12312772 L100.149194,8.13569214 L98.9043886,8.13569214 L98.9043886,0.111143335 Z M107.261018,-3.90798505e-13 C108.339108,-3.90798505e-13 109.039311,0.722431679 109.183797,1.94500837 L107.872306,2.0894947 C107.827849,1.50043503 107.527762,1.20034802 107.13876,1.20034802 C106.694187,1.20034802 106.449671,1.48932069 106.449671,1.97835137 C106.449671,2.46738204 106.771987,2.88972672 107.427733,3.42321473 C109.039311,4.72359175 109.250483,5.47936643 109.250483,6.19068377 C109.250483,7.47994646 108.405794,8.24683547 107.072074,8.24683547 C105.916183,8.24683547 105.071494,7.36880313 105.004808,6.02396877 L106.316299,5.8350251 C106.371871,6.65748578 106.694187,7.04648745 107.149874,7.04648745 C107.616676,7.04648745 107.938992,6.79085778 107.938992,6.31294144 C107.938992,5.7683391 107.594448,5.29042276 106.960931,4.77916342 C105.738354,3.78998773 105.13818,3.12312772 105.13818,2.00058003 C105.13818,0.722431679 105.916183,-3.90798505e-13 107.261018,-3.90798505e-13 Z" id="ACTIONS" fill="#2999D5"></path>
                            <path d="M116.672159,6.39488462e-14 C117.950307,6.39488462e-14 118.717196,0.900261015 118.717196,2.17840937 L118.717196,2.78969771 L117.339019,2.78969771 L117.339019,2.17840937 C117.339019,1.57823536 117.094504,1.20034802 116.672159,1.20034802 C116.149785,1.20034802 115.938613,1.45597769 115.938613,2.04503737 L115.938613,6.19068377 C115.938613,6.77974345 116.149785,7.04648745 116.672159,7.04648745 C117.216761,7.04648745 117.339019,6.69082878 117.339019,6.26848411 L117.339019,5.26819409 L118.717196,5.26819409 L118.717196,6.22402677 C118.717196,7.35768879 117.994765,8.24683547 116.672159,8.24683547 C115.282867,8.24683547 114.560436,7.36880313 114.560436,6.22402677 L114.560436,2.0228087 C114.560436,0.855803681 115.305096,6.39488462e-14 116.672159,6.39488462e-14 Z M121.205457,0.111143335 L122.583635,0.111143335 L122.583635,8.13569214 L121.205457,8.13569214 L121.205457,0.111143335 Z M124.471722,0.111143335 L128.517339,0.111143335 L128.517339,1.31149136 L127.183619,1.31149136 L127.183619,8.13569214 L125.805442,8.13569214 L125.805442,1.31149136 L124.471722,1.31149136 L124.471722,0.111143335 Z M132.33932,6.39488462e-14 C133.706383,6.39488462e-14 134.451044,0.855803681 134.451044,2.0228087 L134.451044,6.22402677 C134.451044,7.35768879 133.739726,8.24683547 132.33932,8.24683547 C130.950028,8.24683547 130.227597,7.36880313 130.227597,6.22402677 L130.227597,2.03392303 C130.227597,0.866918015 130.961143,6.39488462e-14 132.33932,6.39488462e-14 Z M131.605774,2.04503737 L131.605774,6.19068377 C131.605774,6.77974345 131.816947,7.04648745 132.33932,7.04648745 C132.917266,7.04648745 133.072866,6.71305745 133.072866,6.19068377 L133.072866,2.0561517 C133.072866,1.58934969 132.961723,1.20034802 132.33932,1.20034802 C131.85029,1.20034802 131.605774,1.42263469 131.605774,2.04503737 Z M136.127958,0.111143335 L137.528364,0.111143335 L138.495311,3.16758505 L138.51754,3.16758505 L139.44003,0.111143335 L140.840436,0.111143335 L139.173286,4.80139208 L139.173286,8.13569214 L137.795108,8.13569214 L137.795108,4.80139208 L136.127958,0.111143335 Z M142.51735,0.111143335 L146.207309,0.111143335 L146.207309,1.31149136 L143.895528,1.31149136 L143.895528,3.37875739 L145.673821,3.37875739 L145.673821,4.57910541 L143.895528,4.57910541 L143.895528,6.93534412 L146.36291,6.93534412 L146.36291,8.13569214 L142.51735,8.13569214 L142.51735,0.111143335 Z M148.351026,0.111143335 L149.629174,0.111143335 L151.307438,4.70136308 L151.329667,4.70136308 L151.329667,0.111143335 L152.574473,0.111143335 L152.574473,8.13569214 L151.374124,8.13569214 L149.61806,3.12312772 L149.595831,3.12312772 L149.595831,8.13569214 L148.351026,8.13569214 L148.351026,0.111143335 Z" id="CITOYEN" fill="#FFFFFF"></path>
                        </g>
                    </g>
                </g>
            </g>
        </g>
    </g>
</svg>