<svg xmlns="http://www.w3.org/2000/svg" xmlns:xlink="http://www.w3.org/1999/xlink" width="266" height="168" viewBox="0 0 266 168">
    <defs>
        <filter id="a" width="100%" height="100%" x="-1.1%" y="-1.8%" filterUnits="objectBoundingBox">
            <feOffset in="SourceAlpha" result="shadowOffsetOuter1"/>
            <feGaussianBlur in="shadowOffsetOuter1" result="shadowBlurOuter1" stdDeviation="1"/>
            <feColorMatrix in="shadowBlurOuter1" values="0 0 0 0 0 0 0 0 0 0 0 0 0 0 0 0 0 0 0.1 0"/>
        </filter>
    </defs>
    <g fill="none" fill-rule="evenodd">
        <g transform="translate(2 2)">
            <use fill="#000" filter="url(#a)" xlink:href="#b"/>
            <use fill="#F3F3F3" xlink:href="#b"/>
        </g>
        <path fill="#000" d="M64.932 67.414V51.706h3.683v15.853c0 1.542.624 2.298 1.961 2.298 1.337 0 1.96-.756 1.96-2.298V51.706h3.684v15.708c0 3.607-2.138 5.585-5.644 5.585-3.505 0-5.644-1.978-5.644-5.585zm18.18 5.294h-3.327V51.706h3.416l4.486 12.014h.06V51.706h3.327v21.002h-3.209l-4.693-13.119h-.06v13.119zm21.805 0H94.64V51.706h9.862v3.142h-6.179v5.41h4.753V63.4h-4.753v6.166h6.595v3.142zm20.617-13.992h-3.684v-1.629c0-1.774-.832-2.53-1.782-2.53-1.486 0-1.961.756-1.961 2.327V67.53c0 1.571.475 2.327 1.96 2.327 1.337 0 1.783-.756 1.783-2.123v-2.53h3.684v2.414c0 2.967-1.783 5.38-5.466 5.38-3.862 0-5.645-2.413-5.645-5.38V56.796c0-2.967 1.783-5.38 5.645-5.38 3.683 0 5.466 2.617 5.466 5.759v1.541zm7.426 13.992h-3.683V51.706h3.683v8.552h3.922v-8.552h3.683v21.002h-3.683V63.4h-3.922v9.308zm15.953-16.813l-1.456 9.017h2.97l-1.455-9.017h-.06zm-1.99 12.159l-.654 4.654h-3.565l3.951-21.002h4.575l3.951 21.002h-3.565l-.653-4.654h-4.04zm13.724 4.654h-3.327V51.706h3.416l4.486 12.014h.06V51.706h3.326v21.002H165.4l-4.694-13.119h-.059v13.119zm22.637-13.992H179.6v-1.629c0-1.774-.832-2.53-1.782-2.53-1.486 0-1.961.756-1.961 2.327V67.53c0 1.571.475 2.327 1.96 2.327 1.337 0 1.783-.756 1.783-2.123v-2.53h3.684v2.414c0 2.967-1.783 5.38-5.466 5.38-3.862 0-5.645-2.413-5.645-5.38V56.796c0-2.967 1.783-5.38 5.645-5.38 3.683 0 5.466 2.617 5.466 5.759v1.541zm14.021 13.992h-10.278V51.706h9.862v3.142h-6.179v5.41h4.753V63.4h-4.753v6.166h6.595v3.142z"/>
        <path fill="#2999D5" d="M33.6 83.88c.373-1.041.852-2.031 1.384-2.995.532-.938.585-1.954.559-2.996 0-.364-.24-.495-.585-.364-.852.312-1.543.807-2.155 1.432-.878.834-1.756 1.668-2.607 2.553a18.289 18.289 0 0 0-1.463 1.693c-.4.548-.506 1.225-.719 1.876-.585 1.797-.93 3.647-1.65 5.392-.079.157-.106.339-.132.521-.186.704-.346 1.433-.532 2.162-.08.235-.107.47-.08.73.027.52-.133.964-.559 1.302-.16.13-.292.287-.452.47-.851-.913-1.437-1.928-1.543-3.127-.133-1.328-.053-2.683.133-4.011.24-1.746.692-3.413 1.011-5.132.186-1.068.479-2.136.825-3.178.505-1.59.798-3.256 1.223-4.845.16-.548.213-1.12.08-1.694-.133-.573.4-.964 1.011-.807.984.234 1.65.807 2.102 1.667.133.208.213.469.319.677.532.938.505 1.902.266 2.892-.133.52-.266 1.016-.32 1.64.48-.103.72-.416.959-.702.425-.521.957-.964 1.463-1.407a5.425 5.425 0 0 1 2.234-1.277c1.17-.338 2.102-.026 2.847.86.771.886 1.144 1.876.851 3.022-.053.13-.053.286-.053.417.08 1.094-.426 2.005-.905 2.917-.372.703-.771 1.38-1.09 2.084-.453.964-1.197 1.693-2.022 2.345-.106.078-.266.182-.373.182-.505-.052-.904.234-1.303.443-.506.286-1.011.338-1.543-.026-.213-.157-.479-.287-.745-.417-.08-.052-.213-.104-.266-.182-.293-.678-.878-1.225-1.037-1.954-.027-.104-.054-.209-.054-.313 0-.052.027-.156.08-.182.027-.026.133-.052.186 0 .346.182.665.443 1.011.625.878.443 1.33.365 2.049-.286.638-.6 1.223-1.225 1.622-1.98.027 0 .08-.026.08-.026h-.106zm14.845-1.093c.266 1.068-.133 2.188-.239 3.334-.08.886-.532 1.72-.984 2.5-.4.652-.878 1.277-1.33 1.902-.24.365-.586.547-.878.808-.692.677-1.41 1.302-2.075 1.98-.745.755-1.65.99-2.58 1.25-.826.26-1.544 0-2.236-.443-.08-.052-.186-.104-.239-.182-.665-.73-1.277-1.459-1.57-2.475a14.187 14.187 0 0 1-.532-3.178c-.053-1.563.213-3.022.665-4.454.719-2.162 1.65-4.194 2.714-6.148.426-.834.904-1.667 1.543-2.37.293-.34.612-.626 1.064-.6.186 0 .372-.052.559-.13.24-.13.479-.104.718-.026.293.104.532.13.825.078.638-.13 1.41.625 1.383 1.38-.027.444.133.626.479.73.559.156.984.469 1.25 1.042.053.13.133.235.213.339 1.117 1.198 1.33 2.735 1.25 4.35v.313zm-6.251 1.51c-.586-.234-.931-.468-1.277-.833-.213-.234-.426-.156-.559.182-.266.652-.452 1.303-.718 1.954-.506 1.224-.719 2.527-.745 3.881-.027.495.08.964.16 1.46.053.286.212.52.399.703.239.286.452.338.771.156a5.39 5.39 0 0 0 .798-.547c1.596-1.407 3.006-3.022 4.044-4.976.798-1.458 1.25-3.047 1.357-4.767.053-.677-.027-1.328-.133-1.98-.08-.312-.187-.599-.346-.86-.187-.26-.373-.312-.586-.155-.505.416-1.01.807-1.33 1.458-.425.912-.93 1.772-1.303 2.683-.213.495-.665.886-.532 1.642zm20.005 8.076c-.053.208.08.39-.026.625-.878.156-1.384-.312-1.73-1.042a1.486 1.486 0 0 1-.133-.365c-.319-1.406-.878-2.76-.957-4.22 0-.13-.027-.26-.054-.39-.053-.183-.212-.235-.399-.183-.399.078-.665.339-.878.626-.558.755-1.064 1.51-1.622 2.214-.665.885-1.41 1.719-2.129 2.553-.133.156-.266.312-.345.495-.266.39-.586.729-1.118.755-.346.234-.771.208-1.17.287-.48.078-.878-.053-1.091-.521-.053-.13-.08-.235-.24-.287-.132-.026-.319-.104-.319-.208-.106-.365-.452-.547-.585-.886-.585-1.38-.825-2.787-.851-4.298-.027-1.59.16-3.126.399-4.663.292-1.928.745-3.803 1.463-5.627.32-.807.559-1.641.825-2.5.798.13 1.57.416 2.314.677 1.011.364 1.543 1.51 1.09 2.474-.531 1.225-.85 2.527-1.25 3.804-.478 1.563-.77 3.178-1.064 4.793-.212 1.198-.239 2.396-.212 3.595 0 .156.026.286.053.416.026.209.16.287.346.183.372-.235.771-.443 1.144-.704.186-.13.399-.26.532-.442 1.197-1.433 2.288-2.918 3.086-4.611.08-.209.212-.417.266-.652.345-1.25.878-2.448 1.09-3.75.054-.391.187-.756.346-1.147.107-.26.16-.495.133-.781-.08-.443.16-.756.48-1.042.265-.235.558-.209.85-.13.213.052.453-.105.586.104.212.364.585.65.558 1.146-.08.677-.08 1.354-.16 2.006-.026.416-.026.807.107 1.198.639 1.771.639 3.595.718 5.444 0 .573.027 1.146.08 1.694.08 1.146.08 2.266-.133 3.36zm-9.444 1.068h.053-.053zm12.716-22.272c.532 0 1.038-.027 1.517 0 .213 0 .399.026.612.078.85.234 1.25.755 1.223 1.64-.026.834-.026 1.642-.053 2.476 0 .13-.053.312.133.468.266 0 .426-.26.665-.364a3.61 3.61 0 0 0 .692-.391c.293-.234.638-.313.984-.469.772-.339 1.57-.13 2.341.026.32.052.506.26.639.573.479.99.638 2.032.452 3.126a24.96 24.96 0 0 1-.638 2.866c-.133.416-.32.781-.639 1.094-.452.52-.851 1.094-1.357 1.563-.319.286-.346.625-.186.99.506 1.172.718 2.448 1.064 3.673.266.86.532 1.745.852 2.605.478 1.328.984 2.63 1.516 3.933.16.39.32.782.372 1.198.027.13.054.26.107.391.745 1.537 1.596 2.996 3.006 4.09.266.208.585.443.904.599.4.182.692.495 1.011.755.32.235.293.6.346.886.08.287-.32.547-.612.469-.16-.052-.319-.078-.452-.182-1.01-.86-2.208-1.46-3.246-2.293-1.197-.937-2.287-2.005-3.139-3.256-.585-.912-1.17-1.823-1.65-2.787a73.752 73.752 0 0 1-2.048-4.69 26.753 26.753 0 0 1-1.303-4.297c-.08-.339-.24-.678-.346-1.016-.08-.235-.08-.625-.399-.573-.266.026-.213.442-.24.677l-.398 3.803c-.027.156 0 .339-.054.495-.399.886-.372 1.85-.452 2.787a7.604 7.604 0 0 1-.426 1.902c-.08.313-.16.756-.691.521a.29.29 0 0 0-.186.078c-.4.365-.719.157-1.065-.078a.56.56 0 0 1-.266-.495c-.026-.547-.026-1.094-.053-1.667-.08-1.85-.026-3.725.08-5.575.106-1.927.346-3.829.532-5.757.186-1.901.426-3.829.639-5.73.08-.626.186-1.225.239-1.85.08-.651.24-1.277-.027-1.928-.053-.104 0-.234 0-.364zm2.554 11.826c.559-.208 1.091-.234 1.596-.234.187 0 .373.052.4.234.08.339.266.287.505.182.399-.182.665-.442.745-.885.053-.209.16-.417.24-.625.797-1.59 1.037-3.283.957-5.054 0-.078-.027-.182-.053-.287-.027-.156-.266-.26-.4-.156-.585.495-1.303.86-1.755 1.563-.692 1.068-1.277 2.188-1.836 3.334-.16.287-.213.626-.346.912a1.846 1.846 0 0 0-.053 1.016zm26.23 5.6c.027.235.08.47.107.704.027.26.054.521 0 .73-.08.338-.292.625-.399.937-.106.287.053.625-.186.886-.08.078-.133.156-.133.26-.08.782-.585 1.407-.958 2.058-.106.183-.16.339-.24.521-.052.13-.132.287-.212.417-.106.156-.266.235-.452.287-.692.208-1.144.911-1.969.781-.16-.026-.292-.078-.399-.208-.026-.078-.133-.183-.186-.183-.825.079-1.144-.703-1.783-.937a.317.317 0 0 1-.133-.13c-.798-1.303-1.33-2.658-1.25-4.22.08-1.225.133-2.475.213-3.7.08-.99.213-1.98.32-2.97.052-.338.079-.677.079-1.015.053-.704.24-1.407.4-2.084.371-1.772.77-3.517 1.462-5.184.585-1.433 1.25-2.787 2.368-3.882.133-.156.24-.312.32-.442.132-.183.318-.391.505-.417.824-.156 1.622-.521 2.5-.313 1.038.235 1.81 1.016 1.836 2.058.026.99.106 1.98-.107 2.97-.026.156-.053.312-.026.469.026.99-.16 1.98-.16 2.97-.026.937-.213 1.849-.24 2.76-.026.6-.505.834-.877 1.147-.053.052-.186.052-.266.026-.506-.13-.984-.313-1.197-.834-.16-.443-.293-.885-.027-1.328.107-.157.133-.339.16-.547.053-.938.133-1.902.186-2.866.053-.807.133-1.615.16-2.422 0-.521-.054-1.042-.107-1.563 0-.079-.08-.183-.133-.209-.08-.026-.213 0-.266.052-.32.313-.585.652-.745 1.068-.505 1.303-1.09 2.58-1.49 3.908-.106.365-.133.73-.239 1.094-.266.912-.505 1.85-.771 2.761-.426 1.485-.745 2.996-.878 4.559-.107.86-.293 1.72-.32 2.579-.053 1.146-.319 2.318-.053 3.49.08.47.186.912.426 1.329.16.287.346.339.612.156.319-.234.665-.469.93-.781 1.038-1.199 2.05-2.423 2.927-3.751.133-.183.24-.365.4-.547.106-.13.08-.365.292-.443zm17.24-6.564c.08.026.133.157.053.209-.585.286-.612.963-1.09 1.328-.16.13-.134.339-.16.521-.187 1.016-.32 2.032-.586 3.022-.16.52-.292 1.068-.452 1.615-.106.365-.24.73-.426 1.094-.319.651-.532 1.329-.718 2.032-.186.73-.638 1.328-1.01 1.954-.107.208-.187.364-.134.599.027.312-.24.312-.425.338-.054-.104-.054-.208-.107-.234-.532-.156-.612-.573-.638-1.016a7.243 7.243 0 0 1 .08-1.85c.292-1.953.611-3.907 1.01-5.835 0-.052 0-.078.027-.104.106-.755.027-.781-.745-.52l-.904.234c-.878.182-1.73.39-2.608.52-.399.079-.585.313-.665.678-.106.417-.212.834-.266 1.276-.212 1.147-.345 2.319-.745 3.439-.133.339-.266.703-.239 1.068.053.443-.266.755-.399 1.146-.053.183-.293.235-.479.13-.479-.234-.771-.599-.958-1.094-.399-1.094-.532-2.24-.532-3.386 0-.547.054-1.12.054-1.667 0-.183-.133-.313-.293-.26-.32.051-.639.103-.931.234-.506.208-1.038.156-1.57.13-.638-.052-1.144-.339-1.49-.886-.16-.286-.372-.573-.558-.86-.16-.234-.107-.468.16-.625.106-.052.239-.104.345-.13 1.277-.469 2.554-.912 3.884-1.25.107-.026.24-.052.373-.104.479-.13.745-.391.824-.938.293-2.032.692-4.038 1.038-6.044.16-1.068.266-2.162.399-3.23.053-.495-.053-.99-.106-1.485-.08-.625 0-.703.611-.964.666-.286 1.25-.078 1.756.313.532.443.878 1.016.958 1.745.106.912.16 1.772.027 2.683-.293 2.084-.586 4.168-.985 6.226 0 .105 0 .183-.026.287 0 .26.08.365.319.339.532 0 1.09 0 1.596-.079.559-.078 1.09-.13 1.623-.156.213 0 .426-.026.638-.078.293-.052.426-.235.48-.521.106-.834.239-1.641.372-2.475.16-1.068.292-2.136.452-3.23.08-.495.106-.964-.053-1.459-.187-.52.292-.964.851-.885 1.862.312 2.714 1.693 2.42 3.178-.185 1.094-.372 2.188-.584 3.282l-.24 1.38c-.026.157.08.235.213.261.186.052.372.052.559.104zm-4.948 12.739l-.027-.027h.027v.027zm15.403-17.167c-.027 1.901-.16 3.334-.293 4.74 0 .21-.053.444-.053.652-.053 1.928-.373 3.83-.639 5.731-.053.469-.133.912-.16 1.38-.026.6-.08 1.173-.265 1.746-.08.234-.107.469-.133.73-.027.338-.027.65-.32.937-.212.209-.186.6-.16.86.107.807-.292 1.354-.797 1.875a1.5 1.5 0 0 1-.186.209c-.16.208-.32.13-.48.026-.664-.495-1.09-1.094-1.196-1.928-.107-.73-.213-1.459-.08-2.214.08-.495.08-.99.08-1.485-.027-1.146.186-2.292.212-3.438 0-.183-.133-.313-.292-.261-.825.234-1.623.078-2.448-.078-.24-.052-.479-.078-.745-.13-.452-.079-.478-.079-.638.312-.32.782-.612 1.563-.931 2.345-.506 1.276-1.011 2.579-1.543 3.881-.08.235-.213.443-.346.651-.32.626-.878.86-1.543.938a.446.446 0 0 1-.426-.156c-.399-.417-.771-.86-.904-1.433 0-.052 0-.13.026-.182.56-.782.639-1.746.985-2.605.479-1.199.878-2.449 1.383-3.647.186-.521.293-1.068.692-1.511.213-.26-.32-.677.16-.912.345-.182.425-.52.585-.833.372-.808.718-1.642 1.09-2.45l1.756-3.907c.612-1.432 1.384-2.787 1.942-4.246.107-.312.266-.599.266-.963.027-.365.186-.626.612-.73.373-.078.798-.156 1.064-.52.053-.027.133-.079.186-.053.745.156 1.517.235 2.049.938.718.964 1.197 1.98 1.277 3.152.08 1.016.24 2.032.213 2.579zm-7.263 6.59c.585.235 1.25.391 1.81.73.212.104.505.078.744.026.32-.026.479-.157.532-.443.027-.287.053-.573.053-.834-.026-1.693.053-3.412.16-5.105.053-.678 0-1.355 0-2.032 0-.052-.053-.104-.107-.13-.106-.079-.186 0-.212.078-.373.807-.772 1.64-1.118 2.448-.186.391-.399.808-.452 1.225-.08.495-.266.937-.452 1.406l-.798 1.876a1.332 1.332 0 0 0-.16.755zm8.859-1.432c0-1.25.053-2.189.266-3.126.186-.912.399-1.824.612-2.71.08-.338.186-.65.292-.99.133-.364.346-.729.346-1.146-.026-.416.24-.599.586-.755.026 0 .053-.026.08-.026.957.052 1.808-.495 2.766-.495.426 0 .825 0 1.224.13 1.862.521 3.299 1.537 3.99 3.387.133.364.346.65.586.937.266.235.399.548.505.886.532 1.641.745 3.335.745 5.028 0 .99-.16 1.953-.559 2.891a33.526 33.526 0 0 1-1.516 3.1c-.24.47-.213.86.026 1.303a12.38 12.38 0 0 1 1.198 3.907c0 .182.08.339.133.521.08.39.16.782.08 1.198-.027.209-.054.443 0 .652.132.469-.32.781-.293 1.224-.293.13-.532.339-.852.287-.372-.079-.665-.235-.824-.574l-.32-.781c-.292-.808-.585-1.641-.798-2.475a18.642 18.642 0 0 0-.585-1.563c-.16-.39-.425-.495-.851-.364l-.346.156c-.346.182-.718.208-1.064.026-.16-.078-.293-.156-.452-.182-.612-.053-1.038-.417-1.41-.834-.293-.313-.586-.573-.852-.86-.239-.26-.478-.52-.691-.781-1.038-1.459-1.57-3.126-1.81-4.845-.159-1.12-.372-2.267-.212-3.126zm8.034 4.87c.106-.13.213-.234.293-.364.08-.13.16-.26.212-.417l.48-1.484c.372-1.355.452-2.762.478-4.142 0-.235.027-.495-.186-.704-.186-.13-.372.052-.559.026-.106-.052-.24-.026-.372-.052-.346-.104-.692-.26-.772-.599-.08-.417-.266-.833-.212-1.276.026-.287-.054-.547-.16-.808-.213-.573-.266-.573-.851-.234-.32.156-.506.39-.719.677-.133.208-.186.573-.505.6-.426.051-.479.338-.585.65-.373 1.25-.532 2.527-.745 3.804-.293 1.85.026 3.647.346 5.444.133.755.505 1.459.957 2.084.053.104.16.208.293.182.505-.026.958-.677.798-1.146-.266-.73-.505-1.459-.798-2.188-.16-.365-.16-.781-.24-1.172-.053-.235.16-.573.4-.678.212-.078.345.079.505.183.559.417 1.117.86 1.596 1.407.08.078.213.13.346.208zm18.063 4.742c-.053.208.08.39-.026.625-.878.156-1.383-.312-1.73-1.042a1.486 1.486 0 0 1-.132-.365c-.32-1.406-.878-2.76-.958-4.22 0-.13-.027-.26-.053-.39-.053-.183-.213-.235-.4-.183-.398.078-.664.339-.877.626-.559.755-1.064 1.51-1.623 2.214-.665.885-1.41 1.719-2.128 2.553-.133.156-.266.312-.346.495-.266.39-.585.729-1.117.755-.346.234-.772.208-1.17.287-.48.078-.879-.053-1.092-.521-.053-.13-.08-.235-.24-.287-.132-.026-.318-.104-.318-.208-.107-.365-.453-.547-.586-.886-.585-1.38-.824-2.787-.85-4.298-.027-1.59.159-3.126.398-4.663.293-1.928.745-3.803 1.463-5.627.32-.807.559-1.641.825-2.5.798.13 1.57.416 2.314.677 1.011.364 1.543 1.51 1.091 2.474-.532 1.225-.851 2.527-1.25 3.804-.479 1.563-.772 3.178-1.064 4.793-.213 1.198-.24 2.396-.213 3.595 0 .156.027.286.053.416.027.209.16.287.346.183.372-.235.771-.443 1.144-.704.186-.13.399-.26.532-.442 1.197-1.433 2.288-2.918 3.086-4.611.08-.209.213-.417.266-.652.346-1.25.878-2.448 1.09-3.75.054-.391.187-.756.347-1.147.106-.26.16-.495.133-.781-.08-.443.16-.756.478-1.042.266-.235.56-.209.852-.13.213.052.452-.105.585.104.213.364.585.65.559 1.146-.08.677-.08 1.354-.16 2.006-.027.416-.027.807.106 1.198.639 1.771.639 3.595.719 5.444 0 .573.026 1.146.08 1.694.08 1.146.08 2.266-.134 3.36zM140.2 93.44h.054-.054zm10.296-3.282c.026-.86.16-1.667.319-2.501l.24-1.38c.053-.235.106-.444.212-.652.213-.469.4-.964.32-1.51-.027-.183.053-.392.08-.574.345-1.485.797-2.97 1.25-4.428.133-.417.266-.834.372-1.277.16-.573.426-1.146.639-1.719.08-.208.212-.287.452-.313.133 0 .266-.052.399-.078.559-.156 1.09-.286 1.57.157.132.13.319.104.478.026.107-.053.213-.079.32-.13 1.782-.86 3.67-1.46 5.506-2.241.692-.287 1.437-.469 2.182-.703.399-.13.798-.26 1.224-.365.212-.078.425-.104.665-.13.186 0 .399.26.292.417-.213.26-.133.599-.319.86-.16.234-.372.416-.479.729-.053.208-.292.312-.532.39a1.673 1.673 0 0 0-.745.521c-.372.47-.878.704-1.41.886-.505.208-.984.469-1.436.703-1.384.678-2.714 1.407-4.15 1.928-.16.078-.32.156-.48.182-.664 0-.824.417-.984.938-.239.86-.558 1.693-.824 2.527l-.452 1.537c-.027.156.106.26.266.234l2.048-.547c.532-.13 1.064-.156 1.623-.156.213.026.292.13.266.339-.027.182-.107.338-.027.495.027.052.027.13 0 .156-.346.26-.452.755-.904.938-.266.104-.506.26-.559.599-.053.156-.213.234-.372.338-.532.313-1.091.574-1.703.704-.346.078-.718.104-1.09 0-.4-.13-.426-.104-.533.365-.319 1.015-.425 2.057-.638 3.073-.053.183-.027.339-.027.521 0 .13.186.209.32.13.212-.13.425-.26.638-.416a23.158 23.158 0 0 1 4.709-2.657c.452-.183.904-.365 1.383-.391.346-.026.399.104.505.417.16.417-.08.781-.106 1.198-.027.287-.293.521-.505.73-.293.26-.612.494-.772.885-.053.078-.16.13-.266.209-1.224.807-2.447 1.589-3.671 2.422-.532.365-1.118.521-1.703.704-.16.052-.292.026-.425.026-.799-.053-1.49-.391-2.049-.938-.718-.73-1.117-1.641-1.117-2.683v-.495zm31.87-14.796c.027 2.214.027 4.454.053 6.668 0 1.277-.16 2.553-.239 3.803-.053.86-.213 1.72-.399 2.553-.399 1.824-.825 3.621-1.25 5.445a3.207 3.207 0 0 1-1.304 1.953c-.452.313-.798.704-1.383.704l-1.011-.052c-.32-.287-.745-.235-1.09-.417-.187-.052-.347-.104-.533-.13-.346-.052-.638-.157-.825-.47-.133-.234-.292-.077-.425.079-.24-.313-.586-.417-.985-.365-.212.052-.425.026-.665 0l.24-.208c.16-.156.16-.313-.027-.365-.479-.104-.612-.443-.718-.86-.266-1.015-.213-2.031.213-2.995.186-.391.16-.86.452-1.199.133-.182.24-.182.372-.026.373.365.48.808.32 1.329-.32 1.016.053 1.928.558 2.787.16.235.293.391.532.47.32.103.586.234.905.338.292.104.479 0 .612-.287.505-1.354 1.09-2.683 1.356-4.142.213-1.224.453-2.422.666-3.647.239-1.484.532-2.995.665-4.48.133-2.11.266-4.22.08-6.304-.027-.339 0-.677 0-1.016l-.08-3.725c0-.156 0-.313.026-.443.053-.287.293-.417.559-.339.346.078.532.339.825.495.558.313 1.037.73 1.463 1.25.452.574.665 1.173.851 1.824.16.573.186 1.172.186 1.772zm-4.948 19.72l.053-.053h-.08l.027.052zm-5.16.077l-.028-.052c.027 0 .054 0 .08.026-.026 0-.026.026-.053.026zm1.728.365h-.026v-.026l.026.026zm1.969.417c.08-.052.133-.13.053-.209 0 0-.106.026-.133.078-.053.053-.106.105-.133.183a.51.51 0 0 0 .213-.052zm7.795-5.783c.026-.86.16-1.667.319-2.501l.24-1.38c.053-.235.106-.444.212-.652.213-.469.4-.964.32-1.51-.027-.183.053-.392.08-.574.345-1.485.797-2.97 1.25-4.428.133-.417.266-.834.372-1.277.16-.573.426-1.146.638-1.719.08-.208.213-.287.453-.313.133 0 .266-.052.399-.078.558-.156 1.09-.286 1.57.157.132.13.319.104.478.026.107-.053.213-.079.32-.13 1.782-.86 3.67-1.46 5.506-2.241.692-.287 1.437-.469 2.182-.703.399-.13.798-.26 1.223-.365.213-.078.426-.104.666-.13.186 0 .399.26.292.417-.213.26-.133.599-.32.86-.159.234-.372.416-.478.729-.053.208-.293.312-.532.39a1.673 1.673 0 0 0-.745.521c-.372.47-.878.704-1.41.886-.505.208-.984.469-1.436.703-1.384.678-2.714 1.407-4.15 1.928-.16.078-.32.156-.48.182-.664 0-.824.417-.984.938-.24.86-.558 1.693-.824 2.527l-.453 1.537c-.026.156.107.26.266.234l2.049-.547c.532-.13 1.064-.156 1.623-.156.212.026.292.13.266.339-.027.182-.107.338-.027.495.027.052.027.13 0 .156-.346.26-.452.755-.904.938-.266.104-.506.26-.56.599-.052.156-.212.234-.372.338-.532.313-1.09.574-1.702.704-.346.078-.718.104-1.09 0-.4-.13-.427-.104-.533.365-.32 1.015-.426 2.057-.638 3.073-.054.183-.027.339-.027.521 0 .13.186.209.32.13.212-.13.425-.26.638-.416a23.158 23.158 0 0 1 4.708-2.657c.453-.183.905-.365 1.384-.391.346-.026.399.104.505.417.16.417-.08.781-.106 1.198-.027.287-.293.521-.506.73-.292.26-.611.494-.771.885-.053.078-.16.13-.266.209-1.224.807-2.448 1.589-3.671 2.422-.532.365-1.118.521-1.703.704-.16.052-.293.026-.426.026-.798-.053-1.49-.391-2.048-.938-.718-.73-1.117-1.641-1.117-2.683v-.495zm26.283 2.214c-.053.208.08.39-.026.625-.878.156-1.383-.312-1.73-1.042a1.486 1.486 0 0 1-.132-.365c-.32-1.406-.878-2.76-.958-4.22 0-.13-.027-.26-.053-.39-.053-.183-.213-.235-.4-.183-.398.078-.664.339-.877.626-.559.755-1.064 1.51-1.623 2.214-.665.885-1.41 1.719-2.128 2.553-.133.156-.266.312-.346.495-.266.39-.585.729-1.117.755-.346.234-.772.208-1.171.287-.479.078-.878-.053-1.09-.521-.054-.13-.08-.235-.24-.287-.133-.026-.32-.104-.32-.208-.106-.365-.452-.547-.585-.886-.585-1.38-.824-2.787-.85-4.298-.028-1.59.159-3.126.398-4.663.293-1.928.745-3.803 1.463-5.627.32-.807.559-1.641.825-2.5.798.13 1.57.416 2.314.677 1.011.364 1.543 1.51 1.091 2.474-.532 1.225-.851 2.527-1.25 3.804-.479 1.563-.772 3.178-1.064 4.793-.213 1.198-.24 2.396-.213 3.595 0 .156.027.286.053.416.027.209.16.287.346.183.372-.235.771-.443 1.144-.704.186-.13.399-.26.532-.442 1.197-1.433 2.288-2.918 3.086-4.611.08-.209.213-.417.266-.652.346-1.25.878-2.448 1.09-3.75.054-.391.187-.756.346-1.147.107-.26.16-.495.134-.781-.08-.443.16-.756.478-1.042.266-.235.559-.209.852-.13.212.052.452-.105.585.104.213.364.585.65.559 1.146-.08.677-.08 1.354-.16 2.006-.027.416-.027.807.106 1.198.639 1.771.639 3.595.719 5.444 0 .573.026 1.146.08 1.694.08 1.146.08 2.266-.134 3.36zm-9.444 1.068h.054-.054zm28.013-18.183a.83.83 0 0 0-.478.782c.026.443-.187.807-.4 1.172-.532.912-1.037 1.85-1.57 2.787-.531.964-.904 1.98-1.382 2.97-.054.13-.107.26-.08.365.053.677-.293 1.198-.452 1.797-.24.703-.612 1.355-.825 2.058-.32 1.198-.825 2.318-.984 3.569a2.91 2.91 0 0 1-.16.651c-.107.365-.08.677.16.99.08.104.133.234.16.365.052.26.026.495-.187.703-.266.26-.585.365-.931.443-.373.104-.665.078-.985-.13-.239-.157-.532-.209-.798-.313-.478-.156-.798-.469-1.01-.938-.4-.938-.612-1.927-.772-2.917-.24-1.433-.479-2.866-.745-4.299-.08-.416-.24-.807-.346-1.224-.026-.052-.106-.104-.16-.104-.026 0-.106.052-.106.104-.186 1.042-.399 2.11-.532 3.152-.106 1.016-.292 2.006-.612 2.944-.106.312-.16.651-.24.964-.026.104-.026.26-.106.364-.532.678-.744 1.537-1.117 2.319-.213.443-.293.99-.479 1.459-.08.156-.213.234-.346.338-.08.052-.186.052-.239-.026-.266-.286-.559-.52-.665-.912-.16-.677-.346-1.328-.373-2.032-.053-1.77-.08-3.568.187-5.34.24-1.745.399-3.49.585-5.236l.186-1.042c.107-.573.133-1.146.186-1.745.054-.86.24-1.72.426-2.579.106-.495.4-.807.931-.807.532.026 1.064-.13 1.596.026.48.182.852.39 1.064.885.16.339.346.678.692.912.479.339.718.912.931 1.433a90.21 90.21 0 0 1 1.81 4.402c.265.651.425 1.355.452 2.084.026.313-.027.651.319.938.479-.912 1.17-1.615 1.729-2.449.106-.156.186-.338.266-.52.798-2.163 2.075-4.064 3.14-6.096a.738.738 0 0 1 .159-.235c.585-.52 1.01-1.146 1.33-1.875.16-.313.479-.26.771-.157zm-3.618 14.9c.027-.859.16-1.666.32-2.5l.24-1.38c.052-.235.105-.444.212-.652.213-.469.399-.964.32-1.51-.027-.183.052-.392.079-.574.346-1.485.798-2.97 1.25-4.428.133-.417.266-.834.373-1.277.16-.573.425-1.146.638-1.719.08-.208.213-.287.452-.313.133 0 .266-.052.4-.078.558-.156 1.09-.286 1.57.157.132.13.318.104.478.026.106-.053.213-.079.32-.13 1.782-.86 3.67-1.46 5.506-2.241.692-.287 1.437-.469 2.181-.703.4-.13.799-.26 1.224-.365.213-.078.426-.104.665-.13.186 0 .4.26.293.417-.213.26-.133.599-.32.86-.159.234-.372.416-.478.729-.053.208-.293.312-.532.39a1.673 1.673 0 0 0-.745.521c-.373.47-.878.704-1.41.886-.506.208-.984.469-1.437.703-1.383.678-2.713 1.407-4.15 1.928-.16.078-.319.156-.479.182-.665 0-.824.417-.984.938-.24.86-.559 1.693-.825 2.527l-.452 1.537c-.026.156.107.26.266.234l2.049-.547c.532-.13 1.064-.156 1.622-.156.213.026.293.13.266.339-.026.182-.106.338-.026.495.026.052.026.13 0 .156-.346.26-.452.755-.905.938-.266.104-.505.26-.558.599-.054.156-.213.234-.373.338-.532.313-1.09.574-1.702.704-.346.078-.719.104-1.091 0-.4-.13-.426-.104-.532.365-.32 1.015-.426 2.057-.639 3.073-.053.183-.026.339-.026.521 0 .13.186.209.319.13.213-.13.426-.26.638-.416a23.158 23.158 0 0 1 4.71-2.657c.451-.183.904-.365 1.383-.391.345-.026.399.104.505.417.16.417-.08.781-.106 1.198-.027.287-.293.521-.506.73-.292.26-.612.494-.771.885-.054.078-.16.13-.266.209-1.224.807-2.448 1.589-3.672 2.422-.532.365-1.117.521-1.702.704-.16.052-.293.026-.426.026-.798-.053-1.49-.391-2.048-.938-.719-.73-1.118-1.641-1.118-2.683v-.495z"/>
    </g>
</svg>
