<?xml version="1.0" encoding="UTF-8"?>
<svg width="266px" height="168px" viewBox="0 0 266 168" version="1.1" xmlns="http://www.w3.org/2000/svg" xmlns:xlink="http://www.w3.org/1999/xlink">
    <!-- Generator: Sketch 55 (78076) - https://sketchapp.com -->
    <title>CTA_aines_dk</title>
    <desc>Created with Sketch.</desc>
    <defs>
        <filter x="-1.1%" y="-1.8%" width="102.3%" height="103.7%" filterUnits="objectBoundingBox" id="filter-2">
            <feOffset dx="0" dy="0" in="SourceAlpha" result="shadowOffsetOuter1"></feOffset>
            <feGaussianBlur stdDeviation="1" in="shadowOffsetOuter1" result="shadowBlurOuter1"></feGaussianBlur>
            <feColorMatrix values="0 0 0 0 0   0 0 0 0 0   0 0 0 0 0  0 0 0 0.1 0" type="matrix" in="shadowBlurOuter1"></feColorMatrix>
        </filter>
    </defs>
    <g id="home" stroke="none" stroke-width="1" fill="none" fill-rule="evenodd">
        <g id="CTA_aines_dk" transform="translate(2.000000, 2.000000)">
            <g id="CTA_aines">
                <g id="Rectangle">
                    <use fill="black" fill-opacity="1" filter="url(#filter-2)" xlink:href="#path-1"></use>
                    <use fill="#F3F3F3" fill-rule="evenodd" xlink:href="#path-1"></use>
                </g>
                <g id="logo-aines" transform="translate(43.000000, 59.000000)">
                    <path d="M6.78693182,6.0932977 C6.29829301,6.0932977 5.92329676,6.30040911 5.66193182,6.71463816 C5.40056688,7.1288672 5.26988636,7.81829287 5.26988636,8.78293586 C5.26988636,9.74757884 5.4048282,10.4327488 5.67471591,10.8384663 C5.94460362,11.2441838 6.35795176,11.4470395 6.91477273,11.4470395 C7.07386443,11.4470395 7.23579463,11.4215052 7.40056818,11.3704359 C7.56534173,11.3193665 7.71448797,11.2441822 7.84801136,11.1448808 C7.98153476,11.0455793 8.09232911,10.9179079 8.18039773,10.7618627 C8.26846635,10.6058175 8.31818176,10.4228218 8.32954545,10.2128701 L11.0823864,10.2128701 C10.9005673,11.4782547 10.3906292,12.4130932 9.55255682,13.0174137 C8.71448445,13.6217341 7.51989412,13.9238898 5.96875,13.9238898 C5.19033702,13.9238898 4.46307156,13.8217527 3.78693182,13.6174753 C3.11079207,13.413198 2.52272977,13.1025309 2.02272727,12.6854646 C1.52272477,12.2683984 1.13068324,11.743527 0.846590909,11.1108347 C0.56249858,10.4781424 0.420454545,9.72488101 0.420454545,8.85102796 C0.420454545,8.0168955 0.56249858,7.28491269 0.846590909,6.65505757 C1.13068324,6.02520244 1.52982697,5.49891248 2.04403409,5.07617188 C2.55824121,4.65343127 3.16618967,4.33425272 3.86789773,4.11862664 C4.56960578,3.90300057 5.34090489,3.79518914 6.18181818,3.79518914 C7.0738681,3.79518914 7.82670148,3.90583771 8.44034091,4.12713816 C9.05398034,4.34843861 9.54971402,4.62506002 9.92755682,4.95701069 C10.3053996,5.28896136 10.5752833,5.64644134 10.7372159,6.02946135 C10.8991485,6.41248136 10.9801136,6.77137991 10.9801136,7.10616776 C10.9801136,7.37286318 10.9417617,7.6338803 10.8650568,7.88922697 C10.7883519,8.14457365 10.6633531,8.37721934 10.4900568,8.58717105 C10.3167605,8.79712276 10.0965922,8.96593275 9.82954545,9.09360609 C9.56249866,9.22127942 9.23579739,9.28511513 8.84943182,9.28511513 C8.48011179,9.28511513 8.17897844,9.23262799 7.94602273,9.12765214 C7.71306702,9.02267628 7.53267109,8.89216772 7.40482955,8.73612253 C7.276988,8.58007734 7.18607982,8.41552307 7.13210227,8.24245477 C7.07812473,8.06938647 7.05113636,7.90625077 7.05113636,7.75304276 C7.05113636,7.40690616 7.1335219,7.13170332 7.29829545,6.92742599 C7.46306901,6.72314865 7.65340801,6.58129152 7.86931818,6.50185033 C7.74431756,6.40538603 7.61789837,6.31317889 7.49005682,6.22522615 C7.36221527,6.13727341 7.12784261,6.0932977 6.78693182,6.0932977 Z M11.8323864,8.85102796 C11.8323864,8.0168955 11.9772713,7.28491269 12.2670455,6.65505757 C12.5568196,6.02520244 12.9701678,5.49891248 13.5071023,5.07617188 C14.0440368,4.65343127 14.6903371,4.33425272 15.4460227,4.11862664 C16.2017083,3.90300057 17.0454499,3.79518914 17.9772727,3.79518914 C18.9090956,3.79518914 19.7528371,3.90300057 20.5085227,4.11862664 C21.2642083,4.33425272 21.9090882,4.65343127 22.4431818,5.07617188 C22.9772754,5.49891248 23.3906235,6.02520244 23.6832386,6.65505757 C23.9758537,7.28491269 24.1221591,8.0168955 24.1221591,8.85102796 C24.1221591,9.67381168 23.9758537,10.4029573 23.6832386,11.0384868 C23.3906235,11.6740163 22.9772754,12.2059806 22.4431818,12.6343956 C21.9090882,13.0628105 21.2642083,13.3848262 20.5085227,13.6004523 C19.7528371,13.8160784 18.9090956,13.9238898 17.9772727,13.9238898 C17.0454499,13.9238898 16.2017083,13.8160784 15.4460227,13.6004523 C14.6903371,13.3848262 14.0440368,13.0628105 13.5071023,12.6343956 C12.9701678,12.2059806 12.5568196,11.6740163 12.2670455,11.0384868 C11.9772713,10.4029573 11.8323864,9.67381168 11.8323864,8.85102796 Z M16.6818182,8.85102796 C16.6818182,9.32767508 16.7031248,9.73196791 16.7457386,10.0639186 C16.7883525,10.3958693 16.8579541,10.6625607 16.9545455,10.8640008 C17.0511368,11.065441 17.1818174,11.2129724 17.3465909,11.3065995 C17.5113645,11.4002266 17.7215896,11.4470395 17.9772727,11.4470395 C18.2329558,11.4470395 18.4417606,11.4002266 18.6036932,11.3065995 C18.7656258,11.2129724 18.8963063,11.065441 18.9957386,10.8640008 C19.095171,10.6625607 19.1647725,10.3958693 19.2045455,10.0639186 C19.2443184,9.73196791 19.2642045,9.32767508 19.2642045,8.85102796 C19.2642045,7.89773372 19.1747168,7.22958662 18.9957386,6.84656661 C18.8167605,6.4635466 18.4772752,6.27203947 17.9772727,6.27203947 C17.7215896,6.27203947 17.5113645,6.31601519 17.3465909,6.40396793 C17.1818174,6.49192067 17.0511368,6.63661495 16.9545455,6.8380551 C16.8579541,7.03949525 16.7883525,7.30618666 16.7457386,7.63813734 C16.7031248,7.97008801 16.6818182,8.37438084 16.6818182,8.85102796 Z M37.5284091,9.56599507 C37.5284091,9.8667367 37.5809654,10.080941 37.6860795,10.2086143 C37.7911937,10.3362876 37.9943167,10.4001234 38.2954545,10.4001234 L38.5767045,10.4001234 L38.5767045,13.5578947 L32.8494318,13.5578947 L32.8494318,8.11903783 C32.8494318,7.89773738 32.8267048,7.72041596 32.78125,7.58706826 C32.7357952,7.45372055 32.6747163,7.35158341 32.5980114,7.28065378 C32.5213064,7.20972415 32.4332391,7.1629113 32.3338068,7.14021382 C32.2343745,7.11751633 32.139205,7.10616776 32.0482955,7.10616776 C31.6732936,7.10616776 31.4161939,7.21397919 31.2769886,7.42960526 C31.1377834,7.64523134 31.0681818,7.95164275 31.0681818,8.34884868 L31.0681818,9.56599507 C31.0681818,9.8667367 31.1207381,10.080941 31.2258523,10.2086143 C31.3309664,10.3362876 31.5340894,10.4001234 31.8352273,10.4001234 L32.1164773,10.4001234 L32.1164773,13.5578947 L25.1704545,13.5578947 L25.1704545,10.4001234 L25.6732955,10.4001234 C25.9062512,10.4001234 26.0838062,10.3249391 26.2059659,10.1745683 C26.3281256,10.0241974 26.3892045,9.84403888 26.3892045,9.63408717 L26.3892045,8.01689967 C26.3892045,7.75020426 26.3110803,7.5700457 26.1548295,7.47641859 C25.9985788,7.38279147 25.8210237,7.33597862 25.6221591,7.33597862 L25.1704545,7.33597862 L25.1704545,4.17820724 L30.2329545,4.17820724 L30.0539773,6.51887336 L30.1988636,6.51887336 C30.3238643,5.6450203 30.6775539,4.97261749 31.2599432,4.50164474 C31.8423325,4.03067199 32.6874945,3.79518914 33.7954545,3.79518914 C34.2102293,3.79518914 34.5980096,3.85051343 34.9588068,3.96116365 C35.3196041,4.07181388 35.6406236,4.24062387 35.921875,4.46759868 C36.2031264,4.6945735 36.4247151,4.97970634 36.5866477,5.32300576 C36.7485804,5.66630517 36.840909,6.06492372 36.8636364,6.51887336 L36.9829545,6.51887336 C37.0340912,6.0876212 37.1605104,5.70035122 37.3622159,5.35705181 C37.5639215,5.0137524 37.8196007,4.72861956 38.1292614,4.50164474 C38.438922,4.27466992 38.7798277,4.10018564 39.1519886,3.97818668 C39.5241496,3.85618771 39.9147707,3.79518914 40.3238636,3.79518914 C41.0795492,3.79518914 41.6960203,3.90583771 42.1732955,4.12713816 C42.6505706,4.34843861 43.0227259,4.62789716 43.2897727,4.9655222 C43.5568195,5.30314725 43.7400563,5.66913865 43.8394886,6.0635074 C43.938921,6.45787615 43.9886364,6.82812327 43.9886364,7.17425987 L43.9886364,9.56599507 C43.9886364,9.8667367 44.0411927,10.080941 44.1463068,10.2086143 C44.251421,10.3362876 44.4545439,10.4001234 44.7556818,10.4001234 L45.2073864,10.4001234 L45.2073864,13.5578947 L39.3096591,13.5578947 L39.3096591,8.11903783 C39.3096591,7.89773738 39.2855116,7.72041596 39.2372159,7.58706826 C39.1889202,7.45372055 39.1278413,7.35158341 39.0539773,7.28065378 C38.9801133,7.20972415 38.8934664,7.1629113 38.7940341,7.14021382 C38.6946018,7.11751633 38.5994323,7.10616776 38.5085227,7.10616776 C38.1335209,7.10616776 37.8764212,7.21397919 37.7372159,7.42960526 C37.5980107,7.64523134 37.5284091,7.95164275 37.5284091,8.34884868 L37.5284091,9.56599507 Z M58.4431818,9.56599507 C58.4431818,9.8667367 58.4957381,10.080941 58.6008523,10.2086143 C58.7059664,10.3362876 58.9090894,10.4001234 59.2102273,10.4001234 L59.4914773,10.4001234 L59.4914773,13.5578947 L53.7642045,13.5578947 L53.7642045,8.11903783 C53.7642045,7.89773738 53.7414775,7.72041596 53.6960227,7.58706826 C53.650568,7.45372055 53.589489,7.35158341 53.5127841,7.28065378 C53.4360792,7.20972415 53.3480119,7.1629113 53.2485795,7.14021382 C53.1491472,7.11751633 53.0539777,7.10616776 52.9630682,7.10616776 C52.5880663,7.10616776 52.3309666,7.21397919 52.1917614,7.42960526 C52.0525561,7.64523134 51.9829545,7.95164275 51.9829545,8.34884868 L51.9829545,9.56599507 C51.9829545,9.8667367 52.0355108,10.080941 52.140625,10.2086143 C52.2457392,10.3362876 52.4488621,10.4001234 52.75,10.4001234 L53.03125,10.4001234 L53.03125,13.5578947 L46.0852273,13.5578947 L46.0852273,10.4001234 L46.5880682,10.4001234 C46.8210239,10.4001234 46.9985789,10.3249391 47.1207386,10.1745683 C47.2428983,10.0241974 47.3039773,9.84403888 47.3039773,9.63408717 L47.3039773,8.01689967 C47.3039773,7.75020426 47.2258531,7.5700457 47.0696023,7.47641859 C46.9133515,7.38279147 46.7357964,7.33597862 46.5369318,7.33597862 L46.0852273,7.33597862 L46.0852273,4.17820724 L51.1477273,4.17820724 L50.96875,6.51887336 L51.1136364,6.51887336 C51.238637,5.6450203 51.5923266,4.97261749 52.1747159,4.50164474 C52.7571052,4.03067199 53.6022672,3.79518914 54.7102273,3.79518914 C55.1250021,3.79518914 55.5127823,3.85051343 55.8735795,3.96116365 C56.2343768,4.07181388 56.5553963,4.24062387 56.8366477,4.46759868 C57.1178991,4.6945735 57.3394878,4.97970634 57.5014205,5.32300576 C57.6633531,5.66630517 57.7556817,6.06492372 57.7784091,6.51887336 L57.8977273,6.51887336 C57.9488639,6.0876212 58.0752831,5.70035122 58.2769886,5.35705181 C58.4786942,5.0137524 58.7343735,4.72861956 59.0440341,4.50164474 C59.3536947,4.27466992 59.6946004,4.10018564 60.0667614,3.97818668 C60.4389223,3.85618771 60.8295434,3.79518914 61.2386364,3.79518914 C61.994322,3.79518914 62.6107931,3.90583771 63.0880682,4.12713816 C63.5653433,4.34843861 63.9374987,4.62789716 64.2045455,4.9655222 C64.4715922,5.30314725 64.654829,5.66913865 64.7542614,6.0635074 C64.8536937,6.45787615 64.9034091,6.82812327 64.9034091,7.17425987 L64.9034091,9.56599507 C64.9034091,9.8667367 64.9559654,10.080941 65.0610795,10.2086143 C65.1661937,10.3362876 65.3693167,10.4001234 65.6704545,10.4001234 L66.1221591,10.4001234 L66.1221591,13.5578947 L60.2244318,13.5578947 L60.2244318,8.11903783 C60.2244318,7.89773738 60.2002843,7.72041596 60.1519886,7.58706826 C60.1036929,7.45372055 60.042614,7.35158341 59.96875,7.28065378 C59.894886,7.20972415 59.8082391,7.1629113 59.7088068,7.14021382 C59.6093745,7.11751633 59.514205,7.10616776 59.4232955,7.10616776 C59.0482936,7.10616776 58.7911939,7.21397919 58.6519886,7.42960526 C58.5127834,7.64523134 58.4431818,7.95164275 58.4431818,8.34884868 L58.4431818,9.56599507 Z M71.5170455,9.3957648 C71.5397728,10.241246 71.7002826,10.8242788 71.9985795,11.1448808 C72.2968765,11.4654827 72.724429,11.6257813 73.28125,11.6257813 C73.4687509,11.6257813 73.6519877,11.5988284 73.8309659,11.5449219 C74.0099441,11.4910154 74.1761356,11.4030639 74.3295455,11.281065 C74.4829553,11.159066 74.6150563,10.9973489 74.7258523,10.7959087 C74.8366483,10.5944686 74.9090907,10.3405443 74.9431818,10.0341283 L78.0454545,10.0341283 C77.9318176,10.7661221 77.7230129,11.3789449 77.4190341,11.8726151 C77.1150553,12.3662854 76.7244342,12.7649039 76.2471591,13.0684827 C75.769884,13.3720616 75.2144918,13.5905215 74.5809659,13.7238692 C73.94744,13.8572169 73.2414812,13.9238898 72.4630682,13.9238898 C71.6619278,13.9238898 70.9090944,13.8217527 70.2045455,13.6174753 C69.4999965,13.413198 68.8821049,13.1025309 68.3508523,12.6854646 C67.8195996,12.2683984 67.4034106,11.743527 67.1022727,11.1108347 C66.8011349,10.4781424 66.6505682,9.72488101 66.6505682,8.85102796 C66.6505682,8.0168955 66.7926122,7.28491269 67.0767045,6.65505757 C67.3607969,6.02520244 67.7599406,5.49891248 68.2741477,5.07617188 C68.7883548,4.65343127 69.3963033,4.33425272 70.0980114,4.11862664 C70.7997194,3.90300057 71.5710185,3.79518914 72.4119318,3.79518914 C73.4460279,3.79518914 74.3352236,3.93137199 75.0795455,4.20374178 C75.8238674,4.47611156 76.4318158,4.85628868 76.9034091,5.34428454 C77.3750024,5.8322804 77.7215898,6.41956894 77.9431818,7.10616776 C78.1647738,7.79276659 78.2698864,8.55595797 78.2585227,9.3957648 L71.5170455,9.3957648 Z M72.7784091,6.0932977 C72.3806798,6.0932977 72.0866487,6.23373626 71.8963068,6.5146176 C71.705965,6.79549894 71.5795458,7.25937177 71.5170455,7.90625 L74.0142045,7.90625 C73.9801135,7.35016169 73.8607965,6.90898601 73.65625,6.5827097 C73.4517035,6.2564334 73.1590928,6.0932977 72.7784091,6.0932977 Z M87.1818182,8.11903783 C87.1818182,7.89773738 87.1548298,7.72041596 87.1008523,7.58706826 C87.0468747,7.45372055 86.9786936,7.35158341 86.8963068,7.28065378 C86.81392,7.20972415 86.7215914,7.1629113 86.6193182,7.14021382 C86.5170449,7.11751633 86.4176141,7.10616776 86.3210227,7.10616776 C85.9517027,7.10616776 85.6761373,7.21397919 85.4943182,7.42960526 C85.3124991,7.64523134 85.2215909,7.95164275 85.2215909,8.34884868 L85.2215909,9.56599507 C85.2215909,9.8667367 85.2741472,10.080941 85.3792614,10.2086143 C85.4843755,10.3362876 85.6874985,10.4001234 85.9886364,10.4001234 L86.4488636,10.4001234 L86.4488636,13.5578947 L79.3238636,13.5578947 L79.3238636,10.4001234 L79.8267045,10.4001234 C80.0596603,10.4001234 80.2372153,10.3249391 80.359375,10.1745683 C80.4815347,10.0241974 80.5426136,9.84403888 80.5426136,9.63408717 L80.5426136,8.01689967 C80.5426136,7.75020426 80.4644894,7.5700457 80.3082386,7.47641859 C80.1519879,7.38279147 79.9744328,7.33597862 79.7755682,7.33597862 L79.3238636,7.33597862 L79.3238636,4.17820724 L84.3863636,4.17820724 L84.2073864,6.51887336 L84.3522727,6.51887336 C84.4772734,5.6450203 84.8607922,4.97261749 85.5028409,4.50164474 C86.1448896,4.03067199 87.0170399,3.79518914 88.1193182,3.79518914 C88.8977312,3.79518914 89.5312476,3.90583771 90.0198864,4.12713816 C90.5085252,4.34843861 90.8877827,4.62789716 91.1576705,4.9655222 C91.4275582,5.30314725 91.610795,5.66913865 91.7073864,6.0635074 C91.8039778,6.45787615 91.8522727,6.82812327 91.8522727,7.17425987 L91.8522727,9.56599507 C91.8522727,9.8667367 91.904829,10.080941 92.0099432,10.2086143 C92.1150573,10.3362876 92.3181803,10.4001234 92.6193182,10.4001234 L93.0795455,10.4001234 L93.0795455,13.5578947 L87.1818182,13.5578947 L87.1818182,8.11903783 Z M99.5653409,1.02043586 L99.5653409,4.17820724 L102.113636,4.17820724 L102.113636,7.33597862 L99.5653409,7.33597862 L99.5653409,9.94901316 C99.5653409,10.3235216 99.6178972,10.629933 99.7230114,10.8682566 C99.8281255,11.1065801 100.045453,11.2257401 100.375,11.2257401 C100.556819,11.2257401 100.703124,11.1902758 100.81392,11.1193462 C100.924716,11.0484166 101.012784,10.9547909 101.078125,10.8384663 C101.143466,10.7221417 101.184659,10.588796 101.201705,10.4384252 C101.21875,10.2880543 101.227273,10.1249186 101.227273,9.94901316 L101.227273,8.6807977 L102.207386,8.6807977 L102.207386,10.0511513 C102.207386,10.6015653 102.149148,11.1150881 102.03267,11.5917352 C101.916193,12.0683823 101.717331,12.479768 101.43608,12.8259046 C101.154828,13.1720412 100.77273,13.447244 100.289773,13.6515214 C99.8068158,13.8557987 99.1988673,13.9579359 98.4659091,13.9579359 C97.653405,13.9579359 97.0056842,13.8586359 96.5227273,13.6600329 C96.0397703,13.4614299 95.6732967,13.1890642 95.4232955,12.8429276 C95.1732942,12.496791 95.0099436,12.0854053 94.9332386,11.6087582 C94.8565337,11.1321111 94.8181818,10.612914 94.8181818,10.0511513 L94.8181818,7.33597862 L93.4801136,7.33597862 L93.4801136,4.52717928 C93.9062521,4.52717928 94.302555,4.43497214 94.6690341,4.2505551 C95.0355132,4.06613806 95.350851,3.81079522 95.6150568,3.48451891 C95.8792627,3.15824261 96.0838061,2.78515835 96.2286932,2.36525493 C96.3735803,1.94535152 96.4460227,1.49708298 96.4460227,1.02043586 L99.5653409,1.02043586 Z M120.667614,9.56599507 C120.667614,9.8667367 120.72017,10.080941 120.825284,10.2086143 C120.930398,10.3362876 121.133521,10.4001234 121.434659,10.4001234 L121.715909,10.4001234 L121.715909,13.5578947 L115.988636,13.5578947 L115.988636,8.11903783 C115.988636,7.89773738 115.965909,7.72041596 115.920455,7.58706826 C115.875,7.45372055 115.813921,7.35158341 115.737216,7.28065378 C115.660511,7.20972415 115.572444,7.1629113 115.473011,7.14021382 C115.373579,7.11751633 115.27841,7.10616776 115.1875,7.10616776 C114.812498,7.10616776 114.555398,7.21397919 114.416193,7.42960526 C114.276988,7.64523134 114.207386,7.95164275 114.207386,8.34884868 L114.207386,9.56599507 C114.207386,9.8667367 114.259943,10.080941 114.365057,10.2086143 C114.470171,10.3362876 114.673294,10.4001234 114.974432,10.4001234 L115.255682,10.4001234 L115.255682,13.5578947 L108.309659,13.5578947 L108.309659,10.4001234 L108.8125,10.4001234 C109.045456,10.4001234 109.223011,10.3249391 109.34517,10.1745683 C109.46733,10.0241974 109.528409,9.84403888 109.528409,9.63408717 L109.528409,8.01689967 C109.528409,7.75020426 109.450285,7.5700457 109.294034,7.47641859 C109.137783,7.38279147 108.960228,7.33597862 108.761364,7.33597862 L108.309659,7.33597862 L108.309659,4.17820724 L113.372159,4.17820724 L113.193182,6.51887336 L113.338068,6.51887336 C113.463069,5.6450203 113.816758,4.97261749 114.399148,4.50164474 C114.981537,4.03067199 115.826699,3.79518914 116.934659,3.79518914 C117.349434,3.79518914 117.737214,3.85051343 118.098011,3.96116365 C118.458809,4.07181388 118.779828,4.24062387 119.06108,4.46759868 C119.342331,4.6945735 119.56392,4.97970634 119.725852,5.32300576 C119.887785,5.66630517 119.980114,6.06492372 120.002841,6.51887336 L120.122159,6.51887336 C120.173296,6.0876212 120.299715,5.70035122 120.50142,5.35705181 C120.703126,5.0137524 120.958805,4.72861956 121.268466,4.50164474 C121.578127,4.27466992 121.919032,4.10018564 122.291193,3.97818668 C122.663354,3.85618771 123.053975,3.79518914 123.463068,3.79518914 C124.218754,3.79518914 124.835225,3.90583771 125.3125,4.12713816 C125.789775,4.34843861 126.16193,4.62789716 126.428977,4.9655222 C126.696024,5.30314725 126.879261,5.66913865 126.978693,6.0635074 C127.078125,6.45787615 127.127841,6.82812327 127.127841,7.17425987 L127.127841,9.56599507 C127.127841,9.8667367 127.180397,10.080941 127.285511,10.2086143 C127.390626,10.3362876 127.593748,10.4001234 127.894886,10.4001234 L128.346591,10.4001234 L128.346591,13.5578947 L122.448864,13.5578947 L122.448864,8.11903783 C122.448864,7.89773738 122.424716,7.72041596 122.37642,7.58706826 C122.328125,7.45372055 122.267046,7.35158341 122.193182,7.28065378 C122.119318,7.20972415 122.032671,7.1629113 121.933239,7.14021382 C121.833806,7.11751633 121.738637,7.10616776 121.647727,7.10616776 C121.272725,7.10616776 121.015626,7.21397919 120.87642,7.42960526 C120.737215,7.64523134 120.667614,7.95164275 120.667614,8.34884868 L120.667614,9.56599507 Z M135.173295,4.17820724 L135.173295,9.48087993 C135.173295,9.86106276 135.267045,10.1093127 135.454545,10.2256373 C135.642046,10.3419619 135.88068,10.4001234 136.170455,10.4001234 L136.400568,10.4001234 L136.400568,13.5578947 L129.224432,13.5578947 L129.224432,10.4001234 L129.556818,10.4001234 C129.857956,10.4001234 130.080965,10.3050791 130.225852,10.1149877 C130.370739,9.92489625 130.443182,9.71920341 130.443182,9.49790296 L130.443182,8.29777961 C130.443182,7.96866612 130.33949,7.72609042 130.132102,7.57004523 C129.924715,7.41400004 129.68466,7.33597862 129.411932,7.33597862 L129.224432,7.33597862 L129.224432,4.17820724 L135.173295,4.17820724 Z M130.306818,2.084375 C130.306818,1.59637914 130.492896,1.17931916 130.865057,0.833182566 C131.237218,0.487045967 131.767042,0.313980263 132.454545,0.313980263 C133.153413,0.313980263 133.691759,0.487045967 134.069602,0.833182566 C134.447445,1.17931916 134.636364,1.59637914 134.636364,2.084375 C134.636364,2.5837196 134.447445,3.00503529 134.069602,3.3483347 C133.691759,3.69163412 133.153413,3.86328125 132.454545,3.86328125 C131.767042,3.86328125 131.237218,3.69163412 130.865057,3.3483347 C130.492896,3.00503529 130.306818,2.5837196 130.306818,2.084375 Z M141.786932,9.3957648 C141.809659,10.241246 141.970169,10.8242788 142.268466,11.1448808 C142.566763,11.4654827 142.994315,11.6257813 143.551136,11.6257813 C143.738637,11.6257813 143.921874,11.5988284 144.100852,11.5449219 C144.27983,11.4910154 144.446022,11.4030639 144.599432,11.281065 C144.752842,11.159066 144.884943,10.9973489 144.995739,10.7959087 C145.106535,10.5944686 145.178977,10.3405443 145.213068,10.0341283 L148.315341,10.0341283 C148.201704,10.7661221 147.992899,11.3789449 147.68892,11.8726151 C147.384942,12.3662854 146.994321,12.7649039 146.517045,13.0684827 C146.03977,13.3720616 145.484378,13.5905215 144.850852,13.7238692 C144.217326,13.8572169 143.511368,13.9238898 142.732955,13.9238898 C141.931814,13.9238898 141.178981,13.8217527 140.474432,13.6174753 C139.769883,13.413198 139.151991,13.1025309 138.620739,12.6854646 C138.089486,12.2683984 137.673297,11.743527 137.372159,11.1108347 C137.071021,10.4781424 136.920455,9.72488101 136.920455,8.85102796 C136.920455,8.0168955 137.062499,7.28491269 137.346591,6.65505757 C137.630683,6.02520244 138.029827,5.49891248 138.544034,5.07617188 C139.058241,4.65343127 139.66619,4.33425272 140.367898,4.11862664 C141.069606,3.90300057 141.840905,3.79518914 142.681818,3.79518914 C143.715914,3.79518914 144.60511,3.93137199 145.349432,4.20374178 C146.093754,4.47611156 146.701702,4.85628868 147.173295,5.34428454 C147.644889,5.8322804 147.991476,6.41956894 148.213068,7.10616776 C148.43466,7.79276659 148.539773,8.55595797 148.528409,9.3957648 L141.786932,9.3957648 Z M143.048295,6.0932977 C142.650566,6.0932977 142.356535,6.23373626 142.166193,6.5146176 C141.975851,6.79549894 141.849432,7.25937177 141.786932,7.90625 L144.284091,7.90625 C144.25,7.35016169 144.130683,6.90898601 143.926136,6.5827097 C143.72159,6.2564334 143.428979,6.0932977 143.048295,6.0932977 Z M161.602273,9.7192023 C161.602273,9.99157209 161.680397,10.1731492 161.836648,10.2639391 C161.992899,10.3547291 162.170454,10.4001234 162.369318,10.4001234 L162.821023,10.4001234 L162.821023,13.5578947 L157.758523,13.5578947 L157.758523,11.2257401 L157.622159,11.2257401 C157.491477,12.0939188 157.136367,12.7521359 156.556818,13.2004112 C155.97727,13.6486865 155.133528,13.8728207 154.025568,13.8728207 C153.247155,13.8728207 152.613639,13.7621722 152.125,13.5408717 C151.636361,13.3195713 151.258524,13.0401127 150.991477,12.7024877 C150.72443,12.3648626 150.541194,11.9988712 150.441761,11.6045025 C150.342329,11.2101337 150.292614,10.8398866 150.292614,10.49375 L150.292614,8.17010691 C150.292614,7.86936527 150.240057,7.655161 150.134943,7.52748766 C150.029829,7.39981433 149.826706,7.33597862 149.525568,7.33597862 L149.014205,7.33597862 L149.014205,4.17820724 L154.971591,4.17820724 L154.971591,9.54897204 C154.971591,9.77027249 154.997159,9.94759391 155.048295,10.0809416 C155.099432,10.2142893 155.166193,10.3164265 155.24858,10.3873561 C155.330966,10.4582857 155.424715,10.5050986 155.52983,10.5277961 C155.634944,10.5504935 155.732954,10.5618421 155.823864,10.5618421 C156.198866,10.5618421 156.475851,10.4540307 156.65483,10.2384046 C156.833808,10.0227785 156.923295,9.71636712 156.923295,9.31916118 L156.923295,8.17010691 C156.923295,7.86936527 156.870739,7.655161 156.765625,7.52748766 C156.660511,7.39981433 156.457388,7.33597862 156.15625,7.33597862 L155.653409,7.33597862 L155.653409,4.17820724 L161.602273,4.17820724 L161.602273,9.7192023 Z M170.730114,8.06796875 L171.0625,7.83815789 C171.142046,7.78141419 171.242897,7.70622991 171.365057,7.6126028 C171.487217,7.51897568 171.548295,7.42676855 171.548295,7.33597862 C171.548295,7.21681684 171.454546,7.15723684 171.267045,7.15723684 L171.267045,4.17820724 L175.460227,4.17820724 L175.460227,7.15723684 C175.306817,7.15723684 175.134944,7.19270113 174.944602,7.26363076 C174.75426,7.33456039 174.562501,7.41967467 174.369318,7.51897615 C174.176135,7.61827763 173.982956,7.72608906 173.789773,7.84241365 C173.59659,7.95873825 173.426137,8.06796824 173.278409,8.17010691 L172.09375,8.95316612 L173.363636,9.77878289 C173.482955,9.84687534 173.609374,9.92773391 173.742898,10.021361 C173.876421,10.1149881 174.026988,10.201521 174.194602,10.2809622 C174.362217,10.3604034 174.556817,10.4299134 174.778409,10.4894942 C175.000001,10.5490751 175.25568,10.5788651 175.545455,10.5788651 L175.545455,13.5578947 L168.301136,13.5578947 L168.301136,10.5788651 C168.454546,10.5788651 168.583806,10.546238 168.68892,10.4809827 C168.794035,10.4157275 168.846591,10.3320318 168.846591,10.2298931 C168.846591,10.1447775 168.808239,10.0596633 168.731534,9.9745477 C168.654829,9.88943214 168.571023,9.81850357 168.480114,9.76175987 L168.284091,9.63408717 L168.113636,9.76175987 C167.994318,9.82985231 167.859376,9.92773374 167.708807,10.0554071 C167.558238,10.1830804 167.482955,10.2923104 167.482955,10.3831003 C167.482955,10.5136108 167.571022,10.5788651 167.747159,10.5788651 L167.747159,13.5578947 L163.639205,13.5578947 L163.639205,10.5788651 C163.769887,10.5788651 163.921874,10.5405637 164.09517,10.4639597 C164.268467,10.3873557 164.448863,10.2965671 164.636364,10.1915913 C164.823865,10.0866154 165.009942,9.97312972 165.194602,9.85113076 C165.379262,9.72913179 165.548295,9.61706466 165.701705,9.51492599 L166.903409,8.73186678 L165.752841,7.96583059 C165.519885,7.80127385 165.225854,7.625371 164.870739,7.43811678 C164.515623,7.25086255 164.136366,7.15723684 163.732955,7.15723684 L163.732955,4.17820724 L170.713068,4.17820724 L170.713068,7.15723684 C170.582386,7.15723684 170.470171,7.18702684 170.37642,7.24660773 C170.28267,7.30618862 170.235795,7.3813729 170.235795,7.47216283 C170.235795,7.56862713 170.268466,7.65374141 170.333807,7.72750822 C170.399148,7.80127504 170.488636,7.88638932 170.602273,7.98285362 L170.730114,8.06796875 Z" id="comment-mieux" fill="#253186"></path>
                    <path d="M33.7212109,19.5621053 L33.7212109,22.7869474 L34.4193927,22.7869474 C35.5975745,22.7869474 35.9612109,22.4237895 35.9612109,21.1745263 C35.9612109,19.9252632 35.5975745,19.5621053 34.4193927,19.5621053 L33.7212109,19.5621053 Z M33.7212109,28.5684211 L31.9175745,28.5684211 L31.9175745,18.0804211 L34.5066655,18.0804211 C36.73212,18.0804211 37.7648473,18.9374737 37.7648473,21.1745263 C37.7648473,23.4115789 36.73212,24.2686316 34.5066655,24.2686316 L33.7212109,24.2686316 L33.7212109,28.5684211 Z M42.2868676,19.5621053 L42.2868676,22.7869474 L42.9268676,22.7869474 C43.9014131,22.7869474 44.2650495,22.4237895 44.2650495,21.1745263 C44.2650495,19.9252632 43.9014131,19.5621053 42.9268676,19.5621053 L42.2868676,19.5621053 Z M42.2868676,24.2686316 L42.2868676,28.5684211 L40.4832313,28.5684211 L40.4832313,18.0804211 L43.0141404,18.0804211 C45.0359585,18.0804211 46.0686858,18.9374737 46.0686858,21.1745263 C46.0686858,22.8595789 45.4141404,23.5423158 44.8032313,23.8183158 L46.330504,28.5684211 L44.4977767,28.5684211 L43.2177767,24.2250526 C42.9850495,24.2541053 42.6068676,24.2686316 42.2868676,24.2686316 Z M54.0816153,28.5684211 L49.048888,28.5684211 L49.048888,18.0804211 L53.8779789,18.0804211 L53.8779789,19.6492632 L50.8525244,19.6492632 L50.8525244,22.3511579 L53.1797971,22.3511579 L53.1797971,23.92 L50.8525244,23.92 L50.8525244,26.9995789 L54.0816153,26.9995789 L54.0816153,28.5684211 Z M58.4290902,28.5684211 L56.7999993,28.5684211 L56.7999993,18.0804211 L58.4727265,18.0804211 L60.6690902,24.0797895 L60.6981811,24.0797895 L60.6981811,18.0804211 L62.327272,18.0804211 L62.327272,28.5684211 L60.7563629,28.5684211 L58.4581811,22.0170526 L58.4290902,22.0170526 L58.4290902,28.5684211 Z M67.1692924,19.5621053 L67.1692924,27.0867368 L67.7947469,27.0867368 C68.7547469,27.0867368 69.0892924,26.7235789 69.0892924,25.6195789 L69.0892924,21.0292632 C69.0892924,19.9252632 68.7547469,19.5621053 67.7947469,19.5621053 L67.1692924,19.5621053 Z M65.365656,28.5684211 L65.365656,18.0804211 L68.0420196,18.0804211 C69.9038378,18.0804211 70.8929287,19.0972632 70.8929287,21.2471579 L70.8929287,25.4016842 C70.8929287,27.5515789 69.9038378,28.5684211 68.0420196,28.5684211 L65.365656,28.5684211 Z M75.7349491,19.5621053 L75.7349491,22.7869474 L76.3749491,22.7869474 C77.3494945,22.7869474 77.7131309,22.4237895 77.7131309,21.1745263 C77.7131309,19.9252632 77.3494945,19.5621053 76.3749491,19.5621053 L75.7349491,19.5621053 Z M75.7349491,24.2686316 L75.7349491,28.5684211 L73.9313127,28.5684211 L73.9313127,18.0804211 L76.4622218,18.0804211 C78.48404,18.0804211 79.5167673,18.9374737 79.5167673,21.1745263 C79.5167673,22.8595789 78.8622218,23.5423158 78.2513127,23.8183158 L79.7785855,28.5684211 L77.9458582,28.5684211 L76.6658582,24.2250526 C76.4331309,24.2541053 76.0549491,24.2686316 75.7349491,24.2686316 Z M87.5296967,28.5684211 L82.4969695,28.5684211 L82.4969695,18.0804211 L87.3260604,18.0804211 L87.3260604,19.6492632 L84.3006058,19.6492632 L84.3006058,22.3511579 L86.6278785,22.3511579 L86.6278785,23.92 L84.3006058,23.92 L84.3006058,26.9995789 L87.5296967,26.9995789 L87.5296967,28.5684211 Z M99.7737375,20.4772632 L98.0573738,20.6661053 C97.9846465,19.7654737 97.5046465,19.504 97.0973738,19.504 C96.5155556,19.504 96.1955556,19.8816842 96.1955556,20.5353684 C96.1955556,22.3221053 99.8610102,23.1791579 99.8610102,26.0263158 C99.8610102,27.7549474 98.6973738,28.7136842 97.0101011,28.7136842 C95.3373738,28.7136842 94.3773738,27.3772632 94.3046465,25.8084211 L96.0210102,25.5614737 C96.0937375,26.6218947 96.5155556,27.1448421 97.0973738,27.1448421 C97.7228284,27.1448421 98.1446465,26.8107368 98.1446465,26.1861053 C98.1446465,24.1088421 94.479192,23.5568421 94.479192,20.5498947 C94.479192,18.8793684 95.4973738,17.9351579 97.2719193,17.9351579 C98.7410102,17.9351579 99.6137375,18.9955789 99.7737375,20.4772632 Z M102.521212,26.0263158 L102.521212,20.6225263 C102.521212,19.1408421 103.39394,17.9351579 105.284849,17.9351579 C107.175758,17.9351579 108.048485,19.1408421 108.048485,20.6225263 L108.048485,26.0263158 C108.048485,27.508 107.175758,28.7136842 105.284849,28.7136842 C103.39394,28.7136842 102.521212,27.508 102.521212,26.0263158 Z M104.324849,20.6661053 L104.324849,25.9827368 C104.324849,26.7671579 104.557576,27.1448421 105.284849,27.1448421 C106.012121,27.1448421 106.244849,26.7671579 106.244849,25.9827368 L106.244849,20.6661053 C106.244849,19.8816842 106.012121,19.504 105.284849,19.504 C104.557576,19.504 104.324849,19.8816842 104.324849,20.6661053 Z M113.137778,28.5684211 L111.334142,28.5684211 L111.334142,18.0804211 L113.137778,18.0804211 L113.137778,28.5684211 Z M118.052526,28.5684211 L116.423435,28.5684211 L116.423435,18.0804211 L118.096162,18.0804211 L120.292526,24.0797895 L120.321617,24.0797895 L120.321617,18.0804211 L121.950708,18.0804211 L121.950708,28.5684211 L120.379799,28.5684211 L118.081617,22.0170526 L118.052526,22.0170526 L118.052526,28.5684211 Z M131.314748,19.5621053 L131.314748,27.0867368 L131.940203,27.0867368 C132.900203,27.0867368 133.234748,26.7235789 133.234748,25.6195789 L133.234748,21.0292632 C133.234748,19.9252632 132.900203,19.5621053 131.940203,19.5621053 L131.314748,19.5621053 Z M129.511112,28.5684211 L129.511112,18.0804211 L132.187476,18.0804211 C134.049294,18.0804211 135.038385,19.0972632 135.038385,21.2471579 L135.038385,25.4016842 C135.038385,27.5515789 134.049294,28.5684211 132.187476,28.5684211 L129.511112,28.5684211 Z M143.109496,28.5684211 L138.076769,28.5684211 L138.076769,18.0804211 L142.90586,18.0804211 L142.90586,19.6492632 L139.880405,19.6492632 L139.880405,22.3511579 L142.207678,22.3511579 L142.207678,23.92 L139.880405,23.92 L139.880405,26.9995789 L143.109496,26.9995789 L143.109496,28.5684211 Z" id="PRENDRE-SOIN-DE" fill="#000000"></path>
                    <ellipse id="Oval-2" fill="#9C6BDA" opacity="0.5" cx="20.3636364" cy="23.2421053" rx="1.93939394" ry="1.93684211"></ellipse>
                    <ellipse id="Oval-2" fill="#9C6BDA" opacity="0.5" cx="153.69697" cy="23.2421053" rx="1.93939394" ry="1.93684211"></ellipse>
                    <path d="M11.8834007,37.2281876 C11.8834007,36.9106771 11.8446792,36.6562655 11.767235,36.464945 C11.6897908,36.2736246 11.5919681,36.1270835 11.4737638,36.0253174 C11.3555595,35.9235512 11.2230911,35.8563865 11.0763548,35.8238213 C10.9296184,35.7912562 10.7869602,35.7749738 10.6483758,35.7749738 C10.1184945,35.7749738 9.72312743,35.9296561 9.46226278,36.2390253 C9.20139812,36.5483944 9.07096775,36.9880177 9.07096775,37.5579083 L9.07096775,39.3042072 C9.07096775,39.7356958 9.14637281,40.043025 9.29718519,40.2262041 C9.44799757,40.4093832 9.73942793,40.5009714 10.171485,40.5009714 L10.8317954,40.5009714 L10.8317954,45.0315789 L0.609212819,45.0315789 L0.609212819,40.5009714 L1.33066302,40.5009714 C1.66489586,40.5009714 1.91964268,40.3931009 2.09491112,40.1773566 C2.27017956,39.9616123 2.35781247,39.7031301 2.35781247,39.4019022 L2.35781247,37.081645 C2.35781247,36.6990042 2.24572387,36.440522 2.0215433,36.3061906 C1.79736274,36.1718592 1.54261592,36.1046946 1.25729521,36.1046946 L0.609212819,36.1046946 L0.609212819,31.5740871 L7.87262673,31.5740871 L7.61583937,34.9323541 L7.82371486,34.9323541 C8.00305931,33.6785948 8.55331243,32.7138659 9.47449075,32.0381385 C10.3956691,31.3624111 11.6469854,31.0245524 13.2284774,31.0245524 C14.3453042,31.0245524 15.2542408,31.1833053 15.9553146,31.5008158 C16.6563884,31.8183262 17.2005276,32.219279 17.5877485,32.703686 C17.9749695,33.188093 18.2378682,33.7131986 18.3764526,34.2790185 C18.5150369,34.8448384 18.5843281,35.3760499 18.5843281,35.8726689 L18.5843281,39.3042072 C18.5843281,39.7356958 18.6597331,40.043025 18.8105455,40.2262041 C18.9613579,40.4093832 19.2527882,40.5009714 19.6848453,40.5009714 L20.3451557,40.5009714 L20.3451557,45.0315789 L11.8834007,45.0315789 L11.8834007,37.2281876 Z M21.5763891,38.2784092 C21.5763891,37.081639 21.7842625,36.0314278 22.2000156,35.1277442 C22.6157686,34.2240605 23.2088192,33.4689668 23.9791851,32.8624404 C24.7495511,32.255914 25.6768295,31.7979731 26.7610482,31.4886039 C27.8452669,31.1792347 29.0558238,31.0245524 30.3927552,31.0245524 C31.7296865,31.0245524 32.9402434,31.1792347 34.0244621,31.4886039 C35.1086808,31.7979731 36.0339213,32.255914 36.8002112,32.8624404 C37.5665011,33.4689668 38.1595517,34.2240605 38.5793808,35.1277442 C38.9992098,36.0314278 39.2091212,37.081639 39.2091212,38.2784092 C39.2091212,39.4588969 38.9992098,40.5050375 38.5793808,41.4168624 C38.1595517,42.3286874 37.5665011,43.0919222 36.8002112,43.70659 C36.0339213,44.3212577 35.1086808,44.7832692 34.0244621,45.0926383 C32.9402434,45.4020075 31.7296865,45.5566898 30.3927552,45.5566898 C29.0558238,45.5566898 27.8452669,45.4020075 26.7610482,45.0926383 C25.6768295,44.7832692 24.7495511,44.3212577 23.9791851,43.70659 C23.2088192,43.0919222 22.6157686,42.3286874 22.2000156,41.4168624 C21.7842625,40.5050375 21.5763891,39.4588969 21.5763891,38.2784092 Z M28.5341038,38.2784092 C28.5341038,38.9622779 28.5646734,39.5423365 28.6258136,40.0186022 C28.6869537,40.4948679 28.7868145,40.8775029 28.9253988,41.1665189 C29.0639832,41.4555348 29.2514768,41.6672053 29.4878854,41.8015367 C29.724294,41.935868 30.0259142,42.0030327 30.3927552,42.0030327 C30.7595961,42.0030327 31.0591783,41.935868 31.2915109,41.8015367 C31.5238435,41.6672053 31.7113372,41.4555348 31.8539975,41.1665189 C31.9966579,40.8775029 32.0965186,40.4948679 32.1535828,40.0186022 C32.2106469,39.5423365 32.2391786,38.9622779 32.2391786,38.2784092 C32.2391786,36.9106718 32.1107862,35.9520488 31.8539975,35.4025115 C31.5972089,34.8529741 31.110133,34.5782096 30.3927552,34.5782096 C30.0259142,34.5782096 29.724294,34.6413036 29.4878854,34.7674937 C29.2514768,34.8936838 29.0639832,35.1012837 28.9253988,35.3902996 C28.7868145,35.6793155 28.6869537,36.0619506 28.6258136,36.5382163 C28.5646734,37.014482 28.5341038,37.5945405 28.5341038,38.2784092 Z M55.0772342,36.0314233 L51.7145426,36.0314233 C51.478134,35.4452501 51.1112986,34.9812033 50.6140253,34.639269 C50.1167521,34.2973346 49.5991065,34.12637 49.0610732,34.12637 C48.6942323,34.12637 48.4028019,34.1935347 48.1867734,34.327866 C47.9707448,34.4621974 47.8627322,34.6636914 47.8627322,34.9323541 C47.8627322,35.2661471 48.0502258,35.5164882 48.4252188,35.6833847 C48.8002117,35.8502812 49.2709838,35.9988576 49.8375493,36.1291183 C50.4041147,36.259379 51.017545,36.4160966 51.6778587,36.5992757 C52.3381723,36.7824548 52.9516027,37.0450076 53.5181681,37.386942 C54.0847335,37.7288763 54.5555056,38.1888526 54.9304986,38.7668844 C55.3054915,39.3449163 55.4929852,40.1061159 55.4929852,41.050506 C55.4929852,41.7832225 55.3299472,42.4223045 55.0038664,42.9677712 C54.6777856,43.5132379 54.2314691,43.9610024 53.6649037,44.311078 C53.0983383,44.6611537 52.4319206,44.9237065 51.6656307,45.0987443 C50.8993408,45.2737821 50.0719231,45.3612997 49.1833529,45.3612997 C48.3192387,45.3612997 47.5020109,45.2778527 46.731645,45.1109562 C45.9612791,44.9440596 45.2255702,44.6611539 44.5244965,44.2622305 L44.4022168,45.1048502 L41.1740328,45.1048502 L41.1740328,40.2078863 L44.5244965,40.2078863 C44.8424253,40.8591898 45.2439063,41.3639425 45.7289515,41.7221594 C46.2139967,42.0803764 46.749984,42.2594822 47.3369295,42.2594822 C47.7852906,42.2594822 48.1052526,42.1760351 48.2968251,42.0091386 C48.4883976,41.8422421 48.5841824,41.6570304 48.5841824,41.4534981 C48.5841824,41.119705 48.3966887,40.8612228 48.0216958,40.6780437 C47.6467028,40.4948646 47.1840826,40.3320411 46.6338212,40.1895685 C46.0835599,40.0470958 45.4782814,39.888343 44.8179678,39.7133052 C44.1576541,39.5382673 43.5523757,39.2838557 43.0021143,38.9500626 C42.4518529,38.6162696 41.9892327,38.1664698 41.6142397,37.6006499 C41.2392468,37.03483 41.0517531,36.291948 41.0517531,35.3719818 C41.0517531,34.7125369 41.2005253,34.1100902 41.498074,33.5646235 C41.7956228,33.0191568 42.2215594,32.5591806 42.7758968,32.1846811 C43.3302342,31.8101815 43.9823861,31.5232052 44.732372,31.3237435 C45.4823578,31.1242818 46.3056996,31.0245524 47.2024218,31.0245524 C48.2051203,31.0245524 49.1079431,31.1364936 49.9109171,31.3603792 C50.7138911,31.5842647 51.3150936,31.8305352 51.7145426,32.0991979 L51.8368223,31.2321544 L55.0772342,31.2321544 L55.0772342,36.0314233 Z M71.6630059,33.2715384 C71.2472529,33.2715384 70.8906073,33.3020678 70.5930586,33.3631275 C70.2955098,33.4241872 70.040763,33.4954225 69.8288105,33.5768354 C69.616858,33.6582483 69.4415921,33.7498365 69.3030078,33.8516027 C69.1644234,33.9533689 69.042145,34.0449571 68.9361687,34.12637 L69.0584484,34.2484888 C69.2133368,34.1670759 69.3824887,34.0856641 69.5659091,34.0042512 C69.7493296,33.9228383 69.9836967,33.8821324 70.2690174,33.8821324 C70.7499866,33.8821324 71.1657334,34.03885 71.5162703,34.3522898 C71.8668072,34.6657296 72.042073,35.1643764 72.042073,35.8482451 C72.042073,36.4995486 71.7750983,37.0226189 71.241141,37.4174717 C70.7071836,37.8123245 69.9918546,38.0097479 69.0951323,38.0097479 C68.2391702,38.0097479 67.5564487,37.7634774 67.0469474,37.2709291 C66.5374461,36.7783808 66.2826993,36.0802753 66.2826993,35.1765917 C66.2826993,34.6799727 66.4212816,34.1853965 66.6984503,33.6928483 C66.975619,33.2003 67.4056316,32.7586414 67.9885011,32.3678593 C68.5713705,31.9770771 69.3131933,31.6555009 70.2139915,31.4031207 C71.1147898,31.1507406 72.2010302,31.0245524 73.4727454,31.0245524 C74.9890212,31.0245524 76.2281097,31.167023 77.1900482,31.4519683 C78.1519866,31.7369135 78.8999232,32.1032663 79.4338806,32.5510375 C79.9678379,32.9988086 80.3346733,33.5076319 80.5343978,34.0775225 C80.7341223,34.6474131 80.8339831,35.2213657 80.8339831,35.7993976 L80.8339831,40.5742427 C80.8339831,41.3151005 80.8584388,41.8178178 80.9073509,42.0824099 C80.956263,42.347002 81.1396807,42.479296 81.4576095,42.479296 C81.7103222,42.479296 81.887626,42.3592137 81.9895262,42.1190455 C82.0914265,41.8788774 82.1423758,41.4657129 82.1423758,40.8795397 L82.1423758,39.3530547 L83.5363644,39.3530547 L83.5363644,40.9039635 C83.5363644,41.6366799 83.4752251,42.2859384 83.3529448,42.8517583 C83.2306645,43.4175783 82.9983354,43.901978 82.6559505,44.3049721 C82.3135657,44.7079661 81.8489075,45.0132601 81.261962,45.2208631 C80.6750165,45.4284661 79.9250419,45.532266 79.0120156,45.532266 C78.1886616,45.532266 77.5059401,45.4447484 76.9638307,45.2697106 C76.4217214,45.0946728 75.9917087,44.8768964 75.6737799,44.616375 C75.3558511,44.3558536 75.129636,44.0851596 74.9951276,43.804285 C74.8606193,43.5234103 74.7933661,43.2730693 74.7933661,43.0532544 L74.5977186,43.0532544 C74.5488065,43.3870474 74.4081862,43.7045531 74.1758537,44.005781 C73.9435211,44.3070089 73.6215211,44.5736323 73.2098441,44.8056592 C72.798167,45.037686 72.3049772,45.224933 71.7302598,45.3674057 C71.1555423,45.5098783 70.5013525,45.5811136 69.7676706,45.5811136 C69.0665969,45.5811136 68.4287108,45.5139489 67.8539934,45.3796175 C67.279276,45.2452862 66.7901621,45.0336157 66.3866371,44.7445998 C65.983112,44.4555838 65.669264,44.0810899 65.4450834,43.6211068 C65.2209028,43.1611237 65.1088142,42.6136299 65.1088142,41.9786089 C65.1088142,41.1970447 65.3289155,40.5803509 65.7691246,40.1285091 C66.2093337,39.6766673 66.7636628,39.3184557 67.4321285,39.0538636 C68.1005941,38.7892716 68.828151,38.5735305 69.614821,38.406634 C70.401491,38.2397375 71.1290479,38.0382434 71.7975136,37.8021459 C72.4659793,37.5660484 73.0203083,37.2607544 73.4605174,36.8862549 C73.9007266,36.5117554 74.1208278,35.9825792 74.1208278,35.2987105 C74.1208278,34.6881134 73.9292582,34.1976078 73.5461132,33.8271789 C73.1629683,33.4567501 72.5352721,33.2715384 71.6630059,33.2715384 Z M74.1208278,38.5592825 C73.9414834,38.8198039 73.7173062,39.0294391 73.4482895,39.1881943 C73.1792728,39.3469495 72.92045,39.5016318 72.6718134,39.6522458 C72.4231768,39.8028597 72.2071515,39.9819655 72.023731,40.1895685 C71.8403106,40.3971715 71.7486017,40.6760066 71.7486017,41.0260823 C71.7486017,41.294745 71.8219688,41.5369448 71.9687052,41.7526891 C72.1154415,41.9684334 72.400758,42.076304 72.824663,42.076304 C73.207808,42.076304 73.5196181,41.9277276 73.7601027,41.6305703 C74.0005873,41.3334131 74.1208278,40.916178 74.1208278,40.3788526 L74.1208278,38.5592825 Z M93.3638604,31.5740871 L93.3638604,39.1820884 C93.3638604,39.7275551 93.4983667,40.0837314 93.7673834,40.2506279 C94.0364001,40.4175244 94.3787798,40.5009714 94.7945328,40.5009714 L95.124688,40.5009714 L95.124688,45.0315789 L84.8287376,45.0315789 L84.8287376,40.5009714 L85.3056285,40.5009714 C85.7376855,40.5009714 86.0576475,40.3646068 86.2655241,40.0918734 C86.4734006,39.8191401 86.5773373,39.5240226 86.5773373,39.2065121 L86.5773373,37.484637 C86.5773373,37.012442 86.4285651,36.6644069 86.1310164,36.4405213 C85.8334677,36.2166357 85.48905,36.1046946 85.097753,36.1046946 L84.8287376,36.1046946 L84.8287376,31.5740871 L93.3638604,31.5740871 Z M87.1887358,26.1398004 L90.9794063,26.1398004 L93.9997148,29.9132714 L91.0283182,29.9132714 L89.0718431,28.5577527 L87.1398239,29.9132714 L84.1684273,29.9132714 L87.1887358,26.1398004 Z M108.131456,37.2281876 C108.131456,36.9106771 108.092735,36.6562655 108.01529,36.464945 C107.937846,36.2736246 107.840023,36.1270835 107.721819,36.0253174 C107.603615,35.9235512 107.471147,35.8563865 107.32441,35.8238213 C107.177674,35.7912562 107.035016,35.7749738 106.896431,35.7749738 C106.36655,35.7749738 105.971183,35.9296561 105.710318,36.2390253 C105.449454,36.5483944 105.319023,36.9880177 105.319023,37.5579083 L105.319023,39.3042072 C105.319023,39.7356958 105.394428,40.043025 105.545241,40.2262041 C105.696053,40.4093832 105.987483,40.5009714 106.41954,40.5009714 L107.079851,40.5009714 L107.079851,45.0315789 L96.8572682,45.0315789 L96.8572682,40.5009714 L97.5787184,40.5009714 C97.9129512,40.5009714 98.1676981,40.3931009 98.3429665,40.1773566 C98.5182349,39.9616123 98.6058678,39.7031301 98.6058678,39.4019022 L98.6058678,37.081645 C98.6058678,36.6990042 98.4937792,36.440522 98.2695987,36.3061906 C98.0454181,36.1718592 97.7906713,36.1046946 97.5053506,36.1046946 L96.8572682,36.1046946 L96.8572682,31.5740871 L104.120682,31.5740871 L103.863895,34.9323541 L104.07177,34.9323541 C104.251115,33.6785948 104.801368,32.7138659 105.722546,32.0381385 C106.643724,31.3624111 107.895041,31.0245524 109.476533,31.0245524 C110.59336,31.0245524 111.502296,31.1833053 112.20337,31.5008158 C112.904444,31.8183262 113.448583,32.219279 113.835804,32.703686 C114.223025,33.188093 114.485924,33.7131986 114.624508,34.2790185 C114.763092,34.8448384 114.832383,35.3760499 114.832383,35.8726689 L114.832383,39.3042072 C114.832383,39.7356958 114.907789,40.043025 115.058601,40.2262041 C115.209413,40.4093832 115.500844,40.5009714 115.932901,40.5009714 L116.593211,40.5009714 L116.593211,45.0315789 L108.131456,45.0315789 L108.131456,37.2281876 Z M124.806615,39.0599696 C124.839223,40.2730224 125.069514,41.1095278 125.497495,41.5695109 C125.925476,42.0294941 126.538907,42.2594822 127.337805,42.2594822 C127.606821,42.2594822 127.86972,42.2208116 128.126509,42.1434693 C128.383297,42.066127 128.621741,41.9399388 128.841845,41.764901 C129.06195,41.5898632 129.251481,41.3578398 129.410446,41.0688238 C129.56941,40.7798079 129.673347,40.4154905 129.722259,39.9758606 L134.17324,39.9758606 C134.010199,41.0260875 133.710617,41.9053341 133.274484,42.6136267 C132.838351,43.3219193 132.277908,43.8938366 131.593138,44.3293958 C130.908368,44.7649551 130.11152,45.0783902 129.20257,45.2697106 C128.29362,45.461031 127.280747,45.5566898 126.16392,45.5566898 C125.014485,45.5566898 123.934358,45.4101487 122.923508,45.1170621 C121.912657,44.8239755 121.026138,44.3782464 120.263924,43.7798612 C119.501711,43.1814761 118.904584,42.4284177 118.472527,41.5206634 C118.04047,40.6129091 117.824444,39.5321685 117.824444,38.2784092 C117.824444,37.081639 118.028242,36.0314278 118.435843,35.1277442 C118.843444,34.2240605 119.416115,33.4689668 120.153873,32.8624404 C120.891631,32.255914 121.763884,31.7979731 122.770658,31.4886039 C123.777433,31.1792347 124.884053,31.0245524 126.090552,31.0245524 C127.57422,31.0245524 128.849992,31.2199406 129.917906,31.6107227 C130.985821,32.0015048 131.858074,32.5469633 132.534692,33.2471146 C133.21131,33.9472659 133.708575,34.7898772 134.026504,35.7749738 C134.344433,36.7600704 134.495243,37.855058 134.478939,39.0599696 L124.806615,39.0599696 Z M126.616355,34.3217601 C126.045713,34.3217601 125.623852,34.5232541 125.35076,34.9262481 C125.077667,35.3292422 124.896287,35.994783 124.806615,36.9228905 L128.38941,36.9228905 C128.340498,36.1250437 128.169308,35.4920676 127.875835,35.0239432 C127.582363,34.5558188 127.16254,34.3217601 126.616355,34.3217601 Z M131.972205,26.1275885 L127.496768,29.9010595 L124.488688,29.9010595 L127.044334,26.1275885 L131.972205,26.1275885 Z M150.371508,36.0314233 L147.008816,36.0314233 C146.772408,35.4452501 146.405572,34.9812033 145.908299,34.639269 C145.411026,34.2973346 144.89338,34.12637 144.355347,34.12637 C143.988506,34.12637 143.697076,34.1935347 143.481047,34.327866 C143.265019,34.4621974 143.157006,34.6636914 143.157006,34.9323541 C143.157006,35.2661471 143.3445,35.5164882 143.719493,35.6833847 C144.094485,35.8502812 144.565258,35.9988576 145.131823,36.1291183 C145.698388,36.259379 146.311819,36.4160966 146.972132,36.5992757 C147.632446,36.7824548 148.245876,37.0450076 148.812442,37.386942 C149.379007,37.7288763 149.849779,38.1888526 150.224772,38.7668844 C150.599765,39.3449163 150.787259,40.1061159 150.787259,41.050506 C150.787259,41.7832225 150.624221,42.4223045 150.29814,42.9677712 C149.972059,43.5132379 149.525743,43.9610024 148.959177,44.311078 C148.392612,44.6611537 147.726194,44.9237065 146.959904,45.0987443 C146.193615,45.2737821 145.366197,45.3612997 144.477627,45.3612997 C143.613512,45.3612997 142.796285,45.2778527 142.025919,45.1109562 C141.255553,44.9440596 140.519844,44.6611539 139.81877,44.2622305 L139.696491,45.1048502 L136.468307,45.1048502 L136.468307,40.2078863 L139.81877,40.2078863 C140.136699,40.8591898 140.53818,41.3639425 141.023225,41.7221594 C141.50827,42.0803764 142.044258,42.2594822 142.631203,42.2594822 C143.079564,42.2594822 143.399526,42.1760351 143.591099,42.0091386 C143.782671,41.8422421 143.878456,41.6570304 143.878456,41.4534981 C143.878456,41.119705 143.690962,40.8612228 143.31597,40.6780437 C142.940977,40.4948646 142.478356,40.3320411 141.928095,40.1895685 C141.377834,40.0470958 140.772555,39.888343 140.112242,39.7133052 C139.451928,39.5382673 138.846649,39.2838557 138.296388,38.9500626 C137.746127,38.6162696 137.283506,38.1664698 136.908513,37.6006499 C136.533521,37.03483 136.346027,36.291948 136.346027,35.3719818 C136.346027,34.7125369 136.494799,34.1100902 136.792348,33.5646235 C137.089897,33.0191568 137.515833,32.5591806 138.070171,32.1846811 C138.624508,31.8101815 139.27666,31.5232052 140.026646,31.3237435 C140.776632,31.1242818 141.599973,31.0245524 142.496696,31.0245524 C143.499394,31.0245524 144.402217,31.1364936 145.205191,31.3603792 C146.008165,31.5842647 146.609367,31.8305352 147.008816,32.0991979 L147.131096,31.2321544 L150.371508,31.2321544 L150.371508,36.0314233 Z M174.90546,31.5496633 C174.90546,32.2986624 174.758726,32.9479208 174.465253,33.4974582 C174.17178,34.0469955 173.798831,34.5232541 173.346394,34.9262481 C172.893957,35.3292422 172.415033,35.6793126 171.909607,35.9764698 C171.404182,36.2736271 170.925258,36.5606034 170.472821,36.8374074 C170.020384,37.1142114 169.647434,37.3950818 169.353962,37.6800271 C169.060489,37.9649724 168.913755,38.2906193 168.913755,38.6569775 L165.465467,38.6569775 C165.465467,38.005674 165.530683,37.4337567 165.661115,36.9412084 C165.791547,36.4486601 165.958661,36.0151427 166.162462,35.6406431 C166.366262,35.2661436 166.588401,34.9242144 166.828886,34.6148452 C167.069371,34.305476 167.289472,33.9961115 167.489196,33.6867423 C167.688921,33.3773731 167.856035,33.0598674 167.990543,32.7342157 C168.125051,32.4085639 168.192305,32.0381406 168.192305,31.6229346 C168.192305,31.2077286 168.100596,30.849517 167.917175,30.5482891 C167.733755,30.2470612 167.495312,30.0211437 167.201839,29.8705298 C166.908366,29.7199158 166.574139,29.64461 166.199146,29.64461 C165.824153,29.64461 165.453241,29.7382335 165.0864,29.9254832 C165.583674,30.0720265 165.974965,30.3121911 166.260285,30.6459842 C166.545606,30.9797772 166.688264,31.4560358 166.688264,32.0747741 C166.688264,32.3597194 166.625087,32.634484 166.498731,32.899076 C166.372374,33.1636681 166.188957,33.405868 165.948472,33.6256829 C165.707988,33.8454979 165.404329,34.0164625 165.037488,34.1385819 C164.670648,34.2607013 164.250825,34.3217601 163.778008,34.3217601 C163.427471,34.3217601 163.068787,34.2769836 162.701946,34.1874294 C162.335105,34.0978752 162.002915,33.937087 161.705367,33.7050601 C161.407818,33.4730333 161.161223,33.1595981 160.965575,32.7647454 C160.769926,32.3698926 160.672103,31.8834576 160.672103,31.3054257 C160.672103,30.5889918 160.853483,29.9499098 161.216248,29.3881605 C161.579013,28.8264112 162.080355,28.3542232 162.720288,27.9715824 C163.360222,27.5889416 164.1265,27.2978947 165.019147,27.098433 C165.911793,26.8989713 166.892058,26.7992419 167.959973,26.7992419 C170.283299,26.7992419 172.021691,27.2124064 173.175202,28.0387478 C174.328713,28.8650891 174.90546,30.0353826 174.90546,31.5496633 Z M164.108163,42.4548722 C164.108163,42.0396662 164.19172,41.6407488 164.358836,41.258108 C164.525953,40.8754672 164.748092,40.5457497 165.02526,40.2689457 C165.302429,39.9921417 165.628505,39.7702948 166.003498,39.6033982 C166.378491,39.4365017 166.78201,39.3530547 167.214067,39.3530547 C167.62982,39.3530547 168.029263,39.4365017 168.412408,39.6033982 C168.795553,39.7702948 169.125705,39.9921417 169.402874,40.2689457 C169.680042,40.5457497 169.902182,40.8754672 170.069298,41.258108 C170.236414,41.6407488 170.319971,42.0396662 170.319971,42.4548722 C170.319971,42.8863608 170.236414,43.2893488 170.069298,43.6638484 C169.902182,44.0383479 169.680042,44.3639948 169.402874,44.6407988 C169.125705,44.9176028 168.795553,45.1394497 168.412408,45.3063463 C168.029263,45.4732428 167.62982,45.5566898 167.214067,45.5566898 C166.78201,45.5566898 166.378491,45.4732428 166.003498,45.3063463 C165.628505,45.1394497 165.302429,44.9176028 165.02526,44.6407988 C164.748092,44.3639948 164.525953,44.0383479 164.358836,43.6638484 C164.19172,43.2893488 164.108163,42.8863608 164.108163,42.4548722 Z" id="nos-ans-?" fill="#9C6BDA"></path>
                </g>
            </g>
        </g>
    </g>
</svg>