<svg xmlns="http://www.w3.org/2000/svg" xmlns:xlink="http://www.w3.org/1999/xlink" width="266" height="168" viewBox="0 0 266 168">
    <defs>
        <filter id="a" width="100%" height="100%" x="-1.1%" y="-1.8%" filterUnits="objectBoundingBox">
            <feOffset in="SourceAlpha" result="shadowOffsetOuter1"/>
            <feGaussianBlur in="shadowOffsetOuter1" result="shadowBlurOuter1" stdDeviation="1"/>
            <feColorMatrix in="shadowBlurOuter1" values="0 0 0 0 0 0 0 0 0 0 0 0 0 0 0 0 0 0 0.1 0"/>
        </filter>
    </defs>
    <g fill="none" fill-rule="evenodd">
        <g transform="translate(2 2)">
            <use fill="#000" filter="url(#a)" xlink:href="#b"/>
            <use fill="#F3F3F3" xlink:href="#b"/>
        </g>
        <path fill="#660779" fill-opacity=".2" d="M120.163 67.331h-.053l-2.396-13.42h-3.248l4.02 19.34h3.3l4.02-19.34h-3.247l-2.396 13.42zm11.234 5.92v-19.34h-3.301v19.34h3.3zm3.647-4.687v-9.965c0-2.732 1.597-4.956 5.058-4.956 3.46 0 5.058 2.224 5.058 4.956v9.965c0 2.732-1.597 4.955-5.058 4.955-3.46 0-5.058-2.223-5.058-4.955zm3.301-9.885v9.804c0 1.447.426 2.143 1.757 2.143s1.757-.696 1.757-2.143V58.68c0-1.446-.426-2.143-1.757-2.143s-1.757.697-1.757 2.143zm18.342 14.572v-2.893h-5.191V53.911h-3.301v19.34h8.492zm11.234 0v-2.893h-5.91V64.68h4.26v-2.892h-4.26v-4.983h5.537v-2.893h-8.838v19.34h9.211zm5.59 0v-12.08h.054l4.206 12.08h2.875v-19.34h-2.982v11.063h-.053l-4.02-11.063h-3.061v19.34h2.981zm20.286-12.884v-1.42c0-2.893-1.598-5.304-4.899-5.304-3.46 0-5.058 2.224-5.058 4.956v9.965c0 2.732 1.598 4.955 5.058 4.955 3.301 0 4.899-2.223 4.899-4.955V66.34h-3.301v2.33c0 1.26-.4 1.956-1.598 1.956-1.33 0-1.757-.696-1.757-2.143V58.68c0-1.446.426-2.143 1.757-2.143.852 0 1.598.697 1.598 2.33v1.5h3.3zm12.565 12.884v-2.893h-5.91V64.68h4.26v-2.892h-4.26v-4.983h5.537v-2.893h-8.838v19.34h9.21zm11.766-14.92c-.292-2.732-1.89-4.688-4.578-4.688-3.248 0-5.112 1.742-5.112 4.822 0 5.545 6.709 6.563 6.709 10.393 0 1.152-.772 1.768-1.917 1.768-1.065 0-1.837-.964-1.97-2.92l-3.141.456c.133 2.893 1.89 5.357 4.951 5.357 3.088 0 5.218-1.768 5.218-4.955 0-5.25-6.708-6.831-6.708-10.126 0-1.205.585-1.902 1.65-1.902.746 0 1.624.482 1.757 2.143l3.141-.348zM116.102 47.454l-.298 1.898h.608l-.298-1.898h-.012zm-.408 2.56l-.134.979h-.73l.81-4.42h.937l.809 4.42h-.73l-.134-.98h-.828zm2.13-.136c0 .76.438 1.176 1.156 1.176s1.156-.416 1.156-1.176v-3.306h-.754v3.337c0 .325-.128.484-.402.484s-.402-.16-.402-.484v-3.337h-.754v3.306zm2.762 1.115h.743l.523-1.61h.012l.511 1.61h.743l-.852-2.315.76-2.106h-.742l-.42 1.402h-.012l-.462-1.402h-.743l.803 2.106-.864 2.315zM61.098 52.917c-.401-3.747-2.592-6.429-6.28-6.429-4.453 0-7.01 2.388-7.01 6.612 0 7.605 9.201 9 9.201 14.254 0 1.58-1.059 2.425-2.628 2.425-1.46 0-2.52-1.323-2.702-4.005l-4.308.625c.182 3.967 2.592 7.347 6.79 7.347 4.236 0 7.156-2.424 7.156-6.796 0-7.2-9.2-9.368-9.2-13.886 0-1.653.803-2.609 2.264-2.609 1.022 0 2.227.662 2.41 2.94l4.307-.478zm6.28 20.462h4.527V50.823h4.38v-3.968H62.998v3.968h4.38v22.556zM78.95 66.95V53.284c0-3.747 2.19-6.796 6.937-6.796 4.746 0 6.936 3.05 6.936 6.796V66.95c0 3.747-2.19 6.796-6.936 6.796s-6.937-3.049-6.937-6.796zm4.527-13.556V66.84c0 1.984.584 2.939 2.41 2.939 1.825 0 2.41-.955 2.41-2.94V53.395c0-1.983-.585-2.939-2.41-2.939-1.826 0-2.41.956-2.41 2.94zm18.255-2.792v8.156h1.752c2.957 0 3.87-.919 3.87-4.078 0-3.16-.913-4.078-3.87-4.078h-1.752zm0 22.777h-4.528V46.855h6.5c5.585 0 8.177 2.168 8.177 7.825s-2.592 7.825-8.178 7.825h-1.971v10.874z"/>
        <path fill="#000" d="M120.387 67.182c1.188-.891 2.697-1.337 4.527-1.337.964 0 1.8.137 2.505.412.706.274 1.246.666 1.621 1.175.375.51.562 1.107.562 1.793 0 .48-.136.953-.408 1.418a3.263 3.263 0 0 1-1.147 1.146 3.156 3.156 0 0 1-1.672.449c-.74 0-1.324-.18-1.753-.537-.428-.357-.642-.864-.642-1.52 0-.775.236-1.48.708-2.117s1.122-1.112 1.95-1.425a1.903 1.903 0 0 0-.774-.191c-.604 0-1.09.161-1.46.485-.565.48-1.047 1.474-1.447 2.983l-1.066 3.997h3.023l-.19.602h-2.993l-5.346 20.104c-1.976.029-3.782.171-5.418.426l5.491-20.53h-2.35l.189-.602h2.322c.867-3.263 2.123-5.506 3.768-6.73zm12.501 21.47c-1.295.774-2.789 1.161-4.483 1.161-.954 0-1.823-.164-2.607-.492-.784-.328-1.407-.81-1.87-1.448-.462-.636-.693-1.405-.693-2.307 0-1.969.504-3.899 1.511-5.79a12.897 12.897 0 0 1 4.134-4.636c1.747-1.2 3.673-1.8 5.776-1.8 1.12 0 2.017.225 2.694.676.677.45 1.015 1.112 1.015 1.984 0 1.146-.453 2.199-1.358 3.16-.906.96-2.074 1.777-3.505 2.453a22.487 22.487 0 0 1-4.571 1.573 12.311 12.311 0 0 0-.103 1.543c0 1.097.21 1.856.628 2.277.419.422 1.037.632 1.855.632.497 0 1.137-.171 1.92-.514.784-.343 1.541-.872 2.272-1.587l.467.235c-.76 1.146-1.787 2.106-3.082 2.88zm-.759-13.439c-.691.867-1.324 1.98-1.899 3.336a18.41 18.41 0 0 0-1.212 4.093 12.873 12.873 0 0 0 2.746-2.043c1.81-1.802 2.716-3.776 2.716-5.922 0-.51-.16-.764-.482-.764-.555 0-1.178.433-1.869 1.3zm31.312 9.295l-.76 2.204c-.7 2.068-2.127 3.101-4.279 3.101-1.333 0-2.258-.421-2.774-1.264-.263-.45-.395-.98-.395-1.587 0-.676.151-1.455.453-2.336l2.57-7.789c.146-.43.22-.754.22-.97 0-.235-.083-.352-.249-.352-.39 0-.852.3-1.387.903-.536.603-1.144 1.622-1.826 3.057-.681 1.435-1.382 3.319-2.103 5.65l-1.227 4.262h-5.33l3.592-12.55c.156-.539.234-.881.234-1.028 0-.196-.097-.294-.292-.294-.71 0-1.507.808-2.388 2.424-.88 1.617-1.799 3.88-2.753 6.79l-1.197 4.658h-5.302l3.651-13.064c.088-.323.132-.573.132-.75 0-.342-.156-.514-.468-.514-.574 0-1.1.632-1.577 1.896l-.686 1.837h-.57l.833-2.352c.39-1.067.961-1.851 1.716-2.35.754-.5 1.618-.75 2.592-.75 1.032 0 1.777.252 2.234.757.458.504.687 1.168.687 1.99 0 .451-.063.941-.19 1.47l-.336 1.323c.565-1.313 1.161-2.376 1.79-3.189.627-.813 1.318-1.408 2.073-1.785.755-.378 1.609-.566 2.563-.566 1.753 0 2.629.798 2.629 2.395 0 .617-.117 1.337-.35 2.16l-.161.544c.603-1.303 1.231-2.33 1.884-3.079.652-.75 1.324-1.273 2.015-1.572a5.682 5.682 0 0 1 2.278-.448c1.792 0 2.688.788 2.688 2.366 0 .627-.142 1.357-.424 2.19l-2.95 8.934c-.097.294-.146.534-.146.72 0 .363.165.544.497.544.593 0 1.124-.632 1.591-1.896l.628-1.69h.57zm26.536 0l-.76 2.204c-.7 2.068-2.127 3.101-4.278 3.101-1.334 0-2.26-.421-2.775-1.264-.263-.45-.394-.98-.394-1.587 0-.676.15-1.455.452-2.336l2.57-7.789c.147-.43.22-.754.22-.97 0-.235-.083-.352-.249-.352-.389 0-.851.3-1.387.903-.535.603-1.144 1.622-1.825 3.057-.682 1.435-1.383 3.319-2.104 5.65l-1.226 4.262h-5.33l3.592-12.55c.156-.539.233-.881.233-1.028 0-.196-.097-.294-.292-.294-.71 0-1.506.808-2.387 2.424-.882 1.617-1.8 3.88-2.753 6.79l-1.198 4.658h-5.301l3.65-13.064c.088-.323.132-.573.132-.75 0-.342-.156-.514-.467-.514-.575 0-1.1.632-1.577 1.896l-.687 1.837h-.57l.833-2.352c.39-1.067.961-1.851 1.716-2.35.755-.5 1.619-.75 2.592-.75 1.032 0 1.777.252 2.235.757.457.504.686 1.168.686 1.99 0 .451-.063.941-.19 1.47l-.336 1.323c.565-1.313 1.161-2.376 1.79-3.189.627-.813 1.319-1.408 2.073-1.785.755-.378 1.61-.566 2.563-.566 1.753 0 2.63.798 2.63 2.395 0 .617-.118 1.337-.351 2.16l-.161.544c.604-1.303 1.232-2.33 1.884-3.079.652-.75 1.324-1.273 2.015-1.572a5.682 5.682 0 0 1 2.279-.448c1.791 0 2.687.788 2.687 2.366 0 .627-.141 1.357-.424 2.19l-2.95 8.934c-.097.294-.146.534-.146.72 0 .363.166.544.497.544.594 0 1.124-.632 1.592-1.896l.628-1.69h.57zm10.822 4.144c-1.295.774-2.79 1.161-4.483 1.161-.955 0-1.824-.164-2.607-.492-.784-.328-1.407-.81-1.87-1.448-.462-.636-.693-1.405-.693-2.307 0-1.969.503-3.899 1.511-5.79a12.897 12.897 0 0 1 4.133-4.636c1.748-1.2 3.673-1.8 5.776-1.8 1.12 0 2.018.225 2.695.676.677.45 1.015 1.112 1.015 1.984 0 1.146-.453 2.199-1.358 3.16-.906.96-2.074 1.777-3.505 2.453a22.487 22.487 0 0 1-4.572 1.573 12.311 12.311 0 0 0-.102 1.543c0 1.097.21 1.856.628 2.277.419.422 1.037.632 1.855.632.496 0 1.137-.171 1.92-.514.784-.343 1.541-.872 2.271-1.587l.468.235c-.76 1.146-1.787 2.106-3.082 2.88zm-.76-13.439c-.69.867-1.323 1.98-1.898 3.336a18.41 18.41 0 0 0-1.212 4.093 12.873 12.873 0 0 0 2.746-2.043c1.81-1.802 2.716-3.776 2.716-5.922 0-.51-.16-.764-.482-.764-.555 0-1.178.433-1.87 1.3zm9.596 13.968c.623 0 1.137-.208 1.54-.624.405-.417.607-.973.607-1.668 0-.627-.149-1.3-.446-2.02-.297-.72-.727-1.541-1.292-2.462a46.13 46.13 0 0 1-1.015-1.72 7.15 7.15 0 0 1-.54-1.293c-.151-.48-.227-.98-.227-1.499 0-.872.222-1.65.665-2.336.443-.686 1.11-1.227 2-1.624.891-.397 1.984-.595 3.28-.595 1.47 0 2.694.264 3.672.793.979.53 1.468 1.42 1.468 2.675 0 .43-.083.852-.248 1.264-.166.411-.407.75-.723 1.014-.317.264-.699.396-1.147.396-.594 0-1.061-.232-1.402-.698-.34-.465-.511-1.075-.511-1.83 0-.587.097-1.138.292-1.652.195-.515.414-.904.657-1.169-.175-.088-.423-.132-.745-.132-.7 0-1.229.206-1.584.617-.355.412-.533 1.01-.533 1.793 0 .49.107.975.321 1.455.214.48.472.967.774 1.462.302.495.526.87.672 1.124.662 1.137 1.125 2.058 1.387 2.763a5.91 5.91 0 0 1 .395 2.072 4.04 4.04 0 0 1-.687 2.293c-.457.685-1.136 1.229-2.037 1.63-.9.402-1.984.603-3.25.603-1.606 0-2.93-.299-3.972-.896-1.042-.598-1.563-1.582-1.563-2.954 0-.764.185-1.403.555-1.918.37-.514.862-.771 1.475-.771.585 0 1.054.242 1.41.727.355.485.533 1.124.533 1.918 0 .392-.046.776-.139 1.154-.092.377-.204.73-.336 1.058-.131.328-.25.605-.358.83.302.147.653.22 1.052.22z"/>
        <path fill="#660779" d="M51.48 79.502c.234-.505.51-.915.828-1.231.224-.23.497-.41.82-.542a2.645 2.645 0 0 1 1.006-.197c.433 0 .772.098 1.017.294a.924.924 0 0 1 .368.754 1.059 1.059 0 0 1-.482.865.886.886 0 0 1-.496.147c-.185 0-.33-.043-.435-.13-.105-.085-.155-.208-.15-.365 0-.235.076-.44.228-.614.153-.175.355-.3.607-.377 0-.091-.066-.172-.196-.244a.973.973 0 0 0-.475-.108c-.285 0-.568.127-.849.38-.2.192-.37.495-.513.909a17.46 17.46 0 0 0-.404 1.36c-.126.493-.215.845-.267 1.055l-.007.015h1.733l-.092.294H52l-2.618 9.82c-.514.015-.951.084-1.313.209l2.669-10.029h-1.327l.092-.294h1.306l.007-.015c.21-.799.43-1.451.663-1.956zm8.562 7.132l-.364 1.077c-.2.546-.45.937-.75 1.174-.299.237-.61.355-.934.355-.18 0-.341-.035-.481-.104a.788.788 0 0 1-.325-.284 1.037 1.037 0 0 1-.121-.516c0-.144.016-.294.05-.45a8.75 8.75 0 0 1 .107-.444c.038-.141.061-.233.071-.277l.264-1.07c-.466 1.102-.94 1.9-1.423 2.399-.483.497-.988.746-1.516.746-.447 0-.789-.161-1.024-.484-.236-.324-.353-.755-.353-1.296 0-.795.21-1.682.631-2.664.421-.98.966-1.813 1.634-2.498.668-.684 1.352-1.026 2.051-1.026.257 0 .47.095.639.287.168.191.267.462.296.811l.228-.897c.542-.015.992-.082 1.348-.201l-1.826 6.496c-.071.259-.107.44-.107.546 0 .244.11.366.328.366.428 0 .801-.5 1.12-1.5l.178-.546h.279zm-1.727-3.805c0-.392-.07-.703-.21-.933a.662.662 0 0 0-.596-.344c-.414 0-.855.324-1.323.972-.469.649-.861 1.452-1.178 2.409-.316.957-.474 1.857-.474 2.7 0 .406.043.697.128.871.086.175.212.262.379.262.27 0 .595-.21.973-.628.379-.419.75-.977 1.113-1.676.364-.699.665-1.445.903-2.24l.271-1.07c.01-.153.014-.26.014-.323zm5.337-4.39c.104-.174.241-.314.41-.42a.978.978 0 0 1 .524-.157c.22 0 .397.073.535.219a.768.768 0 0 1 .207.549c0 .191-.05.372-.153.542-.102.17-.24.307-.41.413-.172.105-.35.158-.535.158a.7.7 0 0 1-.528-.216.746.746 0 0 1-.207-.538c0-.192.052-.375.157-.55zm-.478 3.744c0-.248-.105-.373-.314-.373-.224 0-.423.119-.6.355-.175.237-.36.619-.556 1.145l-.207.546h-.271l.378-1.07c.2-.56.462-.952.785-1.177a1.77 1.77 0 0 1 1.027-.337c.647 0 .97.306.97.919 0 .287-.08.665-.242 1.134l-1.562 4.458c-.077.21-.115.39-.115.538 0 .25.117.374.35.374.2 0 .388-.112.564-.334.176-.223.368-.612.578-1.167l.2-.545h.278l-.379 1.076c-.19.532-.444.917-.763 1.156-.319.24-.663.36-1.034.36-.68 0-1.02-.3-1.02-.898 0-.302.085-.69.256-1.163l1.57-4.458c.071-.216.107-.395.107-.539zm3.71 5.93c0 .196.058.342.174.438.117.096.27.144.46.144.243 0 .47-.106.682-.316.212-.21.417-.596.617-1.156l.207-.574h.278l-.307.926c-.204.607-.47 1.037-.799 1.288-.328.251-.73.377-1.205.377-.438 0-.765-.108-.981-.323-.217-.215-.325-.514-.325-.897 0-.235.045-.515.136-.84l1.548-5.413h-1.313l.071-.294h1.327l.635-2.233c.538-.014.975-.084 1.313-.208l-.692 2.44h1.933l-.042.295h-1.97l-1.697 6.016c-.034.115-.05.225-.05.33zm7.476.118c-.304.3-.645.542-1.023.73-.378.186-.765.28-1.16.28-.604 0-1.076-.18-1.416-.536-.34-.356-.51-.87-.51-1.54 0-.741.216-1.58.65-2.516a7.209 7.209 0 0 1 1.758-2.39c.74-.658 1.542-.987 2.408-.987.314 0 .573.083.777.25.205.168.307.408.307.719 0 .794-.44 1.486-1.32 2.074-.88.59-1.895 1.08-3.046 1.472-.11.488-.164.962-.164 1.422 0 .942.335 1.414 1.006 1.414.832 0 1.584-.49 2.254-1.472l.236.115a4.56 4.56 0 0 1-.757.965zm-.663-6.13c-.385.366-.746.854-1.08 1.464a8.315 8.315 0 0 0-.768 1.942c.96-.34 1.624-.656 1.99-.947a2.933 2.933 0 0 0 1.141-2.347c.001-.264-.018-.44-.056-.529-.038-.088-.097-.132-.178-.132-.314 0-.664.183-1.05.549zm4.188 6.845c.442 0 .799-.133 1.07-.399.271-.265.407-.637.407-1.116a2.53 2.53 0 0 0-.175-.919c-.117-.301-.313-.644-.589-1.026-.233-.321-.405-.568-.517-.74a3.1 3.1 0 0 1-.3-.617 2.23 2.23 0 0 1-.132-.775c0-.407.101-.769.304-1.084.202-.316.476-.562.824-.736a2.504 2.504 0 0 1 1.141-.262c.504 0 .928.094 1.27.283.342.19.514.52.514.995a.889.889 0 0 1-.072.333.75.75 0 0 1-.224.302.583.583 0 0 1-.382.125.559.559 0 0 1-.417-.172.611.611 0 0 1-.168-.445c0-.316.138-.644.414-.983-.195-.115-.44-.173-.735-.173-.371 0-.676.125-.913.374-.238.248-.357.588-.357 1.019 0 .258.043.48.128.664.086.184.21.392.371.625.162.232.288.415.378.549.29.454.507.842.65 1.163.142.32.214.653.214.998 0 .445-.114.843-.343 1.195a2.349 2.349 0 0 1-.917.822c-.382.196-.8.294-1.252.294-.56 0-1.03-.12-1.409-.359-.378-.24-.567-.605-.567-1.098 0-.172.047-.326.14-.46.092-.134.236-.2.43-.2.22 0 .381.088.486.265.105.177.157.397.157.66 0 .173-.033.426-.1.761.18.091.404.137.67.137zm14.647-2.312l-.364 1.077c-.2.546-.45.937-.75 1.174-.299.237-.61.355-.934.355-.18 0-.341-.035-.481-.104a.788.788 0 0 1-.325-.284 1.037 1.037 0 0 1-.121-.516c0-.144.016-.294.05-.45a8.75 8.75 0 0 1 .107-.444c.038-.141.061-.233.07-.277l.265-1.07c-.466 1.102-.94 1.9-1.423 2.399-.483.497-.989.746-1.516.746-.448 0-.789-.161-1.024-.484-.236-.324-.353-.755-.353-1.296 0-.795.21-1.682.631-2.664.42-.98.965-1.813 1.634-2.498.668-.684 1.352-1.026 2.05-1.026.258 0 .47.095.64.287.168.191.267.462.295.811l.229-.897c.542-.015.991-.082 1.348-.201l-1.826 6.496c-.072.259-.107.44-.107.546 0 .244.11.366.328.366.428 0 .801-.5 1.12-1.5l.178-.546h.279zm-1.727-3.805c0-.392-.07-.703-.21-.933a.662.662 0 0 0-.596-.344c-.414 0-.855.324-1.323.972-.469.649-.861 1.452-1.178 2.409-.316.957-.474 1.857-.474 2.7 0 .406.043.697.128.871.086.175.212.262.378.262.272 0 .596-.21.974-.628.378-.419.75-.977 1.113-1.676.364-.699.665-1.445.903-2.24l.27-1.07c.01-.153.015-.26.015-.323zm10.01 3.82l-.364 1.076c-.352 1.01-.942 1.515-1.77 1.515a.964.964 0 0 1-.445-.104.679.679 0 0 1-.304-.298 1.05 1.05 0 0 1-.085-.452c0-.259.069-.66.207-1.206l.463-1.845c-.39.947-.767 1.707-1.13 2.28-.364.571-.73.985-1.1 1.241a2.043 2.043 0 0 1-1.187.384c-.823 0-1.234-.378-1.234-1.134 0-.306.071-.67.214-1.091l1.412-4.293c.076-.24.115-.424.115-.553 0-.24-.115-.359-.343-.359-.2 0-.39.111-.57.334-.181.222-.367.611-.557 1.166l-.193.546h-.278l.371-1.07c.342-1.01.93-1.514 1.762-1.514.685 0 1.028.304 1.028.911 0 .268-.079.649-.236 1.142L95.2 87.532a2.402 2.402 0 0 0-.143.732c0 .335.155.502.464.502.37 0 .784-.272 1.238-.818.454-.546.901-1.307 1.341-2.283.44-.976.826-2.082 1.16-3.316l.22-.876c.557-.015 1.002-.082 1.335-.201l-1.812 6.51c-.072.25-.108.441-.108.575 0 .225.105.338.314.338.214 0 .41-.117.589-.349.178-.232.36-.616.546-1.152l.192-.545h.279zm6.242-4.48c.276-.32.527-.55.753-.69.226-.138.462-.207.71-.207.185 0 .339.049.46.147a.478.478 0 0 1 .182.391.674.674 0 0 1-.218.499.76.76 0 0 1-.553.212c-.328 0-.637-.117-.927-.352-.604.56-1.127 1.417-1.57 2.57l.343 3.144c.038.25.097.424.178.524.081.1.188.151.321.151.167 0 .326-.094.478-.283.152-.19.319-.545.5-1.066l.192-.546h.278l-.363 1.077c-.362 1-.918 1.5-1.67 1.5-.704 0-1.108-.452-1.213-1.357l-.214-1.91a8.428 8.428 0 0 1-1.555 2.355c-.3.316-.565.547-.796.693a1.26 1.26 0 0 1-.674.22c-.218 0-.384-.049-.496-.144a.5.5 0 0 1-.167-.402c0-.187.074-.351.221-.492a.754.754 0 0 1 .542-.212c.314 0 .62.117.92.352.4-.374.77-.82 1.11-1.34.34-.518.62-1.034.838-1.546l-.314-2.836c-.062-.45-.226-.675-.492-.675-.162 0-.32.096-.474.288-.155.191-.325.545-.51 1.062l-.186.546h-.278l.364-1.07c.195-.55.434-.938.717-1.163.283-.225.6-.337.952-.337.357 0 .634.101.831.305.198.203.325.551.382 1.044l.164 1.515a7.294 7.294 0 0 1 1.234-1.967z"/>
        <g>
            <path fill="#000" d="M43.644 95.706L222.1 92.592l.274 15.688-178.456 3.115z"/>
            <g fill-rule="nonzero">
                <path fill="#FFF" d="M56.589 100.053l1.278-.023 1.758 4.56h.022l-.08-4.59 1.244-.02.14 8.022-1.2.021-1.843-4.98h-.022l.087 5.011-1.244.022-.14-8.023zm8.564-.26c1.367-.025 2.126.818 2.147 1.985l.073 4.2c.02 1.134-.676 2.035-2.076 2.06-1.389.024-2.127-.841-2.147-1.986l-.073-4.19c-.02-1.166.698-2.046 2.076-2.07zm-.698 2.057l.073 4.145c.01.589.226.852.748.843.578-.01.728-.347.719-.869l-.073-4.134c-.008-.467-.126-.854-.748-.843-.489.009-.73.235-.719.858zm4.51-2.013l4.045-.07.021 1.2-1.333.023.119 6.823-1.378.024-.12-6.823-1.333.023-.02-1.2zm5.755-.1l1.99-.035c1.5-.027 2.29.638 2.319 2.327.018 1.044-.281 1.717-.932 2.04l1.23 3.613-1.4.024-1.035-3.306c-.178.026-.4.04-.711.046l.057 3.29-1.378.024-.14-8.024zm1.398 1.109l.043 2.467.522-.01c.734-.012.984-.317.968-1.25-.016-.934-.255-1.23-1.066-1.215l-.467.008zm5.057-1.222l3.69-.065.02 1.2-2.31.04.035 2.068 1.778-.031.021 1.2-1.778.03.042 2.357 2.467-.043.02 1.2-3.845.067-.14-8.023zm9.199-.16l2.023-.036c1.633-.029 2.456.613 2.486 2.324.032 1.856-.937 2.384-2.404 2.41l-.644.011.057 3.29-1.378.023-.14-8.023zm1.398 1.109l.043 2.467.467-.009c.9-.015 1.24-.221 1.223-1.255-.02-1.078-.4-1.227-1.3-1.211l-.433.008zm4.99-1.221l1.378-.024.12 6.823 2.166-.038.021 1.2-3.545.062-.14-8.023zm6.233-.11l1.712-.03 1.618 7.998-1.334.024-.275-1.774-1.512.026-.213 1.783-1.334.023 1.338-8.05zm.895 1.586h-.022l-.485 3.455 1.112-.02-.605-3.435zm3.993-1.67l1.278-.023 1.759 4.56h.022l-.08-4.59 1.244-.021.14 8.023-1.2.021-1.843-4.981h-.022l.087 5.012-1.244.022-.14-8.024zm9.821-.172l2.09-.036c1.366-.024 2.147.774 2.174 2.33l.058 3.289c.027 1.567-.726 2.38-2.092 2.404l-2.09.036-.14-8.023zm1.398 1.11l.1 5.756.467-.008c.79-.014.995-.351.982-1.096l-.063-3.6c-.014-.79-.275-1.074-1.02-1.06l-.466.007zm4.969-1.221l1.31-.023.024 1.311-.743 1.392-.589.01.52-1.388-.5.01-.022-1.312z"/>
                <path fill="#ED1844" d="M128.47 98.798l1.711-.03 1.618 7.998-1.333.023-.276-1.774-1.511.027-.214 1.782-1.333.023 1.338-8.049zm.895 1.585h-.023l-.484 3.455 1.111-.02-.604-3.435zm6.102-1.818c1.278-.023 2.06.864 2.083 2.142l.01.611-1.377.024-.01-.61c-.011-.6-.262-.974-.685-.967-.522.01-.729.268-.718.857l.072 4.145c.01.59.226.852.748.843.545-.01.661-.367.654-.79l-.018-1 1.378-.023.017.955c.02 1.134-.687 2.035-2.01 2.058-1.389.025-2.126-.84-2.146-1.985l-.074-4.2c-.02-1.168.71-2.036 2.076-2.06zm3.813.044l4.045-.07.02 1.2-1.333.023.12 6.823-1.379.024-.119-6.823-1.333.024-.021-1.2zm5.944-.103l1.378-.024.14 8.023-1.378.024-.14-8.023zm5.908-.215c1.367-.023 2.127.82 2.147 1.986l.073 4.2c.02 1.134-.676 2.036-2.076 2.06-1.389.024-2.127-.841-2.147-1.986l-.073-4.19c-.02-1.166.698-2.046 2.076-2.07zm-.697 2.058l.072 4.145c.01.589.226.852.748.843.578-.01.728-.346.719-.869l-.072-4.134c-.009-.466-.126-.853-.749-.842-.489.008-.73.235-.718.857zm5.043-2.022l1.278-.023 1.758 4.56h.022l-.08-4.59 1.245-.021.14 8.023-1.2.021-1.844-4.98h-.022l.088 5.011-1.245.022-.14-8.023zm8.353-.257c1.078-.02 1.79.691 1.957 1.91l-1.309.168c-.055-.588-.36-.883-.749-.876-.444.008-.684.301-.675.79.008.489.338.906 1.003 1.427 1.634 1.273 1.858 2.025 1.87 2.736.023 1.289-.808 2.07-2.142 2.094-1.155.02-2.015-.843-2.105-2.187l1.308-.212c.07.822.399 1.205.854 1.197.467-.008.785-.27.776-.747-.01-.545-.362-1.016-1.004-1.517-1.24-.967-1.852-1.624-1.871-2.746-.023-1.278.743-2.014 2.087-2.037z"/>
                <path fill="#FFF" d="M173.241 97.905c1.278-.022 2.06.865 2.083 2.143l.01.611-1.378.024-.01-.611c-.01-.6-.262-.974-.684-.966-.522.009-.729.268-.719.857l.073 4.145c.01.589.226.852.748.843.545-.01.66-.367.653-.79l-.017-1 1.378-.024.016.956c.02 1.133-.687 2.035-2.01 2.058-1.388.024-2.126-.841-2.146-1.986l-.073-4.2c-.02-1.167.71-2.036 2.076-2.06zm4.535.032l1.378-.024.14 8.024-1.378.024-.14-8.024zm3.265-.057l4.045-.07.021 1.2-1.333.023.119 6.823-1.378.025-.12-6.824-1.333.024-.02-1.2zm7.865-.248c1.367-.024 2.126.819 2.146 1.986l.074 4.2c.02 1.134-.676 2.035-2.076 2.06-1.39.024-2.127-.841-2.147-1.986l-.073-4.19c-.02-1.166.698-2.046 2.076-2.07zm-.698 2.058l.072 4.145c.01.589.226.852.749.842.578-.01.727-.346.718-.868l-.072-4.134c-.008-.467-.126-.854-.748-.843-.49.009-.73.235-.719.858zm4.488-2.013l1.4-.024 1.02 3.039h.022l.87-3.073 1.4-.024-1.585 4.718.058 3.334-1.378.024-.058-3.334-1.75-4.66zm6.388-.111l3.69-.065.02 1.2-2.31.04.035 2.068 1.778-.031.021 1.2-1.778.03.041 2.357 2.467-.043.021 1.2-3.845.067-.14-8.023zm5.833-.102l1.278-.023 1.758 4.56h.022l-.08-4.59 1.245-.021.14 8.023-1.2.021-1.844-4.98h-.022l.088 5.011-1.245.022-.14-8.023z"/>
            </g>
        </g>
    </g>
</svg>
