<svg xmlns="http://www.w3.org/2000/svg" xmlns:xlink="http://www.w3.org/1999/xlink" width="266" height="168" viewBox="0 0 266 168">
    <defs>
        <filter id="a" width="100%" height="100%" x="-1.1%" y="-1.8%" filterUnits="objectBoundingBox">
            <feOffset in="SourceAlpha" result="shadowOffsetOuter1"/>
            <feGaussianBlur in="shadowOffsetOuter1" result="shadowBlurOuter1" stdDeviation="1"/>
            <feColorMatrix in="shadowBlurOuter1" values="0 0 0 0 0 0 0 0 0 0 0 0 0 0 0 0 0 0 0.1 0"/>
        </filter>
    </defs>
    <g fill="none" fill-rule="evenodd">
        <g transform="translate(2 2)">
            <use fill="#000" filter="url(#a)" xlink:href="#b"/>
            <use fill="#F3F3F3" xlink:href="#b"/>
        </g>
        <g transform="translate(45 57)">
            <path fill="#253186" d="M6.787 6.093c-.489 0-.864.207-1.125.622-.261.414-.392 1.103-.392 2.068 0 .965.135 1.65.405 2.055.27.406.683.609 1.24.609.159 0 .32-.025.486-.077.164-.05.313-.126.447-.225a1.212 1.212 0 0 0 .482-.932h2.752c-.181 1.265-.691 2.2-1.53 2.804-.838.605-2.032.907-3.583.907a7.51 7.51 0 0 1-2.182-.307 4.956 4.956 0 0 1-1.764-.932 4.319 4.319 0 0 1-1.176-1.574C.562 10.478.42 9.725.42 8.85c0-.834.142-1.566.427-2.196a4.3 4.3 0 0 1 1.197-1.579 5.276 5.276 0 0 1 1.824-.957 7.85 7.85 0 0 1 2.314-.324c.892 0 1.645.11 2.258.332.614.221 1.11.498 1.488.83.377.332.647.69.81 1.072.161.383.242.742.242 1.077 0 .267-.038.528-.115.783a1.983 1.983 0 0 1-.375.698 1.91 1.91 0 0 1-.66.507c-.268.127-.594.191-.98.191-.37 0-.671-.052-.904-.157a1.458 1.458 0 0 1-.541-.392 1.467 1.467 0 0 1-.273-.494 1.647 1.647 0 0 1-.08-.489c0-.346.082-.621.246-.826.165-.204.355-.346.571-.425a8.592 8.592 0 0 0-.379-.277c-.128-.088-.362-.132-.703-.132zm5.045 2.758c0-.834.145-1.566.435-2.196.29-.63.703-1.156 1.24-1.579.537-.423 1.183-.742 1.939-.957.756-.216 1.6-.324 2.531-.324.932 0 1.776.108 2.532.324.755.215 1.4.534 1.934.957.534.423.948.95 1.24 1.58.293.629.44 1.36.44 2.195 0 .823-.147 1.552-.44 2.187a4.344 4.344 0 0 1-1.24 1.596c-.534.429-1.179.75-1.934.966-.756.216-1.6.324-2.532.324-.932 0-1.775-.108-2.531-.324-.756-.215-1.402-.537-1.939-.966a4.286 4.286 0 0 1-1.24-1.596c-.29-.635-.435-1.364-.435-2.187zm4.85 0c0 .477.021.881.064 1.213.042.332.112.599.209.8a.972.972 0 0 0 .392.443c.164.093.375.14.63.14.256 0 .465-.047.627-.14.162-.094.292-.242.392-.443.1-.201.169-.468.209-.8.04-.332.06-.736.06-1.213 0-.953-.09-1.621-.27-2.004-.178-.383-.518-.575-1.018-.575-.255 0-.466.044-.63.132a.922.922 0 0 0-.392.434c-.097.201-.167.468-.21.8a9.735 9.735 0 0 0-.063 1.213zm20.846.715c0 .3.053.515.158.643.105.127.308.191.61.191h.28v3.158H32.85V8.119c0-.221-.022-.399-.068-.532a.729.729 0 0 0-.183-.306.57.57 0 0 0-.264-.14 1.283 1.283 0 0 0-.286-.035c-.375 0-.632.108-.771.324-.14.215-.209.522-.209.919v1.217c0 .3.053.515.158.643.105.127.308.191.61.191h.28v3.158H25.17V10.4h.503c.233 0 .41-.075.533-.225a.83.83 0 0 0 .183-.54V8.016c0-.267-.078-.447-.234-.54a1.016 1.016 0 0 0-.533-.141h-.452V4.178h5.063l-.179 2.34h.145c.125-.873.479-1.545 1.06-2.016.583-.471 1.428-.707 2.536-.707.415 0 .803.056 1.164.166.36.11.682.28.963.507.281.227.503.512.665.855.162.343.254.742.277 1.196h.119c.051-.431.178-.819.38-1.162.2-.343.457-.628.766-.855.31-.227.65-.402 1.023-.524a3.738 3.738 0 0 1 1.172-.183c.756 0 1.372.11 1.85.332.477.221.849.5 1.116.839a2.9 2.9 0 0 1 .55 1.098c.099.394.149.764.149 1.11v2.392c0 .3.052.515.157.643.105.127.309.191.61.191h.451v3.158H39.31V8.119a1.6 1.6 0 0 0-.073-.532.792.792 0 0 0-.183-.306.543.543 0 0 0-.26-.14 1.283 1.283 0 0 0-.285-.035c-.375 0-.633.108-.772.324-.139.215-.209.522-.209.919v1.217zm20.915 0c0 .3.053.515.158.643.105.127.308.191.61.191h.28v3.158h-5.727V8.119c0-.221-.023-.399-.068-.532a.729.729 0 0 0-.183-.306.57.57 0 0 0-.264-.14 1.283 1.283 0 0 0-.286-.035c-.375 0-.632.108-.771.324-.14.215-.209.522-.209.919v1.217c0 .3.053.515.158.643.105.127.308.191.609.191h.281v3.158h-6.946V10.4h.503c.233 0 .41-.075.533-.225a.83.83 0 0 0 .183-.54V8.016c0-.267-.078-.447-.234-.54a1.016 1.016 0 0 0-.533-.141h-.452V4.178h5.063l-.18 2.34h.146c.125-.873.478-1.545 1.06-2.016.583-.471 1.428-.707 2.536-.707.415 0 .803.056 1.164.166.36.11.681.28.963.507.28.227.502.512.664.855.162.343.255.742.277 1.196h.12c.05-.431.177-.819.379-1.162.202-.343.457-.628.767-.855.31-.227.65-.402 1.023-.524a3.738 3.738 0 0 1 1.172-.183c.755 0 1.372.11 1.85.332.476.221.848.5 1.116.839a2.9 2.9 0 0 1 .55 1.098c.099.394.148.764.148 1.11v2.392c0 .3.053.515.158.643.105.127.308.191.61.191h.451v3.158h-5.898V8.119a1.6 1.6 0 0 0-.072-.532.792.792 0 0 0-.183-.306.543.543 0 0 0-.26-.14 1.283 1.283 0 0 0-.286-.035c-.375 0-.632.108-.771.324-.14.215-.209.522-.209.919v1.217zm13.074-.17c.023.845.183 1.428.482 1.749.298.32.725.48 1.282.48.188 0 .371-.026.55-.08.179-.054.345-.142.499-.264.153-.122.285-.284.396-.485.11-.202.183-.455.217-.762h3.102c-.113.732-.322 1.345-.626 1.839a3.687 3.687 0 0 1-1.172 1.195 4.99 4.99 0 0 1-1.666.656c-.634.133-1.34.2-2.118.2a8.075 8.075 0 0 1-2.258-.307 5.403 5.403 0 0 1-1.854-.932 4.342 4.342 0 0 1-1.249-1.574c-.3-.633-.451-1.386-.451-2.26 0-.834.142-1.566.426-2.196a4.3 4.3 0 0 1 1.197-1.579 5.276 5.276 0 0 1 1.824-.957 7.85 7.85 0 0 1 2.314-.324c1.034 0 1.923.136 2.668.409.744.272 1.352.652 1.823 1.14a4.47 4.47 0 0 1 1.04 1.762c.222.687.327 1.45.316 2.29h-6.742zm1.261-3.303c-.397 0-.691.14-.882.422-.19.28-.316.744-.379 1.391h2.497c-.034-.556-.153-.997-.358-1.323a.978.978 0 0 0-.878-.49zM87.182 8.12c0-.221-.027-.399-.081-.532a.783.783 0 0 0-.205-.306.628.628 0 0 0-.277-.14 1.375 1.375 0 0 0-.298-.035c-.37 0-.645.108-.827.324-.182.215-.272.522-.272.919v1.217c0 .3.052.515.157.643.105.127.308.191.61.191h.46v3.158h-7.125V10.4h.503c.233 0 .41-.075.532-.225a.83.83 0 0 0 .184-.54V8.016c0-.267-.079-.447-.235-.54a1.016 1.016 0 0 0-.532-.141h-.452V4.178h5.062l-.179 2.34h.145c.125-.873.509-1.545 1.15-2.016.643-.471 1.515-.707 2.617-.707.779 0 1.412.11 1.9.332.49.221.869.5 1.139.839.27.337.453.703.55 1.098.096.394.144.764.144 1.11v2.392c0 .3.053.515.158.643.105.127.308.191.61.191h.46v3.158h-5.898V8.119zM99.565 1.02v3.158h2.549v3.158h-2.549v2.613c0 .375.053.68.158.92.105.238.322.357.652.357a.804.804 0 0 0 .439-.107.784.784 0 0 0 .264-.28 1.05 1.05 0 0 0 .124-.4 4.36 4.36 0 0 0 .025-.49V8.681h.98v1.37c0 .55-.058 1.064-.174 1.54a3.09 3.09 0 0 1-.597 1.235c-.281.346-.663.621-1.146.826-.483.204-1.091.306-1.824.306-.813 0-1.46-.1-1.943-.298-.483-.199-.85-.47-1.1-.817a2.846 2.846 0 0 1-.49-1.234 9.826 9.826 0 0 1-.115-1.558V7.336H93.48V4.527c.426 0 .823-.092 1.189-.276.367-.185.682-.44.946-.766.264-.327.469-.7.614-1.12.145-.42.217-.868.217-1.345h3.12zm21.103 8.546c0 .3.052.515.157.643.105.127.309.191.61.191h.28v3.158h-5.726V8.119c0-.221-.023-.399-.069-.532a.729.729 0 0 0-.183-.306.57.57 0 0 0-.264-.14 1.283 1.283 0 0 0-.285-.035c-.376 0-.633.108-.772.324-.139.215-.209.522-.209.919v1.217c0 .3.053.515.158.643.105.127.308.191.61.191h.28v3.158h-6.945V10.4h.502c.233 0 .411-.075.533-.225a.83.83 0 0 0 .183-.54V8.016c0-.267-.078-.447-.234-.54a1.016 1.016 0 0 0-.533-.141h-.451V4.178h5.062l-.179 2.34h.145c.125-.873.479-1.545 1.061-2.016.583-.471 1.428-.707 2.536-.707.414 0 .802.056 1.163.166.36.11.682.28.963.507.281.227.503.512.665.855.162.343.254.742.277 1.196h.12c.05-.431.177-.819.378-1.162.202-.343.458-.628.767-.855.31-.227.651-.402 1.023-.524a3.738 3.738 0 0 1 1.172-.183c.756 0 1.372.11 1.85.332.477.221.849.5 1.116.839a2.9 2.9 0 0 1 .55 1.098c.1.394.149.764.149 1.11v2.392c0 .3.052.515.158.643.105.127.308.191.609.191h.452v3.158h-5.898V8.119a1.6 1.6 0 0 0-.073-.532.792.792 0 0 0-.183-.306.543.543 0 0 0-.26-.14 1.283 1.283 0 0 0-.285-.035c-.375 0-.632.108-.772.324-.139.215-.208.522-.208.919v1.217zm14.505-5.388v5.303c0 .38.094.628.282.745.187.116.426.174.715.174h.23v3.158h-7.176V10.4h.333c.301 0 .524-.095.669-.285a.998.998 0 0 0 .217-.617v-1.2c0-.33-.104-.572-.31-.728a1.165 1.165 0 0 0-.721-.234h-.188V4.178h5.95zm-4.866-2.094c0-.488.186-.905.558-1.25.372-.347.902-.52 1.59-.52.698 0 1.237.173 1.615.52.377.345.566.762.566 1.25 0 .5-.189.921-.566 1.264-.378.344-.917.515-1.615.515-.688 0-1.218-.171-1.59-.515a1.653 1.653 0 0 1-.558-1.264zm11.48 7.312c.023.845.183 1.428.481 1.749.299.32.726.48 1.283.48.188 0 .37-.026.55-.08.179-.054.345-.142.498-.264.154-.122.286-.284.397-.485.11-.202.183-.455.217-.762h3.102c-.113.732-.322 1.345-.626 1.839a3.687 3.687 0 0 1-1.172 1.195 4.99 4.99 0 0 1-1.666.656c-.634.133-1.34.2-2.118.2a8.075 8.075 0 0 1-2.259-.307 5.403 5.403 0 0 1-1.853-.932 4.342 4.342 0 0 1-1.249-1.574c-.301-.633-.452-1.386-.452-2.26 0-.834.142-1.566.427-2.196a4.3 4.3 0 0 1 1.197-1.579 5.276 5.276 0 0 1 1.824-.957 7.85 7.85 0 0 1 2.314-.324c1.034 0 1.923.136 2.667.409.745.272 1.353.652 1.824 1.14a4.47 4.47 0 0 1 1.04 1.762c.222.687.327 1.45.315 2.29h-6.741zm1.261-3.303c-.397 0-.691.14-.882.422-.19.28-.317.744-.38 1.391h2.498c-.034-.556-.153-.997-.358-1.323a.978.978 0 0 0-.878-.49zm18.554 3.626c0 .273.078.454.235.545.156.09.333.136.532.136h.452v3.158h-5.062v-2.332h-.137c-.13.868-.486 1.526-1.065 1.974-.58.449-1.423.673-2.531.673-.779 0-1.412-.11-1.901-.332-.489-.221-.866-.5-1.134-.839a2.9 2.9 0 0 1-.55-1.097c-.099-.395-.148-.765-.148-1.111V8.17c0-.3-.053-.515-.158-.643-.105-.127-.308-.191-.61-.191h-.51V4.178h5.957V9.55c0 .221.025.399.076.532a.748.748 0 0 0 .2.306c.083.071.177.118.282.14.105.023.203.035.294.035.375 0 .652-.108.83-.324.18-.215.27-.522.27-.919V8.17c0-.3-.053-.515-.158-.643-.105-.127-.309-.191-.61-.191h-.503V4.178h5.95V9.72zm9.128-1.651l.333-.23c.079-.057.18-.132.302-.225.122-.094.183-.186.183-.277 0-.12-.093-.179-.281-.179V4.178h4.193v2.98c-.153 0-.325.035-.515.106-.19.07-.382.156-.576.255a9.88 9.88 0 0 0-1.09.651l-1.185.783 1.27.826c.119.068.245.149.379.242.133.094.284.18.452.26.167.08.362.149.583.208.222.06.478.09.767.09v2.979h-7.244v-2.98a.722.722 0 0 0 .388-.097c.105-.065.158-.149.158-.251a.385.385 0 0 0-.115-.255 1.178 1.178 0 0 0-.252-.213l-.196-.128-.17.128c-.12.068-.255.166-.405.293-.15.128-.226.237-.226.328 0 .13.088.196.264.196v2.979h-4.108v-2.98c.13 0 .283-.037.456-.114.173-.077.354-.167.541-.272.188-.105.374-.219.559-.34l.507-.337 1.201-.783-1.15-.766a8.095 8.095 0 0 0-.882-.528 2.404 2.404 0 0 0-1.138-.28v-2.98h6.98v2.98c-.13 0-.243.029-.337.089-.093.06-.14.134-.14.225 0 .097.032.182.098.256.065.073.155.158.268.255l.128.085z"/>
            <path fill="#000" d="M33.721 19.562v3.225h.698c1.179 0 1.542-.363 1.542-1.612 0-1.25-.363-1.613-1.542-1.613h-.698zm0 9.006h-1.803V18.08h2.589c2.225 0 3.258.857 3.258 3.095 0 2.237-1.033 3.094-3.258 3.094h-.786v4.3zm8.566-9.006v3.225h.64c.974 0 1.338-.363 1.338-1.612 0-1.25-.364-1.613-1.338-1.613h-.64zm0 4.707v4.3h-1.804V18.08h2.531c2.022 0 3.055.857 3.055 3.095 0 1.685-.655 2.367-1.266 2.643l1.528 4.75h-1.833l-1.28-4.343a8.71 8.71 0 0 1-.931.044zm11.795 4.3h-5.033V18.08h4.829v1.57h-3.025v2.701h2.327v1.569h-2.327V27h3.229v1.568zm4.347 0H56.8V18.08h1.673l2.196 6h.03v-6h1.628v10.488h-1.57l-2.299-6.55h-.029v6.55zm8.74-9.007v7.525h.626c.96 0 1.294-.363 1.294-1.467v-4.59c0-1.105-.334-1.468-1.294-1.468h-.626zm-1.803 9.006V18.08h2.676c1.862 0 2.85 1.017 2.85 3.167v4.155c0 2.15-.988 3.166-2.85 3.166h-2.676zm10.369-9.006v3.225h.64c.974 0 1.338-.363 1.338-1.612 0-1.25-.364-1.613-1.338-1.613h-.64zm0 4.707v4.3H73.93V18.08h2.531c2.022 0 3.055.857 3.055 3.095 0 1.685-.655 2.367-1.266 2.643l1.528 4.75h-1.833l-1.28-4.343a8.71 8.71 0 0 1-.931.044zm11.795 4.3h-5.033V18.08h4.83v1.57H84.3v2.701h2.327v1.569H84.3V27h3.229v1.568zm12.244-8.092l-1.717.19c-.072-.902-.552-1.163-.96-1.163-.581 0-.901.378-.901 1.031 0 1.787 3.665 2.644 3.665 5.491 0 1.729-1.164 2.688-2.85 2.688-1.674 0-2.634-1.337-2.706-2.906l1.716-.247c.073 1.06.495 1.584 1.076 1.584.626 0 1.048-.334 1.048-.959 0-2.077-3.666-2.63-3.666-5.636 0-1.67 1.018-2.615 2.793-2.615 1.469 0 2.342 1.06 2.502 2.542zm2.747 5.55v-5.404c0-1.482.873-2.688 2.764-2.688 1.89 0 2.763 1.206 2.763 2.688v5.403c0 1.482-.872 2.688-2.763 2.688s-2.764-1.206-2.764-2.688zm1.804-5.36v5.316c0 .784.233 1.162.96 1.162s.96-.378.96-1.162v-5.317c0-.784-.233-1.162-.96-1.162s-.96.378-.96 1.162zm8.813 7.901h-1.804V18.08h1.804v10.488zm4.915 0h-1.63V18.08h1.673l2.197 6h.029v-6h1.629v10.488h-1.571l-2.298-6.55h-.03v6.55zm13.262-9.006v7.525h.625c.96 0 1.295-.363 1.295-1.467v-4.59c0-1.105-.335-1.468-1.295-1.468h-.625zm-1.804 9.006V18.08h2.676c1.862 0 2.851 1.017 2.851 3.167v4.155c0 2.15-.989 3.166-2.85 3.166h-2.677zm13.598 0h-5.032V18.08h4.829v1.57h-3.026v2.701h2.328v1.569h-2.328V27h3.23v1.568z"/>
            <ellipse cx="20.364" cy="23.242" fill="#9C6BDA" opacity=".5" rx="1.939" ry="1.937"/>
            <ellipse cx="153.697" cy="23.242" fill="#9C6BDA" opacity=".5" rx="1.939" ry="1.937"/>
            <path fill="#9C6BDA" d="M11.883 37.228c0-.317-.038-.572-.116-.763a1.124 1.124 0 0 0-.293-.44.9.9 0 0 0-.398-.201 1.973 1.973 0 0 0-.428-.049c-.53 0-.925.155-1.186.464-.26.31-.391.749-.391 1.319v1.746c0 .432.075.739.226.922.151.183.442.275.874.275h.66v4.53H.61v-4.53h.722c.334 0 .589-.108.764-.324.175-.215.263-.474.263-.775v-2.32c0-.383-.112-.641-.336-.776a1.458 1.458 0 0 0-.765-.201H.61v-4.53h7.264l-.257 3.357h.208c.18-1.253.73-2.218 1.65-2.894.922-.676 2.173-1.013 3.754-1.013 1.117 0 2.026.158 2.727.476.701.317 1.246.718 1.633 1.203.387.484.65 1.01.788 1.575.139.566.208 1.097.208 1.594v3.431c0 .432.076.739.227.922.15.183.442.275.874.275h.66v4.53h-8.462v-7.803zm9.693 1.05c0-1.196.208-2.247.624-3.15a6.067 6.067 0 0 1 1.78-2.266c.77-.606 1.697-1.064 2.781-1.373 1.084-.31 2.295-.464 3.632-.464 1.337 0 2.547.154 3.631.464 1.085.309 2.01.767 2.776 1.373a6.15 6.15 0 0 1 1.78 2.266c.42.903.63 1.954.63 3.15 0 1.18-.21 2.227-.63 3.139a6.233 6.233 0 0 1-1.78 2.29c-.766.614-1.691 1.076-2.776 1.386-1.084.309-2.294.464-3.631.464-1.337 0-2.548-.155-3.632-.464-1.084-.31-2.011-.772-2.782-1.386a6.149 6.149 0 0 1-1.779-2.29c-.416-.912-.624-1.958-.624-3.139zm6.958 0c0 .684.03 1.264.092 1.74.061.477.16.86.3 1.149.138.289.325.5.562.635.236.134.538.201.905.201s.666-.067.899-.201c.232-.135.42-.346.562-.635.143-.29.243-.672.3-1.148.057-.477.085-1.057.085-1.74 0-1.368-.128-2.327-.385-2.876-.257-.55-.744-.825-1.461-.825-.367 0-.669.063-.905.19-.237.126-.424.333-.563.622-.138.29-.238.672-.3 1.148a13.968 13.968 0 0 0-.09 1.74zm26.543-2.247h-3.362a3.014 3.014 0 0 0-1.101-1.392c-.497-.342-1.015-.513-1.553-.513-.367 0-.658.068-.874.202a.665.665 0 0 0-.324.604c0 .334.187.584.562.751.375.167.846.316 1.413.446.566.13 1.18.287 1.84.47a7.34 7.34 0 0 1 1.84.788 4.349 4.349 0 0 1 1.412 1.38c.375.578.563 1.34.563 2.284 0 .732-.163 1.371-.49 1.917a3.947 3.947 0 0 1-1.338 1.343c-.567.35-1.233.613-2 .788-.766.175-1.593.262-2.482.262-.864 0-1.681-.083-2.451-.25a7.765 7.765 0 0 1-2.208-.849l-.122.843h-3.228v-4.897h3.35c.318.651.72 1.156 1.205 1.514a2.645 2.645 0 0 0 1.608.537c.448 0 .768-.083.96-.25.191-.167.287-.352.287-.556 0-.333-.187-.592-.562-.775a7.445 7.445 0 0 0-1.388-.488c-.55-.143-1.156-.302-1.816-.477a6.877 6.877 0 0 1-1.816-.763 4.382 4.382 0 0 1-1.388-1.35c-.375-.565-.562-1.308-.562-2.228 0-.66.149-1.262.446-1.807a3.927 3.927 0 0 1 1.278-1.38c.554-.375 1.206-.662 1.956-.861.75-.2 1.574-.3 2.47-.3 1.003 0 1.906.112 2.709.336.803.224 1.404.47 1.804.74l.122-.868h3.24v4.8zm16.586-2.76a5.4 5.4 0 0 0-1.07.092 4.904 4.904 0 0 0-.764.214 2.254 2.254 0 0 0-.526.275c-.139.101-.26.193-.367.274l.122.122c.155-.08.324-.162.508-.244.183-.081.418-.122.703-.122.481 0 .897.157 1.247.47.35.314.526.812.526 1.496 0 .652-.267 1.175-.8 1.57-.535.394-1.25.592-2.147.592-.856 0-1.539-.247-2.048-.74-.51-.492-.764-1.19-.764-2.093 0-.497.138-.992.415-1.484.278-.493.708-.934 1.29-1.325.583-.39 1.325-.712 2.226-.965.9-.252 1.987-.378 3.259-.378 1.516 0 2.755.142 3.717.427.962.285 1.71.651 2.244 1.099.534.448.9.957 1.1 1.527.2.57.3 1.143.3 1.721v4.775c0 .741.024 1.244.073 1.508.05.265.233.397.55.397.253 0 .43-.12.533-.36.101-.24.152-.653.152-1.24v-1.526h1.394v1.551a9.28 9.28 0 0 1-.183 1.948 3.269 3.269 0 0 1-.697 1.453c-.342.403-.807.708-1.394.916-.587.207-1.337.311-2.25.311-.823 0-1.506-.087-2.048-.262-.542-.175-.972-.393-1.29-.654-.318-.26-.544-.53-.679-.812-.134-.28-.202-.53-.202-.75h-.195c-.05.333-.19.65-.422.952-.232.301-.554.568-.966.8-.412.232-.905.419-1.48.561a8.185 8.185 0 0 1-1.962.214 8.418 8.418 0 0 1-1.914-.201c-.575-.135-1.064-.346-1.467-.635a2.943 2.943 0 0 1-.942-1.124c-.224-.46-.336-1.007-.336-1.642 0-.782.22-1.399.66-1.85.44-.452.995-.81 1.663-1.075.669-.265 1.396-.48 2.183-.647a17.406 17.406 0 0 0 2.183-.605c.668-.236 1.222-.541 1.663-.916.44-.374.66-.903.66-1.587 0-.61-.192-1.101-.575-1.472-.383-.37-1.01-.555-1.883-.555zm2.458 5.288c-.18.26-.404.47-.673.63-.269.158-.528.313-.776.463-.249.15-.465.33-.648.538-.184.207-.275.486-.275.836 0 .269.073.51.22.727.146.215.432.323.856.323.383 0 .695-.148.935-.445.24-.298.36-.715.36-1.252v-1.82zm19.243-6.985v7.608c0 .546.134.902.403 1.069.27.167.612.25 1.028.25h.33v4.53H84.829v-4.53h.477c.432 0 .752-.136.96-.41.207-.272.311-.567.311-.884v-1.722c0-.473-.148-.82-.446-1.044a1.672 1.672 0 0 0-1.033-.336h-.27v-4.53h8.536zm-6.175-5.434h3.79L94 29.913h-2.97l-1.957-1.355-1.932 1.355h-2.972l3.02-3.773zm20.942 11.088c0-.317-.038-.572-.116-.763a1.124 1.124 0 0 0-.293-.44.9.9 0 0 0-.398-.201 1.973 1.973 0 0 0-.428-.049c-.53 0-.925.155-1.186.464-.26.31-.391.749-.391 1.319v1.746c0 .432.075.739.226.922.151.183.442.275.875.275h.66v4.53H96.857v-4.53h.722c.334 0 .589-.108.764-.324.175-.215.263-.474.263-.775v-2.32c0-.383-.112-.641-.336-.776a1.458 1.458 0 0 0-.765-.201h-.648v-4.53h7.264l-.257 3.357h.208c.18-1.253.73-2.218 1.65-2.894.922-.676 2.173-1.013 3.755-1.013 1.116 0 2.025.158 2.726.476.701.317 1.246.718 1.633 1.203.387.484.65 1.01.789 1.575.138.566.207 1.097.207 1.594v3.431c0 .432.076.739.227.922.15.183.442.275.874.275h.66v4.53h-8.462v-7.803zm16.676 1.832c.032 1.213.263 2.05.69 2.51.428.46 1.042.69 1.84.69.27 0 .533-.04.79-.117.256-.077.495-.203.715-.378.22-.175.41-.407.568-.696.16-.29.263-.654.312-1.093h4.451c-.163 1.05-.462 1.93-.899 2.638a5.29 5.29 0 0 1-1.68 1.715c-.686.436-1.482.75-2.391.94-.91.192-1.922.288-3.04.288-1.149 0-2.229-.147-3.24-.44-1.01-.293-1.897-.739-2.66-1.337a6.23 6.23 0 0 1-1.79-2.26c-.433-.907-.649-1.988-.649-3.242 0-1.196.204-2.247.612-3.15a6.17 6.17 0 0 1 1.718-2.266c.738-.606 1.61-1.064 2.617-1.373 1.006-.31 2.113-.464 3.32-.464 1.483 0 2.759.195 3.827.586 1.068.39 1.94.936 2.617 1.636a6.413 6.413 0 0 1 1.492 2.528c.317.985.468 2.08.452 3.285h-9.672zm1.81-4.738c-.571 0-.993.201-1.266.604-.273.403-.455 1.069-.544 1.997h3.582c-.049-.798-.22-1.43-.513-1.9-.294-.467-.713-.701-1.26-.701zm5.355-8.194l-4.475 3.773h-3.008l2.555-3.773h4.928zm18.4 9.903h-3.363a3.014 3.014 0 0 0-1.1-1.392c-.498-.342-1.016-.513-1.554-.513-.366 0-.658.068-.874.202a.665.665 0 0 0-.324.604c0 .334.188.584.562.751.375.167.846.316 1.413.446.566.13 1.18.287 1.84.47a7.34 7.34 0 0 1 1.84.788 4.349 4.349 0 0 1 1.413 1.38c.375.578.562 1.34.562 2.284 0 .732-.163 1.371-.489 1.917a3.947 3.947 0 0 1-1.339 1.343c-.566.35-1.233.613-2 .788-.765.175-1.593.262-2.481.262-.864 0-1.682-.083-2.452-.25a7.765 7.765 0 0 1-2.207-.849l-.123.843h-3.228v-4.897h3.35c.319.651.72 1.156 1.205 1.514a2.645 2.645 0 0 0 1.608.537c.449 0 .769-.083.96-.25.192-.167.287-.352.287-.556 0-.333-.187-.592-.562-.775a7.445 7.445 0 0 0-1.388-.488 327.49 327.49 0 0 1-1.816-.477 6.877 6.877 0 0 1-1.816-.763 4.382 4.382 0 0 1-1.387-1.35c-.375-.565-.563-1.308-.563-2.228 0-.66.149-1.262.446-1.807a3.927 3.927 0 0 1 1.278-1.38c.555-.375 1.207-.662 1.957-.861.75-.2 1.573-.3 2.47-.3 1.002 0 1.905.112 2.708.336.803.224 1.404.47 1.804.74l.122-.868h3.24v4.8zm24.533-4.481c0 .749-.146 1.398-.44 1.947a5.134 5.134 0 0 1-1.119 1.43 9.067 9.067 0 0 1-1.436 1.05c-.506.297-.985.584-1.437.86a6.395 6.395 0 0 0-1.119.843c-.294.285-.44.61-.44.977h-3.449c0-.651.066-1.223.196-1.716.13-.492.298-.926.501-1.3.204-.375.426-.717.667-1.026.24-.31.46-.619.66-.928.2-.31.367-.627.502-.953a2.89 2.89 0 0 0 .201-1.111c0-.415-.091-.773-.275-1.075a1.784 1.784 0 0 0-.715-.677 2.165 2.165 0 0 0-1.003-.226c-.375 0-.746.093-1.113.28.498.147.889.387 1.174.721.286.334.428.81.428 1.429 0 .285-.063.56-.19.824-.126.265-.309.507-.55.727a2.5 2.5 0 0 1-.91.513 3.982 3.982 0 0 1-1.26.183c-.35 0-.71-.045-1.076-.135a2.609 2.609 0 0 1-.997-.482 2.67 2.67 0 0 1-.74-.94c-.195-.395-.293-.882-.293-1.46 0-.716.181-1.355.544-1.917.363-.562.864-1.034 1.504-1.416.64-.383 1.406-.674 2.3-.874.892-.199 1.872-.299 2.94-.299 2.323 0 4.062.413 5.215 1.24 1.154.826 1.73 1.996 1.73 3.51zm-10.797 10.905c0-.415.084-.814.25-1.197a3.18 3.18 0 0 1 .667-.99c.277-.276.604-.498.978-.665.375-.166.779-.25 1.211-.25.416 0 .815.084 1.198.25.384.167.714.39.99.666.278.277.5.606.667.99.167.382.251.78.251 1.196 0 .431-.084.834-.25 1.209-.168.374-.39.7-.667.977a3.185 3.185 0 0 1-.99.665 2.97 2.97 0 0 1-1.199.25c-.432 0-.836-.083-1.21-.25a3.225 3.225 0 0 1-.979-.665 3.22 3.22 0 0 1-.666-.977 2.933 2.933 0 0 1-.25-1.21z"/>
        </g>
    </g>
</svg>
