<?xml version="1.0" encoding="UTF-8"?>
<svg width="266px" height="168px" viewBox="0 0 266 168" version="1.1" xmlns="http://www.w3.org/2000/svg" xmlns:xlink="http://www.w3.org/1999/xlink">
    <!-- Generator: Sketch 55 (78076) - https://sketchapp.com -->
    <title>CTA_vff_dk</title>
    <desc>Created with Sketch.</desc>
    <defs>
        <filter x="-1.1%" y="-1.8%" width="102.3%" height="103.7%" filterUnits="objectBoundingBox" id="filter-2">
            <feOffset dx="0" dy="0" in="SourceAlpha" result="shadowOffsetOuter1"></feOffset>
            <feGaussianBlur stdDeviation="1" in="shadowOffsetOuter1" result="shadowBlurOuter1"></feGaussianBlur>
            <feColorMatrix values="0 0 0 0 0   0 0 0 0 0   0 0 0 0 0  0 0 0 0.1 0" type="matrix" in="shadowBlurOuter1"></feColorMatrix>
        </filter>
    </defs>
    <g id="home" stroke="none" stroke-width="1" fill="none" fill-rule="evenodd">
        <g id="CTA_vff_dk" transform="translate(2.000000, 2.000000)">
            <g id="Cta_vff">
                <g id="Mask">
                    <use fill="black" fill-opacity="1" filter="url(#filter-2)" xlink:href="#path-1"></use>
                    <use fill="#F3F3F3" fill-rule="evenodd" xlink:href="#path-1"></use>
                </g>
                <g id="vff" transform="translate(41.000000, 49.000000)">
                    <g id="stop-vff" transform="translate(3.859412, 0.000000)">
                        <g id="logo-vff-outlines">
                            <path d="M73.3033587,21.3313707 L73.2501165,21.3313707 L70.8542178,7.91123334 L67.6064439,7.91123334 L71.6262296,27.2512317 L74.9272457,27.2512317 L78.9470314,7.91123334 L75.6992575,7.91123334 L73.3033587,21.3313707 Z M84.5374618,27.2512317 L84.5374618,7.91123334 L81.2364458,7.91123334 L81.2364458,27.2512317 L84.5374618,27.2512317 Z M88.1845522,22.563559 L88.1845522,12.5989061 C88.1845522,9.86666254 89.7818181,7.64336632 93.2425607,7.64336632 C96.7033034,7.64336632 98.3005692,9.86666254 98.3005692,12.5989061 L98.3005692,22.563559 C98.3005692,25.2958025 96.7033034,27.5190987 93.2425607,27.5190987 C89.7818181,27.5190987 88.1845522,25.2958025 88.1845522,22.563559 Z M91.4855683,12.6792662 L91.4855683,22.4831989 C91.4855683,23.9296808 91.9115058,24.626135 93.2425607,24.626135 C94.5736156,24.626135 94.9995532,23.9296808 94.9995532,22.4831989 L94.9995532,12.6792662 C94.9995532,11.2327843 94.5736156,10.5363301 93.2425607,10.5363301 C91.9115058,10.5363301 91.4855683,11.2327843 91.4855683,12.6792662 Z M109.827504,27.2512317 L109.827504,24.358268 L104.63639,24.358268 L104.63639,7.91123334 L101.335374,7.91123334 L101.335374,27.2512317 L109.827504,27.2512317 Z M121.061608,27.2512317 L121.061608,24.358268 L115.151724,24.358268 L115.151724,18.6794873 L119.4111,18.6794873 L119.4111,15.7865235 L115.151724,15.7865235 L115.151724,10.8041971 L120.688912,10.8041971 L120.688912,7.91123334 L111.850708,7.91123334 L111.850708,27.2512317 L121.061608,27.2512317 Z M126.652038,27.2512317 L126.652038,15.1704294 L126.70528,15.1704294 L130.911414,27.2512317 L133.786492,27.2512317 L133.786492,7.91123334 L130.804929,7.91123334 L130.804929,18.974141 L130.751687,18.974141 L126.731901,7.91123334 L123.670475,7.91123334 L123.670475,27.2512317 L126.652038,27.2512317 Z M146.937314,14.3668284 L146.937314,12.9471332 C146.937314,10.0541694 145.340048,7.64336632 142.039032,7.64336632 C138.57829,7.64336632 136.981024,9.86666254 136.981024,12.5989061 L136.981024,22.563559 C136.981024,25.2958025 138.57829,27.5190987 142.039032,27.5190987 C145.340048,27.5190987 146.937314,25.2958025 146.937314,22.563559 L146.937314,20.3402628 L143.636298,20.3402628 L143.636298,22.6707058 C143.636298,23.9296808 143.236982,24.626135 142.039032,24.626135 C140.707978,24.626135 140.28204,23.9296808 140.28204,22.4831989 L140.28204,12.6792662 C140.28204,11.2327843 140.707978,10.5363301 142.039032,10.5363301 C142.890907,10.5363301 143.636298,11.2327843 143.636298,12.8667731 L143.636298,14.3668284 L146.937314,14.3668284 Z M159.502472,27.2512317 L159.502472,24.358268 L153.592589,24.358268 L153.592589,18.6794873 L157.851964,18.6794873 L157.851964,15.7865235 L153.592589,15.7865235 L153.592589,10.8041971 L159.129777,10.8041971 L159.129777,7.91123334 L150.291573,7.91123334 L150.291573,27.2512317 L159.502472,27.2512317 Z M171.268997,12.3310391 C170.976165,9.59879552 169.378899,7.64336632 166.690169,7.64336632 C163.442395,7.64336632 161.578918,9.38450191 161.578918,12.4649726 C161.578918,18.0098198 168.287434,19.0277144 168.287434,22.8582127 C168.287434,24.0100409 167.515423,24.626135 166.370715,24.626135 C165.305872,24.626135 164.53386,23.6618137 164.400754,21.7063845 L161.259465,22.1617585 C161.39257,25.0547222 163.149563,27.5190987 166.210989,27.5190987 C169.299036,27.5190987 171.428724,25.7511765 171.428724,22.563559 C171.428724,17.3133655 164.720207,15.7329501 164.720207,12.4381859 C164.720207,11.2327843 165.305872,10.5363301 166.370715,10.5363301 C167.116106,10.5363301 167.994602,11.0184907 168.127708,12.6792662 L171.268997,12.3310391 Z" id="VIOLENCES" fill-opacity="0.2" fill="#660779"></path>
                            <path d="M69.2425005,1.45385312 L68.9443442,3.35188225 L69.5528264,3.35188225 L69.2546701,1.45385312 L69.2425005,1.45385312 Z M68.8348174,4.0131311 L68.7009513,4.99275904 L67.9707726,4.99275904 L68.780054,0.572187977 L69.7171166,0.572187977 L70.526398,4.99275904 L69.7962193,4.99275904 L69.6623532,4.0131311 L68.8348174,4.0131311 Z M70.9645052,3.87843226 C70.9645052,4.63764391 71.4026124,5.05398578 72.1206214,5.05398578 C72.8386304,5.05398578 73.2767376,4.63764391 73.2767376,3.87843226 L73.2767376,0.572187977 L72.5222197,0.572187977 L72.5222197,3.90904563 C72.5222197,4.23354739 72.3944384,4.39273693 72.1206214,4.39273693 C71.8468044,4.39273693 71.7190231,4.23354739 71.7190231,3.90904563 L71.7190231,0.572187977 L70.9645052,0.572187977 L70.9645052,3.87843226 Z M73.7270145,4.99275904 L74.4693628,4.99275904 L74.9926575,3.38249562 L75.0048271,3.38249562 L75.5159522,4.99275904 L76.2583005,4.99275904 L75.4064254,2.67838804 L76.1670282,0.572187977 L75.4246799,0.572187977 L75.0048271,1.97428046 L74.9926575,1.97428046 L74.530211,0.572187977 L73.7878627,0.572187977 L74.5910592,2.67838804 L73.7270145,4.99275904 Z" id="AUX" fill-opacity="0.2" fill="#660779"></path>
                            <path d="M14.2387495,6.91680866 C13.8371512,3.1697318 11.6466152,0.488000327 7.95921288,0.488000327 C3.50512297,0.488000327 0.949497616,2.87584342 0.949497616,7.1004889 C0.949497616,14.7048508 10.1497489,16.1008206 10.1497489,21.3540754 C10.1497489,22.9337254 9.09098982,23.7786545 7.52110568,23.7786545 C6.06074833,23.7786545 5.00198925,22.4561568 4.81944458,19.7744253 L0.511390412,20.3989381 C0.69393508,24.3664313 3.1035247,27.7461477 7.30205207,27.7461477 C11.5370884,27.7461477 14.4578031,25.3215685 14.4578031,20.9499788 C14.4578031,13.7497135 5.25755179,11.5822867 5.25755179,7.06375285 C5.25755179,5.41063071 6.06074833,4.45549347 7.52110568,4.45549347 C8.54335582,4.45549347 9.74815063,5.11674233 9.9306953,7.39437728 L14.2387495,6.91680866 Z M20.5182861,27.3787872 L25.0453938,27.3787872 L25.0453938,4.82285394 L29.4264659,4.82285394 L29.4264659,0.855360803 L16.137214,0.855360803 L16.137214,4.82285394 L20.5182861,4.82285394 L20.5182861,27.3787872 Z M32.091618,20.9499788 L32.091618,7.28416913 C32.091618,3.53709228 34.2821541,0.488000327 39.0283154,0.488000327 C43.7744768,0.488000327 45.9650128,3.53709228 45.9650128,7.28416913 L45.9650128,20.9499788 C45.9650128,24.6970557 43.7744768,27.7461477 39.0283154,27.7461477 C34.2821541,27.7461477 32.091618,24.6970557 32.091618,20.9499788 Z M36.6187258,7.39437728 L36.6187258,20.8397707 C36.6187258,22.8235173 37.2028687,23.7786545 39.0283154,23.7786545 C40.8537621,23.7786545 41.4379051,22.8235173 41.4379051,20.8397707 L41.4379051,7.39437728 C41.4379051,5.41063071 40.8537621,4.45549347 39.0283154,4.45549347 C37.2028687,4.45549347 36.6187258,5.41063071 36.6187258,7.39437728 Z M54.8731926,4.60243766 L54.8731926,12.7578402 L56.6256215,12.7578402 C59.5828451,12.7578402 60.4955684,11.839439 60.4955684,8.68013894 C60.4955684,5.52083885 59.5828451,4.60243766 56.6256215,4.60243766 L54.8731926,4.60243766 Z M54.8731926,27.3787872 L50.3460849,27.3787872 L50.3460849,0.855360803 L56.8446751,0.855360803 C62.4305419,0.855360803 65.0226762,3.02278761 65.0226762,8.68013894 C65.0226762,14.3374903 62.4305419,16.5049171 56.8446751,16.5049171 L54.8731926,16.5049171 L54.8731926,27.3787872 Z" id="STOP" fill-opacity="0.2" fill="#660779"></path>
                            <g id="faites-aux-femmes" transform="translate(1.184660, 19.120258)">
                                <path d="M72.3429362,2.06215048 C73.530772,1.17063022 75.0398848,0.724876775 76.8703202,0.724876775 C77.8342197,0.724876775 78.6690998,0.862031681 79.3749858,1.13634561 C80.0808718,1.41065953 80.6212316,1.80253069 80.9960814,2.31197084 C81.3709311,2.82141099 81.5583532,3.41901451 81.5583532,4.10479932 C81.5583532,4.5848487 81.4220463,5.05754328 81.1494282,5.52289726 C80.8768102,5.98825125 80.4946639,6.37032563 80.0029778,6.66913187 C79.5112917,6.96793811 78.9538935,7.11733899 78.3307666,7.11733899 C77.5908034,7.11733899 77.0066307,6.93854777 76.5782309,6.58095998 C76.1498311,6.22337218 75.9356345,5.71638887 75.9356345,5.05999483 C75.9356345,4.28603768 76.1717376,3.58066959 76.643951,2.94386941 C77.1161644,2.30706922 77.7660565,1.83192544 78.593647,1.51842381 C78.3112926,1.39106377 78.053283,1.32738471 77.8196104,1.32738471 C77.2159562,1.32738471 76.7291455,1.48903156 76.3591639,1.81233012 C75.7944552,2.29237949 75.3125127,3.28675256 74.913322,4.79547915 L73.8471961,8.79260495 L76.8703202,8.79260495 L76.6804622,9.39511288 L73.686547,9.39511288 L68.341313,29.4983044 C66.3648323,29.5276952 64.5587649,29.6697485 62.9230568,29.9244685 L68.4143353,9.39511288 L66.0630166,9.39511288 L66.2528746,8.79260495 L68.5749845,8.79260495 C69.4415203,5.53022861 70.6974917,3.28676622 72.3429362,2.06215048 Z M84.8443577,23.5320063 C83.5494221,24.3059635 82.0549135,24.6929362 80.3607872,24.6929362 C79.4066241,24.6929362 78.5376671,24.5288402 77.7538903,24.2006432 C76.9701134,23.8724462 76.3469959,23.3899548 75.8845188,22.7531546 C75.4220418,22.1163544 75.1908068,21.3473073 75.1908068,20.4459901 C75.1908068,18.476808 75.6946558,16.5468425 76.7023688,14.6560358 C77.7100819,12.7652291 79.0877559,11.2197872 80.8354322,10.0196638 C82.5831085,8.81954036 84.5084445,8.21948765 86.6114979,8.21948765 C87.7311791,8.21948765 88.6293447,8.44481356 89.3060216,8.89547216 C89.9826984,9.34613075 90.3210318,10.0074133 90.3210318,10.8793397 C90.3210318,12.0255801 89.868298,13.0787338 88.9628166,14.0388326 C88.0573353,14.9989313 86.8889899,15.8169623 85.4577452,16.4929502 C84.0265005,17.1689381 82.5027833,17.6930658 80.8865479,18.065349 C80.8183934,18.6041799 80.7843166,19.1185108 80.7843166,19.6083571 C80.7843166,20.7056128 80.9936452,21.4648632 81.4123086,21.886131 C81.830972,22.3073988 82.4492215,22.5180296 83.2670756,22.5180296 C83.7636298,22.5180296 84.4037858,22.3465859 85.1875626,22.0036935 C85.9713395,21.6608011 86.7283299,21.131775 87.4585568,20.4165995 L87.9258997,20.6517245 C87.1664637,21.7979648 86.1392933,22.7580492 84.8443577,23.5320063 Z M84.0849256,10.0931404 C83.3936441,10.9601683 82.7607903,12.0721027 82.1863452,13.428977 C81.6119001,14.7858512 81.2078473,16.1500527 80.9741747,17.5216223 C82.0062286,16.9436037 82.9214326,16.2627275 83.719814,15.4789735 C85.5307766,13.6763391 86.4362443,11.7022881 86.4362443,9.55676135 C86.4362443,9.0473212 86.2755968,8.79260495 85.954297,8.79260495 C85.3993246,8.79260495 84.776207,9.22611242 84.0849256,10.0931404 Z M115.396897,19.3879274 L114.637465,21.5922247 C113.936447,23.6593761 112.510092,24.6929362 110.358357,24.6929362 C109.024476,24.6929362 108.099536,24.2716748 107.583509,23.4291391 C107.320627,22.9784805 107.189188,22.4494545 107.189188,21.8420451 C107.189188,21.1660572 107.340099,20.3872132 107.641927,19.5054899 L110.212312,11.7169727 C110.358358,11.285908 110.431379,10.9626143 110.431379,10.7470819 C110.431379,10.5119557 110.348621,10.3943943 110.183103,10.3943943 C109.793649,10.3943943 109.331179,10.6956453 108.795679,11.2981562 C108.260179,11.9006672 107.651666,12.9195322 106.970121,14.3547818 C106.288576,15.7900315 105.587569,17.6734622 104.867078,20.0051306 L103.640303,24.2667721 L98.3096738,24.2667721 L101.902372,11.7169727 C102.058154,11.1781418 102.136043,10.8352545 102.136043,10.6883006 C102.136043,10.4923621 102.038681,10.3943943 101.843954,10.3943943 C101.1332,10.3943943 100.337265,11.2026286 99.4561243,12.8191214 C98.5749838,14.4356142 97.6573458,16.6986701 96.7031827,19.6083571 L95.5056167,24.2667721 L90.2041961,24.2667721 L93.8553122,11.2026367 C93.9429394,10.8793381 93.9867524,10.6295203 93.9867524,10.4531756 C93.9867524,10.1102832 93.830973,9.93883955 93.5194095,9.93883955 C92.9449644,9.93883955 92.4192089,10.5707318 91.9421274,11.8345352 L91.2557175,13.6714497 L90.6861434,13.6714497 L91.5185979,11.3201992 C91.9080522,10.2523343 92.4800547,9.46859196 93.2346225,8.96894873 C93.9891902,8.46930551 94.853279,8.21948765 95.8269149,8.21948765 C96.8589688,8.21948765 97.6037891,8.4717547 98.0613979,8.97629639 C98.5190067,9.48083808 98.7478077,10.1445699 98.7478077,10.9675116 C98.7478077,11.4181702 98.6845224,11.9080092 98.5579497,12.4370432 L98.222047,13.7596216 C98.7867558,12.4468335 99.3830988,11.383883 100.011094,10.5707381 C100.639089,9.75759326 101.33036,9.16243894 102.084928,8.78525729 C102.839496,8.40807564 103.693848,8.21948765 104.648011,8.21948765 C106.400556,8.21948765 107.276815,9.01792513 107.276815,10.6148241 C107.276815,11.2320304 107.15998,11.9520937 106.926308,12.7750354 L106.765659,13.3187621 C107.369313,12.015771 107.997299,10.9895584 108.649635,10.2400935 C109.301971,9.49062868 109.973769,8.96650101 110.665051,8.66769477 C111.356332,8.36888853 112.115757,8.21948765 112.943347,8.21948765 C114.734837,8.21948765 115.630568,9.00812835 115.630568,10.5854334 C115.630568,11.2124367 115.489393,11.9422967 115.207039,12.7750354 L112.256937,21.7097872 C112.159574,22.003695 112.110893,22.2437161 112.110893,22.4298577 C112.110893,22.7923439 112.276408,22.9735843 112.607444,22.9735843 C113.201362,22.9735843 113.731986,22.3416921 114.199331,21.0778887 L114.827323,19.3879274 L115.396897,19.3879274 Z M141.933209,19.3879274 L141.173777,21.5922247 C140.472759,23.6593761 139.046404,24.6929362 136.894669,24.6929362 C135.560787,24.6929362 134.635847,24.2716748 134.11982,23.4291391 C133.856939,22.9784805 133.7255,22.4494545 133.7255,21.8420451 C133.7255,21.1660572 133.876411,20.3872132 134.178238,19.5054899 L136.748624,11.7169727 C136.894669,11.285908 136.967691,10.9626143 136.967691,10.7470819 C136.967691,10.5119557 136.884933,10.3943943 136.719415,10.3943943 C136.329961,10.3943943 135.867491,10.6956453 135.331991,11.2981562 C134.796491,11.9006672 134.187978,12.9195322 133.506433,14.3547818 C132.824888,15.7900315 132.12388,17.6734622 131.40339,20.0051306 L130.176615,24.2667721 L124.845985,24.2667721 L128.438684,11.7169727 C128.594465,11.1781418 128.672355,10.8352545 128.672355,10.6883006 C128.672355,10.4923621 128.574993,10.3943943 128.380266,10.3943943 C127.669512,10.3943943 126.873576,11.2026286 125.992436,12.8191214 C125.111295,14.4356142 124.193657,16.6986701 123.239494,19.6083571 L122.041928,24.2667721 L116.740508,24.2667721 L120.391624,11.2026367 C120.479251,10.8793381 120.523064,10.6295203 120.523064,10.4531756 C120.523064,10.1102832 120.367285,9.93883955 120.055721,9.93883955 C119.481276,9.93883955 118.955521,10.5707318 118.478439,11.8345352 L117.792029,13.6714497 L117.222455,13.6714497 L118.05491,11.3201992 C118.444364,10.2523343 119.016366,9.46859196 119.770934,8.96894873 C120.525502,8.46930551 121.389591,8.21948765 122.363227,8.21948765 C123.395281,8.21948765 124.140101,8.4717547 124.59771,8.97629639 C125.055318,9.48083808 125.284119,10.1445699 125.284119,10.9675116 C125.284119,11.4181702 125.220834,11.9080092 125.094261,12.4370432 L124.758359,13.7596216 C125.323067,12.4468335 125.91941,11.383883 126.547406,10.5707381 C127.175401,9.75759326 127.866672,9.16243894 128.621239,8.78525729 C129.375807,8.40807564 130.23016,8.21948765 131.184323,8.21948765 C132.936867,8.21948765 133.813127,9.01792513 133.813127,10.6148241 C133.813127,11.2320304 133.696292,11.9520937 133.462619,12.7750354 L133.30197,13.3187621 C133.905625,12.015771 134.53361,10.9895584 135.185946,10.2400935 C135.838282,9.49062868 136.510081,8.96650101 137.201362,8.66769477 C137.892644,8.36888853 138.652068,8.21948765 139.479659,8.21948765 C141.271149,8.21948765 142.16688,9.00812835 142.16688,10.5854334 C142.16688,11.2124367 142.025705,11.9422967 141.743351,12.7750354 L138.793249,21.7097872 C138.695885,22.003695 138.647204,22.2437161 138.647204,22.4298577 C138.647204,22.7923439 138.81272,22.9735843 139.143756,22.9735843 C139.737674,22.9735843 140.268297,22.3416921 140.735643,21.0778887 L141.363635,19.3879274 L141.933209,19.3879274 Z M152.755117,23.5320063 C151.460181,24.3059635 149.965673,24.6929362 148.271546,24.6929362 C147.317383,24.6929362 146.448426,24.5288402 145.664649,24.2006432 C144.880873,23.8724462 144.257755,23.3899548 143.795278,22.7531546 C143.332801,22.1163544 143.101566,21.3473073 143.101566,20.4459901 C143.101566,18.476808 143.605415,16.5468425 144.613128,14.6560358 C145.620841,12.7652291 146.998515,11.2197872 148.746191,10.0196638 C150.493868,8.81954036 152.419204,8.21948765 154.522257,8.21948765 C155.641938,8.21948765 156.540104,8.44481356 157.216781,8.89547216 C157.893458,9.34613075 158.231791,10.0074133 158.231791,10.8793397 C158.231791,12.0255801 157.779057,13.0787338 156.873576,14.0388326 C155.968094,14.9989313 154.799749,15.8169623 153.368504,16.4929502 C151.93726,17.1689381 150.413542,17.6930658 148.797307,18.065349 C148.729152,18.6041799 148.695076,19.1185108 148.695076,19.6083571 C148.695076,20.7056128 148.904404,21.4648632 149.323068,21.886131 C149.741731,22.3073988 150.359981,22.5180296 151.177835,22.5180296 C151.674389,22.5180296 152.314545,22.3465859 153.098322,22.0036935 C153.882099,21.6608011 154.639089,21.131775 155.369316,20.4165995 L155.836659,20.6517245 C155.077223,21.7979648 154.050052,22.7580492 152.755117,23.5320063 Z M151.995685,10.0931404 C151.304403,10.9601683 150.671549,12.0721027 150.097104,13.428977 C149.522659,14.7858512 149.118606,16.1500527 148.884934,17.5216223 C149.916988,16.9436037 150.832192,16.2627275 151.630573,15.4789735 C153.441536,13.6763391 154.347003,11.7022881 154.347003,9.55676135 C154.347003,9.0473212 154.186356,8.79260495 153.865056,8.79260495 C153.310084,8.79260495 152.686966,9.22611242 151.995685,10.0931404 Z M161.590818,24.0610377 C162.213945,24.0610377 162.72753,23.8528561 163.131589,23.4364868 C163.535648,23.0201174 163.737674,22.4641502 163.737674,21.7685685 C163.737674,21.1415652 163.589197,20.4680367 163.292238,19.7479626 C162.995279,19.0278885 162.564451,18.2074083 161.999743,17.2864973 C161.532397,16.522337 161.194064,15.9492255 160.984732,15.5671454 C160.775401,15.1850653 160.595281,14.754007 160.444367,14.2739576 C160.293454,13.7939082 160.217998,13.2942725 160.217998,12.7750354 C160.217998,11.903109 160.439497,11.1242651 160.882501,10.4384803 C161.325505,9.75269546 161.992436,9.21142342 162.883313,8.81464792 C163.77419,8.41787242 164.867079,8.21948765 166.162015,8.21948765 C167.632205,8.21948765 168.856534,8.48400068 169.835038,9.01303468 C170.813542,9.54206868 171.302786,10.4335756 171.302786,11.6875821 C171.302786,12.1186468 171.220029,12.5399083 171.054511,12.9513792 C170.888992,13.3628501 170.648021,13.700839 170.33159,13.965356 C170.015158,14.229873 169.633012,14.3621295 169.185139,14.3621295 C168.591221,14.3621295 168.123883,14.129456 167.783111,13.664102 C167.442338,13.198748 167.271954,12.5888985 167.271954,11.8345352 C167.271954,11.2467197 167.369316,10.6956509 167.564044,10.1813123 C167.758771,9.66697364 167.977836,9.27755168 168.221244,9.01303468 C168.04599,8.92486235 167.797717,8.88077684 167.476417,8.88077684 C166.775399,8.88077684 166.24721,9.0865092 165.891832,9.49798009 C165.536455,9.90945098 165.358769,10.5070545 165.358769,11.2908086 C165.358769,11.7806549 165.465868,12.2655954 165.680068,12.7456448 C165.894268,13.2256942 166.152277,13.7130839 166.454104,14.2078287 C166.755931,14.7025734 166.979864,15.0773002 167.12591,15.3320203 C167.787982,16.4684637 168.250452,17.3893609 168.513334,18.0947396 C168.776215,18.8001183 168.907654,19.4907912 168.907654,20.1667791 C168.907654,21.0093147 168.678853,21.7734635 168.221244,22.4592483 C167.763636,23.1450331 167.084535,23.6887544 166.183922,24.0904283 C165.283309,24.4921023 164.200155,24.6929362 162.934428,24.6929362 C161.327929,24.6929362 160.003804,24.3941345 158.962014,23.796522 C157.920224,23.1989095 157.399336,22.2143332 157.399336,20.8427636 C157.399336,20.0786034 157.584324,19.4393636 157.954306,18.9250249 C158.324288,18.4106863 158.815966,18.1535209 159.429357,18.1535209 C160.013538,18.1535209 160.483311,18.3959912 160.838688,18.880939 C161.194065,19.3658868 161.371751,20.0051267 161.371751,20.7986777 C161.371751,21.1905547 161.325504,21.5750783 161.233008,21.9522599 C161.140513,22.3294416 161.028546,22.6821256 160.897106,23.0103226 C160.765665,23.3385196 160.646396,23.6152787 160.539296,23.840608 C160.841123,23.9875618 161.191627,24.0610377 161.590818,24.0610377 Z" id="femmes" fill="#000000"></path>
                                <path d="M3.43642654,14.3818715 C3.66948363,13.8769639 3.94534299,13.466583 4.26401288,13.1507166 C4.48755743,12.9209955 4.76103869,12.7403322 5.08446485,12.6087212 C5.40789101,12.4771102 5.74320281,12.4113057 6.09041031,12.4113057 C6.52323061,12.4113057 6.86210956,12.5094142 7.10705732,12.7056343 C7.35200507,12.9018543 7.47447711,13.1531079 7.47447711,13.4594026 C7.47447711,13.6269076 7.43167135,13.7884277 7.34605854,13.943968 C7.26044573,14.0995083 7.14272989,14.2263315 6.99290748,14.3244416 C6.84308506,14.4225516 6.67780726,14.4716059 6.49706911,14.4716059 C6.3115747,14.4716059 6.16651073,14.4285338 6.06187285,14.3423884 C5.95723497,14.2562431 5.90729492,14.1342056 5.91205119,13.9762724 C5.91205119,13.7417655 5.98815032,13.5371733 6.14035086,13.3624896 C6.29255141,13.1878059 6.49468973,13.0621791 6.74677189,12.9856054 C6.74677189,12.8946742 6.68137419,12.8133158 6.55057685,12.741528 C6.4197795,12.6697402 6.261636,12.6338468 6.07614158,12.6338468 C5.79076555,12.6338468 5.50777191,12.7606701 5.22715215,13.0143204 C5.02738893,13.2057546 4.85616588,13.5084553 4.71347787,13.9224318 C4.57078986,14.3364082 4.43642733,14.7898612 4.31038625,15.2828042 C4.18434517,15.7757472 4.0951665,16.1275023 4.04284757,16.3380799 L4.0357132,16.3524374 L5.76936389,16.3524374 L5.67661714,16.646766 L3.95723519,16.646766 L1.33892325,26.4672909 C0.825246402,26.4816484 0.387676394,26.5510423 0.0262000952,26.6754745 L2.69445259,16.646766 L1.36746071,16.646766 L1.46020745,16.3524374 L2.76579624,16.3524374 L2.7729306,16.3380799 C2.98220636,15.5388422 3.20336946,14.8867792 3.43642654,14.3818715 Z M11.9976645,21.5139559 L11.6338119,22.5907679 C11.4340487,23.1363553 11.1843484,23.5275931 10.8847036,23.7644929 C10.5850587,24.0013927 10.2735279,24.1198408 9.95010175,24.1198408 C9.7693636,24.1198408 9.608842,24.0851439 9.46853212,24.015749 C9.32822224,23.9463541 9.22001878,23.8518349 9.14391851,23.7321885 C9.06306197,23.5886129 9.02263431,23.4163247 9.02263431,23.2153188 C9.02263431,23.0717432 9.03928099,22.9221874 9.07257486,22.7666472 C9.10586873,22.6111069 9.1415402,22.4627476 9.17959034,22.3215649 C9.21764047,22.1803822 9.24142145,22.0882559 9.25093399,22.0451832 L9.51490549,20.97555 C9.04879131,22.0762966 8.57436079,22.8755223 8.09159968,23.3732512 C7.60883857,23.8709801 7.10349277,24.1198408 6.57554713,24.1198408 C6.12845802,24.1198408 5.78720098,23.9583207 5.55176575,23.6352755 C5.31633053,23.3122303 5.19861469,22.8803134 5.19861469,22.3395118 C5.19861469,21.5450599 5.40907635,20.6572971 5.83000599,19.6761969 C6.25093563,18.6950967 6.79552004,17.8623704 7.46377556,17.1779932 C8.13203109,16.493616 8.81573423,16.1514325 9.51490549,16.1514325 C9.77174391,16.1514325 9.98458367,16.2471482 10.1534312,16.4385823 C10.3222786,16.6300165 10.4209697,16.9004133 10.4495073,17.2497807 L10.677807,16.3524374 C11.2200214,16.3380798 11.6694819,16.2710789 12.026202,16.1514325 L10.1998045,22.6481979 C10.1284605,22.906634 10.0927891,23.0884938 10.0927891,23.1937826 C10.0927891,23.4378612 10.2021816,23.5598986 10.4209698,23.5598986 C10.8490339,23.5598986 11.2223952,23.0597843 11.5410651,22.0595407 L11.7194243,21.5139559 L11.9976645,21.5139559 Z M10.2711482,17.7092204 C10.2711482,17.3167803 10.2009943,17.0057044 10.0606844,16.7759834 C9.92037453,16.5462624 9.72180336,16.4314036 9.46496493,16.4314036 C9.0511697,16.4314036 8.61003254,16.7556404 8.14154023,17.4041237 C7.67304793,18.052607 7.28066178,18.8554221 6.96437002,19.8125931 C6.64807826,20.769764 6.48993475,21.6694912 6.48993475,22.5118017 C6.48993475,22.9185993 6.53274051,23.2093356 6.61835332,23.3840193 C6.70396612,23.558703 6.83000531,23.6460436 6.99647466,23.6460436 C7.26758188,23.6460436 7.59219224,23.4366656 7.97031548,23.0179033 C8.34843871,22.599141 8.71942198,22.0404008 9.08327641,21.341666 C9.44713084,20.6429312 9.74796022,19.8963491 9.98577358,19.1018972 L10.2568794,18.032264 C10.266392,17.8791167 10.2711482,17.7714365 10.2711482,17.7092204 Z M15.6076532,13.3194171 C15.712291,13.1447334 15.8490317,13.0047492 16.0178791,12.8994604 C16.1867266,12.7941716 16.3615168,12.741528 16.542255,12.741528 C16.7610433,12.741528 16.9394006,12.8145112 17.0773323,12.9604798 C17.2152641,13.1064484 17.2842289,13.2895046 17.2842289,13.5096539 C17.2842289,13.7010881 17.2330998,13.8817514 17.1308401,14.0516492 C17.0285803,14.2215471 16.8918397,14.3591383 16.7206141,14.4644271 C16.5493885,14.5697159 16.3710311,14.6223595 16.1855367,14.6223595 C15.9715047,14.6223595 15.7955255,14.5505728 15.6575937,14.4069972 C15.519662,14.2634215 15.4506971,14.0839546 15.4506971,13.8685912 C15.4506971,13.677157 15.5030153,13.4941008 15.6076532,13.3194171 Z M15.1296507,17.0631333 C15.1296507,16.8142688 15.0250144,16.6898385 14.8157387,16.6898385 C14.5921941,16.6898385 14.3924339,16.8082866 14.216452,17.0451864 C14.0404701,17.2820862 13.8549785,17.6637524 13.6599715,18.1901964 L13.4530749,18.7357811 L13.1819691,18.7357811 L13.5600904,17.666148 C13.7598536,17.1062029 14.0214444,16.7137687 14.3448706,16.4888336 C14.6682967,16.2638984 15.0107428,16.1514325 15.3722191,16.1514325 C16.0190714,16.1514325 16.3424928,16.4577226 16.3424928,17.070312 C16.3424928,17.3574633 16.2616374,17.7355402 16.0999243,18.2045539 L14.5374984,22.6625553 C14.4613981,22.873133 14.4233486,23.0525998 14.4233486,23.2009613 C14.4233486,23.4498258 14.5398754,23.5742561 14.7729325,23.5742561 C14.9726957,23.5742561 15.1605654,23.4629867 15.3365473,23.2404444 C15.5125292,23.0179022 15.7051551,22.6290573 15.9144309,22.0738982 L16.1141931,21.5283134 L16.3924333,21.5283134 L16.014312,22.6051254 C15.8240613,23.1363553 15.5696048,23.5216108 15.2509349,23.7609035 C14.932265,24.0001963 14.5874408,24.1198408 14.216452,24.1198408 C13.5363058,24.1198408 13.1962378,23.8207294 13.1962378,23.2224976 C13.1962378,22.9209887 13.2818493,22.5333403 13.4530749,22.0595407 L15.0226352,17.6015392 C15.0939792,17.3861758 15.1296507,17.2067089 15.1296507,17.0631333 Z M18.8395205,22.9927777 C18.8395205,23.1889977 18.8977839,23.3349641 19.0143124,23.4306812 C19.130841,23.5263983 19.2842283,23.5742561 19.474479,23.5742561 C19.7170486,23.5742561 19.9441569,23.4689689 20.1558108,23.2583913 C20.3674647,23.0478137 20.5731702,22.6625581 20.7729334,22.1026131 L20.97983,21.5283134 L21.2580702,21.5283134 L20.9512925,22.4543717 C20.746773,23.0621753 20.4804261,23.4916993 20.1522436,23.7429567 C19.8240612,23.994214 19.4221627,24.1198408 18.946536,24.1198408 C18.5089594,24.1198408 18.1819709,24.0121607 17.9655608,23.7967973 C17.7491506,23.5814338 17.6409472,23.2823224 17.6409472,22.899454 C17.6409472,22.6649471 17.686131,22.3849788 17.7765001,22.0595407 L19.3246573,16.646766 L18.0119342,16.646766 L18.0832778,16.3524374 L19.4102697,16.3524374 L20.0452282,14.1198473 C20.5826863,14.1054897 21.0202564,14.0360959 21.3579513,13.9116637 L20.6659179,16.3524374 L22.5993308,16.3524374 L22.5565246,16.646766 L20.5874399,16.646766 L18.889461,22.6625553 C18.8561672,22.7774159 18.8395205,22.8874889 18.8395205,22.9927777 Z M26.316335,23.111227 C26.0119339,23.4103429 25.6706768,23.6532214 25.2925536,23.8398697 C24.9144304,24.0265181 24.5279895,24.1198408 24.1332193,24.1198408 C23.5291734,24.1198408 23.0571209,23.9415704 22.7170478,23.5850242 C22.3769747,23.2284781 22.2069407,22.7152028 22.2069407,22.0451832 C22.2069407,21.3033757 22.4233477,20.4646672 22.856168,19.5290326 C23.2889883,18.593398 23.8751894,17.7965651 24.6147889,17.1385101 C25.3543885,16.4804551 26.1569965,16.1514325 27.0226371,16.1514325 C27.3365507,16.1514325 27.5957634,16.2351837 27.8002829,16.4026886 C28.0048024,16.5701935 28.1070606,16.8094827 28.1070606,17.1205632 C28.1070606,17.9150151 27.6671125,18.6065608 26.7872031,19.1952209 C25.9072936,19.783881 24.8918458,20.2744238 23.7408292,20.6668639 C23.6314351,21.1550211 23.5767388,21.6288136 23.5767388,22.0882556 C23.5767388,23.031069 23.9120506,23.5024687 24.5826843,23.5024687 C25.415031,23.5024687 26.1665099,23.0119259 26.8371436,22.0308257 L27.0725776,22.1456856 C26.8728144,22.4902672 26.6207361,22.8121111 26.316335,23.111227 Z M25.652839,16.9805777 C25.2675814,17.3466956 24.9072996,17.8348454 24.5719827,18.4450419 C24.2366659,19.0552384 23.9810204,19.7025156 23.8050385,20.3868928 C24.7658045,20.0470971 25.4292938,19.7312354 25.7955263,19.4392983 C26.1570026,19.1569328 26.4376182,18.8135529 26.6373814,18.4091482 C26.8371446,18.0047435 26.9370247,17.5656479 26.9370247,17.0918483 C26.9370247,16.8286262 26.9179999,16.6527487 26.8799498,16.5642104 C26.8418997,16.4756721 26.7824472,16.4314036 26.7015907,16.4314036 C26.387677,16.4314036 26.0380967,16.6144598 25.652839,16.9805777 Z M29.8407113,23.8255122 C30.2830441,23.8255122 30.6397588,23.6927068 30.910866,23.4270918 C31.1819732,23.1614769 31.3175248,22.7893823 31.3175248,22.3107968 C31.3175248,21.9997162 31.2592614,21.6934261 31.1427329,21.3919173 C31.0262043,21.0904084 30.8300112,20.7482249 30.5541477,20.3653565 C30.3210907,20.0447043 30.1486786,19.7982365 30.0369063,19.6259457 C29.925134,19.4536549 29.8252539,19.2478662 29.737263,19.0085735 C29.649272,18.7692808 29.6052772,18.5108485 29.6052772,18.2332689 C29.6052772,17.8264713 29.7063464,17.4651446 29.9084877,17.1492782 C30.1106291,16.8334118 30.3852994,16.5881404 30.7325069,16.4134567 C31.0797144,16.238773 31.46021,16.1514325 31.8740053,16.1514325 C32.3781696,16.1514325 32.801471,16.2459517 33.1439222,16.434993 C33.4863735,16.6240342 33.6575965,16.9554497 33.6575965,17.4292493 C33.6575965,17.5345381 33.6338155,17.6458076 33.5862529,17.763061 C33.5386902,17.8803145 33.4637801,17.9808159 33.3615204,18.0645684 C33.2592606,18.1483208 33.1320324,18.1901964 32.9798318,18.1901964 C32.8133625,18.1901964 32.6742438,18.132767 32.5624715,18.0179065 C32.4506992,17.903046 32.3948139,17.7546867 32.3948139,17.5728243 C32.3948139,17.2569578 32.5327436,16.9291317 32.8086071,16.589336 C32.6136001,16.4744755 32.368656,16.4170461 32.0737675,16.4170461 C31.7027787,16.4170461 31.3983821,16.5414765 31.1605688,16.7903409 C30.9227554,17.0392054 30.8038505,17.3789959 30.8038505,17.8097229 C30.8038505,18.068159 30.8466563,18.2895015 30.9322691,18.4737569 C31.0178819,18.6580123 31.141543,18.8661939 31.3032561,19.0983078 C31.4649691,19.3304218 31.5910083,19.513478 31.6813774,19.6474819 C31.9715097,20.1021381 32.1879166,20.4897865 32.3306046,20.8104388 C32.4732926,21.1310911 32.5446356,21.463703 32.5446356,21.8082845 C32.5446356,22.253369 32.4304869,22.6517855 32.2021861,23.0035458 C31.9738852,23.3553061 31.6682997,23.6292922 31.2854202,23.8255122 C30.9025407,24.0217323 30.4851845,24.1198408 30.0333391,24.1198408 C29.4720996,24.1198408 29.0024253,24.0001963 28.624302,23.7609035 C28.2461788,23.5216108 28.05712,23.1554984 28.05712,22.6625553 C28.05712,22.4902646 28.1034929,22.3371195 28.1962401,22.2031156 C28.2889873,22.0691116 28.4328623,22.0021107 28.6278692,22.0021107 C28.8466575,22.0021107 29.0083682,22.0906477 29.113006,22.2677243 C29.2176439,22.4448009 29.2699621,22.6649469 29.2699621,22.928169 C29.2699621,23.1004597 29.2366687,23.3541062 29.1700809,23.6891161 C29.3508191,23.7800473 29.5743603,23.8255122 29.8407113,23.8255122 Z M44.4875625,21.5139559 L44.1237099,22.5907679 C43.9239467,23.1363553 43.6742464,23.5275931 43.3746016,23.7644929 C43.0749568,24.0013927 42.7634259,24.1198408 42.4399998,24.1198408 C42.2592616,24.1198408 42.09874,24.0851439 41.9584301,24.015749 C41.8181203,23.9463541 41.7099168,23.8518349 41.6338165,23.7321885 C41.55296,23.5886129 41.5125323,23.4163247 41.5125323,23.2153188 C41.5125323,23.0717432 41.529179,22.9221874 41.5624729,22.7666472 C41.5957667,22.6111069 41.6314382,22.4627476 41.6694884,22.3215649 C41.7075385,22.1803822 41.7313195,22.0882559 41.740832,22.0451832 L42.0048035,20.97555 C41.5386893,22.0762966 41.0642588,22.8755223 40.5814977,23.3732512 C40.0987366,23.8709801 39.5933908,24.1198408 39.0654451,24.1198408 C38.618356,24.1198408 38.277099,23.9583207 38.0416638,23.6352755 C37.8062286,23.3122303 37.6885127,22.8803134 37.6885127,22.3395118 C37.6885127,21.5450599 37.8989744,20.6572971 38.319904,19.6761969 C38.7408336,18.6950967 39.2854181,17.8623704 39.9536736,17.1779932 C40.6219291,16.493616 41.3056322,16.1514325 42.0048035,16.1514325 C42.2616419,16.1514325 42.4744817,16.2471482 42.6433292,16.4385823 C42.8121767,16.6300165 42.9108677,16.9004133 42.9394053,17.2497807 L43.167705,16.3524374 C43.7099194,16.3380798 44.1593799,16.2710789 44.5161,16.1514325 L42.6897025,22.6481979 C42.6183585,22.906634 42.5826871,23.0884938 42.5826871,23.1937826 C42.5826871,23.4378612 42.6920796,23.5598986 42.9108679,23.5598986 C43.3389319,23.5598986 43.7122933,23.0597843 44.0309632,22.0595407 L44.2093223,21.5139559 L44.4875625,21.5139559 Z M42.7610462,17.7092204 C42.7610462,17.3167803 42.6908923,17.0057044 42.5505824,16.7759834 C42.4102725,16.5462624 42.2117014,16.4314036 41.954863,16.4314036 C41.5410677,16.4314036 41.0999306,16.7556404 40.6314383,17.4041237 C40.1629459,18.052607 39.7705598,18.8554221 39.454268,19.8125931 C39.1379763,20.769764 38.9798328,21.6694912 38.9798328,22.5118017 C38.9798328,22.9185993 39.0226385,23.2093356 39.1082513,23.3840193 C39.1938641,23.558703 39.3199033,23.6460436 39.4863727,23.6460436 C39.7574799,23.6460436 40.0820903,23.4366656 40.4602135,23.0179033 C40.8383367,22.599141 41.20932,22.0404008 41.5731744,21.341666 C41.9370289,20.6429312 42.2378582,19.8963491 42.4756716,19.1018972 L42.7467775,18.032264 C42.75629,17.8791167 42.7610462,17.7714365 42.7610462,17.7092204 Z M52.7705602,21.5283134 L52.4067076,22.6051254 C52.0547438,23.6149407 51.4649756,24.1198408 50.6373851,24.1198408 C50.475672,24.1198408 50.3270409,24.0851439 50.1914873,24.015749 C50.0559337,23.9463541 49.9548645,23.8470491 49.8882768,23.717831 C49.8312016,23.5981847 49.8026644,23.4474325 49.8026644,23.26557 C49.8026644,23.0071339 49.8716292,22.6051281 50.009561,22.0595407 L50.4732947,20.2146029 C50.0832808,21.1622021 49.7063523,21.9219452 49.3424979,22.4938548 C48.9786434,23.0657645 48.6124164,23.4797347 48.2438057,23.7357779 C47.875195,23.9918211 47.4792417,24.1198408 47.0559339,24.1198408 C46.2330997,24.1198408 45.8216888,23.741764 45.8216888,22.9855989 C45.8216888,22.6793042 45.8930317,22.3155847 46.0357197,21.8944295 L47.448324,17.6015392 C47.5244242,17.3622465 47.5624738,17.1779939 47.5624738,17.0487758 C47.5624738,16.809483 47.4483251,16.6898385 47.2200243,16.6898385 C47.0202611,16.6898385 46.8300132,16.8011079 46.6492751,17.0236502 C46.4685369,17.2461924 46.2830453,17.6350373 46.0927946,18.1901964 L45.9001668,18.7357811 L45.6219265,18.7357811 L45.9929135,17.666148 C46.3353647,16.6563326 46.9227549,16.1514325 47.7551017,16.1514325 C48.4400041,16.1514325 48.7824502,16.4553297 48.7824502,17.0631333 C48.7824502,17.3311411 48.703973,17.7116109 48.5470162,18.2045539 L47.155815,22.4112992 C47.0606897,22.6984505 47.0131277,22.9425254 47.0131277,23.1435313 C47.0131277,23.4785412 47.1677041,23.6460436 47.4768614,23.6460436 C47.8478503,23.6460436 48.2604502,23.373254 48.7146737,22.8276665 C49.1688973,22.2820791 49.6159797,21.5211396 50.0559344,20.5448252 C50.4958891,19.5685108 50.88233,18.462995 51.2152687,17.2282444 L51.436434,16.3524374 C51.9929172,16.3380798 52.4376215,16.2710789 52.7705602,16.1514325 L50.9584315,22.6625553 C50.8870875,22.9114198 50.8514161,23.1028511 50.8514161,23.236855 C50.8514161,23.4617902 50.9560524,23.5742561 51.1653281,23.5742561 C51.3793601,23.5742561 51.5755532,23.4582009 51.7539132,23.2260869 C51.9322732,22.993973 52.1141977,22.6099139 52.2996921,22.0738982 L52.49232,21.5283134 L52.7705602,21.5283134 Z M59.0131296,17.0487758 C59.2889931,16.7281235 59.5398824,16.4984059 59.7658051,16.3596161 C59.9917278,16.2208263 60.2283485,16.1514325 60.4756744,16.1514325 C60.6611688,16.1514325 60.8145561,16.2004868 60.9358409,16.2985968 C61.0571257,16.3967068 61.1177672,16.5271194 61.1177672,16.6898385 C61.1177672,16.8812727 61.0452352,17.0475786 60.9001691,17.1887613 C60.7551029,17.329944 60.5708004,17.4005343 60.3472558,17.4005343 C60.0190734,17.4005343 59.7099207,17.2832827 59.4197884,17.0487758 C58.8157424,17.6087208 58.2925609,18.4653759 57.8502281,19.6187669 L58.1926776,22.7630578 C58.2307277,23.0119222 58.2901802,23.1866033 58.3710367,23.2871063 C58.4518933,23.3876092 58.5589077,23.4378599 58.6920831,23.4378599 C58.8585525,23.4378599 59.017885,23.3433407 59.1700856,23.1542995 C59.3222861,22.9652582 59.488753,22.6099138 59.6694911,22.0882556 L59.862119,21.5426709 L60.1403592,21.5426709 L59.7765066,22.6194829 C59.4150303,23.6197265 58.8585554,24.1198408 58.1070652,24.1198408 C57.4031377,24.1198408 56.998861,23.6675843 56.8942232,22.7630578 L56.6801922,20.8535113 C56.2949346,21.7245369 55.7765093,22.5094053 55.1249007,23.2081401 C54.8252558,23.5240065 54.5600979,23.7549205 54.329419,23.9008891 C54.09874,24.0468576 53.8740098,24.1198408 53.6552215,24.1198408 C53.4364332,24.1198408 53.2711554,24.071983 53.1593831,23.9762659 C53.0476108,23.8805488 52.9917255,23.7465469 52.9917255,23.5742561 C52.9917255,23.3876078 53.0654466,23.2236947 53.2128909,23.082512 C53.3603351,22.9413293 53.5410706,22.870739 53.7551026,22.870739 C54.0690162,22.870739 54.3757908,22.9879907 54.6754357,23.2224976 C55.0749621,22.8492009 55.4447563,22.4029266 55.7848294,21.8836614 C56.1249025,21.3643961 56.404329,20.848728 56.6231173,20.3366416 L56.3092052,17.5010368 C56.2473738,17.0511664 56.083285,16.8262346 55.8169341,16.8262346 C55.655221,16.8262346 55.4970775,16.9219503 55.3424988,17.1133845 C55.1879201,17.3048187 55.0178861,17.6589666 54.8323917,18.1758389 L54.6468982,18.7214237 L54.368658,18.7214237 L54.7325106,17.6517905 C54.9275175,17.1014172 55.1665164,16.7137687 55.4495143,16.4888336 C55.7325122,16.2638984 56.0499882,16.1514325 56.401952,16.1514325 C56.758672,16.1514325 57.0357204,16.2531304 57.2331055,16.4565292 C57.4304906,16.659928 57.5577188,17.0080937 57.614794,17.5010368 L57.7788844,19.0157522 C58.1070669,18.2595872 58.5184778,17.6039349 59.0131296,17.0487758 Z" id="faites-aux" fill="#660779"></path>
                            </g>
                        </g>
                    </g>
                    <g id="plan-d'actions" transform="translate(90.270060, 56.143271) rotate(-1.000000) translate(-90.270060, -56.143271) translate(0.770060, 48.143271)">
                        <rect id="Rectangle" fill="#000000" x="0" y="0" width="178.483121" height="15.6908238"></rect>
                        <g id="NOTRE-PLAN-D’ACTIONS" transform="translate(12.866665, 4.460426)" fill-rule="nonzero">
                            <path d="M-9.23705556e-14,0.111143335 L1.27814836,0.111143335 L2.95641272,4.70136308 L2.97864138,4.70136308 L2.97864138,0.111143335 L4.22344674,0.111143335 L4.22344674,8.13569214 L3.02309872,8.13569214 L1.26703402,3.12312772 L1.24480535,3.12312772 L1.24480535,8.13569214 L-9.23705556e-14,8.13569214 L-9.23705556e-14,0.111143335 Z M8.56780148,6.39488462e-14 C9.9348645,6.39488462e-14 10.6795248,0.855803681 10.6795248,2.0228087 L10.6795248,6.22402677 C10.6795248,7.35768879 9.9682075,8.24683547 8.56780148,8.24683547 C7.17850979,8.24683547 6.45607811,7.36880313 6.45607811,6.22402677 L6.45607811,2.03392303 C6.45607811,0.866918015 7.18962412,6.39488462e-14 8.56780148,6.39488462e-14 Z M7.83425546,2.04503737 L7.83425546,6.19068377 C7.83425546,6.77974345 8.0454278,7.04648745 8.56780148,7.04648745 C9.14574682,7.04648745 9.30134749,6.71305745 9.30134749,6.19068377 L9.30134749,2.0561517 C9.30134749,1.58934969 9.19020415,1.20034802 8.56780148,1.20034802 C8.0787708,1.20034802 7.83425546,1.42263469 7.83425546,2.04503737 Z M12.3786682,0.111143335 L16.4242856,0.111143335 L16.4242856,1.31149136 L15.0905656,1.31149136 L15.0905656,8.13569214 L13.7123882,8.13569214 L13.7123882,1.31149136 L12.3786682,1.31149136 L12.3786682,0.111143335 Z M18.1345433,0.111143335 L20.124009,0.111143335 C21.624444,0.111143335 22.4024474,0.78911768 22.4024474,2.47849638 C22.4024474,3.52324373 22.091246,4.19010374 21.4355004,4.50130508 L22.6025054,8.13569214 L21.2020994,8.13569214 L20.224038,4.81250642 C20.0462087,4.83473508 19.823922,4.84584942 19.5127207,4.84584942 L19.5127207,8.13569214 L18.1345433,8.13569214 L18.1345433,0.111143335 Z M19.5127207,1.24480535 L19.5127207,3.7121874 L20.0350943,3.7121874 C20.7686403,3.7121874 21.02427,3.41210039 21.02427,2.47849638 C21.02427,1.54489236 20.790869,1.24480535 19.9795227,1.24480535 L19.5127207,1.24480535 Z M24.5906214,0.111143335 L28.2805801,0.111143335 L28.2805801,1.31149136 L25.9687988,1.31149136 L25.9687988,3.37875739 L27.7470921,3.37875739 L27.7470921,4.57910541 L25.9687988,4.57910541 L25.9687988,6.93534412 L28.4361808,6.93534412 L28.4361808,8.13569214 L24.5906214,8.13569214 L24.5906214,0.111143335 Z M33.7905902,0.111143335 L35.8133989,0.111143335 C37.447206,0.111143335 38.2585523,0.766889013 38.2585523,2.47849638 C38.2585523,4.33459007 37.2804909,4.84584942 35.8133989,4.84584942 L35.1687676,4.84584942 L35.1687676,8.13569214 L33.7905902,8.13569214 L33.7905902,0.111143335 Z M35.1687676,1.24480535 L35.1687676,3.7121874 L35.6355696,3.7121874 C36.5358306,3.7121874 36.8803749,3.51212939 36.8803749,2.47849638 C36.8803749,1.40040602 36.5024876,1.24480535 35.6022266,1.24480535 L35.1687676,1.24480535 Z M40.1799823,0.111143335 L41.5581597,0.111143335 L41.5581597,6.93534412 L43.7254547,6.93534412 L43.7254547,8.13569214 L40.1799823,8.13569214 L40.1799823,0.111143335 Z M46.4137738,0.111143335 L48.1253811,0.111143335 L49.6035875,8.13569214 L48.2698675,8.13569214 L48.0253521,6.35739878 L46.5138028,6.35739878 L46.2692874,8.13569214 L44.9355674,8.13569214 L46.4137738,0.111143335 Z M47.2806918,1.71160736 L47.2584631,1.71160736 L46.7138608,5.15705076 L47.8252941,5.15705076 L47.2806918,1.71160736 Z M51.3027308,0.111143335 L52.5808792,0.111143335 L54.2591436,4.70136308 L54.2813722,4.70136308 L54.2813722,0.111143335 L55.5261776,0.111143335 L55.5261776,8.13569214 L54.3258296,8.13569214 L52.5697649,3.12312772 L52.5475362,3.12312772 L52.5475362,8.13569214 L51.3027308,8.13569214 L51.3027308,0.111143335 Z M61.1251023,0.111143335 L63.214597,0.111143335 C64.5816601,0.111143335 65.3485491,0.922489682 65.3485491,2.47849638 L65.3485491,5.7683391 C65.3485491,7.33546013 64.5816601,8.13569214 63.214597,8.13569214 L61.1251023,8.13569214 L61.1251023,0.111143335 Z M62.5032797,1.24480535 L62.5032797,7.00203012 L62.9700817,7.00203012 C63.7591994,7.00203012 63.9703717,6.66860011 63.9703717,5.92393977 L63.9703717,2.32289571 C63.9703717,1.53377803 63.7147421,1.24480535 62.9700817,1.24480535 L62.5032797,1.24480535 Z M67.4922658,0.111143335 L68.8037571,0.111143335 L68.8037571,1.42263469 L68.0368681,2.80081205 L67.4478084,2.80081205 L67.9924108,1.42263469 L67.4922658,1.42263469 L67.4922658,0.111143335 Z" id="NOTREPLAND’" fill="#FFFFFF"></path>
                            <path d="M71.8921922,0.111143335 L73.6037995,0.111143335 L75.0820059,8.13569214 L73.7482859,8.13569214 L73.5037705,6.35739878 L71.9922212,6.35739878 L71.7477058,8.13569214 L70.4139858,8.13569214 L71.8921922,0.111143335 Z M72.7591102,1.71160736 L72.7368815,1.71160736 L72.1922792,5.15705076 L73.3037125,5.15705076 L72.7591102,1.71160736 Z M78.8928726,-3.90798505e-13 C80.171021,-3.90798505e-13 80.93791,0.900261015 80.93791,2.17840937 L80.93791,2.78969771 L79.5597326,2.78969771 L79.5597326,2.17840937 C79.5597326,1.57823536 79.3152173,1.20034802 78.8928726,1.20034802 C78.370499,1.20034802 78.1593266,1.45597769 78.1593266,2.04503737 L78.1593266,6.19068377 C78.1593266,6.77974345 78.370499,7.04648745 78.8928726,7.04648745 C79.437475,7.04648745 79.5597326,6.69082878 79.5597326,6.26848411 L79.5597326,5.26819409 L80.93791,5.26819409 L80.93791,6.22402677 C80.93791,7.35768879 80.2154783,8.24683547 78.8928726,8.24683547 C77.5035809,8.24683547 76.7811493,7.36880313 76.7811493,6.22402677 L76.7811493,2.0228087 C76.7811493,0.855803681 77.5258096,-3.90798505e-13 78.8928726,-3.90798505e-13 Z M82.7037394,0.111143335 L86.7493568,0.111143335 L86.7493568,1.31149136 L85.4156367,1.31149136 L85.4156367,8.13569214 L84.0374594,8.13569214 L84.0374594,1.31149136 L82.7037394,1.31149136 L82.7037394,0.111143335 Z M88.6485581,0.111143335 L90.0267355,0.111143335 L90.0267355,8.13569214 L88.6485581,8.13569214 L88.6485581,0.111143335 Z M94.5600339,-3.90798505e-13 C95.9270969,-3.90798505e-13 96.6717573,0.855803681 96.6717573,2.0228087 L96.6717573,6.22402677 C96.6717573,7.35768879 95.9604399,8.24683547 94.5600339,8.24683547 C93.1707422,8.24683547 92.4483105,7.36880313 92.4483105,6.22402677 L92.4483105,2.03392303 C92.4483105,0.866918015 93.1818565,-3.90798505e-13 94.5600339,-3.90798505e-13 Z M93.8264879,2.04503737 L93.8264879,6.19068377 C93.8264879,6.77974345 94.0376602,7.04648745 94.5600339,7.04648745 C95.1379792,7.04648745 95.2935799,6.71305745 95.2935799,6.19068377 L95.2935799,2.0561517 C95.2935799,1.58934969 95.1824366,1.20034802 94.5600339,1.20034802 C94.0710032,1.20034802 93.8264879,1.42263469 93.8264879,2.04503737 Z M98.9043886,0.111143335 L100.182537,0.111143335 L101.860801,4.70136308 L101.88303,4.70136308 L101.88303,0.111143335 L103.127835,0.111143335 L103.127835,8.13569214 L101.927487,8.13569214 L100.171423,3.12312772 L100.149194,3.12312772 L100.149194,8.13569214 L98.9043886,8.13569214 L98.9043886,0.111143335 Z M107.261018,-3.90798505e-13 C108.339108,-3.90798505e-13 109.039311,0.722431679 109.183797,1.94500837 L107.872306,2.0894947 C107.827849,1.50043503 107.527762,1.20034802 107.13876,1.20034802 C106.694187,1.20034802 106.449671,1.48932069 106.449671,1.97835137 C106.449671,2.46738204 106.771987,2.88972672 107.427733,3.42321473 C109.039311,4.72359175 109.250483,5.47936643 109.250483,6.19068377 C109.250483,7.47994646 108.405794,8.24683547 107.072074,8.24683547 C105.916183,8.24683547 105.071494,7.36880313 105.004808,6.02396877 L106.316299,5.8350251 C106.371871,6.65748578 106.694187,7.04648745 107.149874,7.04648745 C107.616676,7.04648745 107.938992,6.79085778 107.938992,6.31294144 C107.938992,5.7683391 107.594448,5.29042276 106.960931,4.77916342 C105.738354,3.78998773 105.13818,3.12312772 105.13818,2.00058003 C105.13818,0.722431679 105.916183,-3.90798505e-13 107.261018,-3.90798505e-13 Z" id="ACTIONS" fill="#ED1844"></path>
                            <path d="M116.672159,6.39488462e-14 C117.950307,6.39488462e-14 118.717196,0.900261015 118.717196,2.17840937 L118.717196,2.78969771 L117.339019,2.78969771 L117.339019,2.17840937 C117.339019,1.57823536 117.094504,1.20034802 116.672159,1.20034802 C116.149785,1.20034802 115.938613,1.45597769 115.938613,2.04503737 L115.938613,6.19068377 C115.938613,6.77974345 116.149785,7.04648745 116.672159,7.04648745 C117.216761,7.04648745 117.339019,6.69082878 117.339019,6.26848411 L117.339019,5.26819409 L118.717196,5.26819409 L118.717196,6.22402677 C118.717196,7.35768879 117.994765,8.24683547 116.672159,8.24683547 C115.282867,8.24683547 114.560436,7.36880313 114.560436,6.22402677 L114.560436,2.0228087 C114.560436,0.855803681 115.305096,6.39488462e-14 116.672159,6.39488462e-14 Z M121.205457,0.111143335 L122.583635,0.111143335 L122.583635,8.13569214 L121.205457,8.13569214 L121.205457,0.111143335 Z M124.471722,0.111143335 L128.517339,0.111143335 L128.517339,1.31149136 L127.183619,1.31149136 L127.183619,8.13569214 L125.805442,8.13569214 L125.805442,1.31149136 L124.471722,1.31149136 L124.471722,0.111143335 Z M132.33932,6.39488462e-14 C133.706383,6.39488462e-14 134.451044,0.855803681 134.451044,2.0228087 L134.451044,6.22402677 C134.451044,7.35768879 133.739726,8.24683547 132.33932,8.24683547 C130.950028,8.24683547 130.227597,7.36880313 130.227597,6.22402677 L130.227597,2.03392303 C130.227597,0.866918015 130.961143,6.39488462e-14 132.33932,6.39488462e-14 Z M131.605774,2.04503737 L131.605774,6.19068377 C131.605774,6.77974345 131.816947,7.04648745 132.33932,7.04648745 C132.917266,7.04648745 133.072866,6.71305745 133.072866,6.19068377 L133.072866,2.0561517 C133.072866,1.58934969 132.961723,1.20034802 132.33932,1.20034802 C131.85029,1.20034802 131.605774,1.42263469 131.605774,2.04503737 Z M136.127958,0.111143335 L137.528364,0.111143335 L138.495311,3.16758505 L138.51754,3.16758505 L139.44003,0.111143335 L140.840436,0.111143335 L139.173286,4.80139208 L139.173286,8.13569214 L137.795108,8.13569214 L137.795108,4.80139208 L136.127958,0.111143335 Z M142.51735,0.111143335 L146.207309,0.111143335 L146.207309,1.31149136 L143.895528,1.31149136 L143.895528,3.37875739 L145.673821,3.37875739 L145.673821,4.57910541 L143.895528,4.57910541 L143.895528,6.93534412 L146.36291,6.93534412 L146.36291,8.13569214 L142.51735,8.13569214 L142.51735,0.111143335 Z M148.351026,0.111143335 L149.629174,0.111143335 L151.307438,4.70136308 L151.329667,4.70136308 L151.329667,0.111143335 L152.574473,0.111143335 L152.574473,8.13569214 L151.374124,8.13569214 L149.61806,3.12312772 L149.595831,3.12312772 L149.595831,8.13569214 L148.351026,8.13569214 L148.351026,0.111143335 Z" id="CITOYEN" fill="#FFFFFF"></path>
                        </g>
                    </g>
                </g>
            </g>
        </g>
    </g>
</svg>