<svg width="328" height="242" xmlns="http://www.w3.org/2000/svg"><defs><linearGradient x1="49.574%" y1="101.197%" x2="49.574%" y2=".533%" id="a"><stop stop-color="gray" stop-opacity=".25" offset="0%"/><stop stop-color="gray" stop-opacity=".12" offset="54%"/><stop stop-color="gray" stop-opacity=".1" offset="100%"/></linearGradient></defs><g fill="none" fill-rule="evenodd"><ellipse fill="#FFB030" fill-rule="nonzero" opacity=".1" cx="159.12" cy="222.84" rx="128.52" ry="18.36"/><path d="M3.96 115.92c5.19 19.976 16.18 37.244 33.544 45.614 36.094 17.396 117.49 8.425 178.234-1.874 31.418-5.327 59.038-20.018 79.102-40.714L3.96 115.92zM322.185 21.694h-33.269c-1.579 0-2.874-1.165-2.874-2.588s1.295-2.59 2.874-2.59h5.751c-1.582 0-2.874-1.165-2.874-2.588s1.292-2.59 2.874-2.59h-4.106c-1.582 0-2.875-1.165-2.875-2.588s1.293-2.59 2.875-2.59h17.364c-3.853-1.613-8.357-2.76-13.547-3.363-47.347-5.475-64.252-1.854-70.215 1.872a70.123 70.123 0 01-24.336 9.607c-29.213 5.428-83.845 11.957-133.362-2.08-24.61-6.993-42.9 4.813-53.865 24.524h315.36c-.412-5.73-1.645-11.024-3.907-15.653a3.062 3.062 0 01-1.868.627zM1.076 74.16a120.164 120.164 0 001.29 34.972L294.69 118.8A123.791 123.791 0 00315 90.788L1.076 74.16zm115.618 24.946h-5.756c1.583 0 2.88 1.173 2.88 2.604 0 1.43-1.297 2.603-2.88 2.603H77.643c-1.58 0-2.877-1.173-2.877-2.603 0-1.43 1.297-2.604 2.877-2.604h5.756c-1.584 0-2.877-1.17-2.877-2.6 0-1.43 1.293-2.604 2.877-2.604h-4.11c-1.584 0-2.877-1.17-2.877-2.6 0-1.431 1.293-2.604 2.877-2.604h33.295c1.583 0 2.876 1.17 2.876 2.603 0 1.433-1.293 2.6-2.876 2.6h4.11c1.583 0 2.876 1.174 2.876 2.604 0 1.43-1.293 2.601-2.876 2.601zM327.812 36.72L8.716 43.71C4.834 52.712 2.275 62.892 1.08 73.44h321.141a112.992 112.992 0 004.638-18.95c.956-6.2 1.338-12.198.953-17.77zM65.862 59.651h-5.755c1.583 0 2.879 1.168 2.879 2.594 0 1.427-1.296 2.597-2.879 2.597h-33.29c-1.58 0-2.876-1.167-2.876-2.597s1.296-2.594 2.876-2.594h5.755c-1.583 0-2.876-1.17-2.876-2.597 0-1.426 1.293-2.593 2.876-2.593h-4.11c-1.582 0-2.875-1.17-2.875-2.597s1.293-2.597 2.876-2.597h33.29c1.582 0 2.876 1.17 2.876 2.597 0 1.426-1.294 2.597-2.876 2.597h4.109c1.583 0 2.876 1.167 2.876 2.593 0 1.427-1.293 2.597-2.876 2.597z" fill="#FFB030" fill-rule="nonzero" opacity=".1"/><path d="M230.28 144.457l16.32-.358-.257-2.333-21.312-1.235-.233-.947c1.594-.054 3.455-.135 4.73-.255 0-.09 0-.188-.024-.28l.355-.03c.359-.036.672-.072.917-.114 2.067-.341-.173-1.917.815-3.17.989-1.252-.02-5.914.06-6.916.08-1.001-.68-4.996-1.344-5.827-.663-.832-.761-4.414-.761-4.414s-1.577-1.411-2.503-6.24c-.925-4.829-4.577-7.317-5.745-7.562-1.168-.245-2.903-1.24-2.903-1.495 0-.254-1.988-.326-2.816-.658-.827-.332-1.245-.744-1.905-.825.236-.27.432-.572.583-.897a2.515 2.515 0 01.382-.541.92.92 0 01.896-.344c.12.036.245.105.364.15l.093.026c.086.026.18.016.26-.027a.428.428 0 00.179-.257l.026-.104c.026-.126.047-.251.063-.377V99.4c.015-.129.024-.26.03-.392.039-.939-.096-1.913.337-2.733l.027-.038c.436-.784 1.293-1.22 1.995-1.795.143-.116.28-.24.41-.37.05-.051.098-.105.146-.156.047-.05.155-.161.223-.248.07-.087.117-.146.174-.221l.155-.213c.063-.09.12-.179.176-.272l.108-.182c.06-.105.113-.212.167-.32l.072-.152c.053-.12.104-.243.152-.368l.042-.114c.047-.137.092-.275.131-.415v-.07c.08-.3.137-.605.167-.914a5.937 5.937 0 00-1.382-4.342c-.768-.897-1.87-1.69-1.935-2.867a4.58 4.58 0 01.355-1.615c.078-.227.136-.46.173-.697.017-.106.026-.214.027-.323 0-.876-.558-1.656-1.194-2.251a7.67 7.67 0 00-6.94-1.815c-.642.155-1.284.4-1.941.32-.759-.093-1.395-.598-2.09-.945-2.243-1.133-5.274-.299-6.624 1.836-.78 1.232-1.078 2.835-2.246 3.702-.69.508-1.642.738-2.138 1.399a1.57 1.57 0 00-.152.242 1.88 1.88 0 00-.176.828v.219c0 .215.039.436.068.649.046.354.14.702.278 1.031.132.307.305.595.514.855.148.188.308.367.478.536l.176.185.039.042c.12.127.232.26.337.4l.018.024.092.135-.125.152c-3.383 4.295-2.707 10.511 1.52 13.976 0 .105 0 .212-.015.32-.024.56-.06 1.148-.104 1.75a1.45 1.45 0 00-1.135-.39 1.208 1.208 0 00-.565.054c-.105.037-.214.06-.325.07-.424-.037-.821-.186-1.24-.141a1.393 1.393 0 00-1.167.415c-.818.763-3.676 1.755-5.059 1.842a.767.767 0 01-.298-.075.716.716 0 00-.454-.039c-.878-.191-3.285 1.522-3.84 2.554-.577 1.085-2.47 4.01-2.47 4.01s-1.648 2.003-1.397 3.085c.25 1.083-.57 2.336-1.562 2.838-.992.502-2.924 5.535-2.924 5.535s.556 6.682-1.672 7.858c-.558.299-.872.944-1.027 1.755a5.008 5.008 0 00.48 3.289c.156.714.32 1.196.32 1.196l.445-.108a5.354 5.354 0 001.998 1.385l-13.981.41c-.723-3.457-2.142-4.785-3.22-5.257 4.115-2.745-4.246-4.297-4.246-4.297l-15.158-.479c.556-.451.854-.99.768-1.512-.14-.859-1.267-1.42-2.712-1.448h-.152V125.587h-.036a.545.545 0 00.036-.194c0-.852-1.983-1.564-4.694-1.794h-.087l-.418-.03H130.849a17.916 17.916 0 00-4.53.535c-.364-1.142-2.857-2.446-2.857-2.446s-.407-2.473-1.792-3.113c-1.386-.64-1.625-2.798-1.511-3.857.054-.49-.896-1.875-2.073-3.205l-.57-3.442a5.161 5.161 0 00-.764-.825 6.06 6.06 0 00-.989-2.897 10.923 10.923 0 008.104-7.58 10.942 10.942 0 00-2.702-10.77l-.28-.272c1.057-.569 2.01-1.256 2.46-2.207.072-.151.12-.313.143-.479.15-1.12-.925-2.266-2.069-2.66-1.305-.45-2.765-.369-4.022-.943-2.153-.977-3.175-3.588-5.277-4.68-1.633-.845-3.583-.597-5.393-.217-2.655.574-5.704 1.922-6.098 4.628-.179 1.217.245 2.515-.185 3.67-1.105 2.953-6.16 1.952-7.848 4.616a5.926 5.926 0 00-.683 2.197l-1.724 10.023c-.238 1.379-.492 2.799-1.257 3.962-.797 1.217-2.045 2-3.377 2.628-1.242-1.656-3.168-2.251-4.751-2.44.04-.03.084-.058.128-.083 0 0-7.674-.796-10.604 2.176 0 0-.895 3.607 1.293 4.372.974.34 2.942 0 4.82-.46a18.143 18.143 0 00-.299 8.719c.248 1.175.616 2.392.254 3.546-.298.987-1.108 1.722-1.791 2.49a14.845 14.845 0 00-3.21 5.804c-.46 1.612-.562 3.567.624 4.745a3.45 3.45 0 001.967.898h-.032a10.5 10.5 0 002.738-.033c1.705-.192 3.55-.449 4.778-1.657.666-.66 1.075-1.534 1.466-2.392.822-1.778 1.641-3.557 2.458-5.337.233-.509.477-1.023.74-1.537a1327.66 1327.66 0 002.213 11.401h1.147l.185 3.07c-1.305.56-1.684 1.128-1.55 1.657-1.535 1.02-3.285 3.182-3.088 7.715-.436.06-.869.131-1.305.218-16.143 3.196-25.997 22.336-22.01 42.758 3.986 20.422 20.305 34.371 36.452 31.178 12.56-2.488 21.312-14.628 22.695-29.51 4.338 2.692 9.257 3.795 14.169 2.823a18.076 18.076 0 003.303-.987l.02 6.052-1.328 6.83c-5.474.065-9.881 5.382-9.855 11.936.027 6.554 4.504 11.892 10.013 11.874 5.51-.018 9.953-5.365 9.932-11.943-.018-4.868-2.478-9.045-5.99-10.878l-.227-.11c.514-4.147.848-7.72.848-7.72l-.027-7.84a22.115 22.115 0 006.617-7.123h.837s1.726.069 2.248 2.706c.221 1.121 2.09 6.07 4.157 11.386-.114.686-.17 1.38-.167 2.075 0 3.923 1.86 7.323 4.569 9.051l1.072 2.673-.403.207s.952 6.551 3.108 6.61c.896 1.388 2.479 3.571 3.446 3.212l6.925-1.549.23-.018 7.092-1.704s.738-.47 1.792-1.196l1.562 12.42 2.986.24 1.595-.37 2.042-.473 1.932-16.018c1.98-1.091 3.658-2.347 4.36-3.693 1.144-2.192-.917-3.289-3.458-3.767l.299-2.485a96.048 96.048 0 002.448-1.857 7.119 7.119 0 01-.209 1.136c-.409 1.337-1.81 3.173 1.998 3.995 3.807.822 6.373.06 6.537-.598.164-.658.982-3.337.298-4.832-.683-1.495-.928-5.415.299-7.666 1.227-2.252.394-5.753-.764-6.166-.77-.272-1.903-.762-2.577-1.064-.072-.09-.144-.183-.221-.276a5.604 5.604 0 011.791-1.572c1.983-1.005 1.562-3.253 1.562-3.253s2.07 0 3.55-2.512c1.037-1.755 2.237-3.51 2.861-4.784.129.804.275 1.794.359 2.655.173 1.776 2.272 19.044 3.216 20.485.943 1.441.188 6.877.188 6.877h3.034l-.248-8.33s-3.506-24.486-.645-26.995c.421-.37.833-.747 1.23-1.12l6.779 52.119 2.92.102 1.386.048-.427-51.466.343-26.223zm-82.974 37.974c-2.189-.098-4.479-.17-5.584-.2l-.02-5.944h-1.825a35.217 35.217 0 009.821-2.41 27.042 27.042 0 01-2.392 8.557v-.003zm-37.264 27.35L94.91 190.048l-.418-.547c.074-.194.143-.392.203-.598l.582.105 21.381 3.845.854.155c-.693 6.8-3.123 12.938-6.868 17.567l-.603-.792zm5.076-21.17l-19.553-2.352-.598-.07a7.727 7.727 0 00-1.033-3.322l.43-.418 6.701-6.578 7.254.482a32.855 32.855 0 006.787 12.259h.012zm-3.285-81.766a5.986 5.986 0 00-.537 1.824h-.039c.02-.214.06-.426.117-.634a7.46 7.46 0 01.456-1.19h.003zm50.715 40.731c.074-1.283.092-2.44.068-3.492l11.187.448 1.983 15.764c-1.26 1.166-2.118 1.985-2.118 2.051 0 .18-2.09 3.738-1.367 7.885a6.53 6.53 0 00-.454-.52c-.332-1.83-.636-3.143-.87-3.46-1.009-1.372-.358-9.12-.358-9.12s-1.773-5.002-4.052-6.662c-.513-.385-1.914-.73-3.798-1.028a15.355 15.355 0 00-.221-1.866zm22.262 43.302l-.798-6.67a248.51 248.51 0 004.522 3.925c-.843.778-2.327 2.07-3.724 2.745zm-61.184-45.999a1.585 1.585 0 00-.069-.126c.974-.152 1.792-.299 2.467-.475.262.18.51.38.74.598l-3.138.003zm60.76 5.6c-1.4 1.84-1.562 2.99-1.562 2.99l.355.078-2.547 2.303-1.323-11.111 6.226.25c-.34 2.778-.731 4.943-1.15 5.49zm-9.672 24.695c.943 1.083 2.114 2.297 3.395 3.55l.982 7.81-5.112-12.307c.227.329.473.645.735.947zm4.804 21.212c-.093.146-.205.28-.334.395-2.777-1.854-4.745-6.235-5.626-8.53.49-.35.785-.599.785-.599s-.316-2.691-.767-6.148a2264.068 2264.068 0 016.734 14.999c-.484-.075-.792-.117-.792-.117zm10.99-22.757s1.284-.317 2.956-.799l-.517 4.013c-1.51-1.962-2.44-3.223-2.44-3.223v.009zm22.097-71.616c-.097.06-.19.127-.277.2-.09-.22-.174-.45-.254-.681.101.14.222.266.358.374.058.039.12.072.185.098l-.012.01zm-25.833 27.62l.042-.102v.108l-.042-.006zm39.238 14.926l.94-.02-.038 3.623c-.269-1.112-.573-2.332-.89-3.612l-.012.01zm-65.794.203l-19.41.066a25.13 25.13 0 00-2.39-1.701l21.826.873c.008.275.003.526-.014.753l-.012.01zm-45.477-37.89c-.597.488-1.144.897-1.55 1.175a6.892 6.892 0 01-1.347-1.226l.135-.272a18.35 18.35 0 01.961-1.635l.251-.374h.43a4.094 4.094 0 011.308 2.204c-.066.037-.129.08-.188.128zm-26.279 46.03v-.054.053zm2.482 20.332a2.28 2.28 0 002.111 2.078l4.56.314-4.422 5.313-.386.464a6.407 6.407 0 00-2.454-1.54l.056-.646.535-5.983zm26.735 14.101a26.123 26.123 0 01-2.147-2.446l1.726-2.045a41.46 41.46 0 01.421 4.491zm-4.22-5.535a30.44 30.44 0 01-2.388-5.247l4.873.332c.212.711.41 1.435.598 2.168l-3.082 2.747zm18.572-5.477h1.377-1.377zm63.967 17.641c.188.147.358.3.51.41-.1.945-.187 2.55.204 3.713l.018.06-1.263.221.531-4.404zm30.677-24.282l-.254 22.632-3.195-20.997a213.9 213.9 0 013.45-1.635zm-70.28-33.994c.424-.162.807-.32 1.15-.476 1.35 1.175 2.063 2.868 2.419 4.563l-24.687.697-.06.942a20.23 20.23 0 00-3.882-1.196l-.113-.075c-1.619-1.026-3.984-2.392-6.03-3.573a4.84 4.84 0 00-.173-1.364.462.462 0 010-.054c.574-.218 1.141-.421 1.64-.598 1.36.57 2.823.854 4.297.835a11.653 11.653 0 002.478-.276l22.961.575zm-18.813-8.373c.944.063 1.66.452 1.756 1.032.06.374-.152.756-.546 1.08-.596-.19-1.206-.33-1.825-.416a6.22 6.22 0 00.463-1.696H137.58zm-55.946-19.597c-.295.07-.594.121-.896.153l-.062-.153c.319-.024.639-.024.958 0zm8.08 34.895l.183.092.361 6.01a24.908 24.908 0 00-2.63-.06c-.03-1.68.187-4.718 2.087-6.042zm-5.139 10.635c.275-.057.553-.101.83-.146l.762 10.635s.11 4.034 2.276 4.955v10.878a5.095 5.095 0 00-1.442.236l-.398-.553-13.244-18.539-.597-.828c3.222-3.376 7.23-5.732 11.813-6.638zm-1.836 29.796l-17.493-2.948-.854-.143c.51-6.363 2.532-12.182 5.718-16.787l.622.799 13.27 17.043.385.496a6.555 6.555 0 00-1.042 1.633l-.606-.093zm-18.46 1.196l.853.081 17.007 1.555.573.05c-.018.587.03 1.174.143 1.75a7.627 7.627 0 001.413 3.172l-.44.395-13.398 12.044-.663.598a40.928 40.928 0 01-4.718-12.684 42.58 42.58 0 01-.786-6.964l.015.003zm8.217 23.712l.598-.703 12.243-14.514.394-.466a5.86 5.86 0 003.222 1.127v.643l.08 23.759v1.058c-6.25-1.24-12.102-5.157-16.552-10.907l.015.003zm24.911 10.925a21.05 21.05 0 01-3.748.398l-.092-1.061-2.09-24.636-.06-.678c.499-.231.961-.533 1.373-.897l.362.52 14.074 20.23.597.84a21.929 21.929 0 01-10.43 5.281l.014.003zm22.809-38.601c-.051-.252-.102-.5-.156-.751l1.882-2.228 6.121.419.051 15.459a19.188 19.188 0 01-7.023-2.99 47.147 47.147 0 00-.875-9.91zm14.244 12.91c-.939.186-1.892.286-2.85.3l-1.271-14.969 4.933.458 3.064 4.404.03 8.495a16.11 16.11 0 01-3.906 1.313zm7.283-4.909l.624.897c-.203.182-.409.365-.621.538l-.003-1.435zm2.79-1.387l-.55-.715c.337.042.678.078 1.015.108-.146.206-.308.41-.466.607zm9.418.879s-1.285-3.738-3.793-4.913a31.353 31.353 0 002.252-10.19 38.095 38.095 0 002.878-1.597c.317 4.635 1.822 18.129 3.915 20.058a6.842 6.842 0 011.335 2.042 9.158 9.158 0 00-3.383 3.241l-3.204-8.641zm9.29 25.036c.248.03.499.045.75.047l-.619.3-.131-.347zm33.818-10.974l-2.024.17.09-.741c.719-.03 1.474-.075 2.006-.132v.763l-.072-.06z" fill="url(#a)" fill-rule="nonzero"/><path fill="#D4DFEC" fill-rule="nonzero" d="M112.896 150.618l11.937 15.483-1.225.485-15.248-2.628v3.31l15.907 1.515.566 2.963-12.516 11.2 2.22 3.117 13.126-15.484v24.541h3.572l-2.03-24.93 1.063 2.679 12.252 17.77 2.251-2.239-13.536-17.815-.967-1.272 1.448.584.145 1.023 18 3.31.259-3.121-18.766-2.326-.288-2.026 14.017-13.706-2.22-2.433-13.004 15.531-1.232-.706 2.077-22.494-3.308-.389-.095 23.03-.916-1.315-11.51-16.264z"/><path fill="#000" fill-rule="nonzero" opacity=".1" d="M112.896 150.618l11.937 15.483-1.225.485-15.248-2.628v3.31l15.907 1.515.566 2.963-12.516 11.2 2.22 3.117 13.126-15.484v24.541h3.572l-2.03-24.93 1.063 2.679 12.252 17.77 2.251-2.239-13.536-17.815-.967-1.272 1.448.584.145 1.023 18 3.31.259-3.121-18.766-2.326-.288-2.026 14.017-13.706-2.22-2.433-13.004 15.531-1.232-.706 2.077-22.494-3.308-.389-.095 23.03-.916-1.315-11.51-16.264z"/><path d="M151.623 164.215c-3.008-15.327-15.45-25.842-27.813-23.485-12.363 2.357-19.954 16.69-16.956 32.016 2.999 15.327 15.45 25.827 27.813 23.488 12.363-2.34 19.963-16.69 16.956-32.02zm-17.567 28.902c-10.974 2.078-22.026-7.243-24.687-20.848-2.662-13.606 4.078-26.332 15.052-28.425s22.026 7.244 24.688 20.852c2.661 13.608-4.082 26.331-15.056 28.421h.003z" fill="#65617D" fill-rule="nonzero"/><path d="M151.623 164.215c-3.008-15.327-15.45-25.842-27.813-23.485-12.363 2.357-19.954 16.69-16.956 32.016 2.999 15.327 15.45 25.827 27.813 23.488 12.363-2.34 19.963-16.69 16.956-32.02zm-17.567 28.902c-10.974 2.078-22.026-7.243-24.687-20.848-2.662-13.606 4.078-26.332 15.052-28.425s22.026 7.244 24.688 20.852c2.661 13.608-4.082 26.331-15.056 28.421h.003z" fill="#000" fill-rule="nonzero" opacity=".1"/><ellipse fill="#65617D" fill-rule="nonzero" transform="rotate(-10.93 127.766 168.931)" cx="127.766" cy="168.931" rx="4.651" ry="5.239"/><path d="M176.04 208.9v2.78s11.83-1.43 13.051-2.012c1.222-.583 8.549-5.885 8.549-6.258 0-.374-1.027-1.09-1.027-1.09l-13.432 1.09-7.141 5.49z" fill="#3F3D56" fill-rule="nonzero"/><path d="M176.04 208.9v2.78s11.83-1.43 13.051-2.012c1.222-.583 8.549-5.885 8.549-6.258 0-.374-1.027-1.09-1.027-1.09l-13.432 1.09-7.141 5.49z" fill="#000" fill-rule="nonzero" opacity=".1"/><path d="M177.15 213.899h.981s12.075-3.102 11.574-.381c-.501 2.721-8.6 7.652-8.6 7.652l-7.176 1.652-4.83.378-2.876-.836-1.703-2.263 12.63-6.202z" fill="#3F3D56" fill-rule="nonzero"/><path d="M192.6 198.848l4.472-.848s1.085 3.069.256 3.3c-.829.23-4.725.3-4.725.3l-.003-2.752zM149.227 164.88h18.893v21.6h-2.926v-19.051l-17.234-.721zM157.487 134.649s5.628-.827 4.787 13.671l-2.363-1.77s1.511-9.497-4.031-11.901h1.607z" fill="#D4DFEC" fill-rule="nonzero"/><path d="M160.905 145.44H118.44l2.18 10.879 41.825 2.801s2.18-13.107-1.54-13.68z" fill="#3F3D56" fill-rule="nonzero"/><path d="M84.544 112.223s.867-4.494-4.222-3.866c-5.09.627-1.984-3.879-1.984-3.879s8.542-1.317 8.42 6.846c-.12 8.162-2.214.899-2.214.899zM109.803 104.241s5.378-.902 5.503 4.479h1.664s.897-6.115-7.17-6.48l.003 2.001zM88.92 134.357l1.31 22.603 1.57-.9V133.2zM118.44 128.01l2.231 15.27 2.089-1.235-2.16-15.325z" fill="#D4DFEC" fill-rule="nonzero"/><path d="M120.6 135.504s3.832-3.025 7.41-2.143l.51.992s-7.025 2.16-7.282 3.167l-.638-2.016z" fill="#D4DFEC" fill-rule="nonzero"/><path d="M87.982 111.513s-4.462-1.152-4.079 2.685c.384 3.837 4.079 22.62 4.079 22.62h3.822v19.422l28.796-8.115-2.038-18.336h2.038l-3.439-21.086s-1.529-2.172-2.802-1.149a27.549 27.549 0 01-2.294 1.659l-24.083 2.3zM70.383 106.549s-.896 3.453 1.28 4.193c2.178.74 9.337-1.727 9.337-1.727s-1.917-3.482 0-4.515c0 0-7.676-.786-10.617 2.049zM101.672 103.479s-1.658 4.129.992 3.78c2.65-.349 8.576-1.879 8.576-1.879s-1.007-3.371 0-3.86c0 0-7.305.243-9.568 1.959zM121.206 149.04L93.24 159.572l4.531 8.188 24.989-9.36zM132.701 130.32l22.11.793s10.922 2.118 1.668 5.687l-28.147-.818s-8.354-4.869 4.37-5.662zM119.33 162c.322.199 42.838 2.781 42.838 2.781l.192 1.477s-11.319 12.655-29.716 10.646c-18.398-2.01-18.524-2.58-18.524-2.58L119.33 162z" fill="#3F3D56" fill-rule="nonzero"/><path d="M119.33 162c.322.199 42.838 2.781 42.838 2.781l.192 1.477s-11.319 12.655-29.716 10.646c-18.398-2.01-18.524-2.58-18.524-2.58L119.33 162z" fill="#000" fill-rule="nonzero" opacity=".1"/><path fill="#D4DFEC" fill-rule="nonzero" d="M130.728 176.4h10.752v25.2h-3.433v-22.228l-8.807-.84z"/><path d="M147.24 219.957c0 6.564-4.526 11.883-10.082 11.883-5.555 0-10.078-5.32-10.078-11.883 0-6.564 4.526-11.877 10.081-11.877h.2a8.746 8.746 0 013.865 1.001c3.54 1.845 6.014 6.021 6.014 10.876z" fill="#65617D" fill-rule="nonzero"/><path d="M140.76 209.07c-.72 5.442-1.791 12.011-2.801 12.599-1.755 1.014-3.806 1.586-3.673-1.462l2.517-12.127a9.2 9.2 0 013.957.99z" fill="#000" fill-rule="nonzero" opacity=".1"/><path d="M134.286 220.195l3.767-18.595h3.427s-1.882 19.042-3.603 20.063c-1.721 1.02-3.719 1.599-3.591-1.468z" fill="#D4DFEC" fill-rule="nonzero"/><ellipse fill="#65617D" fill-rule="nonzero" cx="163.8" cy="203.04" rx="8.64" ry="10.08"/><path d="M161.645 202.508l3.384-16.028h3.091s-1.692 16.412-3.236 17.295c-1.544.884-3.355 1.375-3.239-1.267zM140.508 182.88s-2.672 2.17 0 3.255 8.14.948 8.14.948 1.716.075 2.224 2.683c.508 2.609 9.984 26.234 9.984 26.234l2.224-1.15-9.73-26.434s-1.715-5.041-5.085-5.235c-3.37-.194-7.757-.301-7.757-.301zM162.36 220.517s2.789 4.574 4.245 4.087c1.457-.487.465-2.99.465-2.99l-2.677-2.014-2.033.917zM173.88 218.21l5.188-1.49s2.465 3.439.585 4.348c-1.881.909-5.773 1.412-5.773 1.412v-4.27z" fill="#D4DFEC" fill-rule="nonzero"/><path d="M160.2 214.502s.936 6.481 3.11 6.538c2.174.056 14.89-7.299 14.89-7.299s-2-6.746-3.159-6.366c-1.159.38-14.841 7.127-14.841 7.127z" fill="#3F3D56" fill-rule="nonzero"/><path d="M164.52 219.896l10.955-1.736s-1.158 3.38.565 4.521l-9.338 1.959-2.182-4.744z" fill="#3F3D56" fill-rule="nonzero"/><path d="M183.096 196.56s-9.281 5.262-9.216 5.68c.066.419 1.47 7.214 2.433 7.28.962.065 9.087-6.915 9.087-6.915l-2.304-6.045z" fill="#FFB030" fill-rule="nonzero"/><path d="M183.365 200.718l9.956-1.998s-.067 3.431.719 3.903l-10.8 1.857.125-3.762z" fill="#3F3D56" fill-rule="nonzero"/><path d="M160.954 168.474s-.232 1.836.512 1.901c.743.065 5.413-.76 6.56.822 1.149 1.582 12.995 28.243 12.995 28.243l2.219-1.46-11.16-26.783s-3.928-5.32-11.126-2.723z" fill="#D4DFEC" fill-rule="nonzero"/><path d="M97.56 107.104l.448.481 8.021 8.642 1.45 1.561 1.446.445 6.522 2.007s-1.123-7.946-3.433-9.555a1.13 1.13 0 01-.474-.798 2.733 2.733 0 01.11-1.101 7.936 7.936 0 01.607-1.479 18.28 18.28 0 01.96-1.621l.25-.37a39.674 39.674 0 012.813-3.607s-1.417-1.195-3.19-2.565c-3.115-2.416-7.325-5.4-6.865-3.503.234.959-.593 2.487-1.779 4.12-.047.063-.095.13-.145.192a45.375 45.375 0 01-3.234 3.714 74.672 74.672 0 01-3.507 3.437zM173.114 187.2s2.86 9.333 7.582 10.694c4.721 1.36 10.595-.204 10.595-.204s1.69 4.695-.657 5.834c-2.347 1.138-10.75-.249-12.39.3-1.64.548-5.919 2.816-5.919 2.816s-1.108-4.29-.98-6.31c.13-2.02-1.785-11.58-1.785-11.58l3.554-1.55z" fill="#C37098" fill-rule="nonzero"/><path d="M175.614 199.852s3.316-3.1 3.337-3.292c0 0 5.695.95 7.053.813 1.359-.136 11.055-.683 8.25 3.457-2.807 4.139-19.28 6.502-19.468 6.53-.186.027-2.722-2.049-2.298-3.945.424-1.897 1.453-3.608 3.126-3.563z" fill="#FFB030" fill-rule="nonzero"/><path d="M124.44 149.04l4.852 1.762s6.246.516 11.501-.968c5.256-1.483 23.2-.3 25.476 1.349 2.275 1.648 4.012 6.66 4.012 6.66s-.672 7.723.327 9.096c1 1.372 3.272 21.35 3.272 21.35s-4.39 3.57-7.62 3.205c-3.23-.366-9.994-29.483-9.994-29.483l-33.506-4.816 1.68-8.155z" fill="#65617D" fill-rule="nonzero"/><path d="M163.8 202.087l3.143 3.972 2.484 3.146s.54 2.216 1.34 4.523c.82 2.37 1.907 4.825 2.946 5.088 2.086.525 13.847-2.37 13.847-2.37s-.778-6.22-7.135-7.7a7.366 7.366 0 01-1.026-.32c-3.682-1.434-5.86-5.512-6.879-8.119-.527-1.353-.742-2.31-.698-2.307l-8.022 4.087z" fill="#C37098" fill-rule="nonzero"/><path d="M171 213.557c.843 2.448 1.961 4.985 3.032 5.257 2.146.542 14.248-2.448 14.248-2.448s-.8-6.426-7.343-7.956a7.557 7.557 0 01-1.054-.33c-1.725 1.634-7.598 4.795-8.883 5.477z" fill="#000" fill-rule="nonzero" opacity=".1"/><path d="M170.455 214.268s9.437-4.932 9.53-6.188c0 0 5.778.848 7.576.395 1.799-.452 12.038-.365 9.747 3.964-2.291 4.329-14.713 7.715-14.713 7.715s-11.557 1.356-12.068.713c-.51-.643-.072-6.599-.072-6.599z" fill="#FFB030" fill-rule="nonzero"/><path d="M124.2 131.599s.778.377 1.994.884c3.893 1.646 12.292 4.718 14.175 1.395 2.471-4.35-7.54-4.423-8.673-3.783-.596.333-1.681 0-2.578-.425-.508-.233-1-.497-1.476-.79l-3.442 2.719z" fill="#C37098" fill-rule="nonzero"/><path d="M104.04 100.03a10.955 10.955 0 009.116 5.81 39.406 39.406 0 013.124-4.035s-10.991-9.175-10.256-6.155c.238 1.015-.669 2.65-1.984 4.38z" fill="#000" fill-rule="nonzero" opacity=".1"/><path d="M102.67 93.106a10.782 10.782 0 009.52 11.942c.282.033.565.054.845.066 5.85.198 10.793-4.301 11.145-10.145.352-5.843-4.016-10.903-9.848-11.408-5.831-.505-11.004 3.728-11.662 9.545z" fill="#C37098" fill-rule="nonzero"/><path d="M124.2 131.596s.797.377 2.043.884c.984-1.214 2.307-2.227 2.997-2.81a14.323 14.323 0 01-1.512-.79l-3.528 2.716zM111.24 108.72c.18-.463.422-.911.72-1.337l-.109-.103c-.293.455-.499.94-.611 1.44zM96.84 107.112l9.985 10.678 8.015 2.45s-1.131-7.941-3.456-9.55a1.128 1.128 0 01-.477-.797c-.104 3.781 2.387 7.861 2.387 7.861s-.773 0-1.73-2.605c-.958-2.606-7.595-9.64-8.747-10.54-.415-.326-1.283-.687-2.447-.929a75.689 75.689 0 01-3.53 3.432z" fill="#000" fill-rule="nonzero" opacity=".1"/><path d="M111.542 107.497s1.408 1.745 2.678 1.694c1.27-.051 5.84 5.125 5.716 6.18-.123 1.054.123 3.22 1.504 3.86 1.381.64 1.787 3.116 1.787 3.116s3.31 1.734 2.877 2.947c-.434 1.214 2.533 3.395 3.099 3.557.565.163-5.473 3.657-4.495 7.067.977 3.41-2.546 7.874-1.556 9.442.99 1.569 4.378 12.39 3.054 12.919-1.324.529-32.493-.847-32.493-.847s1.089-14.298.123-16.933-1.387-18.708-2.106-21.03c-.719-2.322-4.492-12.745.301-14.721 4.793-1.977 9.522-.773 10.684.138 1.16.91 7.852 7.973 8.818 10.608.966 2.635 1.745 2.626 1.745 2.626s-3.87-6.396-1.736-10.623z" fill="#FFB030" fill-rule="nonzero"/><path d="M126.194 153.65s14.294-.084 15.015-.437c.721-.354 16.127-1.67 20.675 1.496 4.549 3.168 6.68 10.089 6.68 10.089l.989 12.693 3.607 21.653s-6.15 9.023-8.618 6.245c-.86-.967-2.904-11.651-5.369-13.912-2.465-2.26-4.058-20.356-3.929-21.491 0 0-2.248-.736-3.908.093-1.659.829-26.417.706-26.558.688-.141-.018-7.058-16.18-7.058-16.18l8.474-.937z" fill="#000" fill-rule="nonzero" opacity=".1"/><path d="M163.8 202.011l3.112 3.909c2.112-1.125 4.592-4.358 5.528-5.65-.522-1.331-.735-2.273-.691-2.27l-7.949 4.011z" fill="#000" fill-rule="nonzero" opacity=".1"/><path d="M126.186 153.653s14.296-.087 15.018-.44c.721-.354 16.13-1.67 20.679 1.497 4.548 3.167 6.68 10.092 6.68 10.092l.99 12.695 3.607 21.652s-6.157 9.018-8.632 6.24c-.863-.968-2.904-11.65-5.37-13.914-2.465-2.263-4.058-20.358-3.929-21.493 0 0-2.249-.737-3.908.093-1.66.829-26.4.703-26.545.703-.144 0-7.056-16.185-7.056-16.185l8.466-.94z" fill="#65617D" fill-rule="nonzero"/><path d="M93.352 120.669c1.414 0 2.856.34 4.285.285 3.248-.117 5.904-2.165 8.175-4.652.335-.364.665-.742.983-1.124.562-.672 1.1-1.357 1.617-2.033.472-.619.974-1.325.891-2.102-.053-.514-.36-.959-.573-1.427-.752-1.661-.297-3.55.564-5.211.252-.483.534-.949.847-1.394.906-1.297 1.976-2.532 2.755-3.904a8.118 8.118 0 00.867-2.103c.28-1.123.262-2.3.49-3.436a7.854 7.854 0 013.988-5.331c.853-.466 2.012-.901 3.079-1.469a10.702 10.702 0 00-14.154-1.067c-4.317 3.274-5.577 9.27-2.947 14.033-.048.063-.095.13-.146.193a45.598 45.598 0 01-3.236 3.742c-1.863 1.961-3.515 3.46-3.515 3.46l.449.484c-1.991.774-3.168 2.796-3.967 4.358-.592 1.15-.672 4.685-.452 8.698z" fill="#000" fill-rule="nonzero" opacity=".1"/><path d="M89.85 141.12s-6.352.776-5.082 10.127l.89 12.893s.127 5.182 3.305 5.058c3.177-.124-1.739-18.709-1.739-18.709s-.804-6.572 3.136-7.584l-.51-1.785zM132.783 177.12h-2.155l-.34-22.169-.039-2.426s-2.282-7.64-6.079-8.159c-3.796-.518 1.275-1.806 1.275-1.806s7.211 2.255 7.338 9.962c.128 7.706 0 24.598 0 24.598z" fill="#D4DFEC" fill-rule="nonzero"/><path d="M94.198 138.96l25.941.988s17.296 3.579 2.194 5.492l-30.717-1.297s-10.842-3.085 2.582-5.183z" fill="#3F3D56" fill-rule="nonzero"/><path d="M132.12 157.013v19.122c0 .34-.066.677-.193.985h-.943l-.304-22.32c.854.292 1.44 1.192 1.44 2.213z" fill="#000" fill-rule="nonzero" opacity=".1"/><path d="M93.486 152.645l36.516 2.37a2.28 2.28 0 012.118 2.285v18.97c0 .636-.261 1.243-.72 1.676a2.248 2.248 0 01-1.704.608L93.18 175.91a2.276 2.276 0 01-2.1-2.284v-18.693c0-.633.258-1.238.714-1.67a2.248 2.248 0 011.692-.617z" fill="#3F3D56" fill-rule="nonzero"/><path fill="#D4DFEC" fill-rule="nonzero" d="M118.44 189.465l-.344 4.105-1.705-.31-21.411-3.902-.781-.14-.192-1.346-1.92-.769 1.28 1.672 1.242 1.617 15.094 19.679 1.636 2.131-2.989 2.948-1.483-2.132-14.044-20.183-.736-1.056-1.409-3.522.46 5.627 2.014 24.516.215 2.64h-4.74v-32.271l-3.644 4.254-12.318 14.396-1.463 1.71-2.95-4.096 1.762-1.564 13.47-11.935 1.388-1.229-.754-3.901-2.312-.216-17.035-1.605-1.771-.167v-4.357l1.9.326 17.52 2.993.825.14 1.627-.64-1.181-1.515-13.237-17.012-1.43-1.835 2.627-3.427 1.453 2.036 13.21 18.492.616.861 1.215 1.728.011-2.909.108-24.887.01-2.49 4.387.511-.218 2.35-2.31 24.815-.224 2.419 1.634.927 1.37-1.624 14.65-17.331 1.242-1.471 2.95 3.202-1.658 1.602-16.009 15.505-.945.918.383 2.66 1.738.216 21.348 2.622z"/><path d="M116.613 189.242a39.365 39.365 0 01-.219 4.015l1.702.3.344-4.102-1.827-.213zm-9.048-25.253a33.324 33.324 0 012.533 3.334l1.657-1.606-2.946-3.199-1.244 1.471zm-.697 49.03l1.496 2.131 2.99-2.944-1.636-2.132a24.272 24.272 0 01-2.85 2.942v.003zm-18.245 4.957v3.064h4.753l-.215-2.64a21.086 21.086 0 01-4.532-.427l-.006.003zm4.038-65.539l-4.37-.517v2.49a21.245 21.245 0 014.188.371l.182-2.344zm-23.628 10.084l1.43 1.836a25.788 25.788 0 012.646-3.217l-1.453-2.039-2.623 3.42zm-.78 42.51l2.945 4.098 1.463-1.71a34.977 34.977 0 01-2.65-3.949l-1.759 1.56zM63 180.06v4.353l1.768.168a38.232 38.232 0 01.131-4.186L63 180.061z" fill="#000" fill-rule="nonzero" opacity=".1"/><path d="M119.74 180.488c-3.934-20.246-20.28-34.123-36.507-31.012-16.227 3.111-26.19 22.032-22.254 42.279 3.937 20.246 20.28 34.111 36.507 31.012 16.227-3.1 26.193-22.039 22.254-42.279zm-23.057 38.164c-14.392 2.763-28.913-9.563-32.406-27.529-3.493-17.965 5.352-34.772 19.756-37.532 14.404-2.76 28.919 9.563 32.409 27.528 3.49 17.966-5.35 34.773-19.756 37.533h-.003z" fill="#65617D" fill-rule="nonzero"/><path d="M94.107 187.895l-1.953-.772 1.302 1.677 1.262 1.627a7.041 7.041 0 01-1.825 2.46l-.748-1.065-1.42-3.542.468 5.659a6.147 6.147 0 01-2.556.457v-5.602l-3.692 4.282a7.477 7.477 0 01-1.521-1.503l1.411-1.236-.764-3.909-2.351-.22a7.857 7.857 0 01.608-2.826l.84.141 1.655-.643-1.202-1.524a6.314 6.314 0 012.668-1.756l.627.865 1.238 1.738v-2.922a6.196 6.196 0 012.01.3l-.228 2.433 1.661.932 1.397-1.63a7.87 7.87 0 011.192 1.504l-.961.92.392 2.679 1.765.213a8.106 8.106 0 01-.29 2.758l-.79-.142-.195-1.353z" fill="#000" fill-rule="nonzero" opacity=".1"/><ellipse fill="#65617D" fill-rule="nonzero" transform="rotate(-10.93 88.553 186.584)" cx="88.553" cy="186.584" rx="6.124" ry="6.899"/><path d="M137.88 132.498c0 1.788-3.061 3.582-6.839 3.582-3.777 0-6.841-1.794-6.841-3.582 0-1.787 3.061-2.898 6.841-2.898 3.78 0 6.839 1.108 6.839 2.898z" fill="#E8EAF2" fill-rule="nonzero"/><path d="M137.88 132.498c0 1.788-3.061 3.582-6.839 3.582-3.777 0-6.841-1.794-6.841-3.582 0-1.787 3.061-2.898 6.841-2.898 3.78 0 6.839 1.108 6.839 2.898z" fill="#000" fill-rule="nonzero" opacity=".1"/><ellipse fill="#E8EAF2" fill-rule="nonzero" cx="131.04" cy="132.84" rx="6.84" ry="3.24"/><ellipse fill="#000" fill-rule="nonzero" opacity=".05" cx="131.04" cy="132.84" rx="3.96" ry="1.8"/><path d="M140.027 128.989c-.14-.912-1.28-1.516-2.74-1.548a6.12 6.12 0 00-1.163.087c-1.978.335-3.443 1.537-3.27 2.682.139.904 1.258 1.502 2.698 1.547a6.02 6.02 0 001.21-.083c1.967-.34 3.431-1.547 3.265-2.685zm-3.367 2.097a4.302 4.302 0 01-.626.06c-1.147.032-2.067-.412-2.173-1.109-.124-.821.926-1.681 2.345-1.918a4.473 4.473 0 011.02-.051c.956.067 1.685.486 1.779 1.1.114.815-.926 1.675-2.345 1.918z" fill="#65617D" fill-rule="nonzero"/><path d="M134.28 132.48a.75.75 0 01-.17.458c-.43.57-1.642.982-3.07.982-1.33 0-2.473-.357-2.973-.866a.829.829 0 01-.267-.574c0-.796 1.452-1.44 3.24-1.44 1.788 0 3.24.644 3.24 1.44z" fill="#65617D" fill-rule="nonzero"/><path d="M134.28 132.264a.584.584 0 01-.17.389c-.857.36-1.8.548-2.755.547h-.779a7.167 7.167 0 01-2.51-.449.666.666 0 01-.266-.487c0-.677 1.452-1.224 3.24-1.224 1.788 0 3.24.547 3.24 1.224zM137.88 127.442c0 .208-.024.417-.05.622a4.216 4.216 0 00-.99.05c-1.38.244-2.4 1.106-2.279 1.923.103.698.997 1.143 2.11 1.111-.146.215-.305.42-.475.612-1.4-.045-2.487-.64-2.623-1.55-.167-1.147 1.256-2.351 3.178-2.688.373-.063.751-.09 1.129-.08z" fill="#000" fill-rule="nonzero" opacity=".1"/><path d="M124.2 126v.897c0 3.481 2.731 6.303 6.1 6.303h.76c3.369 0 6.1-2.822 6.1-6.303V126H124.2z" fill="#65617D" fill-rule="nonzero"/><ellipse fill="#65617D" fill-rule="nonzero" cx="130.68" cy="126.36" rx="6.48" ry="1.8"/><ellipse fill="#000" fill-rule="nonzero" opacity=".1" cx="131.04" cy="125.64" rx="6.12" ry="1.8"/><ellipse fill="#FDF9F9" fill-rule="nonzero" cx="131.04" cy="125.64" rx="6.12" ry="1.8"/><path d="M126.72 126.72a.36.36 0 110-.72.36.36 0 010 .72zm0-.583c-.123 0-.223.1-.223.223a.23.23 0 00.223.23.236.236 0 00.23-.23.23.23 0 00-.23-.223z" fill="#42312E" fill-rule="nonzero" opacity=".3"/><path d="M126.726 126a.36.36 0 11-.012-.72.36.36 0 01.012.72zm0-.584a.236.236 0 00-.23.23.23.23 0 00.23.224c.124 0 .224-.1.224-.224a.23.23 0 00-.224-.217v-.013z" fill="#42312E" fill-rule="nonzero" opacity=".3"/><path d="M126.72 126a.36.36 0 110-.72.36.36 0 010 .72zm0-.583a.23.23 0 10.075.453.23.23 0 00-.075-.453zM128.166 126.72a.36.36 0 11.354-.354.354.354 0 01-.354.354zm0-.584a.23.23 0 00-.223.23.223.223 0 10.447 0 .23.23 0 00-.224-.23zM133.2 126.72a.36.36 0 110-.72.36.36 0 010 .72zm0-.583a.23.23 0 00-.23.23.23.23 0 00.453 0 .23.23 0 00-.223-.23zM133.92 127.44a.36.36 0 01-.36-.36.366.366 0 01.36-.36.36.36 0 01.36.36.354.354 0 01-.36.36zm0-.587a.227.227 0 00-.227.227c0 .127.1.23.227.234a.24.24 0 00.234-.234.234.234 0 00-.234-.227z" fill="#42312E" fill-rule="nonzero" opacity=".3"/><path d="M133.914 126.72a.354.354 0 01-.354-.354.36.36 0 11.354.354zm0-.577c-.124 0-.224.1-.224.223a.23.23 0 00.224.23.236.236 0 00.23-.23.23.23 0 00-.23-.223zM134.646 125.28a.36.36 0 11.354-.354.354.354 0 01-.354.354zm0-.584a.23.23 0 00-.223.23.223.223 0 10.447 0 .23.23 0 00-.224-.23z" fill="#42312E" fill-rule="nonzero" opacity=".3"/><path d="M134.64 126.72c-.206-.024-.36-.178-.36-.36s.154-.336.36-.36c.206.024.36.178.36.36s-.154.336-.36.36zm0-.589c-.144.004-.26.106-.264.232.004.126.12.226.264.226.142 0 .257-.101.257-.226s-.114-.228-.257-.232z" fill="#42312E" fill-rule="nonzero" opacity=".3"/><path d="M134.634 126.72a.354.354 0 01-.354-.354.36.36 0 11.354.354zm0-.577c-.124 0-.224.1-.224.223a.23.23 0 00.224.23.236.236 0 00.205-.217.23.23 0 00-.205-.236z" fill="#42312E" fill-rule="nonzero" opacity=".3"/><path d="M134.646 126.72a.36.36 0 11-.012-.72.36.36 0 01.012.72zm0-.584a.23.23 0 10.224.224.223.223 0 00-.224-.205v-.019z" fill="#42312E" fill-rule="nonzero" opacity=".3"/><path d="M134.634 126a.36.36 0 11.012-.72.36.36 0 01-.012.72zm0-.587a.227.227 0 10.012.454.227.227 0 00-.012-.454z" fill="#42312E" fill-rule="nonzero" opacity=".3"/><path d="M135.36 126a.354.354 0 01-.36-.36.36.36 0 01.36-.36.366.366 0 01.36.36.36.36 0 01-.36.36zm0-.587c-.127 0-.23.1-.234.227a.24.24 0 00.234.234.234.234 0 00.227-.234.227.227 0 00-.227-.227zM133.203 125.28a.345.345 0 01-.256-.11.396.396 0 01-.107-.272.372.372 0 01.36-.338c.182 0 .336.144.36.338 0 .21-.16.382-.357.382zm0-.623a.218.218 0 00-.163.068.25.25 0 00-.069.173.255.255 0 00.102.248.219.219 0 00.254 0 .255.255 0 00.102-.248c0-.133-.101-.241-.226-.241z" fill="#42312E" fill-rule="nonzero" opacity=".3"/><path d="M132.48 125.28c-.206-.024-.36-.178-.36-.36s.154-.336.36-.36c.206.024.36.178.36.36s-.154.336-.36.36zm0-.589c-.128.019-.221.116-.221.229s.093.21.221.229a.28.28 0 00.265-.102.208.208 0 000-.254.28.28 0 00-.265-.102zM131.04 125.28a.36.36 0 01-.36-.36.354.354 0 01.36-.36.36.36 0 01.36.36.366.366 0 01-.36.36zm0-.594a.24.24 0 00-.234.234.234.234 0 00.234.227.227.227 0 00.227-.227c0-.127-.1-.23-.227-.234zM131.76 126.72a.36.36 0 110-.72.36.36 0 010 .72zm0-.583a.236.236 0 00-.23.23.23.23 0 00.23.223c.123 0 .223-.1.223-.224a.23.23 0 00-.223-.23zM127.443 126.72a.345.345 0 01-.256-.11.396.396 0 01-.107-.272.372.372 0 01.36-.338c.182 0 .336.144.36.338 0 .21-.16.382-.357.382zm0-.623a.218.218 0 00-.163.068.25.25 0 00-.069.173.255.255 0 00.102.248.219.219 0 00.254 0 .255.255 0 00.102-.248.251.251 0 00-.062-.18.219.219 0 00-.164-.075v.014z" fill="#42312E" fill-rule="nonzero" opacity=".3"/><path d="M128.166 126.72a.36.36 0 11-.012-.72.36.36 0 01.012.72zm0-.584a.23.23 0 10-.075.454.23.23 0 00.075-.454z" fill="#42312E" fill-rule="nonzero" opacity=".3"/><path d="M128.883 126.72a.345.345 0 01-.256-.11.396.396 0 01-.107-.272.372.372 0 01.36-.338c.182 0 .336.144.36.338 0 .21-.16.382-.357.382zm0-.623a.218.218 0 00-.163.068.25.25 0 00-.069.173.255.255 0 00.102.248.219.219 0 00.254 0 .255.255 0 00.102-.248.25.25 0 00-.067-.17.218.218 0 00-.159-.071z" fill="#42312E" fill-rule="nonzero" opacity=".3"/><path d="M128.88 126a.36.36 0 11.36-.36.354.354 0 01-.36.36zm0-.587a.227.227 0 10.227.227.227.227 0 00-.227-.208v-.02z" fill="#42312E" fill-rule="nonzero" opacity=".3"/><path d="M128.88 126c-.206-.024-.36-.178-.36-.36s.154-.336.36-.36c.206.024.36.178.36.36s-.154.336-.36.36zm0-.589c-.128.019-.221.116-.221.229s.093.21.221.229a.28.28 0 00.265-.102.208.208 0 000-.254.28.28 0 00-.265-.102zM128.88 127.44a.36.36 0 110-.72.36.36 0 010 .72zm0-.583a.23.23 0 10.075.453.23.23 0 00-.075-.453zM131.04 127.44a.36.36 0 110-.72.36.36 0 010 .72zm0-.583a.23.23 0 00-.224.23.23.23 0 00.454 0 .23.23 0 00-.23-.23zM130.326 126.72a.36.36 0 11-.012-.72.36.36 0 01.012.72zm0-.584a.23.23 0 10-.075.454.23.23 0 00.075-.454z" fill="#42312E" fill-rule="nonzero" opacity=".3"/><path d="M129.6 126.72a.366.366 0 01-.36-.36.36.36 0 01.36-.36.354.354 0 01.36.36.36.36 0 01-.36.36zm0-.594a.234.234 0 00-.227.234.227.227 0 00.227.227c.127 0 .23-.1.234-.227a.24.24 0 00-.234-.234zM131.766 126a.36.36 0 11-.012-.72.36.36 0 01.012.72zm0-.584a.23.23 0 10-.075.454.23.23 0 00.075-.454zM131.034 126.72a.354.354 0 01-.354-.354.36.36 0 11.354.354zm0-.577c-.124 0-.224.1-.224.223a.23.23 0 10.453 0 .223.223 0 00-.23-.223z" fill="#42312E" fill-rule="nonzero" opacity=".3"/><path d="M131.766 125.28a.36.36 0 11.354-.36.354.354 0 01-.354.36zm0-.584a.223.223 0 100 .447.223.223 0 000-.447z" fill="#42312E" fill-rule="nonzero" opacity=".3"/><path d="M131.76 125.28a.36.36 0 110-.72.36.36 0 010 .72zm0-.583a.23.23 0 00-.23.23.23.23 0 00.453 0 .23.23 0 00-.223-.23z" fill="#42312E" fill-rule="nonzero" opacity=".3"/><path d="M131.04 125.28c-.206-.024-.36-.178-.36-.36s.154-.336.36-.36c.206.024.36.178.36.36s-.154.336-.36.36zm0-.589c-.144.004-.26.106-.264.232.004.126.12.226.264.226.142 0 .257-.101.257-.226s-.114-.228-.257-.232zM130.32 126.72a.36.36 0 110-.72.36.36 0 010 .72zm0-.583a.23.23 0 10.075.453.23.23 0 00-.075-.453zM129.606 126a.36.36 0 11.354-.354.354.354 0 01-.354.354zm0-.584a.23.23 0 10.075.454.23.23 0 00-.075-.454z" fill="#42312E" fill-rule="nonzero" opacity=".3"/><path d="M130.32 125.28a.36.36 0 110-.72.36.36 0 010 .72zm0-.583a.236.236 0 00-.23.23.23.23 0 00.23.223c.123 0 .223-.1.223-.224a.23.23 0 00-.223-.267v.038zM129.5 125.806a.266.266 0 01-.26-.267.26.26 0 01.26-.259c.144 0 .262.115.266.26a.274.274 0 01-.267.266zm0-.432a.166.166 0 100 .33.166.166 0 000-.33z" fill="#42312E" fill-rule="nonzero" opacity=".3"/><path d="M129.5 125.798a.26.26 0 110-.518.26.26 0 010 .518zm0-.424a.166.166 0 100 .33.166.166 0 000-.33zM130.94 125.078a.26.26 0 110-.518.26.26 0 010 .518zm0-.432a.173.173 0 10.165.173.166.166 0 00-.166-.173zM131.666 126.526a.274.274 0 01-.266-.267.266.266 0 01.266-.259.26.26 0 01.26.26.266.266 0 01-.26.266zm0-.432a.166.166 0 100 .33.166.166 0 000-.33z" fill="#42312E" fill-rule="nonzero" opacity=".3"/><path d="M131.66 126.49a.266.266 0 01-.26-.267.266.266 0 01.526 0c0 .147-.12.266-.267.266zm0-.433a.166.166 0 10.014.331.166.166 0 00-.015-.33z" fill="#42312E" fill-rule="nonzero" opacity=".3"/><path d="M131.666 126.526a.266.266 0 01-.266-.26.274.274 0 01.266-.266c.145.004.26.122.26.266a.26.26 0 01-.26.26zm0-.425a.166.166 0 100 .331.166.166 0 000-.331zM133.783 125.09a.266.266 0 11.087-.526.266.266 0 01-.087.525zm0-.433a.173.173 0 10.07.339.173.173 0 00-.07-.339zM133.83 125.85a.26.26 0 01-.266-.26.266.266 0 11.525 0 .26.26 0 01-.259.26zm0-.426a.166.166 0 00-.173.166.173.173 0 10.305-.141.166.166 0 00-.132-.06v.035z" fill="#42312E" fill-rule="nonzero" opacity=".3"/><path d="M133.82 125.806a.266.266 0 01-.26-.267.26.26 0 01.26-.259c.144 0 .262.115.266.26a.274.274 0 01-.267.266zm0-.432a.166.166 0 100 .33.166.166 0 000-.33zM133.106 126.526a.266.266 0 01-.266-.26.274.274 0 01.266-.266c.145.004.26.122.26.266a.26.26 0 01-.26.26zm0-.432a.173.173 0 10-.07.338.173.173 0 00.07-.338zM135.26 125.806a.26.26 0 01-.26-.26c0-.144.115-.262.26-.266.145.004.262.12.266.266a.266.266 0 01-.267.26zm0-.425a.166.166 0 10.165.165.166.166 0 00-.166-.172v.007zM132.38 126.526a.26.26 0 01-.26-.26c0-.144.115-.262.26-.266.145.004.262.12.266.266a.266.266 0 01-.267.26zm0-.425a.166.166 0 10.014.33.166.166 0 00-.015-.33z" fill="#42312E" fill-rule="nonzero" opacity=".3"/><path d="M133.106 126.526a.266.266 0 01-.266-.26.274.274 0 01.266-.266c.145.004.26.122.26.266a.26.26 0 01-.26.26zm0-.425a.166.166 0 100 .331.166.166 0 000-.331zM133.1 127.246a.26.26 0 01-.26-.26c0-.144.115-.262.26-.266.145.004.262.12.266.266a.266.266 0 01-.267.26zm0-.432a.173.173 0 100 .345.173.173 0 000-.345zM135.26 126.518a.26.26 0 110-.518.26.26 0 010 .518zm0-.424a.166.166 0 100 .33.166.166 0 000-.33zM133.82 125.078a.26.26 0 110-.518.26.26 0 010 .518zm0-.432a.173.173 0 10.165.173.166.166 0 00-.166-.173zM130.226 125.086a.266.266 0 01-.266-.26.274.274 0 01.266-.266c.145.004.26.122.26.266a.26.26 0 01-.26.26zm0-.432a.173.173 0 10-.07.338.173.173 0 00.07-.338zM127.346 125.77a.266.266 0 01-.266-.267.266.266 0 01.526 0 .266.266 0 01-.26.266zm0-.433a.166.166 0 100 .331.166.166 0 000-.33z" fill="#42312E" fill-rule="nonzero" opacity=".3"/><path d="M130.22 125.086a.26.26 0 01-.26-.26c0-.144.115-.262.26-.266.145.004.262.12.266.266a.266.266 0 01-.267.26zm0-.432a.173.173 0 10.165.172.166.166 0 00-.166-.172zM127.34 126.526a.266.266 0 01-.26-.267.26.26 0 01.26-.259c.144 0 .262.115.266.26a.274.274 0 01-.267.266zm0-.432a.166.166 0 100 .33.166.166 0 000-.33zM128.074 125.813a.266.266 0 11.259-.26.26.26 0 01-.26.26zm0-.432a.173.173 0 10.165.173.166.166 0 00-.165-.173zM125.863 125.81a.266.266 0 11.087-.526.266.266 0 01-.087.525zm0-.433a.173.173 0 10.165.173.166.166 0 00-.165-.173zM128.78 127.238a.26.26 0 110-.518.26.26 0 010 .518zm0-.424a.166.166 0 100 .33.166.166 0 000-.33zM129.506 127.246a.274.274 0 01-.266-.267.266.266 0 01.266-.259.26.26 0 01.26.26.266.266 0 01-.26.266zm0-.432a.166.166 0 10.166.165.173.173 0 00-.166-.165z" fill="#42312E" fill-rule="nonzero" opacity=".3"/><circle fill="#42312E" fill-rule="nonzero" opacity=".3" cx="126.36" cy="126" r="1"/><circle fill="#42312E" fill-rule="nonzero" opacity=".3" cx="126.36" cy="125.28" r="1"/><circle fill="#42312E" fill-rule="nonzero" opacity=".3" cx="127.8" cy="125.28" r="1"/><circle fill="#42312E" fill-rule="nonzero" opacity=".3" cx="127.08" cy="124.56" r="1"/><circle fill="#42312E" fill-rule="nonzero" opacity=".3" cx="129.96" cy="125.28" r="1"/><circle fill="#42312E" fill-rule="nonzero" opacity=".3" cx="127.08" cy="125.28" r="1"/><circle fill="#42312E" fill-rule="nonzero" opacity=".3" cx="127.08" cy="125.28" r="1"/><circle fill="#42312E" fill-rule="nonzero" opacity=".3" cx="127.8" cy="126" r="1"/><circle fill="#42312E" fill-rule="nonzero" opacity=".3" cx="132.12" cy="125.28" r="1"/><circle fill="#42312E" fill-rule="nonzero" opacity=".3" cx="133.56" cy="125.28" r="1"/><circle fill="#42312E" fill-rule="nonzero" opacity=".3" cx="133.56" cy="126.72" r="1"/><circle fill="#42312E" fill-rule="nonzero" opacity=".3" cx="133.56" cy="126" r="1"/><circle fill="#42312E" fill-rule="nonzero" opacity=".3" cx="132.12" cy="126.72" r="1"/><circle fill="#42312E" fill-rule="nonzero" opacity=".3" cx="132.12" cy="125.28" r="1"/><circle fill="#42312E" fill-rule="nonzero" opacity=".3" cx="131.4" cy="126.72" r="1"/><circle fill="#42312E" fill-rule="nonzero" opacity=".3" cx="132.84" cy="125.28" r="1"/><circle fill="#42312E" fill-rule="nonzero" opacity=".3" cx="132.12" cy="126.72" r="1"/><circle fill="#42312E" fill-rule="nonzero" opacity=".3" cx="128.52" cy="126.72" r="1"/><circle fill="#42312E" fill-rule="nonzero" opacity=".3" cx="133.56" cy="126" r="1"/><circle fill="#42312E" fill-rule="nonzero" opacity=".3" cx="135.72" cy="126" r="1"/><circle fill="#42312E" fill-rule="nonzero" opacity=".3" cx="135" cy="125.28" r="1"/><circle fill="#42312E" fill-rule="nonzero" opacity=".3" cx="132.84" cy="125.28" r="1"/><circle fill="#42312E" fill-rule="nonzero" opacity=".3" cx="129.24" cy="126" r="1"/><circle fill="#42312E" fill-rule="nonzero" opacity=".3" cx="134.28" cy="125.28" r="1"/><circle fill="#42312E" fill-rule="nonzero" opacity=".3" cx="132.84" cy="125.28" r="1"/><circle fill="#42312E" fill-rule="nonzero" opacity=".3" cx="134.28" cy="125.28" r="1"/><circle fill="#42312E" fill-rule="nonzero" opacity=".3" cx="132.84" cy="124.56" r="1"/><circle fill="#42312E" fill-rule="nonzero" opacity=".3" cx="132.12" cy="124.56" r="1"/><circle fill="#42312E" fill-rule="nonzero" opacity=".3" cx="129.24" cy="124.56" r="1"/><circle fill="#42312E" fill-rule="nonzero" opacity=".3" cx="129.96" cy="124.56" r="1"/><circle fill="#42312E" fill-rule="nonzero" opacity=".3" cx="128.52" cy="125.28" r="1"/><circle fill="#42312E" fill-rule="nonzero" opacity=".3" cx="132.12" cy="125.28" r="1"/><circle fill="#42312E" fill-rule="nonzero" opacity=".3" cx="132.12" cy="125.28" r="1"/><circle fill="#42312E" fill-rule="nonzero" opacity=".3" cx="129.96" cy="126" r="1"/><circle fill="#42312E" fill-rule="nonzero" opacity=".3" cx="130.68" cy="126" r="1"/><circle fill="#42312E" fill-rule="nonzero" opacity=".3" cx="129.96" cy="125.28" r="1"/><circle fill="#42312E" fill-rule="nonzero" opacity=".3" cx="132.12" cy="126" r="1"/><circle fill="#42312E" fill-rule="nonzero" opacity=".3" cx="131.4" cy="126" r="1"/><circle fill="#42312E" fill-rule="nonzero" opacity=".3" cx="126.36" cy="125.28" r="1"/><circle fill="#42312E" fill-rule="nonzero" opacity=".3" cx="128.52" cy="125.28" r="1"/><circle fill="#42312E" fill-rule="nonzero" opacity=".3" cx="127.8" cy="124.56" r="1"/><circle fill="#42312E" fill-rule="nonzero" opacity=".3" cx="127.8" cy="126" r="1"/><circle fill="#42312E" fill-rule="nonzero" opacity=".3" cx="127.8" cy="125.28" r="1"/><circle fill="#42312E" fill-rule="nonzero" opacity=".3" cx="125.64" cy="125.28" r="1"/><circle fill="#42312E" fill-rule="nonzero" opacity=".3" cx="134.28" cy="125.28" r="1"/><circle fill="#42312E" fill-rule="nonzero" opacity=".3" cx="135" cy="125.28" r="1"/><circle fill="#42312E" fill-rule="nonzero" opacity=".3" cx="135.72" cy="126" r="1"/><circle fill="#42312E" fill-rule="nonzero" opacity=".3" cx="135.72" cy="125.28" r="1"/><circle fill="#42312E" fill-rule="nonzero" opacity=".3" cx="135.72" cy="126" r="1"/><circle fill="#42312E" fill-rule="nonzero" opacity=".3" cx="135.72" cy="125.28" r="1"/><circle fill="#42312E" fill-rule="nonzero" opacity=".3" cx="135" cy="125.28" r="1"/><circle fill="#42312E" fill-rule="nonzero" opacity=".3" cx="136.44" cy="125.28" r="1"/><circle fill="#42312E" fill-rule="nonzero" opacity=".3" cx="127.8" cy="125.28" r="1"/><circle fill="#42312E" fill-rule="nonzero" opacity=".3" cx="129.24" cy="124.56" r="1"/><circle fill="#42312E" fill-rule="nonzero" opacity=".3" cx="130.68" cy="126" r="1"/><circle fill="#42312E" fill-rule="nonzero" opacity=".3" cx="129.24" cy="124.56" r="1"/><circle fill="#42312E" fill-rule="nonzero" opacity=".3" cx="128.52" cy="124.56" r="1"/><circle fill="#42312E" fill-rule="nonzero" opacity=".3" cx="130.68" cy="125.28" r="1"/><circle fill="#42312E" fill-rule="nonzero" opacity=".3" cx="126.36" cy="125.28" r="1"/><circle fill="#42312E" fill-rule="nonzero" opacity=".3" cx="127.08" cy="126" r="1"/><circle fill="#42312E" fill-rule="nonzero" opacity=".3" cx="129.96" cy="126.72" r="1"/><circle fill="#42312E" fill-rule="nonzero" opacity=".3" cx="129.24" cy="126" r="1"/><circle fill="#42312E" fill-rule="nonzero" opacity=".3" cx="131.4" cy="126.72" r="1"/><path d="M128.536 124.664s-3.331.178-1.75 1.356c1.58 1.178 6.075.513 6.075.513s2.488-.694.875-1.51c-1.613-.817-4.016-.304-4.016-.304s-2.765.562-.639 1.052c0 0 2.56.259 2.672-.322.11-.581-1.441-.168-1.441-.168s.822.203.257.303c-.566.1-1.205-.068-1.205-.245 0-.178.84-.323 1.085-.304.245.02 1.514-.222 2 .404a.254.254 0 01.047.208.23.23 0 01-.125.163c-.45.21-1.616.613-3.482.294-2.447-.41-.353-1.44-.353-1.44z" fill="#000" fill-rule="nonzero" opacity=".1"/><path d="M121.046 134.64s6.74 3.742 10.148 5.908c3.408 2.165 9.262 8.21 3.607 8.487-5.655.276-14.201-10.453-14.201-10.453l.446-3.942z" fill="#C37098" fill-rule="nonzero"/><path d="M107.363 114.316s-.705 4.583.7 4.938c1.403.354 1.68 3.883 1.189 3.925-.49.042 2.603 2.53 1.892 3.715-.711 1.184.595 2.494 1.811 2.732 1.217.237 2.868 1.007 3.332 2.032.464 1.024 4.364 3.122 5.693 3.273 1.33.15.854 5.247-.633 5.662-1.488.415-6.247-2.852-7.844-.902-1.598 1.95-6.476 5.966-8.755 4.83-2.278-1.136-6.11-4.682-7.903-4.983-1.794-.3-3.92-20.852-2.32-23.975 1.6-3.123 4.72-8.088 12.838-1.247z" fill="#000" fill-rule="nonzero" opacity=".1"/><path d="M93.352 123.555c.38 6.843 1.642 15.071 2.772 15.263 1.785.3 5.628 3.847 7.907 4.983 2.278 1.136 7.139-2.876 8.75-4.83 1.613-1.953 6.355 1.308 7.845.902 1.49-.406 1.963-5.508.633-5.659-1.33-.15-5.232-2.257-5.693-3.281-.461-1.025-2.109-1.804-3.331-2.032-1.223-.228-2.52-1.55-1.809-2.735.711-1.184-2.38-3.67-1.895-3.711.19-.018.265-.568.2-1.25-.105-1.067-.539-2.462-1.396-2.678a.842.842 0 01-.526-.466c-.666-1.253-.17-4.472-.17-4.472-4.063-3.417-6.87-3.882-8.864-3.104-1.993.778-3.17 2.8-3.97 4.36-.593 1.158-.673 4.692-.453 8.71z" fill="#FFB030" fill-rule="nonzero"/><path d="M123.323 84.16c.597-1.237-.61-2.659-1.914-3.108-1.303-.45-2.761-.375-4.017-.946-2.146-.976-3.16-3.57-5.253-4.65-1.629-.845-3.594-.613-5.389-.235-2.653.56-5.7 1.883-6.106 4.56-.182 1.205.238 2.49-.197 3.63-1.115 2.924-6.16 1.916-7.857 4.546-.415.642-.555 1.419-.69 2.172l-1.755 9.918c-.242 1.363-.501 2.767-1.268 3.918-1.124 1.684-3.119 2.523-5 3.273-1.345.535-2.752 1.082-4.196.946-.712-.066-1.47-.298-2.117.017-.647.316-.945 1.042-1.15 1.723a17.754 17.754 0 00-.373 8.758c.244 1.164.596 2.38.241 3.51-.316.977-1.112 1.702-1.804 2.461a14.637 14.637 0 00-3.23 5.736c-.464 1.591-.572 3.528.597 4.697 1.169 1.17 3.036 1.056 4.664.893 1.708-.185 3.551-.432 4.77-1.625.669-.651 1.08-1.514 1.477-2.359l2.469-5.274c1.303-2.782 2.981-5.876 5.963-6.587 1.888-.45 3.859.193 5.8.122 4.586-.167 8.003-4.114 10.812-7.735.477-.613.978-1.312.894-2.082-.056-.51-.363-.95-.578-1.413-.975-2.128.066-4.632 1.416-6.545 1.351-1.913 3.069-3.68 3.638-5.95.28-1.113.26-2.282.49-3.407a7.808 7.808 0 014.004-5.28c1.744-.937 4.738-1.773 5.66-3.683z" fill="#3F3D56" fill-rule="nonzero"/><path d="M123.323 84.16c.597-1.237-.61-2.659-1.914-3.108-1.303-.45-2.761-.375-4.017-.946-2.146-.976-3.16-3.57-5.253-4.65-1.629-.845-3.594-.613-5.389-.235-2.653.56-5.7 1.883-6.106 4.56-.182 1.205.238 2.49-.197 3.63-1.115 2.924-6.16 1.916-7.857 4.546-.415.642-.555 1.419-.69 2.172l-1.755 9.918c-.242 1.363-.501 2.767-1.268 3.918-1.124 1.684-3.119 2.523-5 3.273-1.345.535-2.752 1.082-4.196.946-.712-.066-1.47-.298-2.117.017-.647.316-.945 1.042-1.15 1.723a17.754 17.754 0 00-.373 8.758c.244 1.164.596 2.38.241 3.51-.316.977-1.112 1.702-1.804 2.461a14.637 14.637 0 00-3.23 5.736c-.464 1.591-.572 3.528.597 4.697 1.169 1.17 3.036 1.056 4.664.893 1.708-.185 3.551-.432 4.77-1.625.669-.651 1.08-1.514 1.477-2.359l2.469-5.274c1.303-2.782 2.981-5.876 5.963-6.587 1.888-.45 3.859.193 5.8.122 4.586-.167 8.003-4.114 10.812-7.735.477-.613.978-1.312.894-2.082-.056-.51-.363-.95-.578-1.413-.975-2.128.066-4.632 1.416-6.545 1.351-1.913 3.069-3.68 3.638-5.95.28-1.113.26-2.282.49-3.407a7.808 7.808 0 014.004-5.28c1.744-.937 4.738-1.773 5.66-3.683z" fill="#000" fill-rule="nonzero" opacity=".2"/><g opacity=".1" fill="#000" fill-rule="nonzero"><path d="M79.164 108.457a12.061 12.061 0 01-.55-.071c.22 0 .446.047.669.077l-.12-.006zM76.013 136.4c1.702-.186 3.54-.432 4.76-1.631.67-.655 1.077-1.526 1.473-2.375.82-1.767 1.643-3.535 2.466-5.304 1.297-2.794 2.975-5.905 5.95-6.623 1.885-.451 3.852.198 5.789.126 4.575-.167 7.984-4.137 10.786-7.777.473-.616.976-1.322.893-2.094-.057-.509-.363-.951-.574-1.418-.973-2.139.062-4.658 1.413-6.58 1.35-1.924 3.06-3.698 3.629-5.984.277-1.118.259-2.294.488-3.425a7.823 7.823 0 013.992-5.31c1.72-.935 4.703-1.773 5.623-3.693.595-1.248-.595-2.675-1.91-3.126-1.315-.452-2.755-.377-4.007-.952-2.142-.98-3.15-3.59-5.242-4.678a4.955 4.955 0 00-1.526-.49c.73.038 1.443.228 2.097.556 2.082 1.089 3.1 3.694 5.242 4.678 1.252.572 2.707.497 4.007.951 1.3.455 2.505 1.879 1.907 3.126-.92 1.92-3.903 2.758-5.62 3.695a7.83 7.83 0 00-3.995 5.31c-.229 1.13-.208 2.303-.488 3.424-.568 2.28-2.279 4.056-3.63 5.983-1.35 1.926-2.379 4.439-1.412 6.58.214.467.52.898.577 1.422.086.774-.414 1.477-.893 2.094-2.802 3.64-6.211 7.61-10.786 7.777-1.937.069-3.903-.577-5.786-.126-2.975.715-4.656 3.83-5.95 6.623a4320.78 4320.78 0 01-2.466 5.304c-.393.85-.803 1.72-1.47 2.372-1.228 1.196-3.067 1.447-4.76 1.633-.904.127-1.821.136-2.728.024.719.031 1.438 0 2.151-.093z"/></g><path d="M115.56 116.64s4.076 5.701 3.834 8.275c-.138 1.58.027 3.171.486 4.685M121.32 122.4s1.579 7.2 2.093 7.2-2.093-7.2-2.093-7.2z" fill="#000" fill-rule="nonzero" opacity=".1"/><path d="M188.926 187.92s-3.451 3.473-5.81 3.795c-2.36.322-4.293 7.778-1.011 8.354 3.282.576 9.596-1.74 10.522-2.73.926-.99 4.293-6.862 4.293-6.862l-7.994-2.557z" fill="#65617D" fill-rule="nonzero"/><path d="M223.337 160.56s-12.549 6.962-13.317 9.724c-.767 2.762 1.862 4.971 1.862 4.971s.439 2.377.593 4.144c.154 1.766 2.194 18.952 3.125 20.39.93 1.437.163 6.851.163 6.851h3.015l-.22-8.29s-3.397-24.365-.548-26.852c2.849-2.487 5.206-5.303 6.027-5.082.82.221-.7-5.856-.7-5.856z" fill="#3F3D56" fill-rule="nonzero"/><path d="M223.337 160.56s-12.549 6.962-13.317 9.724c-.767 2.762 1.862 4.971 1.862 4.971s.439 2.377.593 4.144c.154 1.766 2.194 18.952 3.125 20.39.93 1.437.163 6.851.163 6.851h3.015l-.22-8.29s-3.397-24.365-.548-26.852c2.849-2.487 5.206-5.303 6.027-5.082.82.221-.7-5.856-.7-5.856z" fill="#000" fill-rule="nonzero" opacity=".1"/><path d="M208.08 151.003s-8.192 15.904-8.354 18.053c-.163 2.148-7.126 11.316-7.126 11.316l8.682 11.148s1.147-2.827 3.111-3.826c1.965-1 1.557-3.244 1.557-3.244s2.047 0 3.521-2.497c1.475-2.496 3.277-4.993 3.277-6.064 0-1.072 10.812-12.397 10.812-12.397l-.818-12.063-2.213-3.829-12.449 3.403z" fill="#3F3D56" fill-rule="nonzero"/><path d="M186.399 151.548l-.073.063c-1.012.89-12.337 10.803-12.337 11.04 0 .238-4.079 6.91 1 12.667 5.08 5.758 16.741 15.214 16.741 15.214s5.08 3.62 5.747 4.358c.667.739 10.742 0 4.746-6.743-5.996-6.742-11.661-14.31-11.661-14.31s9.994-2.373 10.66-4.03c.668-1.659-13.156-22.207-13.156-22.207l-1.667 3.948z" fill="#000" fill-rule="nonzero" opacity=".1"/><path d="M185.639 151.548l-.072.063c-1.01.89-12.302 10.803-12.302 11.04 0 .238-4.068 6.91.997 12.667 5.066 5.758 16.694 15.214 16.694 15.214s5.065 3.62 5.73 4.358c.665.739 10.711 0 4.733-6.743-5.98-6.742-11.625-14.31-11.625-14.31s9.965-2.373 10.627-4.03c.662-1.659 13.779-21.795 13.779-21.795l-26.908-.412-1.653 3.948z" fill="#3F3D56" fill-rule="nonzero"/><path d="M214.2 107.126l-.996 9.103s-10.196 4.091-10.444 4.01c-.249-.082-6.797-6.025-5.72-9.94.54-1.968.789-4.697.896-6.929.108-2.232.093-3.931.093-3.931s14.84-5.344 13.513-1.669c-.482 1.332-.266 2.931.209 4.425a20.664 20.664 0 002.449 4.931z" fill="#FBBEBE" fill-rule="nonzero"/><path d="M212.04 102.321c-.089.11-.18.212-.272.308-3.55 3.913-9.41 4.3-13.408.885.11-2.257.092-4.013.092-4.013s14.695-5.456 13.38-1.704c-.476 1.366-.263 2.999.208 4.524z" fill="#000" fill-rule="nonzero" opacity=".1"/><path d="M214.92 95.763c-.002 5.566-4.515 10.078-10.081 10.077-5.566 0-10.078-4.513-10.079-10.079 0-5.566 4.51-10.08 10.077-10.08a10.02 10.02 0 0110.083 10.082z" fill="#FBBEBE" fill-rule="nonzero"/><path d="M202.557 116.568s-3.839-8.568-5.16-8.568c-1.32 0-3.357 44.323-3.357 44.323l20.062.317.818-23.272-4.093-20.611s-3.692 8.129-8.27 7.811z" fill="#000" fill-rule="nonzero" opacity=".1"/><path d="M201.94 117.283s-3.885-8.563-5.221-8.563c-1.337 0-3.399 44.296-3.399 44.296l23.04.344-1.907-23.285-4.143-20.614s-3.736 8.14-8.37 7.822z" fill="#000" fill-rule="nonzero" opacity=".1"/><path d="M201.94 117.28s-3.885-8.56-5.221-8.56c-1.337 0-3.399 44.296-3.399 44.296l23.04.344-1.907-23.277-4.143-20.622s-3.736 8.137-8.37 7.82z" fill="#65617D" fill-rule="nonzero"/><path d="M198.36 105.892s-.69-1.014-1.675-.683c-.985.331-1.722-.582-2.708.328-.985.91-4.921 2.15-5.661 1.74-.74-.412-3.365 1.404-3.939 2.478-.574 1.074-2.462 3.97-2.462 3.97s-1.64 1.987-1.394 3.061c.246 1.074-.574 2.315-1.56 2.813-.985.499-2.959 5.46-2.959 5.46s.53 6.634-1.684 7.794c-2.213 1.16-.574 6.202-.574 6.202l10.464-2.503 2.96-6.78s-1.148 19.85-2.545 21.669c-1.397 1.82-1.557 2.983-1.557 2.983s5.413 1.157 6.564 2.15c1.151.994 4.184-.247 4.184-.247l2.96-26.385s1.065-4.961 1.065-7.527c0-2.565.521-16.523.521-16.523z" fill="#000" fill-rule="nonzero" opacity=".1"/><path d="M198.36 105.892s-.69-1.014-1.678-.683c-.987.331-1.725-.582-2.713.328-.987.91-4.93 2.15-5.67 1.74-.742-.412-3.372 1.404-3.947 2.478-.575 1.074-2.463 3.97-2.463 3.97s-1.646 1.987-1.4 3.061c.246 1.074-.575 2.315-1.562 2.813-.987.499-2.965 5.46-2.965 5.46s.534 6.64-1.68 7.794c-.555.298-.87.934-1.026 1.736-.638 3.243 2 6.208 5.285 6.104l5.663-2.351 2.965-8.57s-1.15 19.85-2.55 21.669c-1.4 1.82-1.56 2.983-1.56 2.983s5.426 1.157 6.576 2.15c1.15.994 4.192-.247 4.192-.247l2.965-26.385s1.067-4.961 1.067-7.527c0-2.565.501-16.523.501-16.523z" fill="#FFB030" fill-rule="nonzero"/><path d="M179.64 120.24s.986 2.353 3.661 2.147c2.676-.206-3.661-2.147-3.661-2.147zM182.52 115.92s2.036.31 2.777 1.779c.742 1.469-2.777-1.779-2.777-1.779zM187.79 113.04c0 .33 1.102 6.097 0 8.487-1.101 2.39-.942 5.193-.942 5.193l.942-13.68zM212.093 103.644s.652-.76 1.32-.678c.666.084 1.08.494 1.913.824.832.33 2.833.413 2.833.66 0 .246 1.749 1.236 2.914 1.485 1.166.25 4.834 2.72 5.75 7.499.917 4.779 2.497 6.181 2.497 6.181l-8.83 4.292s6.832 28.665 7.664 30.724c.833 2.06.902 14.266.902 14.266s-5.408 2.377-6.83 3.132c-1.42.755-.834-7.085-3.749-11.617-2.914-4.533-6.245-11.124-6.245-11.124l-5.069-14.088s-3.247-18.788-.498-22.248c2.749-3.46 5.678-8.066 5.428-9.308z" fill="#000" fill-rule="nonzero" opacity=".1"/><path d="M212.093 103.644s.652-.76 1.32-.678c.666.084 1.08.494 1.913.823.832.33 2.833.413 2.833.66 0 .247 1.749 1.236 2.914 1.486 1.166.25 4.831 2.719 5.747 7.497.917 4.778 2.5 6.18 2.5 6.18l-8.83 4.291s6.832 28.672 7.664 30.731c.833 2.06.902 14.263.902 14.263s-5.408 2.378-6.83 3.132c-1.42.755-.82-7.12-3.718-11.639-2.9-4.52-6.246-11.122-6.246-11.122l-5.099-14.073s-3.247-18.786-.498-22.244c2.749-3.46 5.678-8.065 5.428-9.307z" fill="#FFB030" fill-rule="nonzero"/><path d="M230.205 139.992c-.245.039-.557.075-.918.108-2.656.243-7.87.3-7.87.3s-3.888-7.74-7.217-7.506c0 0 3.069-3.498 4.313-3.081.21.069.338-.084.4-.381.333-1.502-.813-6.606-.813-6.606l-1.576-6.906 9.123 2.249c.828.165 3.397 1.501 3.397 1.501s.084 3.58.748 4.411c.664.832 1.409 4.828 1.325 5.828-.084 1 .912 5.66-.08 6.906-.994 1.246 1.244 2.843-.832 3.177z" fill="#000" fill-rule="nonzero" opacity=".1"/><path d="M230.925 139.992c-.245.039-.557.075-.918.108-2.656.243-7.873.3-7.873.3s-3.888-7.74-7.214-7.506c0 0 3.069-3.498 4.313-3.081.21.069.338-.084.4-.381.333-1.502-.816-6.606-.816-6.606l-1.573-6.906 9.12 2.249c.831.165 3.4 1.501 3.4 1.501s.084 3.58.748 4.411c.664.832 1.409 4.828 1.325 5.828-.084 1 .912 5.66-.08 6.906-.994 1.246 1.24 2.843-.832 3.177z" fill="#FFB030" fill-rule="nonzero"/><path d="M221.4 121.68s7.58.75 7.91 2.466c.33 1.717-7.91-2.466-7.91-2.466z" fill="#000" fill-rule="nonzero" opacity=".1"/><path d="M196.617 193.783s-.48 2.741.08 4.493c.562 1.753.481 5.563.082 6.89-.4 1.327-1.766 3.157 1.925 3.987 3.691.83 6.181.084 6.343-.581.162-.665.961-3.322.319-4.817-.643-1.495-.869-5.392.32-7.641 1.19-2.25.403-5.73-.72-6.147-1.123-.416-3.051-1.327-3.051-1.327s2.087 3.894.162 4.733c-1.925.839-5.46.41-5.46.41z" fill="#65617D" fill-rule="nonzero"/><path d="M214.914 95.5a9.615 9.615 0 01-2.762 6.74.16.16 0 01-.024-.044c-.304-.623-.586-1.273-.562-1.952.027-.827.517-1.57.674-2.386.198-1.027-.148-2.066-.489-3.064-.249-.727-.732-1.606-1.519-1.518a1.933 1.933 0 01-.464.05c-.42-.062-.502-.59-.55-.998-.262-1.962-1.802-3.534-3.807-3.882a1.22 1.22 0 00-.668.041c-.304.13-.45.437-.714.614-.854.576-1.944-.528-2.98-.443-.884.071-1.422.951-1.787 1.736-.364.786-.82 1.68-1.686 1.863a.526.526 0 01-.407-.047c-.267-.189-.082-.59.055-.886.352-.779.118-1.399-.304-1.951 2.679-3.26 7.185-4.52 11.237-3.14 4.051 1.38 6.764 5.097 6.763 9.27l-.006-.004z" fill="#000" fill-rule="nonzero" opacity=".1"/><path d="M196.968 90.653c-.136.3-.324.713-.052.898.124.07.27.086.406.045.86-.185 1.317-1.096 1.678-1.89.36-.793.908-1.689 1.78-1.76 1.036-.084 2.12 1.033 2.97.449.264-.18.424-.491.715-.623.213-.075.443-.09.663-.042 1.999.354 3.535 1.947 3.797 3.938.043.414.13.95.542 1.016.158 0 .314-.017.467-.054.778-.09 1.256.802 1.514 1.539.339 1.006.684 2.066.487 3.112-.157.823-.648 1.578-.672 2.417-.024.691.273 1.347.56 1.976.288.63.76 1.366 1.454 1.279.566-.075.88-.67 1.153-1.168.273-.497.763-1.036 1.315-.878.245.07.502.276.726.153a.535.535 0 00.212-.362c.267-1.162-.118-2.465.451-3.513.44-.809 1.333-1.243 2.056-1.815a5.799 5.799 0 002.184-3.996 5.774 5.774 0 00-1.387-4.33c-.775-.898-1.89-1.689-1.953-2.866-.046-.898.566-1.722.572-2.62.006-.899-.56-1.657-1.211-2.253a7.876 7.876 0 00-7.031-1.83c-.651.153-1.305.396-1.971.3-.77-.093-1.412-.599-2.105-.95-2.384-1.106-5.229-.346-6.725 1.797-.797 1.222-1.105 2.822-2.292 3.681-.782.563-1.899.773-2.329 1.63-.26.512-.188 1.12-.109 1.689a3.96 3.96 0 001.278 2.416c.72.758 1.341 1.53.857 2.615z" fill="#512E4E" fill-rule="nonzero"/><path fill="#3F3D56" fill-rule="nonzero" d="M187.56 216.419l-.082 16.141-2.931-.248-10.667-88.148 3.148-.095 2.224-.069z"/><path fill="#000" fill-rule="nonzero" opacity=".2" d="M187.56 232.56l-2.949-.248-10.731-88.216 3.167-.096-.136.51z"/><path fill="#3F3D56" fill-rule="nonzero" d="M201.96 144l-10.8 87.73-2.024.464-1.576.366.083-16.202 9.491-72.025.186-.015z"/><path fill="#000" fill-rule="nonzero" opacity=".2" d="M189.091 232.145l.02.051-1.551.364.081-16.128 9.344-71.697.183-.015 1.912.427z"/><path fill="#65617D" fill-rule="nonzero" d="M227.16 198.353l-.259 20.413-1.021 3.714-10.24-78.148 2.416-.254.739-.078z"/><path fill="#000" fill-rule="nonzero" opacity=".2" d="M227.16 198.353l-.259 20.413-1.021 3.714-10.24-78.148 2.416-.254.739-.078z"/><path fill="#3F3D56" fill-rule="nonzero" d="M227.16 198.436l-.245 20.444-8.26-74.13-.135-.672.701-.078z"/><path fill="#65617D" fill-rule="nonzero" d="M229.639 171.487l.24 50.993-1.337-.054-2.822-.11L226.84 144l2.152.277 1.048.134z"/><path fill="#000" fill-rule="nonzero" opacity=".2" d="M229.639 171.487l.24 50.993-1.337-.054-2.822-.11L226.84 144l2.152.277 1.048.134z"/><path fill="#3F3D56" fill-rule="nonzero" d="M229.654 171.306l.23 51.174-1.284-.054.433-78.426 1.007.134z"/><path fill="#65617D" fill-rule="nonzero" d="M135 143.58l.164-2.579 14.251.087 42.834-.688 33.057 1.891 21.043.428.251 2.409-54.103 1.032z"/><path fill="#3F3D56" fill-rule="nonzero" d="M135 143.58l.164-2.579 14.251.087 42.834-.688 33.057 1.891 21.043.428.251 2.409-54.103 1.032z"/><path fill="#3F3D56" fill-rule="nonzero" d="M135 141.3l42.138 1.98 68.742-.182-51.392-3.418z"/><path fill="#000" fill-rule="nonzero" opacity=".1" d="M135 141.3l42.138 1.98 68.742-.182-51.392-3.418z"/><path d="M191.16 138.658c0 1.591-2.9 3.182-6.48 3.182-3.58 0-6.48-1.591-6.48-3.182s2.903-2.578 6.48-2.578c3.577 0 6.48.987 6.48 2.578z" fill="#E8EAF2" fill-rule="nonzero"/><path d="M191.16 138.658c0 1.591-2.9 3.182-6.48 3.182-3.58 0-6.48-1.591-6.48-3.182s2.903-2.578 6.48-2.578c3.577 0 6.48.987 6.48 2.578z" fill="#000" fill-rule="nonzero" opacity=".1"/><ellipse fill="#E8EAF2" fill-rule="nonzero" cx="184.68" cy="138.24" rx="6.48" ry="2.88"/><ellipse fill="#000" fill-rule="nonzero" opacity=".05" cx="184.32" cy="138.24" rx="3.96" ry="1.44"/><path d="M193.307 134.491c-.138-.76-1.28-1.262-2.742-1.29a7.283 7.283 0 00-1.158.072c-1.983.276-3.451 1.282-3.272 2.235.138.754 1.255 1.254 2.698 1.29.403.01.807-.014 1.205-.072 1.97-.28 3.435-1.28 3.27-2.235zm-3.36 1.746a4.852 4.852 0 01-.628.052c-1.145.025-2.064-.342-2.17-.925-.126-.682.925-1.4 2.343-1.602a5.195 5.195 0 011.023-.044c.941.058 1.681.406 1.776.917.119.685-.932 1.403-2.354 1.602h.01z" fill="#F1CEC8" fill-rule="nonzero"/><path d="M187.56 138.24a.769.769 0 01-.167.459c-.43.57-1.644.981-3.071.981-1.33 0-2.475-.358-2.975-.867a.819.819 0 01-.267-.573c0-.794 1.45-1.44 3.242-1.44s3.238.646 3.238 1.44z" fill="#65617D" fill-rule="nonzero"/><path d="M187.56 138.032a.597.597 0 01-.166.39 7.11 7.11 0 01-2.755.538h-.78a7.144 7.144 0 01-2.512-.45.659.659 0 01-.267-.486c0-.675 1.448-1.224 3.238-1.224s3.242.557 3.242 1.232zM191.16 133.201c0 .174-.021.348-.046.517a4.908 4.908 0 00-.994.044c-1.379.202-2.4.92-2.278 1.603.103.584.997.951 2.11.926a5.215 5.215 0 01-.476.509c-1.4-.036-2.488-.536-2.623-1.29-.167-.954 1.254-1.955 3.182-2.237a6.88 6.88 0 011.125-.072z" fill="#000" fill-rule="nonzero" opacity=".1"/><path d="M178.2 132.48v.809c0 3.132 2.731 5.671 6.1 5.671h.76c3.369 0 6.1-2.539 6.1-5.671v-.809H178.2z" fill="#65617D" fill-rule="nonzero"/><ellipse fill="#65617D" fill-rule="nonzero" cx="184.68" cy="132.12" rx="6.48" ry="1.8"/><ellipse fill="#000" fill-rule="nonzero" opacity=".1" cx="184.32" cy="132.12" rx="6.12" ry="1.8"/><ellipse fill="#FDF9F9" fill-rule="nonzero" cx="184.68" cy="132.12" rx="5.76" ry="1.8"/><path d="M180 132.48a.36.36 0 110-.72.36.36 0 010 .72zm0-.59a.23.23 0 100 .46.23.23 0 000-.46z" fill="#42312E" fill-rule="nonzero" opacity=".3"/><path d="M180.71 132.48c-.2-.024-.35-.178-.35-.36s.15-.336.35-.36c.2.024.349.178.349.36s-.15.336-.35.36zm0-.584a.267.267 0 00-.179.067.216.216 0 00-.074.16c0 .126.113.227.252.227.14 0 .252-.101.252-.227 0-.125-.112-.227-.252-.227zM180 131.76a.36.36 0 110-.72.36.36 0 010 .72zm0-.59a.23.23 0 100 .46.23.23 0 000-.46zM181.44 133.2a.36.36 0 110-.72.36.36 0 010 .72zm0-.579a.225.225 0 10.225.225.231.231 0 00-.225-.225zM186.483 132.48a.344.344 0 01-.256-.11.397.397 0 01-.107-.273.373.373 0 01.36-.337c.182 0 .336.144.36.337 0 .212-.16.383-.357.383zm0-.626c-.126 0-.23.108-.233.243.019.121.116.21.23.21a.239.239 0 00.23-.21c0-.134-.101-.243-.227-.243zM187.2 133.2a.353.353 0 01-.36-.36.36.36 0 11.36.36zm0-.59a.23.23 0 00-.23.23.223.223 0 00.23.229.23.23 0 000-.458z" fill="#42312E" fill-rule="nonzero" opacity=".3"/><path d="M187.2 132.48a.36.36 0 110-.72.36.36 0 010 .72zm0-.579a.225.225 0 00-.231.225.231.231 0 00.456 0c0-.124-.1-.225-.225-.225zM187.92 131.04a.353.353 0 01-.36-.36.36.36 0 11.36.36zm0-.59a.23.23 0 00-.23.23.223.223 0 00.23.229.23.23 0 000-.458zM187.92 133.2a.353.353 0 01-.36-.36.36.36 0 11.36.36zm0-.59a.23.23 0 00-.23.23.223.223 0 00.23.229.23.23 0 000-.458zM188.64 132.48a.36.36 0 01-.36-.36.353.353 0 01.36-.36.36.36 0 010 .72zm0-.59a.23.23 0 100 .46.23.23 0 000-.46z" fill="#42312E" fill-rule="nonzero" opacity=".3"/><path d="M188.646 133.2a.36.36 0 11-.012-.72.36.36 0 01.012.72zm0-.585a.225.225 0 00-.225.225.219.219 0 00.225.225.225.225 0 00.225-.225.225.225 0 00-.225-.2v-.025zM187.92 131.76a.36.36 0 110-.72.36.36 0 010 .72zm0-.59a.23.23 0 100 .46.23.23 0 000-.46zM189.36 131.76a.36.36 0 110-.72.36.36 0 010 .72zm0-.59a.23.23 0 100 .46.23.23 0 000-.46zM186.48 131.04a.36.36 0 110-.72.36.36 0 010 .72zm0-.579a.225.225 0 00-.231.225.231.231 0 00.456 0c0-.124-.1-.225-.225-.225z" fill="#42312E" fill-rule="nonzero" opacity=".3"/><path d="M185.766 131.04a.36.36 0 11-.012-.72.36.36 0 01.012.72zm0-.585a.231.231 0 10.225.225c0-.124-.1-.225-.225-.225zM184.31 131.04c-.2-.024-.35-.178-.35-.36s.15-.336.35-.36c.2.024.349.178.349.36s-.15.336-.35.36zm0-.59c-.125.019-.217.116-.217.23s.092.211.216.23c.125-.019.217-.116.217-.23s-.092-.211-.217-.23zM185.75 132.48c-.2-.024-.35-.178-.35-.36s.15-.336.35-.36c.2.024.349.178.349.36s-.15.336-.35.36zm0-.59a.262.262 0 00-.245.14.217.217 0 00.051.256.28.28 0 00.284.054.235.235 0 00.161-.217c0-.126-.111-.23-.252-.233zM181.437 133.2c-.197 0-.357-.171-.357-.382a.373.373 0 01.36-.338c.182 0 .336.144.36.338-.004.212-.165.382-.363.382zm0-.626c-.126 0-.227.11-.227.244s.101.243.227.243c.125 0 .227-.11.227-.243a.246.246 0 00-.065-.175.213.213 0 00-.162-.069zM181.44 132.48a.36.36 0 01-.36-.36.353.353 0 01.36-.36.36.36 0 010 .72zm0-.59a.23.23 0 100 .46.23.23 0 000-.46z" fill="#42312E" fill-rule="nonzero" opacity=".3"/><path d="M182.154 132.48a.354.354 0 01-.354-.354.36.36 0 11.354.354zm0-.579a.225.225 0 100 .45.225.225 0 000-.45z" fill="#42312E" fill-rule="nonzero" opacity=".3"/><path d="M182.153 132.48a.36.36 0 11.014-.72.36.36 0 01-.014.72zm0-.59a.23.23 0 10.014.459.23.23 0 00-.014-.458z" fill="#42312E" fill-rule="nonzero" opacity=".3"/><path d="M182.16 131.76a.36.36 0 11.36-.36.367.367 0 01-.36.36zm0-.59a.23.23 0 10.23.23.236.236 0 00-.23-.21v-.02zM182.88 133.2a.36.36 0 01-.36-.36.353.353 0 01.36-.36.36.36 0 110 .72zm0-.59a.223.223 0 00-.23.23.23.23 0 10.23-.23zM184.326 133.2a.36.36 0 11-.012-.72.36.36 0 01.012.72zm0-.579a.225.225 0 00-.231.225.231.231 0 00.456 0c0-.124-.1-.225-.225-.225z" fill="#42312E" fill-rule="nonzero" opacity=".3"/><path d="M184.31 133.2c-.2-.024-.35-.178-.35-.36s.15-.336.35-.36c.2.024.349.178.349.36s-.15.336-.35.36zm0-.59a.267.267 0 00-.179.066.216.216 0 00-.074.16c0 .126.113.228.252.228a.26.26 0 00.18-.065.21.21 0 00.072-.162c-.014-.115-.123-.202-.252-.201v-.026zM183.6 132.48a.36.36 0 110-.72.36.36 0 010 .72zm0-.59a.23.23 0 100 .46.23.23 0 000-.46zM185.04 131.76a.36.36 0 110-.72.36.36 0 010 .72zm0-.579a.225.225 0 100 .45.225.225 0 000-.45z" fill="#42312E" fill-rule="nonzero" opacity=".3"/><path d="M184.32 132.48a.36.36 0 01-.36-.36.353.353 0 01.36-.36.36.36 0 010 .72zm0-.59a.223.223 0 00-.23.23.23.23 0 10.23-.23zM185.04 131.76a.36.36 0 11.36-.354.354.354 0 01-.36.354zm0-.585a.231.231 0 100 .463.231.231 0 000-.463z" fill="#42312E" fill-rule="nonzero" opacity=".3"/><path d="M185.03 131.04c-.2-.024-.35-.178-.35-.36s.15-.336.35-.36c.2.024.349.178.349.36s-.15.336-.35.36zm0-.59c-.125.019-.217.116-.217.23s.092.211.216.23c.125-.019.217-.116.217-.23s-.092-.211-.217-.23zM185.037 131.76c-.197 0-.357-.171-.357-.382a.373.373 0 01.36-.338c.182 0 .336.144.36.338-.004.212-.165.382-.363.382zm0-.626c-.126 0-.227.11-.227.244s.101.243.227.243c.125 0 .227-.11.227-.243a.246.246 0 00-.065-.175.213.213 0 00-.162-.069zM183.593 132.48a.36.36 0 11.014-.72.36.36 0 01-.014.72zm0-.59a.23.23 0 100 .459.23.23 0 000-.458z" fill="#42312E" fill-rule="nonzero" opacity=".3"/><path d="M183.606 132.48a.36.36 0 11.354-.354.354.354 0 01-.354.354zm0-.579a.225.225 0 100 .45.225.225 0 000-.45zM184.31 131.76c-.2-.024-.35-.178-.35-.36s.15-.336.35-.36c.2.024.349.178.349.36s-.15.336-.35.36zm0-.59c-.125.019-.217.116-.217.23s.092.211.216.23c.125-.019.217-.116.217-.23s-.092-.211-.217-.23zM182.772 131.544a.252.252 0 110-.504.252.252 0 010 .504zm0-.41a.158.158 0 100 .316.158.158 0 000-.316zM183.492 131.544a.245.245 0 01-.252-.252.252.252 0 11.252.252zm0-.41a.166.166 0 10.158.158.158.158 0 00-.158-.158zM184.932 130.824a.252.252 0 11.252-.252.245.245 0 01-.252.252zm0-.41a.158.158 0 00-.158.158.166.166 0 10.158-.158zM184.932 132.984a.252.252 0 110-.504.252.252 0 010 .504zm0-.41a.158.158 0 100 .316.158.158 0 000-.316z" fill="#42312E" fill-rule="nonzero" opacity=".3"/><path d="M184.982 132.995a.26.26 0 11-.086-.511.26.26 0 01.086.51zm0-.418a.166.166 0 10.159.159.158.158 0 00-.159-.159zM184.932 132.264a.245.245 0 01-.252-.252.252.252 0 11.252.252zm0-.41a.166.166 0 10.158.158.158.158 0 00-.158-.18v.022zM187.113 131.543a.252.252 0 11-.042-.502.252.252 0 01.042.502zm0-.41a.158.158 0 100 .317.158.158 0 000-.317z" fill="#42312E" fill-rule="nonzero" opacity=".3"/><path d="M187.092 131.544a.252.252 0 110-.504.252.252 0 010 .504zm0-.41a.158.158 0 100 .316.158.158 0 000-.316zM187.142 132.275a.26.26 0 11-.086-.511.26.26 0 01.086.51zm0-.418a.166.166 0 10.159.159.158.158 0 00-.159-.159zM186.372 132.948a.252.252 0 01-.252-.252.26.26 0 01.511 0 .252.252 0 01-.259.252zm0-.41a.158.158 0 00-.158.158.166.166 0 10.158-.158zM188.532 132.264a.252.252 0 11.252-.252.245.245 0 01-.252.252zm0-.41a.158.158 0 00-.158.158.166.166 0 10.158-.158zM185.616 132.991a.26.26 0 010-.511.26.26 0 010 .511zm0-.417a.158.158 0 00-.158.165c0 .088.07.159.158.159a.166.166 0 100-.324z" fill="#42312E" fill-rule="nonzero" opacity=".3"/><path d="M187.092 132.264a.252.252 0 01-.252-.252.245.245 0 01.252-.252.252.252 0 110 .504zm0-.418a.166.166 0 100 .324c.088 0 .158-.07.158-.158a.158.158 0 00-.158-.166zM186.336 132.991a.26.26 0 010-.511.26.26 0 010 .511zm0-.417a.166.166 0 100 .324c.088 0 .159-.071.159-.159a.158.158 0 00-.159-.165zM188.532 132.264a.252.252 0 110-.504.252.252 0 010 .504zm0-.41a.158.158 0 100 .316.158.158 0 000-.316zM187.092 130.788a.252.252 0 01-.252-.252.26.26 0 01.511 0 .26.26 0 01-.259.252zm0-.417a.158.158 0 00-.158.165.158.158 0 00.158.159.166.166 0 100-.324zM183.492 130.824a.252.252 0 110-.504.252.252 0 010 .504zm0-.41a.158.158 0 100 .316.158.158 0 000-.316zM180.612 131.544a.252.252 0 010-.504.245.245 0 01.252.252c0 .14-.113.252-.252.252zm0-.418a.158.158 0 00-.158.166c0 .088.07.158.158.158a.166.166 0 100-.324z" fill="#42312E" fill-rule="nonzero" opacity=".3"/><path d="M183.492 130.824a.252.252 0 110-.504.245.245 0 01.252.252c0 .14-.113.252-.252.252zm0-.418a.158.158 0 00-.158.166.158.158 0 00.158.158.166.166 0 100-.324zM181.332 132.228a.252.252 0 01-.252-.252.26.26 0 01.511 0 .26.26 0 01-.259.252zm0-.417a.158.158 0 00-.158.165.158.158 0 00.158.159.166.166 0 100-.324zM181.332 131.544a.252.252 0 11.252-.252.26.26 0 01-.252.252zm0-.41a.158.158 0 100 .316.158.158 0 000-.316zM179.892 132.264a.252.252 0 110-.504.245.245 0 01.252.252c0 .14-.113.252-.252.252zm0-.418a.158.158 0 00-.158.166c0 .088.07.158.158.158a.166.166 0 100-.324zM182.052 132.984a.252.252 0 010-.504.245.245 0 01.252.252c0 .14-.113.252-.252.252zm0-.418a.158.158 0 00-.158.166c0 .088.07.158.158.158a.166.166 0 100-.324zM182.736 132.995a.26.26 0 11.086-.511.26.26 0 01-.086.51zm0-.418a.158.158 0 00-.158.166c0 .087.07.158.158.158a.166.166 0 100-.324z" fill="#42312E" fill-rule="nonzero" opacity=".3"/><circle fill="#42312E" fill-rule="nonzero" opacity=".3" cx="179.64" cy="132.48" r="1"/><circle fill="#42312E" fill-rule="nonzero" opacity=".3" cx="180.36" cy="131.04" r="1"/><circle fill="#42312E" fill-rule="nonzero" opacity=".3" cx="181.08" cy="131.76" r="1"/><circle fill="#42312E" fill-rule="nonzero" opacity=".3" cx="180.36" cy="131.04" r="1"/><circle fill="#42312E" fill-rule="nonzero" opacity=".3" cx="183.96" cy="131.04" r="1"/><circle fill="#42312E" fill-rule="nonzero" opacity=".3" cx="181.08" cy="131.04" r="1"/><circle fill="#42312E" fill-rule="nonzero" opacity=".3" cx="181.08" cy="131.04" r="1"/><circle fill="#42312E" fill-rule="nonzero" opacity=".3" cx="181.08" cy="131.76" r="1"/><circle fill="#42312E" fill-rule="nonzero" opacity=".3" cx="186.12" cy="131.04" r="1"/><circle fill="#42312E" fill-rule="nonzero" opacity=".3" cx="186.84" cy="131.76" r="1"/><circle fill="#42312E" fill-rule="nonzero" opacity=".3" cx="186.84" cy="132.48" r="1"/><circle fill="#42312E" fill-rule="nonzero" opacity=".3" cx="187.56" cy="132.48" r="1"/><circle fill="#42312E" fill-rule="nonzero" opacity=".3" cx="186.12" cy="132.48" r="1"/><circle fill="#42312E" fill-rule="nonzero" opacity=".3" cx="185.4" cy="131.04" r="1"/><circle fill="#42312E" fill-rule="nonzero" opacity=".3" cx="184.68" cy="132.48" r="1"/><circle fill="#42312E" fill-rule="nonzero" opacity=".3" cx="186.12" cy="131.76" r="1"/><circle fill="#42312E" fill-rule="nonzero" opacity=".3" cx="185.4" cy="132.48" r="1"/><circle fill="#42312E" fill-rule="nonzero" opacity=".3" cx="181.8" cy="132.48" r="1"/><circle fill="#42312E" fill-rule="nonzero" opacity=".3" cx="186.84" cy="131.76" r="1"/><circle fill="#42312E" fill-rule="nonzero" opacity=".3" cx="189" cy="131.76" r="1"/><circle fill="#42312E" fill-rule="nonzero" opacity=".3" cx="188.28" cy="131.04" r="1"/><circle fill="#42312E" fill-rule="nonzero" opacity=".3" cx="186.12" cy="131.04" r="1"/><circle fill="#42312E" fill-rule="nonzero" opacity=".3" cx="182.52" cy="131.76" r="1"/><circle fill="#42312E" fill-rule="nonzero" opacity=".3" cx="187.56" cy="131.76" r="1"/><circle fill="#42312E" fill-rule="nonzero" opacity=".3" cx="186.12" cy="131.04" r="1"/><circle fill="#42312E" fill-rule="nonzero" opacity=".3" cx="187.56" cy="131.04" r="1"/><circle fill="#42312E" fill-rule="nonzero" opacity=".3" cx="186.84" cy="130.32" r="1"/><circle fill="#42312E" fill-rule="nonzero" opacity=".3" cx="186.12" cy="130.32" r="1"/><circle fill="#42312E" fill-rule="nonzero" opacity=".3" cx="183.24" cy="131.04" r="1"/><circle fill="#42312E" fill-rule="nonzero" opacity=".3" cx="183.24" cy="131.04" r="1"/><circle fill="#42312E" fill-rule="nonzero" opacity=".3" cx="181.8" cy="131.76" r="1"/><circle fill="#42312E" fill-rule="nonzero" opacity=".3" cx="185.4" cy="131.76" r="1"/><circle fill="#42312E" fill-rule="nonzero" opacity=".3" cx="185.4" cy="131.76" r="1"/><circle fill="#42312E" fill-rule="nonzero" opacity=".3" cx="183.24" cy="131.76" r="1"/><circle fill="#42312E" fill-rule="nonzero" opacity=".3" cx="184.68" cy="131.76" r="1"/><circle fill="#42312E" fill-rule="nonzero" opacity=".3" cx="183.24" cy="131.04" r="1"/><circle fill="#42312E" fill-rule="nonzero" opacity=".3" cx="185.4" cy="131.76" r="1"/><circle fill="#42312E" fill-rule="nonzero" opacity=".3" cx="185.4" cy="131.76" r="1"/><circle fill="#42312E" fill-rule="nonzero" opacity=".3" cx="180.36" cy="131.04" r="1"/><circle fill="#42312E" fill-rule="nonzero" opacity=".3" cx="181.8" cy="131.04" r="1"/><circle fill="#42312E" fill-rule="nonzero" opacity=".3" cx="181.08" cy="131.04" r="1"/><circle fill="#42312E" fill-rule="nonzero" opacity=".3" cx="181.08" cy="131.76" r="1"/><circle fill="#42312E" fill-rule="nonzero" opacity=".3" cx="181.8" cy="131.04" r="1"/><circle fill="#42312E" fill-rule="nonzero" opacity=".3" cx="179.64" cy="131.04" r="1"/><circle fill="#42312E" fill-rule="nonzero" opacity=".3" cx="187.56" cy="131.04" r="1"/><circle fill="#42312E" fill-rule="nonzero" opacity=".3" cx="188.28" cy="131.04" r="1"/><circle fill="#42312E" fill-rule="nonzero" opacity=".3" cx="189" cy="131.76" r="1"/><circle fill="#42312E" fill-rule="nonzero" opacity=".3" cx="189" cy="131.76" r="1"/><circle fill="#42312E" fill-rule="nonzero" opacity=".3" cx="189" cy="131.76" r="1"/><circle fill="#42312E" fill-rule="nonzero" opacity=".3" cx="189" cy="131.76" r="1"/><circle fill="#42312E" fill-rule="nonzero" opacity=".3" cx="188.28" cy="131.76" r="1"/><circle fill="#42312E" fill-rule="nonzero" opacity=".3" cx="189.72" cy="131.76" r="1"/><circle fill="#42312E" fill-rule="nonzero" opacity=".3" cx="181.8" cy="131.04" r="1"/><circle fill="#42312E" fill-rule="nonzero" opacity=".3" cx="182.52" cy="130.32" r="1"/><circle fill="#42312E" fill-rule="nonzero" opacity=".3" cx="183.96" cy="132.48" r="1"/><circle fill="#42312E" fill-rule="nonzero" opacity=".3" cx="182.52" cy="130.32" r="1"/><circle fill="#42312E" fill-rule="nonzero" opacity=".3" cx="181.8" cy="130.32" r="1"/><circle fill="#42312E" fill-rule="nonzero" opacity=".3" cx="183.96" cy="131.04" r="1"/><circle fill="#42312E" fill-rule="nonzero" opacity=".3" cx="179.64" cy="131.76" r="1"/><circle fill="#42312E" fill-rule="nonzero" opacity=".3" cx="180.36" cy="132.48" r="1"/><circle fill="#42312E" fill-rule="nonzero" opacity=".3" cx="183.24" cy="132.48" r="1"/><circle fill="#42312E" fill-rule="nonzero" opacity=".3" cx="182.52" cy="132.48" r="1"/><circle fill="#42312E" fill-rule="nonzero" opacity=".3" cx="184.68" cy="132.48" r="1"/><path d="M182.54 130.424s-3.327.177-1.76 1.355c1.566 1.178 6.077.515 6.077.515s2.486-.696.886-1.512c-1.6-.817-4.017-.302-4.017-.302s-2.765.56-.638 1.051c0 0 2.562.258 2.674-.314.112-.573-1.44-.168-1.44-.168s.82.201.254.305c-.566.104-1.21-.07-1.21-.248 0-.177.84-.314 1.083-.3.242.012 1.512-.225 2.002.404.044.057.061.133.046.206a.23.23 0 01-.124.162c-.451.21-1.619.613-3.482.295-2.444-.422-.351-1.45-.351-1.45zM225.72 129.6c.535.155 3.644.858 4.265 2.496.622 1.638-4.265-2.496-4.265-2.496z" fill="#000" fill-rule="nonzero" opacity=".1"/><g opacity=".1" fill="#000" fill-rule="nonzero"><path d="M218.296 82.874c.078-.221.137-.448.177-.68a4.285 4.285 0 00-.177.68zM197.283 90.094a2.58 2.58 0 01.162-.433c.482-1.064-.132-1.823-.847-2.537a3.866 3.866 0 01-1.263-2.374 6.333 6.333 0 01-.07-.756c-.059.075-.111.154-.155.239-.257.503-.185 1.1-.108 1.658.123.913.57 1.754 1.264 2.374.547.547 1.03 1.12 1.017 1.829zM216.003 99.74c-.545-.156-1.03.37-1.299.861-.27.492-.58 1.074-1.14 1.144-.686.089-1.153-.635-1.437-1.252-.284-.618-.578-1.262-.557-1.941 0-.083 0-.162.024-.241-.192.439-.311.905-.353 1.382-.024.679.27 1.323.554 1.94.284.618.75 1.342 1.436 1.256.56-.073.871-.658 1.14-1.147.27-.488.755-1.017 1.3-.861.242.067.497.27.718.15a.525.525 0 00.21-.356c.054-.256.086-.515.096-.776-.219.094-.458-.1-.692-.16zM219.41 94.302c-.716.562-1.599.988-2.033 1.782a2.79 2.79 0 00-.3 1.103c.44-.767 1.303-1.19 2.006-1.744a5.757 5.757 0 002.095-3.488 5.787 5.787 0 01-1.769 2.347zM211.92 97.184a5.84 5.84 0 00.315-1.006c.197-1.026-.144-2.058-.48-3.055-.248-.724-.72-1.6-1.496-1.512a1.87 1.87 0 01-.458.05c-.407-.061-.494-.588-.539-.994-.256-1.955-1.775-3.52-3.75-3.867a1.218 1.218 0 00-.656.041c-.3.13-.446.435-.706.612-.844.588-1.913-.524-2.937-.441-.868.07-1.4.947-1.76 1.729-.359.782-.808 1.673-1.658 1.856a.51.51 0 01-.4-.047.293.293 0 01-.133-.244c-.027.172-.078.34-.15.5-.134.294-.32.7-.05.882a.523.523 0 00.4.044c.851-.182 1.303-1.077 1.66-1.856.355-.78.897-1.658 1.76-1.729 1.023-.082 2.094 1.015 2.936.441.26-.176.419-.482.706-.612.21-.073.437-.087.656-.04 1.975.347 3.494 1.911 3.753 3.866.042.406.129.933.536.997.155.001.31-.016.46-.053.77-.088 1.243.789 1.497 1.512.318.95.638 1.944.494 2.926z"/></g><path d="M217.583 132.099s-4.199 1.296-6.093 1.296c-1.894 0-9.302-.043-9.302-.043s-19.344-6.556-13.542 2.41c5.801 8.967 14.982 3.969 14.982 3.969s.742.166 1.648.376c.905.211 18.408.043 18.973-.668.564-.711-6.666-7.34-6.666-7.34z" fill="#FBBEBE" fill-rule="nonzero"/><path d="M229.32 140.104c-2.662.24-7.887.296-7.887.296s-3.897-7.622-7.233-7.391c0 0 3.076-3.444 4.323-3.034.21.068.338-.082.401-.375 3.259.979 9.464 3.38 10.072 7.59a44.4 44.4 0 01.324 2.914z" fill="#000" fill-rule="nonzero" opacity=".1"/><path d="M230.04 140.104c-2.662.24-7.89.296-7.89.296s-3.897-7.622-7.23-7.391c0 0 3.076-3.444 4.323-3.034.21.068.338-.082.401-.375 3.259.979 9.464 3.38 10.07 7.59.164 1.146.266 2.104.326 2.914z" fill="#F09E19" fill-rule="nonzero"/><path d="M206.28 161.988s7.412-2.31 8.547-1.053c1.136 1.257-8.547 1.053-8.547 1.053zM185.4 169.2s3.238 1.822 3.579 3.313c.341 1.49-3.579-3.313-3.579-3.313zM197.64 202.633s4.479-.745 5.629.064c1.15.808-5.629-.064-5.629-.064z" fill="#000" fill-rule="nonzero" opacity=".1"/><ellipse fill="#FFB030" fill-rule="nonzero" opacity=".1" cx="252.72" cy="213.12" rx="6.12" ry="1"/><ellipse fill="#FFB030" fill-rule="nonzero" opacity=".1" cx="275.76" cy="215.28" rx="6.12" ry="1"/><ellipse fill="#FFB030" fill-rule="nonzero" opacity=".1" cx="303.84" cy="211.68" rx="6.12" ry="1"/><ellipse fill="#FFB030" fill-rule="nonzero" opacity=".1" cx="266.76" cy="221.76" rx="4.32" ry="1"/><ellipse fill="#FFB030" fill-rule="nonzero" opacity=".1" cx="290.52" cy="221.04" rx="4.32" ry="1"/><path d="M275.967 215.28s-8.587-28.337 1.345-39.687c7.43-8.493 15.864-7.476 19.642-6.423a6.98 6.98 0 014.504 3.766c1.321 2.867 1.082 7.52-8.24 12.954-15.607 9.097-16.579 21.575-16.579 21.575l-.672 7.815z" fill="#FFB030" fill-rule="nonzero"/><path d="M295.56 173.52s-24.933 7.903-19.343 41.76M280.44 176.4s3.857 2.302 2.644 5.76M293.4 178.56s-2.273-2.343-5.04-1.052M283.32 188.785s-4.004-2.286-5.04.575M273.96 192.978s2.829-.285 2.88 1.422" stroke="#565987" stroke-width=".72"/><path d="M275.4 215.28s10.023-20.592 12.775-20.153c1.307.213 1.911 1.504 2.182 2.818a8.382 8.382 0 01-.545 5.015c-1.423 3.305-5.255 9.565-14.412 12.32z" fill="#FFB030" fill-rule="nonzero"/><path d="M288.36 199.44s-10.26 15.176-12.24 15.84M289.08 201.6h-2.16M286.2 207.276l-3.6.168M284.04 202.32l.72 2.16M279.683 208.8l.074 2.16" stroke="#565987" stroke-width=".72"/><path d="M276.12 215.28s-10.019-20.592-12.773-20.153c-1.307.213-1.911 1.504-2.182 2.818a8.383 8.383 0 00.545 5.033c1.423 3.287 5.243 9.547 14.41 12.302z" fill="#FFB030" fill-rule="nonzero"/><path d="M263.16 199.44s10.26 15.176 12.24 15.84M262.44 201.6h2.16M265.32 207.276l3.6.168M267.48 202.32l-.72 2.16M271.837 208.8l-.074 2.16" stroke="#565987" stroke-width=".72"/><path d="M293.463 220.134c.3-.214.52-.507.63-.841.097-.342-.079-.7-.422-.856-.387-.137-.8.11-1.112.36-.312.251-.674.537-1.087.484.43-.359.624-.901.51-1.427a.563.563 0 00-.141-.29c-.215-.213-.605-.12-.86.046-.82.533-1.05 1.56-1.053 2.487a4.453 4.453 0 01-.016-1.025 1.016 1.016 0 00-.416-.906 1.302 1.302 0 00-.63-.137c-.37-.05-.744.047-1.03.268a.896.896 0 00.04 1.165c.304.317.664.583 1.065.786.305.17.566.399.763.673.022.038.041.078.057.119h2.306a6.4 6.4 0 001.396-.906zM255.327 211.495c.29-.216.503-.51.606-.84.098-.342-.079-.7-.423-.858-.388-.137-.802.113-1.118.363-.316.25-.673.535-1.087.483.43-.36.625-.902.512-1.428a.561.561 0 00-.142-.29c-.215-.213-.607-.123-.866.046-.818.529-1.049 1.556-1.052 2.48a4.24 4.24 0 010-1.02 1.014 1.014 0 00-.417-.905 1.352 1.352 0 00-.632-.14c-.37-.047-.743.051-1.03.271-.279.35-.262.83.041 1.164.304.317.666.584 1.068.788.306.167.567.397.762.672a.475.475 0 01.056.119h2.316c.51-.244.982-.548 1.406-.905zM267.572 220.134c.288-.217.498-.51.602-.841.096-.342-.08-.7-.422-.856-.388-.137-.8.11-1.116.36-.315.251-.67.537-1.083.484.429-.36.623-.901.51-1.427a.563.563 0 00-.142-.29c-.214-.213-.605-.12-.86.046-.819.533-1.049 1.56-1.052 2.487a4.454 4.454 0 01-.016-1.025 1.016 1.016 0 00-.416-.906 1.3 1.3 0 00-.63-.137 1.387 1.387 0 00-1.03.268.89.89 0 00.041 1.165c.303.317.663.583 1.065.786.304.169.564.399.76.673a.477.477 0 01.056.119h2.303c.518-.24 1-.546 1.43-.906zM303.695 203.76s.86 1.04-.398 2.606c-1.26 1.566-2.299 2.895-1.884 3.874 0 0 1.884-2.916 3.454-2.956 1.57-.04.53-1.77-1.172-3.524z" fill="#FFB030" fill-rule="nonzero"/><path d="M303.67 203.76c.075.101.135.211.177.327 1.527 1.635 2.34 3.16.873 3.198-1.368.038-3.006 2.263-3.4 2.828.013.043.029.085.048.127 0 0 1.905-2.914 3.492-2.955 1.587-.04.53-1.771-1.19-3.525z" fill="#000" fill-rule="nonzero" opacity=".1"/><path d="M305.734 204.67c0 .291-.042.53-.093.53-.05 0-.095-.232-.095-.53 0-.3.054-.156.104-.156.051 0 .084-.136.084.156zM306.188 205.561c-.28.25-.524.416-.546.34-.023-.074.19-.319.47-.572.28-.253.17-.067.192 0 .023.066.165-.02-.116.232z" fill="#FFD037" fill-rule="nonzero"/><path d="M299.662 203.76s-.865 1.04.396 2.606c1.262 1.566 2.307 2.895 1.888 3.874 0 0-1.906-2.916-3.46-2.956-1.555-.04-.53-1.77 1.176-3.524z" fill="#FFB030" fill-rule="nonzero"/><path d="M299.687 203.76c-.077.1-.137.21-.178.327-1.531 1.635-2.346 3.16-.875 3.198 1.369.038 3.014 2.263 3.406 2.828a1.01 1.01 0 01-.045.127s-1.929-2.914-3.501-2.955c-1.573-.04-.532-1.771 1.193-3.525z" fill="#000" fill-rule="nonzero" opacity=".1"/><path d="M298.344 204.67c0 .291.045.53.096.53.05 0 .096-.232.096-.53 0-.3-.054-.156-.105-.156-.05 0-.087-.136-.087.156zM297.89 205.561c.282.25.528.416.549.34.02-.074-.188-.319-.47-.572-.281-.253-.172-.067-.193 0-.02.066-.167-.02.115.232z" fill="#FFD037" fill-rule="nonzero"/><path d="M298.44 210.038s2.32-.071 3.024-.56c.705-.49 3.569-1.08 3.744-.299.175.782 3.487 3.92.868 3.94-2.619.021-6.09-.402-6.79-.82-.698-.417-.846-2.26-.846-2.26z" fill="#A8A8A8" fill-rule="nonzero"/><path d="M306.127 212.866c-2.62.02-6.09-.375-6.789-.765-.532-.298-.744-1.369-.816-1.861h-.082s.145 1.722.844 2.114c.699.393 4.169.785 6.791.765.757 0 1.017-.253 1.005-.62-.1.228-.39.364-.953.367z" fill="#000" fill-rule="nonzero" opacity=".2"/><ellipse fill="#FFB030" fill-rule="nonzero" opacity=".1" cx="30.6" cy="224.28" rx="10.8" ry="1.8"/><path d="M34.936 205.2s-14.846 7.749-7.175 16.87c0 0 .72 1.993 2.81 1.842 0 0-.42-.77 1.172-1.382a7.692 7.692 0 001.602-.862 3.791 3.791 0 001.436-1.938s3.038-4.106.686-11.7c0 0 .293-2.15.038-2.493l-1.805 2.498s1.866 1.267 2.077 3.12c0 0-1.942-3.114-2.361-2.761-.085.074-.897 1.367-.897 1.367s3.223 2.214 3.472 5.09c0 0-1.822-4.024-3.786-4.602l-1.11 2.03s3.53 2.17 3.93 5.438c0 0-2.052-4.144-4.144-4.978l-.826 2.142s3.402 2.188 3.715 4.905c0 0-2.848-4.543-3.873-4.401 0 0-.64 2.015-.554 2.634 0 0 2.405 1.625 2.45 3.22 0 0-2.222-2.832-2.564-2.646 0 0-.144 2.847.542 4.33 0 0-1.172-2.116-.985-4.33 0 0-1.172 1.006-1.424 2.318 0 0-.639-1.57 1.465-3.008 0 0 .2-2.216.44-2.489 0 0-2.277 1.122-3.247 2.504 0 0 .358-2.057 3.446-3.078l.785-2.172s-3.091 1.323-4.043 2.489c0 0 .682-2.043 4.283-3.022l1.07-2.001s-2.749.935-4.088 2c0 0 1.04-1.754 4.416-2.56l.879-1.251s-1.992.719-2.55.98c-.556.26-.667.127-.667.127a7.166 7.166 0 013.574-1.64s1.949-2.454 1.811-2.59z" fill="#FFB030" fill-rule="nonzero"/></g></svg>