<svg width="303" height="215" xmlns="http://www.w3.org/2000/svg"><g fill-rule="nonzero" fill="none"><path d="M302.795 182.53c-.091 16.369-9.853 22.03-21.855 21.963a33.507 33.507 0 01-2.483-.1c-10.829-.826-19.212-6.88-19.128-22.103.087-15.753 20.33-35.522 21.849-36.983l.002-.002.088-.083s21.617 20.942 21.527 37.309z" fill="#F1682E"/><path d="M280.162 201.985l8.01-11.062-8.036 12.28-.029 1.276a33.507 33.507 0 01-1.65-.085l.946-16.37-.006-.127.015-.024.09-1.547-7.92-12.4 7.95 11.241.019.328.715-12.368-6.768-12.806 6.864 10.632.816-25.646.003-.086v.084l-.225 20.228 6.852-7.982-6.89 9.724-.242 11.077 6.417-10.596-6.451 12.224-.134 6.16 9.31-14.747-9.358 16.895-.298 13.697z" fill="#3F3D56"/><circle fill="#2F2E41" cx="259.406" cy="43.528" r="14.549"/><circle fill="#FFB8B8" cx="257.241" cy="48.61" r="9.88"/><path d="M251.366 53.95s4.273 9.88 2.136 10.948c-2.136 1.068-3.204 5.875-3.204 5.875l5.608 11.749 7.743 4.806h4.54s4.539-20.294 2.937-22.697c-1.602-2.403-7.477-3.738-7.477-3.738s-1.335-3.204-.8-6.141c.533-2.938-11.483-.801-11.483-.801zM244.958 81.987l-6.943-5.607s-12.55-8.812-10.947-2.403c1.602 6.408 8.811 6.942 8.811 6.942l12.016 9.613-2.937-8.545z" fill="#FFB8B8"/><path d="M244.424 111.36s-3.204 13.35 0 31.508l1.335 7.21s0 5.607 1.335 7.743c0 0 3.471 31.775 5.34 31.775 1.87 0 7.744-1.068 8.278-1.87.534-.8-10.414-77.702-10.414-77.702l-5.874 1.335z" fill="#2F2E41"/><path d="M244.424 111.36s-3.204 13.35 0 31.508l1.335 7.21s0 5.607 1.335 7.743c0 0 3.471 31.775 5.34 31.775 1.87 0 7.744-1.068 8.278-1.87.534-.8-10.414-77.702-10.414-77.702l-5.874 1.335z" fill="#000" opacity=".1"/><path d="M253.193 187.463l-4.136 15.329s-8.273 4.866-3.163 5.84c5.11.973 10.219-.974 10.219-.974l2.433-7.056 2.433-1.46v7.543h.73l1.703-9.976s-.243-5.11-1.703-5.596c-1.46-.487-2.19-3.163-2.19-3.163l-6.326-.487z" fill="#2F2E41"/><path d="M253.193 187.463l-4.136 15.329s-8.273 4.866-3.163 5.84c5.11.973 10.219-.974 10.219-.974l2.433-7.056 2.433-1.46v7.543h.73l1.703-9.976s-.243-5.11-1.703-5.596c-1.46-.487-2.19-3.163-2.19-3.163l-6.326-.487z" fill="#000" opacity=".1"/><path d="M243.356 110.825s2.136 8.011 2.937 9.346c0 0 1.068 22.697 4.54 30.44l3.738 9.88s6.14 29.105 4.539 32.31c0 0 8.277 1.868 8.811 0 0 0-.267-15.488.534-17.624.802-2.136 2.137-13.885-4.272-22.43v-25.9s10.147-8.545 4.272-19.493c-5.874-10.948-25.1 3.471-25.1 3.471z" fill="#2F2E41"/><path d="M259.91 191.198l-4.538 16.822s-9.08 5.34-3.472 6.409c5.608 1.068 11.215-1.069 11.215-1.069l2.67-7.743 2.67-1.602v8.277h.802l1.869-10.947s-.267-5.608-1.87-6.142c-1.602-.534-2.403-3.471-2.403-3.471l-6.942-.534z" fill="#2F2E41"/><path d="M254.083 62.904s-6.722 3.863-6.722 4.13c0 .267.801 4.54.801 4.54s-8.278 8.277-2.67 15.487c0 0 1.869 1.335 1.869 5.607v4.272s-15.754 9.88-11.749 13.084c4.005 3.205 8.278 2.67 9.613 4.54 1.335 1.869 9.078-1.602 10.68-2.136 1.603-.534 1.87-1.069 3.205.8 1.335 1.87 8.811-1.334 8.811-1.334s4.807-1.336 5.875-1.336a3.694 3.694 0 001.869-.534l-11.482-11.748 5.741-14.553s-16.956-10.547-16.956-13.484c0-2.938 1.115-7.335 1.115-7.335z" fill="#3F3D56"/><path d="M264.45 63.563s-3.471 4.807-.8 11.482c2.67 6.675 6.942 14.419 6.942 14.419l-6.676 2.136h-6.141s-12.817-2.136-11.482 2.67c1.335 4.807 10.414 2.67 10.414 2.67h5.34s12.016 1.336 13.618-.8c0 0 4.272-.268 2.403-8.812-1.869-8.545-7.326-23.171-7.326-23.171l-6.292-.594z" fill="#FFB8B8"/><ellipse fill="#2F2E41" cx="255.319" cy="39.441" rx="9.318" ry="4.741"/><ellipse fill="#FFB8B8" cx="266.987" cy="47.943" rx="1.335" ry="2.937"/><circle fill="#2F2E41" cx="265.919" cy="30.586" r="8.011"/><circle fill="#F1682E" opacity=".3" cx="90.528" cy="49.881" r="32.865"/><circle fill="#F1682E" opacity=".3" cx="26.889" cy="141.305" r="19.42"/><circle fill="#F1682E" opacity=".3" cx="151.477" cy="141.305" r="39.737"/><path d="M19.758 77.094l-.585-.125c.125-.587.256-1.172.392-1.755l.582.136a96.31 96.31 0 00-.39 1.744z" fill="#FF773C"/><path d="M207.91 72.157a96.743 96.743 0 00-.987-3.417l.57-.176a97.24 97.24 0 01.995 3.438l-.577.155zm-186.892-.26l-.576-.158c.313-1.149.652-2.309 1.008-3.448l.57.178a96.271 96.271 0 00-1.002 3.427zm184.793-6.53a96.935 96.935 0 00-1.236-3.33l.556-.218c.432 1.1.85 2.228 1.244 3.351l-.564.198zm-182.663-.284l-.563-.199a97.382 97.382 0 011.26-3.362l.556.22a96.544 96.544 0 00-1.253 3.341zm180.067-6.329a96.494 96.494 0 00-1.48-3.231l.54-.26a97.127 97.127 0 011.488 3.253l-.548.238zM25.776 58.45l-.547-.24c.48-1.09.986-2.187 1.505-3.258l.538.26a96.591 96.591 0 00-1.496 3.238zm174.361-6.103a97.444 97.444 0 00-1.714-3.116l.518-.297a97.766 97.766 0 011.725 3.134l-.529.279zm-171.25-.314l-.528-.28a97.662 97.662 0 011.742-3.136l.517.3a96.667 96.667 0 00-1.731 3.116zm167.708-5.852c-.625-1.001-1.278-2.005-1.94-2.983l.495-.335a97.87 97.87 0 011.952 3.001l-.507.317zM32.46 45.866l-.505-.319a97.824 97.824 0 011.966-2.998l.494.336a97.467 97.467 0 00-1.955 2.98zm160.146-5.578a96.185 96.185 0 00-2.153-2.833l.469-.37c.74.937 1.468 1.896 2.167 2.85l-.483.353zM36.478 39.98l-.48-.354a97.809 97.809 0 012.18-2.846l.468.372a97.831 97.831 0 00-2.168 2.828zm151.72-5.277a97.454 97.454 0 00-2.356-2.67l.44-.403c.803.877 1.6 1.78 2.37 2.686l-.455.387zm-147.283-.297l-.454-.389a98.414 98.414 0 012.382-2.677l.44.405a97.876 97.876 0 00-2.368 2.66zm142.474-4.954a97.717 97.717 0 00-2.545-2.49l.41-.435a98.66 98.66 0 012.56 2.506l-.425.419zm-137.643-.28l-.424-.42a97.919 97.919 0 012.57-2.496l.409.437a97.417 97.417 0 00-2.555 2.48zm132.463-4.607a97.603 97.603 0 00-2.721-2.299l.376-.463a97.9 97.9 0 012.738 2.313l-.393.449zm-127.265-.257l-.392-.451a98.328 98.328 0 012.746-2.3l.375.465a97.775 97.775 0 00-2.729 2.286zm121.739-4.24a97.103 97.103 0 00-2.883-2.094l.342-.49a97.559 97.559 0 012.901 2.107l-.36.477zm-116.2-.231l-.358-.478a98.434 98.434 0 012.906-2.093l.34.491c-.97.671-1.94 1.371-2.888 2.08zm110.359-3.85a97.337 97.337 0 00-3.03-1.877l.304-.513a98.206 98.206 0 013.05 1.888l-.324.502zm-104.51-.202l-.322-.503a97.988 97.988 0 013.05-1.873l.303.515a97.1 97.1 0 00-3.031 1.861zm98.38-3.44a96.163 96.163 0 00-3.16-1.648l.266-.535A97.067 97.067 0 01161 11.82l-.286.524zm-92.252-.17l-.284-.526a97.91 97.91 0 013.178-1.643l.264.536a96.985 96.985 0 00-3.158 1.633zm85.87-3.01a96.066 96.066 0 00-3.275-1.412l.226-.553a96.58 96.58 0 013.296 1.42l-.247.545zm-79.496-.138l-.244-.545a97.582 97.582 0 013.288-1.404l.225.554a97.256 97.256 0 00-3.269 1.395zm72.894-2.563a96.853 96.853 0 00-3.374-1.165l.185-.569c1.132.368 2.274.763 3.394 1.173l-.205.561zM81.42 6.358l-.204-.562a96.757 96.757 0 013.382-1.156l.182.569c-1.12.36-2.251.746-3.36 1.149zm59.519-2.1a96.627 96.627 0 00-3.443-.91l.142-.58c1.154.283 2.32.59 3.464.916l-.163.575zM88.19 4.183l-.161-.575a97.72 97.72 0 013.466-.905l.14.58c-1.15.278-2.308.581-3.445.9zm45.832-1.614a97.005 97.005 0 00-3.5-.653l.098-.59c1.173.197 2.358.418 3.522.657l-.12.586zm-38.91-.057l-.119-.585a97.518 97.518 0 013.524-.646l.097.59a96.737 96.737 0 00-3.502.641zm31.887-1.119A97.78 97.78 0 00123.46 1l.055-.594c1.182.109 2.38.242 3.561.395l-.077.592zm-24.861-.035l-.075-.593a98.238 98.238 0 013.562-.385l.053.595c-1.179.106-2.37.235-3.54.383zm17.771-.62a98.107 98.107 0 00-3.558-.134l.011-.598c1.191.023 2.396.069 3.58.135l-.033.596zM109.23.72l-.031-.597a98.926 98.926 0 013.58-.124l.01.598a98.12 98.12 0 00-3.559.123z" fill="#F1682E"/><path d="M213.888 61.7a99.15 99.15 0 00-.382-1.745l.582-.134c.134.584.262 1.17.385 1.757l-.585.122zM214.694 100.66l-.586-.116a98.28 98.28 0 00.33-1.756l.588.105c-.105.591-.216 1.18-.332 1.767z" fill="#FF773C"/><path d="M114.43 194.785c-.65 0-1.298-.006-1.944-.019l.011-.597c1.182.023 2.371.024 3.554.005l.01.598c-.543.008-1.087.013-1.631.013zm5.203-.136l-.032-.597a97.648 97.648 0 003.544-.251l.053.595c-1.177.105-2.376.19-3.565.253zm-10.719-.017a99 99 0 01-3.564-.264l.055-.595c1.172.108 2.364.196 3.543.262l-.034.597zm17.837-.619l-.075-.593a97.332 97.332 0 003.516-.51l.096.59c-1.163.191-2.353.363-3.537.513zm-24.953-.04c-1.181-.152-2.37-.329-3.536-.524l.099-.589c1.158.193 2.34.369 3.513.52l-.076.594zm32.007-1.115l-.119-.586a96.337 96.337 0 003.469-.767l.14.582a98.025 98.025 0 01-3.49.771zm-39.057-.062a96.994 96.994 0 01-3.487-.784l.141-.58a96.42 96.42 0 003.466.778l-.12.586zm46.006-1.61l-.161-.575a96.192 96.192 0 003.402-1.021l.183.569a96.052 96.052 0 01-3.424 1.027zm-52.95-.085a97.007 97.007 0 01-3.43-1.041l.185-.569c1.126.365 2.273.714 3.408 1.035l-.163.575zm59.748-2.092l-.204-.562c1.105-.4 2.218-.826 3.31-1.267l.224.554c-1.099.444-2.22.873-3.33 1.275zm-66.564-.117a96.3 96.3 0 01-3.341-1.292l.225-.553c1.094.446 2.21.878 3.32 1.284l-.204.561zm73.176-2.554l-.244-.546a96.31 96.31 0 003.21-1.507l.263.536a97.765 97.765 0 01-3.23 1.517zm-79.807-.152a98.2 98.2 0 01-3.235-1.535l.266-.535a96.854 96.854 0 003.215 1.525l-.246.545zm86.21-3l-.284-.526a96.395 96.395 0 003.091-1.74l.303.516a97.67 97.67 0 01-3.11 1.75zm-92.62-.187a97.36 97.36 0 01-3.112-1.768l.305-.514a96.322 96.322 0 003.092 1.757l-.286.525zm98.775-3.428l-.32-.503c.989-.631 1.983-1.292 2.956-1.963l.34.492c-.98.675-1.98 1.34-2.976 1.974zm-104.931-.221a98.004 98.004 0 01-2.972-1.99l.341-.491c.969.675 1.963 1.34 2.954 1.979l-.323.502zm110.808-3.836l-.357-.479a97.305 97.305 0 002.807-2.174l.375.466a97.934 97.934 0 01-2.825 2.187zm-116.677-.253a97.73 97.73 0 01-2.818-2.202l.376-.464c.918.745 1.86 1.481 2.801 2.189l-.36.477zm122.244-4.224l-.39-.452c.89-.771 1.778-1.57 2.64-2.374l.408.437a97.536 97.536 0 01-2.658 2.389zm-127.797-.281a98.389 98.389 0 01-2.649-2.401l.41-.436c.857.807 1.743 1.61 2.632 2.387l-.393.45zm133.025-4.592l-.423-.422a98.14 98.14 0 002.463-2.56l.438.406a98.426 98.426 0 01-2.478 2.576zm-138.233-.305a98.683 98.683 0 01-2.466-2.587l.44-.404c.8.869 1.624 1.734 2.451 2.57l-.425.42zm143.093-4.937l-.453-.39a97.827 97.827 0 002.27-2.734l.467.373c-.74.925-1.508 1.85-2.284 2.751zm-147.928-.325a99.239 99.239 0 01-2.27-2.759l.468-.371a98.463 98.463 0 002.256 2.742l-.454.388zm152.395-5.26l-.48-.356c.705-.951 1.4-1.925 2.064-2.893l.493.338a98.057 98.057 0 01-2.077 2.911zm-156.832-.339a97.955 97.955 0 01-2.062-2.916l.494-.336a97.417 97.417 0 002.049 2.899l-.481.353zm160.878-5.56l-.504-.32a96.436 96.436 0 001.847-3.037l.517.3a97.3 97.3 0 01-1.86 3.058zm-164.894-.345a97.695 97.695 0 01-1.842-3.057l.518-.3a97.735 97.735 0 001.83 3.04l-.506.317zm168.5-5.835l-.528-.282a97.26 97.26 0 001.62-3.167l.537.262a97.016 97.016 0 01-1.63 3.187zm-172.07-.346a97.663 97.663 0 01-1.612-3.183l.538-.26a97.092 97.092 0 001.602 3.164l-.528.28zm175.21-6.086l-.546-.243a96.927 96.927 0 001.382-3.28l.555.222a97.342 97.342 0 01-1.39 3.3zm-178.316-.337a97.126 97.126 0 01-1.373-3.292l.556-.22a96.293 96.293 0 001.364 3.272l-.547.24zm180.975-6.314l-.563-.201c.398-1.115.78-2.25 1.137-3.375l.57.18a96.882 96.882 0 01-1.144 3.396zm-183.598-.317a96.794 96.794 0 01-1.128-3.392l.57-.178c.351 1.125.729 2.26 1.122 3.371l-.564.2zm185.758-6.516l-.576-.159c.312-1.133.609-2.29.88-3.441l.583.138a96.84 96.84 0 01-.887 3.462zm-187.89-.306a97.642 97.642 0 01-.873-3.462l.582-.135a96.73 96.73 0 00.868 3.44l-.576.157z" fill="#F1682E"/><path d="M18.81 116.015a97.841 97.841 0 01-.326-1.769l.589-.102c.102.587.21 1.173.323 1.757l-.586.114zM163.208 116.658l-.555-.22c.216-.548.427-1.109.626-1.668l.563.2a52.158 52.158 0 01-.634 1.688z" fill="#FF773C"/><path d="M114.43 149.82c-.716 0-1.439-.015-2.147-.043l.024-.597c1.176.047 2.378.056 3.557.023l.017.597c-.483.014-.966.02-1.452.02zm5.042-.24l-.057-.594a51.976 51.976 0 003.528-.46l.097.59a52.24 52.24 0 01-3.568.464zm-10.778-.07a52.492 52.492 0 01-3.561-.512l.105-.588c1.161.208 2.346.378 3.521.506l-.065.594zm17.875-1.102l-.138-.582c1.15-.273 2.304-.589 3.43-.94l.178.571c-1.14.355-2.307.675-3.47.95zm-24.955-.166a52.38 52.38 0 01-3.459-.997l.186-.568a51.76 51.76 0 003.419.986l-.146.58zm31.822-1.973l-.217-.557c1.1-.428 2.2-.9 3.269-1.403l.254.54c-1.081.51-2.194.987-3.306 1.42zm-38.662-.258a52.142 52.142 0 01-3.288-1.464l.262-.537a51.72 51.72 0 003.25 1.448l-.224.553zm45.17-2.806l-.292-.522a52.39 52.39 0 003.045-1.84l.327.501c-1 .652-2.037 1.278-3.08 1.86zm-51.638-.345a52.773 52.773 0 01-3.055-1.902l.333-.496c.98.658 1.997 1.29 3.02 1.88l-.298.518zm57.664-3.583l-.36-.477a52.653 52.653 0 002.766-2.238l.391.451a53.234 53.234 0 01-2.797 2.264zm-63.638-.426a52.57 52.57 0 01-2.767-2.3l.398-.447c.88.785 1.8 1.55 2.736 2.275l-.367.472zm69.072-4.287l-.422-.423a52.471 52.471 0 002.436-2.594l.45.394a53.081 53.081 0 01-2.464 2.623zm-74.443-.497a52.949 52.949 0 01-2.428-2.656l.454-.388a52.358 52.358 0 002.401 2.626l-.427.418zm79.185-4.911l-.475-.363a52.166 52.166 0 002.06-2.901l.5.329a52.583 52.583 0 01-2.085 2.935zm-83.855-.56c-.713-.96-1.4-1.957-2.044-2.962l.503-.323a52.045 52.045 0 002.02 2.929l-.48.356zm87.816-5.445l-.52-.294a52.076 52.076 0 001.644-3.156l.539.257a52.526 52.526 0 01-1.663 3.193zm-91.696-.612a52.526 52.526 0 01-1.619-3.213l.543-.25a51.905 51.905 0 001.6 3.176l-.524.287z" fill="#F1682E"/><path d="M65.39 115.988a52.849 52.849 0 01-.61-1.697l.566-.192c.191.562.394 1.126.603 1.677l-.559.212zM66.314 78.063l-.555-.223c.224-.557.46-1.116.702-1.661l.546.242a51.71 51.71 0 00-.693 1.642z" fill="#FF773C"/><path d="M68.577 73.184l-.528-.28a52.394 52.394 0 011.812-3.155l.508.315a52.003 52.003 0 00-1.792 3.12zm91.233-.87a51.869 51.869 0 00-1.85-3.085l.501-.325a52.46 52.46 0 011.872 3.12l-.523.29zm-87.438-5.237l-.485-.35a52.887 52.887 0 012.23-2.875l.46.383a52.222 52.222 0 00-2.205 2.842zm83.528-.797a52.45 52.45 0 00-2.259-2.8l.452-.39c.791.914 1.56 1.866 2.285 2.831l-.478.36zm-78.927-4.728l-.432-.413a53.082 53.082 0 012.605-2.54l.402.441a52.341 52.341 0 00-2.575 2.512zm74.222-.708a52.45 52.45 0 00-2.622-2.463l.394-.45c.908.797 1.8 1.635 2.652 2.491l-.424.422zM82.29 56.712l-.37-.468a52.952 52.952 0 012.929-2.158l.337.493a52.283 52.283 0 00-2.896 2.133zm63.497-.606a52.283 52.283 0 00-2.936-2.078l.328-.5a52.79 52.79 0 012.97 2.102l-.362.476zm-57.564-3.454l-.303-.516a52.651 52.651 0 013.2-1.731l.266.535a51.99 51.99 0 00-3.163 1.712zm51.555-.493a51.918 51.918 0 00-3.196-1.652l.256-.54a52.592 52.592 0 013.232 1.67l-.292.522zM94.66 49.452l-.228-.552a52.214 52.214 0 013.41-1.27l.188.566c-1.133.378-2.266.8-3.37 1.256zm38.62-.37a51.585 51.585 0 00-3.394-1.19l.178-.57c1.151.36 2.307.764 3.433 1.204l-.218.557zm-31.8-1.902l-.15-.58c1.17-.3 2.365-.563 3.554-.782l.108.588a51.69 51.69 0 00-3.513.774zm24.937-.238a51.805 51.805 0 00-3.527-.706l.097-.59c1.192.196 2.392.436 3.568.714l-.138.582zm-17.867-1.063l-.067-.594a53.184 53.184 0 013.627-.283l.026.597a52.64 52.64 0 00-3.586.28zm10.773-.102a52.51 52.51 0 00-3.59-.212l.014-.597c1.21.03 2.432.102 3.632.214l-.056.595z" fill="#F1682E"/><path d="M162.174 77.166a51.666 51.666 0 00-.723-1.629l.541-.252c.252.54.498 1.095.733 1.647l-.55.234z" fill="#FF773C"/><path d="M169.888 97.315a3.39 3.39 0 102.383.993 3.341 3.341 0 00-2.383-.993zM156.37 97.315a3.39 3.39 0 102.384.993 3.359 3.359 0 00-2.383-.993z" fill="#3F3D56"/><path d="M163.13 78.563c-9.406 0-17.03 7.625-17.03 17.03 0 9.405 7.624 17.03 17.03 17.03 9.404 0 17.029-7.625 17.029-17.03 0-9.405-7.625-17.03-17.03-17.03zm3.309 7.102a1.629 1.629 0 011.644 1.644 1.655 1.655 0 11-1.644-1.644zM156.37 105.52a4.827 4.827 0 114.824-4.824 4.84 4.84 0 01-4.824 4.824zm7.585-9.618v4.654a.827.827 0 11-1.654 0V97.15c0-.678-.828-.828-3.18-2.183-.306-.18-.957-.501-.957-1.401.005-.434.177-.849.48-1.158l3.708-3.573a1.618 1.618 0 012.56.34l1.526 3.109h2.482a.827.827 0 010 1.654h-2.969c-.553 0-.998-1.189-1.965-2.663l-2.528 2.663c.925.724 2.497 1.283 2.497 1.965zm5.932 9.613a4.825 4.825 0 114.824-4.824 4.84 4.84 0 01-4.824 4.824zM211.53 78.563c-9.405 0-17.03 7.625-17.03 17.03 0 9.405 7.625 17.03 17.03 17.03 9.405 0 17.03-7.625 17.03-17.03 0-9.405-7.625-17.03-17.03-17.03zm-4.514 12.174a2.648 2.648 0 11-2.71 2.648 2.676 2.676 0 012.71-2.648zm14.442 11.475h-1.804v-2.648h-16.248v2.648h-1.804V88.974h1.804v7.943h7.22v-6.18h7.223a3.57 3.57 0 013.61 3.532v7.943zM23.028 91.043h-5.067a.207.207 0 00-.207.206v7.24c0 .114.093.206.207.207h5.067a.83.83 0 00.828-.828V91.87a.83.83 0 00-.828-.827zM21.89 100.247a1.243 1.243 0 10.202 2.477 1.243 1.243 0 00-.201-2.477zM11.968 100.247a1.243 1.243 0 10.201 2.477 1.243 1.243 0 00-.201-2.477zM16.1 91.043h-5.058a.84.84 0 00-.838.837v5.978a.84.84 0 00.838.838h5.057a.207.207 0 00.207-.207v-7.24a.207.207 0 00-.207-.206z" fill="#3F3D56"/><path d="M17.03 78.563C7.625 78.563 0 86.188 0 95.593c0 9.405 7.625 17.03 17.03 17.03 9.405 0 17.03-7.625 17.03-17.03 0-9.405-7.625-17.03-17.03-17.03zm8.274 23.96a2.074 2.074 0 01-2.069 2.068h-12.41a2.074 2.074 0 01-2.069-2.069V88.25a1.66 1.66 0 011.655-1.655h13.238a1.66 1.66 0 011.655 1.655v14.272z" fill="#3F3D56"/><path d="M23.08 88.043h-12.1a.726.726 0 100 1.448h12.1a.726.726 0 100-1.448zM68.005 96.058c-.341 0-.62.507-.62 1.138 0 .63.279 1.138.62 1.138.341 0 .62-.507.62-1.138 0-.63-.279-1.138-.62-1.138zM63.454 96.058c-.34 0-.62.507-.62 1.138 0 .63.28 1.138.62 1.138.342 0 .62-.507.62-1.138 0-.63-.278-1.138-.62-1.138z" fill="#3F3D56"/><path d="M65.73 78.563c-9.406 0-17.03 7.625-17.03 17.03 0 9.405 7.624 17.03 17.03 17.03 9.405 0 17.03-7.625 17.03-17.03 0-9.405-7.625-17.03-17.03-17.03zm-7.964 16.45l.941-5.005c.243-1.36.874-2.43 2.058-2.43h1.78l.103-.409a1.654 1.654 0 011.603-1.246h2.947c.755 0 1.415.51 1.603 1.241l.104.414h1.789c1.158 0 1.774 1.05 2.063 2.425v.005l.946 5.011a.206.206 0 01-.29.228l-1.313-.605a.197.197 0 01-.119-.15l-.837-4.427c-.155-.569-.373-.827-.833-.827h-9.158c-.455 0-.703.274-.832.827l-.838 4.427a.208.208 0 01-.119.15l-1.308.6a.208.208 0 01-.29-.228zm18.239 3.222l-2.829 7.028c-1.422 0-2.932-1.138-2.932-1.138-.93.47-2.746.885-4.1.962-.145.005-.285.01-.414.01-.13 0-.27 0-.414-.01-1.355-.077-3.17-.496-4.1-.962 0 0-1.51 1.138-2.933 1.138l-2.828-7.028a.934.934 0 01.476-1.195l9.623-4.42a.406.406 0 01.346 0l9.629 4.42a.934.934 0 01.476 1.195zM114.43 78.563c-9.406 0-17.03 7.625-17.03 17.03 0 9.405 7.624 17.03 17.03 17.03 9.405 0 17.03-7.625 17.03-17.03 0-9.405-7.625-17.03-17.03-17.03zm7.844 18.69c-.175 0-.76-.005-.93-.016l-3.356-.087a.102.102 0 00-.088.046l-5.037 7.53a.824.824 0 01-.698.382h-1.225c-.29 0-.388-.29-.285-.559l2.59-7.39a.103.103 0 00-.092-.139l-6.293-.14a.424.424 0 00-.342.16l-1.95 2.364a.836.836 0 01-.65.316h-.864a.206.206 0 01-.197-.275l1.03-3.552a.843.843 0 000-.615l-1.03-3.553a.206.206 0 01.197-.274h.868a.82.82 0 01.652.315l1.913 2.327a.417.417 0 00.342.16l6.329-.092a.101.101 0 00.093-.14l-2.59-7.384c-.104-.27-.006-.559.284-.559h1.225c.283 0 .546.145.698.383l5.032 7.534c.018.03.052.049.088.047l3.356-.088c.165-.01.755-.016.93-.016 2.296 0 3.74.745 3.74 1.66 0 .915-1.449 1.655-3.74 1.655z" fill="#3F3D56"/><path d="M19.621 152.998a3.585 3.585 0 110-7.17 3.585 3.585 0 010 7.17zm0-6.573a2.988 2.988 0 100 5.975 2.988 2.988 0 000-5.975zM95.21 72.628a3.585 3.585 0 110-7.17 3.585 3.585 0 010 7.17zm0-6.573a2.988 2.988 0 100 5.976 2.988 2.988 0 000-5.976zM161.977 171.034l-4.023-4.313 4.313-4.023 4.023 4.314-4.313 4.022zm-3.382-4.29l3.404 3.65 3.65-3.405-3.404-3.65-3.65 3.405z" fill="#F0F0F0"/></g></svg>