<svg xmlns="http://www.w3.org/2000/svg" width="284" height="245"><g fill="none" transform="matrix(-1 0 0 1 284 0)"><path fill="#E6E6E6" d="M58.333 70.753v-3.976H42.95v3.976h-3.076V14.78H6.956v93.9h59.991V70.753z"/><path fill="#F2F2F2" d="M172.195 59.991l-.056.057v-.057.058c-.761.774-9.23 9.523-12.515 18.396a41.603 41.603 0 00-1.862-2.045l-.037.037V76.4v.038c-.62.63-9.05 9.34-9.05 16.242 0 6.663 3.518 9.293 8.048 9.629l-.329 6.573h.918l.102-6.54c.115.003.231.005.348.005 3.347 0 6.269-1.115 7.846-3.982a15.598 15.598 0 005.002 1.156l-.5 10.028h1.4l.154-9.977c.177.004.353.007.531.007 7.658 0 13.865-3.817 13.865-14.749s-13.865-24.839-13.865-24.839zm-32.976 8.056V62.46h-17.285v5.587h-8.026v-22.1h-7.716v-8.561H88.907v8.562h-8.025V80.64a47.408 47.408 0 00-3.738-4.115l-.037.036v-.036l-.001.037c-.636.613-9.29 9.073-9.29 15.776 0 6.472 3.613 9.027 8.262 9.353l-.337 6.384h.942l.104-6.352c.119.003.238.005.357.005a12.51 12.51 0 003.738-.524v8.345h66.053V68.047h-7.716zm130.237-7.95l-.056.054v-.054l-.001.056c-.794.771-9.915 9.768-12.948 18.61v-4.384L227.34 30.43l-29.109 43.95v33.037h58.219V90.335c1.86 5.2 6.2 7.452 11.407 7.82l-.505 9.656h1.412l.156-9.606c.178.004.356.006.535.006 7.722 0 13.981-3.675 13.981-14.2 0-10.525-13.98-23.914-13.98-23.914z"/><ellipse cx="44.341" cy="117.809" fill="#F2F2F2" rx="38.255" ry="3.043"/><ellipse cx="259.093" cy="155.63" fill="#F2F2F2" rx="16.519" ry="1.739"/><path fill="#339B72" d="M265.18 147.736c0 4.562-2.726 6.155-6.087 6.155a10.524 10.524 0 01-.696-.024c-3.033-.213-5.39-1.888-5.39-6.13 0-4.391 5.637-9.931 6.06-10.341h.002l.024-.024s6.086 5.803 6.086 10.364z"/><path fill="#3F3D56" d="M258.986 153.195l2.275-3.096-2.281 3.436-.006.356a9.148 9.148 0 01-.473-.021l.245-4.565-.001-.035.004-.007.023-.431-2.287-3.444 2.294 3.12.005.092.186-3.449-1.958-3.559 1.982 2.954.193-7.15v-.024.023l-.032 5.638 1.95-2.235-1.958 2.721-.051 3.088 1.82-2.963-1.828 3.417-.029 1.717 2.642-4.125-2.652 4.724-.063 3.818z"/><ellipse cx="31.735" cy="213.448" fill="#F2F2F2" rx="31.735" ry="3.043"/><path fill="#339B72" d="M42.603 199.613c0 8.643-4.866 11.66-10.868 11.66a17.691 17.691 0 01-1.243-.044c-5.417-.405-9.625-3.578-9.625-11.616 0-8.319 10.066-18.816 10.823-19.593v-.001l.045-.045s10.868 10.996 10.868 19.639z"/><path fill="#3F3D56" d="M31.99 209.956l3.793-5.866-3.802 6.51-.01.674c-.266-.006-.529-.02-.788-.04l.408-8.649-.003-.067.007-.012.039-.817-3.812-6.527 3.824 5.914.009.174.309-6.535-3.264-6.744 3.303 5.597.322-13.548.001-.046v.045l-.053 10.683 3.248-4.235-3.262 5.155-.086 5.851 3.034-5.615-3.046 6.476-.048 3.253 4.403-7.816-4.42 8.95-.106 7.235z"/><path fill="#339B72" d="M86.944 78.948c0 17.526-10.51 23.646-23.475 23.646-12.965 0-23.475-6.12-23.475-23.646 0-17.527 23.475-39.823 23.475-39.823S86.944 61.42 86.944 78.948z"/><path fill="#3F3D56" d="M65.23 99.657l.245-14.606L75.64 66.98 65.513 82.758l.11-6.567 7.007-13.074-6.978 11.335.198-11.811 7.502-10.408-7.471 8.55.123-21.66-.776 28.674.064-1.183-7.628-11.344 7.506 13.615-.71 13.192-.022-.35-8.794-11.939 8.767 13.175-.089 1.65-.015.025.007.136-1.803 33.469h2.409l.289-17.288 8.746-13.143z"/><path fill="#339B72" d="M47.82 78.948c0 17.526-10.51 23.646-23.476 23.646C11.38 102.594.87 96.474.87 78.948c0-17.527 23.475-39.823 23.475-39.823S47.82 61.42 47.82 78.948z"/><path fill="#3F3D56" d="M23.498 99.657l.244-14.606 10.166-18.07L23.78 82.758l.11-6.567 7.007-13.074-6.978 11.335.198-11.811 7.502-10.408-7.471 8.55.123-21.66-.776 28.674.064-1.183-7.628-11.344 7.506 13.615-.71 13.192-.022-.35-8.794-11.939 8.767 13.175-.088 1.65-.016.025.007.136-1.803 33.469h2.409l.289-17.288 8.746-13.143z"/><path fill="#F2F2F2" d="M79.988 54.552c0 24.009-14.208 32.392-31.734 32.392-17.527 0-31.735-8.383-31.735-32.392C16.52 30.543 48.254 0 48.254 0s31.734 30.543 31.734 54.552z"/><path fill="#3F3D56" d="M45.996 90.512l.308-19.742 12.818-24.425-12.77 21.328.138-8.877 8.835-17.671-8.798 15.321.25-15.965 9.46-14.068-9.422 11.557.156-29.276-.978 38.756.08-1.599-9.618-15.333L45.92 48.92l-.896 17.832-.027-.474-11.088-16.136L44.963 67.95l-.113 2.23-.02.034.01.183-2.274 45.239h3.038l.364-23.367 11.028-17.764zm72.063-22.331l14.185-8.261 20.171 35.243-14.185 8.26z"/><path fill="#4AB527" d="M123.463 75.276l11.288-6.821.151.255-11.288 6.821zm1.795 2.53l11.289-6.822.151.255-11.288 6.822zm1.214 2.141l11.288-6.821.152.255-11.289 6.822zm1.82 2.754l11.288-6.822.152.256-11.289 6.821zm2.73 3.978l11.288-6.822.152.255-11.289 6.822z"/><path fill="#2F2E41" d="M184.005 103.23s7.968-3.779 13.639-2.37l-13.64-36.274V60.86l19.306 45.296c4.827 8.972 10.93 29.42.525 31.062-11.804 1.863-33.05 8.847-33.05 8.847l-4.722-40.507 17.942-2.328z"/><path fill="#FFB9B9" d="M139.11 93.405s-12.797-16.163-16.115-10.458c-3.318 5.704 14.9 15.3 14.9 15.3l1.215-4.842z"/><path fill="#D0CDE1" d="M143.458 92.265l-5.314-2.713s-3.38 8.138-3.38 9.495c0 1.356 5.312 1.808 5.312 1.808l3.382-8.59z"/><ellipse cx="161.716" cy="44.776" fill="#FFB9B9" rx="12.172" ry="12.607"/><path fill="#FFB9B9" d="M170.342 44.341s5.276 16.001 9.113 16.971c3.837.97-14.868 8.243-14.868 8.243s-5.756-13.576-8.634-16.97c-2.878-3.395 14.39-8.244 14.39-8.244z"/><path fill="#000" d="M199.92 134.186c9.884-1.62 4.429-21.39-.201-30.723.42.328.796.71 1.119 1.137 4.585 6.105 13.755 32.404 2.292 34.282-11.463 1.879-32.096 8.923-32.096 8.923l-.624-5.559c5.896-1.938 20.522-6.587 29.51-8.06z" opacity=".1"/><path fill="#2F2E41" d="M216.144 213.882s11.66 9.653 10.727 10.618c-.933.965-10.727 16.41-19.121 17.857-8.395 1.448-12.126 1.448-12.126 0s2.332-4.826 6.53-6.274c4.196-1.448 4.663-11.1 4.196-13.03-.466-1.931 9.794-9.17 9.794-9.17z"/><path fill="#2F2E41" d="M180.64 146.066l7.514 34.701s30.994 34.239 30.055 34.702c-.94.462-10.332 9.716-12.21 9.716-1.879 0-34.282-36.09-34.282-36.09l-11.74-30.074 20.663-12.955z"/><path fill="#000" d="M180.64 146.066l7.514 34.701s30.994 34.239 30.055 34.702c-.94.462-10.332 9.716-12.21 9.716-1.879 0-34.282-36.09-34.282-36.09l-11.74-30.074 20.663-12.955z" opacity=".1"/><path fill="#2F2E41" d="M186.93 133.834s-3.62 16.06-13.573 26.925c-9.953 10.864-14.477 33.065-14.477 33.065l-9.952 44.403s-17.644-2.362-16.74-7.086l9.501-39.206s10.858-54.322 16.739-58.1c5.881-3.78 28.502 0 28.502 0z"/><path fill="#2F2E41" d="M148.012 233.05s2.723 9.264.908 10.24c-1.816.974-34.041 2.924-35.856-3.901 0 0-.908-3.413 6.354-3.413 7.262 0 14.978-7.313 14.978-7.313l13.616 4.388z"/><path fill="#575A89" d="M162.625 66.872s12.147-12.108 15.417-11.177c3.27.932 3.27 5.588 3.27 5.588s10.28 1.397 9.345 34.926c-.935 33.53 8.41 37.255 5.139 39.118-3.27 1.862-40.646 10.245-42.048 1.862-1.401-8.382-.934-40.514 2.803-50.759 3.738-10.245 8.41-16.764 6.074-19.558z"/><path fill="#575A89" d="M179.163 68.767s14.223 6.707 6.163 19.64c-8.06 12.934-14.223 26.826-22.757 26.347-8.535-.479-21.81-8.623-25.603-8.623-3.793 0 1.422-13.891 4.267-14.37 2.845-.48 16.12 7.664 16.12 7.664s4.741-32.574 21.81-30.658z"/><path fill="#2F2E41" d="M168.448 45.637c-1.042-.059-2.06.276-3.094.406-3.701.467-7.552-2.085-8.37-5.548a4.104 4.104 0 00-.428-1.325c-.57-.884-1.867-1.053-2.937-.85-1.07.204-2.083.68-3.172.734-1.682.084-3.297-.9-4.193-2.255-.896-1.355-1.15-3.022-1.03-4.618l.807.804a3.72 3.72 0 00.365-2.115 2.679 2.679 0 012.446.594c.711.072.175-1.253.703-1.71.221-.192.56-.156.86-.153 1.512.014 2.736-1.086 3.927-1.97a17.11 17.11 0 017.05-3.056c1.708-.317 3.524-.368 5.143.237 1.33.496 2.444 1.4 3.474 2.341 2.535 2.317 4.78 5.04 5.836 8.228.857 2.612.882 5.407.07 8.033-.425 1.363-1.707 6.032-3.582 6.14-2.356.137-.942-3.75-3.875-3.917z"/></g></svg>