<svg xmlns="http://www.w3.org/2000/svg" width="320" height="247" viewBox="0 0 320 247">
    <g fill="none" fill-rule="nonzero">
        <path fill="#A7104F" d="M319.257 212.342c-.097 17.531-10.553 23.594-23.408 23.523a43.559 43.559 0 0 1-.892-.015 35.888 35.888 0 0 1-1.768-.091c-11.598-.886-20.577-7.37-20.486-23.674.093-16.873 21.775-38.046 23.4-39.612l.004-.001.093-.09s23.154 22.43 23.057 39.96z"/>
        <path fill="#3F3D56" d="M295.016 233.179l8.58-11.848-8.608 13.153-.03 1.366a35.888 35.888 0 0 1-1.769-.091l1.014-17.533-.006-.136.016-.026.096-1.657-8.483-13.28 8.516 12.04.02.35.765-13.246-7.249-13.716 7.352 11.387.874-27.469.003-.091v.09l-.24 21.665 7.338-8.549-7.38 10.415-.259 11.863 6.874-11.348-6.91 13.093-.144 6.597 9.971-15.795-10.022 18.096-.319 14.67z"/>
        <circle cx="272.785" cy="63.463" r="15.582" fill="#2F2E41"/>
        <circle cx="270.466" cy="68.906" r="10.582" fill="#FFB8B8"/>
        <path fill="#FFB8B8" d="M264.174 74.626s4.576 10.582 2.288 11.726c-2.288 1.144-3.432 6.291-3.432 6.291l6.006 12.584 8.294 5.148h4.862s4.861-21.735 3.145-24.31c-1.715-2.573-8.007-4.003-8.007-4.003s-1.43-3.432-.858-6.578c.572-3.146-12.298-.858-12.298-.858zM257.31 104.655l-7.435-6.006s-13.442-9.437-11.726-2.574c1.716 6.864 9.438 7.436 9.438 7.436l12.87 10.296-3.147-9.152z"/>
        <path fill="#2F2E41" d="M256.738 136.114s-3.431 14.3 0 33.747l1.43 7.722s0 6.006 1.43 8.294c0 0 3.718 34.032 5.72 34.032s8.294-1.144 8.866-2.002c.572-.857-11.154-83.223-11.154-83.223l-6.292 1.43z"/>
        <path fill="#000" d="M256.738 136.114s-3.431 14.3 0 33.747l1.43 7.722s0 6.006 1.43 8.294c0 0 3.718 34.032 5.72 34.032s8.294-1.144 8.866-2.002c.572-.857-11.154-83.223-11.154-83.223l-6.292 1.43z" opacity=".1"/>
        <path fill="#2F2E41" d="M266.13 217.625l-4.43 16.418s-8.86 5.212-3.387 6.255c5.472 1.042 10.945-1.043 10.945-1.043l2.606-7.557 2.606-1.564v8.079h.782l1.824-10.685s-.26-5.472-1.824-5.994c-1.564-.52-2.346-3.387-2.346-3.387l-6.775-.522z"/>
        <path fill="#000" d="M266.13 217.625l-4.43 16.418s-8.86 5.212-3.387 6.255c5.472 1.042 10.945-1.043 10.945-1.043l2.606-7.557 2.606-1.564v8.079h.782l1.824-10.685s-.26-5.472-1.824-5.994c-1.564-.52-2.346-3.387-2.346-3.387l-6.775-.522z" opacity=".1"/>
        <path fill="#2F2E41" d="M255.594 135.542s2.288 8.58 3.146 10.01c0 0 1.144 24.309 4.862 32.603l4.004 10.581s6.578 31.173 4.862 34.605c0 0 8.866 2.002 9.438 0 0 0-.286-16.587.572-18.875.858-2.288 2.288-14.872-4.576-24.023v-27.741s10.867-9.152 4.576-20.878c-6.292-11.725-26.884 3.718-26.884 3.718z"/>
        <path fill="#2F2E41" d="M273.326 221.625l-4.862 18.018s-9.724 5.72-3.718 6.864c6.006 1.144 12.012-1.144 12.012-1.144l2.86-8.294 2.86-1.716v8.866h.858l2.001-11.726s-.286-6.006-2.001-6.578c-1.716-.572-2.574-3.718-2.574-3.718l-7.436-.572z"/>
        <path fill="#3F3D56" d="M267.084 84.216s-7.2 4.138-7.2 4.424c0 .286.858 4.861.858 4.861s-8.865 8.866-2.86 16.588c0 0 2.002 1.43 2.002 6.006v4.576s-16.873 10.581-12.583 14.013c4.29 3.432 8.865 2.86 10.295 4.862 1.43 2.002 9.724-1.716 11.44-2.288 1.716-.572 2.002-1.144 3.432.858 1.43 2.002 9.438-1.43 9.438-1.43s5.147-1.43 6.291-1.43a3.956 3.956 0 0 0 2.002-.572l-12.297-12.583 6.149-15.587s-18.16-11.297-18.16-14.442c0-3.146 1.193-7.856 1.193-7.856z"/>
        <path fill="#FFB8B8" d="M278.188 84.922s-3.718 5.148-.858 12.297c2.86 7.15 7.436 15.444 7.436 15.444l-7.15 2.288h-6.578s-13.728-2.288-12.298 2.86c1.43 5.148 11.154 2.86 11.154 2.86h5.72s12.87 1.43 14.585-.858c0 0 4.576-.286 2.574-9.438-2.002-9.152-7.847-24.817-7.847-24.817l-6.738-.636z"/>
        <ellipse cx="268.408" cy="59.085" fill="#2F2E41" rx="9.98" ry="5.077"/>
        <ellipse cx="280.905" cy="68.191" fill="#FFB8B8" rx="1.43" ry="3.146"/>
        <circle cx="279.761" cy="49.602" r="8.58" fill="#2F2E41"/>
        <circle cx="96.96" cy="53.425" r="35.2" fill="#A7104F" opacity=".3"/>
        <circle cx="28.8" cy="151.345" r="20.8" fill="#A7104F" opacity=".3"/>
        <circle cx="162.24" cy="151.345" r="42.56" fill="#A7104F" opacity=".3"/>
        <path fill="#A7104F" d="M21.162 82.572l-.626-.134c.134-.628.273-1.255.419-1.88l.623.145c-.144.621-.283 1.244-.416 1.869zM222.684 77.284c-.328-1.22-.685-2.45-1.058-3.66l.61-.189c.377 1.217.736 2.456 1.066 3.683l-.618.166zm-200.172-.28l-.618-.168c.335-1.23.698-2.473 1.08-3.693l.61.191c-.378 1.213-.74 2.447-1.072 3.67zm197.923-6.992c-.42-1.195-.865-2.395-1.325-3.567l.596-.233c.463 1.179.911 2.386 1.332 3.589l-.603.211zm-195.642-.304l-.604-.214c.427-1.204.88-2.415 1.35-3.6l.596.235a103.403 103.403 0 0 0-1.342 3.579zm192.861-6.779a103.351 103.351 0 0 0-1.584-3.461l.577-.277c.55 1.147 1.087 2.319 1.594 3.482l-.587.256zm-190.046-.325l-.586-.258a104.405 104.405 0 0 1 1.612-3.49l.576.28a103.454 103.454 0 0 0-1.602 3.468zm186.75-6.538a104.37 104.37 0 0 0-1.836-3.336l.555-.32c.632 1.101 1.254 2.23 1.847 3.358l-.566.298zM30.94 55.731l-.566-.3a104.602 104.602 0 0 1 1.865-3.36l.554.321a103.536 103.536 0 0 0-1.853 3.339zm179.623-6.27a103.943 103.943 0 0 0-2.076-3.194l.53-.358a104.823 104.823 0 0 1 2.09 3.214l-.544.339zm-175.795-.336l-.542-.341a104.775 104.775 0 0 1 2.106-3.212l.53.36a104.392 104.392 0 0 0-2.094 3.193zm171.524-5.974a103.02 103.02 0 0 0-2.306-3.035l.503-.396c.792 1.003 1.573 2.03 2.32 3.053l-.517.378zm-167.222-.33l-.515-.38a104.758 104.758 0 0 1 2.336-3.048l.5.398c-.787.99-1.568 2.009-2.32 3.03zm162.5-5.653a104.38 104.38 0 0 0-2.523-2.86l.471-.431c.86.939 1.714 1.906 2.539 2.876l-.488.415zM43.821 36.85l-.486-.417c.829-.966 1.687-1.931 2.552-2.868l.47.434c-.86.931-1.713 1.89-2.536 2.85zm152.598-5.306c-.89-.903-1.807-1.8-2.726-2.668l.44-.466a105.67 105.67 0 0 1 2.742 2.685l-.456.449zm-147.424-.3l-.454-.45c.899-.906 1.825-1.805 2.753-2.673l.438.467c-.923.863-1.844 1.757-2.737 2.656zm141.875-4.935a104.539 104.539 0 0 0-2.914-2.462l.403-.496c.988.804 1.975 1.637 2.933 2.477l-.422.481zm-136.307-.275l-.42-.483c.962-.836 1.951-1.665 2.94-2.464l.403.498c-.984.794-1.967 1.618-2.923 2.449zm130.389-4.54a104.003 104.003 0 0 0-3.088-2.244l.366-.524a104.49 104.49 0 0 1 3.107 2.256l-.385.511zm-124.457-.249l-.383-.512c1.02-.764 2.068-1.518 3.112-2.241l.364.526a104.113 104.113 0 0 0-3.093 2.227zm118.2-4.123a104.255 104.255 0 0 0-3.245-2.01l.326-.55c1.096.651 2.195 1.332 3.266 2.023l-.347.537zm-111.935-.216l-.345-.54a104.95 104.95 0 0 1 3.266-2.006l.325.552a104 104 0 0 0-3.246 1.994zm105.371-3.684c-1.11-.606-2.249-1.2-3.386-1.767l.286-.572c1.144.57 2.29 1.168 3.407 1.777l-.307.562zm-98.808-.183l-.304-.563a104.867 104.867 0 0 1 3.404-1.76l.283.574c-1.133.56-2.27 1.148-3.383 1.749zm91.972-3.224a102.891 102.891 0 0 0-3.508-1.512l.242-.592c1.183.484 2.371.995 3.53 1.52l-.264.584zm-85.144-.148l-.262-.584c1.158-.52 2.343-1.025 3.522-1.503l.24.593c-1.172.475-2.35.978-3.5 1.494zm78.072-2.745a103.734 103.734 0 0 0-3.613-1.248l.198-.609c1.212.394 2.436.817 3.635 1.256l-.22.601zM87.205 6.81l-.218-.601c1.195-.434 2.413-.85 3.622-1.239l.195.61c-1.2.386-2.411.8-3.599 1.23zm63.748-2.248c-1.218-.346-2.46-.674-3.687-.974l.152-.622c1.235.302 2.484.632 3.71.98l-.175.616zM94.457 4.48l-.174-.616c1.225-.344 2.474-.67 3.714-.97l.15.623a103.7 103.7 0 0 0-3.69.963zm49.088-1.729c-1.24-.255-2.5-.49-3.75-.699l.106-.63c1.256.21 2.526.446 3.773.702l-.13.627zm-41.675-.06l-.127-.627c1.25-.253 2.52-.486 3.774-.692l.104.631c-1.247.205-2.51.436-3.751.688zm34.153-1.199a104.728 104.728 0 0 0-3.79-.42l.059-.638c1.265.117 2.548.26 3.813.424l-.082.634zm-26.628-.038l-.08-.635c1.26-.16 2.545-.298 3.815-.412l.057.637c-1.263.113-2.538.251-3.792.41zM128.43.79c-1.261-.07-2.543-.119-3.811-.144l.012-.64c1.276.025 2.566.074 3.835.145l-.036.639zM116.991.772l-.034-.639c1.271-.067 2.562-.112 3.836-.133l.01.64c-1.266.02-2.548.065-3.812.132zM224.033 82.926c-.13-.625-.267-1.248-.41-1.87l.624-.142c.144.625.281 1.252.413 1.881l-.627.131zM224.897 124.655l-.629-.124c.124-.625.242-1.252.354-1.881l.63.112c-.113.633-.231 1.264-.355 1.893zM122.56 208.625c-.695 0-1.39-.006-2.082-.02l.013-.64c1.265.025 2.539.026 3.805.006l.01.64c-.58.01-1.163.014-1.746.014zm5.573-.146l-.034-.639c1.266-.067 2.543-.157 3.796-.27l.056.638c-1.26.113-2.544.204-3.818.271zm-11.48-.018c-1.27-.071-2.555-.166-3.817-.283l.059-.637c1.255.116 2.531.21 3.794.281l-.036.639zm19.104-.662l-.08-.635c1.26-.16 2.527-.343 3.765-.546l.104.631c-1.246.204-2.521.39-3.789.55zm-26.726-.043a104.869 104.869 0 0 1-3.787-.561l.106-.632c1.24.208 2.506.395 3.763.558l-.082.635zm34.28-1.194l-.126-.628c1.242-.25 2.492-.527 3.715-.822l.15.623c-1.23.296-2.488.574-3.738.827zm-41.83-.068a103.885 103.885 0 0 1-3.736-.838l.152-.622c1.222.298 2.471.579 3.712.833l-.129.627zm49.274-1.723l-.173-.617c1.214-.34 2.44-.707 3.645-1.093l.195.609c-1.212.388-2.445.759-3.667 1.1zm-56.712-.091a103.9 103.9 0 0 1-3.673-1.116l.197-.609c1.207.391 2.435.764 3.65 1.109l-.174.616zm63.993-2.242l-.218-.601c1.183-.428 2.376-.885 3.545-1.357l.24.593a104.29 104.29 0 0 1-3.567 1.365zm-71.294-.124c-1.196-.437-2.4-.903-3.578-1.384l.241-.593c1.171.478 2.368.941 3.557 1.375l-.22.602zm78.376-2.736l-.261-.584a103.154 103.154 0 0 0 3.437-1.615l.283.574c-1.136.56-2.3 1.106-3.46 1.625zm-85.478-.163a105.18 105.18 0 0 1-3.465-1.643l.285-.574c1.132.563 2.29 1.113 3.444 1.634l-.264.583zm92.335-3.213l-.304-.563c1.113-.6 2.227-1.227 3.311-1.864l.325.552a104.61 104.61 0 0 1-3.332 1.875zm-99.2-.2a104.278 104.278 0 0 1-3.333-1.894l.326-.55c1.087.644 2.201 1.277 3.312 1.881l-.306.562zm105.794-3.672l-.344-.54c1.06-.675 2.125-1.382 3.167-2.101l.363.527a105.64 105.64 0 0 1-3.186 2.114zm-112.387-.237a104.971 104.971 0 0 1-3.184-2.132l.366-.525c1.037.723 2.102 1.436 3.164 2.12l-.346.537zm118.681-4.108l-.382-.513a104.22 104.22 0 0 0 3.006-2.329l.401.5c-.991.796-2.009 1.584-3.025 2.342zm-124.968-.27a104.674 104.674 0 0 1-3.018-2.36l.403-.496c.983.798 1.993 1.586 3 2.344l-.385.511zm130.93-4.525l-.418-.484c.954-.826 1.905-1.682 2.83-2.543l.435.469c-.929.866-1.886 1.726-2.846 2.558zm-136.877-.302a105.382 105.382 0 0 1-2.837-2.571l.438-.466c.919.863 1.868 1.723 2.82 2.556l-.421.481zm142.477-4.917l-.453-.452a105.11 105.11 0 0 0 2.637-2.742l.47.435c-.861.928-1.754 1.857-2.654 2.759zm-148.055-.327c-.892-.902-1.78-1.834-2.641-2.77l.471-.434c.856.93 1.739 1.857 2.625 2.754l-.455.45zm153.26-5.288l-.485-.417c.826-.959 1.644-1.944 2.432-2.93l.5.4c-.793.991-1.616 1.983-2.447 2.947zm-158.439-.348a106.29 106.29 0 0 1-2.431-2.955l.501-.397c.785.989 1.598 1.977 2.417 2.936l-.487.416zm163.223-5.633l-.514-.382c.755-1.019 1.5-2.061 2.211-3.099l.528.362a105.025 105.025 0 0 1-2.225 3.119zm-167.975-.363a104.916 104.916 0 0 1-2.209-3.124l.53-.36a104.337 104.337 0 0 0 2.194 3.105l-.515.379zm172.31-5.955l-.541-.343a103.29 103.29 0 0 0 1.979-3.254l.553.323c-.642 1.1-1.312 2.202-1.992 3.274zm-176.61-.37a104.636 104.636 0 0 1-1.974-3.275l.554-.32c.631 1.092 1.291 2.187 1.961 3.255l-.542.34zm180.47-6.25l-.564-.302c.598-1.12 1.182-2.26 1.735-3.393l.575.281a103.91 103.91 0 0 1-1.746 3.414zm-184.295-.37a104.602 104.602 0 0 1-1.727-3.41l.577-.278a103.991 103.991 0 0 0 1.716 3.388l-.566.3zm187.66-6.52l-.586-.259c.512-1.155 1.01-2.337 1.48-3.513l.595.238a104.255 104.255 0 0 1-1.49 3.535zm-190.986-.36a104.026 104.026 0 0 1-1.47-3.525l.594-.236c.463 1.17.955 2.349 1.462 3.504l-.586.257zm193.833-6.763l-.603-.215a104 104 0 0 0 1.218-3.615l.61.193a103.766 103.766 0 0 1-1.225 3.637zm-196.643-.339c-.423-1.198-.83-2.42-1.209-3.633l.611-.19c.377 1.205.78 2.42 1.202 3.61l-.604.213zm198.956-6.979l-.617-.17c.335-1.213.653-2.453.944-3.686l.623.148c-.293 1.24-.612 2.487-.95 3.708zm-201.239-.328a104.58 104.58 0 0 1-.936-3.708l.624-.145c.286 1.229.599 2.468.93 3.685l-.618.168zM20.146 124.258c-.122-.63-.238-1.26-.349-1.894l.631-.11c.11.63.225 1.257.347 1.882l-.629.122zM174.805 124.947l-.595-.235a55.44 55.44 0 0 0 .67-1.787l.604.215a55.866 55.866 0 0 1-.68 1.807zM122.56 160.465c-.767 0-1.54-.015-2.3-.046l.027-.64c1.26.052 2.546.06 3.81.025l.018.64c-.517.014-1.035.021-1.555.021zm5.4-.256l-.06-.637c1.26-.12 2.532-.286 3.779-.492l.104.632a55.951 55.951 0 0 1-3.822.497zm-11.543-.076a56.221 56.221 0 0 1-3.814-.548l.112-.63a55.73 55.73 0 0 0 3.772.542l-.07.636zm19.145-1.18l-.148-.623a55.558 55.558 0 0 0 3.674-1.007l.19.612c-1.22.38-2.47.722-3.716 1.018zm-26.728-.177a56.102 56.102 0 0 1-3.704-1.068l.198-.609c1.202.392 2.434.747 3.662 1.056l-.156.62zm34.083-2.114l-.232-.596a55.658 55.658 0 0 0 3.5-1.504l.273.579a56.007 56.007 0 0 1-3.541 1.52zm-41.41-.276a55.848 55.848 0 0 1-3.52-1.569l.28-.575a55.395 55.395 0 0 0 3.48 1.55l-.24.594zm48.38-3.006l-.312-.559a56.113 56.113 0 0 0 3.262-1.97l.349.536a56.612 56.612 0 0 1-3.3 1.993zm-55.306-.37a56.522 56.522 0 0 1-3.273-2.037l.357-.53a55.924 55.924 0 0 0 3.235 2.013l-.32.554zm61.76-3.837l-.385-.51a56.395 56.395 0 0 0 2.962-2.398l.42.484a57.015 57.015 0 0 1-2.996 2.424zm-68.159-.456a56.305 56.305 0 0 1-2.964-2.464l.426-.478c.943.84 1.929 1.66 2.93 2.437l-.392.505zm73.98-4.591l-.452-.454a56.2 56.2 0 0 0 2.61-2.778l.48.422a56.852 56.852 0 0 1-2.638 2.81zm-79.732-.533a56.711 56.711 0 0 1-2.602-2.845l.487-.415a56.078 56.078 0 0 0 2.572 2.812l-.457.448zm84.811-5.26l-.509-.389a55.872 55.872 0 0 0 2.207-3.107l.534.352a56.32 56.32 0 0 1-2.232 3.143zm-89.814-.6a56.355 56.355 0 0 1-2.189-3.173l.54-.345a55.744 55.744 0 0 0 2.164 3.137l-.515.38zm94.056-5.832l-.556-.315a55.776 55.776 0 0 0 1.76-3.38l.577.276a56.26 56.26 0 0 1-1.78 3.419zm-98.211-.655a56.258 56.258 0 0 1-1.734-3.442l.581-.268a55.593 55.593 0 0 0 1.714 3.402l-.561.308zM70.037 124.23a56.605 56.605 0 0 1-.654-1.818l.606-.206c.205.602.422 1.206.646 1.796l-.598.227zM71.026 83.61l-.594-.24c.24-.596.492-1.194.75-1.778l.586.259a55.384 55.384 0 0 0-.742 1.758zM73.45 78.384l-.566-.3a56.117 56.117 0 0 1 1.941-3.379l.543.338a55.698 55.698 0 0 0-1.918 3.34zm97.715-.932a55.554 55.554 0 0 0-1.982-3.304l.537-.348a56.19 56.19 0 0 1 2.005 3.342l-.56.31zm-93.65-5.609l-.52-.375a56.645 56.645 0 0 1 2.39-3.079l.49.41a55.932 55.932 0 0 0-2.36 3.044zm89.462-.853a56.176 56.176 0 0 0-2.419-2.999l.484-.419c.847.98 1.67 2 2.447 3.033l-.512.385zm-84.535-5.065l-.462-.442a56.854 56.854 0 0 1 2.79-2.721l.43.473a56.06 56.06 0 0 0-2.758 2.69zm79.496-.758a56.177 56.177 0 0 0-2.809-2.638l.422-.48c.973.851 1.929 1.749 2.841 2.666l-.454.452zm-73.801-4.425l-.397-.502a56.714 56.714 0 0 1 3.137-2.311l.362.528a55.998 55.998 0 0 0-3.102 2.285zm68.009-.65A55.998 55.998 0 0 0 153 57.867l.351-.535a56.54 56.54 0 0 1 3.181 2.25l-.387.51zm-61.655-3.7l-.324-.551a56.392 56.392 0 0 1 3.427-1.855l.285.573a55.684 55.684 0 0 0-3.388 1.834zm55.218-.527a55.607 55.607 0 0 0-3.422-1.769l.273-.578a56.329 56.329 0 0 1 3.463 1.789l-.314.558zm-48.323-2.9l-.244-.59a55.924 55.924 0 0 1 3.651-1.361l.202.607a55.283 55.283 0 0 0-3.609 1.345zm41.363-.395a55.25 55.25 0 0 0-3.635-1.275l.191-.61c1.234.384 2.47.818 3.677 1.29l-.233.595zm-34.059-2.038l-.16-.62a56.02 56.02 0 0 1 3.806-.838l.116.63c-1.258.23-2.524.51-3.762.828zm26.71-.255a55.486 55.486 0 0 0-3.778-.756l.104-.631c1.276.21 2.562.466 3.82.764l-.147.623zm-19.137-1.138l-.072-.636a56.963 56.963 0 0 1 3.884-.304l.028.64a56.38 56.38 0 0 0-3.84.3zm11.538-.11a56.241 56.241 0 0 0-3.845-.227l.016-.64c1.295.033 2.604.11 3.89.23l-.06.638zM173.697 82.649a55.336 55.336 0 0 0-.775-1.745l.58-.27c.27.58.534 1.173.785 1.765l-.59.25z"/>
        <path fill="#3F3D56" d="M181.959 104.23a3.63 3.63 0 1 0 2.553 1.063 3.579 3.579 0 0 0-2.553-1.063zM167.481 104.23a3.63 3.63 0 1 0 2.553 1.063 3.598 3.598 0 0 0-2.553-1.063z"/>
        <path fill="#3F3D56" d="M174.72 84.145c-10.074 0-18.24 8.167-18.24 18.24 0 10.074 8.166 18.24 18.24 18.24 10.074 0 18.24-8.166 18.24-18.24 0-10.073-8.166-18.24-18.24-18.24zm3.545 7.606a1.745 1.745 0 0 1 1.76 1.762 1.772 1.772 0 1 1-1.76-1.762zM167.48 113.02a5.17 5.17 0 1 1 5.168-5.167 5.185 5.185 0 0 1-5.168 5.167zm8.125-10.301v4.984a.886.886 0 0 1-1.772 0v-3.65c0-.725-.886-.886-3.406-2.337-.327-.194-1.025-.537-1.025-1.5.006-.465.19-.91.515-1.241l3.971-3.827a1.733 1.733 0 0 1 2.742.365l1.634 3.329h2.658a.886.886 0 0 1 0 1.772h-3.179c-.593 0-1.069-1.274-2.105-2.852l-2.708 2.852c.991.775 2.675 1.374 2.675 2.105zm6.353 10.296a5.167 5.167 0 1 1 5.167-5.168 5.184 5.184 0 0 1-5.167 5.168zM226.56 84.145c-10.074 0-18.24 8.167-18.24 18.24 0 10.074 8.166 18.24 18.24 18.24 10.074 0 18.24-8.166 18.24-18.24 0-10.073-8.166-18.24-18.24-18.24zm-4.835 13.04a2.836 2.836 0 1 1-2.902 2.835 2.867 2.867 0 0 1 2.902-2.835zm15.469 12.29h-1.933v-2.836h-17.402v2.836h-1.933V95.296h1.933v8.507h7.732v-6.618h7.737a3.824 3.824 0 0 1 3.866 3.782v8.508zM24.665 97.511h-5.428c-.122 0-.221.1-.222.222v7.754c0 .122.1.221.222.221h5.428a.889.889 0 0 0 .886-.886v-6.424a.889.889 0 0 0-.886-.887zM23.446 107.37a1.33 1.33 0 1 0 .216 2.653 1.33 1.33 0 0 0-.216-2.653zM12.818 107.37a1.33 1.33 0 1 0 .216 2.653 1.33 1.33 0 0 0-.216-2.653zM17.243 97.511h-5.417a.9.9 0 0 0-.897.898v6.402a.9.9 0 0 0 .897.897h5.417c.122 0 .221-.099.222-.221v-7.754c0-.122-.1-.221-.222-.222z"/>
        <path fill="#3F3D56" d="M18.24 84.145C8.166 84.145 0 92.312 0 102.385c0 10.074 8.166 18.24 18.24 18.24 10.074 0 18.24-8.166 18.24-18.24 0-10.073-8.166-18.24-18.24-18.24zm8.862 25.662a2.222 2.222 0 0 1-2.216 2.215H11.594a2.222 2.222 0 0 1-2.216-2.215V94.52a1.778 1.778 0 0 1 1.773-1.773h14.178c.978.003 1.77.795 1.773 1.773v15.286z"/>
        <path fill="#3F3D56" d="M24.72 94.3H11.76a.777.777 0 1 0 0 1.55h12.96a.777.777 0 1 0 0-1.55zM72.837 102.884c-.366 0-.665.543-.665 1.218 0 .676.3 1.219.665 1.219.365 0 .665-.543.665-1.219 0-.675-.3-1.218-.665-1.218zM67.963 102.884c-.365 0-.665.543-.665 1.218 0 .676.3 1.219.665 1.219.366 0 .665-.543.665-1.219 0-.675-.3-1.218-.665-1.218z"/>
        <path fill="#3F3D56" d="M70.4 84.145c-10.074 0-18.24 8.167-18.24 18.24 0 10.074 8.166 18.24 18.24 18.24 10.074 0 18.24-8.166 18.24-18.24 0-10.073-8.166-18.24-18.24-18.24zm-8.53 17.62l1.009-5.361c.26-1.457.936-2.603 2.204-2.603h1.905l.111-.438c.2-.785.907-1.335 1.717-1.335h3.157c.808 0 1.515.547 1.717 1.33l.11.443h1.917c1.24 0 1.9 1.124 2.21 2.597v.006l1.013 5.367a.221.221 0 0 1-.31.243l-1.407-.648a.21.21 0 0 1-.127-.16l-.897-4.741c-.166-.61-.399-.886-.892-.886h-9.809c-.487 0-.753.293-.891.886l-.897 4.74a.223.223 0 0 1-.128.161l-1.401.643a.222.222 0 0 1-.31-.244zm19.535 3.45l-3.03 7.527c-1.523 0-3.14-1.218-3.14-1.218-.997.504-2.94.947-4.392 1.03-.155.005-.305.011-.443.011s-.288 0-.443-.011c-1.451-.083-3.395-.532-4.392-1.03 0 0-1.617 1.218-3.14 1.218l-3.03-7.527a1 1 0 0 1 .51-1.28l10.307-4.734a.435.435 0 0 1 .37 0l10.313 4.735a1 1 0 0 1 .51 1.28zM122.56 84.145c-10.074 0-18.24 8.167-18.24 18.24 0 10.074 8.166 18.24 18.24 18.24 10.074 0 18.24-8.166 18.24-18.24 0-10.073-8.166-18.24-18.24-18.24zm8.403 20.018c-.189 0-.815-.005-.997-.016l-3.595-.095a.109.109 0 0 0-.094.05l-5.394 8.064a.883.883 0 0 1-.748.41h-1.313c-.31 0-.415-.31-.304-.598l2.774-7.915a.11.11 0 0 0-.1-.15l-6.74-.149a.454.454 0 0 0-.365.172l-2.088 2.531a.896.896 0 0 1-.698.338h-.925a.22.22 0 0 1-.21-.294l1.102-3.804a.903.903 0 0 0 0-.66l-1.102-3.804a.22.22 0 0 1 .21-.294h.93a.879.879 0 0 1 .698.338l2.05 2.492a.446.446 0 0 0 .365.172l6.78-.1a.108.108 0 0 0 .099-.15l-2.775-7.908c-.11-.288-.005-.598.305-.598h1.312a.89.89 0 0 1 .748.41l5.389 8.069c.02.033.056.052.094.05l3.595-.094c.177-.011.808-.017.997-.017 2.459 0 4.004.798 4.004 1.778s-1.55 1.772-4.004 1.772z"/>
        <path fill="#F0F0F0" d="M21.015 163.869a3.84 3.84 0 1 1 0-7.68 3.84 3.84 0 0 1 0 7.68zm0-7.04a3.2 3.2 0 1 0 0 6.4 3.2 3.2 0 0 0 0-6.4zM101.975 77.789a3.84 3.84 0 1 1 0-7.68 3.84 3.84 0 0 1 0 7.68zm0-7.04a3.2 3.2 0 1 0 0 6.4 3.2 3.2 0 0 0 0-6.4zM173.486 183.187l-4.309-4.62 4.62-4.308 4.309 4.62-4.62 4.308zm-3.622-4.596l3.646 3.91 3.909-3.647-3.646-3.908-3.909 3.645z"/>
    </g>
</svg>
