<svg xmlns="http://www.w3.org/2000/svg" width="282" height="243" viewBox="0 0 282 243">
    <g fill="none" fill-rule="nonzero" transform="matrix(-1 0 0 1 282 0)">
        <path fill="#E6E6E6" d="M60.224 61.328v-3.9h-15v3.9h-3v-54.9h-32.1v92.1h58.5v-37.2z"/>
        <path fill="#F2F2F2" d="M171.491 51.301l-.055.054v-.054l-.001.055c-.76.738-9.208 9.075-12.486 17.53-1.088-1.21-1.858-1.948-1.858-1.948l-.036.035v-.035.036c-.62.601-9.03 8.9-9.03 15.478 0 6.35 3.511 8.856 8.03 9.175l-.328 6.264h.916l.101-6.232c.116.003.231.005.347.005 3.34 0 6.255-1.063 7.828-3.794 1.595.629 3.28 1 4.991 1.101l-.5 9.556h1.397l.155-9.507c.176.004.352.006.53.006 7.639 0 13.832-3.637 13.832-14.055 0-10.417-13.833-23.67-13.833-23.67zM138.524 57.809v-5.482h-16.8v5.482h-7.8V36.127h-7.5v-8.4h-16.8v8.4h-7.8v34.037a46.36 46.36 0 0 0-3.633-4.037l-.036.036v-.036.036c-.62.602-9.03 8.901-9.03 15.478 0 6.35 3.511 8.856 8.03 9.176l-.328 6.264h.916l.101-6.232c.116.003.231.004.347.004 1.23.016 2.455-.157 3.633-.513v8.187h64.2V57.81h-7.5zM267.791 51.69l-.055.055v-.054l-.001.055c-.786.764-9.81 9.668-12.811 18.42v-4.339l-28.8-43.5-28.8 43.5v32.7h57.6V81.62c1.84 5.147 6.133 7.376 11.286 7.74l-.5 9.557h1.397l.155-9.508c.176.004.352.007.53.007 7.639 0 13.832-3.637 13.832-14.055 0-10.417-13.833-23.67-13.833-23.67z"/>
        <ellipse cx="45.824" cy="106.826" fill="#F2F2F2" rx="37.95" ry="3.498"/>
        <ellipse cx="256.274" cy="151.138" fill="#F2F2F2" rx="16.925" ry="1.56"/>
        <path fill="#21816E" d="M263.474 144.869c0 4.374-2.6 5.901-5.808 5.901a9.997 9.997 0 0 1-.664-.022c-2.895-.205-5.144-1.811-5.144-5.88 0-4.21 5.38-9.522 5.784-9.915l.024-.023s5.808 5.564 5.808 9.939z"/>
        <path fill="#3F3D56" d="M257.454 150.101l2.125-2.968-2.13 3.294-.006.34a9.482 9.482 0 0 1-.441-.02l.229-4.376-.002-.034.004-.006.022-.413-2.135-3.303 2.141 2.993.005.087.173-3.306-1.827-3.413 1.85 2.832.18-6.855v-.023.022l-.03 5.406 1.82-2.143-1.827 2.609-.048 2.96 1.699-2.84-1.706 3.276-.027 1.646 2.466-3.955-2.475 4.53-.06 3.66z"/>
        <ellipse cx="31.574" cy="205.178" fill="#F2F2F2" rx="31.574" ry="2.91"/>
        <path fill="#21816E" d="M45.006 193.481c0 8.16-4.851 11.01-10.836 11.01a18.623 18.623 0 0 1-1.238-.042c-5.401-.382-9.597-3.378-9.597-10.968 0-7.854 10.036-17.764 10.79-18.498l.001-.001.044-.042s10.836 10.381 10.836 18.541z"/>
        <path fill="#3F3D56" d="M33.775 203.243l3.963-5.538-3.973 6.146-.01.636c-.277-.006-.552-.02-.823-.038l.427-8.164-.004-.064.008-.012.04-.77-3.983-6.162 3.995 5.583.01.164.323-6.17-3.41-6.365 3.451 5.283.336-12.789.001-.043v.042l-.056 10.085 3.395-3.998-3.408 4.867-.09 5.523 3.17-5.3-3.183 6.112-.05 3.07 4.6-7.377-4.618 8.45-.11 6.829z"/>
        <path fill="#21816E" d="M88.874 67.898c0 17.228-10.241 23.243-22.875 23.243-12.633 0-22.875-6.015-22.875-23.243C43.124 50.671 66 28.755 66 28.755S88.874 50.67 88.874 67.898z"/>
        <path fill="#3F3D56" d="M65.166 88.506l.234-14.418 9.75-17.837-9.713 15.575.105-6.483 6.72-12.904-6.692 11.189.19-11.66 7.195-10.274-7.166 8.44.119-21.38-.744 28.304.06-1.168-7.315-11.198 7.199 13.44-.682 13.021-.02-.345-8.434-11.784 8.408 13.005-.085 1.628-.015.025.006.134-1.729 33.037h2.31l.278-17.064 8.387-12.974z"/>
        <path fill="#21816E" d="M48.759 67.898c0 17.228-10.242 23.243-22.875 23.243-12.634 0-22.875-6.015-22.875-23.243 0-17.227 22.875-39.143 22.875-39.143S48.759 50.67 48.759 67.898z"/>
        <path fill="#3F3D56" d="M25.05 88.506l.235-14.418 9.75-17.837-9.713 15.575.105-6.483 6.72-12.904-6.692 11.189.19-11.66 7.195-10.274-7.166 8.44.118-21.38-.743 28.304.06-1.168-7.315-11.198 7.198 13.44-.681 13.021-.02-.345-8.434-11.784 8.408 13.005-.085 1.628-.016.025.007.134-1.729 33.037h2.31l.278-17.064 8.387-12.974z"/>
        <path fill="#F2F2F2" d="M79.574 52.932c0 23.295-13.849 31.43-30.933 31.43-17.083 0-30.932-8.135-30.932-31.43C17.709 29.636 48.641 0 48.641 0s30.933 29.636 30.933 52.932z"/>
        <path fill="#3F3D56" d="M47.515 80.798L47.83 61.3l13.185-24.12L47.88 58.243l.142-8.766 9.087-17.45-9.049 15.13.256-15.767 9.73-13.893-9.69 11.414L48.518 0l-1.005 38.273.082-1.58-9.892-15.142 9.734 18.174-.922 17.608-.027-.467L35.082 40.93l11.37 17.586-.115 2.202-.02.033.009.181-2.339 44.675h3.125l.374-23.076L58.83 64.99z"/>
        <ellipse cx="164.024" cy="237.802" fill="#F2F2F2" rx="72.9" ry="4.275"/>
        <path fill="#3F3D56" d="M118.384 66.85l14.03-8.1 19.95 34.554-14.03 8.1z"/>
        <path fill="#21816E" d="M123.727 73.802l11.165-6.688.513.858-11.164 6.688zM125.503 76.283l11.165-6.69.513.859-11.164 6.688zM126.703 78.383l11.165-6.69.513.859-11.164 6.688zM128.503 81.083l11.165-6.69.513.859-11.164 6.688zM131.203 84.983l11.165-6.688.514.858-11.165 6.688z"/>
        <path fill="#2F2E41" d="M183.298 102.53s7.722-3.714 13.218-2.33l-13.218-35.647v-3.66l18.709 44.513c4.677 8.817 10.59 28.912.508 30.525-11.439 1.83-32.029 8.694-32.029 8.694l-4.575-39.807 17.387-2.288z"/>
        <path fill="#FFB9B9" d="M138.229 90.633s-12.354-15.556-15.557-10.066c-3.203 5.49 14.384 14.727 14.384 14.727l1.173-4.66z"/>
        <path fill="#D0CDE1" d="M142.347 91.091l-5.033-2.745s-3.203 8.236-3.203 9.608c0 1.373 5.033 1.83 5.033 1.83l3.203-8.693z"/>
        <circle cx="161.564" cy="44.42" r="11.896" fill="#FFB9B9"/>
        <path fill="#FFB9B9" d="M170.715 43.048s5.033 15.099 8.694 16.014c3.66.915-14.184 7.779-14.184 7.779s-5.491-12.812-8.236-16.015c-2.746-3.203 13.726-7.778 13.726-7.778z"/>
        <path fill="#000" d="M199.312 131.356c9.863-1.578 4.42-20.842-.2-29.934.418.32.793.692 1.116 1.108 4.575 5.948 13.726 31.571 2.287 33.402-11.439 1.83-32.029 8.693-32.029 8.693l-.622-5.416c5.883-1.888 20.479-6.418 29.448-7.853z" opacity=".1"/>
        <path fill="#2F2E41" d="M215.098 210.056s11.439 9.15 10.524 10.066c-.915.915-10.524 15.557-18.76 16.93-8.236 1.372-11.896 1.372-11.896 0 0-1.373 2.287-4.576 6.405-5.949 4.118-1.373 4.576-10.524 4.118-12.354-.457-1.83 9.61-8.693 9.61-8.693z"/>
        <path fill="#2F2E41" d="M180.781 141.88l7.321 34.316s30.199 33.86 29.284 34.317c-.915.458-10.066 9.609-11.897 9.609-1.83 0-33.401-35.69-33.401-35.69l-11.439-29.74 20.132-12.812z"/>
        <path fill="#000" d="M180.781 141.88l7.321 34.316s30.199 33.86 29.284 34.317c-.915.458-10.066 9.609-11.897 9.609-1.83 0-33.401-35.69-33.401-35.69l-11.439-29.74 20.132-12.812z" opacity=".1"/>
        <path fill="#2F2E41" d="M188.102 130.898s-3.66 15.557-13.726 26.081c-10.067 10.524-14.642 32.029-14.642 32.029l-10.066 43.01s-17.845-2.287-16.93-6.863l9.609-37.977s10.981-52.62 16.93-56.28c5.948-3.66 28.825 0 28.825 0z"/>
        <path fill="#2F2E41" d="M148.753 228.358s2.745 8.693.915 9.609c-1.83.915-34.317 2.745-36.147-3.66 0 0-.915-3.204 6.405-3.204 7.321 0 15.1-6.863 15.1-6.863l13.727 4.118z"/>
        <path fill="#575A89" d="M162.48 65.01s11.896-11.896 15.099-10.981c3.202.915 3.202 5.49 3.202 5.49s10.067 1.373 9.152 34.317c-.916 32.944 8.236 36.605 5.033 38.435-3.203 1.83-39.808 10.066-41.18 1.83-1.373-8.236-.915-39.807 2.745-49.873 3.66-10.067 8.236-16.472 5.948-19.218z"/>
        <path fill="#575A89" d="M177.579 67.756s13.726 6.405 5.948 18.76c-7.779 12.353-13.727 25.623-21.963 25.165-8.236-.458-21.048-8.236-24.708-8.236s1.373-13.27 4.118-13.727c2.745-.457 15.557 7.321 15.557 7.321s4.576-31.114 21.048-29.283z"/>
        <path fill="#2F2E41" d="M168.427 45.735c-1.015-.06-2.006.282-3.014.416-3.605.479-7.356-2.138-8.152-5.687a4.363 4.363 0 0 0-.417-1.358c-.555-.906-1.819-1.08-2.86-.87-1.043.208-2.03.695-3.091.75-1.638.087-3.211-.922-4.084-2.31-.873-1.39-1.12-3.098-1.003-4.735l.786.825c.319-.675.442-1.427.355-2.168a2.516 2.516 0 0 1 2.383.61c.693.073.17-1.285.685-1.754.215-.197.545-.16.837-.157 1.473.014 2.665-1.113 3.826-2.02a16.257 16.257 0 0 1 6.866-3.132c1.664-.324 3.432-.376 5.01.243 1.296.509 2.38 1.435 3.383 2.4 2.47 2.375 4.657 5.166 5.685 8.434.835 2.678.859 5.543.068 8.234-.414 1.397-1.662 6.183-3.489 6.294-2.295.14-.917-3.845-3.774-4.015z"/>
    </g>
</svg>
