<svg xmlns="http://www.w3.org/2000/svg" width="330" height="243" viewBox="0 0 330 243">
    <defs>
        <linearGradient id="a" x1="49.574%" x2="49.574%" y1="101.197%" y2=".533%">
            <stop offset="0%" stop-color="gray" stop-opacity=".25"/>
            <stop offset="54%" stop-color="gray" stop-opacity=".12"/>
            <stop offset="100%" stop-color="gray" stop-opacity=".1"/>
        </linearGradient>
    </defs>
    <g fill="none" fill-rule="evenodd">
        <ellipse cx="159.843" cy="224.589" fill="#3E5C82" fill-rule="nonzero" opacity=".1" rx="129.192" ry="18.264"/>
        <path fill="#3E5C82" fill-rule="nonzero" d="M3.855 117.003c5.208 20.139 16.233 37.548 33.654 45.987 36.213 17.538 117.876 8.493 178.821-1.89 31.521-5.37 59.232-20.181 79.362-41.046L3.855 117.003zM323.46 22.206h-33.441c-1.587 0-2.889-1.176-2.889-2.613s1.302-2.616 2.889-2.616h5.781c-1.59 0-2.889-1.176-2.889-2.613s1.299-2.616 2.889-2.616h-4.128c-1.59 0-2.889-1.176-2.889-2.613s1.299-2.616 2.889-2.616h17.454c-3.873-1.629-8.4-2.787-13.617-3.396-47.592-5.529-64.584-1.872-70.578 1.89a70.296 70.296 0 0 1-24.462 9.702c-29.364 5.481-84.279 12.075-134.052-2.1-24.738-7.062-43.122 4.86-54.144 24.765h316.992c-.414-5.787-1.653-11.133-3.927-15.807-.539.413-1.2.635-1.878.633zM1.017 74.967a120.783 120.783 0 0 0 1.296 35.139l293.604 9.714a124.38 124.38 0 0 0 20.4-28.146L1.017 74.967zm116.124 25.065h-5.781c1.59 0 2.892 1.179 2.892 2.616s-1.302 2.616-2.892 2.616H77.919c-1.587 0-2.889-1.179-2.889-2.616s1.302-2.616 2.889-2.616H83.7c-1.59 0-2.889-1.176-2.889-2.613s1.299-2.616 2.889-2.616h-4.128c-1.59 0-2.889-1.176-2.889-2.613s1.299-2.616 2.889-2.616h33.441c1.59 0 2.889 1.176 2.889 2.616 0 1.44-1.299 2.613-2.889 2.613h4.128c1.59 0 2.889 1.179 2.889 2.616s-1.299 2.613-2.889 2.613zM329.28 37.575L8.736 44.616c-3.9 9.069-6.471 19.323-7.671 29.949h322.599a114.087 114.087 0 0 0 4.659-19.089c.96-6.246 1.344-12.288.957-17.901zm-263.139 23.1H60.36c1.59 0 2.892 1.176 2.892 2.613s-1.302 2.616-2.892 2.616H26.919c-1.587 0-2.889-1.176-2.889-2.616 0-1.44 1.302-2.613 2.889-2.613H32.7c-1.59 0-2.889-1.179-2.889-2.616s1.299-2.613 2.889-2.613h-4.128c-1.59 0-2.889-1.179-2.889-2.616s1.299-2.616 2.889-2.616h33.441c1.59 0 2.889 1.179 2.889 2.616s-1.299 2.616-2.889 2.616h4.128c1.59 0 2.889 1.176 2.889 2.613s-1.299 2.616-2.889 2.616z" opacity=".1"/>
        <path fill="url(#a)" fill-rule="nonzero" d="M231.189 145.974l16.395-.36-.258-2.34-21.411-1.239-.234-.951c1.602-.054 3.471-.135 4.752-.255 0-.09 0-.189-.024-.282l.357-.03c.36-.036.675-.072.921-.114 2.076-.342-.174-1.923.819-3.18.993-1.257-.021-5.934.06-6.939s-.684-5.013-1.35-5.847c-.666-.834-.765-4.428-.765-4.428s-1.584-1.416-2.514-6.261c-.93-4.845-4.599-7.341-5.772-7.587-1.173-.246-2.916-1.245-2.916-1.5 0-.255-1.998-.327-2.829-.66-.831-.333-1.251-.747-1.914-.828.236-.271.433-.574.585-.9a2.523 2.523 0 0 1 .384-.543.924.924 0 0 1 .9-.345c.12.036.246.105.366.15l.093.027a.345.345 0 0 0 .261-.027.429.429 0 0 0 .18-.258l.027-.105c.026-.126.047-.252.063-.378v-.027c.015-.129.024-.261.03-.393.039-.942-.096-1.92.339-2.742l.027-.039c.438-.786 1.299-1.224 2.004-1.8.143-.117.28-.241.411-.372.051-.051.099-.105.147-.156.048-.051.156-.162.225-.249s.117-.147.174-.222l.156-.213c.063-.09.12-.18.177-.273l.108-.183c.06-.105.114-.213.168-.321l.072-.153c.054-.12.105-.243.153-.369l.042-.114c.048-.138.093-.276.132-.417v-.069c.081-.3.137-.608.168-.918a5.952 5.952 0 0 0-1.389-4.356c-.771-.9-1.878-1.695-1.944-2.877a4.59 4.59 0 0 1 .357-1.62c.078-.227.137-.461.174-.699.017-.107.026-.215.027-.324 0-.879-.561-1.662-1.2-2.259a7.713 7.713 0 0 0-6.972-1.821c-.645.156-1.29.402-1.95.321-.762-.093-1.401-.6-2.1-.948-2.253-1.137-5.298-.3-6.654 1.842-.783 1.236-1.083 2.844-2.256 3.714-.693.51-1.65.741-2.148 1.404-.058.076-.11.158-.153.243-.121.26-.182.544-.177.831v.219c0 .216.039.438.069.651.046.356.14.704.279 1.035.133.308.306.596.516.858.149.189.31.368.48.537l.177.186.039.042c.12.127.234.262.339.402l.018.024.093.135-.126.153a10.065 10.065 0 0 0 1.527 14.022c0 .105 0 .213-.015.321-.024.561-.06 1.152-.105 1.755a1.458 1.458 0 0 0-1.14-.39 1.215 1.215 0 0 0-.567.054c-.106.036-.216.06-.327.069-.426-.036-.825-.186-1.245-.141a1.401 1.401 0 0 0-1.173.417c-.822.765-3.693 1.761-5.082 1.848a.771.771 0 0 1-.3-.075.72.72 0 0 0-.456-.039c-.882-.192-3.3 1.527-3.858 2.562-.579 1.089-2.481 4.023-2.481 4.023s-1.656 2.01-1.404 3.096c.252 1.086-.573 2.343-1.569 2.847s-2.937 5.553-2.937 5.553.558 6.705-1.68 7.884c-.561.3-.876.948-1.032 1.761a5.019 5.019 0 0 0 .483 3.3c.156.717.321 1.2.321 1.2l.447-.108a5.379 5.379 0 0 0 2.007 1.389l-14.046.411c-.726-3.468-2.151-4.8-3.234-5.274 4.134-2.754-4.266-4.311-4.266-4.311l-15.228-.48c.558-.453.858-.993.771-1.518-.141-.861-1.272-1.425-2.724-1.452h-.153V127.041h-.036a.546.546 0 0 0 .036-.195c0-.855-1.992-1.569-4.716-1.8h-.087l-.42-.03H131.298a18.021 18.021 0 0 0-4.551.537c-.366-1.146-2.871-2.454-2.871-2.454s-.408-2.481-1.8-3.123c-1.392-.642-1.632-2.808-1.518-3.87.054-.492-.9-1.881-2.082-3.216l-.573-3.453a5.181 5.181 0 0 0-.768-.828 6.075 6.075 0 0 0-.993-2.907 10.968 10.968 0 0 0 5.427-18.411l-.282-.273c1.062-.57 2.019-1.26 2.472-2.214.073-.152.121-.314.144-.48.15-1.125-.93-2.274-2.079-2.67-1.311-.45-2.778-.369-4.041-.945-2.163-.981-3.189-3.6-5.301-4.695-1.641-.849-3.6-.6-5.418-.219-2.667.576-5.73 1.929-6.126 4.644-.18 1.221.246 2.523-.186 3.681-1.11 2.964-6.189 1.959-7.884 4.632a5.94 5.94 0 0 0-.687 2.205l-1.731 10.056c-.24 1.383-.495 2.808-1.263 3.975-.801 1.221-2.055 2.007-3.393 2.637-1.248-1.662-3.183-2.259-4.773-2.448a1.2 1.2 0 0 1 .129-.084s-7.71-.798-10.653 2.184c0 0-.9 3.618 1.299 4.386.978.342 2.955 0 4.842-.462a18.18 18.18 0 0 0-.3 8.748c.249 1.179.618 2.4.255 3.558-.3.99-1.113 1.728-1.8 2.499a14.889 14.889 0 0 0-3.225 5.823c-.462 1.617-.564 3.579.627 4.761.546.504 1.239.82 1.977.9h-.033c.915.109 1.84.098 2.751-.033 1.713-.192 3.567-.45 4.8-1.662.669-.663 1.08-1.539 1.473-2.4.826-1.784 1.649-3.569 2.469-5.355.234-.51.48-1.026.744-1.542a1330.524 1330.524 0 0 0 2.223 11.439h1.152l.186 3.081c-1.311.561-1.692 1.131-1.557 1.662-1.542 1.023-3.3 3.192-3.102 7.74-.438.06-.873.132-1.311.219-16.218 3.207-26.118 22.41-22.113 42.9 4.005 20.49 20.4 34.485 36.621 31.281 12.618-2.496 21.411-14.676 22.8-29.607 4.359 2.7 9.3 3.807 14.235 2.832a18.177 18.177 0 0 0 3.318-.99l.021 6.072-1.335 6.852c-5.499.066-9.927 5.4-9.9 11.976.027 6.576 4.524 11.931 10.059 11.913 5.535-.018 9.999-5.382 9.978-11.982-.018-4.884-2.49-9.075-6.018-10.914l-.228-.111c.516-4.161.852-7.746.852-7.746l-.027-7.866a22.2 22.2 0 0 0 6.648-7.146h.84s1.734.069 2.259 2.715c.222 1.125 2.1 6.09 4.176 11.424-.114.688-.17 1.385-.168 2.082 0 3.936 1.869 7.347 4.59 9.081l1.077 2.682-.405.207s.957 6.573 3.123 6.633c.9 1.392 2.49 3.582 3.462 3.222l6.957-1.554.231-.018 7.125-1.71s.741-.471 1.8-1.2l1.569 12.462 3 .24 1.602-.372 2.052-.474 1.941-16.071c1.989-1.095 3.675-2.355 4.38-3.705 1.149-2.199-.921-3.3-3.474-3.78l.3-2.493a96.48 96.48 0 0 0 2.46-1.863c-.039.385-.11.766-.21 1.14-.411 1.341-1.818 3.183 2.007 4.008 3.825.825 6.402.06 6.567-.6.165-.66.987-3.348.3-4.848s-.933-5.433.3-7.692c1.233-2.259.396-5.772-.768-6.186-.774-.273-1.911-.765-2.589-1.068-.072-.09-.144-.183-.222-.276a5.628 5.628 0 0 1 1.8-1.578c1.992-1.008 1.569-3.264 1.569-3.264s2.079 0 3.567-2.52c1.041-1.761 2.247-3.522 2.874-4.8.129.807.276 1.8.36 2.664.174 1.782 2.283 19.107 3.231 20.553.948 1.446.189 6.9.189 6.9h3.048l-.249-8.358s-3.522-24.567-.648-27.084c.423-.372.837-.75 1.236-1.125l6.81 52.293 2.934.102 1.392.048-.429-51.636.345-26.31zm-83.358 38.1a343.13 343.13 0 0 0-5.61-.201l-.021-5.964h-1.833a35.418 35.418 0 0 0 9.867-2.418 27.105 27.105 0 0 1-2.403 8.586v-.003zm-37.437 27.441l-15.201-19.8-.42-.549c.075-.195.144-.393.204-.6l.585.105 21.48 3.858.858.156c-.696 6.822-3.138 12.981-6.9 17.625l-.606-.795zm5.1-21.24l-19.644-2.361-.6-.069a7.746 7.746 0 0 0-1.038-3.333l.432-.42 6.732-6.6 7.287.483a32.952 32.952 0 0 0 6.819 12.3h.012zm-3.3-82.038a6 6 0 0 0-.54 1.83h-.039c.02-.215.06-.428.117-.636.119-.41.272-.81.459-1.194h.003zm50.949 40.866c.075-1.287.093-2.448.069-3.504l11.238.45 1.992 15.816c-1.266 1.17-2.127 1.992-2.127 2.058 0 .18-2.1 3.75-1.374 7.911a6.555 6.555 0 0 0-.456-.522c-.333-1.836-.639-3.153-.873-3.471-1.014-1.377-.36-9.15-.36-9.15s-1.782-5.019-4.071-6.684c-.516-.387-1.923-.732-3.816-1.032a15.387 15.387 0 0 0-.222-1.872zm22.365 43.446l-.801-6.693c1.683 1.5 3.27 2.859 4.542 3.939-.846.78-2.337 2.076-3.741 2.754zm-61.467-46.152a1.59 1.59 0 0 0-.069-.126c.978-.153 1.8-.3 2.478-.477.264.18.512.38.744.6l-3.153.003zm61.041 5.619c-1.407 1.845-1.569 3-1.569 3l.357.078-2.559 2.31-1.329-11.148 6.255.252c-.342 2.787-.735 4.959-1.155 5.508zm-9.717 24.777c.948 1.086 2.124 2.304 3.411 3.561l.987 7.836-5.136-12.348c.228.33.475.648.738.951zm4.827 21.282c-.093.147-.206.28-.336.396-2.79-1.86-4.767-6.255-5.652-8.559.492-.351.789-.6.789-.6s-.318-2.7-.771-6.168a2270.09 2270.09 0 0 1 6.765 15.048c-.486-.075-.795-.117-.795-.117zm11.04-22.833s1.29-.318 2.97-.801l-.519 4.026c-1.518-1.968-2.451-3.234-2.451-3.234v.009zm22.2-71.853a2.4 2.4 0 0 0-.279.201c-.09-.222-.174-.453-.255-.684.102.141.223.267.36.375.059.04.12.072.186.099l-.012.009zM187.479 131.1l.042-.102v.108l-.042-.006zm39.42 14.976l.945-.021-.039 3.636c-.27-1.116-.576-2.34-.894-3.624l-.012.009zm-66.099.204l-19.5.066a25.245 25.245 0 0 0-2.4-1.707l21.927.876c.008.276.003.528-.015.756l-.012.009zm-45.687-38.016c-.6.489-1.149.9-1.557 1.179a6.921 6.921 0 0 1-1.353-1.23l.135-.273c.293-.563.616-1.111.966-1.641l.252-.375h.432a4.107 4.107 0 0 1 1.314 2.211 1.38 1.38 0 0 0-.189.129zm-26.4 46.182v-.054.054zm2.493 20.4a2.289 2.289 0 0 0 2.121 2.085l4.581.315-4.443 5.331-.387.465a6.438 6.438 0 0 0-2.466-1.545l.057-.648.537-6.003zm26.859 14.148a26.22 26.22 0 0 1-2.157-2.454l1.734-2.052c.223 1.493.364 2.997.423 4.506zm-4.239-5.553a30.522 30.522 0 0 1-2.4-5.265l4.896.333c.213.714.411 1.44.6 2.175l-3.096 2.757zm18.657-5.496h1.383-1.383zm64.263 17.7c.189.147.36.3.513.411-.102.948-.189 2.559.204 3.726l.018.06-1.269.222.534-4.419zm30.819-24.363l-.255 22.707-3.21-21.066a215.01 215.01 0 0 1 3.465-1.641zm-70.605-34.107c.426-.162.81-.321 1.155-.477 1.356 1.179 2.073 2.877 2.43 4.578l-24.801.699-.06.945a20.343 20.343 0 0 0-3.9-1.2l-.114-.075c-1.626-1.029-4.002-2.4-6.057-3.585a4.851 4.851 0 0 0-.174-1.368.464.464 0 0 1 0-.054 74.17 74.17 0 0 1 1.647-.6 10.8 10.8 0 0 0 4.317.837 11.72 11.72 0 0 0 2.49-.276l23.067.576zm-18.9-8.4c.948.063 1.668.453 1.764 1.035.06.375-.153.759-.549 1.083-.598-.19-1.211-.33-1.833-.417a6.234 6.234 0 0 0 .465-1.701H138.06zm-56.205-19.662c-.296.07-.597.121-.9.153l-.063-.153c.32-.024.642-.024.963 0zm8.118 35.01l.183.093.363 6.03a25.056 25.056 0 0 0-2.643-.06c-.03-1.686.189-4.734 2.097-6.063zm-5.163 10.671c.276-.057.555-.102.834-.147l.765 10.671s.111 4.047 2.286 4.971v10.914a5.124 5.124 0 0 0-1.449.237l-.399-.555-13.305-18.6-.6-.831c3.237-3.387 7.263-5.751 11.868-6.66zm-1.845 29.895l-17.574-2.958-.858-.144c.513-6.384 2.544-12.222 5.745-16.842l.624.801 13.332 17.1.387.498a6.576 6.576 0 0 0-1.047 1.638l-.609-.093zm-18.546 1.2l.858.081 17.085 1.56.576.051a7.8 7.8 0 0 0 .144 1.755 7.647 7.647 0 0 0 1.419 3.183l-.441.396-13.461 12.084-.666.6a41.031 41.031 0 0 1-4.74-12.726 42.669 42.669 0 0 1-.789-6.987l.015.003zm8.256 23.79l.6-.705 12.3-14.562.396-.468a5.892 5.892 0 0 0 3.237 1.131v.645l.081 23.838v1.062c-6.279-1.245-12.159-5.175-16.629-10.944l.015.003zm25.026 10.962c-1.24.245-2.5.379-3.765.399l-.093-1.065-2.1-24.717-.06-.681a5.7 5.7 0 0 0 1.38-.9l.363.522 14.139 20.298.6.843a22.041 22.041 0 0 1-10.479 5.298l.015.003zm22.914-38.73a67.1 67.1 0 0 0-.156-.753l1.89-2.235 6.15.42.051 15.51a19.29 19.29 0 0 1-7.056-3 47.244 47.244 0 0 0-.879-9.942zm14.31 12.954c-.943.186-1.9.286-2.862.3l-1.278-15.018 4.956.459 3.078 4.419.03 8.523a16.2 16.2 0 0 1-3.924 1.317zm7.317-4.926l.627.9c-.204.183-.411.366-.624.54l-.003-1.44zm2.802-1.392l-.552-.717c.339.042.681.078 1.02.108-.147.207-.309.411-.468.609zm9.462.882s-1.29-3.75-3.81-4.929a31.422 31.422 0 0 0 2.262-10.224 38.286 38.286 0 0 0 2.892-1.602c.318 4.65 1.83 18.189 3.933 20.124a6.864 6.864 0 0 1 1.341 2.049 9.195 9.195 0 0 0-3.399 3.252l-3.219-8.67zm9.333 25.119c.25.03.501.046.753.048l-.621.3-.132-.348zm33.975-11.01l-2.034.171.09-.744c.723-.03 1.482-.075 2.016-.132v.765l-.072-.06z"/>
        <path fill="#D4DFEC" fill-rule="nonzero" d="M113.43 151.89l12.072 15.519-1.239.486-15.42-2.634v3.318l16.086 1.518.573 2.97-12.657 11.226 2.244 3.123 13.275-15.519v24.597h3.612l-2.052-24.987 1.074 2.685 12.39 17.811 2.277-2.244-13.689-17.856-.978-1.275 1.464.585.147 1.026 18.204 3.318.261-3.129-18.978-2.331-.291-2.031 14.175-13.737-2.244-2.439-13.152 15.567-1.245-.708 2.1-22.545-3.345-.39-.096 23.082-.927-1.317-11.64-16.302z"/>
        <path fill="#000" fill-rule="nonzero" d="M113.43 151.89l12.072 15.519-1.239.486-15.42-2.634v3.318l16.086 1.518.573 2.97-12.657 11.226 2.244 3.123 13.275-15.519v24.597h3.612l-2.052-24.987 1.074 2.685 12.39 17.811 2.277-2.244-13.689-17.856-.978-1.275 1.464.585.147 1.026 18.204 3.318.261-3.129-18.978-2.331-.291-2.031 14.175-13.737-2.244-2.439-13.152 15.567-1.245-.708 2.1-22.545-3.345-.39-.096 23.082-.927-1.317-11.64-16.302z" opacity=".1"/>
        <path fill="#65617D" fill-rule="nonzero" d="M152.265 165.783c-3-15.489-15.411-26.115-27.744-23.733-12.333 2.382-19.905 16.866-16.914 32.355 2.991 15.489 15.411 26.1 27.744 23.736 12.333-2.364 19.914-16.866 16.914-32.358zm-17.523 29.208c-10.947 2.1-21.972-7.32-24.627-21.069-2.655-13.749 4.068-26.61 15.015-28.725 10.947-2.115 21.972 7.32 24.627 21.072 2.655 13.752-4.071 26.61-15.018 28.722h.003z"/>
        <path fill="#000" fill-rule="nonzero" d="M152.265 165.783c-3-15.489-15.411-26.115-27.744-23.733-12.333 2.382-19.905 16.866-16.914 32.355 2.991 15.489 15.411 26.1 27.744 23.736 12.333-2.364 19.914-16.866 16.914-32.358zm-17.523 29.208c-10.947 2.1-21.972-7.32-24.627-21.069-2.655-13.749 4.068-26.61 15.015-28.725 10.947-2.115 21.972 7.32 24.627 21.072 2.655 13.752-4.071 26.61-15.018 28.722h.003z" opacity=".1"/>
        <ellipse cx="128.303" cy="170.409" fill="#65617D" fill-rule="nonzero" rx="4.671" ry="5.262" transform="rotate(-10.93 128.303 170.409)"/>
        <path fill="#3F3D56" fill-rule="nonzero" d="M177.063 210.327v2.748s11.823-1.413 13.044-1.989c1.221-.576 8.544-5.817 8.544-6.186 0-.369-1.026-1.077-1.026-1.077L184.2 204.9l-7.137 5.427z"/>
        <path fill="#000" fill-rule="nonzero" d="M177.063 210.327v2.748s11.823-1.413 13.044-1.989c1.221-.576 8.544-5.817 8.544-6.186 0-.369-1.026-1.077-1.026-1.077L184.2 204.9l-7.137 5.427z" opacity=".1"/>
        <path fill="#3F3D56" fill-rule="nonzero" d="M177.99 215.607h.975s12-3.15 11.502-.387c-.498 2.763-8.547 7.77-8.547 7.77l-7.131 1.677-4.8.384-2.859-.849-1.692-2.298 12.552-6.297z"/>
        <path fill="#D4DFEC" fill-rule="nonzero" d="M193.512 200.817l4.5-.771s1.092 2.79.258 3c-.834.21-4.755.273-4.755.273l-.003-2.502zM149.52 166.629h19.005v21.66h-2.943v-19.104l-17.337-.723zM158.139 136.167s5.865-.81 4.989 13.389l-2.463-1.734s1.575-9.3-4.2-11.655h1.674z"/>
        <path fill="#3F3D56" fill-rule="nonzero" d="M161.223 146.73h-42.534l2.184 10.986 41.892 2.829s2.184-13.236-1.542-13.815z"/>
        <path fill="#D4DFEC" fill-rule="nonzero" d="M84.903 113.502s.9-4.617-4.38-3.972-2.058-3.984-2.058-3.984 8.862-1.353 8.736 7.032c-.126 8.385-2.298.924-2.298.924zM110.079 105.465s5.4-.948 5.526 4.707h1.671s.9-6.426-7.2-6.81l.003 2.103zM89.646 136.002l1.287 22.617 1.542-.9v-22.875zM118.689 129.192l2.256 15.24 2.112-1.233-2.184-15.294z"/>
        <path fill="#D4DFEC" fill-rule="nonzero" d="M120.873 137.028s3.855-3.084 7.455-2.184l.513 1.011s-7.068 2.202-7.326 3.228l-.642-2.055z"/>
        <path fill="#3F3D56" fill-rule="nonzero" d="M88.62 112.743s-4.5-1.158-4.113 2.7c.387 3.858 4.113 22.746 4.113 22.746h3.855v19.53l29.04-8.16-2.055-18.438h2.055l-3.468-21.204s-1.542-2.184-2.826-1.155a27.78 27.78 0 0 1-2.313 1.668l-24.288 2.313zM70.629 107.601s-.9 3.6 1.287 4.371c2.187.771 9.378-1.8 9.378-1.8s-1.926-3.63 0-4.707c0 0-7.71-.819-10.665 2.136zM101.985 104.517s-1.695 4.332 1.014 3.966c2.709-.366 8.766-1.971 8.766-1.971s-1.029-3.537 0-4.05c0 0-7.467.255-9.78 2.055zM121.515 150.522l-27.756 10.41 4.497 8.094 24.801-9.252zM133.209 131.373l22.104.771s10.92 2.058 1.668 5.526l-28.14-.795s-8.352-4.731 4.368-5.502zM119.781 163.236c.321.198 42.792 2.769 42.792 2.769l.192 1.47s-11.307 12.6-29.685 10.599c-18.378-2.001-18.504-2.568-18.504-2.568l5.205-12.27z"/>
        <path fill="#000" fill-rule="nonzero" d="M119.781 163.236c.321.198 42.792 2.769 42.792 2.769l.192 1.47s-11.307 12.6-29.685 10.599c-18.378-2.001-18.504-2.568-18.504-2.568l5.205-12.27z" opacity=".1"/>
        <path fill="#D4DFEC" fill-rule="nonzero" d="M131.409 178.149h10.665v25.059h-3.405v-22.104l-8.736-.834z"/>
        <path fill="#65617D" fill-rule="nonzero" d="M147.408 221.901c0 6.567-4.5 11.889-10.023 11.889s-10.02-5.322-10.02-11.889c0-6.567 4.5-11.883 10.023-11.883h.198a8.652 8.652 0 0 1 3.843 1.002c3.519 1.845 5.979 6.024 5.979 10.881z"/>
        <path fill="#000" fill-rule="nonzero" d="M141.426 211.023c-.699 5.505-1.74 12.15-2.721 12.744-1.704 1.026-3.696 1.605-3.567-1.479l2.445-12.267a8.652 8.652 0 0 1 3.843 1.002z" opacity=".1"/>
        <path fill="#D4DFEC" fill-rule="nonzero" d="M134.943 221.904l3.729-18.699h3.393s-1.863 19.149-3.567 20.175c-1.704 1.026-3.681 1.608-3.555-1.476z"/>
        <ellipse cx="164.469" cy="204.453" fill="#65617D" fill-rule="nonzero" rx="8.664" ry="10.275"/>
        <path fill="#D4DFEC" fill-rule="nonzero" d="M162.36 204.453l3.222-16.164h2.943s-1.611 16.551-3.081 17.442c-1.47.891-3.195 1.386-3.084-1.278zM141.369 184.059s-2.7 2.184 0 3.276c2.7 1.092 8.226.954 8.226.954s1.734.075 2.247 2.7c.513 2.625 10.089 26.4 10.089 26.4l2.247-1.158-9.831-26.601s-1.734-5.073-5.139-5.268c-3.405-.195-7.839-.303-7.839-.303zM163.473 221.904s2.7 4.818 4.11 4.305c1.41-.513.45-3.15.45-3.15l-2.592-2.121-1.968.966zM174.78 219.975l5.139-1.476s2.442 3.405.579 4.305c-1.863.9-5.718 1.398-5.718 1.398v-4.227z"/>
        <path fill="#3F3D56" fill-rule="nonzero" d="M161.031 216.375s.933 6.543 3.099 6.6c2.166.057 14.835-7.368 14.835-7.368s-1.992-6.81-3.147-6.426c-1.155.384-14.787 7.194-14.787 7.194z"/>
        <path fill="#3F3D56" fill-rule="nonzero" d="M165.441 221.349l10.755-1.779s-1.137 3.462.555 4.632l-9.168 2.007-2.142-4.86zM183.747 198.408s-9.318 5.28-9.252 5.7c.066.42 1.476 7.239 2.442 7.305.966.066 9.123-6.939 9.123-6.939l-2.313-6.066z"/>
        <path fill="#3F3D56" fill-rule="nonzero" d="M184.323 202.128l9.768-2.082s-.066 3.576.705 4.068l-10.596 1.935.123-3.921z"/>
        <path fill="#D4DFEC" fill-rule="nonzero" d="M161.643 169.461s-.234 1.863.516 1.929c.75.066 5.46-.771 6.618.834 1.158 1.605 13.107 28.656 13.107 28.656l2.238-1.482-11.256-27.174s-3.963-5.397-11.223-2.763z"/>
        <path fill="#C37098" fill-rule="nonzero" d="M97.569 108.228l.453.483 8.118 8.682 1.467 1.569 1.464.447 6.6 2.016s-1.137-7.983-3.474-9.6a1.134 1.134 0 0 1-.48-.801c-.04-.373-.002-.75.111-1.107.154-.515.36-1.012.615-1.485.296-.56.62-1.103.972-1.629l.252-.372a39.9 39.9 0 0 1 2.847-3.624s-1.434-1.2-3.228-2.577c-3.153-2.427-7.413-5.424-6.948-3.519.237.963-.6 2.499-1.8 4.14-.048.063-.096.129-.147.192a45.687 45.687 0 0 1-3.273 3.732c-1.881 1.956-3.549 3.453-3.549 3.453zM173.535 188.724s2.874 9.345 7.617 10.707 10.644-.204 10.644-.204 1.698 4.701-.66 5.841c-2.358 1.14-10.8-.249-12.447.3-1.647.549-5.946 2.82-5.946 2.82s-1.113-4.296-.984-6.318c.129-2.022-1.794-11.595-1.794-11.595l3.57-1.551z"/>
        <path fill="#3E5C82" fill-rule="nonzero" d="M176.64 201.588s3.354-3.066 3.375-3.255c0 0 5.76.939 7.134.804 1.374-.135 11.181-.675 8.343 3.417-2.838 4.092-19.5 6.429-19.689 6.456-.189.027-2.754-2.025-2.325-3.9.429-1.875 1.47-3.567 3.162-3.522z"/>
        <path fill="#65617D" fill-rule="nonzero" d="M124.965 150.312l4.893 1.764s6.3.516 11.601-.969c5.301-1.485 23.4-.3 25.695 1.35 2.295 1.65 4.047 6.666 4.047 6.666s-.678 7.731.33 9.105c1.008 1.374 3.3 21.372 3.3 21.372s-4.428 3.573-7.686 3.207c-3.258-.366-10.08-29.511-10.08-29.511l-33.795-4.821 1.695-8.163z"/>
        <path fill="#C37098" fill-rule="nonzero" d="M164.43 203.652l3.201 4.023 2.529 3.186s.549 2.244 1.365 4.581c.834 2.4 1.941 4.887 3 5.154 2.124.531 14.1-2.4 14.1-2.4s-.792-6.3-7.266-7.8a7.53 7.53 0 0 1-1.044-.324c-3.75-1.452-5.967-5.583-7.005-8.223-.537-1.371-.756-2.34-.711-2.337l-8.169 4.14z"/>
        <path fill="#000" fill-rule="nonzero" d="M171.525 215.448c.834 2.4 1.941 4.887 3 5.154 2.124.531 14.1-2.4 14.1-2.4s-.792-6.3-7.266-7.8a7.53 7.53 0 0 1-1.044-.324c-1.707 1.602-7.518 4.701-8.79 5.37z" opacity=".1"/>
        <path fill="#3E5C82" fill-rule="nonzero" d="M171.447 215.793s9.429-4.902 9.522-6.15c0 0 5.772.843 7.569.393 1.797-.45 12.027-.363 9.738 3.939-2.289 4.302-14.7 7.668-14.7 7.668s-11.547 1.347-12.057.708c-.51-.639-.072-6.558-.072-6.558z"/>
        <path fill="#C37098" fill-rule="nonzero" d="M124.935 132.558s.783.384 2.007.9c3.918 1.674 12.372 4.8 14.268 1.419 2.487-4.425-7.59-4.5-8.73-3.849-.6.339-1.692 0-2.595-.432a13.896 13.896 0 0 1-1.485-.804l-3.465 2.766z"/>
        <path fill="#000" fill-rule="nonzero" d="M104.379 101.037a10.869 10.869 0 0 0 9.045 5.754 39.036 39.036 0 0 1 3.099-3.996s-10.905-9.087-10.176-6.096c.237 1.005-.663 2.625-1.968 4.338z" opacity=".1"/>
        <path fill="#C37098" fill-rule="nonzero" d="M103.215 94.317a10.872 10.872 0 0 0 9.6 12.042c.285.033.57.054.852.066 5.9.2 10.884-4.337 11.24-10.23.354-5.892-4.05-10.994-9.931-11.503-5.881-.51-11.097 3.76-11.761 9.625z"/>
        <path fill="#000" fill-rule="nonzero" d="M124.935 132.558s.783.384 2.007.9c.966-1.236 2.265-2.268 2.943-2.862a13.896 13.896 0 0 1-1.485-.804l-3.465 2.766zM111.828 109.911c.154-.515.36-1.012.615-1.485l-.093-.114a5.844 5.844 0 0 0-.522 1.599zM97.569 108.228l10.038 10.734 8.058 2.463s-1.137-7.983-3.474-9.6a1.134 1.134 0 0 1-.48-.801c-.105 3.801 2.4 7.902 2.4 7.902s-.777 0-1.74-2.619-7.635-9.69-8.793-10.596c-.417-.327-1.29-.69-2.46-.933a76.09 76.09 0 0 1-3.549 3.45z" opacity=".1"/>
        <path fill="#3E5C82" fill-rule="nonzero" d="M112.308 108.696s1.404 1.743 2.67 1.692c1.266-.051 5.823 5.118 5.7 6.171-.123 1.053.123 3.216 1.5 3.855 1.377.639 1.782 3.111 1.782 3.111s3.3 1.731 2.868 2.943c-.432 1.212 2.526 3.39 3.09 3.552.564.162-5.457 3.651-4.482 7.056.975 3.405-2.538 7.863-1.551 9.429.987 1.566 4.365 12.372 3.045 12.9-1.32.528-32.4-.846-32.4-.846s1.086-14.277.123-16.908c-.963-2.631-1.383-18.681-2.1-21-.717-2.319-4.479-12.726.3-14.7 4.779-1.974 9.495-.771 10.653.138 1.158.909 7.83 7.962 8.793 10.593.963 2.631 1.74 2.622 1.74 2.622s-3.858-6.387-1.731-10.608z"/>
        <path fill="#000" fill-rule="nonzero" d="M127.131 154.773s14.265-.084 14.985-.438c.72-.354 16.095-1.674 20.634 1.5 4.539 3.174 6.666 10.11 6.666 10.11l.987 12.72 3.6 21.699s-6.138 9.042-8.601 6.258c-.858-.969-2.898-11.676-5.358-13.941-2.46-2.265-4.05-20.4-3.921-21.537 0 0-2.244-.738-3.9.093-1.656.831-26.364.708-26.505.69-.141-.018-7.044-16.215-7.044-16.215l8.457-.939z" opacity=".1"/>
        <path fill="#000" fill-rule="nonzero" d="M164.43 203.652l3.201 4.023c2.172-1.158 4.722-4.485 5.685-5.814-.537-1.371-.756-2.34-.711-2.337l-8.175 4.128z" opacity=".1"/>
        <path fill="#65617D" fill-rule="nonzero" d="M126.705 155.115s14.265-.087 14.985-.441c.72-.354 16.095-1.674 20.634 1.5 4.539 3.174 6.666 10.113 6.666 10.113l.987 12.72 3.6 21.696s-6.144 9.036-8.613 6.252c-.861-.969-2.898-11.673-5.358-13.941-2.46-2.268-4.05-20.4-3.921-21.537 0 0-2.244-.738-3.9.093-1.656.831-26.343.705-26.487.705-.144 0-7.041-16.218-7.041-16.218l8.448-.942z"/>
        <path fill="#000" fill-rule="nonzero" d="M93.561 121.755c1.428 0 2.883.339 4.326.285 3.279-.117 5.961-2.163 8.253-4.647.339-.363.672-.741.993-1.122a61.23 61.23 0 0 0 1.632-2.031c.477-.618.984-1.323.9-2.1-.054-.513-.363-.957-.579-1.425-.759-1.659-.3-3.546.57-5.205.254-.483.54-.948.855-1.392.915-1.296 1.995-2.529 2.781-3.9.39-.655.685-1.362.876-2.1.282-1.122.264-2.298.495-3.432a7.854 7.854 0 0 1 4.026-5.325c.861-.465 2.031-.9 3.108-1.467a10.89 10.89 0 0 0-17.265 12.951c-.048.063-.096.129-.147.192a45.687 45.687 0 0 1-3.267 3.738c-1.881 1.959-3.549 3.456-3.549 3.456l.453.483c-2.01.774-3.198 2.793-4.005 4.353-.597 1.149-.678 4.68-.456 8.688z" opacity=".1"/>
        <path fill="#D4DFEC" fill-rule="nonzero" d="M90.546 142.023s-6.423.789-5.139 10.296l.9 13.107s.129 5.268 3.342 5.142c3.213-.126-1.758-19.02-1.758-19.02s-.813-6.681 3.171-7.71l-.516-1.815zM133.596 178.149h-2.187l-.345-22.092-.039-2.418s-2.316-7.614-6.168-8.13c-3.852-.516 1.293-1.8 1.293-1.8s7.317 2.247 7.446 9.927c.129 7.68 0 24.513 0 24.513z"/>
        <path fill="#3F3D56" fill-rule="nonzero" d="M95.046 139.983l25.827 1.029s17.22 3.726 2.184 5.718l-30.582-1.35s-10.794-3.213 2.571-5.397z"/>
        <path fill="#000" fill-rule="nonzero" d="M132.696 158.247v18.927c0 .337-.074.67-.219.975h-1.068l-.345-22.092a2.286 2.286 0 0 1 1.632 2.19z" opacity=".1"/>
        <path fill="#3F3D56" fill-rule="nonzero" d="M93.492 153.792l36.873 2.367a2.286 2.286 0 0 1 2.139 2.28v18.936a2.286 2.286 0 0 1-2.448 2.28l-36.873-2.64a2.283 2.283 0 0 1-2.121-2.28v-18.66a2.286 2.286 0 0 1 2.43-2.283z"/>
        <path fill="#D4DFEC" fill-rule="nonzero" d="M118.905 190.8l-.345 4.119-1.71-.312-21.474-3.915-.783-.141-.192-1.35-1.926-.771 1.284 1.677 1.245 1.623 15.138 19.746 1.641 2.139-2.997 2.958-1.488-2.139-14.085-20.253-.738-1.059-1.413-3.534.462 5.646 2.019 24.6.216 2.649h-4.755v-32.382l-3.654 4.269-12.354 14.445-1.467 1.716-2.958-4.11 1.767-1.569 13.509-11.976 1.392-1.233-.756-3.915-2.319-.216-17.085-1.611-1.776-.168v-4.371l1.905.327 17.571 3.003.828.141 1.632-.642-1.185-1.521-13.275-17.07-1.434-1.842 2.634-3.438 1.458 2.043 13.248 18.555.618.864 1.218 1.734.012-2.919.108-24.972.009-2.499 4.401.513-.219 2.358-2.316 24.9-.225 2.427 1.638.93 1.374-1.629 14.694-17.391 1.245-1.476 2.958 3.213-1.662 1.608-16.056 15.558-.948.921.384 2.67 1.743.216 21.411 2.631z"/>
        <path fill="#000" fill-rule="nonzero" d="M117.072 190.575a39.52 39.52 0 0 1-.219 4.029l1.707.3.345-4.116-1.833-.213zm-9.075-25.341a33.438 33.438 0 0 1 2.541 3.345l1.662-1.611-2.955-3.21-1.248 1.476zm-.699 49.2l1.5 2.139 3-2.955-1.641-2.139a24.351 24.351 0 0 1-2.859 2.952v.003zm-18.3 4.974v3.075h4.767l-.216-2.649a21.141 21.141 0 0 1-4.545-.429l-.006.003zm4.05-65.766l-4.383-.519v2.499a21.3 21.3 0 0 1 4.2.372l.183-2.352zm-23.7 10.119l1.434 1.842a25.875 25.875 0 0 1 2.655-3.228l-1.458-2.046-2.631 3.432zm-.783 42.657l2.955 4.113 1.467-1.716a35.1 35.1 0 0 1-2.658-3.963l-1.764 1.566zm-5.268-25.056v4.368l1.773.168a38.382 38.382 0 0 1 .132-4.2l-1.905-.336z" opacity=".1"/>
        <path fill="#65617D" fill-rule="nonzero" d="M120.465 182.052c-3.936-20.4-20.292-34.383-36.528-31.248-16.236 3.135-26.205 22.2-22.266 42.6 3.939 20.4 20.292 34.371 36.528 31.248 16.236-3.123 26.208-22.206 22.266-42.6zm-23.07 38.454c-14.4 2.784-28.929-9.636-32.424-27.738-3.495-18.102 5.355-35.037 19.767-37.818 14.412-2.781 28.935 9.636 32.427 27.738 3.492 18.102-5.352 35.037-19.767 37.818h-.003z"/>
        <path fill="#000" fill-rule="nonzero" d="M94.401 189.201l-1.926-.771 1.284 1.674 1.245 1.623a7.02 7.02 0 0 1-1.8 2.454l-.738-1.062-1.401-3.534.462 5.646a6 6 0 0 1-2.52.456v-5.589l-3.642 4.272a7.416 7.416 0 0 1-1.5-1.5l1.392-1.233-.753-3.9-2.319-.219c.026-.969.23-1.925.6-2.82l.828.141 1.632-.642-1.185-1.521a6.222 6.222 0 0 1 2.631-1.752l.618.864 1.221 1.734v-2.916a6.045 6.045 0 0 1 1.983.3l-.225 2.427 1.638.93 1.377-1.626c.452.45.846.954 1.176 1.5l-.948.918.387 2.673 1.74.213a8.178 8.178 0 0 1-.285 2.751l-.78-.141-.192-1.35z" opacity=".1"/>
        <ellipse cx="88.925" cy="188.141" fill="#65617D" fill-rule="nonzero" rx="6.15" ry="6.93" transform="rotate(-10.93 88.925 188.14)"/>
        <path fill="#E8EAF2" fill-rule="nonzero" d="M138.234 133.797c0 1.743-3.051 3.492-6.816 3.492-3.765 0-6.819-1.749-6.819-3.492 0-1.743 3.051-2.826 6.819-2.826s6.816 1.08 6.816 2.826z"/>
        <path fill="#000" fill-rule="nonzero" d="M138.234 133.797c0 1.743-3.051 3.492-6.816 3.492-3.765 0-6.819-1.749-6.819-3.492 0-1.743 3.051-2.826 6.819-2.826s6.816 1.08 6.816 2.826z" opacity=".1"/>
        <ellipse cx="131.415" cy="133.797" fill="#E8EAF2" fill-rule="nonzero" rx="6.819" ry="3.159"/>
        <ellipse cx="131.436" cy="133.917" fill="#000" fill-rule="nonzero" opacity=".05" rx="4.068" ry="1.638"/>
        <path fill="#65617D" fill-rule="nonzero" d="M140.865 130.107c-.138-.855-1.269-1.422-2.718-1.452a6.405 6.405 0 0 0-1.152.081c-1.962.315-3.414 1.443-3.243 2.517.138.849 1.248 1.41 2.676 1.452a6.3 6.3 0 0 0 1.2-.078c1.95-.318 3.402-1.452 3.237-2.52zm-3.339 1.968a4.5 4.5 0 0 1-.621.057c-1.137.03-2.049-.387-2.154-1.041-.123-.771.918-1.578 2.325-1.8a4.683 4.683 0 0 1 1.011-.048c.948.063 1.671.456 1.764 1.032.114.765-.918 1.572-2.325 1.8zM134.697 133.635a.735.735 0 0 1-.168.45c-.426.561-1.626.966-3.039.966-1.317 0-2.448-.351-2.943-.852a.813.813 0 0 1-.264-.564c0-.783 1.437-1.416 3.207-1.416 1.77 0 3.207.633 3.207 1.416z"/>
        <path fill="#000" fill-rule="nonzero" d="M134.697 133.635a.735.735 0 0 1-.168.45 6.156 6.156 0 0 1-2.727.633h-.771a6.19 6.19 0 0 1-2.484-.519.813.813 0 0 1-.264-.564c0-.783 1.437-1.416 3.207-1.416 1.77 0 3.207.633 3.207 1.416zM138.138 128.655c0 .195-.024.39-.051.582a4.683 4.683 0 0 0-1.011.048c-1.407.228-2.448 1.035-2.325 1.8.105.654 1.017 1.071 2.154 1.041-.15.201-.312.393-.486.573-1.428-.042-2.538-.6-2.676-1.452-.171-1.074 1.281-2.202 3.243-2.517.381-.06.767-.085 1.152-.075z" opacity=".1"/>
        <path fill="#65617D" fill-rule="nonzero" d="M124.836 127.536v.882a6.195 6.195 0 0 0 6.195 6.195h.771a6.195 6.195 0 0 0 6.195-6.195v-.882h-13.161z"/>
        <ellipse cx="131.385" cy="127.341" fill="#65617D" fill-rule="nonzero" rx="6.609" ry="1.881"/>
        <ellipse cx="131.415" cy="127.224" fill="#000" fill-rule="nonzero" opacity=".1" rx="6.267" ry="1.701"/>
        <ellipse cx="131.436" cy="127.161" fill="#FDF9F9" fill-rule="nonzero" rx="6.12" ry="1.701"/>
        <path fill="#42312E" fill-rule="nonzero" d="M126.96 127.614a.174.174 0 1 1 0-.348.174.174 0 0 1 0 .348zm0-.282a.108.108 0 0 0-.108.108c0 .06.048.11.108.111.06-.002.11-.05.111-.111a.111.111 0 0 0-.111-.108zM127.161 127.251a.174.174 0 1 1-.006-.348.174.174 0 0 1 .006.348zm0-.282a.114.114 0 0 0-.111.111c.002.06.05.108.111.108.06 0 .108-.048.108-.108a.111.111 0 0 0-.108-.105v-.006zM126.96 126.702a.174.174 0 1 1 0-.348.174.174 0 0 1 0 .348zm0-.282a.111.111 0 1 0 .036.219.111.111 0 0 0-.036-.219zM128.226 127.98a.174.174 0 1 1 .171-.171.171.171 0 0 1-.171.171zm0-.282a.111.111 0 0 0-.108.111.108.108 0 1 0 .216 0c0-.06-.048-.11-.108-.111zM133.305 127.641a.174.174 0 1 1 0-.348.174.174 0 0 1 0 .348zm0-.282a.111.111 0 0 0-.111.111.111.111 0 0 0 .219 0c0-.06-.048-.11-.108-.111zM134.43 128.085a.171.171 0 0 1-.171-.171.174.174 0 0 1 .171-.171c.094 0 .171.077.171.171a.168.168 0 0 1-.171.171zm0-.279a.108.108 0 0 0-.108.108c0 .06.048.11.108.111.06-.002.11-.05.111-.111a.111.111 0 0 0-.111-.108zM134.469 127.359a.171.171 0 0 1-.171-.171.174.174 0 1 1 .171.171zm0-.279a.108.108 0 0 0-.108.108c0 .06.048.11.108.111.06-.002.11-.05.111-.111a.111.111 0 0 0-.111-.108zM135.003 126.201a.174.174 0 1 1 .171-.171.171.171 0 0 1-.171.171zm0-.282a.111.111 0 0 0-.108.111.108.108 0 0 0 .216 0c0-.06-.048-.11-.108-.111zM134.742 127.785a.174.174 0 0 1 0-.345.174.174 0 0 1 0 .345zm0-.282a.114.114 0 0 0-.111.111c.002.06.05.108.111.108.06 0 .108-.048.108-.108s-.048-.11-.108-.111zM135.366 127.44a.171.171 0 0 1-.171-.171.174.174 0 1 1 .171.171zm0-.279a.108.108 0 0 0-.108.108c0 .06.048.11.108.111a.114.114 0 0 0 .099-.105.111.111 0 0 0-.099-.114zM135.306 127.848a.174.174 0 1 1-.006-.348.174.174 0 0 1 .006.348zm0-.282a.111.111 0 1 0 .108.108.108.108 0 0 0-.108-.099v-.009zM135.111 126.81a.171.171 0 1 1 .006-.342.171.171 0 0 1-.006.342zm0-.279a.108.108 0 1 0 .006.216.108.108 0 0 0-.006-.216zM136.065 126.591a.168.168 0 0 1-.171-.171c0-.094.077-.171.171-.171.094.002.17.077.171.171a.171.171 0 0 1-.171.171zm0-.279c-.06 0-.11.048-.111.108.002.06.05.11.111.111a.111.111 0 0 0 .108-.111.108.108 0 0 0-.108-.108zM133.305 126.177a.171.171 0 0 1-.174-.171.174.174 0 0 1 .345 0 .171.171 0 0 1-.171.171zm0-.279a.108.108 0 0 0-.111.108.111.111 0 1 0 .219 0 .108.108 0 0 0-.108-.108zM132.651 125.898a.174.174 0 0 1 0-.345.174.174 0 0 1 0 .345zm0-.282a.111.111 0 1 0 .036.219.111.111 0 0 0-.036-.219zM131.214 126.006a.171.171 0 0 1-.171-.171.168.168 0 0 1 .171-.171c.094 0 .171.077.171.171a.174.174 0 0 1-.171.171zm0-.282a.114.114 0 0 0-.111.111c.002.06.05.108.111.108a.108.108 0 0 0 .108-.108c0-.06-.048-.11-.108-.111zM132.465 127.698a.174.174 0 1 1 0-.348.174.174 0 0 1 0 .348zm0-.282a.114.114 0 0 0-.111.111c.002.06.05.108.111.108.06 0 .108-.048.108-.108s-.048-.11-.108-.111zM127.785 127.875a.171.171 0 0 1-.174-.171.174.174 0 0 1 .345 0 .171.171 0 0 1-.171.171zm0-.279a.108.108 0 0 0-.111.108.111.111 0 1 0 .219 0 .108.108 0 0 0-.108-.114v.006zM128.508 127.47a.174.174 0 1 1-.006-.348.174.174 0 0 1 .006.348zm0-.282a.111.111 0 1 0-.036.219.111.111 0 0 0 .036-.219zM129.126 127.674a.171.171 0 0 1-.174-.171.174.174 0 0 1 .345 0 .171.171 0 0 1-.171.171zm0-.279a.108.108 0 0 0-.111.108.111.111 0 1 0 .219 0 .108.108 0 0 0-.108-.108zM129.234 127.245a.171.171 0 1 1 .171-.171.168.168 0 0 1-.171.171zm0-.279a.108.108 0 1 0 .108.108.108.108 0 0 0-.108-.099v-.009zM129.237 126.864a.174.174 0 0 1 0-.345.174.174 0 0 1 0 .345zm0-.282a.111.111 0 1 0 .036.219.111.111 0 0 0-.036-.219zM129.408 128.226a.174.174 0 1 1 0-.348.174.174 0 0 1 0 .348zm0-.282a.111.111 0 1 0 .036.219.111.111 0 0 0-.036-.219zM131.121 128.265a.174.174 0 1 1 0-.348.174.174 0 0 1 0 .348zm0-.282a.111.111 0 0 0-.108.111.111.111 0 0 0 .219 0 .111.111 0 0 0-.111-.111zM130.908 127.848a.174.174 0 1 1-.006-.348.174.174 0 0 1 .006.348zm0-.282a.111.111 0 1 0-.036.219.111.111 0 0 0 .036-.219zM130.044 127.641a.174.174 0 0 1-.171-.171c0-.094.077-.171.171-.171a.168.168 0 0 1 .171.171.171.171 0 0 1-.171.171zm0-.282a.111.111 0 0 0-.108.111.108.108 0 0 0 .108.108c.06 0 .11-.048.111-.108a.114.114 0 0 0-.111-.111zM131.886 126.975a.174.174 0 1 1-.006-.348.174.174 0 0 1 .006.348zm0-.282a.111.111 0 1 0-.036.219.111.111 0 0 0 .036-.219zM131.103 127.44a.171.171 0 0 1-.171-.171.174.174 0 1 1 .171.171zm0-.279a.108.108 0 0 0-.108.108.111.111 0 1 0 .219 0 .108.108 0 0 0-.111-.108zM132.015 126.471a.174.174 0 1 1 .171-.174.171.171 0 0 1-.171.174zm0-.282a.108.108 0 1 0 0 .216.108.108 0 0 0 0-.216zM131.949 126.003a.174.174 0 1 1 0-.348.174.174 0 0 1 0 .348zm0-.282a.111.111 0 0 0-.111.111.111.111 0 0 0 .219 0c0-.06-.048-.11-.108-.111zM131.589 126.483a.174.174 0 0 1 0-.345.174.174 0 0 1 0 .345zm0-.282a.114.114 0 0 0-.111.111c.002.06.05.108.111.108.06 0 .108-.048.108-.108s-.048-.11-.108-.111zM130.704 127.293a.174.174 0 1 1 0-.348.174.174 0 0 1 0 .348zm0-.282a.111.111 0 1 0 .036.219.111.111 0 0 0-.036-.219zM130.044 127.155a.174.174 0 1 1 .171-.171.171.171 0 0 1-.171.171zm0-.282a.111.111 0 1 0 .036.219.111.111 0 0 0-.036-.219zM130.908 126.375a.174.174 0 1 1 0-.348.174.174 0 0 1 0 .348zm0-.282a.114.114 0 0 0-.111.111c.002.06.05.108.111.108.06 0 .108-.048.108-.108a.111.111 0 0 0-.108-.129v.018zM129.642 126.531a.111.111 0 0 1-.108-.111.108.108 0 0 1 .108-.108c.06 0 .11.048.111.108a.114.114 0 0 1-.111.111zm0-.18a.069.069 0 1 0 0 .138.069.069 0 0 0 0-.138zM129.975 126.747a.108.108 0 1 1 0-.216.108.108 0 0 1 0 .216zm0-.177a.069.069 0 1 0 0 .138.069.069 0 0 0 0-.138zM131.604 125.871a.108.108 0 1 1 0-.216.108.108 0 0 1 0 .216zm0-.18a.072.072 0 1 0 .069.072.069.069 0 0 0-.069-.072zM131.844 127.707a.114.114 0 0 1-.111-.111.111.111 0 0 1 .111-.108c.06 0 .108.048.108.108s-.048.11-.108.111zm0-.18a.069.069 0 1 0 0 .138.069.069 0 0 0 0-.138zM132.123 127.836a.111.111 0 0 1-.108-.111.111.111 0 0 1 .219 0c0 .061-.05.111-.111.111zm0-.18a.069.069 0 1 0 .006.138.069.069 0 0 0-.006-.138zM131.781 127.401a.111.111 0 0 1-.111-.108c.002-.06.05-.11.111-.111.06.002.108.05.108.111 0 .06-.048.108-.108.108zm0-.177a.069.069 0 1 0 0 .138.069.069 0 0 0 0-.138zM133.92 126.375a.111.111 0 1 1 .036-.219.111.111 0 0 1-.036.219zm0-.18a.072.072 0 1 0 .03.141.072.072 0 0 0-.03-.141zM134.055 126.675a.108.108 0 0 1-.111-.108.111.111 0 1 1 .219 0c0 .06-.048.108-.108.108zm0-.177a.069.069 0 0 0-.072.069.072.072 0 1 0 .127-.059.069.069 0 0 0-.055-.025v.015zM133.944 126.921a.111.111 0 0 1-.108-.111c0-.06.048-.108.108-.108s.11.048.111.108a.114.114 0 0 1-.111.111zm0-.18a.069.069 0 1 0 0 .138.069.069 0 0 0 0-.138zM133.665 127.722a.111.111 0 0 1-.111-.108c.002-.06.05-.11.111-.111.06.002.108.05.108.111 0 .06-.048.108-.108.108zm0-.18a.072.072 0 1 0-.03.141.072.072 0 0 0 .03-.141zM135.393 126.975a.108.108 0 0 1-.108-.108c0-.06.048-.11.108-.111.06.002.11.05.111.111a.111.111 0 0 1-.111.108zm0-.177a.069.069 0 1 0 .069.069.069.069 0 0 0-.069-.072v.003zM132.822 127.635a.108.108 0 0 1-.108-.108c0-.06.048-.11.108-.111.06.002.11.05.111.111a.111.111 0 0 1-.111.108zm0-.177a.069.069 0 1 0 .006.138.069.069 0 0 0-.006-.138zM133.731 127.188a.111.111 0 0 1-.111-.108c.002-.06.05-.11.111-.111.06.002.108.05.108.111 0 .06-.048.108-.108.108zm0-.177a.069.069 0 1 0 0 .138.069.069 0 0 0 0-.138zM133.365 127.944a.108.108 0 0 1-.108-.108c0-.06.048-.11.108-.111.06.002.11.05.111.111a.111.111 0 0 1-.111.108zm0-.18a.072.072 0 1 0 0 .144.072.072 0 0 0 0-.144zM135.765 127.182a.108.108 0 1 1 0-.216.108.108 0 0 1 0 .216zm0-.177a.069.069 0 1 0 0 .138.069.069 0 0 0 0-.138zM134.361 126.006a.108.108 0 1 1 0-.216.108.108 0 0 1 0 .216zm0-.18a.072.072 0 1 0 .069.072.069.069 0 0 0-.069-.072zM130.665 125.871a.111.111 0 0 1-.111-.108c.002-.06.05-.11.111-.111.06.002.108.05.108.111 0 .06-.048.108-.108.108zm0-.18a.072.072 0 1 0-.03.141.072.072 0 0 0 .03-.141zM127.548 126.795a.111.111 0 0 1-.111-.111.111.111 0 0 1 .219 0c0 .06-.048.11-.108.111zm0-.18a.069.069 0 1 0 0 .138.069.069 0 0 0 0-.138zM130.266 126.006a.108.108 0 0 1-.108-.108c0-.06.048-.11.108-.111.06.002.11.05.111.111a.111.111 0 0 1-.111.108zm0-.18a.072.072 0 1 0 .069.072.069.069 0 0 0-.069-.072zM127.833 127.299a.111.111 0 0 1-.108-.111c0-.06.048-.108.108-.108s.11.048.111.108a.114.114 0 0 1-.111.111zm0-.18a.069.069 0 1 0 0 .138.069.069 0 0 0 0-.138zM128.226 126.639a.111.111 0 1 1 .108-.108c0 .06-.048.108-.108.108zm0-.18a.072.072 0 1 0 .069.072.069.069 0 0 0-.069-.072zM126.246 127.092a.111.111 0 1 1 .036-.219.111.111 0 0 1-.036.219zm0-.18a.072.072 0 1 0 .069.072.069.069 0 0 0-.069-.072zM129.015 128.052a.108.108 0 1 1 0-.216.108.108 0 0 1 0 .216zm0-.177a.069.069 0 1 0 0 .138.069.069 0 0 0 0-.138zM129.804 128.094a.114.114 0 0 1-.111-.111.111.111 0 0 1 .111-.108c.06 0 .108.048.108.108s-.048.11-.108.111zm0-.18a.069.069 0 1 0 .069.069.072.072 0 0 0-.069-.069z" opacity=".3"/>
        <circle cx="126.591" cy="127.41" r="1" fill="#42312E" fill-rule="nonzero" opacity=".3"/>
        <circle cx="127.218" cy="126.204" r="1" fill="#42312E" fill-rule="nonzero" opacity=".3"/>
        <circle cx="128.088" cy="126.75" r="1" fill="#42312E" fill-rule="nonzero" opacity=".3"/>
        <circle cx="127.524" cy="125.967" r="1" fill="#42312E" fill-rule="nonzero" opacity=".3"/>
        <circle cx="130.695" cy="126.552" r="1" fill="#42312E" fill-rule="nonzero" opacity=".3"/>
        <circle cx="127.956" cy="126.423" r="1" fill="#42312E" fill-rule="nonzero" opacity=".3"/>
        <circle cx="127.632" cy="126.384" r="1" fill="#42312E" fill-rule="nonzero" opacity=".3"/>
        <circle cx="128.259" cy="127.035" r="1" fill="#42312E" fill-rule="nonzero" opacity=".3"/>
        <circle cx="133.023" cy="126.531" r="1" fill="#42312E" fill-rule="nonzero" opacity=".3"/>
        <circle cx="134.298" cy="126.78" r="1" fill="#42312E" fill-rule="nonzero" opacity=".3"/>
        <circle cx="133.944" cy="127.872" r="1" fill="#42312E" fill-rule="nonzero" opacity=".3"/>
        <circle cx="134.43" cy="127.506" r="1" fill="#42312E" fill-rule="nonzero" opacity=".3"/>
        <circle cx="133.002" cy="127.959" r="1" fill="#42312E" fill-rule="nonzero" opacity=".3"/>
        <circle cx="132.681" cy="126.522" r="1" fill="#42312E" fill-rule="nonzero" opacity=".3"/>
        <circle cx="131.622" cy="127.767" r="1" fill="#42312E" fill-rule="nonzero" opacity=".3"/>
        <circle cx="133.536" cy="126.813" r="1" fill="#42312E" fill-rule="nonzero" opacity=".3"/>
        <circle cx="132.606" cy="128.043" r="1" fill="#42312E" fill-rule="nonzero" opacity=".3"/>
        <circle cx="128.763" cy="127.872" r="1" fill="#42312E" fill-rule="nonzero" opacity=".3"/>
        <circle cx="134.052" cy="127.098" r="1" fill="#42312E" fill-rule="nonzero" opacity=".3"/>
        <circle cx="136.053" cy="126.951" r="1" fill="#42312E" fill-rule="nonzero" opacity=".3"/>
        <circle cx="135.477" cy="126.444" r="1" fill="#42312E" fill-rule="nonzero" opacity=".3"/>
        <circle cx="133.476" cy="126.312" r="1" fill="#42312E" fill-rule="nonzero" opacity=".3"/>
        <circle cx="129.639" cy="127.098" r="1" fill="#42312E" fill-rule="nonzero" opacity=".3"/>
        <circle cx="134.913" cy="126.921" r="1" fill="#42312E" fill-rule="nonzero" opacity=".3"/>
        <circle cx="133.065" cy="126.213" r="1" fill="#42312E" fill-rule="nonzero" opacity=".3"/>
        <circle cx="134.64" cy="126.513" r="1" fill="#42312E" fill-rule="nonzero" opacity=".3"/>
        <circle cx="133.686" cy="125.874" r="1" fill="#42312E" fill-rule="nonzero" opacity=".3"/>
        <circle cx="133.002" cy="125.763" r="1" fill="#42312E" fill-rule="nonzero" opacity=".3"/>
        <circle cx="129.864" cy="126.069" r="1" fill="#42312E" fill-rule="nonzero" opacity=".3"/>
        <circle cx="130.554" cy="126.15" r="1" fill="#42312E" fill-rule="nonzero" opacity=".3"/>
        <circle cx="128.811" cy="126.78" r="1" fill="#42312E" fill-rule="nonzero" opacity=".3"/>
        <circle cx="132.321" cy="126.813" r="1" fill="#42312E" fill-rule="nonzero" opacity=".3"/>
        <circle cx="132.729" cy="126.909" r="1" fill="#42312E" fill-rule="nonzero" opacity=".3"/>
        <circle cx="130.413" cy="127.017" r="1" fill="#42312E" fill-rule="nonzero" opacity=".3"/>
        <circle cx="131.436" cy="127.128" r="1" fill="#42312E" fill-rule="nonzero" opacity=".3"/>
        <circle cx="130.335" cy="126.345" r="1" fill="#42312E" fill-rule="nonzero" opacity=".3"/>
        <circle cx="132.651" cy="127.128" r="1" fill="#42312E" fill-rule="nonzero" opacity=".3"/>
        <circle cx="132.3" cy="127.191" r="1" fill="#42312E" fill-rule="nonzero" opacity=".3"/>
        <circle cx="126.96" cy="126.213" r="1" fill="#42312E" fill-rule="nonzero" opacity=".3"/>
        <circle cx="129.078" cy="126.444" r="1" fill="#42312E" fill-rule="nonzero" opacity=".3"/>
        <circle cx="128.346" cy="125.967" r="1" fill="#42312E" fill-rule="nonzero" opacity=".3"/>
        <circle cx="128.055" cy="127.122" r="1" fill="#42312E" fill-rule="nonzero" opacity=".3"/>
        <circle cx="128.397" cy="126.351" r="1" fill="#42312E" fill-rule="nonzero" opacity=".3"/>
        <circle cx="126.387" cy="126.618" r="1" fill="#42312E" fill-rule="nonzero" opacity=".3"/>
        <circle cx="135.09" cy="126.351" r="1" fill="#42312E" fill-rule="nonzero" opacity=".3"/>
        <circle cx="135.813" cy="126.249" r="1" fill="#42312E" fill-rule="nonzero" opacity=".3"/>
        <circle cx="136.416" cy="127.161" r="1" fill="#42312E" fill-rule="nonzero" opacity=".3"/>
        <circle cx="135.966" cy="126.702" r="1" fill="#42312E" fill-rule="nonzero" opacity=".3"/>
        <circle cx="136.161" cy="127.299" r="1" fill="#42312E" fill-rule="nonzero" opacity=".3"/>
        <circle cx="136.416" cy="126.837" r="1" fill="#42312E" fill-rule="nonzero" opacity=".3"/>
        <circle cx="135.726" cy="126.75" r="1" fill="#42312E" fill-rule="nonzero" opacity=".3"/>
        <circle cx="136.689" cy="126.75" r="1" fill="#42312E" fill-rule="nonzero" opacity=".3"/>
        <circle cx="128.616" cy="126.57" r="1" fill="#42312E" fill-rule="nonzero" opacity=".3"/>
        <circle cx="129.831" cy="125.739" r="1" fill="#42312E" fill-rule="nonzero" opacity=".3"/>
        <circle cx="131.322" cy="127.545" r="1" fill="#42312E" fill-rule="nonzero" opacity=".3"/>
        <circle cx="129.447" cy="125.727" r="1" fill="#42312E" fill-rule="nonzero" opacity=".3"/>
        <circle cx="128.922" cy="125.799" r="1" fill="#42312E" fill-rule="nonzero" opacity=".3"/>
        <circle cx="131.226" cy="126.276" r="1" fill="#42312E" fill-rule="nonzero" opacity=".3"/>
        <circle cx="126.618" cy="126.864" r="1" fill="#42312E" fill-rule="nonzero" opacity=".3"/>
        <circle cx="127.377" cy="127.638" r="1" fill="#42312E" fill-rule="nonzero" opacity=".3"/>
        <circle cx="130.266" cy="128.016" r="1" fill="#42312E" fill-rule="nonzero" opacity=".3"/>
        <circle cx="129.606" cy="127.638" r="1" fill="#42312E" fill-rule="nonzero" opacity=".3"/>
        <circle cx="131.604" cy="128.103" r="1" fill="#42312E" fill-rule="nonzero" opacity=".3"/>
        <path fill="#000" fill-rule="nonzero" d="M129.294 125.994s-3.426.165-1.8 1.26c1.626 1.095 6.249.477 6.249.477s2.559-.645.9-1.404c-1.659-.759-4.131-.282-4.131-.282s-2.844.522-.657.978c0 0 2.634.24 2.748-.3.114-.54-1.482-.156-1.482-.156s.846.189.264.282c-.582.093-1.239-.063-1.239-.228s.864-.3 1.116-.282c.252.018 1.557-.207 2.058.375a.219.219 0 0 1-.081.345c-.462.195-1.662.57-3.582.273-2.517-.381-.363-1.338-.363-1.338z" opacity=".1"/>
        <path fill="#C37098" fill-rule="nonzero" d="M121.422 136.071s6.801 3.774 10.239 5.958c3.438 2.184 9.345 8.28 3.639 8.559-5.706.279-14.328-10.542-14.328-10.542l.45-3.975z"/>
        <path fill="#000" fill-rule="nonzero" d="M107.469 115.341s-.711 4.575.705 4.929c1.416.354 1.695 3.876 1.2 3.918-.495.042 2.625 2.526 1.908 3.708-.717 1.182.6 2.49 1.827 2.727 1.227.237 2.892 1.005 3.36 2.028.468 1.023 4.401 3.117 5.742 3.267 1.341.15.861 5.238-.639 5.652-1.5.414-6.3-2.847-7.911-.9-1.611 1.947-6.531 5.955-8.829 4.821-2.298-1.134-6.162-4.674-7.971-4.974-1.809-.3-3.954-20.814-2.34-23.931 1.614-3.117 4.761-8.073 12.948-1.245z" opacity=".1"/>
        <path fill="#3E5C82" fill-rule="nonzero" d="M93.561 124.647c.384 6.831 1.656 15.045 2.796 15.237 1.8.3 5.676 3.84 7.974 4.974 2.298 1.134 7.2-2.871 8.826-4.821 1.626-1.95 6.408 1.305 7.911.9 1.503-.405 1.98-5.499.639-5.649-1.341-.15-5.277-2.253-5.742-3.276-.465-1.023-2.127-1.8-3.36-2.028-1.233-.228-2.541-1.548-1.824-2.73.717-1.182-2.4-3.663-1.911-3.705.192-.018.267-.567.201-1.248-.105-1.065-.543-2.457-1.407-2.673a.846.846 0 0 1-.531-.465c-.672-1.251-.171-4.464-.171-4.464-4.098-3.411-6.93-3.876-8.94-3.099-2.01.777-3.198 2.796-4.005 4.353-.597 1.155-.678 4.683-.456 8.694z"/>
        <path fill="#3F3D56" fill-rule="nonzero" d="M123.993 85.419c.6-1.248-.615-2.682-1.926-3.135-1.311-.453-2.778-.378-4.041-.954-2.16-.984-3.18-3.6-5.286-4.689-1.638-.852-3.615-.618-5.421-.237-2.67.564-5.736 1.899-6.144 4.599-.183 1.215.24 2.511-.198 3.66-1.122 2.949-6.198 1.932-7.905 4.584-.417.648-.558 1.431-.693 2.19l-1.767 10.002c-.243 1.374-.504 2.79-1.275 3.951-1.131 1.698-3.138 2.544-5.031 3.3-1.353.54-2.769 1.092-4.221.954-.717-.066-1.479-.3-2.13.018-.651.318-.951 1.05-1.158 1.737a17.943 17.943 0 0 0-.375 8.832c.246 1.173.6 2.4.243 3.54-.318.984-1.119 1.716-1.815 2.481a14.769 14.769 0 0 0-3.249 5.784c-.468 1.605-.576 3.558.6 4.737 1.176 1.179 3.054 1.065 4.692.9 1.719-.186 3.573-.435 4.8-1.638.672-.657 1.086-1.527 1.485-2.379l2.484-5.319c1.311-2.805 3-5.925 6-6.642 1.899-.453 3.882.195 5.835.123 4.614-.168 8.052-4.149 10.878-7.8.48-.618.984-1.323.9-2.1-.057-.513-.366-.957-.582-1.425-.981-2.145.066-4.671 1.425-6.6 1.359-1.929 3.087-3.711 3.66-6 .282-1.122.261-2.301.492-3.435a7.872 7.872 0 0 1 4.029-5.325c1.755-.945 4.767-1.788 5.694-3.714z"/>
        <path fill="#000" fill-rule="nonzero" d="M123.993 85.419c.6-1.248-.615-2.682-1.926-3.135-1.311-.453-2.778-.378-4.041-.954-2.16-.984-3.18-3.6-5.286-4.689-1.638-.852-3.615-.618-5.421-.237-2.67.564-5.736 1.899-6.144 4.599-.183 1.215.24 2.511-.198 3.66-1.122 2.949-6.198 1.932-7.905 4.584-.417.648-.558 1.431-.693 2.19l-1.767 10.002c-.243 1.374-.504 2.79-1.275 3.951-1.131 1.698-3.138 2.544-5.031 3.3-1.353.54-2.769 1.092-4.221.954-.717-.066-1.479-.3-2.13.018-.651.318-.951 1.05-1.158 1.737a17.943 17.943 0 0 0-.375 8.832c.246 1.173.6 2.4.243 3.54-.318.984-1.119 1.716-1.815 2.481a14.769 14.769 0 0 0-3.249 5.784c-.468 1.605-.576 3.558.6 4.737 1.176 1.179 3.054 1.065 4.692.9 1.719-.186 3.573-.435 4.8-1.638.672-.657 1.086-1.527 1.485-2.379l2.484-5.319c1.311-2.805 3-5.925 6-6.642 1.899-.453 3.882.195 5.835.123 4.614-.168 8.052-4.149 10.878-7.8.48-.618.984-1.323.9-2.1-.057-.513-.366-.957-.582-1.425-.981-2.145.066-4.671 1.425-6.6 1.359-1.929 3.087-3.711 3.66-6 .282-1.122.261-2.301.492-3.435a7.872 7.872 0 0 1 4.029-5.325c1.755-.945 4.767-1.788 5.694-3.714z" opacity=".2"/>
        <g fill="#000" fill-rule="nonzero" opacity=".1">
            <path d="M79.509 109.575a12.227 12.227 0 0 1-.555-.072c.222 0 .45.048.675.078l-.12-.006zM76.332 137.598c1.716-.186 3.57-.432 4.8-1.635.675-.657 1.086-1.53 1.485-2.382l2.487-5.319c1.308-2.802 3-5.922 6-6.642 1.902-.453 3.885.198 5.838.126 4.614-.168 8.052-4.149 10.878-7.8.477-.618.984-1.326.9-2.1-.057-.51-.366-.954-.579-1.422-.981-2.145.063-4.671 1.425-6.6 1.362-1.929 3.087-3.708 3.66-6 .279-1.122.261-2.301.492-3.435a7.851 7.851 0 0 1 4.026-5.325c1.734-.939 4.743-1.779 5.67-3.705.6-1.251-.6-2.682-1.926-3.135-1.326-.453-2.778-.378-4.041-.954-2.16-.984-3.177-3.6-5.286-4.692a5.016 5.016 0 0 0-1.539-.492c.736.04 1.456.229 2.115.558 2.1 1.092 3.126 3.705 5.286 4.692 1.263.573 2.73.498 4.041.954 1.311.456 2.526 1.884 1.923 3.135-.927 1.926-3.936 2.766-5.667 3.705a7.857 7.857 0 0 0-4.029 5.325c-.231 1.134-.21 2.31-.492 3.435-.573 2.286-2.298 4.068-3.66 6-1.362 1.932-2.4 4.452-1.425 6.6.216.468.525.9.582 1.425.087.777-.417 1.482-.9 2.1-2.826 3.651-6.264 7.632-10.878 7.8-1.953.069-3.936-.579-5.835-.126-3 .717-4.695 3.84-6 6.642-.828 1.774-1.657 3.547-2.487 5.319-.396.852-.81 1.725-1.482 2.379-1.239 1.2-3.093 1.452-4.8 1.638-.912.128-1.837.136-2.751.024.724.032 1.45 0 2.169-.093z"/>
        </g>
        <path fill="#000" fill-rule="nonzero" d="M115.665 117.945s4.302 5.841 4.047 8.478c-.146 1.618.028 3.25.513 4.8M121.791 123.921s1.779 7.452 2.358 7.452c.579 0-2.358-7.452-2.358-7.452z" opacity=".1"/>
        <path fill="#65617D" fill-rule="nonzero" d="M189.807 189.459s-3.411 3.492-5.742 3.816c-2.331.324-4.242 7.821-.999 8.4 3.243.579 9.483-1.749 10.398-2.745.915-.996 4.242-6.9 4.242-6.9l-7.899-2.571z"/>
        <path fill="#3F3D56" fill-rule="nonzero" d="M224.241 162.123s-12.699 6.987-13.476 9.759c-.777 2.772 1.884 4.989 1.884 4.989s.444 2.385.6 4.158c.156 1.773 2.22 19.02 3.162 20.463.942 1.443.165 6.876.165 6.876h3.051l-.222-8.319s-3.438-24.453-.555-26.949c2.883-2.496 5.268-5.322 6.099-5.1.831.222-.708-5.877-.708-5.877z"/>
        <path fill="#000" fill-rule="nonzero" d="M224.241 162.123s-12.699 6.987-13.476 9.759c-.777 2.772 1.884 4.989 1.884 4.989s.444 2.385.6 4.158c.156 1.773 2.22 19.02 3.162 20.463.942 1.443.165 6.876.165 6.876h3.051l-.222-8.319s-3.438-24.453-.555-26.949c2.883-2.496 5.268-5.322 6.099-5.1.831.222-.708-5.877-.708-5.877z" opacity=".1"/>
        <path fill="#3F3D56" fill-rule="nonzero" d="M208.605 152.196s-8.319 15.9-8.484 18.048c-.165 2.148-7.236 11.313-7.236 11.313l8.817 11.145s1.164-2.826 3.159-3.825c1.995-.999 1.581-3.243 1.581-3.243s2.079 0 3.576-2.496c1.497-2.496 3.327-4.992 3.327-6.063 0-1.071 10.98-12.393 10.98-12.393l-.831-12.06-2.247-3.828-12.642 3.402z"/>
        <path fill="#000" fill-rule="nonzero" d="M186.978 153.111l-.072.063c-1.011.9-12.321 10.926-12.321 11.166 0 .24-4.074 6.987.999 12.81 5.073 5.823 16.719 15.387 16.719 15.387s5.073 3.66 5.739 4.407c.666.747 10.728 0 4.74-6.819-5.988-6.819-11.646-14.472-11.646-14.472s9.981-2.4 10.647-4.077c.666-1.677-13.14-22.458-13.14-22.458l-1.665 3.993z" opacity=".1"/>
        <path fill="#3F3D56" fill-rule="nonzero" d="M186.645 153.111l-.072.063c-1.011.9-12.321 10.926-12.321 11.166 0 .24-4.074 6.987.999 12.81 5.073 5.823 16.719 15.387 16.719 15.387s5.073 3.66 5.739 4.407c.666.747 10.728 0 4.74-6.819-5.988-6.819-11.643-14.472-11.643-14.472s9.981-2.4 10.644-4.077c.663-1.677 13.8-22.041 13.8-22.041l-26.949-.417-1.656 3.993z"/>
        <path fill="#FBBEBE" fill-rule="nonzero" d="M215.424 108.375l-.999 9.066s-10.23 4.074-10.479 3.993c-.249-.081-6.819-6-5.739-9.9.543-1.959.792-4.677.9-6.9.108-2.223.093-3.915.093-3.915s14.889-5.322 13.557-1.662c-.483 1.326-.267 2.919.21 4.407a20.52 20.52 0 0 0 2.457 4.911z"/>
        <path fill="#000" fill-rule="nonzero" d="M212.973 103.455c-.09.108-.183.207-.276.3a9.966 9.966 0 0 1-13.584.864c.111-2.202.093-3.915.093-3.915s14.889-5.322 13.557-1.662c-.483 1.332-.267 2.925.21 4.413z" opacity=".1"/>
        <path fill="#FBBEBE" fill-rule="nonzero" d="M215.424 96.579c-.002 5.51-4.47 9.976-9.979 9.975-5.51 0-9.976-4.467-9.977-9.977 0-5.51 4.465-9.977 9.975-9.979a9.918 9.918 0 0 1 9.981 9.981z"/>
        <path fill="#000" fill-rule="nonzero" d="M203.115 117.774s-3.9-8.664-5.241-8.664c-1.341 0-3.411 44.817-3.411 44.817l20.379.321.831-23.532-4.158-20.841s-3.75 8.22-8.4 7.899z" opacity=".1"/>
        <path fill="#000" fill-rule="nonzero" d="M203.115 118.44s-3.9-8.664-5.241-8.664c-1.341 0-3.411 44.817-3.411 44.817l23.124.348-1.914-23.559-4.158-20.856s-3.75 8.235-8.4 7.914z" opacity=".1"/>
        <path fill="#65617D" fill-rule="nonzero" d="M203.115 118.107s-3.9-8.664-5.241-8.664c-1.341 0-3.411 44.832-3.411 44.832l23.124.348-1.914-23.559-4.158-20.871s-3.75 8.235-8.4 7.914z"/>
        <path fill="#000" fill-rule="nonzero" d="M199.323 106.722s-.699-1.02-1.698-.687c-.999.333-1.746-.585-2.745.33-.999.915-4.989 2.163-5.739 1.749-.75-.414-3.411 1.413-3.993 2.493-.582 1.08-2.496 3.993-2.496 3.993s-1.662 1.998-1.413 3.078c.249 1.08-.582 2.328-1.581 2.829-.999.501-3 5.49-3 5.49s.537 6.672-1.707 7.839c-2.244 1.167-.582 6.237-.582 6.237l10.608-2.517 3-6.819s-1.164 19.962-2.58 21.792c-1.416 1.83-1.578 3-1.578 3s5.487 1.164 6.654 2.163c1.167.999 4.242-.249 4.242-.249l3-26.535s1.08-4.989 1.08-7.569.528-16.617.528-16.617z" opacity=".1"/>
        <path fill="#3E5C82" fill-rule="nonzero" d="M198.99 106.722s-.699-1.02-1.698-.687c-.999.333-1.746-.585-2.745.33-.999.915-4.989 2.163-5.739 1.749-.75-.414-3.411 1.413-3.993 2.493-.582 1.08-2.493 3.993-2.493 3.993s-1.665 1.998-1.416 3.078c.249 1.08-.582 2.328-1.581 2.829-.999.501-3 5.49-3 5.49s.54 6.678-1.701 7.839c-.561.3-.879.939-1.038 1.746-.645 3.261 2.025 6.243 5.349 6.138l5.73-2.364 3-8.619s-1.164 19.962-2.58 21.792c-1.416 1.83-1.578 3-1.578 3s5.49 1.164 6.654 2.163c1.164.999 4.242-.249 4.242-.249l3-26.535s1.08-4.989 1.08-7.569.507-16.617.507-16.617z"/>
        <path fill="#000" fill-rule="nonzero" d="M180.657 121.173s1.008 2.742 3.744 2.502c2.736-.24-3.744-2.502-3.744-2.502zM183.318 117.012s1.83.333 2.496 1.914c.666 1.581-2.496-1.914-2.496-1.914zM188.475 114.186c0 .333 1.164 6.153 0 8.565s-.996 5.241-.996 5.241l.996-13.806zM213.027 104.721s.651-.768 1.317-.684c.666.084 1.08.498 1.911.831.831.333 2.829.417 2.829.666 0 .249 1.746 1.248 2.91 1.5 1.164.252 4.827 2.745 5.742 7.569s2.493 6.24 2.493 6.24l-8.817 4.332s6.822 28.935 7.653 31.014c.831 2.079.9 14.4.9 14.4s-5.4 2.4-6.819 3.162c-1.419.762-.834-7.152-3.744-11.727s-6.237-11.229-6.237-11.229l-5.061-14.22s-3.243-18.966-.498-22.458c2.745-3.492 5.67-8.142 5.421-9.396z" opacity=".1"/>
        <path fill="#3E5C82" fill-rule="nonzero" d="M213.36 104.721s.651-.768 1.317-.684c.666.084 1.08.498 1.911.831.831.333 2.829.417 2.829.666 0 .249 1.746 1.248 2.91 1.5 1.164.252 4.824 2.745 5.739 7.569s2.496 6.24 2.496 6.24l-8.817 4.332s6.822 28.947 7.653 31.026c.831 2.079.9 14.4.9 14.4s-5.4 2.4-6.819 3.162c-1.419.762-.819-7.188-3.714-11.751s-6.237-11.229-6.237-11.229l-5.091-14.208s-3.243-18.966-.498-22.458c2.745-3.492 5.67-8.142 5.421-9.396z"/>
        <path fill="#000" fill-rule="nonzero" d="M231.393 141.135a14.51 14.51 0 0 1-.921.108c-2.664.243-7.893.3-7.893.3s-3.9-7.734-7.239-7.5c0 0 3.078-3.495 4.326-3.078.21.069.339-.084.402-.381.333-1.5-.816-6.6-.816-6.6l-1.581-6.9 9.15 2.247c.831.165 3.408 1.5 3.408 1.5s.084 3.576.75 4.407 1.413 4.824 1.329 5.823c-.084.999.915 5.655-.081 6.9s1.248 2.841-.834 3.174z" opacity=".1"/>
        <path fill="#3E5C82" fill-rule="nonzero" d="M231.726 141.135a14.51 14.51 0 0 1-.921.108c-2.664.243-7.896.3-7.896.3s-3.9-7.734-7.236-7.5c0 0 3.078-3.495 4.326-3.078.21.069.339-.084.402-.381.333-1.5-.819-6.6-.819-6.6l-1.578-6.9 9.147 2.247c.834.165 3.411 1.5 3.411 1.5s.084 3.576.75 4.407 1.413 4.824 1.329 5.823c-.084.999.915 5.655-.081 6.9s1.245 2.841-.834 3.174z"/>
        <path fill="#000" fill-rule="nonzero" d="M222.327 123s7.653.834 7.986 2.745c.333 1.911-7.986-2.745-7.986-2.745z" opacity=".1"/>
        <path fill="#65617D" fill-rule="nonzero" d="M197.208 195.615s-.498 2.745.084 4.5.498 5.571.084 6.9c-.414 1.329-1.83 3.162 1.995 3.993s6.405.084 6.573-.582c.168-.666.996-3.327.33-4.824-.666-1.497-.9-5.4.333-7.653 1.233-2.253.417-5.739-.747-6.156-1.164-.417-3.162-1.329-3.162-1.329s2.163 3.9.168 4.74c-1.995.84-5.658.411-5.658.411z"/>
        <path fill="#000" fill-rule="nonzero" d="M215.424 96.579a9.918 9.918 0 0 1-2.727 6.849.165.165 0 0 1-.024-.045c-.3-.633-.579-1.293-.555-1.983.027-.84.51-1.596.666-2.424.195-1.044-.147-2.1-.483-3.114-.246-.738-.723-1.632-1.5-1.542-.15.036-.304.053-.459.051-.414-.063-.495-.6-.543-1.014a4.608 4.608 0 0 0-3.759-3.945 1.173 1.173 0 0 0-.66.042c-.3.132-.444.444-.705.624-.843.585-1.92-.537-2.943-.45-.873.072-1.404.966-1.764 1.764-.36.798-.81 1.707-1.665 1.893a.507.507 0 0 1-.402-.048c-.264-.192-.081-.6.054-.9.348-.792.117-1.422-.3-1.983a9.978 9.978 0 0 1 17.775 6.228l-.006-.003z" opacity=".1"/>
        <path fill="#512E4E" fill-rule="nonzero" d="M197.961 92.001c-.135.3-.321.714-.051.9.122.07.267.085.402.045.852-.186 1.305-1.098 1.662-1.893.357-.795.9-1.692 1.764-1.764 1.026-.084 2.1 1.035 2.943.45.261-.18.42-.492.708-.624a1.2 1.2 0 0 1 .657-.042 4.614 4.614 0 0 1 3.762 3.945c.042.414.129.951.537 1.017.156.001.31-.017.462-.054.771-.09 1.245.804 1.5 1.542.336 1.008.678 2.07.483 3.117-.156.825-.642 1.581-.666 2.421-.024.693.27 1.35.555 1.98.285.63.753 1.368 1.44 1.281.561-.075.873-.672 1.143-1.17.27-.498.756-1.038 1.302-.879.243.069.498.276.72.153a.537.537 0 0 0 .21-.363c.264-1.164-.117-2.469.447-3.519.435-.81 1.32-1.245 2.037-1.818a5.826 5.826 0 0 0 .789-8.34c-.768-.9-1.872-1.692-1.935-2.871-.045-.9.561-1.725.567-2.625.006-.9-.555-1.659-1.2-2.256a7.743 7.743 0 0 0-6.966-1.833c-.645.153-1.293.396-1.953.3-.762-.093-1.398-.6-2.085-.951a5.34 5.34 0 0 0-6.663 1.8c-.789 1.224-1.095 2.826-2.271 3.687-.774.564-1.881.774-2.307 1.632-.258.513-.186 1.122-.108 1.692a3.981 3.981 0 0 0 1.266 2.421c.714.759 1.329 1.533.849 2.619z"/>
        <path fill="#3F3D56" fill-rule="nonzero" d="M188.31 218.238l-.084 16.221-2.994-.249-10.896-88.584 3.216-.096 2.271-.069z"/>
        <path fill="#000" fill-rule="nonzero" d="M188.226 234.459l-2.994-.249-10.896-88.584 3.216-.096-.138.513z" opacity=".2"/>
        <path fill="#3F3D56" fill-rule="nonzero" d="M202.863 145.794l-10.977 87.834-2.058.465-1.602.366.084-16.221 9.648-72.111.189-.015z"/>
        <path fill="#000" fill-rule="nonzero" d="M189.807 234.042l.021.051-1.602.366.084-16.221 9.648-72.111.189-.015 1.974.429z" opacity=".2"/>
        <path fill="#65617D" fill-rule="nonzero" d="M227.985 199.857l-.252 20.46-.996 3.723-9.981-78.33 2.355-.255.72-.078z"/>
        <path fill="#000" fill-rule="nonzero" d="M227.985 199.857l-.252 20.46-.996 3.723-9.981-78.33 2.355-.255.72-.078z" opacity=".2"/>
        <path fill="#3F3D56" fill-rule="nonzero" d="M227.985 199.857l-.252 20.46-8.484-74.19-.138-.672.72-.078z"/>
        <path fill="#65617D" fill-rule="nonzero" d="M230.811 172.824l.249 51.381-1.389-.054-2.934-.111 1.164-78.912 2.238.279 1.089.135z"/>
        <path fill="#000" fill-rule="nonzero" d="M230.811 172.824l.249 51.381-1.389-.054-2.934-.111 1.164-78.912 2.238.279 1.089.135z" opacity=".2"/>
        <path fill="#3F3D56" fill-rule="nonzero" d="M230.811 172.824l.249 51.381-1.389-.054.468-78.744 1.089.135z"/>
        <path fill="#65617D" fill-rule="nonzero" d="M135.576 144.879l.165-2.496 14.307.084 43.002-.666 33.186 1.83 21.126.414.252 2.331-54.315.999z"/>
        <path fill="#3F3D56" fill-rule="nonzero" d="M135.576 144.879l.165-2.496 14.307.084 43.002-.666 33.186 1.83 21.126.414.252 2.331-54.315.999z"/>
        <path fill="#3F3D56" fill-rule="nonzero" d="M135.741 142.383l42.42 1.83 69.201-.168-51.735-3.159z"/>
        <path fill="#000" fill-rule="nonzero" d="M135.741 142.383l42.42 1.83 69.201-.168-51.735-3.159z" opacity=".1"/>
        <path fill="#E8EAF2" fill-rule="nonzero" d="M191.73 139.623c0 1.683-2.943 3.366-6.576 3.366-3.633 0-6.576-1.683-6.576-3.366s2.946-2.727 6.576-2.727c3.63 0 6.576 1.044 6.576 2.727z"/>
        <path fill="#000" fill-rule="nonzero" d="M191.73 139.623c0 1.683-2.943 3.366-6.576 3.366-3.633 0-6.576-1.683-6.576-3.366s2.946-2.727 6.576-2.727c3.63 0 6.576 1.044 6.576 2.727z" opacity=".1"/>
        <ellipse cx="185.154" cy="139.623" fill="#E8EAF2" fill-rule="nonzero" rx="6.576" ry="3.048"/>
        <ellipse cx="185.175" cy="139.737" fill="#000" fill-rule="nonzero" opacity=".05" rx="3.924" ry="1.581"/>
        <path fill="#F1CEC8" fill-rule="nonzero" d="M194.265 136.065c-.132-.825-1.224-1.371-2.622-1.401a6.144 6.144 0 0 0-1.107.078c-1.896.3-3.3 1.392-3.129 2.427.132.819 1.2 1.362 2.58 1.401a5.89 5.89 0 0 0 1.152-.078c1.884-.303 3.285-1.389 3.126-2.427zm-3.213 1.896a4.098 4.098 0 0 1-.6.057c-1.095.027-1.974-.372-2.076-1.005-.12-.741.885-1.521 2.241-1.74a4.38 4.38 0 0 1 .978-.048c.9.063 1.608.441 1.698.996.114.744-.891 1.524-2.25 1.74h.009z"/>
        <path fill="#65617D" fill-rule="nonzero" d="M188.316 139.467a.726.726 0 0 1-.159.435c-.411.54-1.569.93-2.931.93-1.269 0-2.361-.339-2.838-.822a.774.774 0 0 1-.255-.543c0-.753 1.383-1.365 3.093-1.365s3.09.612 3.09 1.365z"/>
        <path fill="#000" fill-rule="nonzero" d="M188.316 139.467a.726.726 0 0 1-.159.435c-.82.399-1.72.604-2.631.6h-.744a5.958 5.958 0 0 1-2.4-.501.774.774 0 0 1-.255-.543c0-.753 1.383-1.365 3.093-1.365s3.096.621 3.096 1.374zM191.634 134.664c0 .189-.021.378-.045.561a4.38 4.38 0 0 0-.978.048c-1.356.219-2.361.999-2.241 1.74.102.633.981 1.032 2.076 1.005-.144.194-.3.379-.468.552-1.377-.039-2.448-.582-2.58-1.401-.165-1.035 1.233-2.121 3.129-2.427.366-.06.736-.085 1.107-.078z" opacity=".1"/>
        <path fill="#65617D" fill-rule="nonzero" d="M178.809 133.575v.852a5.973 5.973 0 0 0 5.973 5.973h.744a5.973 5.973 0 0 0 5.973-5.973v-.852h-12.69z"/>
        <ellipse cx="185.124" cy="133.398" fill="#65617D" fill-rule="nonzero" rx="6.375" ry="1.815"/>
        <ellipse cx="185.154" cy="133.284" fill="#000" fill-rule="nonzero" opacity=".1" rx="6.042" ry="1.641"/>
        <ellipse cx="185.175" cy="133.224" fill="#FDF9F9" fill-rule="nonzero" rx="5.904" ry="1.641"/>
        <path fill="#42312E" fill-rule="nonzero" d="M180.858 133.659a.165.165 0 1 1 0-.33.165.165 0 0 1 0 .33zm0-.27a.105.105 0 1 0 0 .21.105.105 0 0 0 0-.21zM181.065 133.311a.168.168 0 0 1 0-.333.168.168 0 0 1 0 .333zm0-.27a.105.105 0 1 0 0 .21.105.105 0 0 0 0-.21zM180.858 132.78a.165.165 0 1 1 0-.33.165.165 0 0 1 0 .33zm0-.27a.105.105 0 1 0 0 .21.105.105 0 0 0 0-.21zM182.079 134.013a.168.168 0 1 1 0-.336.168.168 0 0 1 0 .336zm0-.27a.105.105 0 1 0 .105.105.108.108 0 0 0-.105-.105zM186.975 133.686a.165.165 0 0 1-.168-.165.168.168 0 0 1 .333 0 .165.165 0 0 1-.165.165zm0-.27a.108.108 0 0 0-.108.105.108.108 0 0 0 .213 0 .105.105 0 0 0-.105-.105zM188.061 134.115a.162.162 0 0 1-.165-.165.165.165 0 1 1 .165.165zm0-.27a.105.105 0 0 0-.105.105.102.102 0 0 0 .105.105.105.105 0 1 0 0-.21zM188.1 133.416a.168.168 0 1 1 0-.336.168.168 0 0 1 0 .336zm0-.27a.105.105 0 0 0-.108.105.108.108 0 0 0 .213 0 .105.105 0 0 0-.105-.105zM188.613 132.297a.162.162 0 0 1-.165-.165.165.165 0 1 1 .165.165zm0-.27a.105.105 0 0 0-.105.105.102.102 0 0 0 .105.105.105.105 0 1 0 0-.21zM188.361 133.824a.162.162 0 0 1-.165-.165.165.165 0 1 1 .165.165zm0-.27a.105.105 0 0 0-.105.105.102.102 0 0 0 .105.105.105.105 0 1 0 0-.21zM188.964 133.494a.165.165 0 0 1-.165-.165.162.162 0 0 1 .165-.165.165.165 0 0 1 0 .33zm0-.27a.105.105 0 1 0 0 .21.105.105 0 0 0 0-.21zM188.904 133.875a.168.168 0 1 1-.006-.336.168.168 0 0 1 .006.336zm0-.273a.105.105 0 0 0-.105.105.102.102 0 0 0 .105.105.105.105 0 0 0 .105-.105.105.105 0 0 0-.105-.093v-.012zM188.718 132.885a.165.165 0 1 1 0-.33.165.165 0 0 1 0 .33zm0-.27a.105.105 0 1 0 0 .21.105.105 0 0 0 0-.21zM189.624 132.675a.165.165 0 1 1 0-.33.165.165 0 0 1 0 .33zm0-.27a.105.105 0 1 0 0 .21.105.105 0 0 0 0-.21zM186.975 132.276a.168.168 0 1 1 0-.336.168.168 0 0 1 0 .336zm0-.27a.105.105 0 0 0-.108.105.108.108 0 0 0 .213 0 .105.105 0 0 0-.105-.105zM186.345 132.006a.168.168 0 1 1-.006-.336.168.168 0 0 1 .006.336zm0-.273a.108.108 0 1 0 .105.105.105.105 0 0 0-.105-.105zM184.965 132.111a.168.168 0 0 1 0-.333.168.168 0 0 1 0 .333zm0-.273a.108.108 0 0 0 0 .213.108.108 0 0 0 0-.213zM186.165 133.743a.168.168 0 0 1 0-.333.168.168 0 0 1 0 .333zm0-.273a.108.108 0 1 0-.006.216.108.108 0 0 0 .006-.216zM181.665 133.908a.165.165 0 0 1-.165-.165.168.168 0 0 1 .333 0 .168.168 0 0 1-.168.165zm0-.27a.105.105 0 1 0 .105.105.102.102 0 0 0-.105-.105zM182.349 133.521a.165.165 0 0 1-.165-.165.162.162 0 0 1 .165-.165.165.165 0 1 1 0 .33zm0-.27a.105.105 0 1 0 0 .21.105.105 0 0 0 0-.21zM182.943 133.719a.165.165 0 0 1-.165-.165.168.168 0 1 1 .165.165zm0-.27a.105.105 0 1 0 0 .21.105.105 0 0 0 0-.21zM183.048 133.305a.165.165 0 1 1 .006-.33.165.165 0 0 1-.006.33zm0-.27a.105.105 0 1 0 .006.21.105.105 0 0 0-.006-.21zM183.054 132.936a.165.165 0 1 1 .165-.165.168.168 0 0 1-.165.165zm0-.27a.105.105 0 1 0 .105.105.108.108 0 0 0-.105-.096v-.009zM183.219 134.25a.165.165 0 0 1-.165-.165.162.162 0 0 1 .165-.165.165.165 0 1 1 0 .33zm0-.27a.102.102 0 0 0-.105.105.105.105 0 1 0 .105-.105zM184.872 134.289a.168.168 0 1 1-.006-.336.168.168 0 0 1 .006.336zm0-.27a.105.105 0 0 0-.108.105.108.108 0 0 0 .213 0 .105.105 0 0 0-.105-.105zM184.665 133.875a.168.168 0 0 1 0-.333.168.168 0 0 1 0 .333zm0-.273a.105.105 0 0 0 0 .21.102.102 0 0 0 .105-.105.105.105 0 0 0-.105-.093v-.012zM183.831 133.686a.165.165 0 1 1 0-.33.165.165 0 0 1 0 .33zm0-.27a.105.105 0 1 0 0 .21.105.105 0 0 0 0-.21zM185.607 133.035a.168.168 0 1 1 0-.336.168.168 0 0 1 0 .336zm0-.27a.105.105 0 1 0 0 .21.105.105 0 0 0 0-.21zM184.854 133.494a.165.165 0 0 1-.165-.165.162.162 0 0 1 .165-.165.165.165 0 1 1 0 .33zm0-.27a.102.102 0 0 0-.105.105.105.105 0 1 0 .105-.105zM185.73 132.558a.168.168 0 1 1 .168-.165.165.165 0 0 1-.168.165zm0-.273a.108.108 0 1 0 0 .216.108.108 0 0 0 0-.216zM185.667 132.108a.168.168 0 0 1 0-.333.168.168 0 0 1 0 .333zm0-.273a.108.108 0 0 0 0 .213.108.108 0 0 0 0-.213zM185.319 132.57a.165.165 0 0 1-.165-.165.168.168 0 0 1 .333 0 .168.168 0 0 1-.168.165zm0-.27a.105.105 0 1 0 .105.105.102.102 0 0 0-.105-.105zM184.467 133.35a.165.165 0 1 1 .006-.33.165.165 0 0 1-.006.33zm0-.27a.105.105 0 1 0 0 .21.105.105 0 0 0 0-.21zM183.831 133.218a.168.168 0 1 1 .165-.165.165.165 0 0 1-.165.165zm0-.27a.105.105 0 1 0 0 .21.105.105 0 0 0 0-.21zM184.665 132.453a.168.168 0 0 1 0-.333.168.168 0 0 1 0 .333zm0-.273a.108.108 0 0 0 0 .213.108.108 0 0 0 0-.213zM183.444 132.615a.105.105 0 1 1 0-.21.105.105 0 0 1 0 .21zm0-.171a.066.066 0 1 0 0 .132.066.066 0 0 0 0-.132zM183.765 132.825a.102.102 0 0 1-.105-.105.105.105 0 1 1 .105.105zm0-.171a.069.069 0 1 0 .066.066.066.066 0 0 0-.066-.066zM185.334 131.979a.105.105 0 1 1 .105-.105.102.102 0 0 1-.105.105zm0-.171a.066.066 0 0 0-.066.066.069.069 0 1 0 .066-.066zM185.565 133.749a.105.105 0 1 1 0-.21.105.105 0 0 1 0 .21zm0-.171a.066.066 0 1 0 0 .132.066.066 0 0 0 0-.132zM185.838 133.875a.108.108 0 1 1-.036-.213.108.108 0 0 1 .036.213zm0-.174a.069.069 0 1 0 .066.066.066.066 0 0 0-.066-.066zM185.505 133.455a.102.102 0 0 1-.105-.105.105.105 0 1 1 .105.105zm0-.171a.069.069 0 1 0 .066.066.066.066 0 0 0-.066-.075v.009zM187.569 132.474a.105.105 0 1 1-.018-.21.105.105 0 0 1 .018.21zm0-.171a.066.066 0 1 0 0 .132.066.066 0 0 0 0-.132zM187.698 132.741a.105.105 0 1 1 0-.21.105.105 0 0 1 0 .21zm0-.171a.066.066 0 1 0 0 .132.066.066 0 0 0 0-.132zM187.593 132.993a.108.108 0 1 1-.036-.213.108.108 0 0 1 .036.213zm0-.174a.069.069 0 1 0 .066.066.066.066 0 0 0-.066-.066zM187.317 133.764a.105.105 0 0 1-.105-.105.108.108 0 0 1 .213 0 .105.105 0 0 1-.108.105zm0-.171a.066.066 0 0 0-.066.066.069.069 0 1 0 .066-.066zM188.988 133.041a.105.105 0 1 1 .105-.105.102.102 0 0 1-.105.105zm0-.171a.066.066 0 0 0-.066.066.069.069 0 1 0 .066-.066zM186.51 133.683a.108.108 0 0 1 0-.213.108.108 0 0 1 0 .213zm0-.174a.066.066 0 0 0-.066.069c0 .036.03.066.066.066a.069.069 0 1 0 0-.135zM187.386 133.251a.105.105 0 0 1-.105-.105.102.102 0 0 1 .105-.105.105.105 0 0 1 0 .21zm0-.174a.069.069 0 1 0 0 .135c.036 0 .066-.03.066-.066a.066.066 0 0 0-.066-.069zM187.035 133.98a.108.108 0 0 1 0-.213.108.108 0 0 1 0 .213zm0-.174a.069.069 0 1 0 0 .135c.036 0 .066-.03.066-.066a.066.066 0 0 0-.066-.069zM189.336 133.245a.105.105 0 1 1 0-.21.105.105 0 0 1 0 .21zm0-.171a.066.066 0 1 0 0 .132.066.066 0 0 0 0-.132zM187.992 132.111a.105.105 0 0 1-.105-.105.108.108 0 0 1 .213 0 .108.108 0 0 1-.108.105zm0-.174a.066.066 0 0 0-.066.069.066.066 0 0 0 .066.066.069.069 0 1 0 0-.135zM184.428 131.979a.105.105 0 1 1 0-.21.105.105 0 0 1 0 .21zm0-.171a.066.066 0 1 0 0 .132.066.066 0 0 0 0-.132zM181.422 132.87a.105.105 0 1 1 0-.21.102.102 0 0 1 .105.105.105.105 0 0 1-.105.105zm0-.174a.066.066 0 0 0-.066.069c0 .036.03.066.066.066a.069.069 0 1 0 0-.135zM184.044 132.111a.105.105 0 1 1 0-.21.102.102 0 0 1 .105.105.105.105 0 0 1-.105.105zm0-.174a.066.066 0 0 0-.066.069.066.066 0 0 0 .066.066.069.069 0 1 0 0-.135zM181.698 133.356a.105.105 0 0 1-.105-.105.108.108 0 0 1 .213 0 .108.108 0 0 1-.108.105zm0-.174a.066.066 0 0 0-.066.069.066.066 0 0 0 .066.066.069.069 0 1 0 0-.135zM182.079 132.72a.105.105 0 1 1 .105-.105.108.108 0 0 1-.105.105zm0-.171a.066.066 0 1 0 0 .132.066.066 0 0 0 0-.132zM180.165 133.158a.105.105 0 1 1 0-.21.102.102 0 0 1 .105.105.105.105 0 0 1-.105.105zm0-.174a.066.066 0 0 0-.066.069c0 .036.03.066.066.066a.069.069 0 1 0 0-.135zM182.838 134.085a.105.105 0 1 1 0-.21.102.102 0 0 1 .105.105.105.105 0 0 1-.105.105zm0-.174a.066.066 0 0 0-.066.069c0 .036.03.066.066.066a.069.069 0 1 0 0-.135zM183.597 134.124a.108.108 0 1 1 .036-.213.108.108 0 0 1-.036.213zm0-.174a.066.066 0 0 0-.066.069c0 .036.03.066.066.066a.069.069 0 1 0 0-.135z" opacity=".3"/>
        <circle cx="180.501" cy="133.464" r="1" fill="#42312E" fill-rule="nonzero" opacity=".3"/>
        <circle cx="181.107" cy="132.3" r="1" fill="#42312E" fill-rule="nonzero" opacity=".3"/>
        <circle cx="181.944" cy="132.828" r="1" fill="#42312E" fill-rule="nonzero" opacity=".3"/>
        <circle cx="181.401" cy="132.075" r="1" fill="#42312E" fill-rule="nonzero" opacity=".3"/>
        <circle cx="184.458" cy="132.636" r="1" fill="#42312E" fill-rule="nonzero" opacity=".3"/>
        <circle cx="181.815" cy="132.51" r="1" fill="#42312E" fill-rule="nonzero" opacity=".3"/>
        <circle cx="181.506" cy="132.477" r="1" fill="#42312E" fill-rule="nonzero" opacity=".3"/>
        <circle cx="182.109" cy="133.104" r="1" fill="#42312E" fill-rule="nonzero" opacity=".3"/>
        <circle cx="186.705" cy="132.618" r="1" fill="#42312E" fill-rule="nonzero" opacity=".3"/>
        <circle cx="187.932" cy="132.855" r="1" fill="#42312E" fill-rule="nonzero" opacity=".3"/>
        <circle cx="187.59" cy="133.908" r="1" fill="#42312E" fill-rule="nonzero" opacity=".3"/>
        <circle cx="188.061" cy="133.557" r="1" fill="#42312E" fill-rule="nonzero" opacity=".3"/>
        <circle cx="186.684" cy="133.992" r="1" fill="#42312E" fill-rule="nonzero" opacity=".3"/>
        <circle cx="186.372" cy="132.606" r="1" fill="#42312E" fill-rule="nonzero" opacity=".3"/>
        <circle cx="185.352" cy="133.809" r="1" fill="#42312E" fill-rule="nonzero" opacity=".3"/>
        <circle cx="187.2" cy="132.888" r="1" fill="#42312E" fill-rule="nonzero" opacity=".3"/>
        <circle cx="186.3" cy="134.076" r="1" fill="#42312E" fill-rule="nonzero" opacity=".3"/>
        <circle cx="182.595" cy="133.908" r="1" fill="#42312E" fill-rule="nonzero" opacity=".3"/>
        <circle cx="187.695" cy="133.164" r="1" fill="#42312E" fill-rule="nonzero" opacity=".3"/>
        <circle cx="189.624" cy="133.02" r="1" fill="#42312E" fill-rule="nonzero" opacity=".3"/>
        <circle cx="189.069" cy="132.534" r="1" fill="#42312E" fill-rule="nonzero" opacity=".3"/>
        <circle cx="187.14" cy="132.405" r="1" fill="#42312E" fill-rule="nonzero" opacity=".3"/>
        <circle cx="183.441" cy="133.164" r="1" fill="#42312E" fill-rule="nonzero" opacity=".3"/>
        <circle cx="188.526" cy="132.993" r="1" fill="#42312E" fill-rule="nonzero" opacity=".3"/>
        <circle cx="186.744" cy="132.309" r="1" fill="#42312E" fill-rule="nonzero" opacity=".3"/>
        <circle cx="188.265" cy="132.597" r="1" fill="#42312E" fill-rule="nonzero" opacity=".3"/>
        <circle cx="187.341" cy="131.982" r="1" fill="#42312E" fill-rule="nonzero" opacity=".3"/>
        <circle cx="186.684" cy="131.877" r="1" fill="#42312E" fill-rule="nonzero" opacity=".3"/>
        <circle cx="183.657" cy="132.171" r="1" fill="#42312E" fill-rule="nonzero" opacity=".3"/>
        <circle cx="184.323" cy="132.249" r="1" fill="#42312E" fill-rule="nonzero" opacity=".3"/>
        <circle cx="182.643" cy="132.855" r="1" fill="#42312E" fill-rule="nonzero" opacity=".3"/>
        <circle cx="186.027" cy="132.888" r="1" fill="#42312E" fill-rule="nonzero" opacity=".3"/>
        <circle cx="186.417" cy="132.981" r="1" fill="#42312E" fill-rule="nonzero" opacity=".3"/>
        <circle cx="184.188" cy="133.086" r="1" fill="#42312E" fill-rule="nonzero" opacity=".3"/>
        <circle cx="185.175" cy="133.191" r="1" fill="#42312E" fill-rule="nonzero" opacity=".3"/>
        <circle cx="184.11" cy="132.438" r="1" fill="#42312E" fill-rule="nonzero" opacity=".3"/>
        <circle cx="186.345" cy="133.191" r="1" fill="#42312E" fill-rule="nonzero" opacity=".3"/>
        <circle cx="186.006" cy="133.251" r="1" fill="#42312E" fill-rule="nonzero" opacity=".3"/>
        <circle cx="180.858" cy="132.309" r="1" fill="#42312E" fill-rule="nonzero" opacity=".3"/>
        <circle cx="182.898" cy="132.534" r="1" fill="#42312E" fill-rule="nonzero" opacity=".3"/>
        <circle cx="182.193" cy="132.075" r="1" fill="#42312E" fill-rule="nonzero" opacity=".3"/>
        <circle cx="181.911" cy="133.188" r="1" fill="#42312E" fill-rule="nonzero" opacity=".3"/>
        <circle cx="182.241" cy="132.444" r="1" fill="#42312E" fill-rule="nonzero" opacity=".3"/>
        <circle cx="180.306" cy="132.699" r="1" fill="#42312E" fill-rule="nonzero" opacity=".3"/>
        <circle cx="188.697" cy="132.444" r="1" fill="#42312E" fill-rule="nonzero" opacity=".3"/>
        <circle cx="189.393" cy="132.345" r="1" fill="#42312E" fill-rule="nonzero" opacity=".3"/>
        <circle cx="189.975" cy="133.224" r="1" fill="#42312E" fill-rule="nonzero" opacity=".3"/>
        <circle cx="189.54" cy="132.783" r="1" fill="#42312E" fill-rule="nonzero" opacity=".3"/>
        <circle cx="189.729" cy="133.356" r="1" fill="#42312E" fill-rule="nonzero" opacity=".3"/>
        <circle cx="189.975" cy="132.909" r="1" fill="#42312E" fill-rule="nonzero" opacity=".3"/>
        <circle cx="189.309" cy="132.828" r="1" fill="#42312E" fill-rule="nonzero" opacity=".3"/>
        <circle cx="190.239" cy="132.828" r="1" fill="#42312E" fill-rule="nonzero" opacity=".3"/>
        <circle cx="182.454" cy="132.654" r="1" fill="#42312E" fill-rule="nonzero" opacity=".3"/>
        <circle cx="183.627" cy="131.853" r="1" fill="#42312E" fill-rule="nonzero" opacity=".3"/>
        <circle cx="185.064" cy="133.593" r="1" fill="#42312E" fill-rule="nonzero" opacity=".3"/>
        <circle cx="183.255" cy="131.841" r="1" fill="#42312E" fill-rule="nonzero" opacity=".3"/>
        <circle cx="182.748" cy="131.91" r="1" fill="#42312E" fill-rule="nonzero" opacity=".3"/>
        <circle cx="184.971" cy="132.372" r="1" fill="#42312E" fill-rule="nonzero" opacity=".3"/>
        <circle cx="180.525" cy="132.939" r="1" fill="#42312E" fill-rule="nonzero" opacity=".3"/>
        <circle cx="181.26" cy="133.683" r="1" fill="#42312E" fill-rule="nonzero" opacity=".3"/>
        <circle cx="184.044" cy="134.049" r="1" fill="#42312E" fill-rule="nonzero" opacity=".3"/>
        <circle cx="183.408" cy="133.683" r="1" fill="#42312E" fill-rule="nonzero" opacity=".3"/>
        <circle cx="185.334" cy="134.133" r="1" fill="#42312E" fill-rule="nonzero" opacity=".3"/>
        <path fill="#000" fill-rule="nonzero" d="M183.105 132.099s-3.3.159-1.746 1.215c1.554 1.056 6.027.462 6.027.462s2.466-.624.879-1.356c-1.587-.732-3.984-.27-3.984-.27s-2.742.501-.633.942c0 0 2.541.231 2.652-.282.111-.513-1.428-.15-1.428-.15s.813.18.252.273c-.561.093-1.2-.063-1.2-.222s.834-.282 1.074-.27c.24.012 1.5-.201 1.986.363a.21.21 0 0 1-.078.33c-.447.189-1.605.549-3.453.264-2.424-.378-.348-1.299-.348-1.299zM226.902 130.488c.501.165 3.411.915 3.993 2.661.582 1.746-3.993-2.661-3.993-2.661z" opacity=".1"/>
        <g fill="#000" fill-rule="nonzero" opacity=".1">
            <path d="M219.189 83.91a4.35 4.35 0 0 0 .177-.693 4.434 4.434 0 0 0-.177.693zM198.129 91.275c.04-.151.095-.3.162-.441.483-1.086-.132-1.86-.849-2.589a3.966 3.966 0 0 1-1.266-2.421 6.573 6.573 0 0 1-.069-.771c-.06.076-.112.157-.156.243-.258.513-.186 1.122-.108 1.692a3.981 3.981 0 0 0 1.266 2.421c.549.558 1.032 1.143 1.02 1.866zM216.891 101.115c-.546-.159-1.032.378-1.302.879s-.582 1.095-1.143 1.167c-.687.09-1.155-.648-1.44-1.278-.285-.63-.579-1.287-.558-1.98 0-.084 0-.165.024-.246a4.575 4.575 0 0 0-.354 1.41c-.024.693.27 1.35.555 1.98.285.63.753 1.368 1.44 1.281.561-.075.873-.672 1.143-1.17.27-.498.756-1.038 1.302-.879.243.069.498.276.72.153a.537.537 0 0 0 .21-.363c.055-.26.087-.526.096-.792-.219.096-.459-.102-.693-.162zM220.305 95.568c-.717.573-1.602 1.008-2.037 1.818-.175.35-.277.734-.3 1.125.441-.783 1.305-1.215 2.01-1.779a5.892 5.892 0 0 0 2.1-3.558 5.895 5.895 0 0 1-1.773 2.394zM212.799 98.508c.135-.332.24-.675.315-1.026.198-1.047-.144-2.1-.48-3.117-.249-.738-.723-1.632-1.5-1.542-.15.036-.304.053-.459.051-.408-.063-.495-.6-.54-1.014a4.605 4.605 0 0 0-3.759-3.945 1.2 1.2 0 0 0-.657.042c-.3.132-.447.444-.708.624-.846.6-1.917-.534-2.943-.45-.87.072-1.404.966-1.764 1.764-.36.798-.81 1.707-1.662 1.893a.504.504 0 0 1-.402-.048.3.3 0 0 1-.132-.249 2.073 2.073 0 0 1-.15.51c-.135.3-.321.714-.051.9.122.07.267.085.402.045.852-.186 1.305-1.098 1.662-1.893.357-.795.9-1.692 1.764-1.764 1.026-.084 2.1 1.035 2.943.45.261-.18.42-.492.708-.624a1.2 1.2 0 0 1 .657-.042 4.614 4.614 0 0 1 3.762 3.945c.042.414.129.951.537 1.017.156.001.31-.017.462-.054.771-.09 1.245.804 1.5 1.542.318.969.639 1.983.495 2.985z"/>
        </g>
        <path fill="#FBBEBE" fill-rule="nonzero" d="M218.319 133.401s-4.242 1.29-6.156 1.29c-1.914 0-9.399-.042-9.399-.042s-19.545-6.528-13.683 2.4c5.862 8.928 15.138 3.951 15.138 3.951s.75.165 1.665.375 18.6.042 19.17-.666c.57-.708-6.735-7.308-6.735-7.308z"/>
        <path fill="#000" fill-rule="nonzero" d="M230.472 141.243c-2.664.243-7.893.3-7.893.3s-3.9-7.734-7.239-7.5c0 0 3.078-3.495 4.326-3.078.21.069.339-.084.402-.381 3.261.993 9.471 3.429 10.08 7.701.162 1.164.264 2.136.324 2.958z" opacity=".1"/>
        <path fill="#3E5C82" fill-rule="nonzero" d="M230.805 141.243c-2.664.243-7.896.3-7.896.3s-3.9-7.734-7.236-7.5c0 0 3.078-3.495 4.326-3.078.21.069.339-.084.402-.381 3.261.993 9.471 3.429 10.077 7.701a43.87 43.87 0 0 1 .327 2.958z"/>
        <path fill="#000" fill-rule="nonzero" d="M230.472 141.552c-2.664.243-7.893.3-7.893.3s-3.9-7.734-7.239-7.485c0 0 3.078-3.495 4.326-3.078.21.069.339-.084.402-.384 3.261.996 9.471 3.432 10.08 7.704a44.23 44.23 0 0 1 .324 2.943zM207.441 163.509s7.5-1.83 8.649-.834c1.149.996-8.649.834-8.649.834zM185.979 170.661s3.162 1.83 3.495 3.327c.333 1.497-3.495-3.327-3.495-3.327zM198.624 204.375s4.323-.666 5.433.057c1.11.723-5.433-.057-5.433-.057z" opacity=".1"/>
        <ellipse cx="253.509" cy="214.524" fill="#3E5C82" fill-rule="nonzero" opacity=".1" rx="6.147" ry="1"/>
        <ellipse cx="277.056" cy="216.912" fill="#3E5C82" fill-rule="nonzero" opacity=".1" rx="6.147" ry="1"/>
        <ellipse cx="304.791" cy="213.681" fill="#3E5C82" fill-rule="nonzero" opacity=".1" rx="6.147" ry="1"/>
        <ellipse cx="267.633" cy="223.71" fill="#3E5C82" fill-rule="nonzero" opacity=".1" rx="4.371" ry="1"/>
        <ellipse cx="292.068" cy="223.11" fill="#3E5C82" fill-rule="nonzero" opacity=".1" rx="4.371" ry="1"/>
        <path fill="#3E5C82" fill-rule="nonzero" d="M277.188 216.72s-8.619-28.26 1.35-39.579c7.458-8.469 15.924-7.455 19.716-6.405a6.996 6.996 0 0 1 4.521 3.756c1.326 2.859 1.086 7.5-8.271 12.918-15.666 9.072-16.641 21.516-16.641 21.516l-.675 7.794z"/>
        <path stroke="#565987" stroke-width=".5" d="M296.904 174.744s-25.413 7.944-19.716 41.976M282.06 177.591s3.501 2.358 2.4 5.901M294.354 179.691s-2.139-2.178-4.743-.978M284.31 190.635s-3.756-1.908-4.728.48M275.016 194.607s2.82-.225 2.871 1.125"/>
        <path fill="#3E5C82" fill-rule="nonzero" d="M276.84 216.945s10.098-20.538 12.87-20.1c1.317.213 1.926 1.5 2.199 2.811a8.283 8.283 0 0 1-.549 5.001c-1.434 3.297-5.295 9.54-14.52 12.288z"/>
        <path stroke="#565987" stroke-width=".5" d="M289.635 200.754s-10.599 15.369-12.645 16.041M290.61 203.154h-2.475M287.646 208.776l-3.876.168M285.288 204.279l.42 2.019M281.163 210.426l.075 1.836"/>
        <path fill="#3E5C82" fill-rule="nonzero" d="M277.14 216.945s-10.095-20.538-12.87-20.1c-1.317.213-1.926 1.5-2.199 2.811a8.283 8.283 0 0 0 .549 5.019c1.434 3.279 5.283 9.522 14.52 12.27z"/>
        <path stroke="#565987" stroke-width=".5" d="M264.345 200.754s10.599 15.369 12.645 16.041M263.37 203.154h2.472M266.331 208.776l3.879.168M268.692 204.279l-.42 2.019M272.814 210.426l-.075 1.836"/>
        <path fill="#3E5C82" fill-rule="nonzero" d="M294.465 221.742c.284-.22.494-.523.6-.867a.768.768 0 0 0-.402-.882c-.369-.141-.762.114-1.059.372-.297.258-.642.552-1.035.498.41-.37.595-.929.486-1.47a.6.6 0 0 0-.135-.3c-.204-.219-.576-.123-.819.048-.78.549-.999 1.608-1.002 2.562a4.962 4.962 0 0 1-.015-1.056 1.083 1.083 0 0 0-.396-.933 1.161 1.161 0 0 0-.6-.141 1.248 1.248 0 0 0-.981.276.981.981 0 0 0 .039 1.2c.289.327.632.6 1.014.81.29.174.538.411.726.693.02.04.039.08.054.123h2.196c.483-.25.93-.564 1.329-.933zM256.002 213.471c.276-.223.477-.526.576-.867a.771.771 0 0 0-.402-.885c-.369-.141-.762.117-1.062.375-.3.258-.639.552-1.032.498.409-.372.593-.93.486-1.473a.6.6 0 0 0-.135-.3c-.204-.219-.576-.126-.822.048-.777.546-.996 1.605-.999 2.559-.039-.35-.039-.703 0-1.053a1.083 1.083 0 0 0-.396-.933 1.2 1.2 0 0 0-.6-.144 1.257 1.257 0 0 0-.978.279.972.972 0 0 0 .039 1.2c.289.327.632.603 1.014.813.29.173.538.41.723.693a.51.51 0 0 1 .054.123h2.199a6.219 6.219 0 0 0 1.335-.933zM268.827 221.742c.274-.224.474-.527.573-.867a.768.768 0 0 0-.402-.882c-.369-.141-.762.114-1.062.372-.3.258-.639.552-1.032.498.409-.37.593-.929.486-1.47a.6.6 0 0 0-.135-.3c-.204-.219-.576-.123-.819.048-.78.549-.999 1.608-1.002 2.562a4.962 4.962 0 0 1-.015-1.056 1.083 1.083 0 0 0-.396-.933c-.184-.1-.39-.149-.6-.141a1.248 1.248 0 0 0-.981.276.975.975 0 0 0 .039 1.2c.289.327.632.6 1.014.81.29.174.537.41.723.693a.51.51 0 0 1 .054.123h2.193a6.135 6.135 0 0 0 1.362-.933zM305.19 205.02s.822 1.077-.381 2.7c-1.203 1.623-2.196 3-1.8 4.014 0 0 1.8-3.021 3.3-3.063 1.5-.042.507-1.833-1.119-3.651z"/>
        <path fill="#000" fill-rule="nonzero" d="M305.19 205.02c.071.105.128.219.168.339 1.443 1.695 2.211 3.276.825 3.315-1.293.039-2.841 2.346-3.213 2.931.012.045.027.089.045.132 0 0 1.8-3.021 3.3-3.063 1.5-.042.501-1.836-1.125-3.654z" opacity=".1"/>
        <path fill="#FFD037" fill-rule="nonzero" d="M306.72 206.394c0 .378-.042.687-.093.687s-.096-.3-.096-.687c0-.387.054-.201.105-.201s.084-.177.084.201z"/>
        <path fill="#FFD037" fill-rule="nonzero" d="M307.245 206.847c-.333.18-.621.3-.648.246-.027-.054.225-.231.558-.414.333-.183.201-.048.228 0 .027.048.195-.015-.138.168z"/>
        <path fill="#3E5C82" fill-rule="nonzero" d="M300.84 205.02s-.825 1.077.378 2.7c1.203 1.623 2.199 3 1.8 4.014 0 0-1.818-3.021-3.3-3.063-1.482-.042-.504-1.833 1.122-3.651z"/>
        <path fill="#000" fill-rule="nonzero" d="M300.84 205.02c-.073.104-.13.218-.168.339-1.443 1.695-2.211 3.276-.825 3.315 1.29.039 2.841 2.346 3.21 2.931a1.119 1.119 0 0 1-.042.132s-1.818-3.021-3.3-3.063c-1.482-.042-.501-1.836 1.125-3.654z" opacity=".1"/>
        <path fill="#FFD037" fill-rule="nonzero" d="M299.307 206.394c0 .378.045.687.096.687.051 0 .096-.3.096-.687 0-.387-.054-.201-.105-.201s-.087-.177-.087.201z"/>
        <path fill="#FFD037" fill-rule="nonzero" d="M298.782 206.847c.333.18.624.3.648.246.024-.054-.222-.231-.555-.414-.333-.183-.204-.048-.228 0-.024.048-.198-.015.135.168z"/>
        <path fill="#A8A8A8" fill-rule="nonzero" d="M299.565 211.596s2.301-.072 3-.564c.699-.492 3.54-1.086 3.714-.3.174.786 3.459 3.942.861 3.963-2.598.021-6.042-.405-6.735-.825-.693-.42-.84-2.274-.84-2.274z"/>
        <path fill="#000" fill-rule="nonzero" d="M307.188 214.425c-2.598.021-6.039-.405-6.732-.825-.528-.321-.738-1.476-.81-2.007h-.081s.144 1.857.837 2.28c.693.423 4.134.846 6.735.825.75 0 1.008-.273.996-.669-.099.246-.387.393-.945.396z" opacity=".2"/>
        <ellipse cx="30.651" cy="225.894" fill="#3E5C82" fill-rule="nonzero" opacity=".1" rx="10.917" ry="1.872"/>
        <path fill="#3E5C82" fill-rule="nonzero" d="M35.52 207.045s-15.201 7.854-7.347 17.1c0 0 .738 2.019 2.877 1.866 0 0-.429-.78 1.2-1.401a7.902 7.902 0 0 0 1.641-.873 3.846 3.846 0 0 0 1.47-1.965s3.111-4.161.702-11.859c0 0 .3-2.178.039-2.526l-1.848 2.532s1.911 1.284 2.127 3.162c0 0-1.989-3.156-2.418-2.799-.087.075-.918 1.386-.918 1.386s3.3 2.244 3.555 5.16c0 0-1.866-4.08-3.876-4.665l-1.137 2.058s3.615 2.199 4.023 5.511c0 0-2.1-4.2-4.242-5.046l-.846 2.172s3.483 2.217 3.804 4.971c0 0-2.916-4.605-3.966-4.461 0 0-.654 2.043-.567 2.67 0 0 2.463 1.647 2.508 3.264 0 0-2.274-2.871-2.625-2.682 0 0-.147 2.886.555 4.389 0 0-1.2-2.145-1.008-4.389 0 0-1.2 1.02-1.458 2.349 0 0-.654-1.59 1.5-3.048 0 0 .204-2.247.45-2.523 0 0-2.331 1.137-3.324 2.538 0 0 .366-2.085 3.528-3.12l.804-2.202s-3.165 1.341-4.14 2.523c0 0 .699-2.07 4.386-3.063l1.095-2.028s-2.814.948-4.185 2.028c0 0 1.065-1.779 4.521-2.595l.9-1.269s-2.04.729-2.61.993c-.57.264-.684.129-.684.129a7.371 7.371 0 0 1 3.66-1.662s1.995-2.487 1.854-2.625z"/>
    </g>
</svg>
