<svg xmlns="http://www.w3.org/2000/svg" width="356" height="251" viewBox="0 0 356 251">
    <defs>
        <linearGradient id="a" x1="50.004%" x2="50.004%" y1="99.991%" y2=".01%">
            <stop offset="0%" stop-color="gray" stop-opacity=".25"/>
            <stop offset="54%" stop-color="gray" stop-opacity=".12"/>
            <stop offset="100%" stop-color="gray" stop-opacity=".1"/>
        </linearGradient>
        <linearGradient id="b" x1="-.021%" x2="100.068%" y1="50.005%" y2="50.005%">
            <stop offset="0%" stop-color="gray" stop-opacity=".25"/>
            <stop offset="54%" stop-color="gray" stop-opacity=".12"/>
            <stop offset="100%" stop-color="gray" stop-opacity=".1"/>
        </linearGradient>
    </defs>
    <g fill="none" fill-rule="evenodd">
        <ellipse cx="202.934" cy="197.49" fill="#05A" fill-rule="nonzero" opacity=".1" rx="50.483" ry="8.05"/>
        <ellipse cx="116.579" cy="243.742" fill="#05A" fill-rule="nonzero" opacity=".1" rx="50.483" ry="3.977"/>
        <ellipse cx="294.79" cy="242.793" fill="#05A" fill-rule="nonzero" opacity=".1" rx="11.056" ry="1.634"/>
        <ellipse cx="274.08" cy="228.008" fill="#05A" fill-rule="nonzero" opacity=".1" rx="8.066" ry="1"/>
        <ellipse cx="227.217" cy="221.267" fill="#05A" fill-rule="nonzero" opacity=".1" rx="7.321" ry="1"/>
        <ellipse cx="297.038" cy="212.074" fill="#05A" fill-rule="nonzero" opacity=".1" rx="7.321" ry="1"/>
        <ellipse cx="213.604" cy="242.455" fill="#05A" fill-rule="nonzero" opacity=".1" rx="11.056" ry="1.634"/>
        <ellipse cx="64.224" cy="184.861" fill="#05A" fill-rule="nonzero" opacity=".1" rx="64.224" ry="3.977"/>
        <ellipse cx="257.028" cy="183.858" fill="#05A" fill-rule="nonzero" opacity=".1" rx="26.706" ry="3.977"/>
        <path fill="#B77B7F" fill-rule="nonzero" d="M101.823 181.871l1.271 2.71v-20.137h-1.27zM19.771 181.871l-1.267 2.71v-20.137h1.267z"/>
        <path fill="#000" fill-rule="nonzero" d="M101.823 181.871l1.271 2.71v-20.137h-1.27zM19.771 181.871l-1.267 2.71v-20.137h1.267z" opacity=".1"/>
        <path fill="#B77B7F" fill-rule="nonzero" d="M24.907 127.458h3.519v24.755h-3.519zM95.716 127.458h3.519v24.755h-3.519z"/>
        <path fill="#000" fill-rule="nonzero" d="M24.907 127.458h3.519v2.885h-3.519zM95.716 127.458h3.519v2.885h-3.519z" opacity=".1"/>
        <path fill="#DDA2A6" fill-rule="nonzero" d="M19.485 126.42h84.762v3.694H19.485z"/>
        <path fill="#000" fill-rule="nonzero" d="M24.907 131.671h3.519v3.694h-3.519zM95.716 131.671h3.519v3.694h-3.519z" opacity=".1"/>
        <path fill="#DDA2A6" fill-rule="nonzero" d="M19.485 131.439h84.762v3.694H19.485z"/>
        <path fill="#000" fill-rule="nonzero" d="M24.907 136.69h3.519v3.694h-3.519zM95.716 136.69h3.519v3.694h-3.519z" opacity=".1"/>
        <path fill="#DDA2A6" fill-rule="nonzero" d="M19.485 136.46h84.762v3.694H19.485z"/>
        <path fill="#000" fill-rule="nonzero" d="M24.907 141.711h3.519v3.694h-3.519zM95.716 141.711h3.519v3.694h-3.519z" opacity=".1"/>
        <path fill="#DDA2A6" fill-rule="nonzero" d="M19.485 141.479h84.762v3.694H19.485z"/>
        <path fill="#000" fill-rule="nonzero" d="M24.907 146.73h3.519v3.694h-3.519zM95.716 146.73h3.519v3.694h-3.519z" opacity=".1"/>
        <path fill="#DDA2A6" fill-rule="nonzero" d="M19.485 146.5h84.762v3.694H19.485z"/>
        <g fill="#000" fill-rule="nonzero" opacity=".1" transform="translate(26.111 127.977)">
            <circle cx=".557" cy=".519" r="1"/>
            <circle cx=".557" cy="5.537" r="1"/>
            <circle cx=".557" cy="10.559" r="1"/>
            <circle cx=".557" cy="15.581" r="1"/>
            <circle cx=".557" cy="20.599" r="1"/>
            <circle cx="71.366" cy=".519" r="1"/>
            <circle cx="71.366" cy="5.537" r="1"/>
            <circle cx="71.366" cy="10.559" r="1"/>
            <circle cx="71.366" cy="15.581" r="1"/>
            <circle cx="71.366" cy="20.599" r="1"/>
        </g>
        <circle cx="26.668" cy="128.267" r="1" fill="#918C9E" fill-rule="nonzero"/>
        <circle cx="26.668" cy="133.286" r="1" fill="#918C9E" fill-rule="nonzero"/>
        <circle cx="26.668" cy="138.307" r="1" fill="#918C9E" fill-rule="nonzero"/>
        <circle cx="26.668" cy="143.326" r="1" fill="#918C9E" fill-rule="nonzero"/>
        <circle cx="26.668" cy="148.347" r="1" fill="#918C9E" fill-rule="nonzero"/>
        <circle cx="97.477" cy="128.267" r="1" fill="#918C9E" fill-rule="nonzero"/>
        <circle cx="97.477" cy="133.286" r="1" fill="#918C9E" fill-rule="nonzero"/>
        <circle cx="97.477" cy="138.307" r="1" fill="#918C9E" fill-rule="nonzero"/>
        <circle cx="97.477" cy="143.326" r="1" fill="#918C9E" fill-rule="nonzero"/>
        <circle cx="97.477" cy="148.347" r="1" fill="#918C9E" fill-rule="nonzero"/>
        <path fill="#DDA2A6" fill-rule="nonzero" d="M106.208 153.77H17.463l2.022-2.48h84.762z"/>
        <path fill="#000" fill-rule="nonzero" d="M106.208 153.77H17.463l2.022-2.48h84.762z" opacity=".1"/>
        <path fill="#DDA2A6" fill-rule="nonzero" d="M106.208 153.655H17.463l2.022-2.48h84.762zM109.326 157.636l-95.21-.233L17.348 154h89.207z"/>
        <path fill="#000" fill-rule="nonzero" d="M109.326 157.636l-95.21-.233L17.348 154h89.207z" opacity=".1"/>
        <path fill="#DDA2A6" fill-rule="nonzero" d="M109.326 157.521l-95.21-.232 3.232-3.404h89.207zM112.325 161.154H10.712l3.117-3.518 95.726.114z"/>
        <path fill="#B77B7F" fill-rule="nonzero" d="M26.156 164.444v7.27l-1.249 2.426-.41-8.658-.051-1.038zM97.439 164.444l-.051 1.038-.411 8.658-1.251-2.427v-7.27z"/>
        <path fill="#000" fill-rule="nonzero" d="M26.156 164.444v7.27l-1.249 2.426-.41-8.658-.051-1.038zM97.439 164.444l-.051 1.038-.411 8.658-1.251-2.427v-7.27z" opacity=".1"/>
        <path fill="#B77B7F" fill-rule="nonzero" d="M21.675 163.867h3.232v10.269h-3.232zM96.977 163.867h3.232v10.269h-3.232z"/>
        <path fill="#000" fill-rule="nonzero" d="M24.907 164.444h1.249v1.038h-4.48v-1.615h3.231zM100.209 163.867v1.615h-4.483v-1.038h1.251v-.577z" opacity=".1"/>
        <path fill="#B77B7F" fill-rule="nonzero" d="M17.463 162.715h86.784v2.538H17.463z"/>
        <path fill="#B77B7F" fill-rule="nonzero" d="M14.81 162.253h3.694v22.331H14.81zM106.784 184.58h-3.694v-22.33h3.694z"/>
        <path fill="#000" fill-rule="nonzero" d="M17.463 162.715h86.784v1H17.463z" opacity=".1"/>
        <path fill="#DDA2A6" fill-rule="nonzero" d="M10.712 161.154h101.613v1.557H10.712z"/>
        <path fill="#FFF" fill-rule="nonzero" d="M10.712 161.154h101.613v1.557H10.712z" opacity=".1"/>
        <circle cx="16.437" cy="164.1" r="1" fill="#000" fill-rule="nonzero" opacity=".1"/>
        <circle cx="16.437" cy="163.867" r="1" fill="#918C9E" fill-rule="nonzero"/>
        <circle cx="105.24" cy="164.03" r="1" fill="#000" fill-rule="nonzero" opacity=".1"/>
        <circle cx="105.24" cy="163.797" r="1" fill="#918C9E" fill-rule="nonzero"/>
        <ellipse cx="294.883" cy="180.964" fill="#05A" fill-rule="nonzero" opacity=".1" rx="6.525" ry="1"/>
        <ellipse cx="319.873" cy="183.498" fill="#05A" fill-rule="nonzero" opacity=".1" rx="6.525" ry="1"/>
        <ellipse cx="349.311" cy="180.069" fill="#05A" fill-rule="nonzero" opacity=".1" rx="6.525" ry="1"/>
        <ellipse cx="309.871" cy="190.714" fill="#05A" fill-rule="nonzero" opacity=".1" rx="4.639" ry="1"/>
        <ellipse cx="335.81" cy="190.077" fill="#05A" fill-rule="nonzero" opacity=".1" rx="4.639" ry="1"/>
        <path fill="#05A" fill-rule="nonzero" d="M320.013 183.298s-9.148-29.996 1.433-42.014c7.916-8.986 16.902-7.91 20.927-6.798a7.432 7.432 0 0 1 4.799 3.98c1.407 3.038 1.152 7.961-8.78 13.715-16.628 9.626-17.663 22.834-17.663 22.834l-.716 8.283z"/>
        <path stroke="#FFF" stroke-width=".531" d="M340.953 138.74s-26.974 8.432-20.927 44.558M325.187 141.762s3.713 2.503 2.548 6.267M338.233 143.991s-2.27-2.309-5.03-1.035M327.579 155.607s-3.987-2.022-5.019.513M317.708 159.823s2.993-.235 3.047 1.194"/>
        <path fill="#05A" fill-rule="nonzero" d="M319.644 183.537s10.718-21.803 13.66-21.335c1.398.226 2.044 1.592 2.334 2.984a8.792 8.792 0 0 1-.583 5.308c-1.522 3.496-5.604 10.123-15.411 13.043z"/>
        <path stroke="#FFF" stroke-width=".531" d="M333.224 166.348s-11.246 16.313-13.421 17.03M334.259 168.895h-2.627M331.113 174.863l-4.114.175M328.61 170.089l.446 2.143M324.235 176.614l.077 1.949"/>
        <path fill="#05A" fill-rule="nonzero" d="M319.962 183.537s-10.715-21.803-13.66-21.335c-1.398.226-2.042 1.592-2.335 2.984a8.792 8.792 0 0 0 .583 5.308c1.522 3.496 5.608 10.123 15.412 13.043z"/>
        <path stroke="#FFF" stroke-width=".531" d="M306.381 166.348s11.25 16.313 13.422 17.03M305.346 168.895h2.627M308.492 174.863l4.114.175M310.995 170.089l-.446 2.143"/>
        <path stroke="#565987" stroke-width=".531" d="M315.373 176.614l-.079 1.949"/>
        <path fill="#05A" fill-rule="nonzero" d="M338.364 188.628a1.85 1.85 0 0 0 .608-.92.822.822 0 0 0-.423-.94c-.392-.15-.812.122-1.128.395-.315.274-.681.59-1.095.529.434-.393.63-.986.516-1.56a.637.637 0 0 0-.147-.319c-.216-.232-.608-.133-.869.048-.828.583-1.06 1.707-1.064 2.72a5.267 5.267 0 0 1 0-1.121c.034-.38-.124-.751-.42-.99a1.29 1.29 0 0 0-.637-.15 1.325 1.325 0 0 0-1.041.296c-.318.337-.232.904.041 1.273.307.348.67.64 1.077.863.308.183.572.434.77.733a.955.955 0 0 1 .058.13h2.33a6.53 6.53 0 0 0 1.424-.987zM297.529 179.862c.291-.238.503-.56.608-.92a.815.815 0 0 0-.427-.937c-.391-.15-.809.121-1.127.395-.318.274-.678.586-1.095.529.435-.393.63-.986.516-1.56a.637.637 0 0 0-.144-.319c-.216-.232-.611-.13-.87.051-.827.583-1.06 1.707-1.063 2.716a5.238 5.238 0 0 1-.016-1.117 1.15 1.15 0 0 0-.42-.99 1.232 1.232 0 0 0-.637-.15 1.325 1.325 0 0 0-1.041.293c-.278.384-.26.908.041 1.273.307.347.671.638 1.077.86.308.185.571.436.77.736.023.041.04.085.054.13h2.334a6.439 6.439 0 0 0 1.44-.99zM311.138 188.628c.291-.238.503-.56.609-.92a.818.818 0 0 0-.427-.94c-.392-.15-.809.122-1.127.395-.319.274-.679.59-1.096.529.436-.392.632-.986.516-1.56a.599.599 0 0 0-.143-.319c-.217-.232-.612-.133-.87.048-.827.583-1.06 1.707-1.063 2.72a5.267 5.267 0 0 1 0-1.121c.031-.38-.126-.75-.42-.99a1.3 1.3 0 0 0-.637-.15 1.325 1.325 0 0 0-1.041.296c-.319.337-.233.904.04 1.273.307.348.671.64 1.077.863.309.183.572.434.77.733.023.041.039.086.058.13h2.331a6.53 6.53 0 0 0 1.423-.987zM349.735 170.88s.876 1.142-.404 2.865c-1.28 1.723-2.331 3.184-1.911 4.257 0 0 1.926-3.203 3.503-3.248 1.576-.044.538-1.948-1.188-3.875z"/>
        <path fill="#000" fill-rule="nonzero" d="M349.735 170.88c.076.109.136.229.178.356 1.532 1.799 2.347 3.477.876 3.522-1.373.038-3.016 2.49-3.41 3.107.012.048.028.095.047.14 0 0 1.927-3.203 3.503-3.247 1.576-.045.532-1.952-1.194-3.879z" opacity=".1"/>
        <path fill="#FFD037" fill-rule="nonzero" d="M351.359 172.334c0 .405-.045.73-.099.73-.054 0-.102-.319-.102-.73 0-.41.058-.213.112-.213s.089-.188.089.213z"/>
        <path fill="#FFD037" fill-rule="nonzero" d="M351.916 172.815c-.35.194-.659.319-.688.261-.028-.057.24-.245.593-.436s.213-.054.242 0c.028.054.207-.016-.147.175z"/>
        <path fill="#05A" fill-rule="nonzero" d="M345.118 170.88s-.876 1.142.404 2.865c1.28 1.723 2.331 3.184 1.91 4.257 0 0-1.91-3.203-3.502-3.248-1.592-.044-.538-1.948 1.188-3.875z"/>
        <path fill="#000" fill-rule="nonzero" d="M345.118 170.88c-.076.109-.136.229-.179.356-1.531 1.799-2.346 3.477-.875 3.522 1.372.038 3.015 2.49 3.41 3.107a1.038 1.038 0 0 1-.048.14s-1.91-3.203-3.502-3.247c-1.593-.045-.532-1.952 1.194-3.879z" opacity=".1"/>
        <path fill="#FFD037" fill-rule="nonzero" d="M343.5 172.334c0 .405.045.73.099.73.054 0 .102-.319.102-.73 0-.41-.058-.213-.112-.213s-.089-.188-.089.213z"/>
        <path fill="#FFD037" fill-rule="nonzero" d="M342.933 172.815c.354.194.663.319.688.261.026-.057-.236-.245-.589-.436s-.213-.054-.242 0c-.029.054-.21-.016.143.175z"/>
        <path fill="#A8A8A8" fill-rule="nonzero" d="M343.77 177.856s2.446-.073 3.185-.599c.739-.525 3.76-1.15 3.942-.318.182.83 3.672 4.184.914 4.206-2.758.022-6.413-.43-7.149-.879-.735-.449-.891-2.41-.891-2.41z"/>
        <path fill="#000" fill-rule="nonzero" d="M351.856 180.862c-2.758.022-6.41-.43-7.146-.88-.56-.34-.783-1.563-.856-2.13h-.083s.156 1.972.888 2.42c.733.45 4.388.902 7.149.88.796 0 1.07-.29 1.057-.71-.111.254-.414.413-1.01.42z" opacity=".2"/>
        <path fill="url(#a)" fill-rule="nonzero" d="M30.569 156.674c.16.637 3.528.955 5.413 1.057-.423.34-.783.749-.544 1.455.461 1.366.169 6.05.169 6.05s4.728-.576 6.737-2.451l1.752.366a25.528 25.528 0 0 0-1.752 3.391 213.221 213.221 0 0 1-2.865 6.34l-.096.197-.436-.184s-1.217 2.525-1.608 3.311c-.376.675-.802 1.32-1.274 1.93l-.882 1.767s-.853 1.752-.895 2.758c-.041 1.006 2.086 1.229 4.073 1.668 1.987.44 1.146-1.805 1.048-2.662-.1-.856 1.36-3.324 1.36-3.324s.853-1.06.824-1.503c-.029-.443.637-1.337.637-1.337s.837-.927.487-.94a.86.86 0 0 1-.226-.057l.15-.172c1.003-1.162 3.636-4.14 4.645-4.75 1.255-.746 3.436-3.271 3.207-3.87-.23-.598 2.455-4.365 2.455-4.365a7.375 7.375 0 0 0 1.493-1.755l.061-.118c.185.602.427 1.026.713 1.016.382 0 .717-.459 1.006-1.092l.1.098c.954.956 2.776 2.764 3.062 2.927.392.22 1.007 1.242 1.793 2.29.454.654.861 1.34 1.22 2.05v.978c.048 1.417 2.162 3.203 2.162 3.203s.777 2.42 1.49 2.608c.713.188 1.825 2.07 3.379 1.716.318-.073.595-.446.818-1l.23.236.273.29-.21.083s1.933 2.939 2.016 3.372c.18.547.405 1.08.672 1.592.492.68.927 1.4 1.302 2.152.334.81 2.016 2.525 2.016 2.525s2.642-.579 3.964-1.614c1.321-1.035.296-1.946-.672-2.318-.968-.373-1.51-1.78-1.51-1.78-.366-.44-.703-.902-1.009-1.385-.041-.185-.86-.35-.9-.599-.042-.248-1.112-2.07-1.112-2.07s-1.303-1.655-1.48-1.531l-.077-.207-.07-.13c-.258-.498-1.239-2.37-2.548-4.669.02-.396-.01-.793-.089-1.181-.274-.704-.694-5.713-.608-6.54.086-.829-1.783-2.71-2.812-3.144-.767-.318-1.172-2.324-1.328-3.35h.086c.672 0 6.423-.26 6.633-1.101.21-.841-5.907-1.045-6.327-1.06-.121-.392-.484-1.472-.955-1.758-.567-.354-.8-1.679-.8-1.679s-.398-1.012-.187-1.614c.21-.602-.841-1.697-.841-1.697-.008-.425.006-.85.045-1.274.06-.726-.567-.828-.567-.891a10.438 10.438 0 0 1 0-1.16c.041-.35-.672-.745-.59-1.136a16.24 16.24 0 0 0 0-2.029 1.487 1.487 0 0 1-.318-1.159c.064-.786-.672-1.51-.672-1.51l-.124-2.228-.955-3.06c-.955-3.063-.357-1.885-1.678-3.27-.59-.618-1.554-.924-2.44-1.074 0-.181-.031-.36-.054-.534-.168-1.233-.436-2.567.163-3.662.357-.656 1.016-1.207 1.032-1.952a1.334 1.334 0 0 0-.14-.621c-.354-.924-1.612-1.56-1.777-2.583l.047.099v-.064a1.178 1.178 0 0 0-.098-.506.468.468 0 0 0-.048-.108.783.783 0 0 0-.255-.223 7.457 7.457 0 0 0-.614-.347c.168-.22.27-.485.293-.761.002-.1-.01-.2-.035-.296a1.71 1.71 0 0 0-.43-.768 2.207 2.207 0 0 0-.694-.519c.031.029.06.06.089.09a1.5 1.5 0 0 0-.437-.147 5.617 5.617 0 0 0-.802-.02 6.158 6.158 0 0 1-1.309-.245c-1.592-.391-3.35-.544-4.776.236-1.14.637-1.91 1.745-2.5 2.885-.264.438-.424.93-.468 1.44.029.457.113.91.252 1.346a.586.586 0 0 1 0 .277c-.064.23-.347.296-.567.392-.4.193-.706.537-.854.955-.139.412-.222.84-.248 1.274-.049.275-.031.558.051.825.182.458.704.678 1.156.891.513.22.97.551 1.337.972a24.356 24.356 0 0 0-2.754 2.416c-1.274.357-2.665.85-2.99 1.322-.637.91-.955.497-1.05 3.684-.096 3.188-.463 4.347-.463 4.347v4.458s.462 2.939 0 3.725c-.461.787-.379 4.057-.379 4.057s.637 3.101-.375 4.095c-1.013.993-1.051 2.866-1.051 2.866l.086.032c-1.79.124-5.531.407-5.372 1.044zm10.76-5.152c.379-.955 1.133-3.602 1.133-3.602s.42-1.987 0-2.36c-.42-.372.59-3.062.59-3.062.296.543.427 1.162.375 1.78-.083 1.035 0 3.27 0 3.27s-.685 2.152-.573 3.184c.111 1.032-1.653 2.15-1.398 2.564.19.374.33.77.417 1.18 0 0-.277 0-.637.03-.05-1.147-.124-2.433.093-2.984z"/>
        <path fill="#EFB7B9" fill-rule="nonzero" d="M66.354 152.308s6.368.217 6.161 1.048c-.207.831-5.792 1.086-6.445 1.086-.652 0-1.592-1.194-1.592-1.194l1.876-.94z"/>
        <path fill="#67647E" fill-rule="nonzero" d="M62.405 152.79h-3.67v-3.385h3.67z"/>
        <path fill="#000" fill-rule="nonzero" d="M62.405 152.79h-3.67v-3.385h3.67z" opacity=".12"/>
        <path fill="#67647E" fill-rule="nonzero" d="M64.357 152.92l3.379 6.817-4.283 1.389-3.455-2.965-1.633-3.165-3.309.27-3.528 1.758-2.853 1.742-1.726 3.229-2.474 1.398-5.305-1.134-.777-3.608 4.33-2.897 1.57-2.379 6.36-.923 1.84-2.748 6.365 1.538z"/>
        <path fill="#000" fill-rule="nonzero" d="M64.357 152.983l3.449 7.43-4.353.776-3.455-2.964-1.633-3.165-3.309.27-3.528 1.758-2.853 1.739-1.726 3.232-2.474 1.398-5.305-1.134-.777-3.608 4.33-2.9 1.57-2.376 6.36-.924 1.84-2.748 6.365 1.538z" opacity=".12"/>
        <path fill="#E3787D" fill-rule="nonzero" d="M55.495 117.132a.751.751 0 0 1 .249.22c.067.157.1.328.095.5.13 1.229 1.854 1.888 1.828 3.123-.016.733-.659 1.274-1.006 1.91-.58 1.083-.318 2.395-.156 3.612.124.92.124 2.003-.583 2.608-.321.203-.631.423-.93.659-.541.56-.423 1.484-.777 2.175a.602.602 0 0 1-.146.197.637.637 0 0 1-.207.108 1.87 1.87 0 0 1-1.933-.637 3.305 3.305 0 0 1-.669-2.015c.007-.72.061-1.44.163-2.153.13-1.382.086-2.773.197-4.14.012-.439.11-.872.29-1.273.105-.207.248-.392.35-.602.123-.29.203-.597.236-.91l.382-2.433c.076-.484.143-1.36.707-1.548.564-.188 1.455.312 1.91.599z"/>
        <path fill="#E3787D" fill-rule="nonzero" d="M55.495 117.132a.751.751 0 0 1 .249.22c.067.157.1.328.095.5.13 1.229 1.854 1.888 1.828 3.123-.016.733-.659 1.274-1.006 1.91-.58 1.083-.318 2.395-.156 3.612.124.92.124 2.003-.583 2.608-.321.203-.631.423-.93.659-.541.56-.423 1.484-.777 2.175a.602.602 0 0 1-.146.197.637.637 0 0 1-.207.108 1.87 1.87 0 0 1-1.933-.637 3.305 3.305 0 0 1-.669-2.015c.007-.72.061-1.44.163-2.153.13-1.382.086-2.773.197-4.14.012-.439.11-.872.29-1.273.105-.207.248-.392.35-.602.123-.29.203-.597.236-.91l.382-2.433c.076-.484.143-1.36.707-1.548.564-.188 1.455.312 1.91.599z"/>
        <g fill="#000" fill-rule="nonzero" opacity=".1">
            <path d="M55.722 117.47v-.103a.474.474 0 0 1 .073.09c.07.158.103.33.095.503v.06a1.567 1.567 0 0 1-.168-.55zM51.82 131.225a1.86 1.86 0 0 0 1.93.637.637.637 0 0 0 .21-.105.685.685 0 0 0 .144-.197c.357-.694.239-1.615.777-2.178.299-.234.609-.453.93-.656.707-.609.707-1.688.582-2.611-.162-1.214-.423-2.529.16-3.608.347-.637.987-1.191 1.003-1.927a1.08 1.08 0 0 0 0-.203c.117.212.177.451.175.694-.016.735-.656 1.273-1.003 1.926-.583 1.08-.319 2.392-.16 3.608.125.923.125 2.003-.582 2.608-.287.248-.666.385-.93.659-.538.564-.42 1.484-.777 2.175a.637.637 0 0 1-.143.2.704.704 0 0 1-.207.106 1.86 1.86 0 0 1-1.933-.637 2.799 2.799 0 0 1-.548-1.128c.093.23.219.444.373.637z"/>
        </g>
        <path fill="#EFB7B9" fill-rule="nonzero" d="M37.44 156.028s-6.368.216-6.158 1.047c.21.831 5.792 1.086 6.445 1.086.653 0 1.592-1.197 1.592-1.197l-1.878-.936z"/>
        <path fill="#67647E" fill-rule="nonzero" d="M54.572 127.003s3.117-.182 4.4 1.185c1.284 1.366.717.203 1.634 3.222l.917 3.019.121 2.18s.717.714.653 1.491c-.058.408.058.821.319 1.14.04.666.04 1.334 0 2-.083.388.61.777.57 1.12-.022.381-.022.763 0 1.144 0 .06.61.162.55.879-.036.423-.05.848-.041 1.273 0 0 1.019 1.08.815 1.672-.204.592.185 1.592.185 1.592s.223 1.306.774 1.65c.55.344.955 1.879.955 1.879s-.51 1.324-.51 1.385c0 .06.37 3.467 1.366 3.897.997.43 2.815 2.283 2.736 3.099-.08.815.318 5.753.589 6.444.27.691-.038 7.773-1.548 8.12-1.509.347-2.592-1.509-3.286-1.694-.694-.184-1.446-2.57-1.446-2.57s-2.06-1.754-2.082-3.161c-.022-1.408-.08-3.185-.08-3.185s2.404-4.079 2.895-4.388c.49-.308 1.856-2.037.796-3.528a15.851 15.851 0 0 1-1.732-3.385l-1.143-1.019-.956-3.652-1.754-5.71-1.653-5.61-1.407-5.894-3.707-2.583s-.662-1.694 1.07-2.012z"/>
        <path fill="#EFB7B9" fill-rule="nonzero" d="M55.731 159.25l.586.599c.936.955 2.697 2.722 2.977 2.882.38.216.978 1.222 1.739 2.257.761 1.035 1.796 3.264 1.796 3.264s2.547 3.589 4.05 3.97c1.016.259 2.404 1.593 3.185 2.42.375.399.614.682.614.682l2.942-1.143-.382-1.006-.067-.13a124.32 124.32 0 0 0-2.977-5.446 35.775 35.775 0 0 0-4.458-5.846s-2.34-2.15-2.42-3.13a12.37 12.37 0 0 1 .022-1.63c.045-.704.112-1.306.112-1.306l-3.56-2.312-2.723 1.137-1.436 4.738zM39.74 173.493l2.897 1.43s.144-.175.386-.458c.977-1.147 3.534-4.095 4.512-4.684 1.22-.733 3.34-3.223 3.117-3.822-.223-.598 2.385-4.305 2.385-4.305a7.104 7.104 0 0 0 1.452-1.729c.264-.413.365-.908.284-1.391-.347-1.366-1.49-4.366-1.49-4.366l-.59-.98c-.044-.058-2.04-.752-2.04-.752l-1.978-.204-2.49 2.12s.092.504.229 1.208c.302 1.544.828 4.044 1.08 4.2.362.223-1.698 1.91-1.698 1.91s-1.366 1.162-3.057 5.12c-1.273 3-2.343 5.309-2.783 6.248l-.216.455z"/>
        <path fill="#000" fill-rule="nonzero" d="M57.17 154.512l-1.439 4.738.586.599c.372-1.022.676-2.066.91-3.127.38-1.55 4.296-1.143 4.978-1.143.3 0 .72.684 1.137 1.413.044-.703.111-1.305.111-1.305l-3.56-2.312-2.723 1.137zM46.185 154.369s.092.503.229 1.206a5.174 5.174 0 0 1 1.274-1.764c1.91-1.687 4.432-.245 4.432-.245.258.096.385.366.669.698.82.98 1.3 2.2 1.37 3.477.043.742.156 1.479.337 2.2.263-.413.364-.908.283-1.391-.347-1.366-1.49-4.366-1.49-4.366l-.59-.98c-.044-.058-2.04-.752-2.04-.752l-1.978-.204-2.496 2.12z" opacity=".1"/>
        <path fill="#444053" fill-rule="nonzero" d="M43.223 156.298c.029.682 2.548 1.742 2.548 1.742s0-2.866 1.91-4.544c1.91-1.678 4.433-.245 4.433-.245.258.095.385.366.668.7.821.981 1.301 2.201 1.37 3.478.089 1.445.484 3.43 1.089 3.41.955-.025 1.592-2.882 1.987-4.432.395-1.551 4.295-1.14 4.977-1.14.681 0 1.984 3.534 2.474 3.098.49-.436-.545-3.84-.545-3.84l-3.295-3.965-.704-.844-14.44.78-.71 1.105a29.732 29.732 0 0 0-.676 1.08c-.013.038-1.114 2.923-1.086 3.617z"/>
        <path fill="#000" fill-rule="nonzero" d="M57.833 151.952c-.023.028-2.653 2.885-2.774 3.315-.109.48-.192.968-.248 1.458a9.906 9.906 0 0 0-.15-1.296c-.092-.287.319-.955.59-1.162a4.14 4.14 0 0 0 .888-.796c.07-.172.407-1.95.407-1.95l1.102-.244.185.675zM52.846 151.665s1.691 1.94 1.65 2.23c-.042.289-1.65-2.23-1.65-2.23z" opacity=".1"/>
        <path fill="#EFB7B9" fill-rule="nonzero" d="M44.2 128.79l1.956 2.722 5.378 1.086s5.449-1.36 1.748-2.774a2.127 2.127 0 0 1-.904-.611c-.653-.78-.41-1.962.13-3.111a16.908 16.908 0 0 1 2.45-3.557s-7.643-3.385-6.786.153a3.535 3.535 0 0 1-.045 1.863c-.455 1.592-1.91 2.866-2.904 3.576a9.687 9.687 0 0 1-1.022.652z"/>
        <path fill="#000" fill-rule="nonzero" d="M44.2 128.79l1.956 2.722 5.378 1.086s5.449-1.36 1.748-2.774a2.127 2.127 0 0 1-.904-.611c-.876.388-1.786.694-2.248.557 0 0-3.025-.885-4.907-1.63a9.687 9.687 0 0 1-1.022.65zM44.962 151.745a20.51 20.51 0 0 1 2.277-.557c.76-.134 1.493-.188 1.802 0 .761.487 2.611 1.592 3.264 1.592a.933.933 0 0 0 .87-.542c1.102-.12 2.214-.12 3.317 0 .873.144 2.927-.898 4.2-1.592l.147-.083-.704-.843-14.44.78-.71 1.105-.023.14z" opacity=".1"/>
        <path fill="#A36468" fill-rule="nonzero" d="M45.503 147.774l-.541 3.643a21.35 21.35 0 0 1 2.277-.557c.76-.134 1.493-.185 1.802 0 .761.49 2.611 1.592 3.264 1.592a.937.937 0 0 0 .87-.545c1.102-.12 2.214-.12 3.317 0 .873.147 2.927-.895 4.2-1.592a20.972 20.972 0 0 0 1.076-.637l-.815-2.885-2.503-2.665-.382-3.863-.595-4.457-.927-2.72-1.678-3.974-.296-.704s-.318.195-.809.45c-.22.117-.474.248-.748.382-1.035.509-2.309 1.028-2.885.853 0 0-2.69-.787-4.573-1.5-.869-.318-1.566-.637-1.748-.856a.194.194 0 0 1-.044-.09c0-.054 0 0-.023.105-.117 1.201-.519 10.394-.519 10.394l2.28 9.626z"/>
        <path fill="#000" fill-rule="nonzero" d="M43.223 138.148l2.283 9.63-.54 3.642a21.35 21.35 0 0 1 2.276-.557c.13-1.494.277-4.012-.115-4.853-.573-1.226-.898-5.095-.898-5.095l-.672-12.32-.066-1.19c-.57.057-1.133.169-1.682.334l-.067.015c-.117 1.201-.519 10.394-.519 10.394zM38.644 156.547c1.424.43 3.34.898 3.544.391.14-.35.131-1.133.102-1.99-.694.048-1.735.188-1.91.564-.175.376-1.115.65-1.736 1.035z" opacity=".1"/>
        <path fill="#67647E" fill-rule="nonzero" d="M44.838 127.404c-.121-.083-4.567.898-5.181 1.796-.615.898-.936.487-1.019 3.63-.083 3.143-.449 4.283-.449 4.283v4.404s.449 2.898 0 3.671c-.449.774-.379 4-.379 4s.611 3.06-.366 4.037c-.978.978-1.022 2.815-1.022 2.815s4.776 1.714 5.095.898c.318-.815-.166-4 .203-4.935.37-.936 1.102-3.55 1.102-3.55s.408-1.96 0-2.325c-.408-.366.57-3.019.57-3.019.29.537.416 1.147.366 1.755-.08 1.019 0 3.222 0 3.222s-.665 2.12-.557 3.14c.108 1.019-1.592 2.124-1.36 2.531.185.369.322.76.408 1.163 0 0-2.283.019-2.528.592-.246.573-2.121.847-2.284 1.646-.162.8-1.878 1.044-1.43 2.391.45 1.347.166 5.955.166 5.955s8.238-1.019 7.34-4.776c-.898-3.758-5.14-2.08-5.14-2.08s3.389-2 5.347-1.754c1.958.245 2.732-4.894 2.732-4.894s.57-4.777 0-5.996c-.57-1.22-.898-5.095-.898-5.095l-.716-13.505z"/>
        <path fill="#000" fill-rule="nonzero" d="M41.087 154.07s-.204-.39-1.653-.144c-1.449.245-2.181-.08-2.181-.08s2.936 1.319 3.834.223zM41.494 135.298c.02.06-1.06 1.653-.245 2.936.815 1.283 1.49 3.347 1.63 3.732.14.385.341.98.341.98" opacity=".1"/>
        <path fill="#000" fill-rule="nonzero" d="M45.328 125.446s-3.821 2.866-3.821 4.222c.312.296.733.45 1.162.427.796 0 2.23-.385 2.388-1.274.16-.888.774 0 .427.468-.347.468-.55.714-.55.714s-3.621.99-4.315 1.458c-.695.468.283 1.019.283 1.019s1.019 1.834.955 2.14c-.063.305 2.51 4.305 2.51 4.305s.856 4.324.815 5.14c-.042.815-.102 2.547-.102 2.547l1.643 2.229s.398-6.932.134-7.872c-.265-.94-.981-6.833-.981-6.833s-.815-3.589-.49-3.996c.324-.408.442-1.675.442-1.675l-.5-3.02z" opacity=".05"/>
        <path fill="#67647E" fill-rule="nonzero" d="M45.656 125.283s-3.821 2.866-3.821 4.223c.312.297.732.451 1.162.427.796 0 2.23-.389 2.385-1.274.156-.885.777 0 .43.468-.347.468-.55.713-.55.713s-3.63.984-4.319 1.459c-.687.474.287 1.022.287 1.022s1.019 1.834.955 2.14c-.063.305 2.51 4.305 2.51 4.305s.856 4.324.815 5.14c-.042.814-.102 2.547-.102 2.547l1.315 2.229s.723-6.936.458-7.872c-.264-.936-.974-6.802-.974-6.802s-.818-3.591-.49-3.999c.328-.408.442-1.672.442-1.672l-.503-3.054z"/>
        <path fill="#000" fill-rule="nonzero" d="M45.656 125.283s-3.821 2.866-3.821 4.223c.312.297.732.451 1.162.427.796 0 2.23-.389 2.385-1.274.156-.885.777 0 .43.468-.347.468-.55.713-.55.713s-3.63.984-4.319 1.459c-.687.474.287 1.022.287 1.022s1.019 1.834.955 2.14c-.063.305 2.51 4.305 2.51 4.305s.856 4.324.815 5.14c-.042.814-.102 2.547-.102 2.547l1.315 2.229s.723-6.936.458-7.872c-.264-.936-.974-6.802-.974-6.802s-.818-3.591-.49-3.999c.328-.408.442-1.672.442-1.672l-.503-3.054z" opacity=".12"/>
        <path fill="#000" fill-rule="nonzero" d="M52.875 128.668c.025.196.072.388.14.574.15.452.385 1.063.576 1.69.29.956 1.182 2.713 1.713 4.366.532 1.653 1.325 5.178 1.325 5.178s-.162 3.244.917 4.06c1.08.815 2.306 3.82 2.306 3.82s.385.997.84 1.95a20.973 20.973 0 0 0 1.076-.637l-.815-2.885-2.503-2.666-.382-3.862-.595-4.458-.927-2.72-1.678-3.973c-.449-.032-.748-.06-.748-.06s-.156-.09-.357-.195c-.37-.185-.9-.42-.888-.182z" opacity=".1"/>
        <path fill="#000" fill-rule="nonzero" d="M54.773 129.232s3.783.318 4.63.223c.847-.096.49 1.818.49 1.818s.653 3.894.51 4.302c-.144.408-.918 3.468-.45 4.203.469.736 1.911 4.547 1.911 4.547s.468 1.694.876 3.385c.407 1.691 1.369 4.936 1.61 5.223.243.286 2.332 4.044 2.096 4.633-.235.589-3.452-4.958-4.098-5.449-.646-.49-1.85-3.592-1.85-3.592s-1.226-2.996-2.305-3.82c-1.08-.825-.918-4.06-.918-4.06s-.796-3.529-1.327-5.181c-.532-1.653-1.42-3.398-1.713-4.366-.293-.968-.691-1.91-.714-2.264-.022-.353 1.252.398 1.252.398z" opacity=".05"/>
        <path fill="#67647E" fill-rule="nonzero" d="M54.445 129.057s3.786.318 4.63.223c.843-.096.49 1.815.49 1.815s.653 3.897.51 4.305c-.144.408-.918 3.468-.45 4.2.469.732 1.911 4.55 1.911 4.55s.471 1.691.879 3.385c.407 1.694 1.366 4.936 1.611 5.222.245.287 2.331 4.044 2.092 4.634-.239.589-3.448-4.962-4.095-5.449-.646-.487-1.847-3.604-1.847-3.604s-1.222-2.997-2.305-3.822c-1.083-.824-.917-4.056-.917-4.056s-.796-3.528-1.325-5.181c-.528-1.653-1.42-3.398-1.713-4.366-.293-.968-.694-1.91-.713-2.264-.02-.353 1.242.408 1.242.408z"/>
        <path fill="#000" fill-rule="nonzero" d="M54.445 129.057s3.786.318 4.63.223c.843-.096.49 1.815.49 1.815s.653 3.897.51 4.305c-.144.408-.918 3.468-.45 4.2.469.732 1.911 4.55 1.911 4.55s.471 1.691.879 3.385c.407 1.694 1.366 4.936 1.611 5.222.245.287 2.331 4.044 2.092 4.634-.239.589-3.448-4.962-4.095-5.449-.646-.487-1.847-3.604-1.847-3.604s-1.222-2.997-2.305-3.822c-1.083-.824-.917-4.056-.917-4.056s-.796-3.528-1.325-5.181c-.528-1.653-1.42-3.398-1.713-4.366-.293-.968-.694-1.91-.713-2.264-.02-.353 1.242.408 1.242.408z" opacity=".12"/>
        <path fill="#000" fill-rule="nonzero" d="M55.916 139.122s-.468 2.347.318 3.458c.787 1.112-.095-2.958-.318-3.458zM47.55 146.882s2.163.389 2.867 1.529c.703 1.14-2.866-1.529-2.866-1.529zM47.55 149.207s2.755.879 2.23 1.184c-.526.306-1.755-.245-2.102-.143-.347.102-.127-1.041-.127-1.041zM70.07 174.643c.376.398.614.681.614.681l2.943-1.143-.382-1.006-.067-.13h-.02c-.174.12-1.477.955-1.477.955l-1.611.643z" opacity=".1"/>
        <path fill="#444053" fill-rule="nonzero" d="M71.844 174.337s1.302-.837 1.477-.955c.175-.118 1.44 1.512 1.44 1.512.395.66.756 1.341 1.082 2.038.038.246.834.408.876.593.296.476.624.933.98 1.366 0 0 .529 1.388 1.468 1.754.94.366 1.936 1.274.653 2.283-1.283 1.01-3.856 1.592-3.856 1.592s-1.63-1.694-1.958-2.486a14.87 14.87 0 0 0-1.274-2.124c-.26-.505-.478-1.03-.653-1.57-.083-.427-1.958-3.325-1.958-3.325l1.723-.678z"/>
        <path fill="#000" fill-rule="nonzero" d="M39.74 173.493l2.897 1.43s.144-.175.386-.458a12.16 12.16 0 0 1-1.395-.714l-1.672-.72-.216.462z" opacity=".1"/>
        <path fill="#444053" fill-rule="nonzero" d="M41.466 173.923s1.292.761 1.633.774c.34.013-.478.923-.478.923s-.636.886-.61 1.322c.025.436-.803 1.48-.803 1.48s-1.414 2.433-1.319 3.277c.096.844.911 3.06-1.019 2.624-1.93-.436-3.999-.637-3.958-1.643.042-1.006.87-2.72.87-2.72l.856-1.741c.46-.606.873-1.245 1.239-1.91.382-.775 1.563-3.265 1.563-3.265l2.026.88z"/>
        <path fill="#E3787D" fill-rule="nonzero" d="M53.155 129.97c-1.83-.7-1.44-2.49-.576-4.117a4.866 4.866 0 0 0 2.29-1.799c.547.236 1.047.898.84 1.446a2.095 2.095 0 0 1-.319.465 3.117 3.117 0 0 0 .258 3.92c.156.159.344.318.341.554 0 .274-.287.455-.548.55a3.56 3.56 0 0 1-1.047.208c.159-.373-.124-.8-1.239-1.226z"/>
        <path fill="#000" fill-rule="nonzero" d="M41.507 154.958s-1.958.076-2.611.512c-.397.267-.71.64-.904 1.077" opacity=".1"/>
        <g fill="#000" fill-rule="nonzero" opacity=".1">
            <path d="M55.432 126a3.12 3.12 0 0 0-.319 3.028 3.13 3.13 0 0 1 .163-3.353c.129-.138.236-.295.318-.465a.8.8 0 0 0 0-.55.955.955 0 0 1 .166.875c-.087.17-.198.326-.328.465zM54.441 130.894c.3-.028.596-.093.88-.194.257-.096.544-.277.547-.55a.188.188 0 0 0 0-.046c.1.099.16.23.169.37 0 .277-.287.458-.548.55-.337.123-.69.194-1.048.21a.484.484 0 0 0 0-.34zM53.021 129.681c.876.318 1.239.669 1.274.98-.317-.3-.7-.524-1.118-.652a1.879 1.879 0 0 1-1.184-1.095c.25.36.611.63 1.028.767z"/>
        </g>
        <path fill="#000" fill-rule="nonzero" d="M48.127 124.564c.656 1.207 2.8 1.78 2.866 1.78.513 0 1.022-.082 1.51-.242a16.909 16.909 0 0 1 2.454-3.557s-7.642-3.385-6.785.153c.152.615.137 1.26-.045 1.866z" opacity=".1"/>
        <path fill="#EFB7B9" fill-rule="nonzero" d="M46.156 121.176A4.84 4.84 0 0 0 50.614 126h.388a4.84 4.84 0 1 0-4.843-4.84l-.003.016z"/>
        <path fill="#000" fill-rule="nonzero" d="M46.156 121.176A4.84 4.84 0 0 0 50.614 126a6.945 6.945 0 0 0 1.723-2.302c.218-.36.328-.774.318-1.194-.041-.363-.248-.691-.318-1.051-.102-.59.197-1.172.503-1.688.25-.512.572-.987.955-1.41.213-.201.414-.399.608-.609a4.843 4.843 0 0 0-8.26 3.43h.013z" opacity=".1"/>
        <path fill="#E3787D" fill-rule="nonzero" d="M54.664 117.103c.283-.29.465-.662.52-1.063a1.478 1.478 0 0 0-.44-.997 1.879 1.879 0 0 0-1.022-.621 5.802 5.802 0 0 0-.78-.016 6.05 6.05 0 0 1-1.274-.242c-1.541-.385-3.254-.538-4.646.232-1.108.612-1.847 1.72-2.43 2.844a3.363 3.363 0 0 0-.458 1.42c.03.45.112.896.245 1.328a.557.557 0 0 1 0 .27c-.063.227-.34.294-.554.386-.391.196-.689.54-.828.955a4.85 4.85 0 0 0-.239 1.274c-.05.27-.033.55.048.812.178.455.682.669 1.124.882.5.215.945.542 1.3.955.354.424.485.992.353 1.529-.168.458-.512.83-.955 1.035-.437.2-.897.345-1.37.43-.205.03-.401.104-.576.216-.417.303-.404.978-.086 1.382.353.383.837.618 1.356.66a4.945 4.945 0 0 0 3.261-.692c.599-.363 1.15-.898 1.274-1.592.083-.427 0-.888.175-1.274.23-.512.812-.745 1.293-1.04.987-.603 1.665-1.593 2.184-2.631.22-.36.33-.776.319-1.197-.042-.363-.252-.688-.319-1.048-.105-.592.195-1.175.503-1.69.253-.511.574-.985.956-1.408.383-.339.74-.706 1.066-1.099z"/>
        <g fill="#000" fill-rule="nonzero" opacity=".1">
            <path d="M43.44 124.179c.303.14.589.312.853.515-.118-.07-.242-.13-.363-.19a3.426 3.426 0 0 1-.856-.504l.366.179zM43.475 130.388c1.13.15 2.28-.093 3.251-.691.599-.363 1.15-.898 1.274-1.592.082-.427 0-.889.175-1.274.23-.513.812-.745 1.293-1.038.984-.605 1.662-1.592 2.184-2.633a2.21 2.21 0 0 0 .318-1.198c-.04-.363-.251-.688-.318-1.047-.102-.593.197-1.172.506-1.691.252-.511.573-.985.956-1.408.368-.336.71-.7 1.022-1.089.282-.29.464-.662.519-1.063a1.468 1.468 0 0 0-.443-.994 2.022 2.022 0 0 0-.184-.184c.257.121.487.295.675.51.268.263.425.62.439.996-.052.4-.233.772-.516 1.06a9.75 9.75 0 0 1-1.022 1.09 6.162 6.162 0 0 0-.955 1.41c-.319.516-.605 1.098-.503 1.69.063.36.27.685.318 1.048.012.422-.1.837-.318 1.198-.523 1.028-1.2 2.028-2.185 2.63-.48.293-1.063.525-1.293 1.041-.178.395-.095.857-.175 1.274-.13.688-.684 1.222-1.273 1.592a4.974 4.974 0 0 1-3.261.69 2.229 2.229 0 0 1-1.242-.534c.242.103.497.172.758.207z"/>
        </g>
        <path fill="#D3899B" fill-rule="nonzero" d="M59.352 183.616c-.048.678-.179 1.767-.179 1.767s-.547.067-1.388.144l-.573.047c-.44.036-.933.07-1.452.102-.956.051-2.019.083-3.016.06-.496 0-.98-.037-1.426-.082-.2-.019-.395-.041-.58-.07-1.14-.169-1.952-.494-2.028-1.067a3.254 3.254 0 0 1-.026-.729c.105-1.274 1.153-1.028 1.153-1.028-.067-.354.188-1.459.395-2.258.127-.503.239-.885.239-.885l7.368-.494h.032a.36.36 0 0 1 .36.38c-.042.884-.105 2.906.258 2.95.39.05.725.299.885.657.007.169 0 .338-.022.506zM53.095 173.917s-2.777 3.347-4.115 2.42l-.092-.067c-.901-.685-1.137-1.78-1.2-2.337a9.428 9.428 0 0 0-.109-.723 5.066 5.066 0 0 1 .242-2.44c.021-.066.046-.132.074-.197.93-.264 5.2 3.344 5.2 3.344z"/>
        <path fill="#EEC5CD" fill-rule="nonzero" d="M51.604 174.226s-.875.617-2.11 1.62c-.191.158-.393.3-.606.424-.901-.685-1.137-1.78-1.2-2.337a9.428 9.428 0 0 0-.109-.723 5.066 5.066 0 0 1 .242-2.44c1.73.122 3.783 3.456 3.783 3.456z"/>
        <path fill="#000" fill-rule="nonzero" d="M50.652 173.898s-.468.318-1.127.866a2.21 2.21 0 0 1-.318.223c-.37-.314-.6-.762-.637-1.245-.016-.13-.039-.258-.06-.386a2.69 2.69 0 0 1 .13-1.302c.914.064 2.012 1.844 2.012 1.844z" opacity=".1"/>
        <path fill="#D3899B" fill-rule="nonzero" d="M54.897 173.917s2.777 3.347 4.114 2.42l.092-.067a3.398 3.398 0 0 0 1.198-2.337c.028-.242.066-.481.111-.723a5.018 5.018 0 0 0-.245-2.44 2.618 2.618 0 0 0-.077-.197c-.923-.264-5.193 3.344-5.193 3.344z"/>
        <path fill="#EEC5CD" fill-rule="nonzero" d="M56.387 174.226s.876.617 2.111 1.62c.19.158.393.3.605.424a3.398 3.398 0 0 0 1.198-2.337c.028-.242.066-.481.111-.723a5.018 5.018 0 0 0-.245-2.44c-1.726.122-3.78 3.456-3.78 3.456z"/>
        <path fill="#000" fill-rule="nonzero" d="M57.346 173.895s.464.318 1.12.86c.1.083.207.159.319.225.37-.311.6-.759.637-1.241 0-.128.035-.255.06-.383.064-.436.02-.881-.13-1.296-.917.064-2.006 1.835-2.006 1.835zM57.84 179.123a6.576 6.576 0 0 1-1.068 1.357c-1.105.974-5.862.589-6.17.538-.068 0-.201-.204-.37-.516.127-.503.239-.885.239-.885l7.368-.494z" opacity=".1"/>
        <path fill="#D3899B" fill-rule="nonzero" d="M54.069 173.637c-.194 0-.389.019-.583 0-.993 0-4.34.028-4.713 1.378-.436 1.593 1.52 5.86 1.828 5.91.31.051 5.066.437 6.171-.54 1.105-.978 2.548-4.039 2.471-4.322 0 .016 1.373-2.888-5.174-2.426z"/>
        <path fill="#000" fill-rule="nonzero" d="M53.964 176.22a3.519 3.519 0 0 0-3.602 2.037 2.94 2.94 0 0 0 .217 2.961c.382.539.955.956 1.726.618 1.745-.72 1.659-5.617 1.659-5.617z" opacity=".1"/>
        <path fill="#000" fill-rule="nonzero" d="M53.887 176.066a3.519 3.519 0 0 0-3.601 2.035 2.936 2.936 0 0 0 .217 2.965c.382.538.955.936 1.722.614 1.736-.716 1.662-5.614 1.662-5.614z" opacity=".1"/>
        <path fill="#EEC5CD" fill-rule="nonzero" d="M53.887 176.143a3.519 3.519 0 0 0-3.601 2.034 2.936 2.936 0 0 0 .217 2.965c.382.538.955.955 1.722.615 1.736-.717 1.662-5.614 1.662-5.614z"/>
        <path fill="#3F2B3B" fill-rule="nonzero" d="M51.241 178.27s-.334.318-.203.385c.13.067.203-.385.203-.385zM51.604 178.649s-.184.4-.054.445c.13.045.207-.29.207-.29l-.153-.155zM50.795 179.257s-.178.474 0 .474c.179 0 0-.474 0-.474z"/>
        <path stroke="#3F2B3B" stroke-width=".531" d="M50.573 180.53c.209.519.715.855 1.273.848M51.41 180.798c.203.206.52.25.77.105"/>
        <path fill="#000" fill-rule="nonzero" d="M54.273 176.22a3.503 3.503 0 0 1 3.598 2.05 2.93 2.93 0 0 1-.217 2.961c-.382.538-.955.955-1.722.618-1.736-.732-1.66-5.63-1.66-5.63z" opacity=".1"/>
        <path fill="#000" fill-rule="nonzero" d="M54.35 176.066a3.522 3.522 0 0 1 3.6 2.035 2.952 2.952 0 0 1-.216 2.965c-.382.538-.955.936-1.726.614-1.735-.716-1.659-5.614-1.659-5.614z" opacity=".1"/>
        <path fill="#EEC5CD" fill-rule="nonzero" d="M54.35 176.143a3.522 3.522 0 0 1 3.6 2.034 2.952 2.952 0 0 1-.216 2.965c-.382.538-.955.955-1.726.615-1.735-.717-1.659-5.614-1.659-5.614z"/>
        <path fill="#3F2B3B" fill-rule="nonzero" d="M56.992 178.27s.319.318.207.385c-.111.067-.207-.385-.207-.385zM56.632 178.649s.182.4.051.445c-.13.045-.207-.29-.207-.29l.156-.155zM57.441 179.257s.178.474 0 .474 0-.474 0-.474z"/>
        <path stroke="#3F2B3B" stroke-width=".531" d="M57.66 180.53a1.35 1.35 0 0 1-1.289.848M56.827 180.798a.637.637 0 0 1-.774.105"/>
        <path fill="#3F2B3B" fill-rule="nonzero" d="M52.954 183.129a3.525 3.525 0 0 1 2.548 0h-2.548z"/>
        <path fill="#000" fill-rule="nonzero" d="M50.738 185.594c-1.14-.17-1.952-.494-2.028-1.067a3.254 3.254 0 0 1-.026-.73c.137-.073.284-.127.437-.159.207-.057.461-.019 1.003.134.54.153.503.793.617 1.621.01.067.01.134-.003.2z" opacity=".1"/>
        <path fill="#D3899B" fill-rule="nonzero" d="M49.044 183.705s-1.487.274-.681 1.554c.063.104.16.183.274.226.092.035.184.035.175-.102l.656.755s1.312.153 1.197-.675c-.115-.828-.08-1.468-.618-1.62-.538-.154-.796-.195-1.003-.138z"/>
        <path stroke="#3F2B3B" stroke-width=".531" d="M49.398 184.568s.318.72.751.115M48.675 184.852s.162.678.78.172"/>
        <path fill="#000" fill-rule="nonzero" d="M59.352 183.616c-.048.678-.179 1.767-.179 1.767s-.547.067-1.388.144a.73.73 0 0 1 0-.144c.118-.827.08-1.464.618-1.62.302-.118.625-.168.949-.147z" opacity=".1"/>
        <path fill="#D3899B" fill-rule="nonzero" d="M59.489 183.705s1.483.274.681 1.554a.548.548 0 0 1-.274.226c-.095.035-.188.035-.178-.102l-.656.755s-1.312.153-1.194-.675c.118-.828.076-1.468.618-1.62.54-.154.796-.195 1.003-.138z"/>
        <path stroke="#3F2B3B" stroke-width=".531" d="M59.145 184.568s-.319.72-.755.115M59.858 184.852s-.166.678-.783.172"/>
        <path fill="#000" fill-rule="nonzero" d="M52.744 185.737c-.496 0-.98-.038-1.426-.083l-.446-1.497a.955.955 0 1 1 1.872-.27c-.003.576.003 1.315 0 1.85z" opacity=".1"/>
        <path fill="#D3899B" fill-rule="nonzero" d="M50.795 184.157l.526 1.768s-.895-.02-.637.541c0 0 .223.21.318.134 0 0-.117.366.348.366 0 0 .5.27.694.076.194-.194.598-.48.637-.595.038-.115 0-1.554 0-2.57a.955.955 0 0 0-.956-.955.955.955 0 0 0-.93 1.235z"/>
        <path stroke="#3F2B3B" stroke-width=".531" d="M51.502 186.38s-.388.376-.181.586M51.334 186.148a.522.522 0 0 0-.36.452"/>
        <path fill="#000" fill-rule="nonzero" d="M57.674 183.887a.901.901 0 0 1-.042.27l-.42 1.417c-.44.036-.933.07-1.452.102v-1.799a.955.955 0 0 1 1.91 0l.004.01z" opacity=".1"/>
        <path fill="#D3899B" fill-rule="nonzero" d="M57.709 184.157l-.523 1.755s.892-.02.637.541c0 0-.223.21-.3.134 0 0 .115.366-.346.366 0 0-.5.27-.694.077-.195-.195-.599-.481-.637-.596-.038-.114-.02-1.554 0-2.57a.955.955 0 1 1 1.863.293z"/>
        <path stroke="#3F2B3B" stroke-width=".531" d="M57.002 186.38s.388.376.184.586M57.174 186.148c.2.064.341.242.36.452"/>
        <path fill="#000" fill-rule="nonzero" d="M53.887 175.757s-1.815-.057-1.872 1.35c-.057 1.408 2.837.813 2.837.813s1.213-.166 1.003-1.02c-.21-.853-.656-1.066-1.968-1.143z" opacity=".1"/>
        <path fill="#000" fill-rule="nonzero" d="M53.887 175.605s-1.815-.061-1.872 1.35c-.057 1.41 2.837.808 2.837.808s1.213-.162 1.003-1.015c-.21-.854-.656-1.067-1.968-1.143z" opacity=".1"/>
        <path fill="#3F2B3B" fill-rule="nonzero" d="M53.887 175.681s-1.815-.057-1.872 1.35c-.057 1.408 2.837.809 2.837.809s1.213-.163 1.003-1.016c-.21-.853-.656-1.067-1.968-1.143z"/>
        <path fill="#000" fill-rule="nonzero" d="M49.837 182.76s.608.22.732.636M58.48 182.45s-.437.185-.408.956" opacity=".1"/>
        <ellipse cx="49.837" cy="185.526" fill="#EEC5CD" fill-rule="nonzero" rx="1" ry="1" transform="rotate(-30 49.837 185.526)"/>
        <ellipse cx="58.719" cy="185.526" fill="#EEC5CD" fill-rule="nonzero" rx="1" ry="1" transform="rotate(-60 58.719 185.526)"/>
        <ellipse cx="15.587" cy="248.547" fill="#05A" fill-rule="nonzero" opacity=".1" rx="11.588" ry="1.987"/>
        <path fill="#05A" fill-rule="nonzero" d="M20.758 228.54s-16.138 8.336-7.801 18.15c0 0 .783 2.146 3.054 1.98 0 0-.453-.824 1.273-1.486a8.47 8.47 0 0 0 1.742-.927 4.105 4.105 0 0 0 1.56-2.086s3.302-4.416.742-12.587c0 0 .319-2.309.042-2.681l-1.962 2.687s2.029 1.363 2.261 3.36c0 0-2.111-3.353-2.57-2.974-.092.08-.974 1.47-.974 1.47s3.503 2.386 3.776 5.481c0 0-1.98-4.334-4.117-4.955l-1.207 2.185s3.821 2.337 4.27 5.85c0 0-2.229-4.459-4.502-5.357l-.898 2.306s3.7 2.353 4.04 5.28c0 0-3.094-4.892-4.209-4.74 0 0-.697 2.17-.605 2.835 0 0 2.618 1.748 2.662 3.464 0 0-2.414-3.047-2.786-2.846 0 0-.153 3.063.589 4.658 0 0-1.274-2.273-1.067-4.658 0 0-1.273 1.082-1.547 2.493 0 0-.698-1.688 1.592-3.235 0 0 .216-2.385.48-2.678 0 0-2.477 1.207-3.527 2.694 0 0 .385-2.23 3.744-3.312l.85-2.337s-3.356 1.423-4.394 2.678c0 0 .745-2.197 4.659-3.251l1.159-2.15s-2.987 1.003-4.44 2.15c0 0 1.128-1.889 4.796-2.755l.956-1.347s-2.169.774-2.77 1.054c-.602.28-.73.137-.73.137a7.84 7.84 0 0 1 3.885-1.764s2.124-2.64 1.974-2.786z"/>
        <ellipse cx="52.9" cy="233.004" fill="#05A" fill-rule="nonzero" opacity=".1" rx="8.658" ry="1.487"/>
        <path fill="#05A" fill-rule="nonzero" d="M56.76 218.073s-12.053 6.225-5.824 13.565c0 0 .582 1.592 2.28 1.478 0 0-.341-.615.955-1.108.46-.18.897-.413 1.302-.695a3.06 3.06 0 0 0 1.166-1.557s2.464-3.299.554-9.403c0 0 .245-1.726.032-2.003l-1.465 2.006s1.512 1.02 1.687 2.51c0 0-1.592-2.503-1.91-2.23-.07.058-.73 1.1-.73 1.1s2.628 1.78 2.822 4.09c0 0-1.478-3.234-3.076-3.7l-.901 1.631s2.866 1.748 3.184 4.372c0 0-1.662-3.33-3.363-4l-.671 1.723s2.764 1.755 3.018 3.942c0 0-2.312-3.655-3.146-3.537 0 0-.519 1.617-.449 2.114 0 0 1.952 1.306 1.987 2.589 0 0-1.802-2.277-2.08-2.127 0 0-.117 2.29.44 3.48 0 0-.955-1.7-.799-3.48a3.821 3.821 0 0 0-1.156 1.863s-.519-1.274 1.191-2.417c0 0 .162-1.78.36-2 0 0-1.85.901-2.637 2.012 0 0 .29-1.655 2.796-2.474l.637-1.748s-2.51 1.064-3.283 2c0 0 .557-1.64 3.48-2.427l.867-1.608s-2.23.752-3.318 1.608c0 0 .843-1.41 3.585-2.057l.704-1.006s-1.618.577-2.07.787c-.452.21-.541.105-.541.105a5.824 5.824 0 0 1 2.9-1.319s1.583-1.983 1.472-2.079z"/>
        <ellipse cx="5.133" cy="189.908" fill="#05A" fill-rule="nonzero" opacity=".1" rx="4.837" ry="1"/>
        <path fill="#05A" fill-rule="nonzero" d="M7.292 181.56s-6.738 3.48-3.258 7.578c.202.522.715.855 1.274.828 0 0-.188-.347.535-.637.257-.1.5-.23.726-.389.301-.212.525-.518.637-.869 0 0 1.379-1.844.318-5.254 0 0 .137-.955.02-1.118l-.819 1.121s.844.567.955 1.401c0 0-.882-1.398-1.073-1.239-.038.032-.407.612-.407.612s1.468.997 1.576 2.286c0 0-.825-1.808-1.716-2.066l-.503.91s1.592.978 1.78 2.443c0 0-.93-1.86-1.88-2.23l-.375.956s1.544.984 1.688 2.203c0 0-1.293-2.04-1.758-1.977a4.993 4.993 0 0 0-.252 1.185s1.093.729 1.112 1.445c0 0-1.006-1.273-1.162-1.188 0 0-.064 1.274.245 1.943a3.885 3.885 0 0 1-.446-1.943c-.308.278-.53.638-.637 1.039 0 0-.29-.704.666-1.35 0 0 .089-.994.2-1.118 0 0-1.035.506-1.474 1.124 0 0 .162-.924 1.563-1.382l.357-.975s-1.401.596-1.834 1.118c0 0 .318-.917 1.942-1.356l.484-.898a7.96 7.96 0 0 0-1.853.898s.471-.787 2.003-1.15l.395-.56s-.905.318-1.156.436c-.252.118-.319.06-.319.06a3.273 3.273 0 0 1 1.624-.738s.882-1.09.822-1.15zM286.98 19.438s-8.757-7.263 7.215-18.943c0 0 7.929 15.164-2.694 20.297 0 0 .2-7.487-.783-7.474-.984.013-3.739 6.12-3.739 6.12zM273.58 26.823s-15.46 1.43-11.298-25.252c0 0 22.29 7.006 16.97 22.201 0 0-7.025-7.422-7.962-6.46-.936.96 2.29 9.51 2.29 9.51zM200.141 60.945s-15.29 2.691-13.307-24.248c0 0 22.777 5.165 18.72 20.746 0 0-7.604-6.824-8.46-5.79-.857 1.035 3.047 9.292 3.047 9.292zM314.915 25.743s14.708 4.968 16.829-21.952c0 0-23.293 1.659-21.653 17.673 0 0 8.55-5.595 9.234-4.443.685 1.153-4.41 8.722-4.41 8.722zM237.32 33.624s-14.67-5.075.128-27.662c0 0 17.408 15.568 6.298 27.223 0 0-3.334-9.658-4.585-9.168-1.251.49-1.84 9.607-1.84 9.607zM290.546 25.743s-.866-8.257 13.428-6.206c0 0-3.598 11.957-11.757 9.218 0 0 3.92-3.805 3.401-4.298-.519-.494-5.072 1.286-5.072 1.286zM276.064 42.859s-.87-8.257 13.424-6.207c0 0-3.595 11.957-11.756 9.235 0 0 3.92-3.821 3.401-4.299-.52-.478-5.07 1.27-5.07 1.27zM306.352 46.492s-6.27-5.439 5.57-13.692c0 0 5.537 11.192-2.293 14.762 0 0 .267-5.455-.452-5.461-.72-.007-2.825 4.39-2.825 4.39zM281.066 93.25s7.757-2.958 9.448 11.38c0 0-12.48-.404-11.932-8.992 0 0 4.684 2.812 5.032 2.181.347-.63-2.548-4.57-2.548-4.57zM281.677 78.726s-6.27-5.438 5.573-13.692c0 0 5.537 11.193-2.296 14.765 0 0 .268-5.457-.449-5.464-.716-.006-2.828 4.391-2.828 4.391zM233.442 63.28s-7.524 3.502-10.228-10.684c0 0 12.48-.48 12.537 8.126 0 0-4.872-2.474-5.172-1.821-.299.653 2.863 4.378 2.863 4.378zM215.244 46.44s-7.528 3.504-10.228-10.682c0 0 12.48-.481 12.537 8.13 0 0-4.872-2.475-5.172-1.822-.299.653 2.863 4.375 2.863 4.375zM240.572 85.525s-8.28.318-5.277-13.817c0 0 11.683 4.404 8.397 12.358 0 0-3.528-4.171-4.06-3.687-.531.484.94 5.146.94 5.146zM239.104 95.549s1.474 8.167-12.932 7.18c0 0 2.704-12.192 11.043-10.062 0 0-3.63 4.082-3.072 4.538.557.455 4.96-1.656 4.96-1.656zM219.782 89.225s-3.143 7.683-14.766-.889c0 0 8.83-8.83 14.721-2.547 0 0-5.254 1.493-5.031 2.175.223.681 5.076 1.26 5.076 1.26zM285.164 59.114s-8.756-7.26 7.216-18.943c0 0 7.929 15.167-2.694 20.3 0 0 .2-7.486-.783-7.474-.984.013-3.739 6.117-3.739 6.117zM321.331 44.132s-6.4-9.406 12.186-16.198c0 0 3.41 16.772-8.218 18.755 0 0 2.267-7.136 1.318-7.397-.949-.26-5.286 4.84-5.286 4.84zM320.331 73.717s-8.756-7.26 7.216-18.943c0 0 7.929 15.164-2.694 20.297 0 0 .2-7.483-.783-7.47-.984.012-3.739 6.116-3.739 6.116zM304.693 87.865s3.478-10.826 20.265-.357c0 0-11.123 13.005-19.838 5.057 0 0 7.005-2.601 6.642-3.503-.363-.9-7.069-1.197-7.069-1.197zM327.127 79.994s3.477-10.827 20.264-.357c0 0-11.122 13.005-19.84 5.057 0 0 7.004-2.602 6.645-3.503-.36-.901-7.07-1.197-7.07-1.197z"/>
        <path fill="#05A" fill-rule="nonzero" d="M255.181 38.99s-11.199-2.003-3.06-20.039c0 0 14.374 9.289 7.661 18.988 0 0-3.502-6.61-4.365-6.114-.863.497-.236 7.165-.236 7.165zM228.548 43.183s-11.26 1.666-9.266-18.029c0 0 16.58 4.245 13.294 15.574 0 0-5.432-5.152-6.082-4.413-.65.739 2.054 6.868 2.054 6.868zM221.565 72.374s-11.257 1.655-9.263-18.033c0 0 16.58 4.245 13.294 15.574 0 0-5.432-5.152-6.082-4.413-.65.739 2.05 6.872 2.05 6.872zM209.65 81.239s-9.71 5.926-15.575-12.973c0 0 16.918-2.58 18.325 9.136 0 0-7.005-2.618-7.323-1.685-.319.933 4.572 5.522 4.572 5.522zM300.863 72.17s-8.76-7.263 7.212-18.943c0 0 7.929 15.163-2.69 20.296 0 0 .197-7.486-.787-7.473-.984.012-3.735 6.12-3.735 6.12z"/>
        <path fill="#B77B7F" fill-rule="nonzero" d="M238.738 180.021s20.857-.879 23.054-41.714c2.197-40.835-19.542-47.764-19.542-47.764s-6.888-3.847-9.941-4.006c-3.054-.159-13.26.803-13.26.803l11.253-2.169s-15.832-6.028-20.573-6.512l17.115 3.618s.242-9.483-3.856-12.616c0 0 3.503-.261 5.356 6.569a13.056 13.056 0 0 0 7.814 8.77c6.35 2.477 15.126 6.384 17.125 9.734 0 0 3.697 3.856 3.137-6.187-.56-10.044-3.216-18.648-4.181-18.89 0 0-7.553-8.033-18.15-8.514 0 0 6.187-2.494 16.634 5.302 0 0 .882-3.936-3.054-8.598-3.935-4.662-10.046-14.466-16.717-15.51 0 0 9.324-.564 16.717 11.491 0 0 2.733 1.768 2.975-2.732.242-4.499 1.846-10.126 1.846-10.126s2.252 10.368-2.49 15.027c0 0 9.079 11.814 8.677 25.076 0 0 2.815 6.025 3.86-1.048 0 0 .605-9.737 1.812-18a24.455 24.455 0 0 0-5.13-18.87c-2.01-2.5-3.407-4.93-2.63-6.203l10.527 12.536s8.84-20.49 15.284-24.91c6.445-4.42 7.235-5.385 7.235-5.385l-10.368 12.135 13.02-4.582-13.058 6.034s-6.028 4.901-9.483 18.323c-3.455 13.421-3.777 21.767-3.777 21.767s18.565-14.705 22.1-14.224l-12.015 9.098a28.63 28.63 0 0 0-11.291 20.889s23.226-5.949 28.852-7.073l10.607-10.849-8.037 10.286 16.558-.24 9.483-6.75s-7.473 6.267-6.75 6.668c.722.401 11.654.885 11.654.885s-27.808-.162-30.862 1.847c-3.054 2.01-9.871 2.732-9.871 2.732l19.688 2.974-23.465-1.687s-17.771 3.216-18.727 8.76c0 0 3.618 9.438 6.028 13.18 2 3.11 6.025 13.179 6.83 22.019.806 8.84 1.911 22.42-1.127 30.7-3.038 8.278-4.178 13.016-2.65 15.51 1.53 2.493 2.972 5.706-2.008 6.346-4.98.64-26.844-.318-26.844-.318s-6.684 1.315-5.384-3.602z"/>
        <path fill="#000" fill-rule="nonzero" d="M250.408 175.636a10.508 10.508 0 0 1 7.079-.869c4.095.885 10.361.414 10.934.319M263.498 127.512s.997 15.708-.773 18.807l.773-18.807zM267.173 146.319s-1.274 14.714-2.159 17.59c-.885 2.875 2.16-17.59 2.16-17.59zM268.421 110.145c.901.319 4.777 8.187 4 10.509-.777 2.32-4-10.509-4-10.509zM258.601 101.99c.42.192 2.229 4.716 1.863 6.05-.366 1.335-1.863-6.05-1.863-6.05zM275.357 128.372c-.446 4.56-.688 7.547-.405 11.2.24 2.836.2 5.689-.12 8.517M226.886 75.255c.507.663.773 1.478.754 2.312.026.828-.08 1.656-.025 2.48.054.825.468 1.889 1.33 2.007M241.724 48.059a21.172 21.172 0 0 1 2.91 3.61c.243.414.519.807.826 1.176.496.475 1.028.911 1.592 1.305a7.518 7.518 0 0 1 2.547 3.987M283.735 24.578a5.21 5.21 0 0 1-1.032 1.379c-.363.347-.78.636-1.108 1.018-.264.331-.502.681-.714 1.048a28.496 28.496 0 0 1-2.977 3.77M264.279 47.826c.694.433.875 1.36.86 2.175-.017.815-.157 1.665.149 2.423.137.347.36.637.506.994.21.606.29 1.249.236 1.888 0 .739-.021 1.482-.064 2.229-.038.888-.124 1.856-.729 2.51" opacity=".1"/>
        <path d="M270.103 70.88a9.416 9.416 0 0 0-1.806 1.242 3.226 3.226 0 0 0-1.047 1.879c-.039.318-.02.637-.086.933a3.006 3.006 0 0 1-.618 1.13 15.87 15.87 0 0 1-1.522 1.685"/>
        <path fill="#000" fill-rule="nonzero" d="M264.849 91.865a11.17 11.17 0 0 1 1.452-1.013c.467-.284.97-.505 1.496-.656.8-.213 1.643-.181 2.468-.267.825-.086 1.688-.319 2.251-.924M297.529 81.71c-.978.029-1.994.064-2.866.51-.443.229-.828.557-1.274.799a3.853 3.853 0 0 1-1.843.48M283.973 85.744a.545.545 0 0 1 .7.166c.176.197.272.459.453.653.357.388.955.43 1.465.449M278.382 64.977l-.956.49a16.606 16.606 0 0 0-2.77 1.69M267.644 74.163c-.617-.146-1.15.513-1.273 1.137-.125.624.019 1.274-.16 1.895a3.503 3.503 0 0 1-.926 1.388M257.206 75.31c-.563 1.678.637 3.502.28 5.244-.105.529-.35 1.022-.474 1.544-.318 1.382.233 2.85 1.137 3.946" opacity=".1"/>
        <path fill="url(#b)" fill-rule="nonzero" d="M151.288 232.72c-.917.138-1.818.36-2.694.663a1.124 1.124 0 0 1-.172.102 3.321 3.321 0 0 1-2.108.153s-2.866.363-4.5-.933a27.909 27.909 0 0 1-1.782-1.573 1.07 1.07 0 0 0-1.37-.092 6.17 6.17 0 0 1-.283-.204c-.707-.526-1.933-1.592-2.423-2.997-.172-.49-.38-.97-.596-1.445-.296-.637-.637-1.481-.592-1.94.048-.665-1.927-6.48-3.114-9.234a10.827 10.827 0 0 1-.908-3.834c-.033-.348-.01-.7.067-1.041.239-.557.357-3.315-.535-4.515l-2.379-6.592-3.407-10.218-.102-.319c-.294-.397-.569-.81-.821-1.235a11.218 11.218 0 0 1-.955-1.99 8.775 8.775 0 0 1-.128-.411c1.306-.414.296-4.159.296-4.159s-.637-1.057-.49-4.14a43.487 43.487 0 0 0-.258-7.11 34.82 34.82 0 0 1-.102-1.054c2.866 1.344 10.359 4.812 11.078 4.812.892 0 3.213 1.468 3.213 1.468s4.697 2.754 8.801.879c4.105-1.876-3.273-4.34-5.295-3.987-2.022.353-6.244-2.23-6.244-2.23l-7.671-4.569-3.185-1.91c1.21-2.732 2.245-7.604-.085-11.05l-.892-.955c.485-2.58.698-5.205.637-7.83 0-2.385-.124-4.776-.099-7.155a6.974 6.974 0 0 0 2.825-7.556 4.19 4.19 0 0 0 1.082-.981c.99-1.41.885-3.407-.07-4.818a3.945 3.945 0 0 0-1.356-1.493 8.973 8.973 0 0 0-1.803-.8c.211.094.417.2.615.319.057.038.108.083.165.12-.636-.254-1.315-.454-1.936-.757a8.19 8.19 0 0 1-.792-.43c.299.124.605.236.91.344l-.111-.048c-1.064-.519-1.955-1.328-2.997-1.888a7.005 7.005 0 0 0-1.353-.548l.162.08c.195.102.38.216.564.318-2.458-1.019-5.442-.636-7.684.831-2.436 1.593-4.009 4.274-4.547 7.098-.37 1.936-.299 3.968-1.012 5.808-1.443 3.723-5.732 5.805-7.162 9.534-.637 1.685-.637 3.535-.69 5.337a59.492 59.492 0 0 1-5.376 22.716c-.417.911-.923 1.876-1.687 2.494l-.242.016a2.837 2.837 0 0 1-.621.318l.26.051a3.201 3.201 0 0 1-.26.108c.184.042.372.07.557.096-.104.052-.21.099-.319.14 2.143.462 4.43-.105 6.308-1.23 1.88-1.123 3.382-2.763 4.66-4.524.101-.14.197-.283.295-.424-.032.1-.06.185-.089.255-.236.586-1.13 9.964-1.13 10.607 0 .643-.179 6.448-.475 7.152-.296.704-3.754 9.607.831 8.553 2.91-.672 3.44-3.503 3.442-5.468l.223-.073c.392-.127.85-.264 1.338-.398v.78c-.172.634-.294 1.28-.366 1.933 0 .704-.475 2.23-.475 2.23l-.025.053c-.233.526-2.112 4.847-2.143 8.034l-1.758 4.633-1.91 3.34s-5.414 6.506-6.37 12.836l-3.228 9.521s-.73-.9-.847-.55c-.118.35-.357 2.168-.656 2.229-.3.06-.414 1.35-.414 1.35s-1.608 1.932-1.786 3.104c0 .039 0 .077-.016.115a6.244 6.244 0 0 0-.06 1.063v.462l.028.15s.06.879 2.321 1.407c2.261.529 4.637.819 5.827 1.465 1.191.646 4.519 1.185 4.519 1.185l4.458-.236a1.65 1.65 0 0 0 1.086-2.83l-.045-.042-3.076-.809-.251-.07s-1.685.236-2.182-.936a4.238 4.238 0 0 1-2.101-3.987s.356-3.633-.535-3.283a3.454 3.454 0 0 0-.293.134c0-.099 0-.2.025-.319v-.098c0-.083.026-.17.042-.255v-.099c.022-.108.05-.22.082-.318a.076.076 0 0 1 0-.026c.036-.12.077-.245.121-.37 0-.03.03-.063.042-.098a3.48 3.48 0 0 1 .12-.277c.02-.041.042-.083.061-.127.02-.045.096-.179.15-.268.022-.038.045-.08.07-.117.08-.132.166-.26.258-.383 1.665-2.229 4.458-7.387 4.458-7.387l2.614-5.273s1.43-3.05 2.678-3.637c1.249-.586 3.331-2.811 4.044-4.63l5.286-11.781c.103.228.166.473.185.722 0 0 2.764 7.034 4.19 8.21 0 0 1.8 2.375 2.347 3.579.16.343.319.681.513 1.009.273.41.454.874.532 1.36 0 .637 1.073 2.43 1.073 2.43v2.375s.175 5.948 4.219 10.667l2.05 3.433 3.809 5.776.143.213a2.474 2.474 0 0 1-.595-.165l1.19 2.579c.16.46.286.93.376 1.407 0 .271.972 2.717.972 2.717v.41c0 .026 0 .06.019.096l.019.076c0 .035.019.067.032.102l.028.086c0 .032.029.067.045.099.012.03.026.06.041.09.02.034.042.066.064.101s.029.05.048.076c.038.052.08.101.124.147l.045.041.054.051.063.048.051.038c.06.04.122.078.185.112l.057.025c.057.027.115.05.175.067l.077.025c.083.023.169.042.261.058h.067c.08 0 .162 0 .251.019h.105c.121.006.243.006.364 0 0 0 5.174-1.72 5.967-1.91.793-.192 4.837-1.895 4.837-1.895s4.56-2.548 4.458-4.26c-.102-1.714-.567-2.131-1.621-2.045z"/>
        <path fill="#864D6C" fill-rule="nonzero" d="M119.047 129.907a6.184 6.184 0 0 0-.442 1.274c-.109.589-.042 1.207-.214 1.777-.251.83-.955 1.43-1.512 2.088a7.467 7.467 0 0 0-1.77 4.933c.015 1.041.25 2.086.114 3.117-.112.812-.45 1.573-.637 2.37a10.05 10.05 0 0 0-.213 2.292 22.23 22.23 0 0 0 1.404 7.712.697.697 0 0 0 .2.319.745.745 0 0 0 .364.12l2.286.32a.974.974 0 0 0 .637-.052.955.955 0 0 0 .337-.455c1.682-3.72 1.968-7.907 1.946-11.989-.022-4.082-.319-8.187.251-12.224.185-1.274.459-2.548.545-3.821.054-.831-.29-2.736-1.474-1.755-.905.77-1.363 2.907-1.822 3.974z"/>
        <path fill="#000" fill-rule="nonzero" d="M121.757 125.758c.036.234.047.47.035.707-.086 1.29-.36 2.547-.544 3.821-.586 4.038-.278 8.142-.252 12.224.025 4.083-.264 8.28-1.946 11.986a.955.955 0 0 1-.337.455.974.974 0 0 1-.637.054l-2.29-.318a.723.723 0 0 1-.363-.118l-.035-.038c.096.293.195.583.303.873a.751.751 0 0 0 .2.318.723.723 0 0 0 .364.118l2.29.318a.978.978 0 0 0 .636-.05.955.955 0 0 0 .318-.46c1.682-3.715 1.971-7.906 1.946-11.985-.026-4.079-.318-8.187.251-12.224.188-1.274.459-2.548.545-3.821.05-.516-.076-1.484-.484-1.86z" opacity=".1"/>
        <path fill="#FFC2C8" fill-rule="nonzero" d="M117.847 148.02c.4.74.838 1.461 1.312 2.158l-6.608-2.72s-6.451-4.74-4.974-4.973c.348-.057.847-.637 1.405-1.471a50.343 50.343 0 0 0 2.91-5.385c.793-1.646 1.36-2.939 1.36-2.939l5.907 2.723a30.085 30.085 0 0 0-1.63 2.961 17.896 17.896 0 0 0-1.322 3.566c-.411 1.768.672 4.29 1.64 6.08zM104.778 186.202s-.815 3.031-.815 3.732c0 .7-.468 2.229-.468 2.229s-2.092 4.665-2.124 8.043l-1.722 4.608-1.866 3.321s-5.305 6.474-6.238 12.769l-3.615 10.715 6.528.408a4.983 4.983 0 0 1 .758-4.49c1.634-2.23 4.375-7.346 4.375-7.346l2.564-5.245s1.4-3.031 2.623-3.617c1.223-.586 3.264-2.796 3.965-4.605l6.53-14.762 3.1-7.451-13.595 1.69z"/>
        <path fill="#000" fill-rule="nonzero" d="M118.372 184.51l-3.098 7.452-6.531 14.75c-.7 1.808-2.739 4.021-3.965 4.604-1.225.583-2.623 3.617-2.623 3.617l-2.57 5.258s-2.742 5.133-4.375 7.346a5.002 5.002 0 0 0-.956 2.515 4.776 4.776 0 0 0 .21 1.975l-6.527-.408.471-1.395 3.143-9.333c.933-6.295 6.238-12.769 6.238-12.769l1.866-3.32 1.723-4.609c.031-3.378 2.124-8.043 2.124-8.043s.468-1.516.468-2.229c0-.713.815-3.732.815-3.732l13.587-1.678z" opacity=".03"/>
        <path fill="#000" fill-rule="nonzero" d="M94.458 232.027l-6.528-.408.472-1.395c.535.866 4.308.927 4.308.927a7.754 7.754 0 0 1 1.538-1.099 4.776 4.776 0 0 0 .21 1.975z" opacity=".1"/>
        <path fill="#FF8AA1" fill-rule="nonzero" d="M101.495 242.05l-4.378.236s-3.229-.522-4.394-1.165c-1.166-.643-3.503-.933-5.713-1.455-2.21-.523-2.273-1.401-2.273-1.401a4.72 4.72 0 0 1-.016-1.694c0-.039 0-.077.016-.112.175-1.168 1.748-3.092 1.748-3.092s.118-1.273.407-1.34c.29-.067.526-1.866.637-2.23.112-.362.831.552.831.552.319.955 4.356 1.025 4.356 1.025a7.158 7.158 0 0 1 1.81-1.226c.872-.35.525 3.264.525 3.264a4.222 4.222 0 0 0 2.06 3.964c.487 1.169 2.136.933 2.136.933l.246.07 3.018.806c.016.012.03.026.042.041a1.64 1.64 0 0 1-1.058 2.825z"/>
        <path fill="#E8F5FF" fill-rule="nonzero" d="M101.495 242.05l-4.378.236s-3.229-.522-4.394-1.165c-1.166-.643-3.503-.933-5.713-1.455-2.21-.523-2.273-1.401-2.273-1.401s-.016-.064-.035-.185c-.02-.121-.023-.166-.032-.277a6.05 6.05 0 0 1 .05-1.232l4.739 1.636s3.503 1.166 4.837 1.398c0 0 4.725.35 5.19.35.34 0 .319-.84 0-1.563l3.019.806a1.64 1.64 0 0 1-1.01 2.853z"/>
        <circle cx="91.296" cy="237.784" r="1" fill="#E8F5FF" fill-rule="nonzero"/>
        <circle cx="92.49" cy="232.434" r="1" fill="#E8F5FF" fill-rule="nonzero"/>
        <circle cx="92.987" cy="233.835" r="1" fill="#E8F5FF" fill-rule="nonzero"/>
        <circle cx="93.621" cy="235.176" r="1" fill="#E8F5FF" fill-rule="nonzero"/>
        <circle cx="94.481" cy="236.415" r="1" fill="#E8F5FF" fill-rule="nonzero"/>
        <circle cx="95.445" cy="237.389" r="1" fill="#E8F5FF" fill-rule="nonzero"/>
        <circle cx="96.595" cy="238.338" r="1" fill="#E8F5FF" fill-rule="nonzero"/>
        <circle cx="97.951" cy="239.067" r="1" fill="#E8F5FF" fill-rule="nonzero"/>
        <circle cx="92.71" cy="238.207" r="1" fill="#E8F5FF" fill-rule="nonzero"/>
        <path fill="#FF8AA1" fill-rule="nonzero" d="M97.143 241.544h-.045c-1.353 0-3.614-.69-4.155-.913-.481-.198-3.465-.918-3.503-.927-.038-.01-2.274-.688-3.006-.888a12.852 12.852 0 0 1-1.755-.736c0-.073-.022-.166-.032-.277.596.307 1.213.57 1.847.786.736.204 2.98.882 3.006.892.115.025 3.022.732 3.522.936.5.204 2.774.901 4.08.901h.037l.004.226z"/>
        <path fill="#000" fill-rule="nonzero" d="M112.825 184.352l-.05.226-.743 3.366-.49 2.222-3.751-1.117-3.471-1.039v-2.506z" opacity=".1"/>
        <path fill="#E8F4FF" fill-rule="nonzero" d="M112.825 184.12l-.05.225-.743 3.366-.49 2.223-3.751-1.118-3.471-1.038v-2.51z"/>
        <path fill="#000" fill-rule="nonzero" d="M112.825 184.12l-.05.225-.743 3.366-.49 2.223-3.751-1.118-3.471-1.038v-2.51z" opacity=".03"/>
        <path fill="#000" fill-rule="nonzero" d="M119.159 135.406a30.084 30.084 0 0 0-1.63 2.962h-.08a6.967 6.967 0 0 1-5.557-2.748c.793-1.647 1.36-2.94 1.36-2.94l5.907 2.726z" opacity=".1"/>
        <circle cx="117.449" cy="130.907" r="6.996" fill="#FFC2C8" fill-rule="nonzero"/>
        <path fill="#FFC2C8" fill-rule="nonzero" d="M120.11 162.415l4.898 2.974 7.521 4.548s4.14 2.566 6.12 2.229c1.981-.338 9.213 2.098 5.19 3.964-4.02 1.866-8.628-.876-8.628-.876s-2.274-1.455-3.147-1.455c-.872 0-11.953-5.308-11.953-5.308v-6.076zM137.834 231.269v3.184l-4.722.955-.681-1.06-3.69-5.732-2.013-3.41c-3.965-4.694-4.14-10.61-4.14-10.61v-2.363s-1.05-1.777-1.05-2.42a3.433 3.433 0 0 0-.523-1.35 10.898 10.898 0 0 1-.5-1.003c-.538-1.197-2.302-3.563-2.302-3.563-1.401-1.166-4.111-8.161-4.111-8.161-.032-.85-.927-2.077-1.684-2.968-.567-.666-1.054-1.143-1.054-1.143l9.18-2.885 3.063.26.099.303 3.34 10.164 2.331 6.557c.876 1.194.758 3.939.525 4.49-.075.34-.097.69-.063 1.038.058 1.325.36 2.627.888 3.843 1.166 2.723 3.098 8.509 3.054 9.17-.035.456.29 1.275.58 1.927.213.472.413.956.582 1.44.48 1.391 1.685 2.458 2.379 2.98.309.217.512.357.512.357z"/>
        <path fill="#000" fill-rule="nonzero" d="M123.709 189.303a8.13 8.13 0 0 1-3.363.863c-1.273 0-5.524 1.634-7.925 2.602-.567-.666-1.054-1.143-1.054-1.143l9.18-2.885 3.063.26.099.303z" opacity=".1"/>
        <path fill="#E8F4FF" fill-rule="nonzero" d="M123.61 189a8.28 8.28 0 0 1-3.502.934c-1.806 0-9.62 3.292-9.62 3.292l-.955-1.544-1.758-2.866-.987-1.618-.86-1.404s3.277-.793 6.83-1.449c4.22-.783 8.827-1.375 8.795-.226.002.572.105 1.139.303 1.675.245.688.558 1.35.933 1.978.252.424.526.834.821 1.229z"/>
        <path fill="#FFF" fill-rule="nonzero" d="M123.61 189a8.28 8.28 0 0 1-3.502.934c-1.806 0-9.62 3.292-9.62 3.292l-.955-1.544 9.046-4.14c1.399.147 2.804.224 4.21.23.252.424.526.834.821 1.229z" opacity=".5"/>
        <path fill="#000" fill-rule="nonzero" d="M137.834 231.269v3.184l-4.722.955-.681-1.06a7.49 7.49 0 0 0 1.07.09c1.273.018 2.916-1.634 2.916-1.634.249-.128.42-.663.535-1.274.045-.245.178-.466.373-.621.306.22.51.36.51.36z" opacity=".1"/>
        <path fill="#FF8AA1" fill-rule="nonzero" d="M151.613 234.826c.098 1.71-4.372 4.238-4.372 4.238s-3.965 1.707-4.742 1.882c-.777.175-5.85 1.885-5.85 1.885-2.311.232-2.177-1.767-2.177-1.767s-.955-2.43-.955-2.7a9.919 9.919 0 0 0-.367-1.402l-1.168-2.563s.487.251 1.751.27c1.264.02 2.917-1.63 2.917-1.63.248-.127.42-.662.538-1.273a1.048 1.048 0 0 1 1.755-.56c.531.512 1.146 1.079 1.748 1.566 1.592 1.29 4.413.926 4.413.926a3.21 3.21 0 0 0 2.063-.152.974.974 0 0 0 .17-.102c.858-.3 1.743-.52 2.642-.66 1.032-.098 1.538.332 1.634 2.042z"/>
        <path fill="#E8F5FF" fill-rule="nonzero" d="M151.613 234.826c.098 1.71-4.372 4.238-4.372 4.238s-3.965 1.707-4.742 1.882c-.777.175-5.85 1.885-5.85 1.885-.795.08-1.302-.105-1.623-.382a1.321 1.321 0 0 1-.233-.252 1.949 1.949 0 0 1-.318-1.133 15.765 15.765 0 0 0 2.547-.507s6.745-1.866 7.643-2.582c0 0 3.248-1.459 3.42-2.16 0 0-.956-1.407-.927-2.27a.974.974 0 0 0 .169-.101c.859-.3 1.743-.52 2.643-.66 1.04-.098 1.547.332 1.643 2.042z"/>
        <path fill="#FF8AA1" fill-rule="nonzero" d="M146.887 238.586c-.611.819-4 1.796-4.404 1.873-.404.076-2.897.9-2.92.91l-2.432.739c-.563.25-1.175.37-1.79.347h-.318a1.321 1.321 0 0 1-.233-.251c.557.044 1.557.054 2.248-.319l2.449-.748c.102-.035 2.547-.838 2.949-.917.516-.099 3.732-1.073 4.263-1.783l.188.15z"/>
        <path fill="#000" fill-rule="nonzero" d="M121.875 185.794a.522.522 0 0 1-.128.06c-1.273.408-6.05.523-6.05.523a19.743 19.743 0 0 1-3.649 1.331c-1.146.27-2.27.334-2.866-.166-.48-.391-1.36-.452-2.347-.344-.838.102-1.668.27-2.48.504v-2.427l8.502-1.15-.051.227c4.22-.784 8.827-1.376 8.795-.226a4.894 4.894 0 0 0 .274 1.668zM119.159 150.172l-6.608-2.72s-6.451-4.741-4.974-4.973c.348-.058.847-.637 1.405-1.472a9.84 9.84 0 0 1 4.614 2.927c1.312 1.461 3.502 3.426 4.254 4.079.4.741.836 1.462 1.309 2.159z" opacity=".1"/>
        <path fill="#FFE577" fill-rule="nonzero" d="M122.034 181.247s.994 3.732-.29 4.14c-1.283.407-6.05.525-6.05.525s-4.964 2.449-6.556 1.165c-1.115-.907-4.347-.035-6.14.555-.741.242-1.235.436-1.235.436s-1.312-6.47.786-10.19c2.099-3.72-.636-12.766-.757-13.641-.032-.242-.035-1.105-.02-2.248.051-2.984.265-7.866.602-8.537.36-.81.654-1.648.876-2.506 0 0 .293-2.335.758-2.685.465-.35.637-1.455.637-1.455s.586-2.449 1.168-3.092c.583-.643.816-2.624.816-2.624a4.092 4.092 0 0 1 2.018.08 9.763 9.763 0 0 1 4.949 3c1.592 1.773 4.505 4.295 4.505 4.295l3.704 4.04c2.448 3.672 1.108 8.977-.175 11.544-.637 1.305-.564 3.82-.319 5.996.272 2.348.356 4.714.252 7.075-.156 3.076.471 4.127.471 4.127z"/>
        <path fill="#000" fill-rule="nonzero" d="M111.774 150.933l-.637 3.82v.02s-4.2 9.094-4.897 10.215c-.697 1.121-1.401 3.952-1.401 3.952s-.232 5.072-.697 6.05c-.465.978-.994 7.114-.994 7.114l-.29 4.079c.086.472.138.95.156 1.43-.742.241-1.235.436-1.235.436s-1.312-6.47.786-10.19c2.099-3.72-.636-12.766-.757-13.641-.032-.242-.035-1.105-.02-2.249l.838-3.184 1.048-5.247.398-.723 1.35-2.484 4.49-1.455 1.862 2.057z" opacity=".1"/>
        <path fill="#FFC2C8" fill-rule="nonzero" d="M111.542 150.465l-.637 3.82s-4.197 9.098-4.894 10.216c-.698 1.118-1.401 3.952-1.401 3.952s-.233 5.072-.7 6.05c-.469.977-.991 7.11-.991 7.11l-.29 4.082s1.274 6.369-3.206 7.404c-4.48 1.035-1.112-7.77-.825-8.46.286-.692.468-6.471.468-7.114 0-.644.872-9.967 1.108-10.553.24-.8.434-1.614.583-2.436l1.63-6.19 1.05-5.248.396-.726 1.353-2.48 4.49-1.459 1.866 2.032z"/>
        <path fill="#000" fill-rule="nonzero" d="M111.542 150.465l-.637 3.82c-.118-6.584-7.464-.741-7.464-.741s.16-.471.395-1.191l1.353-2.48 4.49-1.459 1.863 2.05z" opacity=".1"/>
        <path fill="#FFE577" fill-rule="nonzero" d="M109.268 142.536s-3.149 1.398-3.614 3.382c-.465 1.983-2.229 7.17-2.229 7.17s7.697-6.12 7.46 1.223a4.184 4.184 0 0 0 .994-2.547c.115-1.691 1.749-5.305.38-6.82a12.629 12.629 0 0 0-2.99-2.408z"/>
        <path fill="#000" fill-rule="nonzero" d="M125.279 128.156c1.274-1.834.71-4.675-1.166-5.888-.885-.573-1.952-.79-2.897-1.258-1.045-.512-1.91-1.318-2.94-1.875-2.512-1.37-5.76-1.038-8.148.535s-3.93 4.25-4.458 7.06c-.36 1.91-.29 3.948-.99 5.775-1.414 3.704-5.62 5.777-7.022 9.483-.636 1.675-.62 3.503-.678 5.308a59.94 59.94 0 0 1-5.26 22.593c-.548 1.213-1.252 2.512-2.503 2.964 2.105.462 4.343-.102 6.184-1.22 1.84-1.117 3.318-2.747 4.57-4.499a28.837 28.837 0 0 0 5.295-18.093c-.074-1.423-.214-2.987.637-4.14.85-1.152 2.343-1.464 3.48-2.276 2.732-1.955 2.672-5.926 3.678-9.132a3.617 3.617 0 0 1 .83-1.542c3.02-2.913 8.85-.465 11.388-3.795z" opacity=".1"/>
        <path fill="#864D6C" fill-rule="nonzero" d="M125.06 127.923c1.273-1.834.706-4.674-1.166-5.887-.886-.574-1.952-.793-2.901-1.258-1.041-.516-1.91-1.322-2.936-1.876-2.513-1.369-5.76-1.038-8.149.535-2.388 1.573-3.93 4.248-4.458 7.06-.363 1.91-.293 3.945-.99 5.776-1.414 3.7-5.62 5.773-7.005 9.483-.637 1.675-.637 3.502-.682 5.305a59.883 59.883 0 0 1-5.26 22.608c-.548 1.213-1.248 2.512-2.5 2.965 2.102.461 4.343-.102 6.184-1.22 1.84-1.118 3.318-2.748 4.57-4.5a28.862 28.862 0 0 0 5.295-18.092c-.073-1.424-.213-2.99.637-4.14.85-1.15 2.343-1.465 3.48-2.277 2.732-1.955 2.672-5.929 3.678-9.132a3.576 3.576 0 0 1 .828-1.541c2.993-2.927 8.827-.478 11.374-3.809z"/>
        <circle cx="137.213" cy="234.182" r="1" fill="#E8F5FF" fill-rule="nonzero"/>
        <circle cx="138.535" cy="234.982" r="1" fill="#E8F5FF" fill-rule="nonzero"/>
        <circle cx="139.955" cy="235.536" r="1" fill="#E8F5FF" fill-rule="nonzero"/>
        <circle cx="141.452" cy="235.81" r="1" fill="#E8F5FF" fill-rule="nonzero"/>
        <circle cx="142.929" cy="235.985" r="1" fill="#E8F5FF" fill-rule="nonzero"/>
        <circle cx="144.464" cy="235.985" r="1" fill="#E8F5FF" fill-rule="nonzero"/>
        <circle cx="146.018" cy="235.81" r="1" fill="#E8F5FF" fill-rule="nonzero"/>
        <g fill="#000" fill-rule="nonzero" opacity=".1">
            <path d="M116.876 118.278c1.022.557 1.91 1.363 2.939 1.876.414.196.84.368 1.273.515l-.111-.047c-1.041-.516-1.91-1.322-2.936-1.879a6.974 6.974 0 0 0-1.328-.545l.163.08zM123.88 121.88a8.747 8.747 0 0 0-1.766-.797c.207.094.408.2.601.319 1.873 1.213 2.436 4.053 1.166 5.888-2.548 3.33-8.372.882-11.39 3.802-.4.437-.684.966-.828 1.54-1.006 3.207-.955 7.178-3.678 9.133-1.137.812-2.65 1.153-3.484 2.277-.834 1.124-.706 2.71-.636 4.14a28.86 28.86 0 0 1-5.296 18.093c-1.254 1.751-2.732 3.381-4.57 4.499a9.257 9.257 0 0 1-4.41 1.376 2.742 2.742 0 0 1-.608.318c2.102.462 4.344-.105 6.184-1.223 1.84-1.117 3.318-2.748 4.57-4.5a28.85 28.85 0 0 0 5.298-18.089c-.073-1.423-.213-2.99.637-4.14.85-1.149 2.344-1.461 3.48-2.276 2.733-1.952 2.672-5.926 3.678-9.13a3.56 3.56 0 0 1 .828-1.54c3.022-2.924 8.852-.475 11.39-3.806 1.287-1.834.707-4.674-1.165-5.884z"/>
        </g>
        <path fill="#000" fill-rule="nonzero" d="M115.392 181.11s4.64-.477 5.556-.388c.917.089-5.556.388-5.556.388zM116.58 182.279s2.811-.389 3.9 0c1.09.388-3.9 0-3.9 0zM116.984 183.476s3.442.318 4.053.14M114.777 159.967s3.503 1.557 3.821 2.448c.319.892 2.43 1.44 2.43 1.44" opacity=".1"/>
        <path fill="#05A" fill-rule="nonzero" d="M112.112 127.914s-1.621-2.076-2.36-2.127c0 0 .163.557-.08.86a4.776 4.776 0 0 1-.83.955c-.335.223-.465.417-.242.808.222.392.496.975 1.022.854.525-.121 1.974-.955 2.257-.975.284-.019-1.56-.878-1.834-.85 0 0 .812-.223 1.955.66l.112-.185zM110.886 125.876a1.382 1.382 0 0 1 .458-1.038.557.557 0 0 1 .475-.185c.317.092.613.247.87.455 0 0 1.021.558 1.528.02v.2c0 .247-.052.491-.153.717-.274.608-.847 1.82-1.13 2.009l-.255-.112s.344-1.732 0-2.155l-.128 2.127h-.146l-1.338-1.545a.723.723 0 0 1-.181-.493zM114.66 126.293a1.379 1.379 0 0 1 1.098.188.59.59 0 0 1 .318.433 2.503 2.503 0 0 1-.242.955s-.302 1.124.338 1.49l-.194.048a1.723 1.723 0 0 1-.733 0c-.656-.124-1.968-.398-2.229-.637l.051-.274s1.764-.066 2.099-.503l-2.099.373-.025-.143 1.19-1.663a.736.736 0 0 1 .427-.267zM115.331 129.894c.216.323.287.721.198 1.099a.583.583 0 0 1-.303.436c-.316.097-.648.131-.978.099 0 0-1.159.095-1.29.821l-.107-.168a1.684 1.684 0 0 1-.265-.682c-.105-.659-.293-1.987-.159-2.302l.274-.045s.662 1.634 1.184 1.803l-1.063-1.847.13-.073 1.968.557a.73.73 0 0 1 .411.302zM112.026 131.636c-.243.302-.6.489-.987.516a.573.573 0 0 1-.507-.156 2.442 2.442 0 0 1-.388-.901s-.443-1.08-1.172-.981l.124-.156c.157-.192.352-.348.573-.459.596-.299 1.806-.878 2.147-.843l.124.245s-1.36 1.127-1.36 1.675l1.44-1.57.108.099.063 2.044a.73.73 0 0 1-.165.487z"/>
        <path fill="#444053" fill-rule="nonzero" d="M112.02 128.407l.222-.283a.096.096 0 0 1 .102-.029l.45.153a.092.092 0 0 1 .063.086v.392c0 .036-.021.07-.054.086l-.382.165a.086.086 0 0 1-.112-.032l-.293-.426a.096.096 0 0 1 .003-.112z"/>
        <path fill="#FFD2C6" fill-rule="nonzero" d="M236.572 104.844l-3.592 7.642s-.528 1.433-.869 1.7c-.34.268-1.85 4.796-1.85 4.796l-3.853 5.938-.261.405-1.513-.417-1.057-3.955.064-1.146v-.147s2.382-2.49 2.91-2.681c0 0 .414.048 1.207-1.882.793-1.93 1.513-2.347 1.513-2.347l.414-1.4 4.458-7.102s3.738-5.359 4.757-2.98c1.019 2.378-2.328 3.576-2.328 3.576z"/>
        <path fill="#D38884" fill-rule="nonzero" d="M193.145 112.868a5.248 5.248 0 0 0-.417 1.274c-.022.111-.048.229-.076.35-.246 1.274-.418 2.866-.5 3.802-.042.468-.064.767-.064.767s-9.018-.605-7.454-2.114c.4-.42.684-.937.824-1.5.045-.159.086-.318.118-.49.074-.376.122-.757.143-1.14v-.293c.02-.623-.01-1.247-.089-1.866 0 0 2.933-.02 5.143.236 1.496.172 2.656.461 2.372.974z"/>
        <path fill="#FFD2C6" fill-rule="nonzero" d="M221.657 159.06a.828.828 0 0 1-.12.365c-.415.605-2.758 12.954-2.758 12.954.187.834-.338 2.496-.679 3.254-.34.758-1.098 4.681-1.098 4.681s-.188 8.464-.675 9.782c-.488 1.318.156 4.156.156 4.156-.048 1.302.735 2.68 1.2 3.381a8.253 8.253 0 0 0 .34.471c.13.253.31.475.53.653l.105.083a6.05 6.05 0 0 0 2.117.892l.073.016c.303.067.5.095.5.095l.195 1.035-2.003.414-3.822.264s-4.496.341-3.477-1.662a3.34 3.34 0 0 0 .185-.423c.038-.096.073-.198.105-.3.611-1.91.197-4.263.197-4.263l-.869-6.834c-1.433-6.346 1.13-13.412 1.13-13.412s-.222-.564.268-2 .006-4.582.006-4.582-.26-4.044-.601-6.05a11.941 11.941 0 0 1-.137-2.547c.015-.5.06-.997.137-1.49l8.597-1.14s.5 1.41.398 2.206z"/>
        <path fill="#000" fill-rule="nonzero" d="M221.543 200.878l-2.003.414-3.822.264s-4.496.341-3.477-1.662a3.34 3.34 0 0 0 .185-.423c.038-.096.073-.198.105-.3.78.025 1.549.18 2.277.459 1.273.493 2.229-.793 2.229-.793l.637-1.188.089-.172c.153.217.251.341.251.341.151.292.37.544.637.736l-.105.22-.605 1.273s.774.08 1.831.248a.818.818 0 0 0 .997-.544l.073.016c.302.067.5.095.5.095l.2 1.016z" opacity=".1"/>
        <path fill="#626696" fill-rule="nonzero" d="M223.386 201.805c-.15.681-4.362.888-4.362.888s-2.34-.226-3 .319c-.659.544-2.592.414-2.665.414-.073 0-1.095-.039-1.493-1.866-.399-1.828.519-2.096.563-2.112a6.897 6.897 0 0 1 2.382.462c1.274.494 2.229-.793 2.229-.793l.713-1.36c.153.217.252.341.252.341.15.292.37.545.637.736l-.71 1.49s.773.08 1.83.248a.876.876 0 0 0 1.07-.83.956.956 0 0 0 0-.115s.66.19 1.472.417c.767.212 1.24.98 1.082 1.76z"/>
        <path fill="#FFD2C6" fill-rule="nonzero" d="M231.318 168.061c-.098.605-.2 2.168-.2 2.168.353 1.31-.554 4.417-.554 4.417l-.453 1.777c.201 2.267-1.245 7.805-1.245 7.805s-.955 5.139-1.474 7.355a6.117 6.117 0 0 0 .261 3.707c.026.06.042.089.042.089a2.915 2.915 0 0 0 .083.303c.111.31.28.595.496.843.083.1.173.192.27.277.47.419 1.01.753 1.593.987l.251.1c.262.1.53.184.803.25l.089.023-.2 1.188-2.669-.685-3.576-1.159-1.758-1.006.054-.284v-.028c0-.08.03-.172.051-.277.274-1.56.956-5.92.618-9.133-.427-3.977 1.23-9.467 1.634-10.775.239-.749.341-1.534.302-2.319-.656-.955-.805-4.776-.805-4.776s-1.21-2.468-2.21-5.095a13.269 13.269 0 0 1-.72-2.646 9.234 9.234 0 0 1-.146-1.936s8.11-7.403 9.002-.236c.031.242.057.475.085.7.832 6.576.472 7.783.376 8.366z"/>
        <path fill="#000" fill-rule="nonzero" d="M231.318 198.181l-.2 1.188-2.669-.685-3.576-1.159-1.757-1.006.054-.284v-.028c0-.08.028-.172.05-.277l.252-.026h.02a3.328 3.328 0 0 1 1.496.204c.583.217 1.344.468 1.503.363.269-.116.56-.169.853-.153l.373-.812.054-.124c.112.31.28.596.497.844.088.104.184.202.286.293v.286l-.019.408c.396.254.825.453 1.274.592.117.029.24.029.357 0l.251.099c.262.1.53.185.803.252l.098.025z" opacity=".1"/>
        <path fill="#626696" fill-rule="nonzero" d="M229.984 200.713c-.745-.214-2.547-.558-2.83-.29-.284.267-2.784 0-2.784 0a1.522 1.522 0 0 1-1.274-.755c-.515-.809-.098-3.413-.098-3.413l.184-.02.319-.028h.019a3.328 3.328 0 0 1 1.497.204c.582.216 1.343.468 1.503.363.268-.118.56-.17.853-.153l.427-.936c.111.31.28.595.496.843.089.105.184.203.287.293l-.035.695c.396.253.824.452 1.274.592a.513.513 0 0 0 .614-.198.462.462 0 0 0 .048-.102c.022.042.267.128 1.054.35.85-.047 1.675.32 2.054 1.481.379 1.163-2.866 1.284-3.608 1.074z"/>
        <path fill="#000" fill-rule="nonzero" d="M221.657 159.06l-.462.14c-.363.109-.735.187-1.11.235-2.386.318-6.312.134-7.56.054.015-.5.06-.997.137-1.49l8.597-1.14s.5 1.404.398 2.2z" opacity=".1"/>
        <path fill="#626696" fill-rule="nonzero" d="M229.185 156.97s-3.162.487-5.732 1.051c-.857.188-1.653.382-2.229.573a6.47 6.47 0 0 1-1.111.236c-2.866.401-7.96.032-7.96.032-1.396-4.535 1.7-10.238 1.7-10.238-.074-.455.636-1.85.636-1.85v-.044l.44-1.618h11.747l.143.694.3 1.414 1.843 8.757.223.993z"/>
        <path fill="#000" fill-rule="nonzero" d="M230.987 159.715l-.07.032-1.376.611c-1.487.685-5.938.815-7.495.828a9.234 9.234 0 0 1-.147-1.936s8.11-7.403 9.002-.236c.032.242.057.469.086.701z" opacity=".1"/>
        <path fill="#626696" fill-rule="nonzero" d="M231.204 159.014l-.287.128-1.376.611c-1.512.698-6.107.822-7.581.828h-.386c-.681-.022-1.36-.659-1.36-.825 0-.092-.07-.538-.13-.923l-.095-.573s-3.022-1.309-4.57-2.366c-1.156-.787-.863-6.369-.637-9.174.077-.955.147-1.592.147-1.592l11.89.694 1.668.099.956.21.254.054s.682 4.987 1.023 5.413c.34.427.114 1.812.073 2.608a4.84 4.84 0 0 1-.112 1.02s.49 1.397.376 2.18a4.362 4.362 0 0 0 .147 1.608z"/>
        <path fill="#D38884" fill-rule="nonzero" d="M177.533 155.776c-3.073-.102-.81-6.496-.456-7.362.354-.866-.525-2.965-.525-2.965s-1.035-6.094-1.035-6.495c-.054-.83-.17-1.656-.35-2.468a4.098 4.098 0 0 1 .401-2.417c.353-.554.318-2.77.318-2.77v-2.866l.682-.908 1.754 1.656.488.459.853 3.21-.303 4.597-.168 4.477 1.057 6.194s.357 7.757-2.716 7.658z"/>
        <path fill="#000" fill-rule="nonzero" d="M178.488 129.939l-2.618-1.083v-.426l.682-.908 1.754 1.656z" opacity=".1"/>
        <path fill="#4C4981" fill-rule="nonzero" d="M177.281 123.392c-.336.826-.58 1.687-.726 2.567a11.53 11.53 0 0 1-.685 2.467l2.92 1.21-1.509-6.244z"/>
        <path fill="#000" fill-rule="nonzero" d="M177.281 123.392c-.336.826-.58 1.687-.726 2.567a11.53 11.53 0 0 1-.685 2.467l2.92 1.21-1.509-6.244z" opacity=".05"/>
        <path fill="#D38884" fill-rule="nonzero" d="M200.463 186.991l-.255.513s-.264 1.71-.264 1.748c0 .039-.755 1.182-.755 1.182l-1.91.407-.806-.098a11.02 11.02 0 0 0-.312-1.793 10.54 10.54 0 0 0-1.328-3.01s-1.408-3.473-1.91-3.926c-.504-.452-2.42-5.037-2.23-6.145.109-.608.023-2.643-.08-4.34-.079-1.385-.171-2.548-.171-2.548l4.776-2.83.557.878.319.523v.324a8.868 8.868 0 0 1-.427 2.092s-.36 2.57 0 3.022c.36.452 1.497 6.512 1.748 9.314 0 .086 0 .172.023.252.098 1.274.898 2.436 1.697 3.276l.159.163c.366.358.757.691 1.169.996z"/>
        <path fill="#000" fill-rule="nonzero" d="M196.495 190.743l.806.098 1.91-.407s.755-1.143.755-1.182c0-.038.242-1.748.242-1.748l.242-.513.029-.063a10.868 10.868 0 0 1-1.31-1.076l-.13-.131s.27 1.665-1.178 2.41c-.7.36-1.274.637-1.681.828l.315 1.784z" opacity=".1"/>
        <path fill="#CEDDF9" fill-rule="nonzero" d="M200.794 187.23l-.268.593s-.264 1.71-.264 1.748c0 .038-.755 1.181-.755 1.181l-1.91.408-1.092-.13c0-.224-.035-.533-.093-.912a11.21 11.21 0 0 0-.14-.754c.405-.188 1.057-.5 1.888-.927 1.45-.742 1.175-2.407 1.175-2.407.314.314.647.609.997.882.194.14.366.251.462.318z"/>
        <path fill="#000" fill-rule="nonzero" d="M200.794 187.23l-.268.593s-.264 1.71-.264 1.748c0 .038-.755 1.181-.755 1.181l-1.91.408-1.092-.13c0-.224-.035-.533-.093-.912.233.01.465.042.691.096 0 0 2.595.554 2.72-1.5.073-1.165.318-1.624.51-1.802.193.14.365.251.46.318z" opacity=".1"/>
        <path fill="#CC8294" fill-rule="nonzero" d="M200.603 187.093s-.637-.143-.774 1.911-2.72 1.5-2.72 1.5-1.273-.319-1.273.213c.042.489.157.969.34 1.423 0 0 .074 1.22.319 1.51.245.29.086 1.372.086 1.372s.102.806 2.105 0c0 0 1.79-.366 3.273-2.592.048-.076-.178-.318 1.121-.767 1.3-.45 5.009-3.452 4.72-4.914a1.232 1.232 0 0 0-.88-1.044 1.497 1.497 0 0 0-1.159.156c-.35.188-.712.355-1.082.5-.495.2-1.016.325-1.548.37a5.71 5.71 0 0 0-1.2.229c-.45.127-1.007.248-1.328.133z"/>
        <path fill="#D38884" fill-rule="nonzero" d="M185.917 172.984c-.285.241-.53.525-.73.84-.732 1.118-1.171 2.682-1.668 3.354-.637.872-.815 2.57-.815 2.57-.169 1.114-2.528 7.065-3.184 8.122-.656 1.058-1.529 3.927-1.529 3.927-.544.684-.512 1.697-.455 2.18 0 .084.019.15.025.195l.016.08-.016.028-.872 1.484-2.777-.385-1.407-.978c.12-.19.226-.387.318-.592.768-1.713 1.315-4.776 1.315-4.776s.77-3.503.714-4.306a32.6 32.6 0 0 1 .229-3.324s2.171-6.687 2.866-7.782a3.05 3.05 0 0 0 .525-1.433 1.185 1.185 0 0 0 0-.319l.94-.933s7.715 1.086 6.505 2.048z"/>
        <path fill="#000" fill-rule="nonzero" d="M177.6 193.95s0 .085-.016.222v.108l-.873 1.484-2.777-.385-1.43-.978c.12-.19.227-.387.32-.592.697-.197 2.295.366 2.295.366s1.726.319 2.452-.197l.029-.029z" opacity=".1"/>
        <path fill="#CEDDF9" fill-rule="nonzero" d="M176.909 197.914l-2.812.684-2.586-1.91.13-1.077a1.91 1.91 0 0 0 .475-.433c.191-.222.32-.49.376-.777.15-.79 2.608.077 2.608.077s1.796.34 2.493-.226a4.347 4.347 0 0 0 .134 1.554c.065.246.211.463.414.617.713.49-1.232 1.49-1.232 1.49z"/>
        <path fill="#000" fill-rule="nonzero" d="M176.909 197.914l-2.812.684-2.586-1.91.13-1.077a1.91 1.91 0 0 0 .475-.433c.19-.01.378-.01.567 0 .433.038 1.452 1.892 1.452 1.892 2.547.168 3.318-.666 3.592-1.274.065.246.211.464.414.618.713.5-1.232 1.5-1.232 1.5z" opacity=".1"/>
        <path fill="#CC8294" fill-rule="nonzero" d="M174.132 197.375s-1.02-1.853-1.452-1.891c-.365-.02-.73-.02-1.096 0 0 0-1.133 2.684-1.55 2.93-.417.245-1.032 1.509-1.032 1.509s2.99 2.891 5.888 2.343a5.983 5.983 0 0 1 2.65.66c1.34.7 6.928.172 7.61-1.058.509-.92.71-1.592.264-2.079a1.2 1.2 0 0 0-1.054-.357c-.704.096-2.28.074-3.669-1.624 0 0-2.547-2.337-2.757-2.34-.21-.003.185 2.184-3.802 1.907z"/>
        <path fill="#000" fill-rule="nonzero" d="M196.151 167.864l-.019.022c-.172.19-1.407 1.541-1.777 1.64-.62.233-1.225.5-1.815.802 0 0-.755 1.01-1.36 1.057a2.4 2.4 0 0 0-.531.144c-.08-1.385-.172-2.548-.172-2.548l4.776-2.83.557.878c.128.357.268.682.319.787l.022.048z" opacity=".1"/>
        <path fill="#CEDDF9" fill-rule="nonzero" d="M178.74 148.414s-1.863 2.426 0 5.649c1.862 3.222 3.82 4.834 3.82 4.834l6.347 13.144s1.662-.907 2.267-.955c.605-.048 1.36-1.057 1.36-1.057a18.185 18.185 0 0 1 1.812-.809c.404-.099 1.799-1.659 1.799-1.659s-.691-1.512-.538-1.91c.152-.399-.456-1.411-.456-1.411a8.375 8.375 0 0 1-.401-1.564c0-.4-.656-1.36-.656-1.36s-.653-1.006-.653-1.56-.955-2.719-.955-2.719l-.252-9.553-13.494.93z"/>
        <path fill="#000" fill-rule="nonzero" d="M196.151 167.561s-1.395 1.557-1.796 1.662c-.62.233-1.225.501-1.815.803 0 0-.755 1.01-1.36 1.057a4.86 4.86 0 0 0-1.238.446c-.542.248-1.026.512-1.026.512l-6.346-13.144a13.9 13.9 0 0 1-1.541-1.592 21.863 21.863 0 0 1-2.29-3.236 5.451 5.451 0 0 1-.72-3.92 4.54 4.54 0 0 1 .72-1.729l4.516-.318 8.983-.637.076 2.828.175 6.74s.15.338.319.781c.277.681.636 1.592.636 1.94 0 .553.653 1.56.653 1.56s.656.955.656 1.36c.083.532.218 1.056.401 1.563 0 0 .605 1.006.453 1.407-.153.401.544 1.917.544 1.917z" opacity=".05"/>
        <path fill="#000" fill-rule="nonzero" d="M185.917 172.984c-.285.241-.53.525-.73.84-2.738.198-5.922-1.235-6.75-1.63a1.185 1.185 0 0 0 0-.318l.94-.933s7.75 1.08 6.54 2.04z" opacity=".1"/>
        <path fill="#CEDDF9" fill-rule="nonzero" d="M194.002 151.395s-.405 1.407-.554 2.012c-.15.605-.452 3.576-.452 3.576l-.176.831-2.865 13.715-.637 2.98c-1.108.605-3.879-1.01-3.879-1.01-3.222.357-7.203-1.71-7.203-1.71s.656-2.114.504-3.183c-.153-1.07.907-1.911.907-1.911-.252-.955.653-5.136.653-5.136s.204-1.56.955-1.965c.752-.404-.099-1.006-.318-1.36-.099-.172-.029-.566.073-.923a7.04 7.04 0 0 1 .23-.688c-1.911-1.91-2.23-4.92-2.23-6.585-.005-.407.014-.814.054-1.22l4.162-.726 9.085-1.592.923 2.866.233.717.535 1.312z"/>
        <path fill="#000" fill-rule="nonzero" d="M193.145 112.868a5.248 5.248 0 0 0-.417 1.274c-.022.111-.048.229-.076.35-.876.57-1.417.573-2.548.573-.385 0-.602-.739-.955-.815 0 0-.548-1.977-.704-.318-1.054-.22-1.965.605-2.713-.115v-.293c.02-.623-.01-1.247-.089-1.866 0 0 2.933-.02 5.143.236 1.483.172 2.643.461 2.36.974z" opacity=".1"/>
        <path fill="#D38884" fill-rule="nonzero" d="M195.225 109.49a5.614 5.614 0 0 1-6.742 5.496 5.61 5.61 0 1 1 6.742-5.496z"/>
        <path fill="#000" fill-rule="nonzero" d="M192.152 118.294c-.042.468-.064.767-.064.767s-9.018-.605-7.454-2.114c.4-.42.684-.937.824-1.5l3.91.637s1.106.86 1.965 1.662c.244.222.52.407.819.548zM193.495 150.385a2.93 2.93 0 0 1-1.18-.092 2.254 2.254 0 0 1-.482-.21c-.754-.453-3.27.101-3.27.101s-6.853.456-7.155 0c-.172-.257-1.376-.22-2.37-.14-.4.032-.77.07-1.018.1a4.54 4.54 0 0 1 .72-1.73l4.515-.318 9.085-1.593.923 2.866c.105.58.232 1.016.232 1.016z" opacity=".1"/>
        <path fill="#4C4981" fill-rule="nonzero" d="M189.381 116.39l-4.916-.806a1.452 1.452 0 0 1-.927.806c-.656.153-3.576 1.662-4.884 3.477l-1.31 1.812s-1.06 1.309-.706 2.366c.353 1.057.755 4.636.755 4.636l.506 3.977s.955 2.866.653 4.14c-.303 1.274.153 6.547.153 6.547l-1.01 6.547s3.426-.453 3.729 0c.302.452 7.152 0 7.152 0s2.515-.555 3.273-.102a2.7 2.7 0 0 0 1.66.318s-.603-2.063-.252-3.222c.35-1.16.251-3.274.251-3.274s.506-3.073.255-3.627c-.252-.554.554-2.566.554-2.566l2.668-14.052s-.318-2.52-1.748-3.376c-1.43-.856-3.038-1.108-3.894-1.91-.857-.803-1.962-1.691-1.962-1.691z"/>
        <path fill="#D38884" fill-rule="nonzero" d="M191.633 130.241v1.663l1.57 4.177.563 3.879s1.006 2.77 1.006 3.729c0 .958 2.452 5.604 2.452 5.604s.672 1.563.338 1.863c-.335.299-3.258 6.935.417 6.734 3.675-.2 2.519-7.151 2.519-7.151l-.503-3.022s-.707-7.553-.707-8.107c0 0-.905-3.226-1.007-3.93-.101-.704-.754-4.28-.754-4.28l-.554-2.318-5.34 1.16z"/>
        <path fill="#000" fill-rule="nonzero" d="M189.884 135.48l-5.476 3.133-1.7 2.57 2.263-2.306zM188.222 141.485s-2.493 1.624-3.665 1.624c-1.172 0-3.891 2.796-3.891 2.796s3.853-2.49 4.14-2.417c.286.073 3.416-2.003 3.416-2.003zM181.838 142.354s-2.34 2.115-1.739 2.34c.602.227 3.742-2.34 3.742-2.34h-2.003zM192.187 134.798s-1.812 2.455-1.322 2.417c.49-.038 1.889-1.433 1.889-1.433l-.567-.984zM192.451 137.215s-1.965 2.229-1.888 2.796c.076.567 1.888-2.796 1.888-2.796zM192.945 138.33s-1.325 2.362-.758 2.865c.567.503.758-2.866.758-2.866zM191.244 132.267s-.984 1.662-.264 1.776c.72.115.786 0 .786 0l-.522-1.776zM191.508 126.188a17.443 17.443 0 0 1-1.006 2.964 14.01 14.01 0 0 1-.395-1.487 10.19 10.19 0 0 1 1.401-1.477zM194.505 106.729c-.097.212-.225.41-.38.586-.258.232-.488.495-.684.783-.21.401-.172.885-.245 1.337-.073.453-.357.956-.809.956a1.802 1.802 0 0 1-.665-.198.672.672 0 0 0-.663.02.732.732 0 0 0-.21.5c-.057.39-.08.784-.067 1.177 0 .158.01.314.03.469.047.506.146 1.047-.093 1.5a1.79 1.79 0 0 1-.93.744 5.537 5.537 0 0 1-1.306.367c-.854.105-1.716.134-2.576.086a.637.637 0 0 1-.229-.039.318.318 0 0 1-.099-.063 8.34 8.34 0 0 0 .153-1.433 5.61 5.61 0 1 1 8.776-6.795l-.003.003z" opacity=".1"/>
        <path fill="#1E1637" fill-rule="nonzero" d="M192.158 101.965c-.516-.05-1 .223-1.506.334-1.045.233-2.114-.245-3.184-.242a5.872 5.872 0 0 0-2.618.784c-.65.303-1.24.717-1.748 1.223a2.83 2.83 0 0 0-.831 1.91c0 .414.12.85-.038 1.236-.11.205-.238.4-.382.582a1.71 1.71 0 0 0-.179 1.44c.214.469.505.9.86 1.273.691.889 1.124 1.95 1.742 2.885.268.41.572.796.907 1.153.054.065.12.118.195.156a.678.678 0 0 0 .229.035c1.312.035 2.675.064 3.881-.452a1.79 1.79 0 0 0 .93-.745c.24-.45.14-.994.093-1.5a6.783 6.783 0 0 1 .038-1.646.755.755 0 0 1 .21-.5.675.675 0 0 1 .665-.02c.205.112.43.179.663.198.455-.016.739-.51.812-.955.073-.446.032-.93.245-1.334.195-.287.423-.55.681-.78.631-.803.842-1.858.567-2.841-.28-.92-1.188-2.086-2.232-2.194z"/>
        <circle cx="218.476" cy="112.741" r="4.872" fill="#FFD2C6" fill-rule="nonzero"/>
        <path fill="#FFD2C6" fill-rule="nonzero" d="M216.097 114.772s.341 4.614-.605 5.675c-.945 1.06-3.397 3.056-3.397 3.056l.754 3.137 4.267.49 4.987-5.324-1.134-1.398s-.869-2.945-.15-4.42c.72-1.474-4.722-1.216-4.722-1.216z"/>
        <path fill="#000" fill-rule="nonzero" d="M226.408 124.91l-.261.405-1.513-.417-1.057-3.945.064-1.146.318-.45s1.663.039 1.593 1.551c-.08 1.319.675 3.5.856 4.003zM229.694 146.774s-1.203.268-2.579.446c-1.376.178-2.968.274-3.617-.108-1.093-.637-7.006-.462-8.719-.395h-.293l.44-1.618h11.746l.144.694 1.668.1.956.21c.156.404.254.671.254.671z" opacity=".1"/>
        <path fill="#FFCDE5" fill-rule="nonzero" d="M223.65 119.654s1.663.035 1.593 1.547c-.07 1.513.904 4.118.904 4.118l-.376.869s-.528 2.114-.114 2.643c.414.528 1.926.528 1.057 4.872 0 0-.188 3.248.264 4.305.452 1.057.455 3.589 1.134 4.646.678 1.057 1.592 3.502 1.592 3.502s-4.91 1.096-6.194.338c-1.283-.758-9.18-.376-9.18-.376s.038-1.321 0-1.474a1.274 1.274 0 0 1 .191-.955c.264-.36.678-.956.452-1.494-.226-.538.567-1.305.153-2.127-.414-.821-.923-.98-.821-1.43.102-.449-.163-1.05-.465-1.43-.303-.378-2.34-4.368-2.34-4.368l-.341-1.863s-2.63-1.927-2.58-2.834c.051-.908.994-2.162.994-2.162l2.547-2.484s1.395 1.513 2.758.984c1.363-.529 4.28-3.06 4.28-3.06s1.044-.567 1.12-.98c.077-.415.717-.039.717-.039s.955-.519 1.133-.334c.179.184 1.02.334 1.02.334l.502-.748z"/>
        <path fill="#FFD2C6" fill-rule="nonzero" d="M209.375 127.522l-.805.637s-.822 1.474-1.01 4.117a54.365 54.365 0 0 1-1.019 6.369l-1.592 2.84s-2.608 5.474-2.948 6.929c-.341 1.455-1.889 3.91-1.889 3.91s-5.25 4.72-1.592 5.57c3.659.85 3.777-3.755 3.777-3.755s.853-.955.993-1.592c.14-.637 4.777-8.855 4.777-8.855s1.624-2.21 1.273-3.382c0 0 2.115-4.974 2.115-6.219a21.93 21.93 0 0 0-.341-3.11l.34-2.606-2.079-.853z"/>
        <path fill="#000" fill-rule="nonzero" d="M220.269 137.935s-3.704 1.936-4.42 2.038c-.716.101 3.133-.414 3.133-.414l1.287-1.624zM223.275 139.444s-4.91 1.662-7.063 1.36c0 0 5.362 1.022 7.063-1.36z" opacity=".1"/>
        <path fill="#000" fill-rule="nonzero" d="M223.577 139.985s-4.42 2.783-7.027 2.331c0 0 6.082 1.207 7.027.567l-2.72-.758s3.023-1.595 2.72-2.14zM218.482 104.165c-1.273-.258-2.693-.098-3.716.704-.757.596-1.273 1.506-2.114 1.952-.45.189-.91.35-1.379.484a3.99 3.99 0 0 0-2.436 4.29c.134.748.484 1.439.66 2.18.318 1.319.034 2.698-.3 4.01A42.252 42.252 0 0 1 205 128.197c-.147.202-.22.448-.207.697a1 1 0 0 0 .258.45c1.745 2.015 4.586 2.71 7.25 2.798.985.035 2.013 0 2.867-.477a4.34 4.34 0 0 0 1.404-1.274 6.827 6.827 0 0 0 1.299-4.388c-.073-1.274-.497-2.547-.178-3.773.034-.172.112-.332.226-.465.286-.293.764-.213 1.172-.261 1.11-.13 1.824-1.3 1.958-2.408.134-1.108-.147-2.229-.153-3.34a6.97 6.97 0 0 1 1.318-4.108c.37-.509.838-1.009.956-1.646.153-.796-.319-1.382-.704-2.012-.637-.978-.923-2.124-1.866-2.866a5.07 5.07 0 0 0-2.118-.959z" opacity=".1"/>
        <path fill="#985C7E" fill-rule="nonzero" d="M218.18 103.863c-1.274-.255-2.694-.099-3.716.707-.758.595-1.274 1.503-2.114 1.949-.45.188-.91.35-1.38.487a3.977 3.977 0 0 0-2.432 4.286c.134.748.484 1.442.656 2.181.318 1.318.038 2.697-.3 4.009a42.131 42.131 0 0 1-4.196 10.413c-.147.202-.22.448-.207.697a1 1 0 0 0 .258.449c1.745 2.016 4.585 2.71 7.253 2.799.981.035 2.01 0 2.866-.475a4.385 4.385 0 0 0 1.405-1.29 6.827 6.827 0 0 0 1.299-4.387c-.074-1.274-.497-2.548-.179-3.773.035-.171.113-.33.226-.462.287-.296.765-.217 1.172-.264 1.112-.131 1.825-1.3 1.959-2.408.133-1.108-.147-2.229-.153-3.34a7.005 7.005 0 0 1 1.318-4.108c.37-.51.84-1.01.955-1.646.156-.796-.318-1.379-.703-2.013-.637-.977-.924-2.12-1.866-2.865a5.07 5.07 0 0 0-2.121-.946z"/>
        <path fill="#000" fill-rule="nonzero" d="M197.552 125.857a6.413 6.413 0 0 0 0 2.063c-.05.554 0 3.627 0 3.627-1.662-.503-5.89.506-5.89.506l-.507-1.512a3.742 3.742 0 0 1-.637-1.242 13.1 13.1 0 0 1-.395-1.487c-.219-1.045-.384-2.1-.493-3.162-.21-1.592 2.171-3.325 3.974-4.283 1.802-.958 3.381 3.12 3.381 3.12s.768 1.564.567 2.37z" opacity=".1"/>
        <path fill="#4C4981" fill-rule="nonzero" d="M197.552 125.554a6.413 6.413 0 0 0 0 2.064c-.05.554 0 3.626 0 3.626-1.662-.503-5.89.507-5.89.507l-.507-1.513a3.71 3.71 0 0 1-.637-1.242 13.1 13.1 0 0 1-.395-1.487c-.219-1.044-.384-2.1-.493-3.162-.21-1.592 2.171-3.324 3.974-4.283 1.802-.958 3.381 3.121 3.381 3.121s.768 1.564.567 2.37z"/>
        <path fill="#000" fill-rule="nonzero" d="M216.55 151.092s.955 4.531 2.582 5.767l-2.582-5.767z" opacity=".1"/>
        <path fill="#000" fill-rule="nonzero" d="M194.355 104.175a3.385 3.385 0 0 0-.372-.809c.025.07.05.137.07.204a3.203 3.203 0 0 1-.567 2.84 4.407 4.407 0 0 0-.685.78c-.21.405-.172.886-.242 1.338-.07.452-.36.955-.812.955a1.675 1.675 0 0 1-.662-.197.685.685 0 0 0-.666.022.739.739 0 0 0-.21.497 6.783 6.783 0 0 0-.038 1.646c.048.506.147 1.05-.092 1.5a1.79 1.79 0 0 1-.93.745c-1.21.519-2.57.49-3.885.452a.704.704 0 0 1-.23-.035.567.567 0 0 1-.19-.156 8.521 8.521 0 0 1-.908-1.15c-.62-.939-1.054-1.996-1.742-2.884-.187-.246-.398-.481-.57-.733a.264.264 0 0 0 0 .048c.214.47.504.9.86 1.274.688.888 1.121 1.948 1.742 2.885.267.41.57.795.904 1.152.055.064.12.117.195.156a.704.704 0 0 0 .229.035c1.315.035 2.675.064 3.885-.452a1.79 1.79 0 0 0 .93-.745c.238-.449.14-.993.092-1.5a6.945 6.945 0 0 1 .035-1.646.774.774 0 0 1 .213-.5.675.675 0 0 1 .666-.019c.203.111.428.178.659.197.455-.016.742-.51.812-.955.07-.446.032-.93.245-1.334.196-.287.426-.549.685-.78.63-.799.845-1.849.58-2.831z" opacity=".2"/>
        <g fill="#000" fill-rule="nonzero" opacity=".1">
            <path d="M208.825 112.308c-.051-.179-.112-.354-.172-.529.05.178.111.353.172.529zM222.603 108.353c.014.142.007.286-.02.426-.123.637-.595 1.137-.955 1.647a7.005 7.005 0 0 0-1.318 4.11c0 1.115.284 2.23.153 3.338-.13 1.108-.847 2.28-1.955 2.407-.41.048-.885-.029-1.175.264a1.016 1.016 0 0 0-.226.462c-.319 1.226.105 2.51.178 3.773a6.837 6.837 0 0 1-1.299 4.391 4.397 4.397 0 0 1-1.401 1.274c-.866.468-1.91.51-2.866.478-2.624-.093-5.413-.764-7.165-2.707a.675.675 0 0 0-.044.363 1 1 0 0 0 .258.45c1.745 2.015 4.585 2.709 7.254 2.798.98.035 2.009 0 2.865-.474a4.385 4.385 0 0 0 1.405-1.29 6.827 6.827 0 0 0 1.299-4.388c-.073-1.274-.497-2.547-.178-3.773.034-.17.112-.33.226-.462.286-.296.764-.216 1.171-.264 1.112-.13 1.825-1.3 1.959-2.408.133-1.108-.147-2.229-.153-3.34a7.005 7.005 0 0 1 1.318-4.108c.37-.509.84-1.009.955-1.646.073-.46-.03-.932-.286-1.321z"/>
        </g>
    </g>
</svg>
